<svg width="240" height="220" viewBox="0 0 240 220" fill="none" xmlns="http://www.w3.org/2000/svg">
<path d="M23.8029 24.2287L169.046 1.81812L240 66.7077L230.145 220H92.6342L0 185.341L23.8029 24.2287Z" fill="black"/>
<path d="M23.8029 24.2287L169.046 1.81812L240 66.7077L230.145 220H92.6342L0 185.341L23.8029 24.2287Z" fill="#AA2F00"/>
<path d="M23.8029 24.2287L169.046 1.81812L240 66.7077L230.145 220L152.369 181.007L0 185.341L23.8029 24.2287Z" fill="#CF3A00"/>
<path d="M23.8029 24.2287L169.046 1.81812L152.369 181.007L0 185.341L23.8029 24.2287Z" fill="#F34400"/>
<path d="M158.487 47.899C152.347 38.7518 143.411 35.034 131.75 36.6082C122.373 37.8739 113.966 42.5429 106.454 50.5969C96.3946 61.3914 90.2786 75.9679 88.0393 94.5661C85.6666 114.26 88.1849 128.93 95.7351 138.494C101.857 146.186 109.973 149.817 120.114 149.283C131.728 148.67 141.838 142.7 150.309 131.356C153.417 127.2 156.072 122.643 158.262 117.693L163.684 59.4417C162.447 55.0628 160.712 51.2168 158.487 47.9005V47.899ZM130.777 113.134C128.447 118.449 125.63 121.226 122.338 121.467C119.147 121.701 116.948 119.276 115.736 114.21C114.529 109.181 114.447 102.014 115.467 92.74C116.497 83.3898 118.199 76.2504 120.584 71.2776C123.045 65.9291 125.881 63.0709 129.105 62.6969C135.6 61.9426 137.856 71.4516 135.806 91.4529C134.87 100.577 133.194 107.819 130.777 113.134Z" fill="white"/>
<path d="M44.4234 49.6576L41.0819 73.6469L54.0598 72.1476L43.3349 151.927L68.0959 150.595L78.2781 69.3505L92.5765 67.6984L95.5633 42.8022L44.4249 49.6561L44.4234 49.6576Z" fill="white"/>
<path d="M163.682 59.4523L158.26 117.703C160.657 110.39 162.344 101.336 163.34 90.5337C164.382 79.2322 164.493 68.8987 163.682 59.4538V59.4523Z" fill="#D9D9D9"/>
<path d="M232.757 89.2984L231.244 112.085L236.804 116.412L238.25 93.9109L232.757 89.2984Z" fill="#D9D9D9"/>
<path d="M197.063 67.9898C194.532 60.1023 190.13 53.5034 183.734 48.1336L170.309 36.8611L160.111 148.479L174.845 157.025L177.976 120.517L180.145 121.961C185.26 125.369 189.283 125.775 192.262 123.259C196.549 119.561 199.154 111.42 200.137 98.8513C201.031 87.4186 200.012 77.1797 197.063 67.9898ZM184.789 97.7475C183.635 99.1918 182.227 99.3155 180.562 98.1169L179.94 97.6009L182.048 73.0207L182.992 73.7566C184.46 74.9017 185.564 77.0026 186.31 80.0547C187.056 83.0519 187.277 86.3742 186.972 90.0248C186.663 93.735 185.935 96.3077 184.789 97.7459V97.7475Z" fill="#D9D9D9"/>
<path d="M227.289 92.7551C225.077 85.544 221.268 79.6505 215.765 75.0288L204.253 65.3626L196.171 169.394L208.73 176.678L211.214 142.656L213.071 143.893C217.457 146.815 220.901 147.001 223.441 144.517C227.101 140.867 229.298 133.149 230.081 121.377C230.796 110.662 229.869 101.163 227.29 92.7536L227.289 92.7551ZM216.916 121.151C215.936 122.554 214.734 122.743 213.306 121.714L212.772 121.267L214.449 98.2944L215.26 98.9265C216.521 99.9098 217.475 101.805 218.128 104.605C218.782 107.355 218.988 110.436 218.746 113.851C218.5 117.32 217.89 119.754 216.917 121.152L216.916 121.151Z" fill="#D9D9D9"/>
</svg>
