<svg width="240" height="220" viewBox="0 0 240 220" fill="none" xmlns="http://www.w3.org/2000/svg">
<path d="M23.8029 24.2287L169.046 1.81812L240 66.7077L230.145 220H92.6342L0 185.341L23.8029 24.2287Z" fill="black"/>
<path d="M23.8029 24.2287L169.046 1.81812L240 66.7077L230.145 220H92.6342L0 185.341L23.8029 24.2287Z" fill="#70060D"/>
<path d="M23.8029 24.2287L169.046 1.81812L240 66.7077L230.145 220L152.369 181.007L0 185.341L23.8029 24.2287Z" fill="#870810"/>
<path d="M23.8029 24.2287L169.046 1.81812L152.369 181.007L0 185.341L23.8029 24.2287Z" fill="#A00A13"/>
<path d="M119.01 92.644C119.01 92.644 132.974 88.7552 140.716 64.4926C145.95 48.1771 139.162 29.443 112.282 33.1456L56.2571 40.8621L7.77344 161.258L84.5446 157.618C108.61 156.477 127.967 132.079 127.74 106.573C127.642 94.6167 119.009 92.6425 119.009 92.6425L119.01 92.644ZM96.7538 115.957L93.1258 125.303L45.5336 128.689L52.7473 111.126L92.5512 107.959C96.719 107.608 98.6869 111.057 96.7523 115.958L96.7538 115.957ZM109.133 73.3329L105.496 82.4174L61.6726 86.8925L68.3374 69.8395L105.258 65.6118C109.407 65.1369 111.025 68.5509 109.131 73.3329H109.133Z" fill="white"/>
<path d="M158.78 60.5336L135.997 119.107C128.127 139.337 136.342 155.109 154.855 154.286L164.617 49.397C162.256 52.9682 160.272 56.7119 158.78 60.5336Z" fill="white"/>
<path d="M227.57 77.7498L203.323 181.237L214.515 187.523C215.843 188.27 217.144 186.919 217.756 184.161L229.529 131.347L233.366 169.908L238.678 87.2817L227.57 77.7514V77.7498Z" fill="#D9D9D9"/>
<path d="M182.031 169.548C190.882 174.515 201.15 164.475 205.191 147.719L216.436 101.032C220.096 85.8437 217.018 68.6975 209.377 62.1414L186.153 42.218C179.038 36.1153 170.344 39.2804 164.617 49.4108L154.854 154.297C154.871 154.306 154.888 154.317 154.904 154.327L182.029 169.547L182.031 169.548ZM197.765 86.8651C200.57 89.0424 201.793 93.8442 200.417 99.2522L192.957 128.587C191.511 134.291 187.924 137.436 184.928 135.511L169.314 125.478C166.043 123.377 164.746 116.777 166.419 110.79L174.508 81.8159L170.102 64.0224L197.765 86.8651Z" fill="#D9D9D9"/>
</svg>
