<svg width="240" height="220" viewBox="0 0 240 220" fill="none" xmlns="http://www.w3.org/2000/svg">
<path d="M23.8029 24.1865L169.046 2L240 66.2407L230.145 218H92.6342L0 183.688L23.8029 24.1865Z" fill="black"/>
<path d="M23.8029 24.1865L169.046 2L240 66.2407L230.145 218H92.6342L0 183.688L23.8029 24.1865Z" fill="#0C4080"/>
<path d="M23.8029 24.1865L169.046 2L240 66.2407L230.145 218L152.369 179.397L0 183.688L23.8029 24.1865Z" fill="#1D56A4"/>
<path d="M23.8029 24.1865L169.046 2L152.369 179.397L0 183.688L23.8029 24.1865Z" fill="#115CB7"/>
<path d="M156.329 137.277L150.092 137.639L153.341 92.7396L154.138 75.3009C153.454 78.6883 152.966 81.8731 152.119 85.0988C151.468 88.1204 150.636 91.1631 149.893 94.2013L137.522 138.665L117.811 139.805L116.199 97.2017C116.117 94.8694 116.096 90.4874 116.134 84.8207C116.239 83.885 116.094 82.1422 116.226 79.4531L113.773 96.9508L106.969 140.335L82.6052 141.745L103.265 47.9707L131.409 44.4185L132.931 75.0485C133.011 77.5546 133.228 80.4296 133.249 83.5177C133.27 86.6149 133.274 89.9115 133.07 93.5211C134.232 87.3706 135.486 81.9835 136.764 77.1707L146.176 42.6455L165.454 40.2134" fill="#115CB7"/>
<path d="M43.4411 143.825L38.2954 56.0015L59.7665 53.2883L60.1258 78.0399C60.3078 87.7213 59.956 98.6196 59.2086 110.836C60.4003 105.316 61.3842 100.192 62.5516 95.4257C63.7963 90.6643 64.9349 86.1024 66.3176 81.4378L75.152 51.4291L98.6941 48.4559L65.4064 142.55L43.4395 143.824L43.4411 143.825Z" fill="#115CB7"/>
<path d="M165.454 40.2119L146.176 42.644L136.764 77.1692C135.486 81.982 134.232 87.3676 133.07 93.5196C133.274 89.91 133.27 86.6133 133.249 83.5162C133.227 80.4281 133.011 77.5531 132.931 75.047L131.409 44.417L103.265 47.9692L82.6052 141.744L106.969 140.334L113.773 96.9493L116.226 79.4516C116.096 82.1407 116.239 83.8835 116.134 84.8191C116.096 90.4859 116.119 94.8679 116.199 97.2002L117.811 139.803L137.522 138.663L149.893 94.1998C150.636 91.1601 151.467 88.1173 152.119 85.0973C152.966 81.8716 153.454 78.6868 154.138 75.2994L153.341 92.7381L150.092 137.637L156.329 137.276" fill="#FED400"/>
<path d="M75.1535 51.4321L66.3191 81.4408C64.9349 86.1055 63.7963 90.6673 62.5531 95.4287C61.3842 100.196 60.4018 105.319 59.2101 110.839C59.9575 98.6226 60.3093 87.7243 60.1274 78.0429L59.768 53.2913L38.2969 56.0045L43.4426 143.828L65.4095 142.554L98.6972 48.4604L75.155 51.4336L75.1535 51.4321Z" fill="#FED400"/>
<path d="M171.576 106.536L186.155 116.433L187.662 98.4216L173.234 87.9949L171.576 106.536Z" fill="#E7BC08"/>
<path d="M170.547 44.3732L165.453 40.2225L156.327 137.288L166.344 143.206L170.547 44.3732Z" fill="#E7BC08"/>
<path d="M188.759 82.0833L195.019 86.8552L189.365 156.411L200.645 163.086L205.877 95.1294L211.847 99.6792L213.385 79.0919L190.567 60.4923L188.759 82.0833Z" fill="#E7BC08"/>
<path d="M234.28 136.02L233.867 135.727L233.799 135.678L235.045 116.669L235.691 117.162C236.031 117.42 236.34 117.783 236.624 118.235L237.861 99.1864C237.295 98.6332 236.704 98.1041 236.084 97.5978L227.08 90.2577L221.199 175.249L230.902 180.99L232.686 153.209L234.172 154.199C234.21 154.223 234.246 154.248 234.283 154.272L235.438 136.491C235.08 136.475 234.695 136.319 234.28 136.023V136.02Z" fill="#E7BC08"/>
<path d="M208.77 167.987L219.075 174.082L225.057 88.6086L215.227 80.5959L208.77 167.987Z" fill="#E7BC08"/>
</svg>
