<svg width="240" height="220" viewBox="0 0 240 220" fill="none" xmlns="http://www.w3.org/2000/svg">
<path d="M23.8029 24.2287L169.046 1.81812L240 66.7077L230.145 220H92.6342L0 185.341L23.8029 24.2287Z" fill="black"/>
<path d="M23.8029 24.2287L169.046 1.81812L240 66.7077L230.145 220H92.6342L0 185.341L23.8029 24.2287Z" fill="#70060D"/>
<path d="M23.8029 24.2287L169.046 1.81812L240 66.7077L230.145 220L152.369 181.007L0 185.341L23.8029 24.2287Z" fill="#870810"/>
<path d="M23.8029 24.2287L169.046 1.81812L152.369 181.007L0 185.341L23.8029 24.2287Z" fill="#A00A13"/>
<path d="M123.168 31.3147L56.8666 40.2862L7.89179 161.613L34.5131 160.375L50.5126 120.323L89.3857 117.367C107.362 116.001 128.879 98.0594 136.817 77.5237L142.251 63.4923C150.095 43.1994 141.337 28.855 123.168 31.3147ZM111.512 67.0116L106.119 80.7774C105.461 82.4248 103.411 83.9623 101.645 84.1379L63.1115 87.9656L70.8012 68.7278L109.421 64.3656C111.193 64.1656 112.142 65.3764 111.512 67.0116Z" fill="white"/>
<path d="M154.389 60.9314L131.555 119.628C123.644 139.962 131.83 155.838 150.349 154.974L154.811 154.766L165.199 43.1425C160.609 48.5841 156.838 54.6516 154.388 60.9314H154.389Z" fill="white"/>
<path d="M236.134 126.854L233.754 163.87L220.08 187.092C218.911 189.059 217.426 189.74 215.951 188.914L202.048 181.124L226.448 77.2672L237.925 87.0999L224.771 145.893L236.133 126.854H236.134Z" fill="#D9D9D9"/>
<path d="M207.72 60.3956L184.163 40.1684C178.065 34.9329 170.827 36.3605 165.205 43.0785L154.82 154.667L179.939 168.74C188.926 173.775 199.351 163.657 203.454 146.752L214.87 99.6714C218.582 84.3605 215.466 67.0449 207.722 60.3956H207.72ZM198.651 97.6774L191.034 127.499C189.565 133.254 185.922 136.422 182.88 134.469L167.02 124.29C163.698 122.157 162.379 115.483 164.083 109.438L172.311 80.1969L167.84 62.2049L196.026 84.0933C198.871 86.3102 200.049 92.2251 198.649 97.6758L198.651 97.6774Z" fill="#D9D9D9"/>
</svg>
