<svg width="240" height="220" viewBox="0 0 240 220" fill="none" xmlns="http://www.w3.org/2000/svg">
<path d="M23.8029 26.1865L169.046 4L240 68.2407L230.145 220H92.6342L0 185.688L23.8029 26.1865Z" fill="black"/>
<path d="M23.8029 26.1865L169.046 4L240 68.2407L230.145 220H92.6342L0 185.688L23.8029 26.1865Z" fill="#173D42"/>
<path d="M23.8029 26.1865L169.046 4L240 68.2407L230.145 220L152.369 181.397L0 185.688L23.8029 26.1865Z" fill="#1C4B51"/>
<path d="M23.8029 26.1865L169.046 4L152.369 181.397L0 185.688L23.8029 26.1865Z" fill="#20585F"/>
<path d="M68.8647 41.1943L37.6965 45.4221L36.0682 56.8524L43.673 55.8865L30.7937 148.112L23.0024 148.553L21.2437 160.901L50.5319 159.523L52.1966 146.9L44.1445 147.356L48.7808 112.963L59.5922 112.068C76.0677 110.704 83.204 102.134 85.0977 86.6767L88.2618 60.8535C90.2221 44.8598 83.6665 39.1855 68.8647 41.1943ZM71.3663 87.3766C70.4248 94.7469 67.3183 99.283 59.5558 99.9965L50.4167 100.837L56.6994 54.2329L65.7233 53.0872C73.6829 52.0759 75.3354 56.2947 74.4591 63.1601L71.3678 87.3766H71.3663Z" fill="white"/>
<path d="M147.657 28.5699C129.028 31.1229 120.409 39.6783 118.479 57.0263L110.116 132.183C107.944 151.708 115.884 158.564 134.573 157.713C143.4 157.311 150.192 155.357 155.174 151.561L166.531 30.7602C162.29 28.0122 155.983 27.4287 147.657 28.5699ZM135.934 144.277C126.983 144.772 124.009 141.413 125.011 131.948L133.196 54.5821C134.245 44.6694 138.543 41.9003 146.409 40.8906C155.365 39.7403 158.204 42.8525 157.351 51.689L149.74 130.353C148.771 140.361 144.49 143.806 135.934 144.277Z" fill="white"/>
<path d="M161.725 131.839L168.825 54.8939C169.75 44.8693 168.977 37.0984 166.53 30.759L155.173 151.56C158.678 148.914 160.744 142.452 161.724 131.839H161.725Z" fill="#D9D9D9"/>
<path d="M231.659 82.9403L230.919 93.8733L234.418 96.7407L228.66 183.552L224.992 181.399L224.195 193.159L231.621 197.289L238.66 88.8821L231.659 82.9403Z" fill="#D9D9D9"/>
<path d="M203.61 104.632L214.041 80.0516L218.186 83.4451L219.003 72.2037L205.102 60.4076L204.194 71.9875L207.255 74.4937L194.207 105.307L197.364 66.3918L201.106 69.4572L202.033 57.8032L186.915 44.9762L185.885 56.9915L190.231 60.5497L182.192 156.28L177.603 153.587L176.486 166.621L192.656 175.616L193.66 163.01L189.715 160.696L192.053 131.87L197.935 118.011L202.04 167.928L197.876 165.486L196.901 177.977L211.65 186.18L212.526 174.083L209.347 172.217L203.61 104.632Z" fill="#D9D9D9"/>
</svg>
