<svg width="240" height="220" viewBox="0 0 240 220" fill="none" xmlns="http://www.w3.org/2000/svg">
<path d="M23.8029 24.2287L169.046 1.81812L240 66.7077L230.145 220H92.6342L0 185.341L23.8029 24.2287Z" fill="black"/>
<path d="M23.8029 24.2287L169.046 1.81812L240 66.7077L230.145 220H92.6342L0 185.341L23.8029 24.2287Z" fill="#027561"/>
<path d="M23.8029 24.2287L169.046 1.81812L240 66.7077L230.145 220L152.369 181.007L0 185.341L23.8029 24.2287Z" fill="#008F76"/>
<path d="M23.8029 24.2287L169.046 1.81812L152.369 181.007L0 185.341L23.8029 24.2287Z" fill="#00A88B"/>
<path d="M233.3 93.5063L233.207 93.4452C230.362 92.5353 227.231 90.6924 223.811 87.8922C223.447 87.5945 223.08 87.2845 222.71 86.9654C222.96 88.3029 223.604 92.6086 224.009 103.096C224.441 114.303 220.305 153.71 219.032 165.293C222.343 165.012 225.713 165.012 229.087 165.067C229.393 162.318 229.784 157.629 230.017 154.817L234.29 155.515L237.148 111.06C234.963 98.1158 233.3 93.5063 233.3 93.5063ZM231.03 138.801C231.741 123.333 231.641 110.639 231.641 110.639C232.793 117.215 233.498 128.495 233.929 139.182L231.03 138.801Z" fill="#D9D9D9"/>
<path d="M173.45 157.982L179.809 152.446L184.927 100.105L171.184 74.6501L173.252 52.9846L177.395 56.5955L175.55 74.844L186.378 82.0567L188.724 54.7374L183.14 42.4267L168.895 30.371L165.814 31.5848L161.238 82.4415L172.927 102.511L169.835 135.234L165.718 132.89L168.441 103.666L159.789 98.5402L155.428 147.006L158.026 152.518L173.45 157.982Z" fill="#D9D9D9"/>
<path d="M217.193 82.0888C214.041 78.9634 208.986 73.3844 203.004 64.7014C202.932 64.5976 202.878 64.5197 202.841 64.4663C202.623 64.1579 202.417 63.8357 202.153 63.4296C200.173 60.3699 198.167 57.475 195.456 54.1802L193.596 75.7464L200.957 82.2629L194.3 164.961L204.1 164.972L210.258 91.0741L218.337 98.186C218.591 94.1216 218.525 87.8632 217.983 82.8583C217.592 82.4888 217.59 82.4812 217.193 82.0873V82.0888Z" fill="#D9D9D9"/>
<path d="M141.471 31.2505L124.365 33.5804L122.461 51.0517L139.658 48.9249L141.471 31.2505Z" fill="white"/>
<path d="M115.089 34.843L98.6208 37.0875L96.5862 54.2519L113.138 52.2045L115.089 34.843Z" fill="white"/>
<path d="M133.686 57.3771L102.816 61.0232L78.7571 154.435L99.6294 153.391L102.825 137.904L114.968 137.159L114.96 152.623L136.589 151.542L133.684 57.3756L133.686 57.3771ZM107.308 117.198L115.794 76.6883L114.783 116.627L107.308 117.198Z" fill="white"/>
<path d="M156.013 79.971L161.577 82.0643L166.297 31.3588L160.204 35.9606L156.013 79.971Z" fill="white"/>
<path d="M154.208 98.9431L150.022 142.902L155.558 146.755L160.08 98.1598L154.208 98.9431Z" fill="white"/>
<path d="M56.5554 82.973L49.5252 83.7135L55.0104 43.0315L36.3244 45.5767L20.4735 157.352L39.725 156.388L46.5763 105.577L53.6475 104.948L46.8917 156.03L66.9559 155.026L81.4074 39.4358L61.9633 42.0849L56.5554 82.973Z" fill="white"/>
</svg>
