<svg width="60" height="60" viewBox="0 0 60 60" fill="none" xmlns="http://www.w3.org/2000/svg">
<g clip-path="url(#clip0_7068_9338)">
<path d="M0 0H60V60H0V0Z" fill="#A83001"/>
<path d="M207.761 14.4032H193.541C193.171 14.4966 192.77 14.7145 192.523 14.9635L191.043 16.4576C190.703 16.8 190.148 16.8 189.809 16.4576L188.328 14.9635C188.082 14.7145 187.681 14.5277 187.31 14.4032H175.774C175.404 14.4966 175.003 14.7145 174.756 14.9635L173.276 16.4576C172.936 16.8 172.381 16.8 172.042 16.4576L170.561 14.9635C170.314 14.7145 169.913 14.5277 169.543 14.4032H140.147C139.684 14.4032 139.006 14.6833 138.667 15.0257L137.186 16.5199C136.847 16.8623 136.291 16.8623 135.952 16.5199L134.472 15.0257C134.132 14.6833 133.454 14.4032 132.991 14.4032H121.609C121.239 14.4966 120.838 14.7145 120.591 14.9635L119.11 16.4576C118.771 16.8 118.216 16.8 117.876 16.4576L116.396 14.9635C116.149 14.7145 115.748 14.5277 115.378 14.4032H93.1381C91.2257 14.4032 89.6525 15.9907 89.6525 17.9206V28.5973C89.6525 28.9708 89.4058 29.3132 89.0356 29.4377H84.2854C83.9152 29.4377 83.5759 29.5 83.2366 29.5933V19.975C83.2366 19.5081 82.959 18.8233 82.6197 18.4809L79.35 15.1814C79.0107 14.839 78.3321 14.5588 77.8694 14.5588H67.1968C66.7341 14.5588 66.0555 14.839 65.7162 15.1814L64.2356 16.6755C63.8963 17.0179 63.3411 17.0179 63.0018 16.6755L61.5212 15.1814C61.1818 14.839 60.5032 14.5588 60.0406 14.5588H10.6872C8.74395 14.5277 7.20166 16.1463 7.20166 18.0451V40.8926C7.20166 42.8225 8.7748 44.41 10.6872 44.41H24.8763C25.3082 44.3166 25.7708 44.0987 26.0485 43.8185L27.5291 42.2933C27.8684 41.9509 28.4236 41.9509 28.7629 42.2933L30.2435 43.7874C30.5211 44.0676 30.9838 44.2855 31.4156 44.3788H40.8545C41.2863 44.2855 41.749 44.0676 42.0266 43.7874L43.5072 42.2933C43.8465 41.9509 44.4017 41.9509 44.741 42.2933L46.2216 43.7874C46.4992 44.0676 46.9619 44.2855 47.3938 44.3788H60.9042C61.3669 44.3788 62.0455 44.0987 62.3848 43.7563L63.8654 42.2622C64.2047 41.9198 64.76 41.9198 65.0993 42.2622L66.5799 43.7563C66.9192 44.0987 67.5978 44.3788 68.0605 44.3788H77.5918C78.0545 44.3788 78.7331 44.0987 79.0724 43.7563L81.8177 40.986L84.4396 43.6318C84.7789 43.9742 85.4575 44.2543 85.9202 44.2543H96.0068C96.4695 44.2543 97.1481 43.9742 97.4874 43.6318L98.2894 42.8225C98.6287 42.4801 99.1839 42.4801 99.5232 42.8225L100.325 43.6318C100.665 43.9742 101.343 44.2543 101.806 44.2543H116.488C116.951 44.2543 117.63 43.9742 117.969 43.6318L118.771 42.8225C119.11 42.4801 119.666 42.4801 120.005 42.8225L120.807 43.6318C121.146 43.9742 121.825 44.2543 122.287 44.2543H132.621C133.083 44.2543 133.762 43.9742 134.101 43.6318L134.903 42.8225C135.243 42.4801 135.798 42.4801 136.137 42.8225L136.939 43.6318C137.278 43.9742 137.957 44.2543 138.42 44.2543H164.7C165.163 44.2543 165.564 43.8497 165.564 43.3828V36.1612C165.564 35.6943 165.965 35.2896 166.428 35.2896H170.839C171.301 35.2896 171.702 35.6943 171.702 36.1612V43.3828C171.702 43.8497 172.103 44.2543 172.566 44.2543H187.403C187.866 44.2543 188.544 43.9742 188.884 43.6318L193.665 38.807C194.004 38.4646 194.282 38.5891 194.282 39.0561V43.3516C194.282 43.8185 194.683 44.2232 195.145 44.2232H205.571C206.034 44.2232 206.435 43.8185 206.435 43.3516V24.9865C206.435 24.5196 206.836 24.1149 207.298 24.1149H210.013C210.476 24.1149 210.877 23.7103 210.877 23.2434V17.9206C211.247 15.9907 209.704 14.4032 207.761 14.4032Z" fill="#260000"/>
<path fill-rule="evenodd" clip-rule="evenodd" d="M190.335 38.5122V20.2064C190.335 19.7969 190.242 19.5448 189.995 19.2927L187.802 17.0242C187.616 16.8667 187.369 16.7722 187.029 16.7722H178.07C177.699 16.7722 177.452 16.8667 177.267 17.0557L175.166 19.2297L175.073 19.3242C174.857 19.4818 174.764 19.7653 174.733 20.1434V38.5122C174.733 38.8903 174.795 39.1108 174.98 39.3314L177.267 41.6629C177.282 41.6787 177.298 41.6866 177.313 41.6944C177.328 41.7023 177.344 41.7102 177.359 41.7259L177.39 41.7574C177.406 41.7732 177.429 41.7811 177.452 41.789C177.475 41.7968 177.498 41.8047 177.514 41.8205C177.545 41.8205 177.545 41.8205 177.576 41.852C177.637 41.8835 177.699 41.8835 177.761 41.8835H177.792C177.82 41.8835 177.854 41.8898 177.891 41.8968C177.937 41.9054 177.988 41.915 178.039 41.915H186.998C187.369 41.915 187.616 41.8205 187.802 41.6314L189.903 39.4574C190.211 39.2999 190.335 39.0163 190.335 38.5122ZM134.786 38.9848V39.0163C134.756 39.0478 134.756 39.0793 134.756 39.1738C134.74 39.1896 134.732 39.2054 134.725 39.2211C134.717 39.2369 134.709 39.2526 134.694 39.2684C134.632 39.3629 134.539 39.4574 134.447 39.5519L132.346 41.7259C132.16 41.915 131.913 42.0095 131.543 42.0095H122.583C122.243 42.0095 121.996 41.915 121.811 41.7574L119.617 39.4889C119.37 39.2369 119.277 38.9848 119.277 38.5752V20.0174C119.308 19.7338 119.401 19.5133 119.586 19.3558L119.679 19.2612L121.78 17.0872C121.965 16.8982 122.212 16.8037 122.583 16.8037H131.543C131.882 16.8037 132.13 16.8982 132.315 17.0557L134.508 19.3242C134.756 19.5763 134.848 19.8284 134.848 20.238V27.1696C134.848 27.9257 134.478 28.2723 133.767 28.2723H129.225C128.484 28.2723 128.144 27.8942 128.144 27.1696V24.901C128.144 24.1449 128.082 23.7983 127.063 23.7983C125.98 23.7983 125.981 24.336 125.981 24.8587L125.982 24.901V33.9436C125.982 34.6998 126.043 35.0464 127.063 35.0464C128.146 35.0464 128.145 34.5087 128.144 33.9859L128.144 33.9436V31.7696C128.144 31.0135 128.515 30.6669 129.225 30.6669H133.767C134.508 30.6669 134.848 31.045 134.848 31.7696V38.6067C134.848 38.7327 134.817 38.8588 134.786 38.9848ZM151.871 28.2093H152.18C152.891 28.2093 153.261 27.8627 153.261 27.1065V18.0009C153.261 17.2763 152.922 16.8982 152.18 16.8982H147.7C146.99 16.8982 146.619 17.2448 146.619 18.0009L146.557 24.1449V24.838C146.557 25.5627 146.218 25.9408 145.476 25.9408C144.765 25.9408 144.395 25.5942 144.395 24.838L144.302 17.9694C144.302 17.2448 143.962 16.8667 143.221 16.8667H138.741C138.03 16.8667 137.66 17.2133 137.66 17.9694V40.7807C137.66 41.5054 138 41.8835 138.741 41.8835H143.221C143.931 41.8835 144.302 41.5369 144.302 40.7807L144.364 33.9121C144.364 33.1875 144.704 32.8094 145.445 32.8094C146.156 32.8094 146.526 33.1559 146.526 33.9121V34.6053L146.588 40.7492C146.588 41.4739 146.928 41.852 147.67 41.852H152.149C152.86 41.852 153.231 41.5054 153.231 40.7492V31.6121C153.231 30.8874 152.891 30.5093 152.149 30.5093H151.624C150.913 30.5093 150.543 30.1628 150.543 29.4066V29.2806C150.543 28.5559 150.697 28.1778 151.439 28.1778L151.871 28.2093ZM31.2895 41.978C30.9497 41.978 30.7025 41.8835 30.5172 41.7259L28.3236 39.4889C28.0765 39.2369 27.9838 38.9848 27.9838 38.5752V18.0009C27.9838 17.2448 28.3545 16.8982 29.0651 16.8982H33.5448C34.2863 16.8982 34.6262 17.2763 34.6262 18.0009L34.7188 34.1327V33.9436C34.7188 34.6998 34.7806 35.0464 35.8001 35.0464C36.8831 35.0464 36.8823 34.5087 36.8815 33.9859L36.8815 33.9436C36.8815 33.5971 36.9432 18.0009 36.9432 18.0009C36.9432 17.2448 37.314 16.8982 38.0246 16.8982H42.5043C43.2458 16.8982 43.5856 17.2763 43.5856 18.0009V38.5752C43.5856 39.0199 43.3941 39.2414 43.1913 39.4761L43.1531 39.5204L41.0522 41.6944C40.8669 41.8835 40.6197 41.978 40.249 41.978H31.2895ZM17.2325 23.7038H17.974L24.0911 23.7983C24.8326 23.7983 25.1724 23.4202 25.1724 22.6955V18.127C25.1724 17.3708 24.8017 17.0242 24.0911 17.0242H10.6519C9.91046 17.0242 9.57062 17.4023 9.57062 18.127V40.9383C9.57062 41.6944 9.94135 42.041 10.6519 42.041H24.122C24.8635 42.041 25.2033 41.6629 25.2033 40.9383V36.3697C25.2033 35.6135 24.8326 35.2669 24.122 35.2669H17.2325C16.5219 35.2669 16.1512 34.8889 16.1512 34.1012V34.0382C16.1512 33.2505 16.5219 32.8724 17.2325 32.8724H24.0602C24.8017 32.8724 25.1415 32.4943 25.1415 31.7696V27.2011C25.1415 26.4449 24.7708 26.0983 24.0602 26.0983H17.2325C16.5219 26.0983 16.1512 25.7202 16.1512 24.9325V24.8695C16.1512 24.0818 16.5219 23.7038 17.2325 23.7038ZM207.42 16.9297C208.161 16.9297 208.501 17.3078 208.501 18.0324L208.563 20.0174V20.0804C208.563 20.8366 208.192 21.3407 207.482 21.3407H205.072C204.33 21.3407 203.99 21.7188 203.99 22.4435L203.929 29.3121L203.99 40.8752C203.99 41.6314 203.62 41.978 202.909 41.978H198.429C197.688 41.978 197.348 41.5999 197.348 40.8752L197.41 29.3751L197.348 22.5065C197.348 21.7503 196.977 21.4037 196.267 21.4037H193.981C193.239 21.4037 192.899 21.0256 192.899 20.301V18.0324C192.899 17.2763 193.27 16.9297 193.981 16.9297H207.42ZM97.991 18.0009C97.991 17.2763 97.6512 16.8982 96.9097 16.8982H92.43C91.7194 16.8982 91.3487 17.2448 91.3487 18.0009L91.2869 34.3532L91.2869 34.3955C91.2877 34.9183 91.2885 35.456 90.2056 35.456C89.1861 35.456 89.0625 35.1094 89.0625 34.3532V34.0066C89.0625 33.282 88.7226 32.9039 87.9812 32.9039H83.4397C82.7291 32.9039 82.3583 33.2505 82.3583 34.0066V38.5752C82.3583 38.8588 82.3892 39.0793 82.5128 39.2369C82.5283 39.2526 82.5437 39.2762 82.5592 39.2999C82.5746 39.3235 82.59 39.3471 82.6055 39.3629L85.0153 41.8205C85.0307 41.8205 85.0384 41.8283 85.0462 41.8362C85.0539 41.8441 85.0616 41.852 85.0771 41.852C85.0925 41.8677 85.108 41.8756 85.1234 41.8835C85.1389 41.8913 85.1543 41.8992 85.1697 41.915C85.2006 41.915 85.2315 41.9465 85.2315 41.9465C85.2443 41.9465 85.2624 41.9519 85.2836 41.9582C85.3136 41.9672 85.3498 41.978 85.386 41.978H85.4478C85.4756 41.978 85.5096 41.9844 85.547 41.9914C85.5929 42 85.6439 42.0095 85.695 42.0095H94.6544C94.7471 42.0095 94.8707 42.0095 94.9324 41.978C95.1487 41.9465 95.3341 41.852 95.4577 41.7259L97.5585 39.5519L97.5967 39.5076C97.7995 39.273 97.991 39.0514 97.991 38.6067V18.0009ZM116.281 19.6393C116.404 19.7969 116.435 20.0174 116.435 20.301H116.404V40.8752C116.404 41.6314 116.033 41.978 115.323 41.978H110.843C110.102 41.978 109.762 41.5999 109.762 40.8752L109.7 34.7313V34.0382C109.7 33.282 109.329 32.9354 108.619 32.9354C107.877 32.9354 107.537 33.3135 107.537 34.0382L107.476 40.9067C107.476 41.6629 107.105 42.0095 106.394 42.0095H101.915C101.173 42.0095 100.833 41.6314 100.833 40.9067V20.3325C100.833 20.301 100.841 20.2616 100.849 20.2222C100.856 20.1828 100.864 20.1434 100.864 20.1119C100.895 19.7969 101.019 19.5448 101.235 19.4188L101.266 19.3873L103.367 17.2133C103.552 17.0242 103.799 16.9297 104.17 16.9297H113.129C113.346 16.9297 113.562 16.9612 113.716 17.0557C113.716 17.0872 113.747 17.0872 113.747 17.0872C113.778 17.0872 113.809 17.1187 113.84 17.1502L116.281 19.6393ZM107.476 26.0353V24.838C107.476 24.1134 107.815 23.7353 108.557 23.7353C109.268 23.7353 109.638 24.0818 109.638 24.838V26.0353H107.476ZM183.6 34.0066V24.901C183.6 24.1449 183.538 23.7983 182.519 23.7983C181.468 23.7983 181.437 24.2709 181.437 24.775V33.8806C181.437 34.6368 181.499 34.9834 182.519 34.9834C183.569 34.9834 183.6 34.5108 183.6 34.0066ZM171.675 20.364C171.675 20.0804 171.644 19.8599 171.52 19.7023C171.52 19.7023 171.52 19.6708 171.489 19.6708C171.489 19.6551 171.482 19.6472 171.474 19.6393C171.466 19.6314 171.458 19.6236 171.458 19.6078C171.449 19.5983 171.44 19.5858 171.429 19.5723C171.406 19.541 171.378 19.5037 171.335 19.4818L171.304 19.4503L169.172 17.2448L169.11 17.1817C168.925 17.0242 168.678 16.9297 168.338 16.9297H157.154C156.444 16.9297 156.073 17.2763 156.073 18.0324V40.9067C156.073 41.6314 156.413 42.0095 157.154 42.0095H161.634C162.344 42.0095 162.715 41.6629 162.715 40.9067L162.777 34.0382C162.777 33.3135 163.117 32.9354 163.858 32.9354H168.338C168.647 32.9354 168.925 32.8409 169.08 32.6518L169.141 32.5888L171.242 30.4148L171.28 30.3705C171.483 30.1359 171.675 29.9143 171.675 29.4696V20.364ZM162.715 26.0353H163.92C164.631 26.0353 165.001 25.6572 164.971 24.901C164.971 24.1449 164.6 23.7983 163.889 23.7983H162.715V26.0353ZM60.3923 28.2723H60.9175C61.628 28.2723 61.9988 27.9257 61.9988 27.1696V20.301C61.9988 20.0174 61.9679 19.8284 61.8443 19.6393L61.8134 19.6078C61.8134 19.5921 61.8057 19.5842 61.798 19.5763C61.7902 19.5684 61.7825 19.5606 61.7825 19.5448C61.761 19.5009 61.7244 19.4722 61.6938 19.4483C61.6805 19.4379 61.6683 19.4283 61.6589 19.4188L61.628 19.3873L59.4963 17.1817L59.4345 17.1187C59.2492 16.9612 59.002 16.8667 58.6622 16.8667H47.4474C46.7368 16.8667 46.3661 17.2133 46.3661 17.9694V40.8437C46.3661 41.5684 46.7059 41.9465 47.4474 41.9465H51.9271C52.6377 41.9465 53.0084 41.5999 53.0084 40.8437L53.0702 33.9751C53.0702 33.2505 53.4101 32.8724 54.1516 32.8724C54.8621 32.8724 55.2329 33.219 55.2329 33.9751V34.6683L55.2947 40.8122C55.2947 41.5369 55.6345 41.915 56.376 41.915H60.8557C61.5663 41.915 61.937 41.5684 61.937 40.8122V31.6751C61.937 30.9504 61.5972 30.5724 60.8557 30.5724H60.3305C59.6199 30.5724 59.2492 30.2258 59.2492 29.4696V29.3121C59.2801 28.6189 59.6508 28.2723 60.3923 28.2723ZM53.0393 25.9723H54.2442C54.9548 25.9723 55.2947 25.5942 55.2947 24.838C55.2947 24.0818 54.9239 23.7353 54.2133 23.7353H53.0393V25.9723ZM80.4429 38.5752V20.238C80.4429 19.8284 80.3502 19.5763 80.103 19.3242L77.9095 17.0557C77.7241 16.8982 77.477 16.8037 77.1371 16.8037H68.1777C67.807 16.8037 67.5598 16.8982 67.3744 17.0872L65.2736 19.2612C65.1809 19.3558 65.0882 19.4503 65.0265 19.5448C65.011 19.5605 65.0033 19.5763 64.9956 19.5921C64.9878 19.6078 64.9801 19.6236 64.9647 19.6393C64.9492 19.6551 64.9415 19.6787 64.9338 19.7023C64.926 19.726 64.9183 19.7496 64.9029 19.7653V19.7969C64.872 19.9229 64.8411 20.0489 64.8411 20.1749V38.5122C64.8411 38.8903 64.9029 39.1108 65.0882 39.3314L67.3744 41.6629C67.3899 41.6787 67.4053 41.6866 67.4208 41.6944C67.4362 41.7023 67.4517 41.7102 67.4671 41.7259L67.498 41.7574C67.5135 41.7732 67.5366 41.7811 67.5598 41.789C67.583 41.7968 67.6062 41.8047 67.6216 41.8205C67.6347 41.8205 67.6422 41.8205 67.6489 41.8228C67.658 41.8261 67.6656 41.8338 67.6833 41.8519C67.7451 41.8834 67.807 41.8835 67.8688 41.8835H67.8997C67.9274 41.8835 67.9614 41.8898 67.9989 41.8968C68.0448 41.9054 68.0958 41.915 68.1468 41.915H77.1063C77.477 41.915 77.7241 41.8205 77.9095 41.6314L80.0103 39.4574C80.2884 39.3314 80.4429 39.0163 80.4429 38.5752ZM73.7079 33.9859C73.7079 33.9718 73.7078 33.9577 73.7078 33.9436V24.901C73.7078 24.1449 73.6461 23.7983 72.6265 23.7983C71.5436 23.7983 71.5444 24.336 71.5452 24.8587C71.5452 24.8728 71.5452 24.887 71.5452 24.901V33.9436C71.5452 34.6998 71.607 35.0464 72.6265 35.0464C73.7095 35.0464 73.7087 34.5087 73.7079 33.9859Z" fill="#F2C534"/>
</g>
<defs>
<clipPath id="clip0_7068_9338">
<rect width="60" height="60" fill="white"/>
</clipPath>
</defs>
</svg>
