<svg width="240" height="220" viewBox="0 0 240 220" fill="none" xmlns="http://www.w3.org/2000/svg">
<path d="M23.8029 23.9275L169.046 1.67407L240 66.1087L230.145 218.326H92.6342L0 183.91L23.8029 23.9275Z" fill="black"/>
<path d="M23.8029 23.9275L169.046 1.67407L240 66.1087L230.145 218.326H92.6342L0 183.91L23.8029 23.9275Z" fill="#003B00"/>
<path d="M23.8029 23.9275L169.046 1.67407L240 66.1087L230.145 218.326L152.369 179.606L0 183.91L23.8029 23.9275Z" fill="#004700"/>
<path d="M23.8029 23.9275L169.046 1.67407L152.369 179.606L0 183.91L23.8029 23.9275Z" fill="#005400"/>
<path d="M170.773 95.0936C172.286 78.2542 169.915 60.4521 164.909 45.8156L156.843 131.868C164.004 125.181 169.242 112.147 170.773 95.0936Z" fill="#D9D9D9"/>
<path d="M203.447 64.4743L179.042 44.1479C174.901 40.6987 170.85 44.818 170.06 53.4552C169.264 62.1501 172.092 71.8775 176.308 75.075L181.825 79.2594L176.646 139.334C175.873 148.3 178.664 157.585 182.812 159.977C186.96 162.369 190.702 157.107 191.403 148.411L196.1 90.0874L201.135 93.9081C204.828 96.7098 208.271 92.3904 208.88 84.349C209.487 76.3576 207.079 67.4989 203.447 64.4743Z" fill="#D9D9D9"/>
<path d="M217.07 75.8209C213.611 72.9403 210.278 77.0019 209.675 84.9797C209.068 93.006 211.467 101.743 214.981 104.41L219.589 107.905L215.638 163.319C215.049 171.571 217.418 179.94 220.877 181.935C224.278 183.897 227.428 178.924 227.964 170.901L231.557 116.983L235.794 120.197C236.022 120.37 236.248 120.507 236.47 120.61L238.223 93.5366C238.011 93.294 237.793 93.0787 237.568 92.8923L217.069 75.8194L217.07 75.8209Z" fill="#D9D9D9"/>
<path d="M133.913 37.53C107.321 41.0201 83.5755 66.8 80.002 95.6773C76.3497 125.194 94.8554 148.562 122.309 147.12C134.764 146.467 146.884 140.806 156.84 131.9L164.909 45.8156C156.755 39.1341 145.963 35.9487 133.913 37.5285V37.53ZM125.696 115.137C113.779 116.037 105.445 106.129 106.919 93.1788C108.379 80.3525 118.969 68.9741 130.72 67.6854C142.675 66.374 151.514 75.9436 150.224 89.1581C148.92 102.504 137.823 114.219 125.696 115.137Z" fill="white"/>
<path d="M70.0321 117.362L47.621 119.091L55.4016 61.3238C56.4917 53.2354 51.669 47.4651 44.704 48.3839C37.8133 49.292 31.3592 56.4253 30.2145 64.3682L19.8656 136.198C18.6512 144.629 23.4572 151.194 30.5374 150.817L66.0402 148.92C73.6025 148.517 80.6721 140.985 81.744 132.153C82.8098 123.38 77.5277 116.783 70.0306 117.361L70.0321 117.362Z" fill="white"/>
</svg>
