<svg width="240" height="220" viewBox="0 0 240 220" fill="none" xmlns="http://www.w3.org/2000/svg">
<path d="M23.8028 23.9281L169.045 1.6748L239.998 66.109L230.144 218.325H92.6337L0 183.91L23.8028 23.9281Z" fill="black"/>
<path d="M23.8028 23.9281L169.045 1.6748L239.998 66.109L230.144 218.325H92.6337L0 183.91L23.8028 23.9281Z" fill="#015667"/>
<path d="M23.8028 23.9281L169.045 1.6748L239.998 66.109L230.144 218.325L152.368 179.606L0 183.91L23.8028 23.9281Z" fill="#036477"/>
<path d="M23.8028 23.9281L169.045 1.6748L152.368 179.606L0 183.91L23.8028 23.9281Z" fill="#027B94"/>
<path d="M153.347 169.149L9.935 173.2L32.3384 22.6212L169.045 1.6748L153.347 169.149Z" fill="#FFFACD"/>
<path d="M116.644 104.101C119.432 78.6835 136.958 58.2541 160.009 55.5812C161.38 55.422 162.717 55.322 164.022 55.2735L169.045 1.67632L23.8028 23.9296L0 183.911L152.368 179.607L155.473 146.485C154.754 146.552 154.024 146.603 153.281 146.643C128.415 147.928 113.603 131.829 116.644 104.102V104.101ZM80.4503 66.0196L58.6427 68.5287L56.505 84.5872L77.7122 82.4025L74.7391 106.145L53.3925 107.965L47.7041 150.703L25.851 151.857L40.4556 48.3161L83.3718 42.6353L80.4503 66.0181V66.0196ZM102.758 147.798L102.652 147.804L79.856 149.008L93.6313 35.5278L115.792 32.5001L102.76 147.799L102.758 147.798Z" fill="#017B94"/>
<path d="M155.543 122.703C156.296 122.652 157.022 122.559 157.726 122.437L159.002 108.814L140.312 110.279C140.468 118.622 146.237 123.342 155.541 122.703H155.543Z" fill="#017B94"/>
<path d="M142.945 91.7356L160.757 90.1058L161.971 77.1432C160.778 76.9749 159.477 76.9491 158.072 77.0916C149.472 77.9588 144.06 84.9905 142.945 91.7341V91.7356Z" fill="#017B94"/>
<path d="M230.144 218.325L152.368 179.606L169.045 1.6748L239.998 66.109L230.144 218.325Z" fill="#D9D5AE"/>
<path d="M229.868 147.793C230.631 136.668 232.988 128.072 236.302 123.22L240 66.109L169.047 1.6748L164.022 55.2841C175.425 66.0438 180.611 87.3496 178.553 111.184C178.328 113.78 178.073 116.735 177.525 121.008L159.002 108.83L157.726 122.45C161.939 124.226 164.633 120.626 165.517 119.177L174.268 137.126C172.725 141.368 167.053 152.211 155.473 146.493L152.369 179.606L230.145 218.325L232.668 179.348C230.139 170.359 229.111 159.175 229.868 147.793ZM202.393 112.702L199.679 110.758C196.724 108.642 195.745 110.687 195.337 115.782L191.35 165.58L179.444 158.731L186.594 74.2095L197.957 83.056L197.513 88.6034C199.191 85.7759 201.117 85.0481 204.343 87.5633L202.393 112.703V112.702ZM223.429 184.036L213.247 178.178L220.899 71.5852L230.515 79.7721L223.429 184.034V184.036Z" fill="#01697E"/>
<path d="M161.969 77.1583L160.755 90.121L166.422 94.0917C166.719 87.9621 165.25 81.2018 161.969 77.1583Z" fill="#01697E"/>
</svg>
