<svg width="240" height="220" viewBox="0 0 240 220" fill="none" xmlns="http://www.w3.org/2000/svg">
<path d="M23.8029 24.124L169.046 1.92139L240 66.2089L230.145 218.079H92.6342L0 183.742L23.8029 24.124Z" fill="black"/>
<path d="M23.8029 24.124L169.046 1.92139L240 66.2089L230.145 218.079H92.6342L0 183.742L23.8029 24.124Z" fill="#0000B2"/>
<path d="M23.8029 24.124L169.046 1.92139L240 66.2089L230.145 218.079L152.369 179.447L0 183.742L23.8029 24.124Z" fill="#0000D9"/>
<path d="M23.8029 24.124L169.046 1.92139L152.369 179.447L0 183.742L23.8029 24.124Z" fill="#0000FF"/>
<path d="M65.9265 124.373L57.6713 76.0335L36.4533 78.3509L50.7396 150.54L74.5941 149.286L109.677 70.352L87.4325 72.7829L65.9265 124.373Z" fill="white"/>
<path d="M118.226 69.4187L109.58 147.446L132.227 146.255L140.352 67.0015L118.226 69.4187Z" fill="white"/>
<path d="M141.923 34.1196C139.747 32.0352 136.57 31.1609 132.979 31.6479C129.392 32.1335 125.984 33.8685 123.373 36.5323C120.631 39.3307 118.948 42.9081 118.504 46.8909C118.058 50.8858 118.981 54.1652 121.187 56.3737C123.294 58.4838 126.443 59.4216 130.061 59.0026C133.678 58.5836 137.165 56.8456 139.861 54.1092C142.643 51.2836 144.4 47.5428 144.804 43.5857C145.205 39.6408 144.179 36.2797 141.924 34.1211L141.923 34.1196Z" fill="white"/>
<path d="M158.779 29.1021L147.504 145.452L155.603 145.025L166.592 28.0493L158.779 29.1021Z" fill="white"/>
<path d="M233.215 115.551C231.319 114.102 229.642 113.677 228.097 114.267C226.56 114.853 225.192 116.638 224.032 119.584L223.7 120.43L224.361 110.929L215.4 104.132L210.121 176.318L219.678 181.801L222.368 143.121C222.515 141.008 222.807 139.052 223.236 137.309C223.584 135.898 224.066 134.721 224.666 133.809C225.203 132.997 225.788 132.525 226.407 132.402C227.036 132.28 227.666 132.452 228.337 132.927C229.816 133.979 230.865 135.886 231.551 138.758C232.204 141.501 232.382 144.947 232.093 149.309L229.581 187.484L232.037 188.894L236.543 119.456C235.534 117.781 234.418 116.47 233.214 115.551H233.215Z" fill="#D9D9D9"/>
<path d="M210.53 67.897C209.623 64.7446 208.23 62.2488 206.6 60.8692C204.97 59.4897 203.328 59.4201 202.041 60.7377C200.677 62.1353 199.79 64.905 199.482 68.7501C199.173 72.6059 199.537 76.4223 200.531 79.7698C201.473 82.9388 202.917 85.4044 204.594 86.7113C206.248 88.0031 207.854 87.9199 209.118 86.4965C210.412 85.0383 211.273 82.2218 211.547 78.5642C211.822 74.9157 211.462 71.1341 210.531 67.8985L210.53 67.897Z" fill="#D9D9D9"/>
<path d="M167.024 111.923L175.245 156.305L188.906 164.142L179.015 114.895L195.031 88.6838L181.871 78.7049L167.882 102.532L174.014 35.0136C174.046 34.6581 173.931 34.2497 173.755 34.1014L166.592 28.0569L155.603 145.034L163.602 149.624L167.025 111.923H167.024Z" fill="#D9D9D9"/>
<path d="M198.829 91.5669L192.866 166.416L203.489 172.512L209.026 99.2996L198.829 91.5669Z" fill="#D9D9D9"/>
</svg>
