<svg width="240" height="220" viewBox="0 0 240 220" fill="none" xmlns="http://www.w3.org/2000/svg">
<path d="M23.8029 23.7306L169.046 1.42627L240 66.0083L230.145 218.574H92.6342L0 184.08L23.8029 23.7306Z" fill="black"/>
<path d="M23.8029 23.7306L169.046 1.42627L240 66.0083L230.145 218.574H92.6342L0 184.08L23.8029 23.7306Z" fill="#080808"/>
<path d="M23.8029 23.7306L169.046 1.42627L240 66.0083L230.145 218.574L152.369 179.765L0 184.08L23.8029 23.7306Z" fill="#0E0E0E"/>
<path d="M23.8029 23.7306L169.046 1.42627L152.369 179.765L0 184.08L23.8029 23.7306Z" fill="#141414"/>
<path d="M162.025 101.635L163.602 102.705C164.918 103.598 165.978 106.484 164.425 125.748C163.734 134.09 163.353 138.26 162.509 149.772C162.321 152.574 162.325 155.489 162.619 158.151L173.196 164.042C173.003 157.432 173.114 152.492 174.148 140.585L174.976 131.057C175.667 123.105 176.464 108.134 172.504 99.0272C178.155 97.3451 179.645 88.7579 181.108 71.8511C183.006 49.9145 179.58 36.9464 171.398 29.9776L166.749 26.0176L154.801 153.796L157.078 155.065L162.028 101.635H162.025ZM167.312 44.5686L168.776 45.7584C171.016 47.5774 172.345 51.4052 170.911 67.2438C169.404 83.8983 167.456 86.6305 165.041 84.8921L163.667 83.9029L167.312 44.5686Z" fill="#DDDDDD"/>
<path d="M188.243 154.006L193.997 157.455L193.36 175.018L202.796 180.281L204.867 58.4864L195.084 50.1546L177.668 166.269L186.086 170.963L188.243 154.007V154.006ZM196.51 91.2789L194.406 139.91L190.476 137.391L196.51 91.2789Z" fill="#DDDDDD"/>
<path d="M219.36 146.424L221.244 147.677C227.03 151.52 231.837 145.908 233.629 118.622C235.296 93.2574 232.603 82.1098 225.858 76.3643L216.12 68.0704L207.672 182.999L216.447 187.892L219.36 146.424ZM223.318 90.0496L224.164 90.7364C226.17 92.3654 226.951 97.3724 225.903 112.632C224.766 129.182 223.236 132.68 221.375 131.367L220.462 130.723L223.318 90.0496Z" fill="#DDDDDD"/>
<path d="M141.448 29.4625L123.079 31.9698L107.515 68.6798L111.533 33.5456L93.0982 36.062L78.3874 157.359L97.4767 156.467L102.463 112.857L106.15 104.537L109.56 155.902L130.266 154.934L121.283 75.3689L141.448 29.4625Z" fill="white"/>
<path d="M56.5069 65.0951L56.8313 62.6713C57.7395 55.8879 58.9342 53.5949 61.8542 53.2257C64.5847 52.8792 65.5869 55.1327 64.2694 65.2075C63.4916 71.1491 63.1656 72.1064 62.2363 76.1287L75.5113 76.5466C76.6135 71.8769 77.549 67.7027 78.2737 61.945C80.2658 46.0958 76.9425 36.3492 62.6441 38.3216C47.9636 40.3457 41.4383 52.0389 39.3718 66.7803L39.1156 68.6053C37.2826 81.6873 39.3157 90.8413 46.0852 101.89C52.9743 113.424 54.0629 121.327 52.8788 130.306L52.4452 133.598C51.4613 141.063 49.551 143.855 46.5597 144.03C43.3774 144.215 42.3085 141.613 43.6867 131.416C44.2264 127.43 45.2665 122.704 46.3914 118.103L33.5788 117.227C32.4841 121.54 31.1682 127.413 30.2479 133.991C27.8145 151.371 31.764 161.123 45.4908 160.497C58.6704 159.897 68.569 150.941 71.0615 131.022L71.3708 128.553C73.3205 112.975 69.1664 98.9665 61.9588 86.7156C56.9314 78.3169 55.623 71.6916 56.5054 65.092L56.5069 65.0951Z" fill="white"/>
<path d="M150.76 28.1921L138.18 154.565L154.798 153.788L166.748 26.01L150.76 28.1921Z" fill="white"/>
</svg>
