<svg width="240" height="220" viewBox="0 0 240 220" fill="none" xmlns="http://www.w3.org/2000/svg">
<path d="M23.8028 23.9281L169.045 1.6748L239.998 66.109L230.144 218.325H92.6337L0 183.91L23.8028 23.9281Z" fill="black"/>
<path d="M23.8028 23.9281L169.045 1.6748L239.998 66.109L230.144 218.325H92.6337L0 183.91L23.8028 23.9281Z" fill="#B23E06"/>
<path d="M23.8028 23.9281L169.045 1.6748L239.998 66.109L230.144 218.325L152.368 179.606L0 183.91L23.8028 23.9281Z" fill="#D94C08"/>
<path d="M23.8028 23.9281L169.045 1.6748L152.368 179.606L0 183.91L23.8028 23.9281Z" fill="#FE5808"/>
<path d="M230.144 218.325L152.368 179.606L169.045 1.6748L239.998 66.109L230.144 218.325Z" fill="#CFA900"/>
<path d="M229.349 188.837L215.133 180.708C213.459 179.751 212.633 178.056 211.211 173.341C210.668 171.576 209.98 169.164 209.379 168.808C208.779 168.452 208.038 169.918 207.087 170.932C205.862 172.247 204.502 174.628 202.357 173.402L186.135 164.126C184.682 163.296 184.503 162.838 183.542 159.909C183.017 158.297 182.784 157.804 182.417 157.59C182.049 157.377 181.685 157.762 181.019 158.45C179.984 159.53 179.427 160.171 178.305 159.53L155.473 146.47L152.368 179.603L230.144 218.322L232.142 187.455C232.039 187.571 231.922 187.717 231.789 187.899C230.646 189.574 230.436 189.454 229.349 188.833V188.837Z" fill="#D94C07"/>
<path d="M186.673 52.8022C187.52 55.5479 188.131 57.866 188.785 58.4012C189.438 58.9363 190.668 57.5734 191.485 56.6728C193.668 54.4532 194.506 55.0445 196.254 56.5091L210.148 68.1451C211.816 69.5415 212.756 70.3298 214.416 76.6171C214.903 78.2969 216.79 85.0466 217.274 86.7113C218.112 89.8238 218.288 91.8721 217.976 96.1899L216.135 121.674C215.927 124.547 215.504 127.167 217.146 128.321L222.121 131.821C223.623 132.878 223.691 129.96 223.893 127.035L226.296 92.3284C226.52 89.0931 227.037 87.3465 228.003 86.0836C229.107 84.6403 230.174 84.9178 231.235 85.8077L238.34 91.7584L240 66.1136L169.047 1.67935L166.251 31.501L182.469 45.0792C184.775 47.0107 185.572 49.159 186.673 52.8052V52.8022Z" fill="#D94C07"/>
<path d="M164.181 79.7372C164.544 78.4243 165.211 77.7026 165.98 77.7845C165.294 76.796 164.782 75.2086 164.75 73.6122C164.389 74.9175 163.719 75.6377 162.943 75.5513C163.636 76.5458 164.15 78.1377 164.181 79.7388V79.7372Z" fill="#250600"/>
<path d="M163.398 88.1789C163.772 86.7386 164.442 86.0002 165.205 86.1822C164.516 85.2028 164.001 83.6184 163.969 82.0144C163.605 83.3334 162.934 84.0687 162.151 83.9975C162.847 84.9829 163.364 86.5718 163.396 88.1804L163.398 88.1789Z" fill="#250600"/>
<path d="M164.95 71.4624C165.311 70.1631 165.973 69.4551 166.739 69.5521C166.057 68.556 165.546 66.9641 165.514 65.3737C165.211 66.7094 164.545 67.4129 163.716 67.2703C164.406 68.274 164.918 69.8674 164.95 71.4624Z" fill="#250600"/>
<path d="M165.713 63.239C166.07 61.9519 166.731 61.2605 167.493 61.3712C166.813 60.366 166.305 58.7726 166.274 57.1883C165.972 58.5118 165.309 59.2002 164.483 59.0425C165.17 60.0552 165.679 61.6517 165.711 63.239H165.713Z" fill="#250600"/>
<path d="M202.674 148.883C202.971 147.605 203.527 146.834 204.176 146.797C203.594 145.976 203.153 144.569 203.118 143.084C202.821 144.356 202.263 145.127 201.608 145.16C202.196 145.986 202.639 147.396 202.674 148.885V148.883Z" fill="#250600"/>
<path d="M206.232 102.327C206.52 101.114 207.063 100.426 207.693 100.464C207.125 99.5966 206.696 98.1745 206.659 96.7221C206.417 97.9638 205.874 98.6506 205.19 98.5748C205.763 99.448 206.196 100.872 206.232 102.327Z" fill="#250600"/>
<path d="M203.876 133.151C204.17 131.896 204.722 131.151 205.365 131.141C204.787 130.304 204.35 128.892 204.314 127.417C204.02 128.666 203.467 129.408 202.818 129.417C203.401 130.26 203.84 131.673 203.876 133.151Z" fill="#250600"/>
<path d="M210.204 97.3573C210.486 96.1627 211.017 95.488 211.635 95.5335C211.079 94.6693 210.656 93.2593 210.62 91.8236C210.338 93.0122 209.807 93.6838 209.182 93.6353C209.745 94.5056 210.168 95.917 210.204 97.3573Z" fill="#250600"/>
<path d="M207.816 81.5808C207.577 82.8028 207.029 83.5654 206.359 83.3607C206.928 84.2476 207.357 85.6773 207.392 87.1221C207.678 85.9305 208.215 85.268 208.841 85.3301C208.277 84.4478 207.851 83.0226 207.815 81.5808H207.816Z" fill="#250600"/>
<path d="M202.51 151.038C202.211 152.322 201.65 153.106 200.994 153.153C201.585 153.972 202.028 155.377 202.064 156.872C202.37 155.474 202.93 154.689 203.573 154.746C202.987 153.934 202.546 152.53 202.51 151.038Z" fill="#250600"/>
<path d="M208.267 92.9273C207.701 92.0525 207.272 90.6289 207.237 89.181C206.996 90.4136 206.455 91.0867 205.774 90.9973C206.346 91.8766 206.775 93.3033 206.811 94.7542C207.099 93.5519 207.637 92.8757 208.267 92.9258V92.9273Z" fill="#250600"/>
<path d="M205.65 109.941C205.939 108.717 206.484 108.016 207.119 108.041C206.549 107.182 206.117 105.763 206.08 104.304C205.791 105.522 205.245 106.222 204.605 106.192C205.181 107.057 205.615 108.479 205.65 109.939V109.941Z" fill="#250600"/>
<path d="M204.469 125.405C204.761 124.16 205.312 123.43 205.95 123.431C205.374 122.587 204.94 121.172 204.904 119.703C204.611 120.942 204.061 121.669 203.415 121.665C203.996 122.515 204.432 123.932 204.469 125.404V125.405Z" fill="#250600"/>
<path d="M205.057 117.703C205.357 116.365 205.903 115.648 206.532 115.767C205.959 114.915 205.525 113.498 205.491 112.035C205.199 113.263 204.651 113.977 204.008 113.96C204.585 114.818 205.021 116.237 205.057 117.703Z" fill="#250600"/>
<path d="M208.915 114.512C208.63 115.732 208.091 116.444 207.458 116.431C208.027 117.279 208.456 118.684 208.492 120.14C208.74 118.777 209.278 118.063 209.942 118.21C209.378 117.367 208.952 115.964 208.915 114.512Z" fill="#250600"/>
<path d="M228.649 89.3933C227.692 90.5667 227.547 93.3397 227.324 96.5735L224.906 131.77C224.698 134.794 224.14 136.418 222.768 135.464C221.604 134.655 218.035 132.064 216.134 130.74C214.214 129.405 214.178 127.315 214.404 124.218L216.402 96.7661C216.717 92.4285 216.482 90.5394 215.638 87.4132C215.159 85.6424 214.11 81.3776 213.621 79.6963C211.948 73.503 211.214 72.466 209.54 71.0788L195.838 59.7171C194.036 58.2238 193.175 58.5179 190.985 60.7648C190.164 61.6775 189.123 62.6432 188.321 61.9943C187.519 61.3454 187.017 59.5716 186.168 56.8275C185.014 53.1403 184.338 50.1824 182.026 48.2645L165.931 34.9183L165.287 41.7969C165.315 41.8181 165.344 41.8363 165.373 41.8605C166.374 42.6747 167.08 44.679 167.136 46.6317C167.577 45.0822 168.47 44.3803 169.457 45.1823C170.44 45.9813 171.136 47.9643 171.192 49.9004C171.624 48.3601 172.5 47.6581 173.471 48.4465C174.436 49.2318 175.12 51.1921 175.178 53.1115C175.601 51.5802 176.462 50.8768 177.414 51.6515C178.366 52.4262 179.036 54.3623 179.092 56.265C179.506 54.7428 180.352 54.0393 181.288 54.8004C182.375 55.6843 183.093 58.2223 182.898 60.4828C182.729 62.4219 181.97 63.5483 181.101 63.3209C181.739 64.2897 182.215 65.8225 182.249 67.3522C182.657 65.8255 183.49 65.1023 184.415 65.8361C185.489 66.6882 186.2 69.1988 186.007 71.4548C185.853 73.2832 185.154 74.4642 184.235 74.3293C185.01 75.5043 185.495 77.4889 185.329 79.4355C185.164 81.3837 184.411 82.545 183.55 82.357C184.327 83.5214 184.814 85.506 184.649 87.4633C184.482 89.4236 183.725 90.6031 182.86 90.4318C183.641 91.5871 184.13 93.5701 183.963 95.5395C183.768 97.841 182.728 99.0766 181.635 98.2943C180.693 97.6211 180.02 95.7306 179.962 93.8112C179.627 95.0953 179.004 95.8246 178.278 95.776C179.077 96.9359 179.576 98.9386 179.403 100.934C179.23 102.929 178.451 104.159 177.562 104.013C178.214 104.939 178.701 106.46 178.736 108.02C179.154 106.419 180.008 105.597 180.954 106.255C182.052 107.019 182.778 109.515 182.581 111.841C182.411 113.837 181.642 115.078 180.766 114.955C181.557 116.078 182.053 118.06 181.883 120.065C181.714 122.074 180.94 123.336 180.06 123.23C180.855 124.342 181.353 126.322 181.181 128.34C181.01 130.361 180.234 131.644 179.348 131.554C180.147 132.657 180.648 134.637 180.475 136.665C180.302 138.694 179.523 140.002 178.633 139.931C179.436 141.023 179.937 143.001 179.764 145.043C179.561 147.43 178.49 148.824 177.367 148.154C176.398 147.577 175.707 145.716 175.649 143.753C175.22 145.425 174.341 146.35 173.358 145.765C172.373 145.177 171.669 143.297 171.612 141.315C171.174 143 170.276 143.927 169.277 143.33C168.105 142.631 167.33 140.079 167.549 137.634C167.737 135.542 168.561 134.212 169.494 134.297C168.655 133.169 168.131 131.133 168.319 129.05C168.505 126.97 169.327 125.663 170.253 125.766C169.42 124.627 168.898 122.59 169.083 120.52C169.268 118.451 170.085 117.168 171.008 117.289C170.178 116.139 169.659 114.101 169.843 112.044C170.026 109.989 170.84 108.727 171.757 108.865C171.086 107.929 170.582 106.383 170.551 104.792C170.112 106.424 169.216 107.267 168.219 106.592C167.217 105.914 166.503 103.972 166.445 101.988C166.086 103.325 165.419 104.09 164.644 104.055C165.493 105.24 166.02 107.301 165.831 109.372C165.641 111.445 164.808 112.731 163.858 112.599C164.712 113.771 165.241 115.833 165.052 117.916C164.862 120.002 164.022 121.309 163.07 121.195C163.927 122.356 164.459 124.417 164.268 126.513C164.077 128.613 163.232 129.943 162.276 129.847C163.137 130.997 163.672 133.057 163.479 135.166C163.255 137.631 162.098 139.05 160.89 138.328C159.848 137.707 159.109 135.765 159.052 133.73C158.585 135.451 157.635 136.388 156.578 135.757C156.548 135.739 156.518 135.716 156.487 135.695L155.803 142.993L178.431 156.115C179.499 156.734 180.213 156.191 181.151 154.945C181.764 154.232 182.127 153.85 182.547 154.097C182.967 154.344 183.148 154.808 183.671 156.422C184.691 159.27 184.809 159.813 186.26 160.654L202.513 170.079C204.655 171.32 205.865 168.978 207.051 167.541C207.909 166.481 208.687 165.156 209.473 165.629C210.257 166.1 210.906 168.379 211.447 170.145C212.912 174.891 213.556 176.483 215.227 177.453L229.43 185.688C230.517 186.319 230.69 186.313 231.833 184.65C232.057 184.322 232.23 184.081 232.376 183.921L233.046 173.57C232.379 173.011 231.903 171.511 231.848 169.903C231.596 171.114 231.117 171.869 230.55 171.942C231.181 172.858 231.586 174.581 231.466 176.407C231.326 178.538 230.508 179.845 229.631 179.324C228.876 178.873 228.328 177.269 228.268 175.53C227.949 177.042 227.275 177.918 226.511 177.463C225.747 177.009 225.188 175.386 225.129 173.635C224.803 175.156 224.117 176.037 223.343 175.574C222.563 175.11 221.998 173.475 221.939 171.71C221.607 173.241 220.909 174.123 220.122 173.654C219.336 173.184 218.758 171.531 218.697 169.751C218.359 171.291 217.65 172.178 216.849 171.701C215.911 171.141 215.275 168.893 215.433 166.681C215.568 164.787 216.217 163.543 216.96 163.564C216.411 162.788 215.994 161.435 215.956 159.99C215.614 161.528 214.895 162.4 214.084 161.901C213.133 161.315 212.492 159.043 212.653 156.828C212.791 154.931 213.449 153.699 214.201 153.738C213.517 152.754 213.08 150.938 213.217 149.049C213.353 147.163 214.008 145.948 214.757 146.003C214.076 145.01 213.641 143.192 213.778 141.314C213.937 139.126 214.827 137.874 215.765 138.509C216.566 139.05 217.142 140.739 217.201 142.511C217.541 141.007 218.245 140.187 219.035 140.721C219.824 141.253 220.391 142.927 220.45 144.684C220.782 143.189 221.476 142.37 222.254 142.896C223.158 143.507 223.769 145.73 223.622 147.871C223.496 149.707 222.874 150.9 222.154 150.856C222.688 151.634 223.047 152.941 223.127 154.384C223.455 152.886 224.14 152.054 224.909 152.559C225.677 153.063 226.229 154.699 226.288 156.437C226.548 155.225 227.037 154.487 227.613 154.44C226.974 153.491 226.563 151.737 226.686 149.913C226.808 148.092 227.416 146.917 228.115 146.967C227.477 146.009 227.068 144.255 227.19 142.44C227.313 140.625 227.918 139.47 228.614 139.534C227.979 138.566 227.571 136.811 227.692 135.007C227.814 133.205 228.417 132.064 229.11 132.141C228.478 131.166 228.071 129.409 228.193 127.616C228.314 125.822 228.914 124.699 229.604 124.79C228.973 123.806 228.569 122.049 228.69 120.264C228.81 118.481 229.409 117.373 230.095 117.477C229.468 116.486 229.064 114.727 229.184 112.952C229.304 111.18 229.9 110.087 230.584 110.203C229.959 109.203 229.556 107.444 229.675 105.679C229.795 103.916 230.388 102.84 231.069 102.968C230.446 101.96 230.045 100.2 230.164 98.4444C230.302 96.3992 231.11 95.3106 231.966 96.0065C232.697 96.6008 233.226 98.2534 233.285 99.9317C233.59 98.5475 234.23 97.847 234.953 98.4353C235.673 99.0205 236.195 100.658 236.254 102.324C236.533 101.037 237.103 100.343 237.758 100.731L238.129 94.9907L231.624 89.5995C231.054 89.1264 229.75 87.9439 228.649 89.3963V89.3933ZM213.512 100.972C213.377 102.809 212.725 103.936 211.973 103.801C212.657 104.857 213.089 106.697 212.954 108.542C212.818 110.39 212.163 111.533 211.409 111.413C212.095 112.461 212.53 114.3 212.393 116.155C212.257 118.011 211.599 119.176 210.841 119.069C211.529 120.108 211.966 121.945 211.829 123.812C211.691 125.681 211.03 126.859 210.269 126.768C210.961 127.798 211.399 129.634 211.261 131.51C211.123 133.39 210.459 134.587 209.695 134.511C210.389 135.53 210.829 137.367 210.691 139.255C210.551 141.145 209.884 142.36 209.117 142.299C209.814 143.309 210.256 145.145 210.116 147.043C209.977 148.941 209.307 150.178 208.535 150.131C209.235 151.132 209.678 152.966 209.539 154.875C209.373 157.105 208.453 158.429 207.477 157.828C206.637 157.31 206.03 155.591 205.971 153.761C205.679 155.036 205.127 155.818 204.481 155.87C205.195 156.872 205.647 158.723 205.503 160.658C205.333 162.918 204.391 164.272 203.395 163.678C202.537 163.165 201.919 161.434 201.859 159.583C201.487 161.176 200.713 162.078 199.845 161.56C198.971 161.04 198.344 159.29 198.285 157.422C197.904 159.026 197.117 159.933 196.232 159.405C195.343 158.876 194.705 157.108 194.647 155.227C194.259 156.841 193.457 157.751 192.558 157.214C191.655 156.676 191.007 154.89 190.948 152.992C190.552 154.619 189.735 155.53 188.82 154.984C187.746 154.344 187.031 151.919 187.223 149.569C187.388 147.557 188.139 146.261 188.991 146.318C188.365 145.465 187.895 144.005 187.86 142.463C187.458 144.085 186.63 144.98 185.702 144.409C184.615 143.739 183.892 141.286 184.088 138.932C184.256 136.917 185.017 135.634 185.88 135.713C185.101 134.631 184.611 132.672 184.778 130.666C184.944 128.66 185.702 127.402 186.561 127.497C185.784 126.404 185.296 124.445 185.463 122.452C185.63 120.461 186.383 119.219 187.238 119.332C186.467 118.228 185.98 116.268 186.145 114.286C186.31 112.308 187.061 111.086 187.911 111.214C187.143 110.1 186.658 108.14 186.823 106.169C186.987 104.203 187.734 103 188.58 103.146C187.814 102.021 187.332 100.059 187.496 98.1017C187.66 96.146 188.403 94.9649 189.246 95.1256C188.483 93.9916 188.004 92.0283 188.166 90.0831C188.328 88.1395 189.068 86.9781 189.907 87.154C189.149 86.0093 188.669 84.046 188.832 82.1114C188.992 80.1799 189.729 79.0368 190.565 79.2278C189.81 78.0741 189.333 76.1107 189.494 74.1868C189.681 71.946 190.681 70.8089 191.723 71.6367C192.613 72.3432 193.248 74.1989 193.306 76.047C193.615 74.8266 194.193 74.158 194.863 74.2399C194.123 73.0907 193.656 71.1455 193.812 69.2473C193.994 67.0369 194.97 65.9241 195.991 66.7549C196.862 67.4629 197.484 69.3034 197.542 71.1303C197.916 69.6537 198.689 68.9487 199.549 69.6491C200.406 70.345 201.018 72.1673 201.077 73.9791C201.446 72.5115 202.204 71.8065 203.05 72.4948C203.896 73.1831 204.496 74.9827 204.554 76.7808C204.914 75.3224 205.66 74.6174 206.493 75.2935C207.325 75.9697 207.916 77.7527 207.974 79.5356C208.327 78.0862 209.061 77.3812 209.88 78.0468C210.83 78.82 211.469 81.1669 211.308 83.2986C211.17 85.1285 210.513 86.2246 209.755 86.0548C210.315 86.9311 210.738 88.3472 210.773 89.7799C211.121 88.3259 211.845 87.6043 212.654 88.2471C213.594 88.993 214.225 91.3157 214.067 93.4443C213.94 95.1696 213.291 96.2779 212.536 96.2324C213.217 97.2967 213.647 99.1372 213.512 100.973V100.972Z" fill="#250600"/>
<path d="M160.247 122.132C160.619 120.754 161.302 119.949 162.092 119.956C161.39 119.013 160.866 117.44 160.834 115.81C160.462 117.182 159.776 117.982 158.98 117.972C159.689 118.921 160.215 120.498 160.247 122.132Z" fill="#250600"/>
<path d="M161.838 104.991C162.206 103.639 162.882 102.868 163.663 102.906C162.967 101.945 162.449 100.365 162.417 98.7491C162.05 100.094 161.371 100.861 160.581 100.82C161.283 101.789 161.806 103.37 161.838 104.992V104.991Z" fill="#250600"/>
<path d="M210.057 99.3101C209.774 100.509 209.24 101.195 208.614 101.157C209.178 102.019 209.604 103.429 209.64 104.874C209.878 103.636 210.418 102.844 211.077 103.015C210.518 102.159 210.095 100.75 210.059 99.3101H210.057Z" fill="#250600"/>
<path d="M161.04 113.592C161.41 112.227 162.101 111.322 162.876 111.462C162.177 110.509 161.656 108.933 161.624 107.309C161.254 108.667 160.572 109.451 159.779 109.425C160.485 110.384 161.008 111.963 161.04 113.592Z" fill="#250600"/>
<path d="M209.492 106.838C209.208 108.047 208.671 108.745 208.042 108.72C208.609 109.576 209.035 110.984 209.072 112.433C209.31 111.184 209.845 110.484 210.515 110.54C209.954 109.691 209.528 108.285 209.492 106.838Z" fill="#250600"/>
<path d="M206.753 143.31C206.998 142.022 207.549 141.16 208.223 141.27C207.651 140.449 207.22 139.055 207.184 137.587C206.894 138.839 206.349 139.593 205.707 139.617C206.283 140.442 206.717 141.84 206.753 143.312V143.31Z" fill="#250600"/>
<path d="M207.769 129.781C207.481 131.022 206.937 131.761 206.3 131.773C206.875 132.605 207.305 134.006 207.342 135.472C207.584 134.194 208.126 133.453 208.803 133.469C208.235 132.642 207.804 131.244 207.768 129.781H207.769Z" fill="#250600"/>
<path d="M208.344 122.124C208.057 123.355 207.516 124.08 206.881 124.08C207.452 124.92 207.883 126.322 207.919 127.784C208.16 126.515 208.7 125.787 209.375 125.818C208.808 124.982 208.38 123.583 208.344 122.124Z" fill="#250600"/>
<path d="M162.62 96.5584C162.985 95.2196 163.66 94.4646 164.436 94.5177C163.743 93.5474 163.226 91.9646 163.194 90.3545C162.829 91.6856 162.153 92.4376 161.368 92.3815C162.066 93.3594 162.586 94.9437 162.618 96.5584H162.62Z" fill="#250600"/>
<path d="M203.273 141.048C203.568 139.781 204.131 138.917 204.767 139C204.187 138.171 203.749 136.762 203.712 135.281C203.417 136.542 202.86 137.297 202.21 137.319C202.795 138.153 203.236 139.564 203.271 141.048H203.273Z" fill="#250600"/>
<path d="M180.225 91.4218C180.505 90.1043 181.124 89.3887 181.891 89.4857C181.251 88.5488 180.771 87.0266 180.737 85.4832C180.404 86.7552 179.785 87.4678 179.062 87.4057C179.708 88.3502 180.19 89.8754 180.225 91.4218Z" fill="#250600"/>
<path d="M176.306 88.5685C176.592 87.2419 177.276 86.5642 178.004 86.6279C177.353 85.6773 176.865 84.14 176.832 82.5829C176.492 83.8641 175.86 84.5781 175.125 84.5099C175.783 85.4666 176.272 87.0069 176.306 88.567V88.5685Z" fill="#250600"/>
<path d="M172.462 132.253C172.112 133.609 171.462 134.418 170.704 134.437C171.38 135.34 171.883 136.864 171.917 138.463C172.223 136.952 172.926 136.174 173.666 136.268C172.998 135.37 172.496 133.85 172.462 132.255V132.253Z" fill="#250600"/>
<path d="M175.581 96.8131C175.88 95.3637 176.565 94.6693 177.288 94.8315C176.635 93.89 176.143 92.3542 176.112 90.7926C175.77 92.0859 175.135 92.8151 174.395 92.7605C175.056 93.7081 175.548 95.2469 175.581 96.8131Z" fill="#250600"/>
<path d="M173.398 121.626C173.745 120.288 174.388 119.509 175.131 119.517C174.468 118.601 173.971 117.074 173.938 115.493C173.645 116.859 172.946 117.6 172.197 117.588C172.867 118.51 173.366 120.04 173.399 121.626H173.398Z" fill="#250600"/>
<path d="M174.127 113.342C174.473 112.018 175.111 111.252 175.851 111.275C175.191 110.35 174.697 108.821 174.664 107.245C174.373 108.599 173.677 109.324 172.931 109.298C173.598 110.229 174.094 111.762 174.127 113.34V113.342Z" fill="#250600"/>
<path d="M173.208 123.791C172.86 125.134 172.212 125.927 171.459 125.93C172.132 126.842 172.632 128.369 172.665 129.961C172.96 128.577 173.66 127.816 174.406 127.81C173.74 126.903 173.242 125.379 173.208 123.791Z" fill="#250600"/>
<path d="M174.861 104.995C175.15 103.646 175.84 102.935 176.576 102.971C175.919 102.039 175.426 100.506 175.393 98.9371C175.05 100.242 174.412 100.987 173.669 100.947C174.333 101.886 174.827 103.422 174.861 104.995Z" fill="#250600"/>
<path d="M177.205 126.368C176.864 127.702 176.228 128.492 175.488 128.5C176.149 129.4 176.642 130.912 176.676 132.49C176.964 131.116 177.597 130.322 178.383 130.346C177.728 129.452 177.238 127.943 177.203 126.368H177.205Z" fill="#250600"/>
<path d="M177.916 118.137C177.576 119.458 176.944 120.232 176.207 120.226C176.865 121.136 177.356 122.65 177.39 124.223C177.731 122.895 178.36 122.117 179.089 122.121C178.437 121.218 177.949 119.706 177.916 118.139V118.137Z" fill="#250600"/>
<path d="M178.099 116.002C178.437 114.686 179.065 113.925 179.791 113.943C179.142 113.031 178.656 111.518 178.622 109.956C178.284 111.265 177.655 112.024 176.923 112.003C177.578 112.922 178.066 114.438 178.101 116.004L178.099 116.002Z" fill="#250600"/>
<path d="M180.918 83.4016C181.197 82.0963 181.821 81.2852 182.576 81.5065C181.939 80.5605 181.46 79.0368 181.427 77.4995C181.097 78.7593 180.479 79.4583 179.759 79.3809C180.402 80.3331 180.883 81.8613 180.916 83.4016H180.918Z" fill="#250600"/>
<path d="M175.946 140.924C176.247 139.423 176.883 138.615 177.663 138.736C177.005 137.851 176.512 136.345 176.478 134.764C176.136 136.11 175.496 136.917 174.753 136.938C175.417 137.83 175.913 139.338 175.946 140.922V140.924Z" fill="#250600"/>
<path d="M181.606 75.427C181.936 74.1716 182.547 73.4848 183.257 73.5713C182.623 72.6176 182.147 71.0909 182.112 69.5597C181.783 70.8089 181.169 71.4912 180.452 71.4017C181.092 72.3614 181.571 73.8927 181.604 75.427H181.606Z" fill="#250600"/>
<path d="M177.017 80.4847C177.302 79.1702 177.992 78.397 178.707 78.585C178.06 77.6268 177.573 76.0865 177.54 74.5355C177.202 75.8045 176.572 76.5034 175.84 76.4215C176.495 77.3858 176.983 78.9307 177.017 80.4847Z" fill="#250600"/>
<path d="M170.555 58.1571C170.904 56.8896 171.548 56.2165 172.293 56.3332C171.628 55.3326 171.131 53.7543 171.098 52.1897C170.749 53.4496 170.093 54.2319 169.351 53.9984C170.023 55.0051 170.467 56.5439 170.555 58.1556V58.1571Z" fill="#250600"/>
<path d="M173.774 69.4202C174.118 68.1497 174.753 67.4599 175.488 67.5584C174.832 66.579 174.341 65.0205 174.307 63.4619C174.018 64.7688 173.381 65.4541 172.584 65.31C173.246 66.2955 173.74 67.8586 173.774 69.4202Z" fill="#250600"/>
<path d="M169.806 66.3789C170.158 65.0993 170.805 64.4095 171.553 64.5141C170.886 63.5225 170.385 61.9458 170.353 60.3751C170.003 61.6471 169.353 62.3339 168.598 62.2263C169.272 63.2254 169.72 64.7627 169.806 66.3789Z" fill="#250600"/>
<path d="M174.505 61.2621C174.847 60.0037 175.479 59.329 176.21 59.4412C175.557 58.4542 175.067 56.8911 175.035 55.3402C174.747 56.6349 174.103 57.4157 173.32 57.1474C173.98 58.1419 174.471 59.7065 174.505 61.2621Z" fill="#250600"/>
<path d="M167.039 78.5638C167.72 79.5462 168.172 81.079 168.258 82.7073C168.699 81.1063 169.594 80.3224 170.581 81.0487C171.565 81.7718 172.261 83.714 172.318 85.6637C172.665 84.3689 173.307 83.6488 174.05 83.7185C173.236 82.5253 172.725 80.4832 172.905 78.4774C173.084 76.4746 173.881 75.2966 174.782 75.5028C174.122 74.5325 173.63 72.9754 173.596 71.4108C173.167 72.98 172.289 73.7395 171.31 72.9997C170.331 72.2598 169.626 70.295 169.57 68.3422C169.218 69.6279 168.564 70.3283 167.805 70.2343C168.637 71.4624 169.156 73.5273 168.972 75.5452C168.787 77.5662 167.97 78.7639 167.041 78.5623L167.039 78.5638Z" fill="#250600"/>
<path d="M160.029 124.48C159.656 125.866 158.966 126.685 158.166 126.688C158.878 127.628 159.407 129.201 159.439 130.842C159.824 129.332 160.511 128.51 161.293 128.619C160.588 127.685 160.061 126.116 160.03 124.479L160.029 124.48Z" fill="#250600"/>
<path d="M167.355 93.2805C166.997 94.6026 166.334 95.3531 165.564 95.3015C166.251 96.2657 166.706 97.7955 166.794 99.4344C167.097 98.0669 167.812 97.3528 168.575 97.3998C167.894 96.4416 167.386 94.877 167.355 93.2805Z" fill="#250600"/>
<path d="M171.574 93.9734C171.933 92.5528 172.578 91.8175 173.314 91.9858C172.649 91.0322 172.152 89.4797 172.118 87.9045C171.769 89.2053 171.122 89.9376 170.37 89.8784C171.042 90.8381 171.542 92.3936 171.575 93.9734H171.574Z" fill="#250600"/>
<path d="M177.725 72.4509C178.061 71.188 178.686 70.4996 179.408 70.5921C178.762 69.6264 178.278 68.083 178.245 66.5381C177.961 67.8359 177.282 68.4787 176.554 68.3832C177.206 69.3565 177.691 70.9029 177.725 72.4509Z" fill="#250600"/>
<path d="M178.437 64.3549C178.772 63.1041 179.392 62.431 180.111 62.5356C179.468 61.5607 178.988 60.0158 178.954 58.477C178.672 59.7641 177.987 60.4995 177.271 60.2826C177.92 61.2636 178.404 62.813 178.437 64.3549Z" fill="#250600"/>
<path d="M166.481 54.9551C166.838 53.68 167.494 53.0054 168.254 53.1297C167.577 52.1154 167.073 50.5205 167.041 48.9422C166.741 50.2552 166.07 51.0375 165.259 50.754C165.942 51.7743 166.449 53.3738 166.483 54.9551H166.481Z" fill="#250600"/>
<path d="M167.55 91.1216C167.861 89.6525 168.574 88.9551 169.322 89.1295C168.645 88.1637 168.14 86.5946 168.107 85.0057C167.75 86.3156 167.091 87.0494 166.324 86.9842C167.007 87.9575 167.461 89.4888 167.549 91.1216H167.55Z" fill="#250600"/>
<path d="M171.383 96.1156C171.033 97.4301 170.382 98.1775 169.626 98.1321C170.3 99.0842 170.804 100.635 170.836 102.223C171.187 100.902 171.835 100.152 172.584 100.192C171.915 99.2479 171.415 97.6985 171.383 96.1156Z" fill="#250600"/>
<path d="M206.602 145.331C206.311 146.596 205.762 147.361 205.119 147.399C205.698 148.216 206.133 149.611 206.17 151.088C206.414 149.789 207.008 149.049 207.645 149.009C207.072 148.198 206.638 146.805 206.602 145.331Z" fill="#250600"/>
<path d="M232.72 109.086C232.473 110.226 232.001 110.885 231.443 110.866C231.948 111.668 232.332 112.991 232.369 114.356C232.617 113.211 233.088 112.549 233.64 112.565C233.14 111.768 232.799 110.479 232.72 109.086Z" fill="#250600"/>
<path d="M233.197 101.897C232.952 103.028 232.474 103.773 231.927 103.645C232.43 104.453 232.812 105.779 232.85 107.138C233.096 106.002 233.566 105.352 234.115 105.379C233.616 104.575 233.276 103.284 233.197 101.895V101.897Z" fill="#250600"/>
<path d="M232.247 116.215C232 117.364 231.525 118.035 230.966 118.026C231.472 118.822 231.857 120.143 231.895 121.512C232.144 120.357 232.617 119.683 233.17 119.689C232.668 118.898 232.326 117.611 232.247 116.213V116.215Z" fill="#250600"/>
<path d="M231.285 130.686C231.035 131.855 230.558 132.551 229.994 132.563C230.505 133.345 230.893 134.661 230.931 136.041C231.181 134.867 231.658 134.168 232.216 134.153C231.71 133.375 231.364 132.091 231.285 130.686Z" fill="#250600"/>
<path d="M235.2 118.466C234.956 119.609 234.491 120.279 233.94 120.273C234.439 121.06 234.819 122.37 234.857 123.728C235.101 122.581 235.573 121.81 236.113 121.912C235.617 121.13 235.239 119.823 235.202 118.466H235.2Z" fill="#250600"/>
<path d="M235.788 109.45C236.029 108.32 236.492 107.671 237.033 107.696C236.542 106.901 236.166 105.59 236.128 104.242C235.926 105.399 235.418 106.11 234.877 105.985C235.373 106.784 235.749 108.099 235.787 109.448L235.788 109.45Z" fill="#250600"/>
<path d="M231.771 123.383C231.522 124.543 231.038 125.325 230.483 125.226C230.993 126.015 231.378 127.334 231.416 128.709C231.664 127.544 232.139 126.859 232.697 126.855C232.192 126.071 231.849 124.784 231.771 123.383Z" fill="#250600"/>
<path d="M234.262 132.839C234.016 134 233.546 134.694 232.991 134.709C233.494 135.483 233.876 136.788 233.914 138.157C234.166 136.891 234.636 136.197 235.179 136.277C234.68 135.508 234.299 134.205 234.262 132.84V132.839Z" fill="#250600"/>
<path d="M233.793 140.032C233.546 141.204 233.074 141.909 232.518 141.935C233.023 142.702 233.406 144.005 233.444 145.378C233.692 144.202 234.162 143.494 234.715 143.465C234.215 142.702 233.833 141.402 233.795 140.031L233.793 140.032Z" fill="#250600"/>
<path d="M234.736 125.584C234.492 126.736 234.024 127.419 233.47 127.423C233.972 128.202 234.353 129.511 234.39 130.874C234.635 129.717 235.101 129.033 235.65 129.026C235.153 128.249 234.774 126.946 234.736 125.584Z" fill="#250600"/>
<path d="M233.32 147.266C233.073 148.447 232.598 149.164 232.039 149.202C232.545 149.961 232.93 151.262 232.97 152.64C233.219 151.455 233.69 150.735 234.245 150.695C233.742 149.94 233.358 148.641 233.32 147.266Z" fill="#250600"/>
<path d="M232.839 154.636C232.591 155.826 232.115 156.556 231.554 156.605C232.063 157.357 232.45 158.656 232.488 160.039C232.736 158.843 233.219 158.01 233.769 158.06C233.264 157.311 232.879 156.015 232.841 154.636H232.839Z" fill="#250600"/>
<path d="M204.44 78.8776C204.149 80.0708 203.592 80.8349 202.957 80.662C203.535 81.5596 203.97 83.0029 204.005 84.4599C204.296 83.2622 204.843 82.5966 205.48 82.6633C204.907 81.7703 204.522 80.3679 204.438 78.8776H204.44Z" fill="#250600"/>
<path d="M230.805 137.93C230.553 139.108 230.074 139.816 229.507 139.84C230.02 140.615 230.409 141.929 230.447 143.313C230.699 142.129 231.178 141.42 231.739 141.394C231.231 140.624 230.884 139.34 230.805 137.93Z" fill="#250600"/>
<path d="M222.591 163.484C222.325 164.718 221.82 165.482 221.226 165.545C221.763 166.31 222.125 167.612 222.207 169.063C222.43 167.797 222.933 167.03 223.565 166.99C223.033 166.231 222.673 164.931 222.591 163.482V163.484Z" fill="#250600"/>
<path d="M219.894 153.903C219.624 155.134 219.113 155.889 218.511 155.938C219.054 156.717 219.464 158.062 219.502 159.493C219.728 158.229 220.282 157.499 220.877 157.448C220.339 156.673 219.93 155.331 219.894 153.903Z" fill="#250600"/>
<path d="M220.42 146.383C220.195 147.633 219.642 148.345 219.043 148.383C219.584 149.17 219.994 150.516 220.03 151.943C220.298 150.716 220.806 149.974 221.4 149.933C220.864 149.15 220.457 147.806 220.42 146.383Z" fill="#250600"/>
<path d="M219.357 161.57C219.087 162.812 218.573 163.579 217.968 163.641C218.514 164.413 218.926 165.755 218.963 167.192C219.198 165.814 219.753 165.071 220.344 165.11C219.803 164.343 219.393 163.003 219.355 161.57H219.357Z" fill="#250600"/>
<path d="M217.213 144.252C216.94 145.48 216.422 146.224 215.812 146.259C216.361 147.055 216.776 148.413 216.814 149.851C217.087 148.617 217.604 147.871 218.208 147.833C217.663 147.041 217.249 145.685 217.213 144.252Z" fill="#250600"/>
<path d="M216.673 151.826C216.399 153.065 215.879 153.823 215.266 153.87C215.818 154.658 216.235 156.015 216.272 157.457C216.502 156.184 217.02 155.424 217.671 155.404C217.124 154.62 216.71 153.267 216.672 151.828L216.673 151.826Z" fill="#250600"/>
<path d="M229.829 152.634C229.575 153.832 229.092 154.566 228.52 154.611C229.037 155.372 229.428 156.682 229.466 158.076C229.719 156.872 230.203 156.138 230.768 156.09C230.256 155.333 229.907 154.052 229.829 152.634Z" fill="#250600"/>
<path d="M228.84 167.498C228.584 168.716 228.096 169.474 227.521 169.543C228.041 170.289 228.437 171.595 228.475 172.999C228.696 171.648 229.183 170.887 229.788 170.944C229.271 170.201 228.92 168.925 228.84 167.498Z" fill="#250600"/>
<path d="M229.339 159.996C229.084 161.205 228.599 161.949 228.026 162.007C228.544 162.76 228.939 164.069 228.976 165.467C229.19 164.226 229.674 163.479 230.283 163.446C229.769 162.697 229.419 161.417 229.339 159.995V159.996Z" fill="#250600"/>
<path d="M230.314 145.313C230.062 146.502 229.58 147.222 229.011 147.257C229.527 148.025 229.916 149.337 229.954 150.726C230.208 149.532 230.688 148.809 231.251 148.773C230.74 148.009 230.392 146.728 230.314 145.313Z" fill="#250600"/>
<path d="M225.715 165.545C225.455 166.772 224.959 167.533 224.374 167.6C224.903 168.355 225.303 169.672 225.341 171.087C225.567 169.727 226.103 168.99 226.677 169.023C226.152 168.273 225.753 166.958 225.715 165.547V165.545Z" fill="#250600"/>
<path d="M223.099 156.079C222.835 157.302 222.331 158.054 221.74 158.106C222.275 158.876 222.636 160.181 222.716 161.628C222.982 160.4 223.482 159.645 224.069 159.59C223.538 158.823 223.179 157.522 223.099 156.077V156.079Z" fill="#250600"/>
<path d="M226.226 157.988C226.009 159.231 225.465 160.054 224.891 160.007C225.417 160.77 225.817 162.089 225.853 163.499C226.113 162.278 226.605 161.528 227.183 161.47C226.661 160.712 226.264 159.395 226.226 157.989V157.988Z" fill="#250600"/>
<path d="M232.362 161.946C232.112 163.147 231.634 163.888 231.07 163.949C231.581 164.695 231.969 165.991 232.007 167.378C232.257 166.173 232.733 165.429 233.293 165.367C232.786 164.625 232.4 163.332 232.362 161.946Z" fill="#250600"/>
<path d="M197.467 73.2984C197.164 74.5052 196.588 75.2738 195.932 75.0889C196.529 76.0091 196.976 77.4813 197.011 78.961C197.314 77.7481 197.881 77.081 198.539 77.1583C197.948 76.2441 197.502 74.775 197.467 73.2984Z" fill="#250600"/>
<path d="M191.749 144.311C191.432 145.621 190.839 146.414 190.148 146.452C190.768 147.301 191.233 148.749 191.268 150.28C191.544 148.823 192.134 148.027 192.861 148.127C192.247 147.284 191.784 145.838 191.749 144.309V144.311Z" fill="#250600"/>
<path d="M200.513 81.7142C200.81 80.5089 201.367 79.8434 202.014 79.9146C201.432 79.011 200.994 77.5571 200.957 76.0925C200.709 77.3297 200.142 78.0968 199.449 77.88C200.036 78.7897 200.477 80.2466 200.513 81.7142Z" fill="#250600"/>
<path d="M199.901 89.4569C200.199 88.241 200.759 87.5618 201.409 87.6209C200.826 86.7249 200.384 85.2725 200.348 83.8034C200.098 85.0512 199.537 85.7273 198.832 85.6273C199.422 86.5294 199.864 87.9833 199.899 89.4569H199.901Z" fill="#250600"/>
<path d="M192.572 134.091C192.836 132.766 193.43 131.891 194.15 132.02C193.541 131.16 193.083 129.709 193.046 128.193C192.733 129.479 192.146 130.243 191.461 130.252C192.076 131.118 192.537 132.572 192.572 134.091Z" fill="#250600"/>
<path d="M191.926 142.107C192.191 140.771 192.78 139.99 193.512 139.995C192.899 139.143 192.44 137.695 192.404 136.173C192.088 137.47 191.498 138.248 190.81 138.272C191.427 139.129 191.891 140.58 191.926 142.107Z" fill="#250600"/>
<path d="M195.38 146.581C195.069 147.881 194.488 148.671 193.807 148.712C194.418 149.551 194.875 150.985 194.911 152.504C195.231 151.088 195.81 150.295 196.476 150.36C195.871 149.528 195.416 148.095 195.38 146.581Z" fill="#250600"/>
<path d="M199.168 146.671C199.423 145.354 199.99 144.579 200.698 144.576C200.105 143.745 199.708 142.355 199.623 140.827C199.32 142.108 198.752 142.88 198.086 142.91C198.683 143.747 199.132 145.169 199.168 146.67V146.671Z" fill="#250600"/>
<path d="M198.999 148.843C198.694 150.134 198.124 150.921 197.455 150.965C198.056 151.793 198.506 153.213 198.542 154.72C198.806 153.283 199.376 152.493 200.078 152.586C199.484 151.763 199.084 150.375 198.999 148.843Z" fill="#250600"/>
<path d="M204.889 90.3135C204.314 89.4281 203.926 88.0273 203.844 86.5324C203.551 87.7362 203.001 88.4108 202.355 88.3532C202.936 89.2432 203.371 90.685 203.407 92.1465C203.7 90.9382 204.249 90.2605 204.889 90.3151V90.3135Z" fill="#250600"/>
<path d="M193.222 126.015C193.485 124.7 194.067 123.95 194.793 123.983C194.187 123.114 193.73 121.662 193.694 120.15C193.381 121.425 192.798 122.173 192.116 122.17C192.728 123.043 193.187 124.5 193.222 126.015Z" fill="#250600"/>
<path d="M195.553 144.393C195.862 143.098 196.439 142.319 197.11 142.29C196.508 141.449 196.054 140.014 196.018 138.504C195.709 139.793 195.13 140.569 194.453 140.596C195.061 141.442 195.516 142.88 195.553 144.393Z" fill="#250600"/>
<path d="M199.781 138.779C200.034 137.472 200.607 136.603 201.303 136.723C200.578 135.681 200.117 133.797 200.268 131.864C200.418 129.931 201.117 128.716 201.914 128.806C201.192 127.755 200.733 125.869 200.883 123.947C201.032 122.027 201.729 120.83 202.522 120.934C201.803 119.873 201.347 117.987 201.496 116.077C201.644 114.166 202.337 112.988 203.127 113.11C202.411 112.039 201.957 110.152 202.104 108.252C202.251 106.355 202.94 105.194 203.727 105.329C203.015 104.25 202.561 102.36 202.709 100.473C202.856 98.5869 203.542 97.4437 204.325 97.5938C203.747 96.716 203.359 95.3167 203.276 93.8172C202.91 95.3091 202.151 96.0626 201.297 95.4182C200.44 94.7709 199.823 92.9667 199.764 91.1398C199.464 92.3603 198.902 93.0501 198.242 93.0001C198.97 94.1083 199.429 96.0186 199.279 97.9168C199.129 99.8149 198.426 100.979 197.619 100.835C198.35 101.934 198.811 103.843 198.659 105.753C198.507 107.667 197.801 108.846 196.99 108.716C197.724 109.806 198.186 111.713 198.034 113.636C197.883 115.56 197.172 116.759 196.358 116.644C197.094 117.723 197.56 119.63 197.407 121.563C197.254 123.499 196.54 124.717 195.722 124.618C196.464 125.689 196.929 127.594 196.776 129.538C196.621 131.485 195.906 132.722 195.084 132.638C195.689 133.494 196.142 134.932 196.179 136.441C196.561 134.864 197.348 134.012 198.224 134.588C199.1 135.164 199.719 136.931 199.778 138.78L199.781 138.779Z" fill="#250600"/>
<path d="M189.506 123.64C189.825 122.352 190.417 121.597 191.106 121.601C190.489 120.722 190.025 119.254 189.99 117.731C189.722 119.048 189.127 119.8 188.381 119.758C189.005 120.642 189.47 122.114 189.505 123.64H189.506Z" fill="#250600"/>
<path d="M188.848 131.671C189.168 130.37 189.773 129.491 190.455 129.593C189.835 128.722 189.37 127.256 189.335 125.727C189.015 127.021 188.418 127.787 187.719 127.793C188.345 128.669 188.812 130.137 188.847 131.671H188.848Z" fill="#250600"/>
<path d="M190.821 107.614C191.136 106.348 191.724 105.623 192.407 105.653C191.796 104.759 191.335 103.285 191.3 101.774C191.035 103.07 190.445 103.792 189.706 103.722C190.324 104.622 190.786 106.099 190.821 107.614Z" fill="#250600"/>
<path d="M235.669 111.287C235.426 112.421 234.962 113.079 234.413 113.063C234.91 113.856 235.289 115.167 235.327 116.522C235.57 115.384 236.034 114.724 236.577 114.738C236.084 113.95 235.706 112.64 235.669 111.289V111.287Z" fill="#250600"/>
<path d="M190.17 115.549C190.487 114.272 191.077 113.533 191.762 113.549C191.148 112.662 190.686 111.192 190.651 109.674C190.384 110.981 189.793 111.718 189.05 111.66C189.67 112.553 190.134 114.027 190.169 115.547L190.17 115.549Z" fill="#250600"/>
<path d="M191.476 99.6178C191.79 98.364 192.375 97.653 193.054 97.6969C192.445 96.7933 191.987 95.3182 191.952 93.8127C191.688 95.0983 191.092 95.9125 190.366 95.7215C190.98 96.6296 191.441 98.1093 191.476 99.6194V99.6178Z" fill="#250600"/>
<path d="M193.689 89.8936C193.083 88.9824 192.626 87.5042 192.592 86.0048C192.329 87.2798 191.746 87.9727 191.013 87.8741C191.626 88.7914 192.084 90.2726 192.119 91.7766C192.431 90.5334 193.013 89.8375 193.689 89.8936Z" fill="#250600"/>
<path d="M193.861 118.093C194.171 116.824 194.751 116.087 195.424 116.101C194.82 115.225 194.364 113.769 194.329 112.264C194.018 113.527 193.438 114.26 192.758 114.244C193.368 115.125 193.826 116.585 193.861 118.093Z" fill="#250600"/>
<path d="M188.677 133.768C188.356 135.075 187.755 135.856 187.053 135.875C187.681 136.743 188.151 138.209 188.186 139.747C188.507 138.435 189.106 137.651 189.8 137.628C189.179 136.765 188.71 135.302 188.676 133.768H188.677Z" fill="#250600"/>
<path d="M194.494 110.218C194.804 108.962 195.38 108.238 196.051 108.264C195.449 107.38 194.996 105.922 194.961 104.422C194.652 105.675 194.074 106.393 193.397 106.364C194.003 107.254 194.459 108.716 194.494 110.218Z" fill="#250600"/>
<path d="M196.383 86.7598C196.688 85.5363 197.257 84.8556 197.919 84.9193C197.325 84.0126 196.878 82.5466 196.843 81.0638C196.538 82.2812 195.968 82.9605 195.299 82.8922C195.898 83.8049 196.348 85.274 196.383 86.7598Z" fill="#250600"/>
<path d="M195.134 102.282C195.442 101.035 196.016 100.327 196.684 100.367C196.085 99.4753 195.633 98.0138 195.598 96.5205C195.29 97.7606 194.707 98.5732 194.041 98.4232C194.646 99.3207 195.099 100.785 195.134 102.282Z" fill="#250600"/>
<path d="M193.228 78.2408C192.968 79.5053 192.387 80.1845 191.658 80.0723C192.267 80.9971 192.723 82.4814 192.758 83.9778C193.069 82.7467 193.648 82.0644 194.321 82.1327C193.718 81.2139 193.263 79.7327 193.228 78.2393V78.2408Z" fill="#250600"/>
<path d="M195.76 94.498C196.066 93.2624 196.638 92.568 197.302 92.6195C196.706 91.7205 196.256 90.2559 196.221 88.7686C195.915 89.9982 195.342 90.6895 194.672 90.6334C195.274 91.5386 195.725 93.0046 195.76 94.4965V94.498Z" fill="#250600"/>
<path d="M152.368 179.606L0 183.91L23.8028 23.9281L169.045 1.6748L152.368 179.606Z" fill="#F3C700"/>
<path d="M136.358 144.749C135.025 143.294 134.295 143.216 133.764 143.245C133.233 143.274 132.669 143.657 131.279 144.905C129.302 146.769 128.348 147.874 125.51 148.021L90.3368 149.842C87.9504 149.964 87.3955 149.652 85.4898 147.481C84.1162 145.857 83.6947 146.106 83.3006 146.129C83.0049 146.145 82.3166 146.183 80.8627 147.73C78.305 150.351 77.4105 150.51 75.7519 150.595L26.7455 153.132C23.9483 153.276 21.9622 152.189 20.4401 149.789C19.1301 147.818 18.8648 145.366 19.2211 142.883C19.5774 140.405 30.6449 64.1275 31.2726 59.7626C31.8987 56.0073 32.9418 54.0879 34.887 51.8547C36.9352 49.5062 39.1624 48.3206 41.6215 47.9947L166.254 31.4828L169.048 1.6748L23.8058 23.9281L0.00303285 183.91L152.371 179.606L155.477 146.47L141.758 147.179C139.078 147.317 138.471 146.994 136.363 144.749H136.358Z" fill="#FF5906"/>
<path d="M52.6769 66.2485C53.2211 64.8582 54.2642 63.7136 55.4983 63.1587C54.3779 62.8843 53.5244 61.9685 53.4349 60.6571C52.8922 62.0444 51.8369 63.2906 50.6241 63.7409C51.7384 64.0153 52.5889 64.9325 52.6769 66.2485Z" fill="#2C0700"/>
<path d="M51.6474 73.8457C52.1023 72.4584 53.1499 71.3138 54.475 70.7528C53.3515 70.4708 52.4964 69.543 52.4085 68.2225C51.8642 69.6158 50.8196 70.7589 49.5901 71.3077C50.7059 71.5912 51.558 72.5191 51.6459 73.8457H51.6474Z" fill="#2C0700"/>
<path d="M66.0928 64.6748C66.6386 63.2694 67.6984 62.1141 68.9537 61.5516C67.8075 61.2772 67.0207 60.3418 66.8297 59.0303C66.2839 60.4312 65.2135 61.6911 63.9794 62.1459C65.1195 62.4203 65.9943 63.3467 66.0928 64.6748Z" fill="#2C0700"/>
<path d="M58.2895 73.1043C58.8368 71.7004 59.8905 70.5497 61.1367 69.9948C60.0011 69.7113 59.1339 68.7804 59.0399 67.4538C58.4941 68.8532 57.442 70.0039 56.2018 70.5557C57.3298 70.8392 58.1955 71.7717 58.2879 73.1043H58.2895Z" fill="#2C0700"/>
<path d="M65.0907 72.3447C65.547 70.9439 66.6083 69.7871 67.9591 69.2185C66.8099 68.935 66.0231 67.989 65.8321 66.6669C65.2847 68.0739 64.225 69.2291 62.9742 69.7856C64.1158 70.0691 64.9937 71.006 65.0922 72.3447H65.0907Z" fill="#2C0700"/>
<path d="M59.3037 65.4707C59.8495 64.0729 60.9002 62.9222 62.1449 62.3643C61.0109 62.0898 60.1452 61.1696 60.0512 59.8536C59.5979 61.2363 58.5351 62.4886 57.2206 62.9525C58.3471 63.2269 59.2112 64.1487 59.3037 65.4707Z" fill="#2C0700"/>
<path d="M46.382 112.706C46.8459 111.287 47.9057 110.138 49.2475 109.6C48.1134 109.271 47.2523 108.285 47.1658 106.916C46.6125 108.338 45.5542 109.488 44.311 110.015C45.4375 110.344 46.2971 111.333 46.382 112.705V112.706Z" fill="#2C0700"/>
<path d="M48.4955 97.1117C49.0473 95.6972 50.1025 94.5495 51.3457 94.0113C50.2162 93.7005 49.3566 92.7393 49.2702 91.39C48.7198 92.8015 47.6677 93.9476 46.4305 94.4843C47.5524 94.7951 48.409 95.7594 48.4955 97.1132V97.1117Z" fill="#2C0700"/>
<path d="M49.5567 89.275C50.0146 87.8756 51.0668 86.728 52.3994 86.1761C51.2714 85.8759 50.4148 84.9253 50.3269 83.5851C49.7781 84.9905 48.7289 86.1352 47.4948 86.6764C48.6152 86.9766 49.4703 87.9302 49.5567 89.2735V89.275Z" fill="#2C0700"/>
<path d="M50.5983 81.5899C51.0546 80.1966 52.1189 78.9458 53.4334 78.494C52.3085 78.2029 51.4519 77.263 51.3639 75.9333C50.8181 77.3327 49.7705 78.4773 48.5379 79.0216C49.6553 79.3142 50.5104 80.2542 50.5968 81.5899H50.5983Z" fill="#2C0700"/>
<path d="M47.4418 104.886C47.9042 103.473 48.9609 102.326 50.2996 101.783C49.1686 101.463 48.3075 100.49 48.2211 99.1312C47.6692 100.547 46.614 101.695 45.3738 102.229C46.4988 102.548 47.3554 103.525 47.4418 104.888V104.886Z" fill="#2C0700"/>
<path d="M74.8468 102.473C75.3092 101.031 76.4933 99.8483 77.788 99.301C76.6024 98.978 75.6912 97.985 75.5836 96.6008C75.0272 98.0472 73.9402 99.2191 72.653 99.7649C73.831 100.088 74.7391 101.082 74.8468 102.473Z" fill="#2C0700"/>
<path d="M68.8506 95.1984C69.4055 93.7627 70.4835 92.5953 71.763 92.0464C70.5941 91.7341 69.6966 90.7578 69.5935 89.3902C69.1341 90.8139 68.0577 91.9782 66.6917 92.5346C67.853 92.8469 68.7475 93.8248 68.8506 95.1984Z" fill="#2C0700"/>
<path d="M61.0018 103.692C61.4642 102.265 62.5376 101.104 63.9005 100.555C62.7422 100.233 61.9508 99.2418 61.7598 97.8789C61.2049 99.3101 60.1346 100.47 58.8716 101.008C60.0224 101.33 60.9047 102.315 61.0018 103.692Z" fill="#2C0700"/>
<path d="M62.0251 95.8397C62.5785 94.41 63.6489 93.2502 64.9163 92.7059C63.7611 92.3936 62.9697 91.4142 62.7786 90.0619C62.2253 91.487 61.1579 92.6453 59.898 93.1896C61.0472 93.5019 61.9281 94.4737 62.0251 95.8412V95.8397Z" fill="#2C0700"/>
<path d="M71.8707 71.5882C72.4195 70.1706 73.4899 69.0063 74.7588 68.4453C73.596 68.1603 72.7045 67.2218 72.5999 65.8831C72.0511 67.2976 70.9853 68.459 69.7208 69.0184C70.8761 69.3034 71.7661 70.2434 71.8692 71.5882H71.8707Z" fill="#2C0700"/>
<path d="M75.8413 94.5404C76.3978 93.0971 77.4833 91.9236 78.775 91.3718C77.5924 91.0579 76.6828 90.0786 76.5736 88.7034C76.0187 90.1437 74.9347 91.3142 73.6506 91.8645C74.8256 92.1783 75.7337 93.1593 75.8413 94.5404Z" fill="#2C0700"/>
<path d="M45.3026 120.681C45.768 119.256 46.8459 117.996 48.1756 117.571C47.04 117.233 46.1773 116.234 46.0909 114.856C45.5345 116.284 44.4748 117.434 43.2285 117.958C44.358 118.296 45.2177 119.297 45.3026 120.679V120.681Z" fill="#2C0700"/>
<path d="M78.8159 70.8135C79.2723 69.399 80.4442 68.2179 81.7253 67.6539C80.5488 67.3689 79.6437 66.4259 79.5346 65.0796C78.9857 66.5017 77.9108 67.6691 76.6358 68.2331C77.8047 68.5181 78.7068 69.4641 78.8159 70.8135Z" fill="#2C0700"/>
<path d="M55.1799 96.4826C55.7318 95.0604 56.7946 93.9067 58.0499 93.3655C56.9068 93.0546 56.0365 92.0874 55.9441 90.732C55.4847 92.1404 54.4249 93.2942 53.0832 93.843C54.2187 94.1538 55.0875 95.1226 55.1784 96.4826H55.1799Z" fill="#2C0700"/>
<path d="M72.8577 63.8803C73.405 62.4689 74.4723 61.306 75.7383 60.7405C74.5784 60.4646 73.687 59.5382 73.5824 58.2086C73.129 59.605 72.0511 60.8709 70.7109 61.3409C71.8631 61.6168 72.7515 62.5462 72.8561 63.8803H72.8577Z" fill="#2C0700"/>
<path d="M54.1399 104.297C54.6948 102.868 55.7591 101.713 57.0175 101.176C55.8728 100.856 54.9995 99.8771 54.9086 98.5126C54.3552 99.9362 53.2924 101.09 52.0401 101.625C53.1772 101.945 54.0474 102.926 54.1384 104.297H54.1399Z" fill="#2C0700"/>
<path d="M79.7862 63.0677C80.3351 61.6487 81.4085 60.4797 82.688 59.9112C81.5146 59.6353 80.611 58.7044 80.5003 57.3687C79.953 58.7847 78.8675 60.0568 77.6091 60.5192C78.775 60.7951 79.6756 61.729 79.7862 63.0692V63.0677Z" fill="#2C0700"/>
<path d="M67.8409 103.09C68.3973 101.648 69.4783 100.479 70.7609 99.9362C69.5889 99.6133 68.6914 98.6263 68.5883 97.2482C68.0319 98.687 66.954 99.8528 65.6789 100.396C66.8433 100.719 67.7378 101.707 67.8409 103.091V103.09Z" fill="#2C0700"/>
<path d="M154.971 112.342C155.547 110.791 156.737 109.539 158.185 108.963C156.824 108.607 155.749 107.535 155.57 106.048C154.995 107.594 153.808 108.843 152.368 109.419C153.72 109.776 154.792 110.851 154.971 112.344V112.342Z" fill="#2C0700"/>
<path d="M44.2307 128.594C44.6976 127.161 45.7635 126.01 47.1113 125.482C45.9727 125.135 45.1085 124.124 45.0251 122.737C44.4672 124.171 43.4044 125.322 42.1551 125.842C43.2861 126.189 44.1473 127.202 44.2322 128.595L44.2307 128.594Z" fill="#2C0700"/>
<path d="M156.595 95.2727C157.166 93.7354 158.349 92.4861 159.791 91.8994C158.437 91.5643 157.365 90.5212 157.186 89.0567C156.616 90.5895 155.437 91.8372 154.002 92.4224C155.347 92.7575 156.414 93.8036 156.595 95.2727Z" fill="#2C0700"/>
<path d="M36.7669 54.2925C34.8172 56.5303 34.1623 58.7044 33.6847 62.6584C33.0722 66.9414 22.9628 137.097 22.6232 139.467C22.2533 142.056 21.9986 145.075 23.3176 147.043C24.8489 149.44 26.3938 149.896 29.197 149.743L75.9748 147.204C77.6319 147.114 78.4415 146.844 80.9809 144.338C82.309 143.024 82.35 142.684 83.528 142.616C84.706 142.548 84.8515 142.992 85.7991 144.067C87.7169 146.112 88.1581 146.543 90.5414 146.412L125.774 144.499C128.505 144.35 129.326 143.488 131.312 141.506C132.607 140.148 133.183 139.646 134.029 139.597C134.877 139.549 135.159 139.884 136.49 141.332C138.49 143.573 139.095 143.892 141.77 143.747L155.797 142.986L156.481 135.69C156.463 135.69 156.446 135.695 156.43 135.696C154.466 135.813 152.971 134.484 152.718 132.611C151.995 134.543 150.342 136.059 148.396 136.174C146.132 136.309 144.502 134.408 144.747 131.932C144.954 129.812 146.414 127.964 148.177 127.382C146.517 126.908 145.392 125.349 145.6 123.24C145.806 121.134 147.262 119.291 149.02 118.699C147.365 118.239 146.243 116.7 146.448 114.603C146.652 112.506 148.103 110.67 149.857 110.073C148.205 109.626 147.086 108.105 147.291 106.022C147.495 103.939 148.94 102.106 150.69 101.501C149.042 101.067 147.924 99.5633 148.127 97.4953C148.331 95.4289 149.771 93.5959 151.516 92.9849C149.872 92.5649 148.757 91.0792 148.958 89.0233C149.16 86.9705 150.597 85.1406 152.336 84.522C150.696 84.1157 149.584 82.6466 149.785 80.6044C149.985 78.5623 151.417 76.7384 153.153 76.1138C151.517 75.7211 150.408 74.2687 150.606 72.2386C150.805 70.2116 152.233 68.3892 153.964 67.757C152.333 67.3765 151.225 65.9423 151.422 63.9243C151.619 61.9094 153.044 60.0916 154.769 59.4533C153.141 59.0864 152.036 57.6689 152.233 55.6631C152.43 53.6618 153.849 51.8456 155.571 51.2012C153.948 50.8464 152.844 49.4456 153.04 47.4534C153.267 45.1323 155.227 43.0355 157.427 42.7596C159.318 42.5231 160.77 43.6556 161.023 45.3779C161.721 43.5358 163.326 42.0197 165.232 41.7802C165.249 41.7787 165.265 41.7787 165.282 41.7756L165.926 34.9032L43.0254 50.8934C40.5587 51.2149 38.8182 51.938 36.7639 54.291L36.7669 54.2925ZM86.4525 119.098C86.6936 117.092 88.0657 115.332 89.6848 114.765C88.1869 114.332 87.2015 112.867 87.4425 110.87C87.6821 108.877 89.0511 107.119 90.6658 106.546C89.1709 106.125 88.1885 104.677 88.4265 102.692C88.6645 100.711 90.029 98.9568 91.6406 98.3777C90.1488 97.9683 89.1679 96.5371 89.4044 94.5647C89.6409 92.5922 91.0023 90.8442 92.6094 90.259C91.1206 89.8617 90.1412 88.4472 90.3762 86.4869C90.6112 84.5296 91.9681 82.7816 93.5721 82.1888C92.0863 81.8037 91.1085 80.4043 91.3435 78.4561C91.5785 76.5079 92.9308 74.7659 94.5303 74.1671C93.0476 73.7941 92.0712 72.4114 92.3047 70.4739C92.5366 68.5393 93.886 66.7988 95.4809 66.1939C94.0012 65.8331 93.0263 64.4656 93.2583 62.5401C93.4902 60.6177 94.835 58.8803 96.4269 58.2693C94.9503 57.9206 93.9769 56.5682 94.2074 54.6534C94.4757 52.4232 96.3223 50.4174 98.3418 50.1642C100.078 49.9474 101.375 51.0435 101.562 52.7006C102.247 50.9344 103.754 49.485 105.504 49.2667C107.258 49.0468 108.575 50.1475 108.77 51.8137C109.456 50.0384 110.975 48.5814 112.743 48.36C114.811 48.1008 116.285 49.72 116.032 51.9835C115.813 53.9272 114.444 55.6904 112.813 56.312C114.334 56.6637 115.352 58.0388 115.134 59.99C114.914 61.9443 113.541 63.7121 111.906 64.3276C113.43 64.6915 114.45 66.0817 114.23 68.0466C114.011 70.0115 112.633 71.7838 110.994 72.3932C112.52 72.7692 113.544 74.1762 113.322 76.1517C113.101 78.1302 111.718 79.904 110.076 80.5074C111.608 80.8955 112.631 82.3192 112.408 84.3068C112.185 86.2974 110.8 88.0758 109.153 88.6716C110.687 89.0719 111.714 90.5122 111.489 92.5119C111.265 94.5147 109.875 96.2961 108.224 96.8858C109.761 97.2997 110.789 98.7552 110.563 100.769C110.337 102.782 108.942 104.568 107.288 105.152C108.83 105.578 109.86 107.05 109.632 109.075C109.405 111.104 108.007 112.891 106.348 113.467C107.604 113.818 108.585 114.861 108.722 116.309C109.431 114.459 110.995 112.993 112.817 112.85C114.64 112.708 116.021 113.951 116.229 115.74C116.799 114.23 117.943 113.014 119.322 112.456C117.748 112.015 116.699 110.523 116.922 108.484C117.144 106.448 118.551 104.651 120.231 104.063C118.662 103.636 117.613 102.16 117.836 100.135C118.057 98.1124 119.46 96.3188 121.135 95.723C119.569 95.3091 118.523 93.8506 118.742 91.8372C118.962 89.8269 120.36 88.0364 122.032 87.4345C120.469 87.0327 119.426 85.5909 119.644 83.5896C119.863 81.5914 121.258 79.8055 122.925 79.1975C121.367 78.8079 120.324 77.3827 120.542 75.3951C120.759 73.409 122.149 71.6261 123.812 71.0121C122.257 70.6361 121.217 69.2261 121.433 67.2506C121.65 65.2752 123.036 63.4983 124.695 62.8767C123.144 62.5128 122.105 61.1195 122.319 59.1547C122.534 57.1928 123.915 55.4175 125.571 54.7898C124.023 54.4381 122.986 53.0615 123.2 51.1087C123.448 48.8346 125.351 46.7833 127.457 46.5195C129.269 46.2921 130.642 47.4064 130.861 49.0969C131.552 47.2927 133.107 45.8115 134.933 45.5826C136.758 45.3536 138.156 46.4725 138.383 48.1705C139.076 46.3573 140.644 44.867 142.491 44.635C144.651 44.3636 146.216 46.0116 145.982 48.3206C145.782 50.3037 144.374 52.1063 142.679 52.7461C144.273 53.1009 145.359 54.5002 145.159 56.4924C144.957 58.4876 143.546 60.2948 141.845 60.927C143.444 61.2939 144.531 62.7099 144.33 64.7142C144.128 66.7185 142.71 68.5317 141.006 69.1579C142.609 69.5369 143.699 70.9711 143.496 72.9876C143.293 75.0085 141.872 76.8218 140.162 77.4403C141.769 77.833 142.86 79.2824 142.656 81.3125C142.451 83.3456 141.026 85.1633 139.311 85.7758C140.923 86.1822 142.016 87.6482 141.81 89.6904C141.604 91.7356 140.174 93.558 138.456 94.1629C140.071 94.5814 141.167 96.0656 140.959 98.1215C140.752 100.18 139.319 102.004 137.595 102.605C139.214 103.037 140.312 104.538 140.103 106.607C139.893 108.68 138.456 110.506 136.728 111.099C138.35 111.545 139.451 113.064 139.242 115.146C139.031 117.23 137.589 119.062 135.858 119.647C137.484 120.106 138.587 121.644 138.376 123.739C138.129 126.187 136.131 128.292 133.916 128.436C132.022 128.56 130.594 127.268 130.366 125.44C129.792 126.976 128.624 128.207 127.219 128.76C128.829 129.232 129.916 130.778 129.699 132.877C129.445 135.328 127.455 137.42 125.26 137.551C123.383 137.661 121.972 136.359 121.755 134.526C121.038 136.415 119.438 137.896 117.578 138.007C115.722 138.118 114.331 136.82 114.123 134.998C113.407 136.877 111.821 138.35 109.981 138.459C108.145 138.568 106.774 137.278 106.574 135.463C105.86 137.332 104.286 138.797 102.467 138.905C100.652 139.012 99.3015 137.728 99.1089 135.924C98.3979 137.783 96.8363 139.238 95.0352 139.346C92.9414 139.47 91.4784 137.636 91.7589 135.251C91.9984 133.209 93.3887 131.433 95.0321 130.875C93.7935 130.507 92.8353 129.449 92.711 127.999C92.003 129.84 90.4596 131.288 88.6827 131.404C86.6163 131.539 85.179 129.737 85.4625 127.379C85.7051 125.361 87.0817 123.598 88.7039 123.037C87.2015 122.59 86.216 121.11 86.4586 119.101L86.4525 119.098ZM46.899 59.4321C47.5722 57.7356 48.9912 56.3484 50.6013 56.1467C52.2114 55.9451 53.397 57.0109 53.5335 58.6149C54.2081 56.9093 55.6378 55.516 57.2646 55.3114C58.8959 55.1067 60.0936 56.1771 60.2361 57.7902C60.9123 56.077 62.3526 54.6746 63.9961 54.4684C65.6441 54.2622 66.8569 55.3371 67.0085 56.9563C67.6862 55.234 69.1371 53.8241 70.7988 53.6164C72.4635 53.4071 73.6945 54.4866 73.8522 56.1134C74.5314 54.382 75.993 52.9644 77.6713 52.7552C79.3496 52.546 80.6004 53.6285 80.7656 55.2628C81.4464 53.5224 82.92 52.0972 84.615 51.885C86.5996 51.6363 87.9898 53.2282 87.7169 55.4478C87.4835 57.3535 86.1478 59.0789 84.5801 59.6853C86.031 60.034 86.9892 61.3848 86.7542 63.2997C86.5192 65.2145 85.1805 66.9459 83.6083 67.5448C85.0623 67.9056 86.0219 69.2716 85.7854 71.197C85.5095 73.4469 83.6644 75.4452 81.6662 75.6604C79.9591 75.8439 78.6992 74.7159 78.5355 73.0497C77.8502 74.8069 76.3689 76.2305 74.6739 76.4139C72.985 76.5959 71.7433 75.4725 71.5856 73.8138C70.9019 75.5634 69.4313 76.9779 67.7545 77.1583C66.0822 77.3388 64.8572 76.2199 64.7086 74.5688C64.0264 76.3093 62.5664 77.7163 60.9078 77.8952C59.2537 78.0741 58.0454 76.9582 57.9029 75.3178C57.3555 76.7232 56.3003 77.8739 55.0571 78.4228C56.4474 78.7912 57.3495 80.1481 57.0978 82.0478C56.8461 83.9474 55.5332 85.6485 54.0126 86.2216C55.1451 86.5233 56.0123 87.4799 56.1048 88.8308C56.79 87.0873 58.2455 85.6849 59.9026 85.5166C61.5642 85.3468 62.7862 86.4824 62.9348 88.1501C63.6216 86.3975 65.0876 84.9875 66.7629 84.8162C68.4382 84.6448 69.6814 85.785 69.8376 87.4602C70.5259 85.7001 72.0041 84.281 73.6961 84.1081C75.3941 83.9353 76.6494 85.08 76.8132 86.7644C77.503 84.9951 78.9918 83.5684 80.7035 83.3941C82.7047 83.1894 84.1041 84.8616 83.8251 87.1343C83.5856 89.0855 82.2362 90.8245 80.6519 91.4066C82.115 91.8023 83.0792 93.2153 82.8381 95.1757C82.5971 97.136 81.2432 98.881 79.6559 99.4571C81.1219 99.865 82.0877 101.295 81.8451 103.267C81.5616 105.572 79.6968 107.577 77.6819 107.747C75.9596 107.891 74.6906 106.7 74.5284 104.983C73.8325 106.772 72.3361 108.196 70.6275 108.338C68.9188 108.481 67.6726 107.294 67.518 105.587C66.8236 107.367 65.3393 108.781 63.6474 108.924C61.9554 109.066 60.7274 107.884 60.5803 106.184C59.8874 107.953 58.4138 109.362 56.74 109.503C55.0708 109.642 53.8549 108.466 53.7154 106.775C53.1605 108.205 52.0947 109.36 50.8394 109.891C52.2417 110.306 53.1484 111.724 52.8891 113.668C52.6299 115.614 51.3048 117.326 49.769 117.875C50.9106 118.214 51.7839 119.221 51.8733 120.611C52.5677 118.839 54.0383 117.435 55.7106 117.305C57.3874 117.174 58.6169 118.372 58.764 120.09C59.4599 118.308 60.9426 116.897 62.6331 116.765C64.3281 116.633 65.5743 117.837 65.729 119.562C66.4264 117.77 67.9197 116.353 69.6284 116.219C71.3416 116.086 72.606 117.296 72.7667 119.03C73.4656 117.229 74.9711 115.802 76.6979 115.667C78.7174 115.51 80.1274 117.264 79.8408 119.592C79.5952 121.592 78.2307 123.343 76.6312 123.9C78.1064 124.345 79.0767 125.822 78.8296 127.831C78.5825 129.84 77.2134 131.598 75.6109 132.147C77.0906 132.605 78.0609 134.1 77.8123 136.121C77.5227 138.483 75.6367 140.495 73.6021 140.616C71.8631 140.719 70.5865 139.459 70.4258 137.692C69.7209 139.511 68.2078 140.936 66.4825 141.038C64.7632 141.139 63.5033 139.887 63.3517 138.128C62.6482 139.939 61.1473 141.355 59.4402 141.456C57.7391 141.558 56.4974 140.31 56.3519 138.56C55.6499 140.361 54.1611 141.77 52.4722 141.87C50.7833 141.97 49.5643 140.728 49.4263 138.988C48.7259 140.78 47.2477 142.181 45.5785 142.279C43.9123 142.378 42.7055 141.142 42.5751 139.411C41.8762 141.192 40.4101 142.586 38.7576 142.684C37.1096 142.783 35.9194 141.553 35.7951 139.829C35.0992 141.602 33.6422 142.987 32.0079 143.084C30.1052 143.198 28.8286 141.442 29.1485 139.164C29.4229 137.214 30.7313 135.522 32.2383 134.994C30.8693 134.549 30.0006 133.108 30.272 131.168C30.5433 129.227 31.8502 127.54 33.3527 127.006C31.9867 126.573 31.1179 125.147 31.3893 123.219C31.6607 121.292 32.963 119.606 34.4609 119.066C33.0964 118.645 32.2292 117.235 32.4991 115.317C32.769 113.399 34.0667 111.718 35.5631 111.172C34.2017 110.761 33.336 109.368 33.6028 107.461C33.8697 105.553 35.1659 103.877 36.6578 103.325C35.2993 102.926 34.4336 101.546 34.7005 99.6512C34.9658 97.7576 36.259 96.0808 37.7478 95.5229C36.3909 95.1347 35.5267 93.7702 35.7921 91.8857C36.0559 90.0043 37.3446 88.329 38.8303 87.7665C37.4765 87.3905 36.6138 86.0396 36.8761 84.1658C37.1384 82.2919 38.424 80.6226 39.9068 80.0541C38.5559 79.6887 37.6933 78.353 37.9555 76.4897C38.2178 74.6265 39.4989 72.9603 40.9771 72.3857C39.6278 72.0309 38.7667 70.7104 39.0274 68.8577C39.2867 67.0081 40.5647 65.3419 42.0414 64.7627C40.6951 64.4186 39.8355 63.1117 40.0932 61.2711C40.3949 59.1259 42.14 57.2034 44.0002 56.97C45.5982 56.7698 46.7641 57.8311 46.8929 59.4291L46.899 59.4321Z" fill="#2C0700"/>
<path d="M153.934 123.254C153.355 124.815 152.162 126.066 150.714 126.632C152.072 127.011 153.15 128.114 153.328 129.631C153.81 127.954 155.007 126.7 156.561 126.245C155.194 125.866 154.113 124.765 153.934 123.254Z" fill="#2C0700"/>
<path d="M161.133 47.5641C160.572 49.062 159.398 50.4144 157.996 50.9132C159.324 51.1952 160.381 52.173 160.559 53.5876C161.12 52.0851 162.286 50.8419 163.708 50.2309C162.371 49.9489 161.311 48.9741 161.133 47.5641Z" fill="#2C0700"/>
<path d="M155.781 103.837C156.354 102.292 157.541 101.043 158.986 100.461C157.629 100.115 156.555 99.0569 156.375 97.5817C155.802 99.1221 154.619 100.37 153.182 100.95C154.53 101.296 155.6 102.356 155.779 103.839L155.781 103.837Z" fill="#2C0700"/>
<path d="M157.394 86.875C157.964 85.3453 159.143 84.0975 160.581 83.5047C159.23 83.1803 158.161 82.1509 157.982 80.6984C157.414 82.2252 156.237 83.4699 154.809 84.0611C156.151 84.3856 157.216 85.4165 157.395 86.8765L157.394 86.875Z" fill="#2C0700"/>
<path d="M49.8933 136.232C50.4694 134.67 51.5459 133.51 52.8027 133.101C51.649 132.742 50.7711 131.714 50.6817 130.308C50.1207 131.756 49.0473 132.914 47.7829 133.431C48.9291 133.791 49.8039 134.82 49.8933 136.23V136.232Z" fill="#2C0700"/>
<path d="M158.986 70.1267C159.551 68.6106 160.723 67.3643 162.153 66.7625C160.808 66.4592 159.745 65.4571 159.565 64.0259C159.001 65.5374 157.83 66.7822 156.41 67.381C157.746 67.6842 158.805 68.6879 158.986 70.1252V70.1267Z" fill="#2C0700"/>
<path d="M159.77 61.8882C160.334 60.3782 161.502 59.135 162.928 58.527C161.587 58.2344 160.525 57.2459 160.346 55.8253C159.783 57.3308 158.617 58.5725 157.2 59.1774C158.531 59.47 159.591 60.4616 159.77 61.8867V61.8882Z" fill="#2C0700"/>
<path d="M158.197 78.4182C158.764 76.8945 159.941 75.6483 161.374 75.051C160.026 74.7371 158.96 73.7214 158.781 72.2795C158.214 73.7987 157.031 75.1571 155.617 75.6377C156.956 75.9515 158.018 76.9688 158.197 78.4167V78.4182Z" fill="#2C0700"/>
<path d="M154.157 120.899C154.627 119.348 155.928 118.088 157.382 117.517C156.017 117.148 154.939 116.063 154.76 114.564C154.184 116.118 152.994 117.368 151.549 117.938C152.905 118.307 153.98 119.395 154.158 120.899H154.157Z" fill="#2C0700"/>
<path d="M44.969 74.6932C45.5133 73.3029 46.5533 72.1643 47.7768 71.617C46.667 71.335 45.8241 70.4117 45.7407 69.0973C45.2874 70.4739 44.1594 71.6216 42.942 72.1674C44.0457 72.4493 44.8856 73.3757 44.969 74.6947V74.6932Z" fill="#2C0700"/>
<path d="M36.3606 137.096C36.9352 135.549 37.9965 134.403 39.2275 133.998C38.1011 133.642 37.2475 132.623 37.1687 131.233C36.6108 132.667 35.551 133.812 34.3108 134.323C35.4312 134.679 36.2818 135.699 36.3591 137.096H36.3606Z" fill="#2C0700"/>
<path d="M46.0257 67.0293C46.5685 65.6451 47.6055 64.5065 48.8275 63.9546C47.7192 63.6817 46.8778 62.7691 46.7944 61.4637C46.3426 62.8327 45.204 64.0835 44.0033 64.5308C45.1039 64.8037 45.9439 65.7179 46.0273 67.0278L46.0257 67.0293Z" fill="#2C0700"/>
<path d="M43.1376 136.664C43.6212 135.116 44.6901 133.962 46.0257 133.55C44.8856 133.192 44.0199 132.168 43.9366 130.771C43.3771 132.211 42.3098 133.363 41.059 133.877C42.1915 134.235 43.0542 135.26 43.1391 136.664H43.1376Z" fill="#2C0700"/>
<path d="M42.8647 89.9436C43.4135 88.5427 44.4581 87.4011 45.6876 86.8614C44.5733 86.5612 43.7273 85.6152 43.6455 84.2825C43.1876 85.6712 42.0414 86.9235 40.8331 87.3571C41.9398 87.6573 42.7828 88.6049 42.8647 89.9436Z" fill="#2C0700"/>
<path d="M43.9199 82.2964C44.4657 80.9001 45.5087 79.7615 46.7353 79.2172C45.6225 78.9261 44.778 77.9907 44.6961 76.6671C44.2398 78.0498 43.1118 79.1975 41.8898 79.7388C42.9951 80.0298 43.8365 80.9668 43.9184 82.2949L43.9199 82.2964Z" fill="#2C0700"/>
<path d="M38.5544 121.195C39.1093 119.77 40.166 118.625 41.4062 118.102C40.2828 117.766 39.4322 116.771 39.3534 115.4C38.8895 116.815 37.7463 117.966 36.5107 118.486C37.6265 118.822 38.474 119.818 38.5529 121.195H38.5544Z" fill="#2C0700"/>
<path d="M41.7898 97.7409C42.3401 96.334 43.3877 95.1908 44.6203 94.6556C43.5045 94.3464 42.657 93.3882 42.5751 92.0464C42.1157 93.4413 40.9817 94.5905 39.7551 95.1241C40.8649 95.4334 41.7094 96.3931 41.7898 97.7409Z" fill="#2C0700"/>
<path d="M37.4674 129.068C38.0253 127.637 39.0835 126.491 40.3267 125.974C39.2018 125.627 38.3497 124.621 38.2709 123.24C37.7145 124.668 36.6578 125.811 35.4206 126.328C36.538 126.674 37.387 127.682 37.4658 129.07L37.4674 129.068Z" fill="#2C0700"/>
<path d="M39.6339 113.367C40.1872 111.948 41.2409 110.804 42.4781 110.278C41.3577 109.95 40.5087 108.968 40.4283 107.606C39.9659 109.015 38.8258 110.164 37.5932 110.688C38.7075 111.016 39.5535 112 39.6339 113.367Z" fill="#2C0700"/>
<path d="M40.7224 105.478C41.2743 104.065 42.3249 102.921 43.5606 102.391C42.4417 102.072 41.5942 101.102 41.5138 99.7513C41.0529 101.152 39.9159 102.301 38.6863 102.832C39.7976 103.15 40.6436 104.122 40.7239 105.479L40.7224 105.478Z" fill="#2C0700"/>
<path d="M122.163 131.62C122.646 129.979 123.806 128.754 125.296 128.312C123.996 127.939 122.978 126.859 122.827 125.379C122.254 126.908 121.095 128.13 119.705 128.68C120.998 129.053 122.013 130.134 122.163 131.62Z" fill="#2C0700"/>
<path d="M124.852 106.375C125.421 104.864 126.572 103.642 127.96 103.075C126.669 102.733 125.657 101.695 125.506 100.25C124.939 101.757 123.791 102.978 122.41 103.542C123.694 103.883 124.702 104.923 124.852 106.374V106.375Z" fill="#2C0700"/>
<path d="M125.747 97.9896C126.314 96.4856 127.46 95.2651 128.846 94.692C127.557 94.3615 126.547 93.3366 126.396 91.9024C125.83 93.4018 124.686 94.6208 123.309 95.1908C124.59 95.5213 125.595 96.5477 125.747 97.988V97.9896Z" fill="#2C0700"/>
<path d="M123.965 114.7C124.537 113.182 125.689 111.959 127.082 111.396C125.788 111.045 124.773 109.994 124.623 108.537C124.053 110.05 122.903 111.272 121.518 111.832C122.806 112.183 123.815 113.237 123.967 114.698L123.965 114.7Z" fill="#2C0700"/>
<path d="M127.504 81.4853C128.066 79.995 129.207 78.776 130.585 78.1938C129.302 77.8846 128.297 76.887 128.144 75.474C127.581 76.9613 126.432 78.2878 125.075 78.7563C126.35 79.0656 127.352 80.0662 127.504 81.4853Z" fill="#2C0700"/>
<path d="M126.622 89.7677C127.187 88.2698 128.33 87.0509 129.711 86.4733C128.426 86.1534 127.418 85.1421 127.266 83.7185C126.702 85.2119 125.562 86.4293 124.188 87.0054C125.466 87.3253 126.47 88.3381 126.622 89.7677Z" fill="#2C0700"/>
<path d="M128.37 73.3651C128.931 71.8808 130.068 70.6634 131.441 70.0766C130.162 69.7765 129.158 68.7925 129.005 67.3901C128.445 68.8698 127.311 70.0857 125.944 70.6694C127.216 70.9696 128.216 71.9566 128.368 73.3651H128.37Z" fill="#2C0700"/>
<path d="M123.074 123.075C123.544 121.557 124.701 120.334 126.199 119.768C124.901 119.406 123.885 118.34 123.733 116.873C123.162 118.393 122.008 119.615 120.621 120.17C121.911 120.532 122.922 121.6 123.074 123.073V123.075Z" fill="#2C0700"/>
<path d="M108.048 59.7505C108.601 58.3026 109.708 57.1079 111.036 56.5227C109.807 56.2453 108.85 55.2977 108.716 53.9363C108.262 55.369 107.049 56.6819 105.74 57.1565C106.962 57.4354 107.916 58.383 108.049 59.7505H108.048Z" fill="#2C0700"/>
<path d="M107.094 132.581C107.578 130.957 108.721 129.747 110.181 129.309C108.91 128.939 107.924 127.87 107.786 126.407C107.214 127.919 106.075 129.127 104.711 129.671C105.972 130.041 106.956 131.112 107.094 132.582V132.581Z" fill="#2C0700"/>
<path d="M114.535 132.106C115.122 130.467 116.273 129.25 117.646 128.816C116.361 128.445 115.358 127.37 115.214 125.899C114.641 127.419 113.494 128.634 112.116 129.182C113.392 129.553 114.391 130.63 114.535 132.106Z" fill="#2C0700"/>
<path d="M115.465 123.609C116.036 122.092 117.184 120.875 118.567 120.322C117.284 119.961 116.283 118.901 116.139 117.441C115.671 118.947 114.411 120.282 113.049 120.72C114.323 121.081 115.321 122.144 115.465 123.609Z" fill="#2C0700"/>
<path d="M108.042 124.127C108.612 122.619 109.752 121.409 111.119 120.858C109.852 120.499 108.867 119.444 108.729 117.991C108.16 119.495 107.011 120.817 105.661 121.253C106.92 121.612 107.902 122.669 108.04 124.127H108.042Z" fill="#2C0700"/>
<path d="M132.416 105.641C132.986 104.122 134.144 102.894 135.547 102.323C134.238 101.98 133.212 100.938 133.054 99.4844C132.486 100.999 131.329 102.226 129.936 102.796C131.235 103.138 132.258 104.183 132.416 105.641Z" fill="#2C0700"/>
<path d="M135 80.7363C135.564 79.2369 136.713 78.0119 138.105 77.4267C136.805 77.1159 135.786 76.1138 135.627 74.6932C135.065 76.188 133.919 77.4115 132.534 77.9952C133.825 78.306 134.842 79.3097 135 80.7363Z" fill="#2C0700"/>
<path d="M135.847 72.5737C136.41 71.0818 137.566 69.7461 138.943 69.2671C137.647 68.9669 136.629 67.9784 136.47 66.5684C135.909 68.0572 134.766 69.2792 133.386 69.8674C134.674 70.1676 135.688 71.1591 135.847 72.5737Z" fill="#2C0700"/>
<path d="M137.536 56.2892C138.094 54.8095 139.234 53.5891 140.614 52.9887C139.323 52.7082 138.311 51.7455 138.152 50.3567C137.697 51.8198 136.549 53.1494 135.086 53.6497C136.367 53.9302 137.378 54.8959 137.537 56.2892H137.536Z" fill="#2C0700"/>
<path d="M136.701 64.3519C137.26 62.8661 138.403 61.6426 139.787 61.0483C138.494 60.7587 137.478 59.7823 137.321 58.383C136.761 59.8642 135.623 61.0862 134.246 61.679C135.53 61.9701 136.543 62.9479 136.702 64.3519H136.701Z" fill="#2C0700"/>
<path d="M129.229 65.2949C129.789 63.8167 130.923 62.6008 132.293 62.0095C131.015 61.7199 130.015 60.7481 129.863 59.3563C129.305 60.83 128.174 62.0444 126.811 62.6326C128.08 62.9222 129.078 63.897 129.231 65.2949H129.229Z" fill="#2C0700"/>
<path d="M134.137 89.0612C134.715 87.4436 135.867 86.217 137.249 85.7486C135.947 85.4271 134.925 84.4114 134.768 82.9802C134.202 84.4811 133.053 85.7061 131.666 86.2853C132.959 86.6067 133.978 87.624 134.135 89.0612H134.137Z" fill="#2C0700"/>
<path d="M130.662 122.544C131.237 121.012 132.402 119.78 133.811 119.219C132.496 118.856 131.465 117.785 131.308 116.31C130.735 117.838 129.572 119.068 128.171 119.627C129.476 119.991 130.504 121.063 130.662 122.544Z" fill="#2C0700"/>
<path d="M130.096 57.1625C130.653 55.6919 131.784 54.476 133.151 53.8802C131.876 53.5997 130.877 52.6415 130.726 51.2603C130.169 52.7279 129.031 54.05 127.683 54.5336C128.949 54.8141 129.945 55.7753 130.098 57.1625H130.096Z" fill="#2C0700"/>
<path d="M131.537 114.124C132.108 112.597 133.283 111.252 134.677 110.802C133.365 110.449 132.337 109.392 132.18 107.929C131.608 109.451 130.45 110.679 129.052 111.243C130.354 111.597 131.379 112.655 131.537 114.125V114.124Z" fill="#2C0700"/>
<path d="M107.129 67.76C107.684 66.3046 108.794 65.1099 110.125 64.5292C108.892 64.2412 107.934 63.2815 107.801 61.9109C107.344 63.3512 106.141 64.5565 104.816 65.1342C106.041 65.4222 106.996 66.3834 107.129 67.7616V67.76Z" fill="#2C0700"/>
<path d="M133.279 97.3255C133.847 95.8124 135.003 94.5859 136.4 94.0098C135.095 93.6778 134.072 92.6498 133.912 91.208C133.345 92.7166 132.193 93.9416 130.803 94.5162C132.099 94.8482 133.121 95.8791 133.279 97.327V97.3255Z" fill="#2C0700"/>
<path d="M96.1222 100.599C96.6847 99.1266 97.7975 97.9319 99.1286 97.3755C97.9006 97.0496 96.9485 96.0444 96.8226 94.6375C96.3602 96.0975 95.2504 97.2891 93.8268 97.8531C95.0473 98.1791 95.9964 99.1873 96.1222 100.599Z" fill="#2C0700"/>
<path d="M94.1998 116.964C94.7653 115.478 95.8978 114.171 97.2229 113.734C95.9888 113.387 95.0336 112.356 94.9093 110.929C94.3453 112.411 93.228 113.605 91.8968 114.151C93.1218 114.498 94.0755 115.531 94.1998 116.964Z" fill="#2C0700"/>
<path d="M93.2355 125.164C93.8041 123.672 94.926 122.475 96.2677 121.932C95.0306 121.575 94.074 120.529 93.9496 119.092C93.3826 120.581 92.2637 121.776 90.9296 122.317C92.1576 122.673 93.1112 123.721 93.2371 125.164H93.2355Z" fill="#2C0700"/>
<path d="M95.1564 108.811C95.7204 107.332 96.8363 106.137 98.172 105.585C96.9409 105.249 95.9873 104.23 95.8614 102.814C95.3975 104.28 94.2832 105.473 92.858 106.032C94.0815 106.369 95.0321 107.389 95.1564 108.811Z" fill="#2C0700"/>
<path d="M50.9713 128.122C51.5307 126.676 52.6056 125.517 53.8716 124.994C52.7208 124.646 51.843 123.63 51.7536 122.235C51.2866 123.671 50.2011 124.935 48.8624 125.357C50.007 125.705 50.8803 126.723 50.9697 128.124L50.9713 128.122Z" fill="#2C0700"/>
<path d="M106.216 75.7074C106.774 74.2459 107.898 72.9406 109.22 72.4736C107.984 72.1764 107.024 71.2046 106.891 69.8219C106.335 71.2789 105.226 72.4736 103.898 73.0467C105.125 73.3438 106.083 74.3187 106.216 75.7059V75.7074Z" fill="#2C0700"/>
<path d="M71.8146 126.664C72.3786 125.194 73.4762 124.018 74.7801 123.484C73.5869 123.131 72.6712 122.102 72.5651 120.686C72.0026 122.15 70.8928 123.436 69.6102 123.857C70.7958 124.21 71.7085 125.241 71.8146 126.664Z" fill="#2C0700"/>
<path d="M57.8771 127.638C58.438 126.184 59.5205 125.02 60.7986 124.494C59.6327 124.144 58.8383 123.116 58.6488 121.721C58.0878 123.17 56.9947 124.442 55.7379 124.859C56.8962 125.21 57.7816 126.231 57.8771 127.638Z" fill="#2C0700"/>
<path d="M70.7821 134.899C71.2658 133.318 72.462 132.134 73.7552 131.717C72.559 131.353 71.6418 130.31 71.5356 128.885C70.9701 130.355 69.8725 131.532 68.5732 132.059C69.7603 132.422 70.676 133.468 70.7821 134.899Z" fill="#2C0700"/>
<path d="M56.8128 135.79C57.2964 134.226 58.3804 133.061 59.7434 132.643C58.576 132.282 57.7785 131.244 57.5905 129.838C57.0281 131.294 55.9471 132.458 54.6705 132.978C55.8303 133.339 56.7188 134.373 56.8128 135.79Z" fill="#2C0700"/>
<path d="M63.7125 135.349C64.2917 133.771 65.3833 132.599 66.6644 132.185C65.4834 131.823 64.5798 130.786 64.4782 129.367C63.9142 130.83 62.8256 132 61.5369 132.525C62.7104 132.886 63.6125 133.926 63.7125 135.351V135.349Z" fill="#2C0700"/>
<path d="M64.7617 127.158C65.3242 125.696 66.4142 124.526 67.7044 123.995C66.5249 123.643 65.6228 122.619 65.5213 121.21C65.0543 122.661 63.9536 123.939 62.5891 124.365C63.7611 124.717 64.6601 125.743 64.7602 127.158H64.7617Z" fill="#2C0700"/>
<path d="M97.0682 92.5452C97.6277 91.0792 98.7375 89.886 100.067 89.3235C98.8421 89.0067 97.8915 88.0136 97.7656 86.6188C97.3048 88.0712 96.198 89.2629 94.7789 89.8329C95.9964 90.1498 96.9439 91.1444 97.0698 92.5452H97.0682Z" fill="#2C0700"/>
<path d="M98.0219 84.4326C98.5798 82.9726 99.6866 81.7809 101.012 81.2139C99.7881 80.9077 98.8406 79.9268 98.7132 78.5425C98.2538 79.9889 97.1365 81.2867 95.7341 81.7536C96.9485 82.0599 97.8945 83.0423 98.0204 84.4326H98.0219Z" fill="#2C0700"/>
<path d="M102.497 108.099C103.063 106.612 104.186 105.411 105.536 104.854C104.289 104.516 103.322 103.495 103.19 102.071C102.626 103.554 101.504 104.753 100.164 105.308C101.401 105.646 102.367 106.671 102.499 108.099H102.497Z" fill="#2C0700"/>
<path d="M104.362 91.86C104.937 90.2756 106.054 89.0764 107.384 88.6216C106.144 88.3047 105.179 87.3071 105.047 85.9047C104.488 87.3753 103.372 88.5715 102.038 89.1355C103.271 89.4524 104.232 90.453 104.364 91.86H104.362Z" fill="#2C0700"/>
<path d="M105.299 83.7049C105.859 82.2373 106.973 81.0396 108.312 80.4695C107.074 80.1617 106.112 79.1778 105.978 77.786C105.42 79.2491 104.308 80.4453 102.976 81.0138C104.206 81.3216 105.166 82.307 105.298 83.7049H105.299Z" fill="#2C0700"/>
<path d="M101.544 116.404C102.111 114.911 103.251 113.596 104.59 113.157C103.34 112.808 102.372 111.772 102.24 110.338C101.674 111.827 100.549 113.028 99.2044 113.578C100.445 113.925 101.412 114.964 101.542 116.404H101.544Z" fill="#2C0700"/>
<path d="M103.433 99.9544C103.995 98.4732 105.117 97.2739 106.462 96.713C105.219 96.3855 104.253 95.3758 104.121 93.9628C103.559 95.4395 102.441 96.6372 101.103 97.1966C102.338 97.5241 103.301 98.5369 103.433 99.9544Z" fill="#2C0700"/>
<path d="M98.9573 76.4761C99.5137 75.0222 100.617 73.832 101.939 73.2605C100.719 72.9633 99.773 71.996 99.6456 70.6209C99.1878 72.0597 98.0871 73.2483 96.6741 73.829C97.8869 74.1261 98.83 75.0949 98.9573 76.4761Z" fill="#2C0700"/>
<path d="M99.8867 68.5666C100.442 67.1187 101.542 65.9301 102.86 65.354C101.642 65.0675 100.698 64.1123 100.57 62.7463C100.114 64.179 99.0164 65.3661 97.608 65.9513C98.8178 66.2394 99.7593 67.1961 99.8867 68.5666Z" fill="#2C0700"/>
<path d="M100.822 60.598C101.374 59.1577 102.472 57.9691 103.788 57.3884C102.573 57.111 101.63 56.168 101.501 54.8126C101.046 56.2377 99.9397 57.5309 98.5464 58.0146C99.7533 58.292 100.695 59.2365 100.822 60.598Z" fill="#2C0700"/>
<path d="M99.632 133.057C100.216 131.436 101.35 130.231 102.696 129.803C101.442 129.435 100.469 128.371 100.337 126.915C99.7669 128.418 98.6359 129.62 97.285 130.161C98.5313 130.53 99.5016 131.595 99.632 133.057Z" fill="#2C0700"/>
<path d="M100.598 124.649C101.166 123.148 102.297 121.945 103.653 121.398C102.4 121.04 101.43 119.99 101.298 118.545C100.73 120.041 99.6032 121.242 98.2554 121.788C99.4986 122.146 100.467 123.198 100.598 124.649Z" fill="#2C0700"/>
</svg>
