<svg width="277" height="48" viewBox="0 0 277 48" fill="none" xmlns="http://www.w3.org/2000/svg">
<path d="M21.4354 26.1107C17.6144 27.5041 14.0359 25.0159 13.3601 20.6442C12.6942 16.3352 15.0794 11.6474 18.7658 10.0817C22.5503 8.47458 26.3352 10.7219 27.138 15.2014C27.9532 19.7498 25.3607 24.6785 21.4354 26.1107ZM28.2983 0L6.50798 9.70374C7.99458 27.1533 14.5244 32.8891 21.9614 30.2896C25.7936 28.9501 29.9079 25.1286 32.2178 21.0796L28.2983 0Z" fill="#FF2D29"/>
<path d="M46.0334 8.75905L36.4773 4.03963C40.0318 20.9999 38.7257 31.2909 35.091 36.5343L48.8855 39.3243C48.8855 39.3243 49.0212 39.8198 49.3323 40.2659C49.6435 40.712 50.0302 41.1473 50.0302 41.1473L48.6247 20.9129L46.0334 8.75905ZM35.4463 3.53033L28.2983 0L32.2178 21.0796C34.5562 16.8103 35.7525 11.2098 35.4463 3.53033Z" fill="#C80011"/>
<path d="M36.4773 4.03963L35.4463 3.53033C35.7525 11.2098 34.5562 16.8103 32.2178 21.0796L35.091 36.5343C38.7257 31.2909 40.0318 20.9999 36.4773 4.03963Z" fill="#E8E4E2"/>
<path d="M272.213 8.62861V7.72533H256.332L256.218 7.7556C255.934 7.83128 255.658 7.93991 255.397 8.07702C255.136 8.21548 254.89 8.3793 254.669 8.59834L253.023 10.242L253.024 10.2406L252.977 10.2593L252.929 10.2411L251.285 8.59834C251.065 8.3793 250.819 8.21548 250.557 8.07658C250.297 7.93946 250.02 7.83128 249.736 7.7556L249.622 7.72533H236.589L236.474 7.7556C236.191 7.83128 235.915 7.93946 235.653 8.07658C235.392 8.21503 235.146 8.37886 234.925 8.59878L233.28 10.242L233.282 10.2406L233.233 10.2593L233.185 10.2411L233.187 10.2429L231.542 8.59834C231.321 8.3793 231.075 8.21548 230.814 8.07658C230.553 7.93946 230.277 7.83128 229.993 7.7556L229.878 7.72533H197.056C196.617 7.72889 196.213 7.83707 195.823 7.99555C195.435 8.15894 195.073 8.36773 194.76 8.67446L193.115 10.3194L193.068 10.3372L193.02 10.3181L191.373 8.67179L191.377 8.6758C191.064 8.36773 190.701 8.15849 190.313 7.99511C189.924 7.83707 189.518 7.72889 189.08 7.72533H176.332L176.217 7.7556C175.934 7.83128 175.658 7.93991 175.396 8.07702C175.136 8.21548 174.89 8.3793 174.669 8.59878L173.03 10.2362L173.025 10.2411L172.977 10.2593L172.93 10.2411L172.927 10.2384L171.286 8.59834C171.064 8.3793 170.819 8.21548 170.558 8.07658C170.297 7.93946 170.021 7.83128 169.737 7.7556L169.622 7.72533H144.837C143.521 7.72533 142.32 8.26534 141.456 9.12855C140.591 9.99088 140.051 11.1902 140.051 12.5053V19.9884H140.056L140.045 24.236V24.2342L140.035 24.2654L139.994 24.2943L140.275 25.1526V24.2493H134.899C134.399 24.2493 133.915 24.3281 133.462 24.471L133.734 25.3329H134.638V14.7526C134.635 14.315 134.527 13.9108 134.368 13.5217C134.205 13.1343 133.996 12.7724 133.689 12.4603L130.05 8.82583C129.737 8.5182 129.374 8.30897 128.986 8.14558C128.596 7.98754 128.191 7.87936 127.753 7.8758H115.902C115.463 7.87936 115.059 7.98754 114.669 8.14603C114.281 8.30941 113.918 8.51865 113.606 8.82494L111.961 10.4695L111.914 10.4877L111.867 10.469L111.87 10.4726L110.22 8.82405L110.223 8.82672C109.91 8.5182 109.547 8.30897 109.159 8.14558C108.769 7.98754 108.364 7.87936 107.926 7.8758H53.4112C52.0944 7.8758 50.8936 8.41581 50.0302 9.27903C49.1649 10.1418 48.6242 11.3411 48.6247 12.6562V20.9129V37.7705C48.6242 39.0861 49.1649 40.285 50.0302 41.1473C50.8936 42.011 52.0944 42.551 53.4112 42.551H69.2386L69.3255 42.5336C69.6509 42.4686 69.9656 42.3586 70.2639 42.2126C70.5616 42.0648 70.8411 41.8867 71.089 41.6414L72.7262 40.0054L72.7333 39.9987L72.7806 39.9796L72.827 39.9983L72.8363 40.0072L74.4727 41.6414C74.721 41.8872 75.0005 42.0644 75.2982 42.2126C75.596 42.3582 75.9107 42.4682 76.2347 42.5332L76.3221 42.551H86.9908L87.0782 42.5336C87.4036 42.4686 87.7183 42.3586 88.0165 42.2126C88.3143 42.0648 88.5937 41.8867 88.8416 41.6414L90.4864 39.9983L90.5332 39.9796L90.58 39.9983L90.5675 39.9854L92.2307 41.6468L92.2253 41.641C92.4731 41.8867 92.7531 42.0644 93.0504 42.2126C93.3486 42.3582 93.6633 42.4686 93.9883 42.5336L94.0756 42.551H107.927C108.365 42.5478 108.77 42.4392 109.16 42.2812C109.548 42.1178 109.911 41.9081 110.224 41.6005L110.237 41.5862L111.873 39.9515L111.867 39.9578L111.915 39.9395L111.962 39.9573L111.964 39.96L113.599 41.5929L113.607 41.6014C113.919 41.9081 114.282 42.1174 114.67 42.2812C115.06 42.4388 115.465 42.5478 115.903 42.551H127.754C128.192 42.5478 128.598 42.4392 128.987 42.2812C129.375 42.1178 129.738 41.9081 130.051 41.6009L132.456 39.1987L134.711 41.45C135.023 41.7572 135.386 41.9664 135.774 42.1298C136.164 42.2883 136.569 42.3969 137.007 42.4H148.384C148.823 42.3969 149.228 42.2883 149.618 42.1303C150.005 41.9664 150.368 41.7576 150.681 41.4505L151.564 40.5681L151.611 40.5494L151.656 40.5672L151.658 40.5685L152.54 41.45C152.853 41.7572 153.216 41.9664 153.604 42.1298C153.994 42.2883 154.398 42.3969 154.837 42.4H171.17C171.609 42.3969 172.014 42.2883 172.404 42.1303C172.791 41.9664 173.154 41.7576 173.466 41.4509L174.35 40.5681L174.397 40.5498L174.443 40.5681L175.326 41.45C175.639 41.7581 176.002 41.9664 176.39 42.1298C176.779 42.2883 177.184 42.3969 177.623 42.4H189.09C189.528 42.3969 189.933 42.2883 190.322 42.1303C190.709 41.9669 191.072 41.7576 191.385 41.4509L192.269 40.5681L192.316 40.5498L192.363 40.5681L193.249 41.4531L193.245 41.4487C193.558 41.7572 193.921 41.9664 194.308 42.1303C194.699 42.2883 195.103 42.3969 195.542 42.4H224.749C225.265 42.4005 225.739 42.1877 226.074 41.8511C226.412 41.5155 226.624 41.0422 226.624 40.5271V32.6131L226.644 32.5672L226.69 32.5476H231.607L231.653 32.5672L231.673 32.6131V40.5271C231.673 41.0422 231.886 41.5155 232.223 41.8511C232.558 42.1872 233.032 42.4005 233.547 42.4H250C250.439 42.3969 250.843 42.2883 251.233 42.1303C251.62 41.9669 251.984 41.7576 252.296 41.4505L257.604 36.1496L257.626 36.1287L257.561 36.0441L257.615 36.1354L257.626 36.1287L257.561 36.0441L257.615 36.1354L257.359 35.7089V36.1968C257.512 36.1955 257.592 36.1487 257.615 36.1354L257.359 35.7089V36.1968V35.5246L257.011 36.0998C257.118 36.1656 257.254 36.1986 257.359 36.1968V35.5246L257.011 36.0998L257.344 35.5477L256.83 35.9377C256.87 35.9902 256.931 36.0512 257.011 36.0998L257.344 35.5477L256.83 35.9377L257.188 35.6661L256.747 35.7774C256.754 35.7997 256.769 35.8576 256.83 35.9377L257.188 35.6661L256.747 35.7774L256.905 35.7374L256.745 35.7659L256.747 35.7774L256.905 35.7374L256.745 35.7659L256.774 35.761L256.744 35.7645L256.745 35.7659L256.774 35.761L256.744 35.7645L256.745 35.7944V40.5271C256.745 41.0422 256.958 41.5155 257.296 41.8511C257.632 42.1877 258.106 42.4005 258.621 42.4H270.194C270.71 42.4005 271.184 42.1877 271.52 41.8511C271.857 41.5155 272.07 41.0422 272.07 40.5271V20.2453L272.09 20.1995L272.136 20.1799H275.124C275.64 20.1803 276.114 19.9671 276.449 19.6305C276.786 19.2944 276.999 18.8221 276.999 18.3065V15.3808H276.094V16.284H277V12.5049C277 11.1898 276.459 9.99044 275.594 9.12855C274.731 8.26489 273.53 7.72533 272.213 7.72533V9.53234C273.031 9.53234 273.771 9.86445 274.315 10.4062C274.857 10.9489 275.191 11.6879 275.191 12.5053V12.4523V15.3808H276.094L276.095 14.4775H275.19V18.3065L275.17 18.3533L275.124 18.3729H272.136C271.62 18.3729 271.146 18.5857 270.811 18.9222C270.473 19.2579 270.261 19.7302 270.261 20.2453V40.5271L270.241 40.5734L270.194 40.5935H258.621L258.575 40.5734L258.554 40.5271V35.7944C258.554 35.6595 258.544 35.525 258.513 35.3861C258.467 35.1805 258.38 34.9507 258.18 34.7397C258.081 34.636 257.952 34.5429 257.806 34.4811C257.661 34.4187 257.504 34.3898 257.359 34.3902C257.11 34.3911 256.908 34.465 256.744 34.5527C256.579 34.6431 256.446 34.7513 256.325 34.8724L251.017 40.1732C250.952 40.2427 250.754 40.3758 250.54 40.4613C250.331 40.5507 250.096 40.5966 250 40.5935H233.547L233.502 40.5734L233.482 40.5271V32.6131C233.482 32.0975 233.269 31.6247 232.932 31.2895C232.596 30.953 232.123 30.7402 231.607 30.7406H226.69C226.174 30.7402 225.701 30.953 225.365 31.2895C225.028 31.6247 224.815 32.0975 224.815 32.6131V40.5271L224.795 40.5734L224.749 40.5935H195.542C195.446 40.5966 195.212 40.5507 195.001 40.4613C194.789 40.3758 194.591 40.2427 194.526 40.1732L193.641 39.2904C193.277 38.9263 192.792 38.7419 192.316 38.7428C191.84 38.7419 191.354 38.9263 190.99 39.2909L190.089 40.1901L190.107 40.1723C190.042 40.2427 189.843 40.3758 189.63 40.4613C189.42 40.5507 189.185 40.5966 189.09 40.5935H177.623C177.527 40.5966 177.292 40.5507 177.082 40.4613C176.869 40.3758 176.671 40.2427 176.606 40.1728L175.722 39.2904C175.358 38.9263 174.873 38.7419 174.397 38.7428C173.921 38.7419 173.435 38.9263 173.071 39.2904L172.192 40.1679L172.188 40.1723C172.122 40.2427 171.924 40.3758 171.711 40.4613C171.501 40.5507 171.266 40.5966 171.17 40.5935H154.837C154.741 40.5966 154.507 40.5507 154.297 40.4613C154.084 40.3758 153.885 40.2422 153.82 40.1723L152.934 39.2886L152.937 39.2913C152.572 38.9263 152.087 38.7419 151.611 38.7428C151.135 38.7419 150.649 38.9263 150.284 39.2909L149.402 40.1728C149.336 40.2427 149.138 40.3758 148.925 40.4613C148.715 40.5507 148.48 40.5966 148.384 40.5935H137.007C136.911 40.5966 136.677 40.5507 136.466 40.4613C136.254 40.3758 136.055 40.2422 135.99 40.1723L132.456 36.6442L128.772 40.3232C128.706 40.3936 128.508 40.5267 128.295 40.6117C128.084 40.7017 127.85 40.7475 127.754 40.7444H115.903C115.808 40.7475 115.573 40.7017 115.362 40.6117C115.15 40.5263 114.951 40.3927 114.886 40.3232L113.238 38.6769L113.24 38.6792C112.875 38.3155 112.39 38.1316 111.915 38.1325C111.439 38.1316 110.954 38.3155 110.59 38.6792L108.93 40.3379L108.943 40.3237C108.879 40.3936 108.681 40.5267 108.468 40.6122C108.257 40.7017 108.023 40.7475 107.927 40.7444H94.1648V41.6472L94.3409 40.7618C94.1929 40.7328 94.0074 40.6696 93.8487 40.5913C93.6892 40.5142 93.5559 40.4176 93.5051 40.3642L91.8593 38.7206C91.4947 38.356 91.0093 38.1717 90.5332 38.173C90.0576 38.1717 89.5722 38.356 89.2075 38.7206L87.5623 40.3642C87.5114 40.4176 87.3768 40.5147 87.2177 40.5913C87.059 40.67 86.8736 40.7328 86.7269 40.7618L86.9025 41.6472V40.7444H76.4117V41.6472L76.5882 40.7618C76.4407 40.7328 76.2548 40.6696 76.0961 40.5913C75.9365 40.5142 75.8028 40.4172 75.7524 40.3642L75.748 40.3602L74.1063 38.7206C73.7416 38.3555 73.2567 38.1717 72.7806 38.173C72.3045 38.1717 71.8195 38.356 71.4549 38.7201L71.4621 38.713L69.8096 40.3642C69.7588 40.4176 69.6246 40.5147 69.466 40.5913C69.3068 40.67 69.1218 40.7328 68.9743 40.7613L69.1499 41.6472V40.7444H53.4112C52.5933 40.7439 51.8528 40.4118 51.3095 39.87C50.7665 39.3274 50.434 38.5875 50.434 37.7705V12.6562C50.434 11.8393 50.7665 11.0998 51.3095 10.5567C51.8528 10.0149 52.5933 9.68281 53.4112 9.68237H107.926C108.022 9.67925 108.256 9.72511 108.467 9.81503C108.679 9.90006 108.877 10.0332 108.942 10.1022L108.947 10.1075L110.585 11.7449L110.588 11.7471C110.953 12.1113 111.438 12.2952 111.914 12.2947C112.39 12.2956 112.875 12.1113 113.24 11.7467L114.885 10.1031C114.95 10.0332 115.148 9.90006 115.361 9.81503C115.572 9.72511 115.807 9.67925 115.902 9.68237H127.753C127.849 9.67925 128.084 9.72511 128.294 9.81503C128.507 9.90006 128.705 10.0332 128.771 10.1035L132.411 13.7389L132.408 13.7358C132.477 13.8012 132.611 13.9998 132.696 14.2121C132.787 14.4232 132.832 14.6573 132.829 14.7526V26.5652L134.006 26.1944C134.29 26.1049 134.589 26.0563 134.899 26.0563H140.42L140.557 26.0114C140.931 25.889 141.252 25.6566 141.483 25.3481C141.714 25.0409 141.855 24.6496 141.854 24.2342V24.2382L141.869 18.1819H141.86V12.5053C141.86 11.6884 142.193 10.9494 142.736 10.4062C143.279 9.86445 144.019 9.53234 144.837 9.53234H169.504V8.62861L169.272 9.50162C169.416 9.53946 169.578 9.60268 169.714 9.6748C169.85 9.74558 169.961 9.82883 170.005 9.87513L171.653 11.5219L171.652 11.5201C172.016 11.8843 172.502 12.0672 172.977 12.0663C173.453 12.0672 173.937 11.8843 174.302 11.5201L175.948 9.87558C175.992 9.82928 176.104 9.74603 176.24 9.67524C176.376 9.60268 176.539 9.53991 176.683 9.50162L176.45 8.62861V9.53234H189.08C189.176 9.52878 189.411 9.57419 189.621 9.66411C189.834 9.74959 190.031 9.8827 190.096 9.9517L190.099 9.95571L191.742 11.5971C192.107 11.9613 192.592 12.1447 193.068 12.1438C193.544 12.1447 194.029 11.9613 194.394 11.5971L194.388 11.6029L196.038 9.95349C196.104 9.88359 196.303 9.74959 196.516 9.66456C196.727 9.57419 196.961 9.52878 197.056 9.53234H229.761V8.62861L229.528 9.50162C229.672 9.53946 229.835 9.60268 229.97 9.6748C230.107 9.74558 230.217 9.82883 230.262 9.87513L231.907 11.5192L231.908 11.5201C232.273 11.8843 232.758 12.0672 233.233 12.0663C233.709 12.0672 234.194 11.8843 234.559 11.5205L236.222 9.85733L236.205 9.87513C236.249 9.82928 236.36 9.74603 236.496 9.67524C236.633 9.60312 236.795 9.53991 236.94 9.50162L236.707 8.62861V9.53234H249.504V8.62861L249.272 9.50162C249.416 9.53946 249.578 9.60268 249.714 9.6748C249.85 9.74558 249.961 9.82883 250.005 9.87513L251.655 11.5232L251.652 11.5201C252.017 11.8838 252.502 12.0672 252.977 12.0663C253.452 12.0672 253.937 11.8838 254.302 11.5205L255.948 9.87558C255.993 9.82928 256.103 9.74603 256.24 9.67524C256.376 9.60268 256.539 9.53991 256.683 9.50162L256.45 8.62861V9.53234H272.213V8.62861Z" fill="#F2C534"/>
<path d="M272.213 8.62861H256.45C256.022 8.74258 255.574 8.97137 255.309 9.2367L253.663 10.8803C253.285 11.257 252.668 11.257 252.29 10.8803L250.645 9.2367C250.379 8.97093 249.932 8.74213 249.504 8.62861H236.707C236.279 8.74258 235.83 8.97137 235.565 9.2367L233.92 10.8803C233.542 11.257 232.925 11.257 232.546 10.8803L230.902 9.2367C230.636 8.97093 230.189 8.74213 229.761 8.62861L197.056 8.62858C196.522 8.62858 195.778 8.93709 195.399 9.31372L193.755 10.9578C193.377 11.3349 192.76 11.3349 192.381 10.9578L190.737 9.31372C190.359 8.93665 189.614 8.62858 189.08 8.62858L176.45 8.62861C176.022 8.74258 175.574 8.97137 175.309 9.2367L173.664 10.8803C173.286 11.257 172.668 11.257 172.29 10.8803L170.646 9.2367C170.38 8.97093 169.932 8.74213 169.504 8.62861L144.837 8.62858C142.703 8.62858 140.955 10.3733 140.955 12.5053V19.0851H140.962L140.95 24.2342C140.95 24.6638 140.665 25.0253 140.275 25.1526L134.899 25.1526C134.493 25.1526 134.102 25.2163 133.734 25.3329L133.733 14.7526C133.733 14.2197 133.425 13.4753 133.048 13.0978L129.41 9.46419C129.033 9.08712 128.287 8.77905 127.753 8.77905H115.902C115.368 8.77905 114.623 9.08757 114.245 9.46419L112.6 11.1083C112.223 11.4853 111.606 11.4853 111.227 11.1083L109.582 9.46419C109.205 9.08712 108.46 8.77905 107.926 8.77905H53.4112C51.2764 8.77905 49.5291 10.5237 49.5291 12.6562V37.7705C49.5291 39.903 51.2764 41.6472 53.4112 41.6472L69.1499 41.6472C69.6224 41.5542 70.1501 41.3013 70.4492 41.0026L72.0941 39.3594C72.4725 38.9823 73.089 38.9823 73.4666 39.3594L75.1123 41.0026C75.4109 41.3013 75.9397 41.5537 76.4117 41.6472H86.9025C87.3751 41.5542 87.9028 41.3013 88.2014 41.0026L89.8471 39.3594C90.2251 38.9823 90.8416 38.9823 91.2196 39.3594L92.8649 41.0026C93.1636 41.3013 93.6918 41.5537 94.1648 41.6472L107.927 41.6472C108.461 41.6472 109.206 41.3396 109.583 40.9625L111.228 39.3184C111.606 38.9418 112.224 38.9418 112.601 39.3184L114.246 40.9625C114.624 41.3391 115.369 41.6472 115.903 41.6472H127.754C128.288 41.6472 129.033 41.3396 129.411 40.9625L132.456 37.9214L135.35 40.8111C135.728 41.1882 136.473 41.4967 137.007 41.4967H148.384C148.919 41.4967 149.663 41.1882 150.042 40.8116L150.924 39.9292C151.302 39.5517 151.919 39.5517 152.296 39.9292L153.18 40.8111C153.558 41.1882 154.303 41.4967 154.837 41.4967H171.17C171.704 41.4967 172.449 41.1882 172.827 40.8116L173.71 39.9292C174.088 39.5517 174.705 39.5517 175.083 39.9292L175.966 40.8111C176.343 41.1887 177.088 41.4967 177.623 41.4967H189.09C189.623 41.4967 190.368 41.1887 190.746 40.8116L191.629 39.9292C192.007 39.5517 192.624 39.5517 193.002 39.9292L193.885 40.8111C194.263 41.1887 195.008 41.4967 195.542 41.4967H224.749C225.283 41.4967 225.719 41.0609 225.719 40.5271V32.613C225.719 32.0792 226.157 31.6439 226.69 31.6439H231.607C232.141 31.6439 232.578 32.0792 232.578 32.613V40.5271C232.578 41.0609 233.014 41.4967 233.547 41.4967H250C250.534 41.4967 251.279 41.1887 251.656 40.812L256.964 35.5107C257.341 35.1337 257.65 35.2606 257.65 35.7943V40.5271C257.65 41.0609 258.087 41.4967 258.621 41.4967H270.194C270.729 41.4967 271.165 41.0609 271.165 40.5271V20.2453C271.165 19.7124 271.601 19.2761 272.136 19.2761H275.124C275.658 19.2761 276.094 18.8407 276.094 18.3065L276.094 15.3808L276.095 12.5053C276.094 10.3728 274.348 8.62861 272.213 8.62861Z" fill="#260000"/>
<path d="M21.4354 26.1107C25.3607 24.6785 27.9532 19.7498 27.138 15.2014C26.3352 10.7219 22.5503 8.47458 18.7658 10.0817C15.0794 11.6474 12.6942 16.3352 13.3601 20.6442C14.0359 25.0159 17.6144 27.5041 21.4354 26.1107Z" fill="white"/>
<path d="M21.9614 30.2896C14.5244 32.8891 7.99458 27.1533 6.50798 9.70374L5.23494 10.2705C2.35448 28.5405 6.23878 39.3314 12.6171 43.5776L35.091 36.5343L32.2178 21.0796C29.9079 25.1286 25.7936 28.9501 21.9614 30.2896Z" fill="white"/>
<path d="M5.23494 10.2705L0 12.602L4.49544 46.1233L12.6171 43.5776C6.23878 39.3314 2.35448 28.5405 5.23494 10.2705Z" fill="#FF2D29"/>
<path d="M102.077 21.376L100.742 21.3742V18.9764L102.085 18.976C102.888 18.9787 103.279 19.3713 103.279 20.1753C103.279 20.9833 102.886 21.376 102.077 21.376ZM109.48 26.4191H108.898C108.089 26.4191 107.696 26.0269 107.696 25.2189L107.694 25.0564C107.694 24.2515 108.085 23.8592 108.89 23.857L108.895 23.8575L108.9 23.857H109.479C110.288 23.857 110.68 23.4644 110.68 22.6572V15.2142C110.68 14.4062 110.288 14.0139 109.479 14.0139H109.398C108.589 14.0139 108.196 13.6213 108.196 12.8133L108.197 12.7327C108.197 11.9256 107.804 11.5329 106.995 11.5329L94.5713 11.5325C93.7627 11.5325 93.37 11.9251 93.37 12.7322V37.5434C93.37 38.351 93.7627 38.7427 94.5713 38.7427H99.541C100.349 38.7427 100.742 38.351 100.742 37.5434L100.825 30.1017C100.825 29.2945 101.218 28.9019 102.027 28.9019C102.836 28.9019 103.228 29.2945 103.228 30.1017V30.8758L103.309 37.5438C103.309 38.3514 103.701 38.7436 104.51 38.7436H109.48C110.288 38.7436 110.681 38.3514 110.681 37.5438L110.681 27.6193C110.681 26.8117 110.289 26.4191 109.48 26.4191ZM122.443 31.248C121.306 31.2507 121.242 30.8558 121.242 30.0478L121.24 30.2588L121.244 20.2265C121.244 19.6513 121.197 19.0356 122.445 19.033C123.582 19.0303 123.647 19.4252 123.647 20.2332L123.648 20.0222L123.644 30.0545C123.644 30.6297 123.692 31.2453 122.443 31.248ZM131.101 15.2191C131.101 14.4137 130.71 14.0215 129.905 14.0197H129.894L129.827 14.0193H129.809C129.01 14.0166 128.619 13.6284 128.615 12.8324L128.616 12.8199L128.615 12.8079V12.738C128.615 11.9322 128.224 11.5405 127.42 11.5383L117.478 11.5334L117.465 11.5329C116.661 11.5351 116.269 11.9269 116.269 12.7327V12.8026L116.269 12.8151L116.269 12.8271C116.265 13.6231 115.875 14.0113 115.076 14.0144H114.98C114.175 14.0162 113.784 14.4088 113.784 15.2142L113.787 35.0619C113.787 35.8673 114.179 36.2595 114.983 36.2613H114.994L115.061 36.2617H115.08C115.878 36.2644 116.269 36.6526 116.273 37.4486L116.272 37.461L116.273 37.4731V37.543C116.273 38.3488 116.664 38.741 117.468 38.7427L127.41 38.7476L127.424 38.7481C128.228 38.7459 128.619 38.3541 128.619 37.5479V37.4784L128.619 37.4659L128.619 37.4539C128.623 36.6579 129.013 36.2697 129.812 36.2671H129.831L129.898 36.2666H129.909C130.714 36.2648 131.105 35.8726 131.105 35.0668L131.101 15.2191ZM90.2613 12.7327C90.2613 11.9251 89.8686 11.5325 89.06 11.5325L84.0907 11.5329C83.2826 11.5329 82.8894 11.9251 82.8894 12.7327C82.8894 12.7327 82.8092 29.6489 82.8092 30.0545C82.8092 30.6297 82.8569 31.2453 81.6078 31.248C80.4712 31.2507 80.4065 30.8558 80.4065 30.0478L80.4052 30.2588L80.3245 12.7327C80.3245 11.9256 79.9318 11.5329 79.1228 11.5329L74.1539 11.5325C73.3449 11.5325 72.9522 11.9251 72.9522 12.7327V35.0615C72.9522 35.8673 73.3436 36.2595 74.1481 36.2613H74.1588L74.2262 36.2617H74.2444C75.0432 36.2644 75.4337 36.6526 75.4377 37.4486L75.4373 37.4606L75.4377 37.4731V37.543C75.4377 38.3488 75.8291 38.7405 76.6332 38.7427L86.5887 38.7481C87.3929 38.7459 87.7842 38.3541 87.7842 37.5483V37.4784L87.7847 37.4659L87.7842 37.4539C87.7882 36.6579 88.1787 36.2697 88.9771 36.2666H89.0738C89.8784 36.2648 90.2698 35.8726 90.2698 35.0668L90.2613 12.7327ZM150.575 12.7309C150.575 11.9229 150.182 11.5307 149.374 11.5307H144.404C143.596 11.5307 143.203 11.9233 143.203 12.7309L143.122 30.4765C143.122 31.0517 143.169 31.6678 141.92 31.6705C140.784 31.6727 140.638 31.2778 140.638 30.4698L140.637 30.1017C140.637 29.2941 140.244 28.9014 139.435 28.9014L134.466 28.9019C133.658 28.9019 133.265 29.2941 133.265 30.1021L133.264 35.0619C133.264 35.8673 133.656 36.2595 134.46 36.2613H134.471L134.538 36.2617H134.557C135.356 36.2644 135.746 36.653 135.75 37.449L135.75 37.461L135.75 37.4731V37.543C135.75 38.3488 136.141 38.741 136.945 38.7427L146.901 38.7481C147.705 38.7463 148.096 38.3541 148.096 37.5483V37.4784L148.097 37.4664L148.096 37.4539C148.1 36.6579 148.491 36.2697 149.289 36.2671H149.308L149.375 36.2666H149.386C150.19 36.2648 150.582 35.8726 150.582 35.0673L150.575 12.7309ZM163.529 20.1117L163.527 21.4454H161.126L161.126 20.1037C161.129 19.3014 161.522 18.9114 162.327 18.9114C163.136 18.9114 163.529 19.3037 163.529 20.1117ZM153.687 37.5461C153.687 38.3536 154.08 38.7454 154.888 38.7454H159.858C160.666 38.7454 161.059 38.3536 161.059 37.5461L161.143 30.1043C161.143 29.2968 161.535 28.9046 162.344 28.9046C163.152 28.9046 163.545 29.2972 163.545 30.1043V30.8781L163.626 37.5465C163.626 38.3541 164.019 38.7459 164.828 38.7459H169.797C170.605 38.7459 170.998 38.3541 170.998 37.5465L170.998 15.2164C170.998 14.4088 170.605 14.0162 169.796 14.0162H169.715C168.907 14.0162 168.514 13.6235 168.514 12.8159L168.514 12.7354C168.514 11.9282 168.12 11.5356 167.312 11.5356H157.372C156.564 11.5356 156.171 11.9282 156.171 12.7354L156.171 12.8159C156.171 13.6235 155.778 14.0162 154.969 14.0162H154.888C154.08 14.0162 153.687 14.4088 153.687 15.2164V37.5461ZM223.65 21.4535L222.314 21.4521V19.0543L223.657 19.0539C224.461 19.0566 224.852 19.4492 224.852 20.2532C224.852 21.0608 224.459 21.4535 223.65 21.4535ZM230.468 26.4676L230.472 26.4672L230.468 26.4676ZM228.567 28.9927C229.376 28.9927 229.769 28.4269 229.769 27.6193V27.5387C229.769 26.7307 230.162 26.3385 230.97 26.3385L231.051 26.3389C231.86 26.3389 232.253 25.9458 232.253 25.1387V15.2916C232.253 14.4836 231.86 14.0914 231.052 14.0914H230.971C230.162 14.0914 229.769 13.6987 229.769 12.8912L229.769 12.8106C229.769 12.003 229.376 11.6104 228.568 11.6104H216.144C215.335 11.6104 214.942 12.0026 214.942 12.8102V37.6213C214.942 38.4289 215.335 38.8206 216.144 38.8206H221.114C221.922 38.8206 222.314 38.4289 222.314 37.6213L222.398 30.1791C222.398 29.372 222.79 28.9798 223.599 28.9798L228.567 28.9927ZM244.263 31.1821C243.126 31.1844 243.061 30.7899 243.061 29.9819L243.06 30.1929L243.064 20.1606C243.064 19.5855 243.016 18.9693 244.265 18.9666C245.401 18.9644 245.466 19.3593 245.466 20.1673L245.468 19.9559L245.464 29.9881C245.464 30.5638 245.511 31.1795 244.263 31.1821ZM252.921 15.1532C252.921 14.3478 252.529 13.9556 251.725 13.9538H251.714L251.647 13.9534H251.629C250.83 13.9507 250.439 13.5621 250.435 12.7661L250.436 12.7541L250.435 12.742V12.6721C250.435 11.8664 250.044 11.4741 249.24 11.4724L239.284 11.467C238.48 11.4688 238.089 11.861 238.089 12.6668V12.7367L238.088 12.7487L238.089 12.7612C238.085 13.5572 237.694 13.9454 236.895 13.9481H236.877L236.81 13.9485H236.799C235.995 13.9503 235.603 14.3425 235.603 15.1478L235.607 34.9956C235.607 35.8009 235.998 36.1936 236.803 36.1954H236.899C237.698 36.1985 238.088 36.5867 238.092 37.3827L238.092 37.3947L238.092 37.4067V37.4766C238.092 38.2829 238.484 38.6746 239.288 38.6769L239.301 38.6764L249.23 38.6817L249.243 38.6822C250.047 38.68 250.439 38.2878 250.439 37.482V37.4121L250.439 37.4001L250.439 37.388C250.443 36.592 250.833 36.2038 251.632 36.2007H251.65L251.718 36.2003H251.728C252.533 36.1989 252.924 35.8063 252.924 35.0009L252.921 15.1532ZM210.289 23.7889L210.647 23.7871C211.455 23.7871 211.848 23.3945 211.848 22.5869V12.7309C211.848 11.9233 211.455 11.5311 210.647 11.5311H205.677C204.868 11.5311 204.476 11.9233 204.476 12.7309L204.395 19.3989V20.1731C204.395 20.9802 204.002 21.3724 203.193 21.3724C202.385 21.3724 201.992 20.9802 201.992 20.1731L201.909 12.7314C201.909 11.9238 201.516 11.5316 200.708 11.5316H195.738C194.929 11.5316 194.537 11.9238 194.537 12.7314L194.522 37.4802C194.522 38.2873 194.915 38.6795 195.723 38.6795H200.693C201.502 38.6795 201.894 38.2873 201.894 37.4802L201.978 30.038C201.978 29.2309 202.37 28.8387 203.179 28.8387C203.988 28.8387 204.38 29.2309 204.38 30.038V30.8122L204.461 37.4802C204.461 38.2878 204.854 38.68 205.662 38.68H210.632C211.44 38.68 211.833 38.2878 211.833 37.4802L211.834 27.5556C211.834 26.7481 211.441 26.3559 210.632 26.3559H210.05C209.241 26.3559 208.848 25.9632 208.848 25.1552L208.857 25.0043C208.857 24.1994 209.037 23.8072 209.842 23.8049M191.414 29.1681V27.618C191.414 26.8131 191.022 26.4209 190.217 26.4191L190.226 26.4262L190.212 26.4186L185.161 26.4222V26.4186C184.354 26.4191 183.961 26.8117 183.961 27.6184L183.96 29.9881C183.96 30.5638 184.008 31.1795 182.759 31.1821C181.622 31.1844 181.557 30.7899 181.557 29.9819L181.556 30.1929L181.56 20.1606C181.56 19.5855 181.513 18.9693 182.761 18.9666C183.898 18.9644 183.963 19.3593 183.963 20.1673L183.964 19.9559L183.961 22.6568C183.961 23.4644 184.353 23.857 185.162 23.857V23.8606L190.213 23.8552V23.8592C191.021 23.8584 191.413 23.4662 191.413 22.6581L191.417 15.1532C191.417 14.3478 191.025 13.9552 190.221 13.9538H190.21L190.143 13.9534H190.125C189.326 13.9507 188.935 13.5621 188.931 12.7661L188.932 12.7541L188.931 12.742V12.6721C188.931 11.8664 188.54 11.4741 187.736 11.4724L177.781 11.467C176.977 11.4688 176.585 11.861 176.585 12.6668V12.7367L176.585 12.7487L176.585 12.7612C176.581 13.5572 176.191 13.9454 175.392 13.9481H175.373L175.306 13.9485H175.295C174.491 13.9503 174.1 14.3425 174.1 15.1478L174.103 34.9956C174.103 35.8009 174.495 36.1936 175.299 36.1954H175.396C176.194 36.1985 176.584 36.5867 176.589 37.3827L176.588 37.3947L176.589 37.4067V37.4766C176.589 38.2829 176.98 38.6746 177.784 38.6769L177.797 38.6764L187.726 38.6817L187.739 38.6822C188.544 38.68 188.935 38.2878 188.935 37.482V37.4121L188.935 37.4001L188.935 37.388C188.939 36.592 189.329 36.2038 190.128 36.2007H190.147L190.214 36.2003H190.225C191.029 36.1989 191.421 35.8063 191.421 35.0009L191.414 29.1681Z" fill="#F2C534"/>
<path d="M77.8408 35.0668L77.8403 35.0619L77.8408 35.057M104.518 21.457L104.511 21.4575H104.502M61.0278 18.8919C60.2245 18.8919 59.8323 19.3081 59.8269 20.1633L59.8274 20.1811L59.8269 20.1994C59.8323 21.0541 60.2245 21.4704 61.0278 21.4704L66.5279 21.4548L68.6413 21.457C69.4494 21.457 69.8426 21.8497 69.8426 22.6572V27.6197C69.8426 28.4264 69.4494 28.8195 68.6413 28.8195L61.0278 28.8191C60.2245 28.8191 59.8323 29.2349 59.8269 30.0901L59.8274 30.1079L59.8269 30.1261C59.8323 30.9814 60.2245 31.3976 61.0278 31.3976L68.6413 31.3816C69.4494 31.3816 69.8426 31.7742 69.8426 32.5814V37.5434C69.8426 38.351 69.4494 38.7436 68.6413 38.7436L53.733 38.7432C52.9257 38.7432 52.5326 38.351 52.5326 37.5434V12.7318C52.5326 11.9247 52.9257 11.532 53.733 11.532L68.6413 11.5325C69.4499 11.5325 69.843 11.9251 69.843 12.7327V17.6947C69.843 18.5019 69.4499 18.8945 68.6413 18.8945L61.0278 18.8919Z" fill="#F2C534"/>
<path d="M190.212 26.4152L190.212 26.4186L190.217 26.4191L190.212 26.4152ZM273.092 12.772C273.092 11.9644 272.699 11.5713 271.891 11.5713H256.982C256.174 11.5713 255.781 11.9631 255.78 12.7684V15.217C255.781 16.0187 256.172 16.4096 256.973 16.4123L257.968 16.4127L259.531 16.4118C260.339 16.4118 260.732 16.804 260.732 17.6116L260.816 25.0534L260.75 37.5431C260.75 38.3507 261.143 38.7429 261.951 38.7429H266.921C267.729 38.7429 268.122 38.3507 268.122 37.5431L268.041 25.0066L268.124 17.5644C268.124 16.7573 268.517 16.3651 269.325 16.3651L271.968 16.378C272.777 16.378 273.171 15.8122 273.171 15.0046V14.924L273.092 12.772Z" fill="#F2C534"/>
<path d="M50.0302 41.1473L24.9363 48L4.49544 46.1233L35.091 36.5343L48.8855 39.3243C48.8855 39.3243 49.0212 39.8198 49.3323 40.2659C49.6435 40.712 50.0302 41.1473 50.0302 41.1473Z" fill="#B30415"/>
</svg>
