<svg width="102" height="48" viewBox="0 0 102 48" fill="none" xmlns="http://www.w3.org/2000/svg">
<path d="M14.3716 17.7737C11.81 18.7223 9.41071 17.0286 8.95763 14.0527C8.51083 11.1195 10.1104 7.9285 12.5817 6.8627C15.119 5.76871 17.6567 7.29847 18.195 10.3477C18.7416 13.4439 17.0037 16.7988 14.3716 17.7737ZM18.9732 0L4.36317 6.60541C5.36018 18.4835 9.73827 22.3879 14.7245 20.6184C17.2939 19.7065 20.0524 17.1052 21.6008 14.3491L18.9732 0Z" fill="#FF2D29"/>
<path d="M30.8639 5.96236L24.4571 2.74981C26.84 14.2948 25.9646 21.2999 23.5274 24.8692L35.34 27.2771L30.8639 5.96236ZM23.7658 2.40313L18.9732 0L21.6008 14.3491C23.169 11.4429 23.9712 7.6306 23.7658 2.40313Z" fill="#C80011"/>
<path d="M24.4571 2.74981L23.7658 2.40313C23.9712 7.6306 23.169 11.4429 21.6008 14.3491L23.5274 24.8692C25.9646 21.2999 26.84 14.2948 24.4571 2.74981Z" fill="#E8E4E2"/>
<path d="M14.3716 17.7737C17.0037 16.7988 18.7416 13.4439 18.195 10.3477C17.6567 7.29847 15.119 5.76871 12.5817 6.8627C10.1104 7.9285 8.51083 11.1195 8.95763 14.0527C9.41071 17.0286 11.81 18.7223 14.3716 17.7737Z" fill="white"/>
<path d="M14.7245 20.6184C9.73827 22.3879 5.36018 18.4835 4.36317 6.60541L3.50995 6.99118C1.57868 19.4277 4.18269 26.7732 8.45946 29.6636L23.5274 24.8692L21.6008 14.3491C20.0524 17.1052 17.2939 19.7065 14.7245 20.6184Z" fill="white"/>
<path d="M3.50995 6.99118L0 8.57829L3.01406 31.3965L8.45946 29.6636C4.18269 26.7732 1.57868 19.4277 3.50995 6.99118Z" fill="#FF2D29"/>
<path d="M35.34 27.2771L16.7191 32.674L3.01406 31.3965L23.5274 24.8692L35.34 27.2771Z" fill="#B30415"/>
<path d="M95.4072 19.4085C95.4072 21.9674 95.1603 24.0674 93.8961 24.0674C92.478 24.0674 92.386 21.9977 92.386 19.4403C92.386 16.8826 92.7864 14.8837 93.958 14.8756C95.3137 14.8683 95.4072 16.8511 95.4072 19.4085ZM60.0971 18.1584C59.6354 18.1584 58.9871 18.0023 59.0179 17.2202C59.0481 16.4396 59.1103 14.438 60.5586 14.2504C62.0087 14.0637 62.1112 15.3271 62.1527 15.711C62.1936 16.0956 62.1936 16.8141 62.1936 17.2517C62.1936 17.6899 62.0421 18.1266 61.5457 18.1584C61.0535 18.1902 60.0971 18.1584 60.0971 18.1584ZM93.958 9.04048C87.3602 9.06169 86.5279 14.438 86.458 19.5618C86.3531 27.3797 88.7784 30.0959 93.958 30.0837C99.8454 30.0692 101.357 25.3796 101.456 19.5618C101.557 13.7516 100.247 9.01775 93.958 9.04048ZM75.1312 29.8495C76.0873 29.8495 76.209 28.9437 76.1483 27.7558C76.0873 26.5678 76.1782 18.096 76.2409 17.2517C76.3028 16.408 76.6103 15.5319 77.4424 15.5319C78.2759 15.5319 78.6217 16.5811 78.6139 17.5338C78.6068 18.4851 78.5228 27.8494 78.4917 28.6631C78.46 29.4749 78.983 29.8495 79.9702 29.7874C80.957 29.7252 82.7446 29.7874 83.2084 29.7874C83.6698 29.7874 84.3175 29.3816 84.3788 28.5058C84.4421 27.6294 84.5028 17.2838 84.4711 15.1259C84.4421 12.9697 84.0709 11.9679 82.7768 10.6251C81.4818 9.27958 79.3545 9.34352 78.5834 9.49959C77.8136 9.65687 77.0721 10.062 76.7338 10.2496C76.3949 10.4372 76.1483 10.4372 76.0252 10.2196C75.902 9.99961 76.0574 10.1863 75.7391 9.79445C75.2974 9.24928 74.3724 9.62535 73.4346 9.71808C72.3913 9.82354 71.6776 9.62535 71.2463 9.65687C70.8144 9.68747 70.3219 9.90566 70.2116 11.0472C70.1031 12.1891 70.044 16.2199 70.044 19.346C70.044 22.4734 70.0747 26.1915 70.1052 28.037C70.1363 29.8813 70.9394 29.8722 71.8324 29.8195C72.8802 29.7555 74.1749 29.8495 75.1312 29.8495ZM66.8793 29.4749C67.5885 29.2255 67.6494 28.8176 67.6494 28.1934C67.6494 27.5676 67.6808 26.099 67.5574 25.1611C67.4343 24.2229 66.6838 24.2396 66.2002 24.4114C65.7173 24.5832 63.8583 25.1305 62.0693 25.0354C60.0254 24.9281 59.6354 24.1608 59.3574 23.5353C59.0795 22.9092 59.5116 22.0971 60.2818 22.0971C61.0535 22.0971 66.4483 22.1607 66.4483 22.1607C67.4343 22.1607 68.0197 21.1904 68.0508 20.4721C68.0813 19.7524 68.1402 20.3149 68.0942 16.9399C68.0457 13.3455 66.3545 11.8436 66.3545 11.8436C64.413 9.46777 58.7286 9.02987 56.0271 10.969C53.2845 12.9376 52.9261 15.6259 52.8816 19.7524C52.8326 24.5047 53.7456 26.4109 55.1028 27.8812C56.4599 29.3498 58.0642 29.8155 60.9904 29.9437C63.1183 30.0377 66.1704 29.7252 66.8793 29.4749ZM42.8221 21.7061C42.8221 21.7061 42.9622 27.3336 42.9622 28.3179C42.9622 29.3034 42.73 29.7252 41.6203 29.8195C40.5106 29.9116 38.892 29.8652 38.1063 29.8652C37.3196 29.8652 36.7659 29.3958 36.7659 28.5519C36.7659 28.5519 36.7049 5.59277 36.6717 5.01305C36.6269 4.16907 37.1813 3.93512 37.8289 3.84118C37.8289 3.84118 41.1873 3.8824 41.7973 3.87694C42.4072 3.8733 42.7453 4.49727 42.7763 5.2173C42.8083 5.93551 42.7145 9.62535 42.6846 10.0932C42.6538 10.5621 43.4712 10.4999 43.6239 10.1554C43.7778 9.81172 45.4748 5.7355 45.8744 4.95395C45.8744 4.95395 46.1218 3.95513 47.0149 3.85967C47.9091 3.76572 50.5962 3.83845 51.1852 3.84118C51.7758 3.84118 52.8687 3.86633 52.1096 5.7158C51.3526 7.56527 48.3182 13.8743 48.1942 14.1867C48.0707 14.5004 47.9485 15.3125 48.1338 15.8762C48.3182 16.4371 52.2991 27.0515 52.6261 27.8133C53.02 28.7282 52.916 29.7574 51.7474 29.7719C50.58 29.7861 48.4339 29.7874 47.8786 29.7555C47.3236 29.7252 46.7695 29.7555 46.3983 28.6631C46.0286 27.5676 44.0866 22.0034 43.9025 21.5961C43.7172 21.1904 42.8385 20.9725 42.8221 21.7061Z" fill="white"/>
<path d="M5.76599 47.4006C5.76599 47.5888 5.7427 47.8828 5.39974 47.9421C5.31692 47.9537 4.46666 47.9421 4.30101 47.9421C4.22983 47.9421 3.89982 47.9537 3.82864 47.9537C3.73417 47.9537 3.30839 47.9189 3.20227 47.9189C3.05991 47.9189 2.34036 47.9537 2.17471 47.9537C1.93917 47.9537 1.74893 47.8119 1.74893 47.518C1.74893 47.4703 1.77223 46.2946 1.77223 46.0703C1.77223 45.8112 1.72434 44.5402 1.72434 44.2579C1.72434 44.1522 1.73599 43.6456 1.73599 43.5283C1.73599 43.1983 1.72434 42.858 1.72434 42.528C1.72434 42.3991 1.73599 41.7984 1.73599 41.6579C1.73599 41.5522 1.7127 41.0585 1.7127 40.9399V40.5042C1.7127 40.4333 1.70105 40.1278 1.70105 40.0569C1.70105 39.8223 1.79552 39.6328 2.11389 39.6328C2.14883 39.6328 2.25624 39.6328 2.36236 39.6444C2.46848 39.6444 2.58625 39.656 2.62249 39.656C2.78814 39.656 3.57887 39.6083 3.76782 39.6083C3.89723 39.6083 4.51195 39.6315 4.65431 39.6315C4.78373 39.6315 4.92608 39.6199 5.06715 39.6199C5.51622 39.6199 5.57575 39.8197 5.57575 40.1729C5.57575 40.2902 5.5641 40.4088 5.5641 40.5261C5.5641 40.5738 5.57575 40.8432 5.57575 40.9025C5.57575 41.2905 5.44633 41.4207 5.09174 41.4207C4.99726 41.4207 4.89114 41.4091 4.79667 41.4091H4.59607C4.5016 41.4091 4.40713 41.3975 4.31265 41.3975C4.24148 41.3975 3.92311 41.4091 3.85194 41.4091C3.76911 41.4091 3.66299 41.4091 3.60346 41.538C3.55687 41.6205 3.55687 41.6553 3.56852 41.9853C3.56852 42.0446 3.55687 42.2792 3.55687 42.3385C3.55687 42.5976 3.62805 42.6917 3.99429 42.6917C4.12371 42.6917 4.5029 42.6917 4.77467 42.6801C4.86914 42.6685 4.96361 42.6685 5.05809 42.6685C5.1875 42.6685 5.37645 42.6801 5.48387 42.8219C5.55504 42.916 5.55504 42.9276 5.55504 43.5863C5.55504 43.6456 5.56669 43.8918 5.56669 43.9511C5.56669 44.3868 5.40104 44.5273 5.02314 44.5273C4.92867 44.5273 4.44466 44.4925 4.33854 44.4925C3.73546 44.4925 3.66558 44.5866 3.62934 44.7516C3.61769 44.8109 3.64099 45.1164 3.64099 45.1873C3.64099 45.235 3.62934 45.4812 3.62934 45.5405C3.62934 45.9878 3.73546 46.0342 4.03053 46.0226C4.10171 46.0226 4.46795 46.0342 4.55078 46.0342C4.59737 46.0342 4.84585 46.0226 4.90538 46.0226C5.70905 46.0226 5.76728 46.0575 5.76728 46.7291V47.3994L5.76599 47.4006Z" fill="white"/>
<path d="M6.66284 45.9762C6.66284 45.8344 6.65119 45.1525 6.65119 44.9991C6.65119 44.6691 6.65119 43.8931 6.66284 43.576C6.66284 43.5283 6.68613 43.1055 6.68613 43.0462C6.68613 42.7407 6.66284 42.4223 6.66284 42.1168C6.66284 41.9634 6.68613 41.2222 6.68613 41.0572C6.68613 40.9038 6.65119 40.1626 6.65119 39.9989C6.65119 39.8223 6.72237 39.7049 6.87508 39.6817C6.89838 39.6701 7.11191 39.6701 7.1585 39.6701H7.46522C7.58298 39.6701 8.16277 39.6469 8.221 39.6469C8.44489 39.6469 8.5756 39.6701 8.74125 40.1174C8.78784 40.2347 8.96514 40.8471 9.00138 40.9876C9.0842 41.2235 9.16703 41.4465 9.24986 41.6695C9.32103 41.9054 9.37927 42.1516 9.45045 42.3875C9.48539 42.5525 9.72222 43.3169 9.74552 43.4935C9.78046 43.6469 9.83999 43.6701 9.83999 43.6701C9.87493 43.6701 9.87493 43.411 9.87493 43.3878C9.87493 43.3053 9.83999 42.7059 9.82834 42.4223C9.8167 42.1993 9.80505 41.975 9.80505 41.752C9.80505 41.6579 9.81669 41.199 9.81669 41.0933C9.81669 40.8574 9.7934 40.6228 9.75716 40.2696C9.75716 40.1871 9.74552 40.0465 9.74552 39.9396C9.74552 39.7746 9.82834 39.6689 9.96941 39.6689C10.016 39.6689 10.2295 39.6805 10.2761 39.6805H10.689C10.8546 39.6805 11.0203 39.6805 11.1846 39.6572C11.2441 39.6456 11.3024 39.634 11.3736 39.634C11.5392 39.634 11.6686 39.7049 11.6686 39.928V40.5042C11.657 40.9399 11.6453 41.8925 11.6453 42.3514C11.6453 42.4687 11.657 43.0694 11.657 43.2099C11.657 43.3981 11.622 44.2927 11.622 44.5041C11.622 44.9037 11.657 45.3046 11.657 45.7042C11.657 45.9749 11.6453 46.2456 11.6453 46.5047C11.6453 46.6337 11.6686 47.2937 11.6686 47.4458C11.6686 47.857 11.5263 47.9279 11.3373 47.9279C11.2894 47.9279 11.2312 47.9279 11.1717 47.9163C11.0293 47.9047 10.8999 47.9047 10.7705 47.9047C10.5582 47.9047 10.4159 47.9047 10.2748 47.9279C10.2153 47.9279 10.0975 47.9511 10.0742 47.9511C9.8387 47.9511 9.77916 47.7745 9.56692 47.1274C9.47245 46.8103 9.31844 46.3037 9.22397 45.9865C9.17609 45.8576 9.1295 45.7158 9.09456 45.5869C9.05961 45.4696 9.02338 45.3394 8.98844 45.2221C8.94055 45.0571 8.88232 44.905 8.83443 44.74C8.78784 44.575 8.53936 43.7049 8.52772 43.7049C8.50442 43.7049 8.48113 43.9047 8.48113 44.0349C8.48113 44.0942 8.48113 44.1522 8.49277 44.2115C8.50442 44.6356 8.51607 45.0584 8.51607 45.3768C8.51607 45.5057 8.50442 46.1528 8.50442 46.2946C8.50442 46.5769 8.50442 46.6478 8.56395 47.2833C8.56395 47.3658 8.5756 47.5308 8.5756 47.6133C8.5756 47.955 8.33877 47.9549 8.221 47.9549C8.11488 47.9549 7.58298 47.9433 7.46522 47.9433C7.39404 47.9433 7.05238 47.9549 6.96955 47.9549C6.63825 47.9549 6.63825 47.7075 6.63825 47.5669C6.63825 47.4612 6.66155 46.9314 6.66155 46.8141V45.9788L6.66284 45.9762Z" fill="white"/>
<path d="M15.0257 43.4123C14.9195 42.8941 14.8018 42.3772 14.719 41.859C14.6594 41.4594 14.6361 41.0469 14.5649 40.6357C14.4588 40.0478 14.4472 39.9769 14.4472 39.8712C14.4472 39.6366 14.6478 39.6366 14.7423 39.6366C14.8134 39.6366 15.1551 39.6598 15.2263 39.6598C15.3324 39.6598 15.841 39.625 15.9588 39.625C16.2901 39.625 16.3366 39.8016 16.3845 40.013C16.4324 40.2128 16.5618 41.3073 16.5735 41.4362C16.5968 41.6476 16.633 41.8474 16.6679 42.0601C16.6912 42.296 16.7145 42.5538 16.7275 42.8013C16.7508 43.0604 16.9048 44.3662 16.9281 44.6601C16.9281 44.7194 16.963 45.0133 16.963 45.0365C16.963 45.0958 16.9747 45.2608 17.0458 45.2608C17.0937 45.2608 17.1054 45.226 17.1403 44.9424C17.1403 44.8947 17.2115 44.1535 17.2231 44.071C17.2464 43.7771 17.4121 42.3643 17.447 42.0472C17.447 41.9647 17.4703 41.5535 17.482 41.4594C17.4936 41.3421 17.5169 41.2235 17.5415 41.1062C17.5881 40.8715 17.5764 40.6124 17.601 40.3765C17.636 39.7526 17.6606 39.6237 18.1446 39.6237C18.2507 39.6237 18.7593 39.6585 18.8771 39.6585C18.912 39.6585 19.0065 39.6585 19.101 39.6469H19.3249C19.5022 39.6469 19.5966 39.7758 19.5966 39.9769C19.5966 40.071 19.585 40.1187 19.5254 40.3417C19.4426 40.6949 19.3365 41.6476 19.3249 41.7649C19.3132 41.8822 19.3016 42.0124 19.2899 42.1297C19.2783 42.1761 19.0065 43.7062 18.9832 43.8364C18.9237 44.1535 18.6998 45.7184 18.6286 46.0716C18.582 46.2714 18.5341 46.4712 18.4992 46.6839C18.4759 46.7896 18.3931 47.3542 18.3698 47.4844C18.3348 47.6726 18.2869 47.9549 17.9686 47.9549C17.9686 47.9549 17.733 47.9433 17.7085 47.9317C17.4483 47.9201 17.2244 47.9201 17.0588 47.9201H16.4557C16.4091 47.9201 16.2072 47.9317 16.1606 47.9317C15.9238 47.9317 15.8889 47.7435 15.8539 47.5901C15.8306 47.4844 15.7116 46.9082 15.6766 46.778C15.5822 46.2727 15.4514 45.7661 15.3583 45.2608C15.2987 44.9424 15.2405 44.6253 15.1926 44.3082C15.1447 44.0027 15.0865 43.7088 15.027 43.4136" fill="white"/>
<path d="M20.5426 39.6224C20.6255 39.6224 21.015 39.6456 21.1095 39.6456C21.204 39.6456 21.688 39.6224 21.7941 39.6224C22.0659 39.6224 22.0775 39.8931 22.0775 39.964C22.0775 40.0349 22.0659 40.1174 22.0542 40.1871C22.0426 40.3289 22.0309 40.481 22.0309 40.6228C22.0309 41.0224 22.0309 41.4117 22.0193 41.8113C22.0193 42.0111 22.0309 42.3411 22.0309 42.5409C22.0309 42.6118 22.0076 42.9405 22.0076 43.023C22.0076 43.1403 22.0193 43.7294 22.0193 43.8583C22.0193 43.9872 21.996 44.6111 21.996 44.7529C21.996 44.8586 22.0076 45.3536 22.0076 45.4593C22.0076 45.6475 21.9727 46.5885 21.9727 46.8012C21.9727 46.9662 21.9843 47.1428 21.9843 47.3065C21.996 47.3542 22.0076 47.5657 22.0076 47.6121C22.0076 47.7062 21.9598 47.8828 21.7242 47.9176C21.6763 47.9292 21.3929 47.9176 21.323 47.9176C21.1936 47.9176 20.531 47.9292 20.3899 47.9292C20.1065 47.9292 20.1065 47.6353 20.1065 47.4935V47.4703C20.1065 47.3053 20.1298 46.4932 20.1298 46.3178C20.1415 45.953 20.1298 45.3884 20.1298 45.0352C20.1298 44.8238 20.1764 43.7887 20.1764 43.5528C20.1764 43.4355 20.1531 42.858 20.1531 42.7291C20.1531 42.635 20.1764 42.2109 20.1881 42.1168C20.1881 41.9634 20.1764 41.2338 20.1764 41.0701C20.1764 41.0108 20.1881 40.7053 20.1881 40.6344C20.1881 40.5519 20.1648 40.1755 20.1648 40.0814C20.1648 39.7398 20.2476 39.6224 20.5426 39.6224Z" fill="white"/>
<path d="M23.1413 45.9762C23.1413 45.8344 23.1297 45.1525 23.1297 44.9991C23.1297 44.6691 23.1297 43.8931 23.1413 43.576C23.1413 43.5283 23.1646 43.1055 23.1646 43.0462C23.1646 42.7407 23.1413 42.4223 23.1413 42.1168C23.1413 41.9634 23.1646 41.2222 23.1646 41.0572C23.1646 40.9038 23.1297 40.1626 23.1297 39.9989C23.1297 39.8223 23.2008 39.7049 23.3536 39.6817C23.3768 39.6701 23.5904 39.6701 23.637 39.6701H23.9437C24.0615 39.6701 24.6412 39.6469 24.6995 39.6469C24.9247 39.6469 25.0541 39.6701 25.2197 40.1174C25.2676 40.2347 25.4449 40.8471 25.4799 40.9876C25.5627 41.2235 25.6455 41.4465 25.7283 41.6695C25.7995 41.9054 25.8577 42.1516 25.9289 42.3875C25.9639 42.5525 26.2007 43.3169 26.224 43.4935C26.2589 43.6469 26.3185 43.6701 26.3185 43.6701C26.3534 43.6701 26.3534 43.411 26.3534 43.3878C26.3534 43.3053 26.3185 42.7059 26.3055 42.4223C26.2939 42.1993 26.2822 41.975 26.2822 41.752C26.2822 41.6579 26.2939 41.199 26.2939 41.0933C26.2939 40.8574 26.2706 40.6228 26.2343 40.2696C26.2343 40.1871 26.2227 40.0465 26.2227 39.9396C26.2227 39.7746 26.3055 39.6689 26.4479 39.6689C26.4945 39.6689 26.708 39.6805 26.7546 39.6805H27.1674C27.3331 39.6805 27.4987 39.6805 27.6631 39.6572C27.7226 39.6456 27.7809 39.634 27.852 39.634C28.0177 39.634 28.1471 39.7049 28.1471 39.928V40.5042C28.1355 40.9399 28.1238 41.8925 28.1238 42.3514C28.1238 42.4687 28.1355 43.0694 28.1355 43.2099C28.1355 43.3981 28.1005 44.2927 28.1005 44.5041C28.1005 44.9037 28.1355 45.3046 28.1355 45.7042C28.1355 45.9749 28.1238 46.2456 28.1238 46.5047C28.1238 46.6337 28.1471 47.2937 28.1471 47.4458C28.1471 47.857 28.0047 47.9279 27.8158 47.9279C27.7679 47.9279 27.7097 47.9279 27.6502 47.9163C27.5078 47.9047 27.3784 47.9047 27.249 47.9047C27.0367 47.9047 26.8944 47.9047 26.7533 47.9279C26.6938 47.9279 26.576 47.9511 26.5527 47.9511C26.3159 47.9511 26.2576 47.7745 26.0441 47.1274C25.9496 46.8103 25.7956 46.3037 25.7012 45.9865C25.6533 45.8576 25.6067 45.7158 25.5717 45.5869C25.5368 45.4696 25.5006 45.3394 25.4656 45.2221C25.419 45.0571 25.3595 44.905 25.3116 44.74C25.2637 44.575 25.0165 43.7049 25.0049 43.7049C24.9816 43.7049 24.9583 43.9047 24.9583 44.0349C24.9583 44.0942 24.9583 44.1522 24.97 44.2115C24.9816 44.6356 24.9932 45.0584 24.9932 45.3768C24.9932 45.5057 24.9816 46.1528 24.9816 46.2946C24.9816 46.5769 24.9816 46.6478 25.0411 47.2833C25.0411 47.3658 25.0528 47.5308 25.0528 47.6133C25.0528 47.955 24.8159 47.9549 24.6982 47.9549C24.5921 47.9549 24.0602 47.9433 23.9424 47.9433C23.8712 47.9433 23.5283 47.9549 23.4467 47.9549C23.1154 47.9549 23.1154 47.7075 23.1154 47.5669C23.1154 47.4612 23.1387 46.9314 23.1387 46.8141V45.9788L23.1413 45.9762Z" fill="white"/>
<path d="M29.295 45.9762C29.295 45.8344 29.2834 45.1525 29.2834 44.9991C29.2834 44.6691 29.2834 43.8931 29.295 43.576C29.295 43.5283 29.3183 43.1055 29.3183 43.0462C29.3183 42.7407 29.295 42.4223 29.295 42.1168C29.295 41.9634 29.3183 41.2222 29.3183 41.0572C29.3183 40.9038 29.2834 40.1626 29.2834 39.9989C29.2834 39.8223 29.3546 39.7049 29.5073 39.6817C29.5306 39.6701 29.7441 39.6701 29.7907 39.6701H30.0974C30.2152 39.6701 30.7949 39.6469 30.8532 39.6469C31.0771 39.6469 31.2078 39.6701 31.3734 40.1174C31.4213 40.2347 31.5973 40.8471 31.6336 40.9876C31.7164 41.2235 31.7992 41.4465 31.882 41.6695C31.9532 41.9054 32.0115 42.1516 32.0826 42.3875C32.1176 42.5525 32.3544 43.3169 32.3777 43.4935C32.4126 43.6469 32.4722 43.6701 32.4722 43.6701C32.5071 43.6701 32.5071 43.411 32.5071 43.3878C32.5071 43.3053 32.4722 42.7059 32.4605 42.4223C32.4489 42.1993 32.4372 41.975 32.4372 41.752C32.4372 41.6579 32.4489 41.199 32.4489 41.0933C32.4489 40.8574 32.4256 40.6228 32.3893 40.2696C32.3893 40.1871 32.3777 40.0465 32.3777 39.9396C32.3777 39.7746 32.4605 39.6689 32.6016 39.6689C32.6482 39.6689 32.8617 39.6805 32.9083 39.6805H33.3211C33.4868 39.6805 33.6524 39.6805 33.8168 39.6572C33.8763 39.6456 33.9346 39.634 34.0057 39.634C34.1714 39.634 34.3008 39.7049 34.3008 39.928V40.5042C34.2892 40.9399 34.2775 41.8925 34.2775 42.3514C34.2775 42.4687 34.2892 43.0694 34.2892 43.2099C34.2892 43.3981 34.2542 44.2927 34.2542 44.5041C34.2542 44.9037 34.2892 45.3046 34.2892 45.7042C34.2892 45.9749 34.2775 46.2456 34.2775 46.5047C34.2775 46.6337 34.3008 47.2937 34.3008 47.4458C34.3008 47.857 34.1585 47.9279 33.9695 47.9279C33.9216 47.9279 33.8634 47.9279 33.8039 47.9163C33.6615 47.9047 33.5321 47.9047 33.4027 47.9047C33.1904 47.9047 33.0481 47.9047 32.907 47.9279C32.8475 47.9279 32.7297 47.9511 32.7064 47.9511C32.4696 47.9511 32.4113 47.7745 32.1991 47.1274C32.1046 46.8103 31.9506 46.3037 31.8562 45.9865C31.8083 45.8576 31.7617 45.7158 31.7254 45.5869C31.6905 45.4696 31.6543 45.3394 31.6193 45.2221C31.5714 45.0571 31.5132 44.905 31.4653 44.74C31.4187 44.575 31.1703 43.7049 31.1586 43.7049C31.1353 43.7049 31.1107 43.9047 31.1107 44.0349C31.1107 44.0942 31.1107 44.1522 31.1224 44.2115C31.134 44.6356 31.1457 45.0584 31.1457 45.3768C31.1457 45.5057 31.134 46.1528 31.134 46.2946C31.134 46.5769 31.134 46.6478 31.1935 47.2833C31.1935 47.3658 31.2052 47.5308 31.2052 47.6133C31.2052 47.955 30.9684 47.9549 30.8506 47.9549C30.7445 47.9549 30.2126 47.9433 30.0948 47.9433C30.0236 47.9433 29.682 47.9549 29.5991 47.9549C29.2678 47.9549 29.2678 47.7075 29.2678 47.5669C29.2678 47.4612 29.2911 46.9314 29.2911 46.8141V45.9788L29.295 45.9762Z" fill="white"/>
<path d="M35.0113 46.7419C35.1174 46.283 35.2003 45.8241 35.2714 45.3652C35.3193 45.012 35.3543 44.6704 35.4254 44.3301C35.4487 44.1419 35.4966 43.9537 35.5432 43.7771C35.626 43.353 35.6972 42.9302 35.7917 42.5177C35.8512 42.2354 35.9094 41.9531 35.9806 41.6708C36.0634 41.2828 36.1579 40.8819 36.2291 40.4823C36.2407 40.3997 36.2524 40.3173 36.264 40.2348C36.2757 40.1523 36.299 40.0697 36.3106 39.9872C36.3339 39.8222 36.3572 39.6224 36.5824 39.6224C36.7002 39.6224 37.267 39.6456 37.3861 39.6456C37.5051 39.6456 38.0241 39.6224 38.1419 39.6224C38.2959 39.6224 38.4136 39.6224 38.4848 39.799C38.5443 39.928 38.6388 40.7878 38.6854 40.976C38.6971 41.0817 38.732 41.1758 38.7449 41.2815C38.7682 41.4104 38.7915 41.5406 38.8161 41.6579C38.8511 41.8693 38.8989 42.082 38.9455 42.2934C39.1694 43.2821 39.4179 45.07 39.4412 45.2814C39.5007 45.7403 39.559 46.1992 39.6534 46.6581C39.6884 46.8348 39.7246 47.023 39.7596 47.1996C39.7829 47.2705 39.8307 47.5296 39.8307 47.6469C39.8307 47.8235 39.713 47.9292 39.5124 47.9292C39.4296 47.9292 39.0517 47.906 38.9688 47.906C38.8627 47.906 38.402 47.9524 38.2959 47.9524C37.8947 47.9524 37.883 47.7874 37.883 47.5412C37.883 47.4819 37.8597 47.188 37.8597 47.13C37.8481 46.8825 37.8364 46.506 37.4107 46.506C37.3511 46.506 37.3162 46.5176 37.2217 46.5292C37.091 46.564 37.0444 46.5756 36.9732 46.6942C36.8904 46.8476 36.8904 46.8708 36.8671 47.518C36.8555 47.6946 36.8438 47.9292 36.4413 47.9292C36.4064 47.9292 36.3119 47.9176 36.2175 47.906C36.123 47.8944 36.0518 47.8944 35.8512 47.8944C35.7334 47.8944 35.6144 47.8944 35.4966 47.906C35.3077 47.9292 35.2844 47.9292 35.1304 47.9292C34.8819 47.9292 34.8586 47.7642 34.8586 47.6701C34.8586 47.4342 34.9414 47.0462 35.0126 46.7407M37.2554 43.1171C37.2321 43.3401 37.0431 44.4113 37.0431 44.517C37.0431 44.6704 37.1971 44.7052 37.3615 44.7052C37.4793 44.7052 37.6799 44.7052 37.6799 44.4822C37.6799 44.3765 37.4676 42.9057 37.456 42.8464C37.456 42.7046 37.4094 42.6466 37.3615 42.6466C37.3265 42.6466 37.267 43.0823 37.2554 43.1171Z" fill="white"/>
<path d="M40.4571 40.7878C40.4571 40.5648 40.4571 39.9176 40.5037 39.8106C40.5865 39.5992 40.8583 39.5992 41.0123 39.5992C41.1068 39.5992 41.5442 39.6108 41.6387 39.6108H41.662C41.7681 39.6108 42.2637 39.5876 42.3712 39.576C42.6779 39.5644 42.9729 39.5528 43.2693 39.5528C43.5657 39.5528 44.1674 39.5528 44.711 40.294C45.1122 40.8355 45.1238 41.1642 45.1484 42.1413C45.1484 42.2586 45.1834 42.8116 45.1834 42.9418C45.1834 43.3298 45.0539 44.1767 44.4742 44.6833C44.3318 44.8006 44.2969 44.8238 44.2969 44.9063C44.2969 44.9888 44.3564 45.0713 44.403 45.1422C44.4379 45.2131 44.4742 45.284 44.4975 45.3536C44.6515 45.7068 44.6748 45.7648 44.8521 46.2598C44.9698 46.5898 45.1238 46.9069 45.2533 47.2253C45.3011 47.331 45.3361 47.4367 45.3361 47.5553C45.3361 47.6971 45.2416 47.9085 44.8986 47.9085C44.8158 47.9085 44.39 47.8853 44.2969 47.8853C44.214 47.8853 43.7766 47.9201 43.6821 47.9201C43.3871 47.9201 43.3638 47.7912 43.3042 47.5205C43.2693 47.3091 43.092 46.8618 43.092 46.8502C43.0208 46.6736 42.9496 46.497 42.8798 46.332C42.8202 46.1915 42.7736 46.0497 42.7374 45.9079C42.6662 45.6256 42.6196 45.4142 42.4423 45.4142C42.3129 45.4142 42.2767 45.5083 42.2767 45.5315C42.2417 45.614 42.2417 46.2018 42.2417 46.3204C42.2417 46.497 42.2534 46.6375 42.2534 46.7084C42.2534 46.8141 42.3 47.3671 42.3 47.4844C42.3 47.5785 42.3 47.9433 41.9454 47.9433C41.8509 47.9433 41.4251 47.9085 41.319 47.9085C41.2245 47.9085 41.1417 47.9201 41.0472 47.9317C40.9994 47.9317 40.7755 47.9666 40.7289 47.9666C40.5399 47.9666 40.4105 47.826 40.4105 47.5192V47.3903C40.4222 47.1428 40.4222 47.0964 40.4222 46.6375C40.4222 46.5086 40.4455 45.8731 40.4455 45.7313C40.4455 45.5779 40.4455 45.5315 40.4338 45.0842C40.4222 44.4848 40.4338 43.6611 40.4338 43.0488L40.4571 40.7891V40.7878ZM42.2637 42.0588C42.2637 42.3063 42.2405 42.5525 42.2405 42.8C42.2405 43.13 42.2405 43.4948 42.6416 43.4948C42.8539 43.4948 43.2797 43.3775 43.2797 42.8593C43.2797 42.8 43.2797 42.742 43.268 42.6711C43.268 42.5538 43.2564 41.9647 43.2331 41.8358C43.1619 41.2944 42.8319 41.2944 42.6546 41.2944C42.2883 41.2944 42.2405 41.4001 42.2405 41.5999C42.2405 41.6708 42.2637 41.9879 42.2637 42.0588Z" fill="white"/>
<path d="M50.3082 47.4006C50.3082 47.5888 50.2849 47.8828 49.942 47.9421C49.8591 47.9537 49.0089 47.9421 48.8432 47.9421C48.7721 47.9421 48.442 47.9537 48.3709 47.9537C48.2764 47.9537 47.8506 47.9189 47.7445 47.9189C47.6021 47.9189 46.8826 47.9537 46.7169 47.9537C46.4801 47.9537 46.2912 47.8119 46.2912 47.518C46.2912 47.4703 46.3145 46.2946 46.3145 46.0703C46.3145 45.8112 46.2666 44.5402 46.2666 44.2579C46.2666 44.1522 46.2782 43.6456 46.2782 43.5283C46.2782 43.1983 46.2666 42.858 46.2666 42.528C46.2666 42.3991 46.2782 41.7984 46.2782 41.6579C46.2782 41.5522 46.2549 41.0585 46.2549 40.9399V40.5042C46.2549 40.4333 46.2433 40.1278 46.2433 40.0569C46.2433 39.8223 46.3377 39.6328 46.6561 39.6328C46.6911 39.6328 46.7985 39.6328 46.9046 39.6444C47.0107 39.6444 47.1285 39.656 47.1647 39.656C47.3304 39.656 48.1211 39.6083 48.31 39.6083C48.4395 39.6083 49.0542 39.6315 49.1965 39.6315C49.326 39.6315 49.4683 39.6199 49.6094 39.6199C50.0584 39.6199 50.118 39.8197 50.118 40.1729C50.118 40.2902 50.1063 40.4088 50.1063 40.5261C50.1063 40.5738 50.118 40.8432 50.118 40.9025C50.118 41.2905 49.9886 41.4207 49.634 41.4207C49.5395 41.4207 49.4334 41.4091 49.3389 41.4091H49.1383C49.0438 41.4091 48.9494 41.3975 48.8549 41.3975C48.7837 41.3975 48.4653 41.4091 48.3942 41.4091C48.3113 41.4091 48.2052 41.4091 48.1457 41.538C48.0991 41.6205 48.0991 41.6553 48.1107 41.9853C48.1107 42.0446 48.0991 42.2792 48.0991 42.3385C48.0991 42.5976 48.1703 42.6917 48.5365 42.6917C48.6659 42.6917 49.0438 42.6917 49.3156 42.6801C49.4101 42.6685 49.5045 42.6685 49.599 42.6685C49.7284 42.6685 49.9174 42.6801 50.0248 42.8219C50.096 42.916 50.096 42.9276 50.096 43.5863C50.096 43.6456 50.1076 43.8918 50.1076 43.9511C50.1076 44.3868 49.942 44.5273 49.5641 44.5273C49.4696 44.5273 48.9856 44.4925 48.8795 44.4925C48.2764 44.4925 48.2065 44.5866 48.1703 44.7516C48.1586 44.8109 48.1819 45.1164 48.1819 45.1873C48.1819 45.235 48.1703 45.4812 48.1703 45.5405C48.1703 45.9878 48.2764 46.0342 48.5715 46.0226C48.6426 46.0226 49.0089 46.0342 49.0917 46.0342C49.1396 46.0342 49.3868 46.0226 49.4463 46.0226C50.25 46.0226 50.3082 46.0575 50.3082 46.7291V47.4006Z" fill="white"/>
<path d="M53.5203 39.6224C53.6031 39.6224 53.9927 39.6456 54.0871 39.6456C54.1816 39.6456 54.6656 39.6224 54.7718 39.6224C55.0435 39.6224 55.0552 39.8931 55.0552 39.964C55.0552 40.0349 55.0435 40.1174 55.0319 40.1871C55.0202 40.3289 55.0086 40.481 55.0086 40.6228C55.0086 41.0224 55.0086 41.4117 54.9969 41.8113C54.9969 42.0111 55.0086 42.3411 55.0086 42.5409C55.0086 42.6118 54.9853 42.9405 54.9853 43.023C54.9853 43.1403 54.9969 43.7294 54.9969 43.8583C54.9969 43.9872 54.9736 44.6111 54.9736 44.7529C54.9736 44.8586 54.9853 45.3536 54.9853 45.4593C54.9853 45.6475 54.9504 46.5885 54.9504 46.8012C54.9504 46.9662 54.962 47.1428 54.962 47.3065C54.9736 47.3542 54.9853 47.5657 54.9853 47.6121C54.9853 47.7062 54.9387 47.8828 54.7019 47.9176C54.6553 47.9292 54.3706 47.9176 54.3007 47.9176C54.1713 47.9176 53.5087 47.9292 53.3676 47.9292C53.0842 47.9292 53.0842 47.6353 53.0842 47.4935V47.4703C53.0842 47.3053 53.1075 46.4932 53.1075 46.3178C53.1191 45.953 53.1075 45.3884 53.1075 45.0352C53.1075 44.8238 53.1554 43.7887 53.1554 43.5528C53.1554 43.4355 53.1321 42.858 53.1321 42.7291C53.1321 42.635 53.1554 42.2109 53.167 42.1168C53.167 41.9634 53.1554 41.2338 53.1554 41.0701C53.1554 41.0108 53.167 40.7053 53.167 40.6344C53.167 40.5519 53.1437 40.1755 53.1437 40.0814C53.1437 39.7398 53.2265 39.6224 53.5216 39.6224" fill="white"/>
<path d="M58.3281 43.4123C58.222 42.8941 58.1042 42.3772 58.0214 41.859C57.9618 41.4594 57.9386 41.0469 57.8674 40.6357C57.7613 40.0478 57.7496 39.9769 57.7496 39.8712C57.7496 39.6366 57.9502 39.6366 58.0447 39.6366C58.1159 39.6366 58.4588 39.6598 58.5287 39.6598C58.6348 39.6598 59.1434 39.625 59.2612 39.625C59.5925 39.625 59.6391 39.8016 59.687 40.013C59.7336 40.2128 59.8643 41.3073 59.8759 41.4362C59.8992 41.6476 59.9354 41.8474 59.9704 42.0601C59.9937 42.296 60.0183 42.5538 60.0299 42.8013C60.0532 43.0604 60.2072 44.3662 60.2305 44.6601C60.2305 44.7194 60.2655 45.0133 60.2655 45.0365C60.2655 45.0958 60.2771 45.2608 60.3483 45.2608C60.3962 45.2608 60.4078 45.226 60.4427 44.9424C60.4427 44.8947 60.5139 44.1535 60.5256 44.071C60.5489 43.7771 60.7145 42.3643 60.7495 42.0472C60.7495 41.9647 60.7728 41.5535 60.7844 41.4594C60.796 41.3421 60.8194 41.2235 60.8439 41.1062C60.8918 40.8715 60.8802 40.6124 60.9035 40.3765C60.9384 39.7526 60.963 39.6237 61.447 39.6237C61.5531 39.6237 62.0617 39.6585 62.1795 39.6585C62.2144 39.6585 62.3089 39.6585 62.4034 39.6469H62.6273C62.8046 39.6469 62.8991 39.7758 62.8991 39.9769C62.8991 40.071 62.8874 40.1187 62.8279 40.3417C62.745 40.6949 62.6389 41.6476 62.6273 41.7649C62.6156 41.8822 62.604 42.0124 62.5923 42.1297C62.5807 42.1761 62.3089 43.7062 62.2856 43.8364C62.2261 44.1535 62.0022 45.7184 61.931 46.0716C61.8844 46.2714 61.8366 46.4712 61.8016 46.6839C61.7783 46.7896 61.6955 47.3542 61.6722 47.4844C61.6373 47.6726 61.5894 47.9549 61.271 47.9549C61.271 47.9549 61.0342 47.9433 61.0109 47.9317C60.7508 47.9201 60.5269 47.9201 60.3612 47.9201H59.7594C59.7116 47.9201 59.511 47.9317 59.4644 47.9317C59.2275 47.9317 59.1926 47.7435 59.1576 47.5901C59.1344 47.4844 59.0153 46.9082 58.9804 46.778C58.8859 46.2727 58.7565 45.7661 58.662 45.2608C58.6025 44.9424 58.5442 44.6253 58.4963 44.3082C58.4485 44.0027 58.3902 43.7088 58.3307 43.4136" fill="white"/>
<path d="M62.8162 46.7419C62.9223 46.283 63.0052 45.8241 63.0764 45.3652C63.1242 45.012 63.1592 44.6704 63.2304 44.3301C63.2537 44.1419 63.3015 43.9537 63.3481 43.7771C63.431 43.353 63.5021 42.9302 63.5966 42.5177C63.6561 42.2354 63.7144 41.9531 63.7855 41.6708C63.8684 41.2828 63.9628 40.8819 64.034 40.4823C64.0457 40.3997 64.0573 40.3173 64.069 40.2348C64.0806 40.1523 64.1039 40.0697 64.1156 39.9872C64.1388 39.8222 64.1621 39.6224 64.3873 39.6224C64.5051 39.6224 65.0719 39.6456 65.191 39.6456C65.3101 39.6456 65.829 39.6224 65.9468 39.6224C66.1008 39.6224 66.2186 39.6224 66.2897 39.799C66.3493 39.928 66.4437 40.7878 66.4903 40.976C66.502 41.0817 66.5369 41.1758 66.5499 41.2815C66.5732 41.4104 66.5978 41.5406 66.621 41.6579C66.656 41.8693 66.7039 42.082 66.7505 42.2934C66.9744 43.2821 67.2228 45.07 67.2461 45.2814C67.3057 45.7403 67.3639 46.1992 67.4584 46.6581C67.4946 46.8348 67.5295 47.023 67.5645 47.1996C67.5878 47.2705 67.6357 47.5296 67.6357 47.6469C67.6357 47.8235 67.5179 47.9292 67.3173 47.9292C67.2345 47.9292 66.8566 47.906 66.7738 47.906C66.6676 47.906 66.2069 47.9524 66.1008 47.9524C65.6996 47.9524 65.688 47.7874 65.688 47.5412C65.688 47.4819 65.6647 47.188 65.6647 47.13C65.653 46.8825 65.6414 46.506 65.2156 46.506C65.1561 46.506 65.1211 46.5176 65.0266 46.5292C64.8972 46.564 64.8493 46.5756 64.7782 46.6942C64.6953 46.8476 64.6953 46.8708 64.672 47.518C64.6604 47.6946 64.6487 47.9292 64.2463 47.9292C64.2113 47.9292 64.1169 47.9176 64.0224 47.906C63.9279 47.8944 63.8567 47.8944 63.6561 47.8944C63.5384 47.8944 63.4193 47.8944 63.3015 47.906C63.1126 47.9292 63.0893 47.9292 62.9353 47.9292C62.6868 47.9292 62.6635 47.7642 62.6635 47.6701C62.6635 47.4342 62.7463 47.0462 62.8175 46.7407M65.0603 43.1171C65.037 43.3401 64.8481 44.4113 64.8481 44.517C64.8481 44.6704 65.0021 44.7052 65.1664 44.7052C65.2842 44.7052 65.4861 44.7052 65.4861 44.4822C65.4861 44.3765 65.2738 42.9057 65.2622 42.8464C65.2622 42.7046 65.2156 42.6466 65.1677 42.6466C65.1328 42.6466 65.0732 43.0823 65.0616 43.1171" fill="white"/>
<path d="M68.262 40.7878C68.262 40.5648 68.262 39.9176 68.3086 39.8106C68.3914 39.5992 68.6632 39.5992 68.8159 39.5992C68.9104 39.5992 69.3478 39.6108 69.4423 39.6108H69.4656C69.5717 39.6108 70.0687 39.5876 70.1748 39.576C70.4815 39.5644 70.7779 39.5528 71.0729 39.5528C71.368 39.5528 71.9711 39.5528 72.5146 40.294C72.9158 40.8355 72.9275 41.1642 72.952 42.1413C72.952 42.2586 72.987 42.8116 72.987 42.9418C72.987 43.3298 72.8576 44.1767 72.2778 44.6833C72.1367 44.8006 72.1005 44.8238 72.1005 44.9063C72.1005 44.9888 72.16 45.0713 72.2066 45.1422C72.2416 45.2131 72.2778 45.284 72.3011 45.3536C72.4551 45.7068 72.4784 45.7648 72.6557 46.2598C72.7734 46.5898 72.9275 46.9069 73.0569 47.2253C73.1035 47.331 73.1397 47.4367 73.1397 47.5553C73.1397 47.6971 73.0452 47.9085 72.7023 47.9085C72.6195 47.9085 72.195 47.8853 72.0992 47.8853C72.0164 47.8853 71.5802 47.9201 71.4845 47.9201C71.1894 47.9201 71.1648 47.7912 71.1066 47.5205C71.0716 47.3091 70.8943 46.8618 70.8943 46.8502C70.8232 46.6736 70.7533 46.497 70.6821 46.332C70.6226 46.1915 70.576 46.0497 70.5397 45.9079C70.4686 45.6256 70.422 45.4142 70.2447 45.4142C70.1153 45.4142 70.079 45.5083 70.079 45.5315C70.0441 45.614 70.0441 46.2018 70.0441 46.3204C70.0441 46.497 70.0557 46.6375 70.0557 46.7084C70.0557 46.8141 70.1023 47.3671 70.1023 47.4844C70.1023 47.5785 70.1023 47.9433 69.7477 47.9433C69.6532 47.9433 69.2275 47.9085 69.1213 47.9085C69.0269 47.9085 68.944 47.9201 68.8496 47.9317C68.8017 47.9317 68.5778 47.9666 68.5312 47.9666C68.3423 47.9666 68.2129 47.826 68.2129 47.5192V47.3903C68.2245 47.1428 68.2245 47.0964 68.2245 46.6375C68.2245 46.5086 68.2478 45.8731 68.2478 45.7313C68.2478 45.5779 68.2478 45.5315 68.2361 45.0842C68.2245 44.4848 68.2361 43.6611 68.2361 43.0488L68.2594 40.7891L68.262 40.7878ZM70.0687 42.0588C70.0687 42.3063 70.0454 42.5525 70.0454 42.8C70.0454 43.13 70.0454 43.4948 70.4466 43.4948C70.6588 43.4948 71.0846 43.3775 71.0846 42.8593C71.0846 42.8 71.0846 42.742 71.0729 42.6711C71.0729 42.5538 71.0613 41.9647 71.038 41.8358C70.9668 41.2944 70.6368 41.2944 70.4595 41.2944C70.0933 41.2944 70.0454 41.4001 70.0454 41.5999C70.0454 41.6708 70.0687 41.9879 70.0687 42.0588Z" fill="white"/>
<path d="M74.6642 39.6469C74.7587 39.6469 75.2194 39.6701 75.3139 39.6701H75.9157C76.0218 39.6701 76.5187 39.6585 76.6249 39.6585C77.2512 39.6585 77.8414 39.9885 78.1131 40.5055C78.4677 41.1874 78.5143 41.3756 78.5855 41.8938C78.5972 41.9879 78.6683 42.9882 78.68 43.1287C78.6916 43.2937 78.6916 43.4703 78.6916 43.634C78.6916 43.9395 78.6916 44.2347 78.6567 44.5286C78.645 44.6575 78.6334 44.7877 78.6217 44.9166C78.5984 45.1048 78.5984 45.3046 78.5868 45.4928C78.5635 45.7867 78.504 46.069 78.4095 46.3513C78.1144 47.1635 77.9255 47.3633 77.5709 47.5863C77.1218 47.857 76.8384 47.9034 76.3777 47.9279C76.2832 47.9395 75.7992 47.9279 75.6931 47.9279C75.6335 47.9279 75.1974 47.9279 75.0318 47.9395C74.9722 47.9395 74.6772 47.9511 74.6189 47.9511C74.43 47.9511 74.3122 47.9163 74.1698 47.7397C74.087 47.6224 74.0754 47.5399 74.0754 47.4458C74.0754 47.3285 74.1103 46.7871 74.1103 46.6698C74.1103 46.5408 74.0987 46.4222 74.0987 46.3049C74.087 45.9401 74.0637 45.07 74.0637 44.9166C74.0637 44.7748 74.087 44.1045 74.087 43.9511C74.087 43.5863 74.0637 43.2215 74.0637 42.8567C74.0637 42.3746 74.0987 41.6102 74.0987 41.1268C74.0987 41.0095 74.0637 40.4088 74.0637 40.2683C74.0637 39.7501 74.1582 39.6444 74.6655 39.6444M76.0334 41.4697C75.904 41.5406 75.904 41.6463 75.904 41.752V42.6814C75.904 42.7523 75.8924 43.1287 75.8924 43.2228C75.8924 43.2821 75.9157 43.5992 75.9157 43.6585C75.9157 43.741 75.904 43.8235 75.904 43.906C75.904 43.9524 75.9157 44.1767 75.9157 44.236C75.9157 44.3533 75.8924 44.9295 75.8924 45.0713C75.8924 45.1422 75.904 45.5418 75.904 45.6359C75.904 45.8009 75.904 46.0471 76.1525 46.0471C76.247 46.0471 76.388 45.9762 76.4243 45.953C76.5783 45.8589 76.6727 45.5289 76.6844 45.4825C76.7439 45.2595 76.7556 44.4474 76.7556 44.4358C76.7556 44.3894 76.7439 44.1058 76.7439 44.0478C76.7439 43.9769 76.7672 43.6598 76.7672 43.5773C76.7672 43.5425 76.6844 42.2122 76.6844 42.2122C76.6132 41.7301 76.4605 41.4246 76.1887 41.4246C76.1409 41.4246 76.0826 41.4362 76.0347 41.471" fill="white"/>
<path d="M79.0579 46.7419C79.164 46.283 79.2468 45.8241 79.318 45.3652C79.3659 45.012 79.4008 44.6704 79.472 44.3301C79.4953 44.1419 79.5432 43.9537 79.5898 43.7771C79.6726 43.353 79.7438 42.9302 79.8382 42.5177C79.8978 42.2354 79.956 41.9531 80.0272 41.6708C80.11 41.2828 80.2045 40.8819 80.2757 40.4823C80.2873 40.3997 80.299 40.3173 80.3106 40.2348C80.3223 40.1523 80.3456 40.0697 80.3572 39.9872C80.3805 39.8222 80.4038 39.6224 80.629 39.6224C80.7467 39.6224 81.3136 39.6456 81.4326 39.6456C81.5517 39.6456 82.0707 39.6224 82.1884 39.6224C82.3424 39.6224 82.4602 39.6224 82.5314 39.799C82.5909 39.928 82.6854 40.7878 82.732 40.976C82.7436 41.0817 82.7786 41.1758 82.7915 41.2815C82.8148 41.4104 82.8394 41.5406 82.8627 41.6579C82.8976 41.8693 82.9455 42.082 82.9921 42.2934C83.216 43.2821 83.4645 45.07 83.4878 45.2814C83.5473 45.7403 83.6055 46.1992 83.7 46.6581C83.7362 46.8348 83.7712 47.023 83.8061 47.1996C83.8294 47.2705 83.8773 47.5296 83.8773 47.6469C83.8773 47.8235 83.7595 47.9292 83.5589 47.9292C83.4761 47.9292 83.0982 47.906 83.0154 47.906C82.9093 47.906 82.4486 47.9524 82.3424 47.9524C81.9412 47.9524 81.9296 47.7874 81.9296 47.5412C81.9296 47.4819 81.9063 47.188 81.9063 47.13C81.8947 46.8825 81.883 46.506 81.4572 46.506C81.3977 46.506 81.3628 46.5176 81.2683 46.5292C81.1389 46.564 81.091 46.5756 81.0198 46.6942C80.937 46.8476 80.937 46.8708 80.9137 47.518C80.902 47.6946 80.8904 47.9292 80.4879 47.9292C80.453 47.9292 80.3585 47.9176 80.264 47.906C80.1696 47.8944 80.0984 47.8944 79.8978 47.8944C79.78 47.8944 79.6609 47.8944 79.5432 47.906C79.3542 47.9292 79.3309 47.9292 79.1769 47.9292C78.9285 47.9292 78.9052 47.7642 78.9052 47.6701C78.9052 47.4342 78.988 47.0462 79.0592 46.7407M81.3019 43.1171C81.2786 43.3401 81.0897 44.4113 81.0897 44.517C81.0897 44.6704 81.2437 44.7052 81.4081 44.7052C81.5258 44.7052 81.7277 44.7052 81.7277 44.4822C81.7277 44.3765 81.5155 42.9057 81.5038 42.8464C81.5038 42.7046 81.4572 42.6466 81.4093 42.6466C81.3744 42.6466 81.3149 43.0823 81.3032 43.1171" fill="white"/>
<path d="M88.8029 45.788C88.8029 45.9298 88.7912 46.6234 88.7912 46.7767C88.7912 46.8592 88.8145 47.2589 88.8145 47.353C88.8145 47.7294 88.7084 48.0001 87.3728 48.0001C86.0372 48.0001 85.3177 47.7294 84.8091 47.0591C84.2306 46.283 84.0184 45.2002 84.0184 44.0349C84.0184 43.7642 84.0533 43.353 84.0779 42.9998C84.1128 42.4584 84.1245 42.412 84.2552 41.9879C84.3613 41.6231 84.4208 41.4117 84.6098 41.0585C84.681 40.9412 85.1417 40.3881 85.165 40.3521C85.5079 39.9756 86.0748 39.7642 86.3349 39.6933C86.4294 39.6701 87.0208 39.5644 87.2913 39.5644C87.4919 39.5644 87.8698 39.5992 88.0121 39.6237C88.39 39.6946 88.4728 39.7062 88.5673 39.8235C88.6385 39.9292 88.6501 39.9524 88.6501 40.9296C88.6501 41.0946 88.6502 41.3421 88.6036 41.4117C88.5686 41.471 88.3913 41.5999 88.2736 41.5999C88.214 41.5999 88.0846 41.5535 87.9901 41.5174C87.8245 41.4697 87.5411 41.4465 87.4582 41.4465C87.2227 41.4465 86.8681 41.4942 86.6662 41.6231C86.5006 41.7288 86.1589 42.1297 86.0515 42.4932C85.9687 42.7755 85.9803 43.081 85.9687 43.3762C85.957 43.4819 85.9221 44.0001 85.9221 44.129C85.9221 44.6356 86.0165 45.5173 86.3 45.8821C86.4177 46.0239 86.5834 46.1296 86.7607 46.1296C86.8668 46.1296 86.938 46.0587 86.9613 46.0355C87.0441 45.9414 87.0557 45.8473 87.0557 45.6823C87.0557 45.565 87.0441 45.4464 87.0325 45.3291V44.9411C87.0208 44.8238 87.0208 44.6356 86.9729 44.5415C86.9367 44.459 86.925 44.459 86.7128 44.459C86.476 44.459 86.476 44.3533 86.4889 44.236C86.4889 44.236 86.4773 43.4123 86.4773 43.3414C86.4773 43.1764 86.4773 43.1648 86.4889 42.9302C86.5122 42.6711 86.6313 42.6002 86.7607 42.6002C86.7956 42.6002 86.9613 42.6118 87.0092 42.6118C87.1386 42.6118 87.8245 42.6234 87.8478 42.6234C87.9539 42.6234 88.0717 42.6234 88.1791 42.6118C88.2386 42.6118 88.3085 42.6002 88.3797 42.6002C88.7692 42.6002 88.8042 42.8825 88.8042 43.2473C88.8042 43.353 88.7809 43.8235 88.7809 43.9292C88.7809 44.0465 88.8042 44.6356 88.8042 44.7645V45.788H88.8029Z" fill="white"/>
<path d="M93.8578 47.4006C93.8578 47.5888 93.8345 47.8828 93.4916 47.9421C93.4088 47.9537 92.5585 47.9421 92.3928 47.9421C92.3217 47.9421 91.9917 47.9537 91.9205 47.9537C91.826 47.9537 91.4002 47.9189 91.2941 47.9189C91.1517 47.9189 90.4322 47.9537 90.2665 47.9537C90.031 47.9537 89.8408 47.8119 89.8408 47.518C89.8408 47.4703 89.8641 46.2946 89.8641 46.0703C89.8641 45.8112 89.8175 44.5402 89.8175 44.2579C89.8175 44.1522 89.8291 43.6456 89.8291 43.5283C89.8291 43.1983 89.8175 42.858 89.8175 42.528C89.8175 42.3991 89.8291 41.7984 89.8291 41.6579C89.8291 41.5522 89.8058 41.0585 89.8058 40.9399V40.5042C89.8058 40.4333 89.7942 40.1278 89.7942 40.0569C89.7942 39.8223 89.8886 39.6328 90.2083 39.6328C90.2432 39.6328 90.3507 39.6328 90.4568 39.6444C90.5629 39.6444 90.6807 39.656 90.7169 39.656C90.8826 39.656 91.6733 39.6083 91.8622 39.6083C91.9917 39.6083 92.6064 39.6315 92.7487 39.6315C92.8794 39.6315 93.0205 39.6199 93.1629 39.6199C93.6119 39.6199 93.6702 39.8197 93.6702 40.1729C93.6702 40.2902 93.6585 40.4088 93.6585 40.5261C93.6585 40.5738 93.6702 40.8432 93.6702 40.9025C93.6702 41.2905 93.5408 41.4207 93.1862 41.4207C93.0917 41.4207 92.9856 41.4091 92.8911 41.4091H92.6905C92.596 41.4091 92.5016 41.3975 92.4071 41.3975C92.3359 41.3975 92.0175 41.4091 91.9464 41.4091C91.8635 41.4091 91.7574 41.4091 91.6979 41.538C91.6513 41.6205 91.6513 41.6553 91.6616 41.9853C91.6616 42.0446 91.65 42.2792 91.65 42.3385C91.65 42.5976 91.7212 42.6917 92.0874 42.6917C92.2168 42.6917 92.5947 42.6917 92.8665 42.6801C92.961 42.6685 93.0555 42.6685 93.1499 42.6685C93.2806 42.6685 93.4696 42.6801 93.5757 42.8219C93.6469 42.916 93.6469 42.9276 93.6469 43.5863C93.6469 43.6456 93.6585 43.8918 93.6585 43.9511C93.6585 44.3868 93.4929 44.5273 93.115 44.5273C93.0205 44.5273 92.5365 44.4925 92.4304 44.4925C91.8273 44.4925 91.7574 44.5866 91.7212 44.7516C91.7095 44.8109 91.7328 45.1164 91.7328 45.1873C91.7328 45.235 91.7212 45.4812 91.7212 45.5405C91.7212 45.9878 91.8273 46.0342 92.1224 46.0226C92.1936 46.0226 92.5598 46.0342 92.6426 46.0342C92.6892 46.0342 92.9377 46.0226 92.9972 46.0226C93.8009 46.0226 93.8591 46.0575 93.8591 46.7291V47.3994L93.8578 47.4006Z" fill="white"/>
<path d="M94.756 45.9762C94.756 45.8344 94.7443 45.1525 94.7443 44.9991C94.7443 44.6691 94.7443 43.8931 94.756 43.576C94.756 43.5283 94.7793 43.1055 94.7793 43.0462C94.7793 42.7407 94.756 42.4223 94.756 42.1168C94.756 41.9634 94.7793 41.2222 94.7793 41.0572C94.7793 40.9038 94.7443 40.1626 94.7443 39.9989C94.7443 39.8223 94.8155 39.7049 94.9682 39.6817C94.9915 39.6701 95.205 39.6701 95.2516 39.6701H95.5583C95.6761 39.6701 96.2559 39.6469 96.3141 39.6469C96.538 39.6469 96.6687 39.6701 96.8344 40.1174C96.8823 40.2347 97.0583 40.8471 97.0945 40.9876C97.1773 41.2235 97.2602 41.4465 97.343 41.6695C97.4142 41.9054 97.4724 42.1516 97.5436 42.3875C97.5785 42.5525 97.8154 43.3169 97.8386 43.4935C97.8736 43.6469 97.9331 43.6701 97.9331 43.6701C97.9681 43.6701 97.9681 43.411 97.9681 43.3878C97.9681 43.3053 97.9331 42.7059 97.9202 42.4223C97.9085 42.1993 97.8969 41.975 97.8969 41.752C97.8969 41.6579 97.9085 41.199 97.9085 41.0933C97.9085 40.8574 97.8852 40.6228 97.849 40.2696C97.849 40.1871 97.8373 40.0465 97.8373 39.9396C97.8373 39.7746 97.9202 39.6689 98.0612 39.6689C98.1078 39.6689 98.3214 39.6805 98.368 39.6805H98.7808C98.9464 39.6805 99.1121 39.6805 99.2765 39.6572C99.336 39.6456 99.3942 39.634 99.4654 39.634C99.6311 39.634 99.7605 39.7049 99.7605 39.928V40.5042C99.7488 40.9399 99.7372 41.8925 99.7372 42.3514C99.7372 42.4687 99.7488 43.0694 99.7488 43.2099C99.7488 43.3981 99.7139 44.2927 99.7139 44.5041C99.7139 44.9037 99.7488 45.3046 99.7488 45.7042C99.7488 45.9749 99.7372 46.2456 99.7372 46.5047C99.7372 46.6337 99.7605 47.2937 99.7605 47.4458C99.7605 47.857 99.6194 47.9279 99.4305 47.9279C99.3826 47.9279 99.3243 47.9279 99.2648 47.9163C99.1225 47.9047 98.993 47.9047 98.8636 47.9047C98.6514 47.9047 98.509 47.9047 98.368 47.9279C98.3084 47.9279 98.1907 47.9511 98.1674 47.9511C97.9305 47.9511 97.8723 47.7745 97.6588 47.1274C97.5643 46.8103 97.4103 46.3037 97.3158 45.9865C97.2679 45.8576 97.2213 45.7158 97.1864 45.5869C97.1515 45.4696 97.1152 45.3394 97.0803 45.2221C97.0337 45.0571 96.9742 44.905 96.9263 44.74C96.8797 44.575 96.6312 43.7049 96.6196 43.7049C96.5963 43.7049 96.573 43.9047 96.573 44.0349C96.573 44.0942 96.573 44.1522 96.5846 44.2115C96.5963 44.6356 96.6079 45.0584 96.6079 45.3768C96.6079 45.5057 96.5963 46.1528 96.5963 46.2946C96.5963 46.5769 96.5963 46.6478 96.6558 47.2833C96.6558 47.3658 96.6674 47.5308 96.6674 47.6133C96.6674 47.955 96.4306 47.9549 96.3128 47.9549C96.2067 47.9549 95.6748 47.9433 95.5571 47.9433C95.4859 47.9433 95.1442 47.9549 95.0614 47.9549C94.7301 47.9549 94.7301 47.7075 94.7301 47.5669C94.7301 47.4612 94.7534 46.9314 94.7534 46.8141V45.9788L94.756 45.9762Z" fill="white"/>
</svg>
