<svg width="60" height="60" viewBox="0 0 60 60" fill="none" xmlns="http://www.w3.org/2000/svg">
<g clip-path="url(#clip0_7068_9431)">
<path d="M0 0H60V60H0V0Z" fill="#FFDD00"/>
<path d="M0 0H60V60H0V0Z" fill="#FFE600"/>
<path fill-rule="evenodd" clip-rule="evenodd" d="M112.419 20.9752C111.684 20.191 111.007 20.0402 110.537 19.9497C110.243 19.8894 109.988 19.8693 109.79 19.8537C109.691 19.8458 109.606 19.8391 109.537 19.8291C109.302 19.7989 108.861 19.7688 108.39 19.7386C108.174 19.7263 107.983 19.7089 107.804 19.6927C107.544 19.6692 107.311 19.6481 107.067 19.6481H106.832C103.715 19.618 101.215 20.7339 99.4805 22.2118C99.3629 21.7594 99.1276 21.307 98.8336 20.9752C98.0984 20.191 97.4221 20.0402 96.9516 19.9497C96.675 19.8889 96.4249 19.869 96.2282 19.8533C96.1321 19.8456 96.0488 19.839 95.9812 19.8291C95.7754 19.7989 95.3049 19.7688 94.8344 19.7386C94.6183 19.7263 94.4267 19.7089 94.2475 19.6927C93.988 19.6692 93.7547 19.6481 93.5112 19.6481H93.2759C89.4532 19.618 86.542 21.307 84.8071 23.3278L84.4542 23.7803C84.0131 22.6643 83.3368 21.7594 82.6017 21.126L82.5723 21.0959C80.6903 19.6481 78.6319 19.5576 77.1616 19.5275C74.5151 19.4973 72.3097 20.2815 70.6042 21.3673C70.516 21.1562 70.3983 20.9752 70.2513 20.7943C70.2366 20.7792 70.2292 20.7641 70.2219 20.749C70.2145 20.7339 70.2072 20.7189 70.1925 20.7038C70.1778 20.6887 70.1631 20.6661 70.1484 20.6434C70.1337 20.6208 70.119 20.5982 70.1043 20.5831C70.0838 20.5621 70.0705 20.5448 70.0531 20.5222C70.0206 20.4799 69.9738 20.4191 69.8396 20.2815C69.5456 19.9799 69.1633 19.7989 68.7516 19.7084C68.7315 19.7043 68.708 19.699 68.6812 19.693C68.5126 19.6552 68.2125 19.5878 67.7812 19.5878C66.9579 19.5878 66.3404 19.8291 65.8111 20.1307C65.6346 20.0402 65.4582 19.9497 65.2817 19.9196C64.7819 19.7688 64.3996 19.7688 64.0173 19.7688C63.877 19.7688 63.7433 19.7756 63.6036 19.7828C63.4506 19.7907 63.2902 19.7989 63.1057 19.7989C63.0281 19.7989 62.9423 19.8073 62.8613 19.8153C62.7888 19.8224 62.7202 19.8291 62.6646 19.8291H62.4882C62.3032 19.8291 62.0944 19.823 61.8645 19.8163C61.5829 19.8081 61.2697 19.7989 60.9297 19.7989C60.8995 19.7989 60.8677 19.7987 60.8341 19.7985C60.4436 19.7962 59.8285 19.7926 58.9889 20.0704C58.5479 20.2212 58.0186 20.5228 57.6069 21.0054C57.1952 21.4578 56.9305 22.0007 56.7835 22.5738C56.5777 22.1817 56.3424 21.8197 56.0484 21.5181C54.9604 20.2513 53.2254 19.4973 51.2553 19.5275C50.7848 19.5275 50.2261 19.5878 49.5203 19.7084L49.4384 19.7278C49.0795 19.8122 48.6971 19.9023 48.3147 20.0704C48.0206 19.9196 47.756 19.8592 47.5207 19.8291C47.1679 19.7688 46.8444 19.7386 46.521 19.7386C46.2857 19.7386 46.1975 19.7386 46.0505 19.7688H45.4329C45.3373 19.7828 45.2417 19.7903 45.152 19.7973C45.0486 19.8054 44.953 19.8129 44.8742 19.8291H44.7272C44.5802 19.8291 44.2862 19.7989 43.9921 19.7688L43.5804 19.7688C43.7568 19.5275 43.9039 19.2862 44.0509 19.0147L44.1685 18.8036C44.1774 18.7854 44.1863 18.7644 44.196 18.7415C44.2183 18.6886 44.2451 18.6254 44.2861 18.5623L44.3743 18.3813C44.3925 18.3627 44.3995 18.3325 44.4091 18.2908C44.415 18.2651 44.4219 18.2349 44.4332 18.2004L44.4419 18.174C44.4687 18.0944 44.4978 18.0078 44.5508 17.6273V17.386C44.5802 16.8431 44.3155 15.9382 43.7568 15.4255C43.3994 15.0589 43.0164 14.9032 42.7277 14.7859L42.6688 14.7619C41.9875 14.5756 41.5869 14.5691 41.1417 14.562C41.0105 14.5599 40.8754 14.5577 40.728 14.5508C40.3207 14.5508 39.9385 14.5594 39.5812 14.5674C39.2679 14.5744 38.9739 14.581 38.6991 14.581C38.6991 14.581 38.258 14.5508 37.9051 14.5508C37.4934 14.5206 37.1994 14.5206 36.9053 14.5206C36.1114 14.5206 35.1704 14.7016 34.4058 15.2445C34.3422 15.2989 34.2786 15.3494 34.2164 15.3987C34.106 15.4863 34 15.5704 33.9059 15.6668C33.5531 15.2144 33.0238 14.8223 32.5827 14.6413C31.9652 14.4302 31.4947 14.4 31.0536 14.4C30.9421 14.4 30.7994 14.4054 30.6341 14.4115C30.407 14.4201 30.1373 14.4302 29.848 14.4302C29.3775 14.4603 28.8482 14.4603 28.8188 14.4603C28.5088 14.4603 28.1786 14.4534 27.8346 14.4462C27.4606 14.4383 27.0704 14.4302 26.6722 14.4302C26.4663 14.4302 26.2311 14.4603 25.9958 14.4905C17.4472 14.8879 16.9958 14.9376 16.6428 14.9764C16.5672 14.9848 16.4961 14.9926 16.3508 15.0032C15.5862 15.0334 15.1157 15.3953 15.1157 15.8176C15.1157 16.2097 15.5862 16.5415 16.3508 16.632C16.578 16.6475 17.5773 16.695 18.903 16.7581C20.1512 16.8175 21.689 16.8906 23.1435 16.9637C23.0553 17.2352 23.0259 17.4765 22.9965 17.7178C22.975 17.8276 22.9848 17.9214 22.9917 17.9876C22.9943 18.0123 22.9965 18.0332 22.9965 18.0496C22.9965 18.4656 23.0483 18.7931 23.0989 19.1134C23.1144 19.2111 23.1297 19.3082 23.1435 19.4068C22.2161 19.4484 21.4441 19.4828 20.7983 19.5116C17.6967 19.6499 17.5037 19.6585 16.9683 19.7084C16.2038 19.7386 15.7333 20.1005 15.7333 20.5228C15.7333 20.9149 16.2038 21.2467 16.9683 21.3372C17.2153 21.3541 18.3202 21.4088 19.761 21.4802C20.8929 21.5362 22.2321 21.6026 23.5258 21.6689L23.8198 24.0819C19.3566 24.3046 18.4562 24.3446 17.9195 24.3684C17.802 24.3736 17.702 24.3781 17.5858 24.3835C16.8213 24.4136 16.3508 24.7756 16.3508 25.1978C16.3508 25.5899 16.8213 25.9217 17.5858 26.0122C17.8303 26.0289 18.9058 26.0827 20.3118 26.153C21.4423 26.2095 22.7872 26.2768 24.0845 26.344L24.1433 26.7662L24.1727 26.8869C24.2315 27.2488 24.2903 27.7013 24.3197 28.0934C24.3197 28.1838 24.3197 28.2442 24.3491 28.3347C24.2609 28.4553 24.1433 28.6061 24.0257 28.7268C18.672 28.9882 17.8714 29.023 17.3124 29.0473L17.0565 29.0585C16.292 29.0887 15.8215 29.4506 15.8215 29.8729C15.8215 30.265 16.292 30.5968 17.0565 30.6873C17.4388 30.7174 19.7912 30.8381 22.3201 30.9587L20.4088 33.4018C15.1518 33.6586 14.2636 33.6967 13.6984 33.721L13.4102 33.7336C12.6457 33.7637 12.1752 34.1257 12.1752 34.5479C12.1752 34.94 12.6457 35.2718 13.4102 35.3623C13.7925 35.3925 16.1743 35.5131 18.7032 35.6338L18.3798 36.0259L18.2621 36.2068C18.228 36.2419 18.1541 36.3482 18.0635 36.4785C17.9983 36.5725 17.9244 36.6788 17.8505 36.7799L17.5858 37.1418C17.5564 37.1871 17.5344 37.2248 17.5123 37.2625C17.4902 37.3002 17.4682 37.3379 17.4388 37.3831C17.2624 37.6244 17.0565 37.8657 16.8507 38.107C12.1211 38.3275 11.1558 38.3689 10.5976 38.3928C10.4687 38.3983 10.3613 38.403 10.2344 38.4086C9.46986 38.4388 8.99937 38.8007 8.99937 39.223C8.99937 39.6151 9.46986 39.9469 10.2344 40.0373C10.5873 40.0675 12.8221 40.1882 15.2334 40.2786C15.2187 40.3088 15.1966 40.3465 15.1746 40.3842C15.1525 40.4219 15.1304 40.4596 15.1157 40.4898L15.1093 40.5021C14.8768 40.9493 14.6736 41.3401 14.557 41.9677V42.3899C14.557 42.5106 14.557 42.6312 14.5864 42.7519L11.8756 42.8769C8.00494 43.0551 7.82575 43.0633 7.23504 43.1138C6.47049 43.144 6 43.5059 6 43.9282C6 44.3203 6.47049 44.6521 7.23504 44.7425C8.02899 44.8029 16.1449 45.195 17.1447 45.2251C17.38 45.2553 17.5564 45.2553 17.6446 45.2553C17.9813 45.2553 18.2951 45.2319 18.6464 45.2057L18.7914 45.195C18.9973 45.195 19.2031 45.195 19.409 45.1648H19.703C19.7627 45.1648 19.8828 45.1683 20.0419 45.1728C20.3533 45.1818 20.814 45.195 21.2615 45.195L21.4874 45.2051C22.0742 45.2315 22.6017 45.2553 22.967 45.2553C23.3787 45.2553 23.6434 45.195 24.1139 45.0442C24.5255 44.8934 25.0843 44.6521 25.5841 44.1092C25.696 43.9944 25.7488 43.9282 25.7874 43.8797C25.8097 43.8517 25.8273 43.8296 25.8488 43.8075C26.1429 44.2901 26.731 44.8029 27.3191 45.014C27.9072 45.2553 28.4659 45.3156 29.1128 45.3156C29.5245 45.3156 29.8774 45.2855 30.3185 45.2251C30.4177 45.2106 30.5169 45.2031 30.6129 45.1958C30.7159 45.188 30.8152 45.1804 30.9066 45.1648H31.1418C31.1981 45.1648 31.263 45.1692 31.3431 45.1747C31.4723 45.1835 31.641 45.195 31.877 45.195C32.1416 45.2251 32.4063 45.2553 32.7297 45.2553C32.7885 45.8284 33.0532 46.6126 33.7001 47.1555C34.4058 47.7889 35.2292 47.9397 35.9349 47.9397C36.1408 47.9397 36.4937 47.9397 36.8465 47.9095C37.1203 47.9095 37.4119 47.8914 37.5425 47.8832C37.5802 47.8809 37.6045 47.8794 37.611 47.8794C38.1698 47.8794 38.9049 47.8794 39.1401 47.9095C39.1765 47.9142 39.2157 47.9196 39.2577 47.9253C39.4873 47.9569 39.801 48 40.1987 48H40.2576C41.2574 48 42.2277 47.5476 42.7864 46.9745C43.0217 46.7332 43.2275 46.4618 43.404 46.13L43.5804 45.768C43.5969 45.7342 43.6041 45.7003 43.6125 45.6611C43.6191 45.6305 43.6263 45.5966 43.6392 45.5569C43.6451 45.5388 43.651 45.5243 43.6568 45.5099C43.6804 45.452 43.7039 45.3941 43.7274 45.1045C44.1097 45.1648 44.492 45.195 44.9331 45.195C47.5796 45.195 49.6968 44.0488 51.1376 42.6916C51.1965 43.0233 51.3141 43.3551 51.4905 43.6567C51.961 44.4711 52.7255 44.833 53.196 44.9838C53.5578 45.093 53.8426 45.1073 54.0615 45.1184C54.1451 45.1226 54.2191 45.1263 54.284 45.1346C54.5921 45.1346 55.0122 45.1117 55.4856 45.0858L55.6955 45.0743C56.2248 45.0442 56.8129 45.014 56.8717 45.014H56.9011C56.962 45.014 57.0482 45.0192 57.1491 45.0252C57.2918 45.0338 57.464 45.0442 57.6363 45.0442C57.9303 45.0743 58.1656 45.0743 58.4008 45.0743C58.9007 45.0743 60.3416 45.0442 60.9591 44.7727C61.5766 44.5013 62.1059 43.9885 62.4 43.5361C62.6352 43.2043 62.8999 42.7821 63.0763 42.2693C63.096 42.2137 63.1199 42.153 63.1458 42.087C63.2594 41.7979 63.4125 41.4081 63.4299 40.9058C63.46 41.6548 63.7821 42.2391 63.7821 42.2391C64.3702 43.7171 65.2229 44.4711 67.1343 44.9235H67.1931C68.5164 45.2553 70.7512 45.2553 72.1039 45.2553C73.5153 45.2553 74.9562 45.1346 76.2795 44.8632C76.9264 44.7124 77.5439 44.5616 78.1614 44.3203C78.2537 44.273 78.346 44.2303 78.44 44.1868C78.5858 44.1194 78.7357 44.05 78.8966 43.9584C79.3376 44.5013 79.8669 44.7727 80.3374 44.9235L80.3962 44.9537C81.5431 45.3156 82.8663 45.4966 84.0719 45.4966C85.6304 45.4966 86.7773 45.4664 87.8653 45.2553C88.9533 45.0743 89.9531 44.6822 90.8646 44.1996C91.3057 43.9584 91.7174 43.6869 92.1291 43.4154C92.1879 43.5662 92.2761 43.6869 92.3937 43.8075C92.8642 44.4409 93.4523 44.7425 93.9522 44.9235L94.011 44.9537C95.1579 45.3156 96.4811 45.4966 97.6868 45.4966C99.2453 45.4966 100.392 45.4664 101.48 45.2553C102.568 45.0743 103.568 44.6822 104.479 44.1996C106.097 43.325 107.479 42.0582 108.479 40.6104L108.508 40.5803C109.096 39.6754 109.537 38.7102 109.831 37.8054C110.125 36.9005 110.331 36.0862 110.39 35.302C110.419 35.0909 110.419 34.8798 110.419 34.6989C110.419 33.8846 110.302 33.1002 110.037 32.316C109.949 32.0446 109.861 31.773 109.743 31.5318C109.722 31.489 109.705 31.4501 109.689 31.4136C109.66 31.3471 109.634 31.2886 109.596 31.2302C109.567 31.2 109.537 31.1397 109.537 31.1095C109.361 30.7777 109.184 30.446 108.949 30.1443C109.331 30.1142 109.655 30.0237 110.037 29.8729C110.478 29.6919 110.978 29.4506 111.478 28.968C111.684 28.7569 111.89 28.5458 112.037 28.2743C112.096 28.1838 112.125 28.1235 112.125 28.0934L112.272 27.8219C112.551 27.1775 112.646 26.6652 112.703 26.3599C112.718 26.2798 112.73 26.2132 112.742 26.163C112.801 25.982 112.948 25.5598 113.095 25.1375C113.184 24.8962 113.242 24.6851 113.301 24.4438C113.316 24.3835 113.331 24.3307 113.345 24.2779C113.36 24.2251 113.375 24.1724 113.389 24.112L113.4 24.0677C113.426 23.9655 113.452 23.8632 113.478 23.5993V23.2977C113.184 22.3023 112.889 21.488 112.419 20.9752ZM114.33 22.2722C114.33 21.0054 115.33 19.9799 116.565 19.9799C117.8 19.9799 118.8 21.0054 118.8 22.2722C118.8 23.539 117.8 24.5645 116.565 24.5645C115.33 24.5645 114.33 23.539 114.33 22.2722ZM116.536 20.3418C117.624 20.3418 118.447 21.1864 118.447 22.2722C118.447 23.358 117.624 24.2327 116.536 24.2327C115.448 24.2327 114.624 23.358 114.624 22.2722C114.624 21.1864 115.477 20.3418 116.536 20.3418ZM116.683 21.0054C117.389 21.0054 117.536 21.3975 117.536 21.7293C117.536 22.0309 117.33 22.3023 116.977 22.3928L117.506 23.5993H117.153L116.653 22.4531H116.153V23.5993H115.859V21.0054H116.683ZM116.565 22.1515H116.153V21.2768H116.624C116.947 21.2768 117.153 21.3975 117.153 21.7293C117.153 21.9706 117.065 22.1515 116.565 22.1515Z" fill="#FF0000"/>
<path fill-rule="evenodd" clip-rule="evenodd" d="M26.766 20.18C26.7709 20.1994 26.7759 20.2193 26.7809 20.2402C26.7809 20.2402 27.5126 26.4203 27.5418 26.4203C27.7174 27.3641 27.8052 28.6123 27.8052 28.7645C27.776 28.9776 27.6882 29.1603 27.6004 29.3125C27.504 29.4929 27.0521 30.0564 26.7047 30.4896C26.5246 30.7142 26.3726 30.9038 26.3126 30.9869L21.3081 37.4715C21.2527 37.5723 21.0859 37.8095 20.9163 38.0507C20.7274 38.3193 20.5349 38.593 20.4887 38.6892C20.2838 38.9632 20.0716 39.2296 19.8595 39.496C19.6473 39.7624 19.4351 40.0288 19.2302 40.3027C18.2352 41.551 18.0303 42.0685 18.0011 42.2816C17.9718 42.7992 18.5571 42.7992 18.7327 42.7992C18.9083 42.7992 19.3473 42.7687 19.757 42.7383C20.0017 42.7383 20.2828 42.7257 20.4833 42.7167C20.5946 42.7117 20.681 42.7078 20.7228 42.7078C20.8376 42.7078 21.011 42.7125 21.2217 42.7182C21.548 42.727 21.9644 42.7383 22.391 42.7383C23.0641 42.7687 23.7665 42.7992 24.0006 42.7992C24.1177 42.7992 24.6152 42.7383 24.9664 42.3729C25.2005 42.1598 27.2199 38.9023 27.5711 38.0803C27.7468 37.7149 28.1857 36.8017 28.332 36.619C28.3682 36.619 28.3932 36.6074 28.4277 36.5913C28.4491 36.5814 28.4741 36.5698 28.5076 36.5581L28.4198 37.6541C28.4256 37.7199 28.4336 37.9313 28.4449 38.2315C28.4915 39.4601 28.5944 42.1767 28.8295 42.4947C28.9173 42.6774 29.21 42.8905 30.088 42.8905C30.2528 42.8905 30.6937 42.8506 31.1241 42.8117C31.5344 42.7745 31.9352 42.7383 32.0781 42.7383C32.2428 42.7383 32.3923 42.7462 32.5381 42.754C32.6771 42.7615 32.8133 42.7687 32.9561 42.7687C33.278 42.7992 33.5999 42.8296 33.834 42.8296C34.2438 42.8296 35.7071 42.8296 35.8242 41.5205C35.8242 41.3074 35.7949 40.9116 35.473 38.2934C35.3852 37.5933 35.312 36.8856 35.2388 36.1778C35.1657 35.47 35.0925 34.7619 35.0047 34.0617C34.8876 33.6964 34.6535 31.9307 34.6242 31.6871L34.6025 31.5831C34.4559 30.883 34.2452 29.8762 34.273 29.5865C34.273 29.4716 34.3397 29.3221 34.4101 29.1641C34.433 29.1127 34.4563 29.0604 34.4779 29.008L40.0092 21.8841C40.3137 21.4882 40.628 21.0998 40.9415 20.7125C41.7126 19.7597 42.4787 18.8131 43.0822 17.7742C43.1407 17.6524 43.2285 17.4393 43.2285 17.4089C43.287 16.9522 42.8188 16.9218 41.7359 16.9218C41.4029 16.9218 41.0771 16.9292 40.7478 16.9368C40.4115 16.9444 40.0715 16.9522 39.7165 16.9522C39.5621 16.9522 39.1385 16.9353 38.7385 16.9192C38.3807 16.9049 38.0419 16.8913 37.9313 16.8913C36.8777 16.8913 36.5265 17.2871 35.9997 18.1395C34.5072 20.4228 34.2438 20.8795 33.5999 22.1886L33.4243 22.219L33.5121 21.2753C33.5314 21.0544 33.5253 20.86 33.5188 20.6571C33.5155 20.5524 33.5121 20.4455 33.5121 20.3315C33.4975 20.0575 33.4609 19.7911 33.4243 19.5247C33.3877 19.2584 33.3512 18.992 33.3365 18.718C33.3365 18.2918 33.3365 17.9264 33.278 17.5307C33.1902 17.0131 32.9561 16.8 32.1073 16.8C31.9464 16.8 31.4708 16.8152 30.9952 16.8304C30.5197 16.8457 30.0441 16.8609 29.8831 16.8609C29.5136 16.8609 29.1515 16.8531 28.7931 16.8454C28.4419 16.8379 28.0943 16.8304 27.7467 16.8304C26.898 16.8304 26.459 17.1958 26.4004 17.896C26.3723 18.3054 26.5602 19.1641 26.7048 19.8248L26.7224 19.9053C26.7224 20.0062 26.7425 20.0863 26.766 20.18ZM39.6873 32.9962C39.5702 33.4224 39.541 33.5137 39.4239 33.8486L37.2582 41.3378C36.8485 42.7687 36.7899 42.9514 36.1168 44.5954C36.1083 44.6131 36.0998 44.6302 36.0914 44.6469C36.0425 44.745 35.9997 44.8307 35.9997 44.9607C35.9705 45.1433 36.0583 45.5391 36.8777 45.5391C37.037 45.5391 37.4563 45.5301 37.8385 45.5219C38.1584 45.515 38.4526 45.5087 38.5459 45.5087C39.1605 45.5087 39.9214 45.5087 40.3311 45.5391L40.4559 45.5523C40.6934 45.5778 40.9007 45.6 41.1506 45.6C42.1164 45.6 42.3505 44.8998 42.3505 44.8693C42.3798 44.4431 42.7017 42.5556 43.0236 42.2512C43.0529 42.1903 43.1407 42.1294 43.2285 42.1294H43.2578C43.5059 42.1552 43.733 42.2904 43.9569 42.4238C43.9971 42.4477 44.0371 42.4716 44.0772 42.4947C44.4577 42.6469 45.1893 42.7992 45.8332 42.7992C50.3109 42.7992 52.3303 38.5674 53.0326 36.9844C53.9692 34.8533 54.613 32.6309 55.0813 30.9564L55.3127 30.1089C55.7496 28.5097 55.9088 27.9268 55.9593 27.6381C55.972 27.5454 56.0234 27.2342 56.0775 26.9069C56.1478 26.4813 56.2227 26.0285 56.2227 25.9941C56.369 24.1674 55.3739 21.8841 52.301 21.8841C51.7157 21.8841 50.428 22.0364 49.6378 22.5844C49.55 22.6452 49.4654 22.7095 49.3809 22.7738C49.2118 22.9023 49.0427 23.0309 48.8476 23.1323H48.7305C48.6135 23.1323 48.5549 23.0715 48.5842 22.8888L48.5855 22.8666C48.6141 22.3643 48.6276 22.1277 47.5891 22.1277C47.5317 22.1277 47.4338 22.1324 47.3148 22.1381C47.1304 22.1469 46.8953 22.1581 46.6819 22.1581L46.4748 22.1737C46.1494 22.1981 45.8716 22.219 45.7746 22.219C45.6576 22.219 45.2479 22.1886 44.8381 22.1581C44.5811 22.1581 44.3375 22.1442 44.1794 22.1352C44.1034 22.1309 44.0472 22.1277 44.0187 22.1277C43.5502 22.1277 43.2115 22.4246 43.027 22.5863L42.9944 22.6148C42.7144 23.0517 42.6576 23.2564 42.4385 24.0465C42.3827 24.2474 42.3165 24.4862 42.2334 24.7763C42.2334 24.9285 41.2677 28.3078 40.2433 31.2C40.0385 31.7784 39.8629 32.3569 39.6873 32.9962ZM46.637 29.983L46.5941 30.1345C46.3772 30.9806 46.0975 31.8137 45.8161 32.6519C45.49 33.6231 45.1616 34.6012 44.9259 35.6144C44.8674 35.797 44.8089 35.9797 44.8089 36.1624C44.7503 36.8626 45.2479 37.2888 45.7161 37.2888C46.7404 37.2888 47.3257 36.0406 47.3257 35.9797C47.4143 35.7585 47.9642 34.0198 48.4428 32.5064C48.7547 31.5201 49.0363 30.6294 49.1403 30.3171C49.4098 29.4059 49.5242 28.7278 49.576 28.4204C49.5917 28.3273 49.6017 28.2682 49.6085 28.2469C49.6378 27.8512 49.55 27.5772 49.4329 27.4858C49.3158 27.3336 49.0817 27.2727 48.8476 27.2727C48.5549 27.2423 48.0574 27.3945 47.7062 27.6989C47.1288 28.2423 46.8614 29.1888 46.637 29.983ZM68.7193 22.0364C67.4901 22.0364 65.9976 23.8934 65.6171 24.5023C65.5195 24.6647 65.474 24.7188 65.4285 24.7729C65.4057 24.8 65.383 24.8271 65.3537 24.8677C65.3784 24.7906 65.4239 24.6214 65.4727 24.4401C65.5396 24.1917 65.6125 23.9205 65.6464 23.8326C65.6464 23.7455 65.7325 23.4595 65.8117 23.1963C65.871 22.9991 65.9265 22.8148 65.939 22.7366C65.9683 22.4017 65.7634 22.219 65.0025 22.219C64.8625 22.219 64.4995 22.2362 64.1592 22.2523C63.8591 22.2665 63.5767 22.2799 63.4807 22.2799C63.2173 22.2799 62.9539 22.2723 62.6905 22.2647C62.4271 22.2571 62.1637 22.2495 61.9003 22.2495C61.1979 22.2495 60.2614 22.2495 59.998 23.315C59.9555 23.4367 59.8782 23.687 59.7913 23.9681C59.6393 24.4604 59.4579 25.0475 59.3834 25.2025C59.3249 25.5374 58.9737 26.877 58.8566 27.1814C58.564 28.1252 58.242 29.1298 57.9201 30.0736C57.4226 31.748 56.925 33.4224 56.369 35.0968C55.8422 36.5581 55.7837 36.7408 55.6081 37.4106C55.5496 37.6084 55.4911 37.8214 55.4326 38.0344C55.374 38.2475 55.3154 38.4609 55.2569 38.6588C55.1105 39.1611 54.9496 39.6558 54.7886 40.1505C54.6277 40.6452 54.4667 41.14 54.3204 41.6423C54.3088 41.7023 54.2927 41.7576 54.2775 41.81C54.2541 41.8905 54.2326 41.9643 54.2326 42.0381C54.174 42.7078 54.6716 42.7687 55.1105 42.7687C55.3233 42.7687 55.9146 42.7359 56.4833 42.7043C57.0098 42.6751 57.5172 42.6469 57.686 42.6469C57.803 42.6469 58.125 42.6622 58.4469 42.6774C58.7688 42.6926 59.0907 42.7078 59.2078 42.7078C59.8517 42.7078 60.1443 42.5556 60.3785 42.1903C60.7882 41.6118 60.8467 41.3987 60.9638 40.5159C60.9735 40.455 60.9865 40.3941 60.9995 40.3332C61.0256 40.2114 61.0516 40.0896 61.0516 39.9679C61.2419 39.1218 61.5244 38.2969 61.8082 37.4682C62.0043 36.8955 62.2011 36.3209 62.3686 35.7362C62.5194 35.2654 62.6521 34.7851 62.7851 34.3034C63.0649 33.2902 63.3464 32.271 63.8026 31.3218C64.4757 30.0127 65.4708 29.2516 66.1146 29.2516C66.1585 29.2516 66.3049 29.282 66.4512 29.3125C66.5975 29.3429 66.7439 29.3734 66.7878 29.3734C67.423 29.3734 67.6594 28.5733 67.778 28.1718L67.7828 28.1556C67.9032 27.7055 68.0067 27.3163 68.0971 26.9758L68.0977 26.9735C68.6004 25.0818 68.703 24.6956 69.0998 23.7412C69.1435 23.6093 69.1814 23.4957 69.2141 23.3974L69.2147 23.3958C69.4006 22.838 69.4217 22.7746 69.4217 22.6452C69.4217 22.6148 69.4217 22.5539 69.3924 22.4017C69.3632 22.3408 69.2168 22.1277 69.1876 22.0973C69.0412 22.0668 68.8949 22.0364 68.7193 22.0364ZM66.9341 33.6051C66.9926 33.4072 67.0658 33.1408 67.1316 32.901C67.1974 32.6614 67.256 32.4481 67.2853 32.3569C67.3438 32.1438 68.3389 29.4038 68.4852 29.0994C69.0412 27.6381 71.324 22.0059 78.0552 22.0059C79.4015 22.0059 80.894 22.1581 82.0354 23.0715C82.8841 23.7717 83.6743 25.2025 83.4987 27.2727C83.4411 27.9622 83.1564 29.0354 82.9242 29.9111L82.9134 29.9518C82.8249 30.1755 82.5996 30.8484 82.3606 31.5626C82.0466 32.5009 81.7088 33.5104 81.6257 33.666C81.5379 33.7877 80.7477 34.7619 79.8405 34.7619C79.7487 34.7619 79.4969 34.7453 79.2566 34.7294C79.0372 34.7149 78.8274 34.7011 78.7576 34.7011C78.5966 34.7011 78.1503 34.7315 77.704 34.7619C77.2577 34.7924 76.8114 34.8228 76.6504 34.8228C76.4524 34.8228 75.8579 34.8086 75.2435 34.7939C74.5867 34.7782 73.9072 34.7619 73.6653 34.7619C73.3434 34.7619 72.4069 34.7619 72.2898 36.071C72.2605 36.4973 72.3776 36.8017 72.4361 36.893C72.9336 37.8977 74.2214 37.9281 74.8652 37.9281C76.4456 37.9281 76.709 37.8672 78.3771 37.2279C78.4552 37.2099 78.5307 37.1891 78.6044 37.1689C78.7793 37.1209 78.9441 37.0757 79.1088 37.0757C79.6649 37.0757 80.0746 37.4715 80.0453 37.8368C80.0453 37.9586 80.0453 37.989 79.8697 38.3543C79.8112 38.4761 79.3429 39.8156 79.1088 40.6681C79.056 40.842 79.0191 40.9774 78.9893 41.0867C78.92 41.3408 78.8892 41.4537 78.7869 41.5814C78.1723 42.4643 75.3335 42.9514 72.8166 42.9514C71.5874 42.9514 70.4167 42.8296 69.451 42.5556C66.6122 41.6423 65.9976 39.2372 66.1732 37.1975C66.261 35.9493 66.5829 34.7315 66.9341 33.6051ZM76.7968 30.2867C76.5334 30.5302 76.0066 30.5302 75.8017 30.5302H74.7189C74.1921 30.5302 74.0458 30.378 74.075 29.8909C74.075 29.7691 74.3969 28.3383 74.953 27.5163C75.5969 26.603 76.2407 26.603 76.5334 26.603C77.6748 26.603 77.6748 27.4249 77.6455 27.8207C77.6455 27.8512 77.2943 29.7996 76.7968 30.2867ZM94.3565 22.0973C94.615 22.0973 95.6853 22.1954 96.2786 22.2499C96.424 22.2632 96.5408 22.2739 96.61 22.2799L96.6413 22.2815C97.2549 22.3116 98.1308 22.3547 98.0733 23.1628C98.044 23.4063 97.5757 24.8981 97.4587 25.233C97.4166 25.386 97.3859 25.5509 97.3543 25.7204C97.298 26.023 97.2387 26.3408 97.1075 26.6334C97.0861 26.6705 97.0664 26.7076 97.0472 26.7438C96.9877 26.8562 96.9326 26.9601 96.8441 27.0292C96.4929 27.4249 95.8198 27.6076 95.5271 27.6076H95.41C95.3099 27.6076 95.0385 27.4987 94.7911 27.3995C94.6047 27.3247 94.4319 27.2554 94.3565 27.2423C94.1516 27.1814 93.9467 27.1814 93.7126 27.1814C92.22 27.1814 92.0444 28.1252 92.0444 28.2469C92.0184 28.6268 92.248 29.0308 92.3811 29.2651C92.3973 29.2937 92.4122 29.3197 92.4249 29.3429C92.6256 29.6387 92.8645 29.9344 93.1034 30.2301C93.2826 30.4519 93.4618 30.6738 93.6248 30.8956C93.9467 31.2913 94.2394 31.748 94.4443 32.1742C94.5613 32.3264 95.1467 33.5746 95.0003 35.0359C94.9125 35.9797 94.3857 37.8672 93.5077 39.2372C92.7761 40.3332 91.6347 41.3987 90.347 42.0989C88.8252 42.9514 87.6545 43.134 84.6694 43.134C83.7621 43.134 82.5037 42.9514 81.7428 42.7078C81.1574 42.4947 81.1282 42.1903 81.1574 41.8554C81.1867 41.6423 81.2452 41.4292 81.333 41.1552C81.356 41.0836 81.4193 40.9093 81.4914 40.7109C81.6034 40.4028 81.7364 40.0366 81.772 39.907C81.9476 39.3895 82.0647 38.8415 82.1817 38.2936C82.4744 37.2585 83.4695 37.1061 83.6158 37.1061C83.7036 37.1061 83.7328 37.1061 83.8499 37.1366C84.0445 37.1872 84.2188 37.2798 84.4065 37.3795C84.4306 37.3923 84.4549 37.4052 84.4794 37.4182C84.4939 37.4258 84.5084 37.4334 84.523 37.441C84.962 37.5932 85.401 37.6237 85.8986 37.6237C86.718 37.6237 86.9521 37.5932 87.3911 37.3801C87.9472 37.0757 88.1813 36.7408 88.2106 36.2841C88.2106 36.1812 88.1687 35.9695 88.1381 35.8145L88.1228 35.7362C87.9725 35.3118 87.6016 34.9693 87.2414 34.6367C87.1106 34.5159 86.9812 34.3964 86.8643 34.2748C86.5717 33.94 85.9863 33.2093 85.723 32.5091C85.6937 32.4482 85.2254 30.7738 85.3132 29.6778C85.5181 27.3945 87.7423 22.1581 94.0931 22.1581L94.3565 22.0973ZM109.8 22.2499C109.206 22.1954 108.136 22.0973 107.877 22.0973L107.643 22.1581C101.293 22.1581 99.0683 27.3945 98.8635 29.6778C98.7757 30.7738 99.2439 32.4482 99.2732 32.5091C99.5366 33.2093 100.122 33.94 100.415 34.2748C100.531 34.3965 100.661 34.5159 100.792 34.6367C101.152 34.9693 101.523 35.3118 101.673 35.7362C101.678 35.7597 101.683 35.7863 101.688 35.8147C101.719 35.9697 101.761 36.1812 101.761 36.2841C101.732 36.7408 101.497 37.0757 100.941 37.3801C100.502 37.5932 100.268 37.6237 99.4488 37.6237C98.9513 37.6237 98.5123 37.5932 98.0733 37.441C98.0337 37.4204 97.9949 37.3998 97.9567 37.3795C97.769 37.2798 97.5947 37.1872 97.4002 37.1366C97.2831 37.1061 97.2538 37.1061 97.166 37.1061C97.0197 37.1061 96.0246 37.2584 95.732 38.2934C95.6149 38.8414 95.4978 39.3895 95.3223 39.907C95.2867 40.0366 95.1536 40.4026 95.0417 40.7107C94.9696 40.9092 94.9062 41.0836 94.8833 41.1552C94.7955 41.4292 94.7369 41.6423 94.7077 41.8554C94.6784 42.1903 94.7077 42.4947 95.293 42.7078C96.0539 42.9514 97.3124 43.134 98.2196 43.134C101.205 43.134 102.375 42.9514 103.897 42.0989C105.156 41.3987 106.326 40.3332 107.058 39.2372C107.936 37.8672 108.463 35.9797 108.551 35.0359C108.668 33.5746 108.082 32.3264 107.965 32.1742C107.76 31.748 107.468 31.2913 107.146 30.8956C106.983 30.6738 106.804 30.452 106.624 30.2302C106.385 29.9344 106.147 29.6387 105.946 29.3429C105.933 29.3197 105.918 29.2937 105.902 29.2651C105.769 29.0308 105.539 28.6268 105.565 28.2469C105.565 28.1252 105.741 27.1814 107.234 27.1814C107.468 27.1814 107.673 27.1814 107.877 27.2423C107.953 27.2554 108.126 27.3247 108.312 27.3995C108.559 27.4987 108.831 27.6076 108.931 27.6076H109.048C109.341 27.6076 110.014 27.4249 110.365 27.0292C110.454 26.9601 110.509 26.8562 110.568 26.7438C110.587 26.7076 110.607 26.6705 110.628 26.6334C110.738 26.3475 110.802 26.0377 110.864 25.7414C110.9 25.5645 110.936 25.3923 110.98 25.233C111.097 24.8981 111.565 23.4063 111.594 23.1628C111.68 22.3559 110.78 22.3117 110.165 22.2816L110.131 22.2799C110.062 22.2739 109.945 22.2632 109.8 22.2499Z" fill="white"/>
</g>
<defs>
<clipPath id="clip0_7068_9431">
<rect width="60" height="60" fill="white"/>
</clipPath>
</defs>
</svg>
