<svg width="60" height="60" viewBox="0 0 60 60" fill="none" xmlns="http://www.w3.org/2000/svg">
<g clip-path="url(#clip0_7068_9403)">
<path d="M0 0H60V60H0V0Z" fill="#FFE600"/>
<path d="M0 0H60V60H0V0Z" fill="#FFDD00"/>
<path d="M0 0H60V60H0V0Z" fill="#FFE600"/>
<path fill-rule="evenodd" clip-rule="evenodd" d="M14.487 42.9839C14.487 41.8604 14.3247 35.434 14.3247 35.434C14.3442 34.5959 15.3611 34.8453 15.5755 35.3084C15.7882 35.7733 18.0375 42.1269 18.4651 43.3783C18.8737 44.5631 19.4727 44.5914 20.0832 44.6204L20.1791 44.6251C20.8217 44.6623 23.3066 44.6606 24.6583 44.6446C26.0117 44.6274 26.132 43.4528 25.6763 42.4084C25.2974 41.5382 20.6881 29.4168 20.4749 28.7765C20.2599 28.1334 20.4021 27.2059 20.5448 26.8476C20.5893 26.7371 20.9567 25.9705 21.4688 24.9019C22.6111 22.5183 24.4734 18.6324 25.0785 17.1744C25.9572 15.0621 24.6921 15.0334 24.0082 15.0334C23.868 15.0328 23.6251 15.0288 23.3187 15.0238C22.1346 15.0044 20.0018 14.9695 19.1794 15.0546C18.1453 15.1635 17.8587 16.3043 17.8587 16.3043C17.5165 16.9635 16.3552 19.6756 15.6998 21.2063C15.468 21.7477 15.2994 22.1414 15.2528 22.244C15.0757 22.6373 14.1293 22.7083 14.1648 22.1729C14.1992 21.6381 14.3081 17.4249 14.2708 16.6046C14.2353 15.7826 13.8438 15.0701 13.1376 15.0741C12.4314 15.0804 8.5426 15.0334 8.5426 15.0334C7.79282 15.1406 7.15081 15.4083 7.20297 16.3719C7.24138 17.034 7.31189 43.251 7.31189 43.251C7.31189 44.2152 7.95275 44.7512 8.86418 44.7512C9.0631 44.7512 9.30812 44.7537 9.58301 44.7565L9.5858 44.7566C10.5678 44.7667 11.9299 44.7808 12.9329 44.6984C14.2181 44.5912 14.487 44.1092 14.487 42.9839ZM43.072 42.8418C43.072 43.5549 43.0015 44.0203 42.1801 44.3052C41.3592 44.5912 37.8259 44.9478 35.3616 44.8406C31.9726 44.6938 30.1154 44.1619 28.5442 42.4852C26.9724 40.8062 25.9154 38.6297 25.9721 33.203C26.0237 28.491 26.4381 25.4214 29.6144 23.1732C32.7425 20.9589 39.3248 21.4587 41.5725 24.1718C41.5725 24.1718 43.5306 25.8869 43.5868 29.9906C43.6273 32.9241 43.5975 33.2526 43.5655 33.6048C43.5555 33.7153 43.5452 33.8281 43.5369 34.0244C43.5008 34.8447 42.8232 35.9527 41.6814 35.9527C41.6814 35.9527 35.4349 35.8799 34.5418 35.8799C33.6499 35.8799 33.1495 36.8074 33.4711 37.5222C33.7926 38.2365 34.2449 39.1129 36.6112 39.2356C38.6834 39.3439 40.8353 38.7197 41.3942 38.5231C41.9542 38.327 42.8232 38.3087 42.9648 39.3795C43.0875 40.2927 43.0789 41.6453 43.0737 42.4674C43.0728 42.6098 43.072 42.7362 43.072 42.8418ZM51.7346 44.7328C52.8415 44.7328 52.9831 43.6987 52.9126 42.3419C52.8415 40.9857 52.947 31.3119 53.0198 30.3477C53.0914 29.3841 53.4474 28.3839 54.4104 28.3839C55.3763 28.3839 55.7764 29.5819 55.7673 30.6699C55.7592 31.7561 55.6618 42.4497 55.6262 43.3789C55.589 44.3058 56.1954 44.7334 57.3379 44.6629C58.195 44.6096 59.5733 44.6362 60.4354 44.6529C60.723 44.6585 60.9531 44.6629 61.0874 44.6629C61.6216 44.6629 62.3714 44.1992 62.4425 43.1989C62.5158 42.1986 62.5858 30.385 62.5497 27.9207C62.5158 25.4587 62.0865 24.3145 60.5875 22.7817C59.0879 21.2449 56.6248 21.3177 55.7323 21.4965C54.8409 21.6765 53.9822 22.1386 53.5907 22.3529C53.1981 22.5668 52.9126 22.5668 52.7699 22.318C52.7224 22.2344 52.7107 22.2023 52.7026 22.1801C52.6864 22.1357 52.6848 22.1314 52.4385 21.833C52.0572 21.3688 51.3648 21.4892 50.5871 21.6244C50.3219 21.6705 50.0468 21.7184 49.7707 21.7453C49.0152 21.821 48.4086 21.7605 47.938 21.7135C47.6564 21.6855 47.4234 21.6622 47.2365 21.676C46.7366 21.7104 46.1669 21.9597 46.039 23.2638C45.9135 24.5679 45.8447 29.1703 45.8447 32.7404C45.8447 36.311 45.8802 40.5574 45.9164 42.6646C45.9519 44.7701 46.8817 44.7598 47.9152 44.6996C48.6972 44.6516 49.5975 44.6792 50.4353 44.705C50.8975 44.7192 51.3408 44.7328 51.7346 44.7328ZM33.0778 30.311C33.0417 31.2041 33.7926 31.3824 34.3275 31.3824C34.3275 31.3824 35.4349 31.4191 36.0053 31.3824C36.5797 31.3463 36.7551 30.847 36.7551 30.3472C36.7551 29.8479 36.7551 29.027 36.7075 28.5879C36.7065 28.5791 36.7055 28.5699 36.7045 28.5602C36.6545 28.092 36.5069 26.7109 34.8623 26.9198C33.202 27.132 33.1144 29.3742 33.0789 30.2836L33.0778 30.311Z" fill="#ED0000"/>
</g>
<defs>
<clipPath id="clip0_7068_9403">
<rect width="60" height="60" fill="white"/>
</clipPath>
</defs>
</svg>
