<svg width="152" height="48" viewBox="0 0 152 48" fill="none" xmlns="http://www.w3.org/2000/svg">
<path d="M21.4077 26.1106C17.592 27.5041 14.0181 25.0159 13.3432 20.6442C12.6776 16.3352 15.0602 11.6474 18.7415 10.0817C22.5211 8.47457 26.3012 10.7219 27.103 15.2013C27.9172 19.7498 25.3285 24.6785 21.4077 26.1106ZM28.2623 0L6.49931 9.70373C7.98446 27.1533 14.506 32.889 21.9335 30.2896C25.7607 28.95 29.8698 25.1285 32.1763 21.0796L28.2623 0Z" fill="#FF2D29"/>
<path d="M45.9745 8.75904L36.431 4.03962C39.9805 20.9999 38.6765 31.2908 35.046 36.5342L52.642 40.0717L45.9745 8.75904ZM35.4013 3.53033L28.2623 0L32.1763 21.0796C34.5122 16.8102 35.7071 11.2098 35.4013 3.53033Z" fill="#C80011"/>
<path d="M36.431 4.03962L35.4013 3.53033C35.7071 11.2098 34.5122 16.8102 32.1763 21.0796L35.046 36.5342C38.6765 31.2908 39.9805 20.9999 36.431 4.03962Z" fill="#E8E4E2"/>
<path d="M142.117 28.512C142.117 32.2712 141.749 35.3563 139.866 35.3563C137.754 35.3563 137.617 32.3157 137.617 28.5588C137.617 24.8014 138.213 21.865 139.959 21.8529C141.978 21.8423 142.117 24.7551 142.117 28.512ZM89.5198 26.6756C88.832 26.6756 87.8664 26.4464 87.9122 25.2973C87.9572 24.1505 88.0498 21.2101 90.2072 20.9345C92.3672 20.6603 92.5199 22.5163 92.5818 23.0803C92.6428 23.6453 92.6428 24.7008 92.6428 25.3436C92.6428 25.9874 92.4171 26.6289 91.6776 26.6756C90.9444 26.7224 89.5198 26.6756 89.5198 26.6756ZM139.959 13.2809C130.131 13.312 128.891 21.2101 128.787 28.7373C128.63 40.2222 132.243 44.2124 139.959 44.1946C148.728 44.1732 150.98 37.284 151.128 28.7373C151.278 20.2017 149.327 13.2475 139.959 13.2809ZM111.914 43.8505C113.339 43.8505 113.52 42.5198 113.429 40.7747C113.339 39.0296 113.474 26.5839 113.567 25.3436C113.66 24.1042 114.118 22.8172 115.357 22.8172C116.599 22.8172 117.114 24.3584 117.102 25.7581C117.092 27.1556 116.966 40.9123 116.92 42.1076C116.873 43.3002 117.652 43.8505 119.122 43.7592C120.592 43.668 123.255 43.7592 123.946 43.7592C124.633 43.7592 125.598 43.1631 125.689 41.8765C125.784 40.5891 125.874 25.3908 125.827 22.2207C125.784 19.0532 125.231 17.5814 123.303 15.6088C121.374 13.6321 118.205 13.7261 117.057 13.9553C115.91 14.1864 114.805 14.7816 114.302 15.0572C113.797 15.3327 113.429 15.3327 113.246 15.0131C113.063 14.6899 113.294 14.9641 112.82 14.3885C112.162 13.5876 110.784 14.1401 109.387 14.2763C107.833 14.4312 106.77 14.1401 106.127 14.1864C105.484 14.2313 104.75 14.5519 104.586 16.2289C104.425 17.9064 104.336 23.8278 104.336 28.4203C104.336 33.0147 104.382 38.4766 104.428 41.1878C104.474 43.8972 105.67 43.8839 107 43.8064C108.561 43.7125 110.49 43.8505 111.914 43.8505ZM99.6224 43.3002C100.679 42.9338 100.77 42.3346 100.77 41.4175C100.77 40.4982 100.816 38.3409 100.633 36.963C100.449 35.5847 99.3313 35.6092 98.6109 35.8616C97.8915 36.114 95.1225 36.918 92.4576 36.7783C89.4129 36.6207 88.832 35.4935 88.4179 34.5746C88.0039 33.6548 88.6477 32.4617 89.7949 32.4617C90.9444 32.4617 98.9804 32.5552 98.9804 32.5552C100.449 32.5552 101.321 31.1297 101.368 30.0746C101.413 29.0173 101.501 29.8436 101.432 24.8855C101.36 19.6052 98.8407 17.3988 98.8407 17.3988C95.9487 13.9086 87.4813 13.2653 83.4572 16.114C79.3718 19.006 78.838 22.9552 78.7717 29.0173C78.6986 35.9987 80.0587 38.799 82.0803 40.959C84.1019 43.1164 86.4916 43.8006 90.8504 43.9889C94.0202 44.1269 98.5664 43.668 99.6224 43.3002ZM63.7871 31.8874C63.7871 31.8874 63.9959 40.1546 63.9959 41.6005C63.9959 43.0483 63.65 43.668 61.997 43.8064C60.344 43.9418 57.9329 43.8736 56.7625 43.8736C55.5908 43.8736 54.7659 43.184 54.7659 41.9442C54.7659 41.9442 54.675 8.21599 54.6256 7.36435C54.5588 6.1245 55.3847 5.78082 56.3494 5.64281C56.3494 5.64281 61.3519 5.70336 62.2606 5.69534C63.1692 5.69 63.6727 6.60664 63.719 7.6644C63.7666 8.7195 63.6269 14.1401 63.5823 14.8275C63.5365 15.5162 64.7541 15.4249 64.9816 14.9187C65.2108 14.4139 67.7386 8.42567 68.3338 7.27754C68.3338 7.27754 68.7024 5.8102 70.0326 5.66997C71.3646 5.53196 75.3673 5.63881 76.2448 5.64281C77.1245 5.64281 78.7525 5.67976 77.6217 8.39674C76.4941 11.1137 71.9741 20.382 71.7893 20.841C71.6055 21.3018 71.4234 22.4949 71.6994 23.3229C71.9741 24.147 77.904 39.7401 78.391 40.8593C78.9778 42.2033 78.8228 43.7152 77.0822 43.7365C75.3433 43.7574 72.1464 43.7592 71.3192 43.7125C70.4925 43.668 69.6671 43.7125 69.1142 42.1076C68.5635 40.4982 65.6707 32.3242 65.3965 31.7258C65.1205 31.1297 63.8116 30.8096 63.7871 31.8874Z" fill="#ED0000"/>
<path d="M21.4077 26.1106C25.3285 24.6785 27.9172 19.7498 27.103 15.2013C26.3012 10.7219 22.5211 8.47457 18.7415 10.0817C15.0602 11.6474 12.6776 16.3352 13.3432 20.6442C14.0181 25.0159 17.592 27.5041 21.4077 26.1106Z" fill="white"/>
<path d="M21.9335 30.2896C14.506 32.889 7.98446 27.1533 6.49931 9.70373L5.22837 10.2704C2.35157 28.5404 6.23048 39.3313 12.6011 43.5775L35.046 36.5342L32.1763 21.0796C29.8698 25.1285 25.7607 28.95 21.9335 30.2896Z" fill="white"/>
<path d="M5.22837 10.2704L0 12.602L4.4897 46.1232L12.6011 43.5775C6.23048 39.3313 2.35157 28.5404 5.22837 10.2704Z" fill="#FF2D29"/>
<path d="M52.642 40.0717L24.9045 48L4.4897 46.1232L35.046 36.5342L52.642 40.0717Z" fill="#B30415"/>
</svg>
