<svg width="293" height="48" viewBox="0 0 293 48" fill="none" xmlns="http://www.w3.org/2000/svg">
<path fill-rule="evenodd" clip-rule="evenodd" d="M290.156 12.7239C288.588 12.7239 287.319 14.0186 287.319 15.618C287.319 17.2173 288.588 18.512 290.156 18.512C291.724 18.512 292.993 17.2173 292.993 15.618C292.993 14.0186 291.724 12.7239 290.156 12.7239ZM290.118 13.1809C291.5 13.1809 292.545 14.2471 292.545 15.618C292.545 16.9888 291.5 18.0932 290.118 18.0932C288.737 18.0932 287.692 16.9888 287.692 15.618C287.692 14.2471 288.775 13.1809 290.118 13.1809ZM290.305 14.0186C291.201 14.0186 291.388 14.5137 291.388 14.9325C291.388 15.3133 291.126 15.656 290.678 15.7703L291.35 17.2935H290.902L290.268 15.8464H289.633V17.2935H289.26V14.0186H290.305ZM290.156 15.4656H289.633V14.3613H290.23C290.641 14.3613 290.902 14.5137 290.902 14.9325C290.902 15.2372 290.79 15.4656 290.156 15.4656Z" fill="#FF0000"/>
<path d="M284.539 14.6361C283.607 13.6679 282.749 13.4818 282.153 13.3701C281.593 13.2583 281.146 13.2583 280.885 13.2211C280.586 13.1839 280.027 13.1466 279.43 13.1094C278.759 13.0722 278.274 12.9977 277.752 12.9977H277.454C273.501 12.9605 270.332 14.3382 268.131 16.1628C267.982 15.6042 267.684 15.0457 267.311 14.6361C266.379 13.6679 265.521 13.4818 264.924 13.3701C264.402 13.2583 263.955 13.2583 263.694 13.2211C263.433 13.1839 262.836 13.1466 262.239 13.1094C261.568 13.0722 261.083 12.9977 260.561 12.9977H260.263C255.415 12.9605 251.724 15.0457 249.523 17.5405L249.076 18.0991C248.517 16.7213 247.659 15.6042 246.727 14.8223L246.689 14.785C244.303 12.9977 241.693 12.886 239.828 12.8487C236.472 12.8115 233.675 13.7797 231.512 15.1202C231.4 14.8595 231.251 14.6361 231.065 14.4127C231.027 14.3754 231.027 14.3382 230.99 14.301C230.953 14.2637 230.916 14.1893 230.878 14.152C230.804 14.0775 230.804 14.0403 230.543 13.7797C230.17 13.4073 229.685 13.1839 229.163 13.0722C228.976 13.0349 228.566 12.9232 227.932 12.9232C226.888 12.9232 226.105 13.2211 225.434 13.5935C225.21 13.4818 224.986 13.3701 224.763 13.3328C224.129 13.1466 223.644 13.1466 223.159 13.1466C222.786 13.1466 222.451 13.1839 222.003 13.1839C221.817 13.1839 221.593 13.2211 221.444 13.2211H221.22C220.698 13.2211 220.027 13.1839 219.244 13.1839C218.759 13.1839 217.939 13.1466 216.783 13.519C216.223 13.7052 215.552 14.0775 215.03 14.6733C214.508 15.2319 214.172 15.9021 213.986 16.6096C213.725 16.1256 213.426 15.6787 213.054 15.3063C211.674 13.7424 209.474 12.8115 206.975 12.8487C206.379 12.8487 205.67 12.9232 204.775 13.0722C204.29 13.1839 203.768 13.2956 203.246 13.519C202.873 13.3328 202.538 13.2583 202.239 13.2211C201.792 13.1466 201.382 13.1094 200.971 13.1094C200.673 13.1094 200.561 13.1094 200.375 13.1466H199.592C199.331 13.1839 199.07 13.1839 198.883 13.2211H198.697C198.51 13.2211 198.137 13.1839 197.764 13.1466H197.242C197.466 12.8487 197.653 12.5508 197.839 12.2157L197.988 11.9551C198.025 11.8806 198.063 11.7689 198.137 11.6572L198.249 11.4338C198.287 11.3965 198.287 11.322 198.324 11.2103C198.361 11.0986 198.398 11.0242 198.473 10.5028V10.2049C198.51 9.53469 198.175 8.4176 197.466 7.78458C196.981 7.3005 196.459 7.11432 196.086 6.96537C194.968 6.66748 194.446 6.74195 193.625 6.70472C192.656 6.70472 191.798 6.74195 191.052 6.74195C191.052 6.74195 190.493 6.70472 190.045 6.70472C189.523 6.66748 189.15 6.66748 188.777 6.66748C187.771 6.66748 186.577 6.8909 185.608 7.56116C185.384 7.74734 185.16 7.89629 184.974 8.08247C184.526 7.52392 183.855 7.03985 183.296 6.81643C182.513 6.55577 181.916 6.51854 181.357 6.51854C181.021 6.51854 180.462 6.55577 179.828 6.55577C179.231 6.59301 178.56 6.59301 178.523 6.59301C177.702 6.59301 176.77 6.55577 175.8 6.55577C175.539 6.55577 175.241 6.59301 174.943 6.63024C161.779 7.22603 163.756 7.18879 162.712 7.26327C161.742 7.3005 161.145 7.74734 161.145 8.26865C161.145 8.75272 161.742 9.16233 162.712 9.27404C163.271 9.31127 167.522 9.49746 171.326 9.68364C171.214 10.0188 171.176 10.3167 171.139 10.6146C171.102 10.8007 171.139 10.9497 171.139 11.0242C171.139 11.6944 171.251 12.1785 171.326 12.6998C164.501 12.9977 164.315 12.9977 163.495 13.0722C162.525 13.1094 161.928 13.5562 161.928 14.0775C161.928 14.5616 162.525 14.9712 163.495 15.0829C164.054 15.1202 168.081 15.3064 171.81 15.4925L172.183 18.4715C165.285 18.8066 165.098 18.8066 164.278 18.8438C163.308 18.8811 162.712 19.3279 162.712 19.8492C162.712 20.3333 163.308 20.7429 164.278 20.8546C164.837 20.8918 168.827 21.078 172.519 21.2642L172.593 21.7855L172.631 21.9344C172.705 22.3813 172.78 22.9398 172.817 23.4239C172.817 23.5356 172.817 23.6101 172.855 23.7218C172.743 23.8707 172.593 24.0569 172.444 24.2059C164.613 24.5782 164.464 24.5782 163.607 24.6155C162.637 24.6527 162.04 25.0995 162.04 25.6209C162.04 26.1049 162.637 26.5145 163.607 26.6262C164.091 26.6635 167.074 26.8124 170.281 26.9614L167.858 29.9775C160.027 30.3499 159.84 30.3499 158.982 30.3871C158.013 30.4244 157.416 30.8712 157.416 31.3925C157.416 31.8766 158.013 32.2862 158.982 32.3979C159.467 32.4351 162.488 32.5841 165.695 32.733L165.285 33.2171L165.135 33.4405C165.061 33.515 164.837 33.8501 164.613 34.148L164.278 34.5949C164.203 34.7066 164.166 34.781 164.091 34.8927C163.868 35.1906 163.607 35.4885 163.345 35.7864C155.962 36.1216 155.813 36.1216 154.955 36.1588C153.986 36.196 153.389 36.6429 153.389 37.1642C153.389 37.6483 153.986 38.0579 154.955 38.1696C155.403 38.2068 158.237 38.3557 161.295 38.4675C161.257 38.5419 161.183 38.6536 161.145 38.7281C160.847 39.2867 160.586 39.7707 160.437 40.5527V41.074C160.437 41.223 160.437 41.3719 160.474 41.5209C152.196 41.8932 152.046 41.8932 151.152 41.9677C150.182 42.0049 149.585 42.4518 149.585 42.9731C149.585 43.4571 150.182 43.8668 151.152 43.9785C152.158 44.0529 162.451 44.537 163.718 44.5742C164.017 44.6115 164.24 44.6115 164.352 44.6115C164.837 44.6115 165.285 44.5742 165.807 44.537C166.068 44.537 166.329 44.537 166.59 44.4998H166.963C167.186 44.4998 168.081 44.537 168.939 44.537C169.797 44.5742 170.58 44.6115 171.102 44.6115C171.624 44.6115 171.96 44.537 172.556 44.3508C173.078 44.1646 173.787 43.8667 174.421 43.1965C174.644 42.9731 174.682 42.8986 174.756 42.8241C175.129 43.4199 175.875 44.0529 176.621 44.3136C177.367 44.6115 178.075 44.686 178.896 44.686C179.418 44.686 179.865 44.6487 180.424 44.5742C180.685 44.537 180.947 44.537 181.17 44.4998H181.469C181.655 44.4998 181.916 44.537 182.401 44.537C182.736 44.5742 183.072 44.6115 183.482 44.6115C183.557 45.319 183.892 46.2871 184.713 46.9574C185.608 47.7393 186.652 47.9255 187.547 47.9255C187.808 47.9255 188.255 47.9255 188.703 47.8883C189.15 47.8883 189.635 47.8511 189.672 47.8511C190.381 47.8511 191.313 47.8511 191.612 47.8883C191.91 47.9255 192.357 48 192.954 48H193.029C194.296 48 195.527 47.4415 196.236 46.734C196.534 46.4361 196.795 46.1009 197.019 45.6913L197.242 45.2445C197.28 45.17 197.28 45.0956 197.317 44.9838C197.354 44.8721 197.392 44.8721 197.429 44.4253C197.914 44.4998 198.398 44.537 198.958 44.537C202.314 44.537 204.999 43.122 206.826 41.4464C206.901 41.856 207.05 42.2656 207.274 42.6379C207.87 43.6433 208.84 44.0902 209.436 44.2764C210.07 44.4625 210.518 44.4253 210.816 44.4625C211.264 44.4625 211.898 44.4253 212.606 44.3881C213.277 44.3508 214.023 44.3136 214.098 44.3136H214.135C214.321 44.3136 214.694 44.3508 215.067 44.3508C215.44 44.3881 215.738 44.3881 216.037 44.3881C216.671 44.3881 218.498 44.3508 219.281 44.0157C220.064 43.6806 220.735 43.0475 221.108 42.489C221.407 42.0794 221.742 41.5581 221.966 40.9251C222.115 40.5155 222.451 39.8824 222.413 38.9888C222.376 40.0314 222.861 40.8878 222.861 40.8878C223.607 42.7124 224.688 43.6433 227.112 44.2019H227.187C228.865 44.6115 231.699 44.6115 233.414 44.6115C235.204 44.6115 237.031 44.4625 238.709 44.1274C239.53 43.9412 240.313 43.755 241.096 43.4571C241.394 43.3082 241.692 43.1965 242.028 43.0103C242.587 43.6806 243.259 44.0157 243.855 44.2019L243.93 44.2391C245.384 44.686 247.062 44.9094 248.591 44.9094C250.568 44.9094 252.022 44.8721 253.402 44.6115C254.781 44.3881 256.049 43.904 257.205 43.3082C257.765 43.0103 258.287 42.6752 258.809 42.3401C258.883 42.5262 258.995 42.6752 259.144 42.8241C259.741 43.6061 260.487 43.9785 261.121 44.2019L261.195 44.2391C262.65 44.686 264.328 44.9094 265.857 44.9094C267.833 44.9094 269.287 44.8721 270.667 44.6115C272.047 44.3881 273.315 43.904 274.471 43.3082C276.522 42.2283 278.274 40.6644 279.542 38.8771L279.579 38.8398C280.325 37.7227 280.885 36.5312 281.258 35.4141C281.63 34.297 281.891 33.2916 281.966 32.3234C282.003 32.0628 282.003 31.8021 282.003 31.5787C282.003 30.5733 281.854 29.6052 281.519 28.637C281.407 28.3019 281.295 27.9668 281.146 27.6689C281.071 27.5199 281.034 27.4082 280.959 27.2965C280.922 27.2593 280.885 27.1848 280.885 27.1476C280.661 26.738 280.437 26.3284 280.139 25.956C280.624 25.9188 281.034 25.807 281.519 25.6209C282.078 25.3974 282.712 25.0996 283.346 24.5038C283.607 24.2431 283.868 23.9825 284.054 23.6473C284.129 23.5356 284.166 23.4611 284.166 23.4239L284.353 23.0888C284.8 22.0834 284.875 21.3387 284.949 21.0408C285.024 20.8174 285.21 20.296 285.397 19.7747C285.509 19.4768 285.583 19.2162 285.658 18.9183C285.695 18.7693 285.732 18.6576 285.77 18.5087C285.807 18.3597 285.844 18.248 285.882 17.8757V17.5033C285.509 16.2745 285.136 15.2691 284.539 14.6361Z" fill="#FF0000"/>
<path fill-rule="evenodd" clip-rule="evenodd" d="M175.018 13.0617C175.024 13.0854 175.031 13.1105 175.037 13.136C175.037 13.136 175.973 20.7658 176.01 20.7658C176.235 21.931 176.347 23.4719 176.347 23.6599C176.31 23.923 176.198 24.1485 176.085 24.3364C175.962 24.5592 175.384 25.2548 174.94 25.7897C174.71 26.0669 174.515 26.3009 174.438 26.4036L168.038 34.4092C167.967 34.5337 167.754 34.8265 167.537 35.1244C167.296 35.456 167.049 35.7938 166.99 35.9126C166.728 36.2509 166.457 36.5798 166.186 36.9086C165.914 37.2375 165.643 37.5664 165.381 37.9046C164.108 39.4456 163.846 40.0846 163.809 40.3477C163.771 40.9866 164.52 40.9866 164.745 40.9866C164.969 40.9866 165.531 40.949 166.055 40.9114C166.368 40.9114 166.727 40.8959 166.983 40.8848C167.126 40.8787 167.236 40.8739 167.29 40.8739C167.437 40.8739 167.658 40.8796 167.928 40.8867C168.345 40.8976 168.878 40.9114 169.423 40.9114C170.284 40.949 171.182 40.9866 171.482 40.9866C171.631 40.9866 172.268 40.9114 172.717 40.4604C173.016 40.1973 175.599 36.1757 176.048 35.1609C176.273 34.7097 176.834 33.5823 177.021 33.3568C177.067 33.3568 177.099 33.3425 177.143 33.3226C177.171 33.3104 177.203 33.296 177.246 33.2817L177.133 34.6347C177.141 34.7159 177.151 34.9768 177.165 35.3474C177.225 36.8641 177.357 40.2181 177.657 40.6108C177.77 40.8363 178.144 41.0994 179.267 41.0994C179.477 41.0994 180.041 41.0501 180.592 41.0021C181.116 40.9562 181.629 40.9114 181.812 40.9114C182.023 40.9114 182.214 40.9213 182.4 40.9309C182.578 40.9401 182.752 40.949 182.935 40.949C183.346 40.9866 183.758 41.0242 184.057 41.0242C184.581 41.0242 186.453 41.0242 186.603 39.408C186.603 39.1449 186.565 38.6563 186.153 35.424C186.041 34.5596 185.948 33.6857 185.854 32.8118C185.76 31.938 185.667 31.0641 185.555 30.1997C185.405 29.7487 185.105 27.5687 185.068 27.268L185.04 27.1396C184.853 26.2753 184.583 25.0324 184.619 24.6747C184.619 24.5329 184.704 24.3483 184.794 24.1532C184.824 24.0898 184.853 24.0251 184.881 23.9605L191.955 15.1656C192.344 14.6768 192.746 14.1973 193.147 13.7192C194.133 12.5429 195.113 11.3743 195.885 10.0916C195.96 9.94129 196.072 9.67819 196.072 9.64061C196.147 9.07683 195.548 9.03925 194.163 9.03925C193.737 9.03925 193.321 9.04844 192.899 9.05774C192.469 9.06723 192.034 9.07683 191.581 9.07683C191.383 9.07683 190.841 9.05588 190.33 9.03611C189.872 9.01842 189.439 9.00166 189.297 9.00166C187.95 9.00166 187.501 9.49027 186.827 10.5427C184.918 13.3615 184.581 13.9253 183.758 15.5415L183.533 15.5791L183.646 14.4139C183.67 14.1412 183.663 13.9013 183.654 13.6508C183.65 13.5216 183.646 13.3895 183.646 13.2488C183.627 12.9105 183.58 12.5816 183.533 12.2528C183.487 11.9239 183.44 11.595 183.421 11.2568C183.421 10.7306 183.421 10.2796 183.346 9.79095C183.234 9.152 182.935 8.88891 181.849 8.88891C181.643 8.88891 181.035 8.9077 180.427 8.92649C179.819 8.94528 179.211 8.96408 179.005 8.96408C178.532 8.96408 178.069 8.95449 177.611 8.94499C177.162 8.9357 176.717 8.92649 176.272 8.92649C175.187 8.92649 174.626 9.37751 174.551 10.242C174.515 10.7474 174.755 11.8075 174.94 12.6232L174.962 12.7226C174.962 12.8471 174.988 12.946 175.018 13.0617ZM191.543 28.8842C191.393 29.4104 191.356 29.5231 191.206 29.9366L188.437 39.1825C187.913 40.949 187.838 41.1745 186.977 43.2041C186.966 43.2261 186.955 43.2472 186.944 43.2679C186.882 43.389 186.827 43.4947 186.827 43.6552C186.79 43.8807 186.902 44.3693 187.95 44.3693C188.154 44.3693 188.689 44.3582 189.178 44.348L189.179 44.348C189.588 44.3395 189.964 44.3317 190.083 44.3317C190.869 44.3317 191.843 44.3317 192.367 44.3693L192.473 44.3801L192.526 44.3856C192.83 44.417 193.095 44.4444 193.415 44.4444C194.65 44.4444 194.949 43.58 194.949 43.5424C194.986 43.0162 195.398 40.6859 195.81 40.3101C195.847 40.2349 195.96 40.1597 196.072 40.1597H196.109C196.427 40.1916 196.717 40.3586 197.003 40.5232L197.004 40.5237C197.055 40.553 197.106 40.5823 197.157 40.6108C197.644 40.7987 198.58 40.9866 199.403 40.9866C205.129 40.9866 207.712 35.7623 208.61 33.8078C209.808 31.1769 210.631 28.4332 211.23 26.366L211.526 25.32C212.085 23.3457 212.289 22.6257 212.353 22.2692C212.369 22.1548 212.435 21.7706 212.504 21.3665C212.594 20.8412 212.69 20.2821 212.69 20.2396C212.877 17.9845 211.605 15.1656 207.675 15.1656C206.926 15.1656 205.279 15.3535 204.269 16.0301C204.156 16.1053 204.048 16.1846 203.94 16.264C203.724 16.4226 203.508 16.5813 203.258 16.7066H203.108C202.959 16.7066 202.884 16.6314 202.921 16.4059L202.923 16.3786C202.959 15.7584 202.977 15.4663 201.649 15.4663C201.575 15.4663 201.45 15.4721 201.298 15.4791C201.062 15.49 200.761 15.5039 200.488 15.5039L200.224 15.523C199.807 15.5533 199.452 15.5791 199.328 15.5791C199.178 15.5791 198.654 15.5415 198.13 15.5039C197.802 15.5039 197.49 15.4867 197.288 15.4756C197.191 15.4703 197.119 15.4663 197.082 15.4663C196.483 15.4663 196.05 15.8328 195.814 16.0325L195.772 16.0677C195.414 16.607 195.342 16.8597 195.062 17.8352C194.99 18.0832 194.906 18.3781 194.799 18.7362C194.799 18.9241 193.564 23.0961 192.254 26.6667C191.992 27.3808 191.768 28.0949 191.543 28.8842ZM201.798 22.3444C201.06 23.0153 200.718 24.1837 200.431 25.1642L200.376 25.3512C200.099 26.3958 199.741 27.4243 199.381 28.4591C198.964 29.6581 198.544 30.8658 198.243 32.1165C198.168 32.342 198.093 32.5675 198.093 32.7931C198.018 33.6575 198.654 34.1837 199.253 34.1837C200.563 34.1837 201.312 32.6427 201.312 32.5675C201.425 32.2945 202.128 30.1478 202.74 28.2795C203.139 27.0618 203.499 25.9623 203.632 25.5767C203.977 24.4518 204.123 23.6147 204.19 23.2352C204.21 23.1201 204.223 23.0471 204.231 23.0209C204.269 22.5323 204.156 22.194 204.007 22.0813C203.857 21.8934 203.557 21.8182 203.258 21.8182C202.884 21.7806 202.248 21.9685 201.798 22.3444ZM228.672 15.3535C227.1 15.3535 225.191 17.6462 224.704 18.3979C224.58 18.5984 224.521 18.6652 224.463 18.732C224.434 18.7654 224.405 18.7989 224.368 18.849C224.399 18.7538 224.457 18.5447 224.52 18.3207C224.605 18.0142 224.699 17.6797 224.742 17.5711C224.742 17.4637 224.852 17.1108 224.953 16.786C225.029 16.5426 225.1 16.3146 225.116 16.218C225.153 15.8046 224.891 15.5791 223.918 15.5791C223.739 15.5791 223.275 15.6003 222.84 15.6202C222.456 15.6377 222.095 15.6542 221.972 15.6542C221.635 15.6542 221.298 15.6448 220.962 15.6354C220.625 15.626 220.288 15.6166 219.951 15.6166C219.053 15.6166 217.855 15.6166 217.518 16.9321C217.464 17.0823 217.365 17.3913 217.254 17.7383C217.059 18.3462 216.827 19.071 216.732 19.2624C216.657 19.6758 216.208 21.3296 216.058 21.7054C215.684 22.8706 215.272 24.1109 214.861 25.276C214.225 27.3432 213.588 29.4104 212.877 31.4776C212.203 33.2817 212.129 33.5072 211.904 34.334C211.829 34.5783 211.754 34.8414 211.679 35.1045C211.605 35.3676 211.53 35.6307 211.455 35.875C211.268 36.4952 211.062 37.1059 210.856 37.7167C210.65 38.3274 210.444 38.9382 210.257 39.5584C210.242 39.6325 210.222 39.7008 210.202 39.7655C210.172 39.8649 210.145 39.9559 210.145 40.047C210.07 40.8739 210.706 40.949 211.268 40.949C211.54 40.949 212.296 40.9085 213.023 40.8696L213.024 40.8695C213.697 40.8334 214.345 40.7987 214.561 40.7987C214.711 40.7987 215.123 40.8175 215.534 40.8363C215.946 40.8551 216.358 40.8739 216.508 40.8739C217.331 40.8739 217.705 40.6859 218.005 40.2349C218.529 39.5208 218.604 39.2577 218.753 38.1677C218.766 38.0926 218.782 38.0174 218.799 37.9422C218.832 37.7919 218.866 37.6415 218.866 37.4912C219.109 36.4467 219.47 35.4284 219.833 34.4054C220.084 33.6983 220.336 32.9888 220.55 32.2669C220.743 31.6856 220.912 31.0927 221.083 30.4981C221.44 29.2471 221.8 27.9889 222.384 26.817C223.245 25.2009 224.517 24.2612 225.341 24.2612C225.397 24.2612 225.584 24.2988 225.771 24.3364C225.958 24.374 226.145 24.4116 226.201 24.4116C227.014 24.4116 227.316 23.4238 227.468 22.9281L227.474 22.9082C227.628 22.3527 227.76 21.8723 227.876 21.4521L227.877 21.4489C228.52 19.1134 228.651 18.6366 229.158 17.4583C229.215 17.2945 229.263 17.1536 229.305 17.0318C229.543 16.3432 229.57 16.2649 229.57 16.1053C229.57 16.0677 229.57 15.9925 229.533 15.8046C229.495 15.7294 229.308 15.4663 229.271 15.4287C229.083 15.3911 228.896 15.3535 228.672 15.3535ZM226.389 29.6359C226.463 29.3916 226.557 29.0627 226.641 28.7667C226.725 28.4708 226.8 28.2077 226.838 28.0949C226.913 27.8318 228.185 24.4492 228.372 24.0733C229.083 22.2692 232.003 15.316 240.611 15.316C242.333 15.316 244.242 15.5039 245.701 16.6314C246.787 17.4959 247.797 19.2624 247.573 21.8182C247.499 22.6694 247.135 23.9943 246.838 25.0753L246.824 25.1257C246.711 25.4018 246.423 26.2326 246.117 27.1143C245.716 28.2727 245.284 29.519 245.177 29.7111C245.065 29.8614 244.055 31.0641 242.894 31.0641C242.777 31.0641 242.455 31.0436 242.148 31.024C241.867 31.0061 241.599 30.989 241.51 30.989C241.304 30.989 240.733 31.0266 240.162 31.0641C239.591 31.1017 239.021 31.1393 238.815 31.1393C238.562 31.1393 237.802 31.1218 237.016 31.1036C236.176 31.0842 235.306 31.0641 234.997 31.0641C234.585 31.0641 233.388 31.0641 233.238 32.6803C233.201 33.2065 233.35 33.5823 233.425 33.6951C234.061 34.9354 235.708 34.973 236.532 34.973C238.553 34.973 238.89 34.8978 241.023 34.1085C241.123 34.0863 241.219 34.0607 241.314 34.0357C241.537 33.9764 241.748 33.9206 241.959 33.9206C242.67 33.9206 243.194 34.4092 243.156 34.8602C243.156 35.0106 243.156 35.0482 242.932 35.4992C242.857 35.6495 242.258 37.3033 241.959 38.3557C241.891 38.5704 241.844 38.7375 241.806 38.8724C241.717 39.186 241.678 39.3255 241.547 39.4832C240.761 40.5732 237.13 41.1745 233.912 41.1745C232.34 41.1745 230.843 41.0242 229.607 40.6859C225.977 39.5584 225.191 36.5891 225.415 34.0709C225.528 32.53 225.939 31.0266 226.389 29.6359ZM239.002 25.5391C238.665 25.8398 237.991 25.8398 237.729 25.8398H236.344C235.671 25.8398 235.484 25.6519 235.521 25.0505C235.521 24.9002 235.933 23.1337 236.644 22.1189C237.467 20.9913 238.291 20.9913 238.665 20.9913C240.125 20.9913 240.125 22.0061 240.087 22.4947C240.087 22.5323 239.638 24.9378 239.002 25.5391ZM261.459 15.4287C261.789 15.4287 263.158 15.5499 263.917 15.6171C264.103 15.6336 264.252 15.6468 264.341 15.6542L264.381 15.6561C265.165 15.6934 266.286 15.7465 266.212 16.7442C266.175 17.0449 265.576 18.8866 265.426 19.3C265.372 19.489 265.333 19.6926 265.293 19.902C265.22 20.2756 265.145 20.6677 264.977 21.0289C264.95 21.0747 264.924 21.1205 264.9 21.1652C264.824 21.304 264.753 21.4322 264.64 21.5175C264.191 22.0061 263.33 22.2316 262.956 22.2316H262.806C262.678 22.2316 262.331 22.0972 262.015 21.9747C261.776 21.8823 261.555 21.7968 261.459 21.7806C261.197 21.7054 260.935 21.7054 260.635 21.7054C258.726 21.7054 258.502 22.8706 258.502 23.0209C258.469 23.4899 258.762 23.9887 258.932 24.2779C258.953 24.3132 258.972 24.3454 258.988 24.374C259.245 24.7391 259.551 25.1042 259.856 25.4693C260.085 25.7431 260.314 26.017 260.523 26.2908C260.935 26.7794 261.309 27.3432 261.571 27.8694C261.721 28.0573 262.469 29.5983 262.282 31.4024C262.17 32.5675 261.496 34.8978 260.373 36.5892C259.438 37.9422 257.978 39.2577 256.331 40.1222C254.385 41.1745 252.888 41.4001 249.07 41.4001C247.91 41.4001 246.3 41.1745 245.327 40.8739C244.579 40.6108 244.541 40.2349 244.579 39.8215C244.616 39.5584 244.691 39.2953 244.803 38.957C244.833 38.8687 244.913 38.6537 245.006 38.4089C245.149 38.0286 245.319 37.5761 245.365 37.416C245.589 36.7771 245.739 36.1005 245.889 35.424C246.263 34.1461 247.535 33.9582 247.723 33.9582C247.835 33.9582 247.872 33.9582 248.022 33.9958C248.271 34.0582 248.494 34.1726 248.734 34.2957C248.783 34.3208 248.832 34.3462 248.883 34.3716C249.444 34.5596 250.006 34.5971 250.642 34.5971C251.69 34.5971 251.989 34.5596 252.551 34.2965C253.262 33.9206 253.561 33.5072 253.599 32.9434C253.599 32.8163 253.545 32.555 253.506 32.3636C253.499 32.3286 253.492 32.2959 253.487 32.2669C253.294 31.7429 252.82 31.3202 252.359 30.9095C252.192 30.7604 252.027 30.6129 251.877 30.4628C251.503 30.0493 250.754 29.1473 250.417 28.2828C250.38 28.2077 249.781 26.1405 249.893 24.7874C250.155 21.9685 253 15.5039 261.122 15.5039L261.459 15.4287ZM281.209 15.6171C280.45 15.5499 279.081 15.4287 278.75 15.4287L278.451 15.5039C270.329 15.5039 267.485 21.9685 267.223 24.7874C267.11 26.1405 267.709 28.2077 267.747 28.2828C268.083 29.1473 268.832 30.0493 269.206 30.4628C269.356 30.6129 269.521 30.7604 269.689 30.9095C270.149 31.3202 270.624 31.7429 270.816 32.2669C270.822 32.2959 270.828 32.3286 270.835 32.3636C270.875 32.555 270.928 32.8163 270.928 32.9434C270.891 33.5072 270.591 33.9206 269.88 34.2965C269.319 34.5596 269.019 34.5971 267.971 34.5971C267.335 34.5971 266.773 34.5596 266.212 34.3716C266.161 34.3462 266.112 34.3208 266.063 34.2958C265.823 34.1726 265.6 34.0582 265.351 33.9958C265.202 33.9582 265.164 33.9582 265.052 33.9582C264.865 33.9582 263.592 34.1461 263.218 35.424C263.068 36.1005 262.918 36.7771 262.694 37.416C262.648 37.5761 262.478 38.0281 262.335 38.4084C262.243 38.6534 262.162 38.8687 262.132 38.957C262.02 39.2953 261.945 39.5584 261.908 39.8215C261.87 40.2349 261.908 40.6108 262.656 40.8739C263.63 41.1745 265.239 41.4001 266.399 41.4001C270.217 41.4001 271.714 41.1745 273.66 40.1222C275.27 39.2577 276.767 37.9422 277.703 36.5892C278.825 34.8978 279.499 32.5675 279.611 31.4024C279.761 29.5983 279.012 28.0573 278.863 27.8694C278.601 27.3432 278.227 26.7794 277.815 26.2908C277.606 26.017 277.377 25.7431 277.148 25.4693C276.842 25.1042 276.537 24.7391 276.28 24.374C276.264 24.3454 276.245 24.3132 276.224 24.2779C276.054 23.9887 275.76 23.4899 275.794 23.0209C275.794 22.8706 276.018 21.7054 277.927 21.7054C278.226 21.7054 278.488 21.7054 278.75 21.7806C278.847 21.7968 279.068 21.8823 279.306 21.9747C279.623 22.0972 279.97 22.2316 280.098 22.2316H280.248C280.622 22.2316 281.483 22.0061 281.932 21.5175C282.045 21.4322 282.115 21.304 282.192 21.1652C282.216 21.1205 282.241 21.0747 282.269 21.0289C282.409 20.6759 282.491 20.2934 282.57 19.9276C282.616 19.7092 282.662 19.4967 282.718 19.3C282.868 18.8866 283.466 17.0449 283.504 16.7442C283.614 15.7481 282.462 15.6935 281.676 15.6563L281.632 15.6542C281.544 15.6468 281.395 15.6336 281.209 15.6171Z" fill="white"/>
<path d="M21.5302 26.1106C17.6926 27.5041 14.0982 25.0159 13.4195 20.6442C12.7501 16.3352 15.1464 11.6474 18.8487 10.0817C22.6499 8.47457 26.4516 10.7219 27.258 15.2013C28.0769 19.7498 25.4733 24.6785 21.5302 26.1106ZM28.4239 0L6.53649 9.70373C8.03012 27.1533 14.589 32.889 22.0589 30.2896C25.9081 28.95 30.0407 25.1285 32.3604 21.0796L28.4239 0Z" fill="#FF2D29"/>
<path d="M46.2374 8.75904L36.6394 4.03962C40.2091 20.9999 38.8977 31.2908 35.2465 36.5342L52.9431 40.0717L46.2374 8.75904ZM35.6038 3.53033L28.4239 0L32.3604 21.0796C34.7096 16.8102 35.9114 11.2098 35.6038 3.53033Z" fill="#C80011"/>
<path d="M36.6394 4.03962L35.6038 3.53033C35.9114 11.2098 34.7096 16.8102 32.3604 21.0796L35.2465 36.5342C38.8977 31.2908 40.2091 20.9999 36.6394 4.03962Z" fill="#E8E4E2"/>
<path d="M142.93 28.512C142.93 32.2712 142.56 35.3563 140.666 35.3563C138.542 35.3563 138.404 32.3157 138.404 28.5588C138.404 24.8014 139.004 21.865 140.759 21.8529C142.79 21.8423 142.93 24.7551 142.93 28.512ZM90.0318 26.6756C89.34 26.6756 88.3689 26.4464 88.415 25.2973C88.4602 24.1505 88.5534 21.2101 90.7231 20.9345C92.8955 20.6603 93.0491 22.5163 93.1113 23.0803C93.1726 23.6453 93.1726 24.7008 93.1726 25.3436C93.1726 25.9874 92.9456 26.6289 92.2019 26.6756C91.4645 26.7224 90.0318 26.6756 90.0318 26.6756ZM140.759 13.2809C130.875 13.312 129.628 21.2101 129.523 28.7373C129.366 40.2222 132.999 44.2124 140.759 44.1946C149.579 44.1732 151.844 37.284 151.992 28.7373C152.143 20.2017 150.181 13.2475 140.759 13.2809ZM112.555 43.8505C113.987 43.8505 114.169 42.5198 114.078 40.7747C113.987 39.0296 114.123 26.5839 114.217 25.3436C114.31 24.1042 114.77 22.8172 116.017 22.8172C117.266 22.8172 117.784 24.3584 117.772 25.7581C117.761 27.1556 117.635 40.9123 117.589 42.1076C117.541 43.3002 118.325 43.8505 119.804 43.7592C121.282 43.668 123.96 43.7592 124.655 43.7592C125.346 43.7592 126.316 43.1631 126.408 41.8765C126.503 40.5891 126.594 25.3908 126.547 22.2207C126.503 19.0532 125.947 17.5814 124.008 15.6088C122.068 13.6321 118.881 13.7261 117.726 13.9553C116.573 14.1864 115.462 14.7816 114.955 15.0572C114.448 15.3327 114.078 15.3327 113.894 15.0131C113.709 14.6899 113.942 14.9641 113.465 14.3885C112.803 13.5876 111.418 14.1401 110.013 14.2763C108.45 14.4312 107.381 14.1401 106.734 14.1864C106.087 14.2313 105.35 14.5519 105.184 16.2289C105.022 17.9064 104.933 23.8278 104.933 28.4203C104.933 33.0147 104.979 38.4766 105.025 41.1878C105.072 43.8972 106.275 43.8839 107.612 43.8064C109.182 43.7125 111.122 43.8505 112.555 43.8505ZM100.192 43.3002C101.255 42.9338 101.346 42.3346 101.346 41.4175C101.346 40.4982 101.393 38.3409 101.208 36.963C101.024 35.5847 99.8994 35.6092 99.1749 35.8616C98.4514 36.114 95.6665 36.918 92.9864 36.7783C89.9243 36.6207 89.34 35.4935 88.9236 34.5746C88.5073 33.6548 89.1547 32.4617 90.3085 32.4617C91.4645 32.4617 99.5465 32.5552 99.5465 32.5552C101.024 32.5552 101.901 31.1297 101.947 30.0746C101.993 29.0173 102.081 29.8436 102.012 24.8855C101.94 19.6052 99.406 17.3988 99.406 17.3988C96.4975 13.9086 87.9816 13.2653 83.9346 16.114C79.8257 19.006 79.2889 22.9552 79.2222 29.0173C79.1488 35.9987 80.5166 38.799 82.5497 40.959C84.5829 43.1164 86.9863 43.8006 91.3701 43.9889C94.5579 44.1269 99.1302 43.668 100.192 43.3002ZM64.1519 31.8874C64.1519 31.8874 64.3619 40.1545 64.3619 41.6005C64.3619 43.0483 64.014 43.668 62.3516 43.8064C60.6892 43.9418 58.2643 43.8736 57.0872 43.8736C55.9087 43.8736 55.0791 43.184 55.0791 41.9442C55.0791 41.9442 54.9878 8.21599 54.9381 7.36435C54.8709 6.1245 55.7014 5.78082 56.6717 5.64281C56.6717 5.64281 61.7028 5.70336 62.6167 5.69534C63.5305 5.69 64.0369 6.60664 64.0834 7.6644C64.1313 8.71949 63.9908 14.1401 63.946 14.8275C63.8999 15.5162 65.1244 15.4249 65.3532 14.9187C65.5838 14.4139 68.126 8.42567 68.7246 7.27754C68.7246 7.27754 69.0954 5.8102 70.4332 5.66997C71.7728 5.53196 75.7984 5.6388 76.6808 5.64281C77.5656 5.64281 79.2029 5.67976 78.0657 8.39673C76.9316 11.1137 72.3857 20.382 72.1999 20.841C72.015 21.3018 71.8319 22.4949 72.1095 23.3229C72.3857 24.147 78.3495 39.7401 78.8394 40.8593C79.4295 42.2033 79.2737 43.7152 77.523 43.7365C75.7742 43.7574 72.559 43.7592 71.7271 43.7125C70.8957 43.668 70.0656 43.7125 69.5095 42.1076C68.9557 40.4982 66.0463 32.3242 65.7705 31.7258C65.4929 31.1297 64.1766 30.8096 64.1519 31.8874Z" fill="#ED0000"/>
<path d="M21.5302 26.1106C25.4733 24.6785 28.0769 19.7498 27.258 15.2013C26.4516 10.7219 22.6499 8.47457 18.8487 10.0817C15.1464 11.6474 12.7501 16.3352 13.4195 20.6442C14.0982 25.0159 17.6926 27.5041 21.5302 26.1106Z" fill="white"/>
<path d="M22.0589 30.2896C14.589 32.889 8.03012 27.1533 6.53649 9.70373L5.25827 10.2704C2.36502 28.5404 6.26612 39.3313 12.6732 43.5775L35.2465 36.5342L32.3604 21.0796C30.0407 25.1285 25.9081 28.95 22.0589 30.2896Z" fill="white"/>
<path d="M5.25827 10.2704L0 12.602L4.51538 46.1232L12.6732 43.5775C6.26612 39.3313 2.36502 28.5404 5.25827 10.2704Z" fill="#FF2D29"/>
<path d="M52.9431 40.0717L25.047 48L4.51538 46.1232L35.2465 36.5342L52.9431 40.0717Z" fill="#B30415"/>
</svg>
