<svg width="267" height="48" viewBox="0 0 267 48" fill="none" xmlns="http://www.w3.org/2000/svg">
<path fill-rule="evenodd" clip-rule="evenodd" d="M10.2098 29.9485C10.2098 29.9485 10.4618 39.3733 10.4618 41.0012C10.4618 42.672 10.0839 43.3574 8.23612 43.5288C6.79369 43.6625 4.83942 43.6397 3.43216 43.6232C3.03675 43.6186 2.68452 43.6144 2.39897 43.6144C1.09716 43.6144 0.173288 42.8433 0.173288 41.4296C0.173288 41.4296 0.0892995 3.04506 0.00531164 2.05974C-0.0786762 0.646026 0.84519 0.260467 1.93703 0.089107C1.93703 0.089107 7.52222 0.174787 8.53008 0.131947C9.53793 0.131947 10.1258 1.1601 10.1678 2.35962C10.2098 3.55914 10.0419 9.72808 9.99986 10.4992C9.95787 11.2703 11.3017 11.1846 11.5536 10.6277C11.6227 10.4751 11.8841 9.84947 12.2412 8.99511C13.187 6.732 14.8034 2.86413 15.2911 1.93122C15.2911 1.93122 15.711 0.260467 17.1808 0.089107C18.3258 -0.0443816 21.3056 0.00410742 23.0233 0.0320598C23.5106 0.0399899 23.8964 0.0462671 24.1098 0.0462671C25.0757 0.0462671 26.8814 0.0891069 25.6636 3.17358C24.769 5.36386 21.9686 11.3344 20.345 14.7962C19.6821 16.2094 19.2154 17.2046 19.1545 17.3536C18.9446 17.8677 18.7346 19.2385 19.0705 20.181C19.3645 21.1235 25.9995 38.8592 26.5455 40.1444C27.2174 41.6866 27.0074 43.4002 25.0757 43.4002C23.144 43.4431 19.5745 43.4431 18.6506 43.3574C18.6098 43.3555 18.569 43.3538 18.5282 43.3521C17.6457 43.3148 16.7751 43.2779 16.173 41.5581C15.5431 39.716 12.3095 30.4198 12.0156 29.7343C11.6796 29.0917 10.2098 28.749 10.2098 29.9485ZM263.475 8.31437C261.711 8.31437 260.284 9.77092 260.284 11.5702C260.284 13.3695 261.711 14.826 263.475 14.826C265.239 14.826 266.667 13.3695 266.667 11.5702C266.667 9.77092 265.239 8.31437 263.475 8.31437ZM263.433 8.82844C264.987 8.82844 266.163 10.028 266.163 11.5702C266.163 13.1124 264.987 14.3548 263.433 14.3548C261.879 14.3548 260.704 13.1124 260.704 11.5702C260.704 10.028 261.921 8.82844 263.433 8.82844ZM263.643 9.77092C264.651 9.77092 264.861 10.3278 264.861 10.7991C264.861 11.2275 264.567 11.613 264.063 11.7416L264.819 13.4552H264.315L263.601 11.8272H262.887V13.4552H262.467V9.77092H263.643ZM263.475 11.3988H262.887V10.1565H263.559C264.021 10.1565 264.315 10.3278 264.315 10.7991C264.315 11.1418 264.189 11.3988 263.475 11.3988ZM51.4479 40.8298C51.4479 41.858 51.3639 42.5434 50.188 42.9718C49.0122 43.3574 43.9309 43.8715 40.3615 43.7858C35.4902 43.5288 32.8446 42.7576 30.5769 40.3158C28.3092 37.8739 26.7974 34.6609 26.8814 26.7355C26.9654 19.8383 27.5533 15.3401 32.1307 12.0414C36.624 8.78561 46.0726 9.51388 49.3062 13.498C49.3062 13.498 52.1198 16.0255 52.2037 22.0231C52.2354 26.2865 52.1955 26.7999 52.1559 27.3084C52.143 27.4744 52.1301 27.6399 52.1198 27.935C52.0778 29.1346 51.1119 30.7625 49.4741 30.7625C49.4741 30.7625 40.5294 30.634 39.2276 30.634C37.9258 30.634 37.2119 32.0048 37.6739 33.033C38.1358 34.0611 38.7657 35.3463 42.1672 35.5177C45.1068 35.6891 48.2143 34.7894 49.0122 34.4895C49.8101 34.1897 51.0699 34.1468 51.2799 35.7319C51.4632 37.1156 51.4545 39.1524 51.4493 40.36C51.4485 40.5354 51.4479 40.694 51.4479 40.8298ZM63.92 43.5716C65.5158 43.5716 65.7258 42.0722 65.5998 40.0587C65.4738 38.0881 65.6418 23.9081 65.7678 22.4944C65.8518 21.0807 66.3977 19.6241 67.7835 19.6241C69.1693 19.6241 69.7572 21.3805 69.7152 22.9656C69.7152 24.5507 69.5472 40.2301 69.5052 41.601C69.4632 42.9718 70.3031 43.5716 71.9409 43.4859C73.1715 43.4215 75.1607 43.4539 76.3944 43.474C76.8027 43.4806 77.1282 43.4859 77.3161 43.4859C78.072 43.4859 79.1638 42.8005 79.2478 41.3439C79.3738 39.8874 79.4578 22.5801 79.4158 18.9815C79.3738 15.3829 78.7439 13.7122 76.6022 11.4417C74.4605 9.17116 70.891 9.29968 69.6312 9.55672C68.3715 9.80546 67.1904 10.4554 66.6207 10.7688L66.5657 10.7991C66.0197 11.099 65.5998 11.099 65.3898 10.7562C65.3234 10.6342 65.3032 10.5851 65.2907 10.5547C65.2868 10.5453 65.2837 10.5378 65.2802 10.5304C65.265 10.4983 65.2424 10.4697 65.1217 10.3169L65.1197 10.3144C65.0724 10.2545 65.0102 10.1758 64.9279 10.0708C64.355 9.38895 63.3479 9.56841 62.2173 9.76987C61.8563 9.83421 61.4826 9.9008 61.1065 9.94228C60.0798 10.0445 59.2322 9.96385 58.5639 9.90028C58.1115 9.85724 57.7412 9.82202 57.453 9.8566C56.7391 9.89944 55.8992 10.285 55.7312 12.17C55.5633 14.0978 55.4373 20.8236 55.4373 26.0501C55.4373 31.2766 55.4793 37.4883 55.5633 40.5728C55.6053 43.6573 56.9491 43.6573 58.4188 43.5716C59.6213 43.4548 60.9994 43.4972 62.2605 43.5361C62.8491 43.5542 63.4122 43.5716 63.92 43.5716ZM82.7333 26.3928C82.8593 17.8248 84.2451 8.82844 95.2055 8.78561C105.662 8.74277 107.846 16.6681 107.678 26.3928C107.51 36.1175 104.99 43.9572 95.2055 44C86.5967 44 82.5653 39.459 82.7333 26.3928ZM38.9337 24.0366C38.1778 24.0366 37.0859 23.7796 37.1279 22.4515C37.1699 21.1663 37.2959 17.8248 39.6896 17.4821C41.9937 17.1934 42.2355 19.1278 42.3253 19.846L42.3352 19.924C42.4192 20.5666 42.4192 21.7661 42.4192 22.4944C42.4192 23.2226 42.1672 23.9509 41.3273 23.9938C40.5294 24.0794 38.9337 24.0366 38.9337 24.0366ZM95.0795 33.9326C97.1792 33.9326 97.5992 30.4198 97.5992 26.1358C97.5992 21.8518 97.4732 18.5103 95.1635 18.5531C93.2318 18.5531 92.5599 21.8946 92.5599 26.1786C92.5599 30.4626 92.7279 33.9326 95.0795 33.9326Z" fill="#FF0000"/>
<path d="M257.156 10.4656C256.108 9.37642 255.143 9.16697 254.471 9.04129C253.842 8.91562 253.339 8.91562 253.045 8.87373C252.71 8.83184 252.08 8.78995 251.409 8.74805C250.654 8.70616 250.109 8.62238 249.521 8.62238H249.186C244.739 8.58049 241.173 10.1305 238.698 12.1831C238.53 11.5548 238.194 10.9264 237.775 10.4656C236.726 9.37642 235.761 9.16697 235.09 9.04129C234.503 8.91562 233.999 8.91562 233.705 8.87373C233.412 8.83184 232.741 8.78995 232.069 8.74805C231.314 8.70616 230.769 8.62238 230.181 8.62238H229.846C224.392 8.58049 220.239 10.9264 217.764 13.7331L217.26 14.3615C216.631 12.8115 215.666 11.5548 214.617 10.675L214.575 10.6332C211.891 8.62238 208.954 8.49671 206.856 8.45482C203.081 8.41293 199.934 9.50209 197.501 11.0102C197.375 10.7169 197.207 10.4656 196.998 10.2142C196.956 10.1724 196.956 10.1305 196.914 10.0886C196.872 10.0467 196.83 9.9629 196.788 9.92101C196.704 9.83722 196.704 9.79533 196.41 9.50209C195.991 9.08318 195.445 8.83184 194.858 8.70616C194.648 8.66427 194.187 8.5386 193.474 8.5386C192.299 8.5386 191.418 8.87373 190.663 9.29264C190.411 9.16697 190.16 9.04129 189.908 8.9994C189.195 8.78995 188.649 8.78994 188.104 8.78994C187.684 8.78994 187.307 8.83184 186.803 8.83184C186.594 8.83184 186.342 8.87373 186.174 8.87373H185.922C185.335 8.87373 184.58 8.83184 183.699 8.83184C183.154 8.83184 182.231 8.78995 180.93 9.20886C180.301 9.41831 179.546 9.83722 178.958 10.5075C178.371 11.1358 177.994 11.8899 177.784 12.6858C177.49 12.1412 177.155 11.6385 176.735 11.2196C175.183 9.4602 172.708 8.41293 169.897 8.45482C169.226 8.45482 168.429 8.5386 167.422 8.70616C166.876 8.83184 166.289 8.95751 165.702 9.20886C165.282 8.9994 164.905 8.91562 164.569 8.87373C164.066 8.78995 163.604 8.74805 163.143 8.74805C162.807 8.74805 162.681 8.74805 162.471 8.78994H161.59C161.297 8.83184 161.003 8.83184 160.793 8.87373H160.584C160.374 8.87373 159.954 8.83184 159.535 8.78994H158.948C159.199 8.45482 159.409 8.11969 159.619 7.74267L159.787 7.44943C159.829 7.36565 159.87 7.23998 159.954 7.1143L160.08 6.86296C160.122 6.82106 160.122 6.73728 160.164 6.61161C160.206 6.48594 160.248 6.40215 160.332 5.81568V5.48055C160.374 4.72651 159.996 3.46978 159.199 2.75763C158.654 2.21305 158.067 2.00359 157.647 1.83603C156.389 1.5009 155.801 1.58468 154.878 1.54279C153.787 1.54279 152.823 1.58468 151.984 1.58468C151.984 1.58468 151.354 1.54279 150.851 1.54279C150.264 1.5009 149.844 1.5009 149.425 1.5009C148.292 1.5009 146.949 1.75224 145.859 2.50628C145.607 2.71574 145.355 2.8833 145.145 3.09276C144.642 2.46439 143.887 1.91981 143.258 1.66846C142.377 1.37522 141.705 1.33333 141.076 1.33333C140.699 1.33333 140.069 1.37522 139.356 1.37522C138.685 1.41712 137.93 1.41712 137.888 1.41712C136.965 1.41712 135.916 1.37522 134.825 1.37522C134.532 1.37522 134.196 1.41712 133.86 1.45901C119.052 2.12926 121.275 2.08737 120.1 2.17115C119.01 2.21305 118.338 2.71574 118.338 3.30221C118.338 3.8468 119.01 4.3076 120.1 4.43327C120.73 4.47516 125.512 4.68462 129.791 4.89407C129.665 5.27109 129.623 5.60622 129.581 5.94135C129.539 6.15081 129.581 6.31837 129.581 6.40215C129.581 7.15619 129.707 7.70078 129.791 8.28725C122.114 8.62238 121.904 8.62238 120.981 8.70616C119.891 8.74805 119.219 9.25075 119.219 9.83722C119.219 10.3818 119.891 10.8426 120.981 10.9683C121.611 11.0102 126.141 11.2196 130.337 11.4291L130.756 14.7804C122.995 15.1574 122.785 15.1574 121.862 15.1993C120.772 15.2412 120.1 15.7439 120.1 16.3303C120.1 16.8749 120.772 17.3357 121.862 17.4614C122.492 17.5033 126.98 17.7127 131.134 17.9222L131.218 18.5087L131.259 18.6762C131.343 19.1789 131.427 19.8073 131.469 20.3519C131.469 20.4776 131.469 20.5613 131.511 20.687C131.385 20.8546 131.217 21.064 131.05 21.2316C122.24 21.6505 122.072 21.6505 121.107 21.6924C120.016 21.7343 119.345 22.237 119.345 22.8235C119.345 23.368 120.016 23.8288 121.107 23.9545C121.653 23.9964 125.009 24.164 128.616 24.3315L125.89 27.7247C117.08 28.1436 116.87 28.1436 115.905 28.1855C114.814 28.2274 114.143 28.7301 114.143 29.3166C114.143 29.8612 114.814 30.322 115.905 30.4476C116.451 30.4895 119.849 30.6571 123.456 30.8247L122.995 31.3692L122.827 31.6206C122.743 31.7044 122.492 32.0814 122.24 32.4165L121.862 32.9192C121.778 33.0449 121.736 33.1287 121.653 33.2543C121.401 33.5895 121.107 33.9246 120.813 34.2597C112.507 34.6367 112.339 34.6367 111.374 34.6786C110.284 34.7205 109.612 35.2232 109.612 35.8097C109.612 36.3543 110.284 36.8151 111.374 36.9408C111.878 36.9826 115.066 37.1502 118.506 37.2759C118.464 37.3597 118.38 37.4853 118.338 37.5691C118.003 38.1975 117.709 38.7421 117.541 39.6218V40.2083C117.541 40.3758 117.541 40.5434 117.583 40.711C108.27 41.1299 108.102 41.1299 107.095 41.2136C106.005 41.2555 105.333 41.7582 105.333 42.3447C105.333 42.8893 106.005 43.3501 107.095 43.4758C108.228 43.5595 119.807 44.1041 121.233 44.146C121.569 44.1879 121.82 44.1879 121.946 44.1879C122.492 44.1879 122.995 44.146 123.582 44.1041C123.876 44.1041 124.17 44.1041 124.463 44.0622H124.883C125.135 44.0622 126.141 44.1041 127.106 44.1041C128.071 44.146 128.952 44.1879 129.539 44.1879C130.127 44.1879 130.504 44.1041 131.176 43.8947C131.763 43.6852 132.56 43.3501 133.273 42.596C133.525 42.3447 133.567 42.2609 133.651 42.1771C134.07 42.8474 134.909 43.5595 135.748 43.8528C136.587 44.1879 137.384 44.2717 138.307 44.2717C138.895 44.2717 139.398 44.2298 140.027 44.146C140.321 44.1041 140.615 44.1041 140.866 44.0622H141.202C141.412 44.0622 141.705 44.1041 142.251 44.1041C142.628 44.146 143.006 44.1879 143.467 44.1879C143.551 44.9838 143.929 46.073 144.852 46.827C145.859 47.7068 147.033 47.9162 148.04 47.9162C148.334 47.9162 148.837 47.9162 149.341 47.8743C149.844 47.8743 150.389 47.8324 150.431 47.8324C151.228 47.8324 152.277 47.8324 152.613 47.8743C152.948 47.9162 153.452 48 154.123 48H154.207C155.633 48 157.018 47.3716 157.815 46.5757C158.15 46.2406 158.444 45.8636 158.696 45.4028L158.948 44.9001C158.99 44.8163 158.99 44.7325 159.031 44.6068C159.073 44.4811 159.115 44.4811 159.157 43.9785C159.703 44.0622 160.248 44.1041 160.877 44.1041C164.653 44.1041 167.673 42.5123 169.729 40.6272C169.813 41.088 169.981 41.5488 170.233 41.9677C170.904 43.0987 171.995 43.6014 172.666 43.8109C173.379 44.0203 173.882 43.9785 174.218 44.0203C174.721 44.0203 175.435 43.9785 176.232 43.9366C176.987 43.8947 177.826 43.8528 177.91 43.8528H177.952C178.161 43.8528 178.581 43.8947 179 43.8947C179.42 43.9366 179.756 43.9366 180.091 43.9366C180.804 43.9366 182.86 43.8947 183.741 43.5177C184.622 43.1406 185.377 42.4285 185.797 41.8001C186.132 41.3393 186.51 40.7528 186.762 40.0407C186.929 39.5799 187.307 38.8677 187.265 37.8624C187.223 39.0353 187.768 39.9988 187.768 39.9988C188.607 42.0515 189.824 43.0987 192.551 43.7271H192.635C194.523 44.1879 197.711 44.1879 199.641 44.1879C201.654 44.1879 203.71 44.0203 205.598 43.6433C206.521 43.4339 207.402 43.2244 208.283 42.8893C208.618 42.7217 208.954 42.5961 209.331 42.3866C209.961 43.1406 210.716 43.5177 211.387 43.7271L211.471 43.769C213.107 44.2717 214.995 44.523 216.715 44.523C218.938 44.523 220.575 44.4811 222.127 44.1879C223.679 43.9366 225.105 43.392 226.406 42.7217C227.035 42.3866 227.622 42.0096 228.21 41.6326C228.294 41.842 228.42 42.0096 228.587 42.1771C229.259 43.0569 230.098 43.4758 230.811 43.7271L230.895 43.769C232.531 44.2717 234.419 44.523 236.139 44.523C238.362 44.523 239.998 44.4811 241.55 44.1879C243.103 43.9366 244.529 43.392 245.829 42.7217C248.137 41.5069 250.109 39.7475 251.535 37.7367L251.577 37.6948C252.416 36.4381 253.045 35.0975 253.465 33.8408C253.884 32.5841 254.178 31.453 254.262 30.3639C254.304 30.0706 254.304 29.7774 254.304 29.526C254.304 28.395 254.136 27.3058 253.758 26.2166C253.632 25.8396 253.507 25.4626 253.339 25.1275C253.255 24.9599 253.213 24.8342 253.129 24.7086C253.087 24.6667 253.045 24.5829 253.045 24.541C252.793 24.0802 252.542 23.6194 252.206 23.2005C252.751 23.1586 253.213 23.0329 253.758 22.8235C254.388 22.5721 255.101 22.237 255.814 21.5667C256.108 21.2735 256.401 20.9802 256.611 20.6032C256.695 20.4776 256.737 20.3938 256.737 20.3519L256.947 19.9749C257.45 18.8438 257.534 18.006 257.618 17.6709C257.702 17.4195 257.912 16.833 258.121 16.2466C258.247 15.9114 258.331 15.6182 258.415 15.2831C258.457 15.1155 258.499 14.9898 258.541 14.8223C258.583 14.6547 258.625 14.529 258.667 14.1101V13.6912C258.247 12.3088 257.828 11.1777 257.156 10.4656Z" fill="#FF0000"/>
<path fill-rule="evenodd" clip-rule="evenodd" d="M133.945 8.69437C133.952 8.7211 133.96 8.74925 133.967 8.77801C133.967 8.77801 135.02 17.3615 135.062 17.3615C135.314 18.6723 135.441 20.4059 135.441 20.6173C135.398 20.9133 135.272 21.167 135.146 21.3784C135.007 21.6291 134.357 22.4116 133.857 23.0134C133.598 23.3252 133.379 23.5885 133.293 23.704L126.093 32.7104C126.013 32.8504 125.773 33.1798 125.529 33.5149C125.257 33.888 124.98 34.268 124.914 34.4017C124.619 34.7822 124.314 35.1522 124.009 35.5222C123.703 35.8922 123.398 36.2622 123.103 36.6427C121.672 38.3763 121.377 39.0951 121.335 39.3911C121.293 40.1099 122.135 40.1099 122.388 40.1099C122.64 40.1099 123.272 40.0677 123.861 40.0254C124.213 40.0254 124.618 40.0079 124.906 39.9954C125.066 39.9885 125.191 39.9831 125.251 39.9831C125.416 39.9831 125.665 39.9896 125.968 39.9975C126.438 40.0098 127.037 40.0254 127.651 40.0254C128.619 40.0677 129.63 40.1099 129.967 40.1099C130.135 40.1099 130.851 40.0254 131.356 39.518C131.693 39.222 134.598 34.6977 135.104 33.556C135.356 33.0484 135.988 31.7801 136.198 31.5264C136.251 31.5264 136.286 31.5103 136.336 31.488C136.367 31.4742 136.403 31.458 136.451 31.4419L136.325 32.9641C136.333 33.0554 136.345 33.3489 136.361 33.7658C136.428 35.4721 136.576 39.2454 136.914 39.6871C137.041 39.9408 137.462 40.2368 138.725 40.2368C138.962 40.2368 139.596 40.1814 140.216 40.1273C140.806 40.0757 141.383 40.0254 141.588 40.0254C141.825 40.0254 142.04 40.0364 142.25 40.0473C142.45 40.0576 142.646 40.0677 142.851 40.0677C143.314 40.1099 143.778 40.1522 144.115 40.1522C144.704 40.1522 146.809 40.1522 146.978 38.334C146.978 38.0381 146.936 37.4884 146.472 33.852C146.346 32.8795 146.241 31.8964 146.136 30.9133C146.03 29.9302 145.925 28.9471 145.799 27.9746C145.63 27.4672 145.294 25.0148 145.251 24.6765L145.22 24.5321C145.009 23.5596 144.706 22.1614 144.746 21.759C144.746 21.5995 144.842 21.3918 144.943 21.1724C144.976 21.101 145.01 21.0283 145.041 20.9556L152.999 11.0613C153.437 10.5113 153.889 9.97199 154.34 9.43403C155.45 8.11078 156.552 6.79603 157.42 5.35307C157.504 5.18393 157.631 4.88795 157.631 4.84567C157.715 4.21142 157.041 4.16913 155.483 4.16913C155.004 4.16913 154.535 4.17948 154.062 4.18994C153.578 4.20062 153.089 4.21142 152.578 4.21142C152.356 4.21142 151.746 4.18785 151.171 4.1656C150.656 4.1457 150.168 4.12685 150.009 4.12685C148.494 4.12685 147.988 4.67653 147.23 5.86046C145.083 9.03171 144.704 9.66596 143.778 11.4841L143.525 11.5264L143.651 10.2156C143.679 9.90888 143.67 9.6389 143.661 9.35718C143.656 9.2118 143.651 9.06317 143.651 8.90486C143.63 8.52431 143.578 8.15433 143.525 7.78436C143.472 7.41438 143.42 7.0444 143.399 6.66385C143.399 6.07188 143.399 5.56448 143.314 5.0148C143.188 4.29598 142.851 4 141.63 4C141.399 4 140.714 4.02114 140.03 4.04228C139.346 4.06342 138.662 4.08457 138.43 4.08457C137.898 4.08457 137.377 4.07378 136.862 4.0631C136.357 4.05264 135.856 4.04228 135.356 4.04228C134.135 4.04228 133.504 4.54968 133.419 5.5222C133.379 6.09076 133.649 7.28342 133.857 8.20104L133.883 8.3129C133.883 8.45301 133.912 8.56422 133.945 8.69437ZM152.536 26.4947C152.367 27.0867 152.325 27.2135 152.157 27.6786L149.041 38.0803C148.451 40.0677 148.367 40.3214 147.399 42.6047C147.387 42.6293 147.374 42.6531 147.362 42.6764C147.292 42.8126 147.23 42.9315 147.23 43.112C147.188 43.3657 147.315 43.9154 148.494 43.9154C148.723 43.9154 149.325 43.9029 149.875 43.8915L149.876 43.8915C150.337 43.8819 150.759 43.8731 150.894 43.8731C151.778 43.8731 152.873 43.8731 153.462 43.9154L153.582 43.9276L153.642 43.9338C153.983 43.9691 154.282 44 154.641 44C156.031 44 156.368 43.0275 156.368 42.9852C156.41 42.3932 156.873 39.7717 157.336 39.3488C157.378 39.2643 157.504 39.1797 157.631 39.1797H157.673C158.03 39.2156 158.357 39.4034 158.679 39.5886L158.68 39.5891C158.737 39.6222 158.794 39.6551 158.852 39.6871C159.399 39.8985 160.452 40.1099 161.378 40.1099C167.821 40.1099 170.726 34.2326 171.736 32.0338C173.084 29.074 174.01 25.9873 174.684 23.6617L175.017 22.4849C175.645 20.2639 175.874 19.4539 175.947 19.0529C175.965 18.9242 176.039 18.4919 176.117 18.0373C176.218 17.4463 176.326 16.8173 176.326 16.7696C176.537 14.2326 175.105 11.0613 170.684 11.0613C169.842 11.0613 167.989 11.2727 166.852 12.0338C166.726 12.1184 166.604 12.2077 166.482 12.2969C166.239 12.4754 165.996 12.654 165.715 12.7949H165.547C165.378 12.7949 165.294 12.7104 165.336 12.4567L165.338 12.4259C165.379 11.7282 165.399 11.3996 163.905 11.3996C163.822 11.3996 163.681 11.4061 163.51 11.414C163.245 11.4262 162.906 11.4419 162.599 11.4419L162.301 11.4634C161.833 11.4974 161.434 11.5264 161.294 11.5264C161.126 11.5264 160.536 11.4841 159.947 11.4419C159.577 11.4419 159.226 11.4226 158.999 11.41C158.89 11.404 158.809 11.3996 158.768 11.3996C158.094 11.3996 157.606 11.8119 157.341 12.0366L157.294 12.0761C156.891 12.6829 156.809 12.9672 156.494 14.0645C156.414 14.3436 156.319 14.6753 156.199 15.0782C156.199 15.2896 154.81 19.9831 153.336 24C153.041 24.8034 152.788 25.6068 152.536 26.4947ZM164.073 19.1374C163.242 19.8922 162.858 21.2067 162.535 22.3097L162.473 22.5201C162.161 23.6953 161.758 24.8524 161.354 26.0165C160.884 27.3654 160.412 28.724 160.073 30.1311C159.989 30.3848 159.904 30.6385 159.904 30.8922C159.82 31.8647 160.536 32.4567 161.21 32.4567C162.684 32.4567 163.526 30.723 163.526 30.6385C163.653 30.3313 164.444 27.9163 165.133 25.8144C165.582 24.4445 165.987 23.2076 166.136 22.7738C166.524 21.5083 166.689 20.5665 166.763 20.1395C166.786 20.0101 166.8 19.928 166.81 19.8985C166.852 19.3488 166.726 18.9683 166.557 18.8414C166.389 18.63 166.052 18.5455 165.715 18.5455C165.294 18.5032 164.578 18.7146 164.073 19.1374ZM194.306 11.2727C192.537 11.2727 190.39 13.852 189.842 14.6977C189.702 14.9232 189.636 14.9984 189.571 15.0735C189.538 15.1111 189.505 15.1487 189.463 15.2051C189.499 15.098 189.564 14.8628 189.635 14.6108C189.731 14.2659 189.836 13.8896 189.884 13.7674C189.884 13.6466 190.008 13.2496 190.122 12.8842C190.207 12.6104 190.287 12.3539 190.305 12.2452C190.348 11.7801 190.053 11.5264 188.958 11.5264C188.757 11.5264 188.234 11.5503 187.745 11.5727C187.313 11.5924 186.907 11.611 186.768 11.611C186.39 11.611 186.011 11.6004 185.632 11.5899C185.253 11.5793 184.874 11.5687 184.495 11.5687C183.484 11.5687 182.137 11.5687 181.758 13.0486C181.697 13.2176 181.585 13.5652 181.46 13.9556C181.242 14.6395 180.981 15.4549 180.874 15.6702C180.789 16.1353 180.284 17.9958 180.116 18.4186C179.695 19.7294 179.231 21.1247 178.768 22.4355C178.052 24.7611 177.337 27.0867 176.537 29.4123C175.779 31.4419 175.694 31.6956 175.442 32.6258C175.358 32.9006 175.273 33.1966 175.189 33.4926C175.105 33.7886 175.021 34.0846 174.937 34.3594C174.726 35.0571 174.494 35.7441 174.263 36.4312C174.031 37.1183 173.8 37.8055 173.589 38.5032C173.573 38.5866 173.549 38.6634 173.527 38.7362C173.494 38.848 173.463 38.9504 173.463 39.0529C173.379 39.9831 174.094 40.0677 174.726 40.0677C175.032 40.0677 175.883 40.0221 176.7 39.9783L176.702 39.9782C177.459 39.9376 178.189 39.8985 178.431 39.8985C178.6 39.8985 179.063 39.9197 179.526 39.9408C179.989 39.9619 180.453 39.9831 180.621 39.9831C181.547 39.9831 181.968 39.7717 182.305 39.2643C182.895 38.4609 182.979 38.1649 183.147 36.9387C183.161 36.8541 183.18 36.7696 183.199 36.685C183.236 36.5159 183.274 36.3467 183.274 36.1776C183.548 35.0025 183.954 33.857 184.362 32.706C184.644 31.9106 184.928 31.1124 185.168 30.3002C185.385 29.6463 185.576 28.9792 185.768 28.3103C186.17 26.903 186.575 25.4875 187.232 24.1691C188.2 22.3509 189.632 21.2939 190.558 21.2939C190.621 21.2939 190.832 21.3361 191.042 21.3784C191.253 21.4207 191.463 21.463 191.527 21.463C192.44 21.463 192.781 20.3518 192.951 19.7941L192.958 19.7717C193.131 19.1468 193.28 18.6063 193.41 18.1335L193.411 18.13C194.134 15.5025 194.282 14.9661 194.853 13.6406C194.916 13.4563 194.971 13.2978 195.018 13.1608C195.286 12.3861 195.316 12.298 195.316 12.1184C195.316 12.0761 195.316 11.9915 195.274 11.7801C195.232 11.6956 195.021 11.3996 194.979 11.3573C194.769 11.315 194.558 11.2727 194.306 11.2727ZM191.737 27.3404C191.821 27.0655 191.927 26.6956 192.021 26.3626C192.116 26.0296 192.2 25.7336 192.242 25.6068C192.327 25.3108 193.758 21.5053 193.969 21.0824C194.769 19.0529 198.053 11.2304 207.738 11.2304C209.674 11.2304 211.822 11.4419 213.464 12.7104C214.685 13.6829 215.822 15.6702 215.569 18.5455C215.486 19.503 215.077 20.9936 214.743 22.2097L214.727 22.2664C214.6 22.5771 214.276 23.5117 213.932 24.5036C213.48 25.8068 212.994 27.2089 212.875 27.4249C212.748 27.5941 211.611 28.9471 210.306 28.9471C210.174 28.9471 209.812 28.924 209.466 28.902C209.151 28.8819 208.849 28.8626 208.748 28.8626C208.517 28.8626 207.874 28.9049 207.232 28.9471C206.59 28.9894 205.948 29.0317 205.716 29.0317C205.432 29.0317 204.577 29.012 203.693 28.9916C202.748 28.9697 201.77 28.9471 201.422 28.9471C200.958 28.9471 199.611 28.9471 199.443 30.7653C199.4 31.3573 199.569 31.7801 199.653 31.907C200.369 33.3023 202.222 33.3446 203.148 33.3446C205.422 33.3446 205.801 33.26 208.201 32.3721C208.313 32.347 208.422 32.3182 208.528 32.2901C208.779 32.2235 209.016 32.1607 209.253 32.1607C210.053 32.1607 210.643 32.7104 210.601 33.2178C210.601 33.3869 210.601 33.4292 210.348 33.9366C210.264 34.1057 209.59 35.9662 209.253 37.1501C209.177 37.3916 209.124 37.5797 209.081 37.7314C208.982 38.0843 208.937 38.2412 208.79 38.4186C207.906 39.6448 203.822 40.3214 200.2 40.3214C198.432 40.3214 196.748 40.1522 195.358 39.7717C191.274 38.5032 190.39 35.1628 190.642 32.3298C190.769 30.5962 191.232 28.9049 191.737 27.3404ZM205.927 22.7315C205.548 23.0698 204.79 23.0698 204.495 23.0698H202.937C202.18 23.0698 201.969 22.8583 202.011 22.1818C202.011 22.0127 202.474 20.0254 203.274 18.8837C204.201 17.6152 205.127 17.6152 205.548 17.6152C207.19 17.6152 207.19 18.7569 207.148 19.3066C207.148 19.3488 206.643 22.055 205.927 22.7315ZM231.191 11.3573C231.563 11.3573 233.103 11.4937 233.956 11.5693C234.166 11.5878 234.334 11.6027 234.433 11.611L234.478 11.6131C235.361 11.655 236.621 11.7148 236.538 12.8372C236.496 13.1755 235.823 15.2474 235.654 15.7125C235.594 15.9251 235.55 16.1542 235.504 16.3898C235.423 16.81 235.338 17.2511 235.149 17.6575C235.118 17.709 235.09 17.7606 235.062 17.8109C234.977 17.967 234.897 18.1113 234.77 18.2072C234.265 18.7569 233.296 19.0106 232.875 19.0106H232.707C232.563 19.0106 232.172 18.8593 231.816 18.7215C231.548 18.6176 231.299 18.5213 231.191 18.5032C230.896 18.4186 230.601 18.4186 230.265 18.4186C228.117 18.4186 227.865 19.7294 227.865 19.8985C227.827 20.4261 228.157 20.9872 228.349 21.3126C228.372 21.3523 228.394 21.3885 228.412 21.4207C228.701 21.8315 229.044 22.2422 229.388 22.653C229.646 22.961 229.904 23.2691 230.138 23.5772C230.601 24.1268 231.023 24.7611 231.317 25.3531C231.486 25.5645 232.328 27.2981 232.117 29.3277C231.991 30.6385 231.233 33.26 229.97 35.1628C228.917 36.685 227.275 38.1649 225.422 39.1374C223.233 40.3214 221.549 40.5751 217.254 40.5751C215.948 40.5751 214.138 40.3214 213.043 39.9831C212.201 39.6871 212.159 39.2643 212.201 38.7992C212.243 38.5032 212.327 38.2072 212.453 37.8266C212.486 37.7273 212.578 37.4854 212.681 37.21C212.842 36.7821 213.034 36.2731 213.085 36.093C213.338 35.3742 213.506 34.6131 213.675 33.852C214.096 32.4144 215.527 32.203 215.738 32.203C215.864 32.203 215.906 32.203 216.075 32.2452C216.355 32.3155 216.605 32.4442 216.875 32.5827C216.93 32.6109 216.986 32.6395 217.043 32.6681C217.675 32.8795 218.306 32.9218 219.022 32.9218C220.201 32.9218 220.538 32.8795 221.17 32.5835C221.97 32.1607 222.306 31.6956 222.349 31.0613C222.349 30.9183 222.288 30.6243 222.244 30.4091C222.236 30.3697 222.229 30.3329 222.222 30.3002C222.006 29.7108 221.472 29.2352 220.954 28.7732C220.766 28.6054 220.58 28.4395 220.412 28.2706C219.991 27.8055 219.148 26.7907 218.769 25.8182C218.727 25.7336 218.054 23.408 218.18 21.8858C218.475 18.7146 221.675 11.4419 230.812 11.4419L231.191 11.3573ZM253.41 11.5693C252.556 11.4937 251.016 11.3573 250.644 11.3573L250.307 11.4419C241.17 11.4419 237.97 18.7146 237.675 21.8858C237.549 23.408 238.223 25.7336 238.265 25.8182C238.644 26.7907 239.486 27.8055 239.907 28.2706C240.075 28.4395 240.261 28.6054 240.449 28.7732C240.968 29.2352 241.501 29.7108 241.718 30.3002C241.724 30.3329 241.732 30.3697 241.74 30.4091C241.784 30.6243 241.844 30.9183 241.844 31.0613C241.802 31.6956 241.465 32.1607 240.665 32.5835C240.033 32.8795 239.696 32.9218 238.517 32.9218C237.802 32.9218 237.17 32.8795 236.538 32.6681C236.482 32.6395 236.426 32.6109 236.371 32.5827C236.101 32.4442 235.85 32.3155 235.57 32.2452C235.402 32.203 235.36 32.203 235.233 32.203C235.023 32.203 233.591 32.4144 233.17 33.852C233.002 34.6131 232.833 35.3742 232.58 36.093C232.529 36.2731 232.338 36.7816 232.177 37.2095C232.073 37.4851 231.982 37.7272 231.949 37.8266C231.823 38.2072 231.738 38.5032 231.696 38.7992C231.654 39.2643 231.696 39.6871 232.538 39.9831C233.633 40.3214 235.444 40.5751 236.749 40.5751C241.044 40.5751 242.728 40.3214 244.918 39.1374C246.728 38.1649 248.413 36.685 249.465 35.1628C250.728 33.26 251.486 30.6385 251.613 29.3277C251.781 27.2981 250.939 25.5645 250.771 25.3531C250.476 24.7611 250.055 24.1268 249.592 23.5772C249.357 23.2691 249.099 22.961 248.841 22.653C248.498 22.2422 248.154 21.8315 247.865 21.4207C247.847 21.3885 247.826 21.3523 247.802 21.3126C247.611 20.9872 247.28 20.4261 247.318 19.8985C247.318 19.7294 247.57 18.4186 249.718 18.4186C250.055 18.4186 250.349 18.4186 250.644 18.5032C250.753 18.5213 251.001 18.6176 251.269 18.7215C251.625 18.8593 252.016 19.0106 252.16 19.0106H252.328C252.75 19.0106 253.718 18.7569 254.223 18.2072C254.351 18.1113 254.43 17.967 254.516 17.8109C254.543 17.7606 254.571 17.709 254.602 17.6575C254.76 17.2604 254.853 16.8301 254.941 16.4186C254.993 16.1728 255.045 15.9338 255.107 15.7125C255.276 15.2474 255.95 13.1755 255.992 12.8372C256.116 11.7166 254.82 11.6552 253.936 11.6133L253.886 11.611C253.787 11.6027 253.619 11.5878 253.41 11.5693Z" fill="white"/>
</svg>
