<svg width="291" height="46" viewBox="0 0 291 46" fill="none" xmlns="http://www.w3.org/2000/svg">
<path fill-rule="evenodd" clip-rule="evenodd" d="M74.4243 5.87154C74.4243 5.11929 74.6817 4.33433 75.1644 3.71291C76.0976 2.79712 77.1917 2.50277 78.4789 2.79712L78.5465 2.83324C79.1505 3.15557 79.9398 3.57675 80.2809 4.30162C80.7314 5.15199 80.6992 6.1659 80.2165 7.34333C79.412 8.48806 78.5432 8.97865 77.5135 8.91324C76.2585 8.88054 75.1966 8.22641 74.7139 7.1798C74.5208 6.78732 74.4243 6.32943 74.4243 5.87154ZM81.8577 7.31062C81.8577 5.87154 82.4369 4.75952 83.4988 4.2035C84.2711 3.84373 85.2365 3.77832 86.041 4.07268C86.8133 4.33433 87.4246 4.89034 87.7464 5.60988C88.1648 6.59108 88.1004 7.76851 87.5855 8.61888C86.7811 9.82902 85.5904 10.2869 84.078 9.95985C82.9518 9.66549 82.0186 8.52076 81.8577 7.31062ZM55.342 14.9312C54.248 15.291 53.3791 16.3703 53.2182 17.5478L54.9559 28.7988C55.3033 29.7296 55.4027 30.9438 55.4975 32.1015L55.5029 32.1676C55.696 34.7514 55.8891 37.2044 58.8174 37.5641L66.9265 36.354C68.3424 36.0596 69.5009 34.9149 69.6939 33.6067C69.6939 32.56 69.4687 31.8405 68.986 31.2518C67.6802 29.8274 65.996 30.1333 64.2144 30.4568L64.1591 30.4668C64.0602 30.4836 63.9602 30.5009 63.8595 30.5183C63.1741 30.6369 62.4554 30.7612 61.8101 30.7612H61.7457L61.4883 30.4995L59.7828 19.2812L59.6339 18.3725C59.4813 17.4356 59.3346 16.5349 58.6565 15.8143C57.8198 14.9312 56.3718 14.5388 55.342 14.9312ZM150.431 21.3744C150.431 19.1831 150.978 16.9917 152.04 15.2583C154.583 11.1373 159.216 8.97865 164.075 9.63279C166.296 9.89444 168.259 10.7448 169.9 12.0531C170.672 12.8053 171.058 13.623 171.09 14.4733C170.994 15.6181 170.254 17.0245 168.967 17.4169C167.586 17.9391 166.526 17.3541 165.402 16.7341L165.395 16.7301C164.429 16.1741 163.4 15.6181 162.145 15.7816C160.471 15.7489 158.798 16.5666 157.672 17.9729C156.352 19.6083 156.191 22.0613 157.221 23.9582C158.38 25.8225 160.31 26.8691 162.499 26.8364C163.11 26.8037 163.786 26.7056 164.301 26.2477L164.365 26.215L164.397 25.5936C164.429 24.0236 164.494 22.2575 165.942 21.3417C167.132 20.7203 168.484 20.753 169.481 21.4725C170.93 22.421 170.801 24.3834 170.672 26.0842L170.64 26.8364C170.64 26.8364 170.254 30.6631 170.254 30.8266C168.323 32.1022 166.038 32.8217 163.239 33.0506C158.669 33.2796 154.518 31.2191 152.137 27.556C151.011 25.8552 150.431 23.6312 150.431 21.3744ZM95.4373 13.95C94.665 14.5388 94.1823 15.2583 94.0536 16.0106L92.3802 31.9059V33.0179C92.3802 33.6394 92.4124 34.2935 92.7342 34.7514C93.4743 35.9615 94.7293 36.5502 96.113 36.354C98.3977 35.798 98.5586 33.7375 98.7195 31.5461C98.7839 30.6304 98.8483 29.7146 99.1057 28.9296L99.2022 28.6353L99.3953 28.8969C100.425 30.336 101.39 31.9386 102.291 33.4431L103.514 35.4382C103.997 36.1251 104.769 37.1062 105.702 37.3352C106.796 37.695 107.987 37.3025 108.888 36.3213C109.274 35.7653 109.5 35.013 109.5 34.3262C109.5 33.9337 109.435 33.5412 109.274 33.1815L105.67 27.5232C105.606 27.3924 105.574 27.2943 105.574 27.1962C105.574 26.9118 105.841 26.7264 106.059 26.5753C106.081 26.5599 106.103 26.5449 106.124 26.5301L106.153 26.5093C106.314 26.4112 106.475 26.3131 106.571 26.215C108.116 24.8086 108.727 22.1594 108.727 20.4586C108.727 20.0989 108.695 19.8045 108.663 19.5756C108.438 18.3981 108.212 18.0711 107.762 17.4496L107.504 17.0899C106.346 15.52 104.898 14.4733 103.45 14.1463L101.937 13.8846L101.848 13.8697C99.7192 13.5142 97.5 13.1437 95.4373 13.95ZM99.2022 22.9116L100.2 23.0425C101.23 23.2387 102.517 23.4349 103.032 22.2902C103.036 22.2623 103.049 22.2039 103.067 22.1229C103.176 21.635 103.468 20.3281 103.192 19.9353C102.742 18.9214 101.519 18.856 100.554 18.8233L99.524 18.7252L99.3631 19.6083C99.1993 20.4684 99.0355 22.1996 98.9896 22.6848C98.9822 22.7633 98.9778 22.8094 98.9771 22.8136L99.2022 22.9116ZM113.329 9.46925C112.396 9.82902 111.656 10.8756 111.559 11.9877L111.881 28.8969L112.203 30.565C113.586 32.8544 117.094 32.5273 119.668 32.2657L120.601 32.1676C125.171 31.8078 128.807 29.6492 130.513 26.2804C131.381 24.7105 131.8 22.8462 131.8 20.9492C131.8 18.4962 131.092 16.0433 129.74 14.2117C128.196 11.5298 125.042 9.56737 121.728 9.2076H121.567L121.32 9.20121C118.823 9.13642 115.789 9.05773 113.329 9.46925ZM118.124 25.8225H118.252C118.252 25.8225 121.309 25.8225 121.374 25.7898C122.854 25.6263 124.656 24.5797 125.235 22.8789C125.943 21.3744 125.653 19.2485 125.01 18.0057C123.723 15.6835 121.213 14.7677 117.93 15.4545L117.802 15.4873V15.6181C117.802 15.6835 117.834 22.5519 118.124 25.659V25.8225ZM181.838 14.2771C179.65 14.5388 177.591 16.0106 176.4 18.0711C175.885 19.0523 175.628 20.2297 175.628 21.3744C175.628 22.8135 176.014 24.2199 176.786 25.2338C177.315 26.4043 178.296 26.9016 179.233 27.3769L179.38 27.4514C180.329 27.9334 181.3 28.4268 181.806 29.551L181.838 29.5838L181.806 29.8127L181.793 29.9071C181.735 30.3329 181.679 30.751 181.259 31.0555C180.93 31.4201 180.518 31.4178 180.126 31.4156L180.069 31.4154L180.036 31.4153H179.747L179.714 31.3826C178.968 30.9718 178.552 30.2556 178.148 29.5585L178.106 29.4856C177.526 28.4717 176.979 27.556 175.628 27.5232C174.662 27.4578 173.761 27.7849 173.053 28.4063C172.378 29.0277 172.152 29.8781 171.991 30.6958C172.185 33.0506 173.697 35.3728 175.853 36.5502C178.331 38.022 181.42 38.0874 183.962 36.7465C186.247 35.5363 187.824 32.9852 187.984 30.2706C188.081 27.2943 186.858 24.8086 184.573 23.206C184.252 22.9116 183.833 22.7481 183.415 22.5846L183.382 22.5716C182.716 22.3141 182.028 22.0478 181.806 21.2436V21.1782L181.838 21.1128C181.999 20.6876 182.417 20.3932 182.836 20.4586C182.9 20.4586 183.479 20.7857 183.479 20.7857C184.96 21.5707 186.601 22.421 188.081 21.2109C189.207 20.1643 189.593 18.8233 189.143 17.5478C187.437 14.8004 184.22 14.2771 181.838 14.2771ZM266.019 14.6696C266.276 13.6884 267.21 12.838 268.304 12.5764C269.784 12.1185 271.361 13.1978 271.94 14.5061L272.165 15.7162C272.165 15.7162 269.72 33.2796 269.72 33.3123C269.366 34.4243 268.271 35.3401 267.081 35.5036C265.826 35.6345 264.667 35.0457 263.959 33.8683C263.67 33.4431 263.605 32.8871 263.605 32.3311C263.605 32.0367 263.605 31.7097 263.638 31.4153V31.2191L266.019 14.6696ZM198.475 12.0858C194.871 13.2305 191.653 16.959 190.881 20.9165C190.752 21.6361 190.688 22.3883 190.688 23.1079C190.688 26.5093 192.103 29.8127 194.581 32.1022C198.121 35.4055 203.72 35.5363 207.421 33.9664C209.802 32.8544 211.797 31.2845 213.181 29.4856C213.149 29.3221 211.507 23.0097 211.507 23.0097C211.057 21.7342 209.931 20.8511 208.644 20.753C207.71 20.7203 206.616 21.2763 205.973 22.094C205.088 23.218 205.475 24.5942 205.855 25.9441L205.876 26.0187L206.166 27.1635L206.101 27.2289C205.329 28.112 204.042 28.668 202.594 28.7007C200.727 28.8315 199.054 27.9811 197.735 26.2804C196.769 24.7432 196.608 22.6827 197.349 21.0474C198.121 19.412 199.569 18.2019 201.21 17.7767C202.155 17.4358 203.158 17.5647 204.137 17.6905L204.299 17.7113C205.876 17.9402 207.26 18.1365 208.193 16.5339C208.547 15.9778 208.708 15.3564 208.708 14.735C208.708 14.2771 208.611 13.7865 208.418 13.2959L207.71 12.4455C204.911 10.5486 200.695 11.3989 198.475 12.0858ZM241.659 15.0621C244.201 14.3425 246.905 13.8519 249.221 13.4594C253.598 12.9361 257.813 15.2583 260.227 19.5102C261.9 22.3556 262.157 26.7056 260.838 29.78C259.487 33.0834 256.011 35.798 252.407 36.3213L250.444 36.7138L250.319 36.7405C248.524 37.1251 246.672 37.5218 244.974 37.1063C243.38 36.1989 243.144 34.5208 242.889 32.7085L242.882 32.6582L242.857 32.4998C242.736 31.7276 242.608 30.9091 242.367 30.2052C242.093 28.5062 241.78 26.8858 241.473 25.2984L241.473 25.2972L241.472 25.2941L241.437 25.1149C241.36 24.7167 241.284 24.3205 241.209 23.9255C241.209 23.9255 240.147 18.2019 240.147 18.2346V18.0056C240.147 17.0245 240.436 15.7816 241.659 15.0621ZM248.835 30.3033C248.031 27.327 247.516 24.1872 247.033 21.1455L246.872 20.2297L247.001 20.1643C249.736 18.9541 253.501 19.412 255.046 22.6173C255.689 24.1545 255.786 26.542 254.692 28.0793C253.566 29.8454 251.699 30.0744 250.026 30.2706L248.9 30.4341L248.835 30.3033ZM215.948 20.1643C217.621 16.1414 221.773 13.1978 226.02 13.0016C230.01 12.7726 233.775 14.6042 236.382 18.0057C238.763 21.2109 239.149 26.3785 237.251 30.3033C235.481 33.7048 232.327 35.9615 228.369 36.6484C224.315 37.139 220.325 35.5363 217.686 32.3965C214.918 29.0277 214.21 24.2199 215.948 20.1643ZM222.127 27.8176C221.226 26.3458 221.032 24.547 221.547 23.1079C222.094 21.4725 223.639 19.968 225.184 19.6083C227.597 18.9868 230.075 19.9353 231.33 21.9631C232.295 23.4349 232.263 25.43 231.845 26.8037C231.33 28.439 229.721 29.9435 228.048 30.3033C225.698 30.7612 223.414 29.8127 222.127 27.8176ZM274.353 18.3C274.353 15.9124 275.608 13.6884 277.7 12.3801C279.341 11.3662 281.754 10.9738 283.846 11.3008C284.779 11.5625 285.455 12.0858 285.809 12.838C286.356 14.0155 286.195 15.4545 285.423 16.3376C284.797 17.323 283.746 17.3816 282.624 17.4442L282.504 17.451C281.931 17.4832 281.329 17.5172 280.789 17.6786H280.757L280.725 17.7113L280.717 17.7211C280.584 17.8902 280.279 18.2762 280.532 18.7252C281.081 19.2218 281.747 19.1588 282.419 19.0951L282.527 19.085C282.945 19.0196 283.363 18.9868 283.75 19.0523C286.453 19.2812 288.93 20.9492 290.089 23.3368C291.505 25.9206 291.247 29.3875 289.478 31.7424C287.45 34.457 284.264 35.569 280.725 34.8168C278.601 34.2281 276.928 32.9525 276.284 31.3826C275.994 30.4668 276.123 29.3548 276.606 28.6026C277.442 27.5232 278.311 27.0326 279.277 27.0981C279.98 26.9738 280.683 27.4103 281.386 27.8469L281.497 27.9157L281.526 27.9339C282.287 28.4175 282.986 28.8618 283.685 28.668C284.136 28.5044 284.522 28.112 284.844 27.3597C284.94 26.6075 284.522 25.8552 283.846 25.5281C283.174 25.333 282.407 25.3642 281.608 25.3968L281.594 25.3973L281.45 25.4016C280.369 25.4343 279.268 25.4676 278.344 24.8413C276.027 23.762 274.482 21.4071 274.385 18.7906C274.353 18.6271 274.353 18.4635 274.353 18.3ZM77.8353 10.2215C73.5876 10.6467 69.6939 13.4594 68.1172 17.1553C67.4414 18.5944 67.1196 20.2624 67.1196 21.9304C67.1196 24.5142 67.8919 27.1635 69.3722 29.1259C71.85 32.2984 75.5184 33.9991 79.5086 33.8683C83.9171 33.5739 87.9073 30.7939 89.645 26.8037C91.1574 23.2714 90.7391 18.529 88.6474 15.5527C86.3627 11.9549 82.2438 9.92714 77.8353 10.2215ZM73.6842 20.2951C73.0084 22.4537 73.7163 24.874 75.454 26.3458C76.8377 27.4251 78.7041 27.7849 80.4096 27.327C82.0186 26.8691 83.4988 25.43 84.0137 23.8274C84.6572 22.0286 84.2711 19.9353 83.0805 18.529C82.1473 17.2207 80.4418 16.4684 78.3823 16.5012C76.3228 16.632 74.2956 18.2673 73.6842 20.2951ZM152.394 31.3499C152.394 31.3172 142.837 16.7955 142.837 16.7955C142.033 15.3237 140.746 14.5388 139.458 14.735C138.525 14.8658 137.817 15.3564 137.077 16.403C137.077 16.4357 131.349 35.0784 131.317 35.0784V36.0924C131.542 37.2371 132.411 38.251 133.505 38.6107C134.696 38.8724 135.661 38.6435 136.466 37.8912C136.985 37.4251 137.186 36.8409 137.397 36.2228L137.431 36.1251L137.467 36.021C137.617 35.5934 137.775 35.1421 138.042 34.7187L138.075 34.6533L145.959 33.5085L146.506 33.7048L146.538 33.7702C147.567 35.7653 148.79 36.7138 150.206 36.5829C151.365 36.5175 152.555 35.6672 152.974 34.5551C153.328 33.4104 153.07 32.1349 152.394 31.3499ZM141.948 28.5456C142.559 28.4584 143.064 28.3863 143.127 28.3736C143.344 28.3491 143.344 28.159 143.344 28.0793C143.344 28.0527 143.344 28.0384 143.352 28.0465L141.067 23.5331C141.067 23.5331 140.874 23.2714 140.681 23.2714C140.424 23.2714 140.327 23.6312 140.327 23.6312L139.362 28.6026C139.362 28.6026 139.297 28.9296 139.587 28.8969C139.764 28.8569 140.987 28.6826 141.948 28.5456Z" fill="white"/>
<path d="M21.5376 23.4648C17.4882 23.8234 14.6779 20.4925 15.1578 16.0917C15.6306 11.754 19.148 7.8396 23.1121 7.27958C27.182 6.70502 30.254 9.85651 29.8688 14.3943C29.4777 19.0021 25.6987 23.0959 21.5376 23.4648ZM34.9268 0L11.3759 3.74328C8.29179 20.9958 13.1103 28.2296 20.9635 27.6406C25.0101 27.337 29.972 24.7073 33.2504 21.3907L34.9268 0Z" fill="#FF2D29"/>
<path d="M49.7798 13.0548L41.7769 6.02081C40.815 23.3351 36.889 32.9452 32.0214 37.0735L48.1146 45.0507L49.7798 13.0548ZM40.9134 5.26178L34.9268 0L33.2504 21.3907C36.6143 17.8687 39.22 12.7645 40.9134 5.26178Z" fill="#C80011"/>
<path d="M41.7769 6.02081L40.9134 5.26178C39.22 12.7645 36.6143 17.8687 33.2504 21.3907L32.0214 37.0735C36.889 32.9452 40.815 23.3351 41.7769 6.02081Z" fill="#E8E4E2"/>
<path d="M21.5376 23.4648C25.6987 23.0959 29.4777 19.0021 29.8688 14.3943C30.254 9.85651 27.182 6.70502 23.1121 7.27958C19.148 7.8396 15.6306 11.754 15.1578 16.0917C14.6779 20.4925 17.4882 23.8234 21.5376 23.4648Z" fill="white"/>
<path d="M20.9635 27.6406C13.1103 28.2296 8.29179 20.9958 11.3759 3.74328L10.0005 3.9619C2.48738 20.8777 3.44196 32.3136 8.50038 38.0683L32.0214 37.0735L33.2504 21.3907C29.972 24.7073 25.0101 27.337 20.9635 27.6406Z" fill="white"/>
<path d="M10.0005 3.9619L4.34252 4.8615L0 38.4282L8.50038 38.0683C3.44196 32.3136 2.48738 20.8777 10.0005 3.9619Z" fill="#FF2D29"/>
<path d="M48.1146 45.0507L19.2482 45.5302L0 38.4282L32.0214 37.0735L48.1146 45.0507Z" fill="#B30415"/>
</svg>
