<svg width="109" height="48" viewBox="0 0 109 48" fill="none" xmlns="http://www.w3.org/2000/svg">
<path fill-rule="evenodd" clip-rule="evenodd" d="M16.8787 2.4967C16.8805 1.88011 17.092 1.28246 17.4785 0.801992C18.2276 0.079728 19.0867 -0.149637 20.0754 0.0934741C20.5632 0.337763 21.231 0.672777 21.5166 1.2674C21.8792 1.93075 21.8607 2.74374 21.4765 3.65963C20.8492 4.54213 20.1476 4.94195 19.3247 4.88225C18.3227 4.85672 17.4934 4.35165 17.1049 3.53198C16.9529 3.21032 16.8787 2.85489 16.8787 2.4967ZM22.814 3.63685C22.814 2.50848 23.278 1.64169 24.1201 1.19827C24.7243 0.897429 25.4859 0.85894 26.1596 1.09773C26.7854 1.31963 27.2717 1.75244 27.5266 2.31407C27.8597 3.07679 27.8055 4.00289 27.3911 4.66899C26.7367 5.61551 25.7912 5.96938 24.5852 5.72273C23.679 5.47412 22.9339 4.59044 22.814 3.63685ZM1.68594 9.59523L1.67966 9.59876C0.811154 9.87211 0.120593 10.7169 0 11.652C0.00510654 11.6524 1.37327 20.4547 1.37327 20.4547C1.66591 21.2107 1.73819 22.1675 1.80614 23.0928C1.95777 25.1225 2.10154 27.0407 4.45094 27.3148C4.45133 27.3117 10.8997 26.3612 10.8997 26.3612C12.0196 26.1362 12.947 25.2329 13.0995 24.211C13.0991 23.3921 12.9266 22.8202 12.5405 22.3752C11.4905 21.245 10.1353 21.4939 8.70001 21.7577L8.68316 21.7607C8.06086 21.8747 7.41658 21.9926 6.81566 21.9766L6.76498 21.9754L6.55051 21.7622L5.1961 12.9823C5.19767 12.9882 5.09043 12.3676 5.09043 12.3676C4.96866 11.5876 4.85239 10.8512 4.29892 10.2774C3.65589 9.58934 2.50967 9.29124 1.68594 9.59523ZM77.4304 14.6405C77.4304 12.9399 77.8531 11.2251 78.7012 9.85523C80.7312 6.61231 84.4268 4.93292 88.3502 5.47216C90.1316 5.69877 91.695 6.34209 92.9916 7.37895C93.6048 7.96689 93.9116 8.58665 93.9344 9.26493C93.8664 10.1789 93.2693 11.2687 92.2488 11.5837C91.1419 11.9867 90.2993 11.5228 89.41 11.0331C88.6279 10.6022 87.8195 10.1572 86.821 10.2982C85.4956 10.2708 84.164 10.9121 83.2566 12.0149C82.2192 13.3024 82.0735 15.2292 82.9027 16.7048C83.8124 18.1587 85.3385 18.9764 87.0932 18.9524C87.5709 18.9281 88.1153 18.8539 88.5214 18.5031L88.5643 18.4666L88.578 17.9721L88.5781 17.969C88.606 16.74 88.6375 15.3472 89.8 14.6405C90.7412 14.1452 91.8195 14.1798 92.6169 14.7335C93.7761 15.4876 93.67 17.0111 93.5761 18.3543L93.5384 18.9348C93.5384 18.9348 93.2387 21.9307 93.2265 22.0571C91.6922 23.0437 89.8649 23.6152 87.6431 23.7974C84.0108 23.9702 80.7029 22.3576 78.7959 19.4854C77.8865 18.1575 77.4304 16.407 77.4304 14.6405ZM33.6281 8.83526C33.0094 9.30342 32.6402 9.85012 32.5341 10.462C32.5351 10.4588 32.0223 15.2726 31.634 18.9166L31.6206 19.0432C31.3906 21.202 31.2076 22.9204 31.2076 22.9204L31.2155 23.5382L31.215 23.608L31.2146 23.6511C31.214 23.7019 31.2135 23.7529 31.2135 23.8041C31.2135 24.3025 31.2473 24.7965 31.5034 25.1649C32.0946 26.1134 33.1018 26.5784 34.2012 26.4147C36.0285 25.9742 36.1491 24.3634 36.2767 22.659L36.2768 22.6565C36.3291 21.9515 36.3837 21.2206 36.5797 20.6134L36.6575 20.3714L36.8064 20.5765C37.6317 21.7127 38.3855 22.9491 39.1141 24.1477L40.0757 25.7128C40.4685 26.2583 41.0805 27.014 41.8155 27.2045C42.6989 27.4837 43.6401 27.1868 44.3397 26.408C44.6583 25.9681 44.8283 25.3935 44.8283 24.8378C44.8283 24.5236 44.7733 24.2149 44.6614 23.9415C44.659 23.9403 41.7994 19.4964 41.7994 19.4964C41.753 19.4168 41.727 19.3269 41.7239 19.2348C41.7239 18.9691 41.9939 18.8171 42.1872 18.7083L42.2029 18.6994C42.3281 18.628 42.4554 18.5554 42.5143 18.469C43.7556 17.3634 44.2211 15.2791 44.2211 13.9649C44.2211 13.6943 44.2018 13.4552 44.1645 13.2647C43.987 12.3485 43.8076 12.0989 43.451 11.6026L43.4504 11.6018L43.2536 11.3249C42.325 10.0976 41.1748 9.2771 40.0164 9.02064L38.8034 8.81405C37.0719 8.50182 35.2822 8.18251 33.6281 8.83526ZM36.6107 15.8533L37.4026 15.9534L37.4042 15.9537C38.2281 16.0887 39.2534 16.2568 39.6825 15.3682C39.7242 15.2162 40.0745 13.877 39.8173 13.5141C39.4552 12.7154 38.4877 12.6701 37.7089 12.6336L36.879 12.5668L36.7443 13.2631C36.6038 13.9391 36.4735 15.3009 36.438 15.6727C36.4324 15.7307 36.4292 15.7647 36.4286 15.7681L36.6107 15.8533ZM47.8652 5.31467C47.1098 5.60844 46.5316 6.41632 46.4585 7.28626C46.4585 7.28626 46.7268 20.5266 46.7268 20.5297C46.7291 20.5297 46.9939 21.8309 46.9939 21.8309C48.0835 23.6356 50.8809 23.3664 52.9248 23.1696L52.9273 23.1694L53.6591 23.1046C57.3024 22.8139 60.1817 21.1326 61.5593 18.4878C62.2393 17.2566 62.5716 15.7889 62.5716 14.3129C62.5716 12.4022 62.015 10.4762 60.934 9.02496C59.7037 6.92493 57.1987 5.38693 54.5425 5.09826L54.4168 5.09512C52.3994 5.04485 49.8917 4.98358 47.8652 5.31467ZM51.686 18.134H51.8035C51.8035 18.134 54.2342 18.1355 54.2479 18.1344C55.4177 18.0118 56.8519 17.1859 57.3221 15.8537C57.8968 14.6786 57.6615 13.0074 57.1465 12.0267C56.1154 10.2083 54.1132 9.49743 51.5093 10.0229L51.4052 10.0437L51.4067 10.1502C51.4067 10.204 51.4566 15.585 51.6758 18.0173L51.686 18.134ZM102.423 9.08465C100.683 9.29556 99.0291 10.4361 98.1021 12.0648C97.6944 12.8342 97.4948 13.7501 97.4948 14.653C97.4948 15.7783 97.8036 16.8842 98.4101 17.6662C98.8555 18.6225 99.6557 19.011 100.43 19.3856C101.203 19.7595 101.998 20.1456 102.403 21.0548L102.418 21.0878L102.397 21.2575C102.359 21.6059 102.319 21.9664 101.972 22.2394C101.685 22.5488 101.319 22.5323 100.997 22.5178L100.757 22.51L100.726 22.4958C100.117 22.1651 99.7692 21.5756 99.4329 21.0049L99.4318 21.0031C98.9715 20.2206 98.5373 19.4826 97.4712 19.4697C96.7033 19.4198 95.977 19.6629 95.4216 20.1495C94.8708 20.6263 94.6913 21.2924 94.5786 21.9377C94.7231 23.7825 95.9299 25.5911 97.6551 26.5148C99.6195 27.6663 102.094 27.7217 104.114 26.6625C105.935 25.7077 107.189 23.7165 107.313 21.5925C107.388 19.2682 106.423 17.3017 104.594 16.0599C104.337 15.8227 104.001 15.695 103.675 15.5715L103.671 15.57C103.134 15.366 102.581 15.1556 102.384 14.5187L102.373 14.4779L102.387 14.4358C102.508 14.1036 102.841 13.8821 103.181 13.9107C103.226 13.9233 103.693 14.1601 103.693 14.1601C104.863 14.763 106.19 15.446 107.361 14.481C108.249 13.6688 108.56 12.6178 108.206 11.6033C106.885 9.49586 104.334 9.06737 102.423 9.08465ZM76.0658 28.6655L76.0737 28.6624C77.2537 28.301 78.5201 29.147 78.9534 30.1344C78.9534 30.1344 79.1176 31.0766 79.1242 31.0766C79.1223 31.0891 77.1853 44.8609 77.1853 44.8738C76.9155 45.7516 76.0305 46.4766 75.0846 46.5984C74.0774 46.7103 73.1755 46.2484 72.6016 45.3263C72.3687 44.9975 72.3094 44.5675 72.3094 44.1264C72.3117 43.8853 72.3231 43.6444 72.3436 43.4042L72.3541 43.2581C72.3541 43.2581 72.5733 41.7545 72.8622 39.7739L72.876 39.6789C73.436 35.8393 74.2458 30.2869 74.244 30.2923C74.4612 29.5343 75.2103 28.8642 76.0658 28.6655ZM20.4588 28.2814C17.5791 29.1879 15.0333 32.0981 14.4075 35.2016C14.303 35.7663 14.2507 36.3394 14.2512 36.9136C14.2512 39.5749 15.3699 42.1709 17.3614 43.9674C20.1909 46.5677 24.6469 46.6663 27.5855 45.4193C29.4855 44.5361 31.065 43.3264 32.161 41.9207C32.126 41.7919 30.8293 36.8563 30.8293 36.8563C30.4703 35.8528 29.5696 35.1545 28.5389 35.0854C27.7851 35.0638 26.9284 35.486 26.4146 36.1407C25.701 37.0362 26.0232 38.1439 26.3349 39.2153L26.3356 39.2179L26.5784 40.1259L26.5316 40.1726C25.9208 40.8725 24.9026 41.2912 23.7364 41.321C22.2449 41.4141 20.9089 40.7606 19.8743 39.4284C19.1091 38.2285 18.9896 36.6194 19.5647 35.3222C20.1783 34.0465 21.3312 33.0949 22.6487 32.7725C23.4342 32.4881 24.2843 32.6108 25.1052 32.7293L25.1081 32.7297L25.1101 32.73C26.3757 32.9132 27.4681 33.0715 28.2156 31.8032C28.4913 31.3827 28.6374 30.8905 28.6359 30.3877C28.6336 30.0028 28.5552 29.6221 28.4053 29.2676C28.3963 29.2676 27.8357 28.6133 27.8357 28.6133C25.5889 27.0741 22.248 27.7453 20.4588 28.2814ZM54.8552 30.5982C56.8778 30.0421 59.0241 29.6631 60.8786 29.3512C64.3569 28.944 67.7131 30.7537 69.6386 34.0764C70.9703 36.3264 71.1741 39.7151 70.119 42.134C69.0424 44.7324 66.2868 46.8407 63.4157 47.2598L61.8465 47.5626C60.3797 47.8713 58.8607 48.1894 57.4819 47.8618C56.2022 47.1576 56.012 45.8125 55.8117 44.3872C55.719 43.7258 55.6216 43.0416 55.4122 42.4549C55.1416 40.7425 54.8128 39.1102 54.4946 37.5314C54.4946 37.5314 53.6465 33.0541 53.6485 33.0698C53.645 33.0124 53.6442 32.9535 53.6442 32.8919C53.6442 32.1268 53.8755 31.1646 54.8552 30.5982ZM60.5632 42.5582C59.9329 40.2442 59.5235 37.8051 59.1275 35.4454L59.1176 35.3862L58.9982 34.6663L59.0893 34.6274C61.28 33.6762 64.2685 34.0273 65.4925 36.5535C66.015 37.7627 66.0849 39.6169 65.2121 40.8328C64.3253 42.2066 62.8257 42.3871 61.5018 42.5465L61.4992 42.5468L60.5965 42.667L60.5632 42.5582ZM42.4027 29.0044H42.4043C45.5766 28.8151 48.5793 30.2471 50.6408 32.9311C52.5553 35.4416 52.8491 39.4944 51.3407 42.5613C49.9419 45.2151 47.428 46.979 44.2682 47.5245C41.0566 47.916 37.8772 46.6754 35.7646 44.205C33.5547 41.5567 33.0138 37.793 34.387 34.6172C35.7155 31.4552 39.012 29.1466 42.4027 29.0044ZM39.3156 40.6027L39.3133 40.5995C38.6105 39.448 38.4377 38.0314 38.8611 36.9022C39.2897 35.6199 40.5333 34.4354 41.753 34.1494C43.6711 33.6522 45.6418 34.3941 46.6529 35.9977C47.4142 37.1386 47.4063 38.7246 47.0599 39.7885C46.6565 41.0697 45.359 42.2459 44.04 42.5252C42.1482 42.8991 40.3385 42.1627 39.3156 40.6027ZM80.9119 33.1358C80.9119 31.271 81.9057 29.5221 83.5677 28.5033C84.8624 27.7221 86.8041 27.4028 88.4983 27.684C89.2423 27.8977 89.7678 28.3046 90.062 28.8909C90.4926 29.828 90.3692 30.9513 89.751 31.6378C89.2305 32.4347 88.3616 32.4756 87.4412 32.5184C86.9777 32.5392 86.4981 32.5635 86.066 32.69L86.0302 32.7014L86.0047 32.7297L86.004 32.7304C85.903 32.8481 85.6355 33.1593 85.8429 33.5214C86.2792 33.9248 86.8548 33.8602 87.4121 33.7976L87.4307 33.7956C87.7533 33.7594 88.0842 33.7223 88.3981 33.7752C90.5523 33.9507 92.5336 35.2613 93.454 37.1198C94.579 39.1582 94.3814 41.8662 92.9708 43.7062C91.3658 45.8215 88.8263 46.6973 86.0086 46.1133C84.3105 45.6605 82.9856 44.6511 82.4659 43.4222C82.2274 42.707 82.3292 41.8245 82.7137 41.2354C83.3748 40.3957 84.0815 39.999 84.8459 40.0556C85.4237 39.9488 86.0302 40.3285 86.6143 40.6958L86.6236 40.7015C87.2306 41.0808 87.803 41.4384 88.3541 41.2751C88.7139 41.1678 89.0105 40.8501 89.2729 40.2618C89.3326 39.6687 89.0109 39.08 88.4684 38.8224C87.9157 38.6692 87.3096 38.6884 86.6686 38.7089L86.6615 38.7091C85.7661 38.7361 84.8388 38.7641 84.0681 38.265C82.2325 37.4175 80.9991 35.5531 80.9268 33.5148C80.917 33.3875 80.9119 33.261 80.9119 33.1358ZM19.6024 5.90182C16.2254 6.24037 13.1203 8.42837 11.8747 11.3453C11.3459 12.478 11.0894 13.7721 11.0894 15.0788C11.0894 17.1109 11.7081 19.1732 12.8889 20.7179C14.8549 23.191 17.7959 24.5436 20.9572 24.4211C24.4693 24.196 27.6366 22.021 29.0224 18.8802C30.2335 16.1082 29.8984 12.4034 28.2266 10.0724C26.4071 7.27055 23.1032 5.67639 19.6024 5.90182ZM17.6879 18.5393L17.6945 18.5428C18.8109 19.3754 20.2922 19.668 21.6608 19.326C22.937 18.9689 24.1143 17.8437 24.5228 16.5948C25.0244 15.1911 24.7259 13.5612 23.7705 12.4493C23.0293 11.403 21.6655 10.819 20.0227 10.8489C18.3647 10.951 16.7522 12.2239 16.2741 13.8094C15.7415 15.4853 16.3095 17.3858 17.6879 18.5393ZM78.9856 22.4636C78.9754 22.4491 71.3647 11.0602 71.3647 11.0602C70.7153 9.90236 69.7094 9.30302 68.6668 9.44598C67.9154 9.54967 67.3643 9.92553 66.7637 10.7436C66.7637 10.7672 62.1925 25.3676 62.1874 25.3813C62.1925 25.3813 62.1925 26.179 62.1925 26.179C62.3815 27.0855 63.0705 27.8686 63.9433 28.1439C64.8856 28.3607 65.6575 28.1785 66.2966 27.5827C66.7346 27.2021 66.8981 26.7117 67.0704 26.1949L67.0708 26.1935L67.0729 26.1873C67.1964 25.8197 67.324 25.4399 67.5579 25.1005L67.589 25.0554L73.8625 24.1591L74.3092 24.3087L74.3327 24.3539C75.1506 25.9202 76.1326 26.657 77.2509 26.5451C78.1835 26.4979 79.127 25.8165 79.4522 24.958C79.7127 24.079 79.5273 23.072 78.9856 22.4636ZM68.7859 20.5313C69.0255 20.4932 71.479 20.1417 71.6035 20.126C71.8305 20.0946 71.7641 19.8456 71.7641 19.8456L69.938 16.3155C69.938 16.3155 69.8021 16.1113 69.6406 16.1164C69.4473 16.1219 69.359 16.3976 69.359 16.3976L68.5973 20.2894C68.5973 20.2894 68.5466 20.569 68.7859 20.5313Z" fill="black"/>
</svg>
