<svg width="160" height="50" viewBox="0 0 160 50" fill="none" xmlns="http://www.w3.org/2000/svg">
<path fill-rule="evenodd" clip-rule="evenodd" d="M68.1674 3.4967C68.1692 2.88011 68.3808 2.28246 68.7673 1.80199C69.5163 1.07973 70.3754 0.850363 71.3641 1.09347C71.852 1.33776 72.5198 1.67278 72.8054 2.2674C73.1679 2.93075 73.1495 3.74374 72.7653 4.65963C72.138 5.54213 71.4364 5.94195 70.6135 5.88225C69.6114 5.85672 68.7822 5.35165 68.3937 4.53198C68.2417 4.21032 68.1674 3.85489 68.1674 3.4967ZM74.1028 4.63685C74.1028 3.50848 74.5667 2.64169 75.4089 2.19827C76.013 1.89743 76.7747 1.85894 77.4484 2.09773C78.0741 2.31963 78.5604 2.75244 78.8154 3.31407C79.1485 4.07679 79.0942 5.00289 78.6798 5.66899C78.0254 6.61551 77.0799 6.96938 75.874 6.72273C74.9678 6.47412 74.2226 5.59044 74.1028 4.63685ZM52.9747 10.5952L52.9684 10.5988C52.0999 10.8721 51.4094 11.7169 51.2888 12.652C51.2939 12.6524 52.662 21.4547 52.662 21.4547C52.9547 22.2107 53.0269 23.1675 53.0949 24.0928C53.2465 26.1225 53.3903 28.0407 55.7397 28.3148C55.7401 28.3117 62.1885 27.3612 62.1885 27.3612C63.3084 27.1362 64.2358 26.2329 64.3882 25.211C64.3878 24.3921 64.2154 23.8202 63.8292 23.3752C62.7792 22.245 61.4241 22.4939 59.9888 22.7577L59.9719 22.7607C59.3496 22.8747 58.7053 22.9926 58.1044 22.9766L58.0537 22.9754L57.8393 22.7622L56.4849 13.9823C56.4864 13.9882 56.3792 13.3676 56.3792 13.3676C56.2574 12.5876 56.1411 11.8512 55.5877 11.2774C54.9446 10.5893 53.7984 10.2912 52.9747 10.5952ZM128.719 15.6405C128.719 13.9399 129.142 12.2251 129.99 10.8552C132.02 7.61231 135.716 5.93292 139.639 6.47216C141.42 6.69877 142.984 7.34209 144.28 8.37895C144.894 8.96689 145.2 9.58665 145.223 10.2649C145.155 11.1789 144.558 12.2687 143.538 12.5837C142.431 12.9867 141.588 12.5228 140.699 12.0331C139.917 11.6022 139.108 11.1572 138.11 11.2982C136.784 11.2708 135.453 11.9121 134.545 13.0149C133.508 14.3024 133.362 16.2292 134.191 17.7048C135.101 19.1587 136.627 19.9764 138.382 19.9524C138.86 19.9281 139.404 19.8539 139.81 19.5031L139.853 19.4666L139.867 18.9721L139.867 18.969C139.895 17.74 139.926 16.3472 141.089 15.6405C142.03 15.1452 143.108 15.1798 143.906 15.7335C145.065 16.4876 144.959 18.0111 144.865 19.3543L144.827 19.9348C144.827 19.9348 144.527 22.9307 144.515 23.0571C142.981 24.0437 141.154 24.6152 138.932 24.7974C135.3 24.9702 131.992 23.3576 130.085 20.4854C129.175 19.1575 128.719 17.407 128.719 15.6405ZM84.9169 9.83526C84.2982 10.3034 83.929 10.8501 83.8229 11.462C83.8239 11.4588 83.311 16.2726 82.9228 19.9166L82.9093 20.0432C82.6793 22.202 82.4964 23.9204 82.4964 23.9204L82.5042 24.5382L82.5037 24.608L82.5033 24.6511C82.5028 24.7019 82.5023 24.7529 82.5023 24.8041C82.5023 25.3025 82.5361 25.7965 82.7922 26.1649C83.3833 27.1134 84.3905 27.5784 85.49 27.4147C87.3172 26.9742 87.4378 25.3634 87.5654 23.659L87.5656 23.6565C87.6178 22.9515 87.6724 22.2206 87.8685 21.6134L87.9462 21.3714L88.0951 21.5765C88.9204 22.7127 89.6742 23.9491 90.4029 25.1477L91.3645 26.7128C91.7573 27.2583 92.3693 28.014 93.1042 28.2045C93.9877 28.4837 94.9288 28.1868 95.6284 27.408C95.947 26.9681 96.1171 26.3935 96.1171 25.8378C96.1171 25.5236 96.0621 25.2149 95.9501 24.9415C95.9478 24.9403 93.0881 20.4964 93.0881 20.4964C93.0417 20.4168 93.0158 20.3269 93.0127 20.2348C93.0127 19.9691 93.2827 19.8171 93.4759 19.7083L93.4916 19.6994C93.6168 19.628 93.7442 19.5554 93.803 19.469C95.0443 18.3634 95.5098 16.2791 95.5098 14.9649C95.5098 14.6943 95.4906 14.4552 95.4532 14.2647C95.2758 13.3485 95.0964 13.0989 94.7397 12.6026L94.7391 12.6018L94.5423 12.3249C93.6137 11.0976 92.4636 10.2771 91.3052 10.0206L90.0922 9.81405C88.3606 9.50182 86.571 9.18251 84.9169 9.83526ZM87.8995 16.8533L88.6914 16.9534L88.693 16.9537C89.5168 17.0887 90.5422 17.2568 90.9713 16.3682C91.0129 16.2162 91.3633 14.877 91.106 14.5141C90.7439 13.7154 89.7765 13.6701 88.9977 13.6336L88.1678 13.5668L88.033 14.2631C87.8925 14.9391 87.7623 16.3009 87.7267 16.6727C87.7212 16.7307 87.718 16.7647 87.7173 16.7681L87.8995 16.8533ZM99.1539 6.31467C98.3985 6.60844 97.8203 7.41632 97.7473 8.28626C97.7473 8.28626 98.0155 21.5266 98.0155 21.5297C98.0179 21.5297 98.2827 22.8309 98.2827 22.8309C99.3723 24.6356 102.17 24.3664 104.214 24.1696L104.216 24.1694L104.948 24.1046C108.591 23.8139 111.47 22.1326 112.848 19.4878C113.528 18.2566 113.86 16.7889 113.86 15.3129C113.86 13.4022 113.304 11.4762 112.223 10.025C110.992 7.92493 108.487 6.38693 105.831 6.09826L105.706 6.09512C103.688 6.04485 101.18 5.98358 99.1539 6.31467ZM102.975 19.134H103.092C103.092 19.134 105.523 19.1355 105.537 19.1344C106.706 19.0118 108.141 18.1859 108.611 16.8537C109.186 15.6786 108.95 14.0074 108.435 13.0267C107.404 11.2083 105.402 10.4974 102.798 11.0229L102.694 11.0437L102.695 11.1502C102.695 11.204 102.745 16.585 102.965 19.0173L102.975 19.134ZM153.711 10.0847C151.972 10.2956 150.318 11.4361 149.391 13.0648C148.983 13.8342 148.784 14.7501 148.784 15.653C148.784 16.7783 149.092 17.8842 149.699 18.6662C150.144 19.6225 150.944 20.011 151.719 20.3856C152.491 20.7595 153.287 21.1456 153.692 22.0548L153.707 22.0878L153.686 22.2575C153.648 22.6059 153.608 22.9664 153.261 23.2394C152.974 23.5488 152.608 23.5323 152.285 23.5178L152.046 23.51L152.015 23.4958C151.406 23.1651 151.058 22.5756 150.722 22.0049L150.721 22.0031C150.26 21.2206 149.826 20.4826 148.76 20.4697C147.992 20.4198 147.266 20.6629 146.71 21.1495C146.16 21.6263 145.98 22.2924 145.867 22.9377C146.012 24.7825 147.219 26.5911 148.944 27.5148C150.908 28.6663 153.383 28.7217 155.403 27.6625C157.223 26.7077 158.478 24.7165 158.602 22.5925C158.677 20.2682 157.712 18.3017 155.883 17.0599C155.626 16.8227 155.289 16.695 154.963 16.5715L154.959 16.57C154.423 16.366 153.87 16.1556 153.673 15.5187L153.661 15.4779L153.676 15.4358C153.797 15.1036 154.13 14.8821 154.469 14.9107C154.515 14.9233 154.982 15.1601 154.982 15.1601C156.152 15.763 157.479 16.446 158.649 15.481C159.538 14.6688 159.848 13.6178 159.494 12.6033C158.174 10.4959 155.622 10.0674 153.711 10.0847ZM127.355 29.6655L127.362 29.6624C128.542 29.301 129.809 30.147 130.242 31.1344C130.242 31.1344 130.406 32.0766 130.413 32.0766C130.411 32.0891 128.474 45.8609 128.474 45.8738C128.204 46.7516 127.319 47.4766 126.373 47.5984C125.366 47.7103 124.464 47.2484 123.89 46.3263C123.657 45.9975 123.598 45.5675 123.598 45.1264C123.6 44.8853 123.612 44.6444 123.632 44.4042L123.643 44.2581C123.643 44.2581 123.862 42.7545 124.151 40.7739L124.165 40.6789C124.725 36.8393 125.535 31.2869 125.533 31.2923C125.75 30.5343 126.499 29.8642 127.355 29.6655ZM71.7475 29.2814C68.8678 30.1879 66.322 33.0981 65.6963 36.2016C65.5918 36.7663 65.5395 37.3394 65.5399 37.9136C65.5399 40.5749 66.6587 43.1709 68.6502 44.9674C71.4796 47.5677 75.9357 47.6663 78.8743 46.4193C80.7743 45.5361 82.3538 44.3264 83.4497 42.9207C83.4148 42.7919 82.1181 37.8563 82.1181 37.8563C81.7591 36.8528 80.8584 36.1545 79.8276 36.0854C79.0738 36.0638 78.2171 36.486 77.7033 37.1407C76.9897 38.0362 77.312 39.1439 77.6236 40.2153L77.6243 40.2179L77.8671 41.1259L77.8204 41.1726C77.2095 41.8725 76.1914 42.2912 75.0251 42.321C73.5336 42.4141 72.1977 41.7606 71.163 40.4284C70.3978 39.2285 70.2784 37.6194 70.8535 36.3222C71.467 35.0465 72.6199 34.0949 73.9374 33.7725C74.7229 33.4881 75.5731 33.6108 76.394 33.7293L76.3968 33.7297L76.3988 33.73C77.6644 33.9132 78.7568 34.0715 79.5043 32.8032C79.78 32.3827 79.9262 31.8905 79.9247 31.3877C79.9223 31.0028 79.844 30.6221 79.6941 30.2676C79.685 30.2676 79.1245 29.6133 79.1245 29.6133C76.8776 28.0741 73.5368 28.7453 71.7475 29.2814ZM106.144 31.5982C108.167 31.0421 110.313 30.6631 112.167 30.3512C115.646 29.944 119.002 31.7537 120.927 35.0764C122.259 37.3264 122.463 40.7151 121.408 43.134C120.331 45.7324 117.576 47.8407 114.704 48.2598L113.135 48.5626C111.668 48.8713 110.149 49.1894 108.771 48.8618C107.491 48.1576 107.301 46.8125 107.1 45.3872C107.008 44.7258 106.91 44.0416 106.701 43.4549C106.43 41.7425 106.102 40.1102 105.783 38.5314C105.783 38.5314 104.935 34.0541 104.937 34.0698C104.934 34.0124 104.933 33.9535 104.933 33.8919C104.933 33.1268 105.164 32.1646 106.144 31.5982ZM111.852 43.5582C111.222 41.2442 110.812 38.8051 110.416 36.4454L110.406 36.3862L110.287 35.6663L110.378 35.6274C112.569 34.6762 115.557 35.0273 116.781 37.5535C117.304 38.7627 117.374 40.6169 116.501 41.8328C115.614 43.2066 114.114 43.3871 112.791 43.5465L112.788 43.5468L111.885 43.667L111.852 43.5582ZM93.6915 30.0044H93.6931C96.8654 29.8151 99.868 31.2471 101.93 33.9311C103.844 36.4416 104.138 40.4944 102.629 43.5613C101.231 46.2151 98.7167 47.9789 95.5569 48.5245C92.3453 48.916 89.1659 47.6754 87.0534 45.205C84.8434 42.5567 84.3025 38.793 85.6758 35.6172C87.0043 32.4552 90.3007 30.1466 93.6915 30.0044ZM90.6044 41.6027L90.602 41.5995C89.8993 40.448 89.7265 39.0314 90.1499 37.9022C90.5785 36.6199 91.8221 35.4354 93.0418 35.1494C94.9599 34.6522 96.9306 35.3941 97.9417 36.9977C98.703 38.1386 98.6951 39.7246 98.3486 40.7885C97.9452 42.0697 96.6478 43.2459 95.3287 43.5252C93.4369 43.8991 91.6273 43.1627 90.6044 41.6027ZM132.201 34.1358C132.201 32.271 133.194 30.5221 134.856 29.5033C136.151 28.7221 138.093 28.4028 139.787 28.684C140.531 28.8977 141.057 29.3046 141.351 29.8909C141.781 30.828 141.658 31.9513 141.04 32.6378C140.519 33.4347 139.65 33.4755 138.73 33.5184C138.266 33.5392 137.787 33.5635 137.355 33.69L137.319 33.7014L137.293 33.7297L137.293 33.7304C137.192 33.8481 136.924 34.1593 137.132 34.5214C137.568 34.9248 138.144 34.8602 138.701 34.7976L138.719 34.7956C139.042 34.7594 139.373 34.7223 139.687 34.7752C141.841 34.9507 143.822 36.2613 144.743 38.1198C145.868 40.1582 145.67 42.8662 144.26 44.7062C142.655 46.8215 140.115 47.6973 137.297 47.1133C135.599 46.6605 134.274 45.6511 133.755 44.4222C133.516 43.707 133.618 42.8245 134.003 42.2354C134.664 41.3957 135.37 40.999 136.135 41.0556C136.712 40.9488 137.319 41.3285 137.903 41.6958L137.912 41.7015C138.519 42.0808 139.092 42.4384 139.643 42.2751C140.003 42.1678 140.299 41.8501 140.562 41.2618C140.621 40.6687 140.3 40.08 139.757 39.8224C139.204 39.6692 138.598 39.6884 137.957 39.7089L137.95 39.7091C137.055 39.7361 136.128 39.7641 135.357 39.265C133.521 38.4175 132.288 36.5531 132.216 34.5148C132.206 34.3875 132.201 34.261 132.201 34.1358ZM70.8912 6.90182C67.5142 7.24037 64.409 9.42837 63.1634 12.3453C62.6347 13.478 62.3782 14.7721 62.3782 16.0788C62.3782 18.1109 62.9969 20.1732 64.1777 21.7179C66.1437 24.191 69.0846 25.5436 72.246 25.4211C75.7581 25.196 78.9253 23.021 80.3112 19.8802C81.5222 17.1082 81.1871 13.4034 79.5153 11.0724C77.6958 8.27055 74.3919 6.67639 70.8912 6.90182ZM68.9766 19.5393L68.9833 19.5428C70.0997 20.3754 71.581 20.668 72.9495 20.326C74.2258 19.9689 75.403 18.8437 75.8115 17.5948C76.3131 16.1911 76.0146 14.5612 75.0593 13.4493C74.3181 12.403 72.9542 11.819 71.3115 11.8489C69.6534 11.951 68.0409 13.2239 67.5629 14.8094C67.0302 16.4853 67.5983 18.3858 68.9766 19.5393ZM130.274 23.4636C130.264 23.4491 122.653 12.0602 122.653 12.0602C122.004 10.9024 120.998 10.303 119.956 10.446C119.204 10.5497 118.653 10.9255 118.052 11.7436C118.052 11.7672 113.481 26.3676 113.476 26.3813C113.481 26.3813 113.481 27.179 113.481 27.179C113.67 28.0855 114.359 28.8686 115.232 29.1439C116.174 29.3607 116.946 29.1785 117.585 28.5827C118.023 28.2021 118.187 27.7117 118.359 27.1949L118.36 27.1935L118.362 27.1873C118.485 26.8197 118.613 26.4399 118.847 26.1005L118.878 26.0554L125.151 25.1591L125.598 25.3087L125.621 25.3539C126.439 26.9202 127.421 27.657 128.54 27.5451C129.472 27.4979 130.416 26.8165 130.741 25.958C131.001 25.079 130.816 24.072 130.274 23.4636ZM120.075 21.5313C120.314 21.4932 122.768 21.1417 122.892 21.126C123.119 21.0946 123.053 20.8456 123.053 20.8456L121.227 17.3155C121.227 17.3155 121.091 17.1113 120.929 17.1164C120.736 17.1219 120.648 17.3976 120.648 17.3976L119.886 21.2894C119.886 21.2894 119.835 21.569 120.075 21.5313Z" fill="white"/>
<path d="M21.4077 27.1106C17.592 28.5041 14.0181 26.0159 13.3432 21.6442C12.6776 17.3352 15.0602 12.6474 18.7415 11.0817C22.5211 9.47457 26.3012 11.7219 27.103 16.2013C27.9172 20.7498 25.3285 25.6785 21.4077 27.1106ZM28.2623 1L6.49931 10.7037C7.98446 28.1533 14.506 33.889 21.9335 31.2896C25.7607 29.95 29.8698 26.1285 32.1763 22.0796L28.2623 1Z" fill="#FF2D29"/>
<path d="M45.9745 9.75904L36.431 5.03962C39.9805 21.9999 38.6765 32.2908 35.046 37.5342L52.642 41.0717L45.9745 9.75904ZM35.4013 4.53033L28.2623 1L32.1763 22.0796C34.5122 17.8102 35.7071 12.2098 35.4013 4.53033Z" fill="#C80011"/>
<path d="M36.431 5.03962L35.4013 4.53033C35.7071 12.2098 34.5122 17.8102 32.1763 22.0796L35.046 37.5342C38.6765 32.2908 39.9805 21.9999 36.431 5.03962Z" fill="#E8E4E2"/>
<path d="M21.4077 27.1106C25.3285 25.6785 27.9172 20.7498 27.103 16.2013C26.3012 11.7219 22.5211 9.47457 18.7415 11.0817C15.0602 12.6474 12.6776 17.3352 13.3432 21.6442C14.0181 26.0159 17.592 28.5041 21.4077 27.1106Z" fill="white"/>
<path d="M21.9335 31.2896C14.506 33.889 7.98446 28.1533 6.49931 10.7037L5.22837 11.2704C2.35157 29.5404 6.23048 40.3313 12.6011 44.5775L35.046 37.5342L32.1763 22.0796C29.8698 26.1285 25.7607 29.95 21.9335 31.2896Z" fill="white"/>
<path d="M5.22837 11.2704L0 13.602L4.4897 47.1232L12.6011 44.5775C6.23048 40.3313 2.35157 29.5404 5.22837 11.2704Z" fill="#FF2D29"/>
<path d="M52.642 41.0717L24.9045 49L4.4897 47.1232L35.046 37.5342L52.642 41.0717Z" fill="#B30415"/>
</svg>
