<svg width="196" height="48" viewBox="0 0 196 48" fill="none" xmlns="http://www.w3.org/2000/svg">
<path d="M171.617 48C158.407 48 147.661 37.3284 147.661 24.2087C147.661 11.089 158.407 0.417374 171.617 0.417374C184.827 0.417374 195.572 11.089 195.572 24.2087C195.572 37.3284 184.827 48 171.617 48ZM171.617 13.904C165.894 13.904 161.241 18.5255 161.241 24.2087C161.241 29.8918 165.897 34.5134 171.617 34.5134C177.336 34.5134 181.993 29.889 181.993 24.2087C181.993 18.5283 177.339 13.904 171.617 13.904Z" fill="black"/>
<path d="M53.5035 48C40.2933 48 29.5481 37.3284 29.5481 24.2087C29.5481 11.089 40.2933 0.417374 53.5035 0.417374C66.7137 0.417374 77.4589 11.089 77.4589 24.2087C77.4589 37.3284 66.7137 48 53.5035 48ZM53.5035 13.904C47.7811 13.904 43.1277 18.5255 43.1277 24.2087C43.1277 29.8918 47.7811 34.5134 53.5035 34.5134C59.2258 34.5134 63.8793 29.889 63.8793 24.2087C63.8793 18.5283 59.223 13.904 53.5035 13.904Z" fill="black"/>
<path d="M104.94 0.358531H80.6628C76.8046 0.358531 73.6798 3.46479 73.6798 7.2937C73.6798 11.1226 76.8046 14.2289 80.6628 14.2289H85.8211V40.5579C85.8211 44.3896 88.9459 47.493 92.8041 47.493C96.6622 47.493 99.7871 44.3868 99.7871 40.5579V14.2289H104.94C108.798 14.2289 111.923 11.1226 111.923 7.2937C111.923 3.46479 108.798 0.358531 104.94 0.358531Z" fill="black"/>
<path d="M25.7633 47.493H7.04787C3.18973 47.493 0 44.3868 0 40.5579V6.93517C0 3.10346 3.12769 0 6.98301 0C10.8383 0 13.966 3.10626 13.966 6.93517V33.6227H25.7604C29.6158 33.6227 32.7435 36.729 32.7435 40.5579C32.7435 44.3868 29.6158 47.493 25.7604 47.493" fill="black"/>
<path d="M144.04 0.358531H119.763C115.905 0.358531 112.78 3.46479 112.78 7.2937C112.78 11.1226 115.905 14.2289 119.763 14.2289H124.921V40.5579C124.921 44.3896 128.046 47.493 131.904 47.493C135.763 47.493 138.887 44.3868 138.887 40.5579V14.2289H144.04C147.898 14.2289 151.023 11.1226 151.023 7.2937C151.023 3.46479 147.898 0.358531 144.04 0.358531Z" fill="black"/>
</svg>
