<svg width="178" height="48" viewBox="0 0 178 48" fill="none" xmlns="http://www.w3.org/2000/svg">
<path d="M20.2053 24.6442C16.6035 25.9594 13.2302 23.611 12.5932 19.4848C11.9655 15.4178 14.2139 10.9933 17.6888 9.51548C21.2562 7.9982 24.8239 10.1197 25.5807 14.3476C26.3492 18.6406 23.9054 23.2925 20.2053 24.6442ZM26.6748 0L6.13417 9.15874C7.53548 25.6283 13.6907 31.0419 20.7011 28.5885C24.3134 27.3241 28.1917 23.7169 30.3691 19.8957L26.6748 0Z" fill="#FF2D29"/>
<path d="M43.3923 8.26669L34.3844 3.81275C37.7349 19.8205 36.5038 29.5335 33.0776 34.4824L49.6853 37.8207L43.3923 8.26669ZM33.4125 3.33206L26.6748 0L30.3691 19.8957C32.5734 15.8661 33.7011 10.5802 33.4125 3.33206Z" fill="#C80011"/>
<path d="M34.3844 3.81275L33.4125 3.33206C33.7011 10.5802 32.5734 15.8661 30.3691 19.8957L33.0776 34.4824C36.5038 29.5335 37.7349 19.8205 34.3844 3.81275Z" fill="#E8E4E2"/>
<path d="M118.742 8.53015H103.084C100.597 8.53015 98.5805 10.547 98.5805 13.0345C98.5805 15.522 100.597 17.5385 103.084 17.5385H106.411V34.637C106.411 37.1245 108.428 39.141 110.915 39.141C113.403 39.141 115.419 37.1245 115.419 34.637V17.5385H118.742C121.23 17.5385 123.246 15.522 123.246 13.0345C123.246 10.547 121.23 8.53015 118.742 8.53015ZM67.6764 39.1414H55.6058C53.1183 39.1414 51.0607 37.1245 51.0607 34.637V12.8022C51.0607 10.3147 53.0771 8.29821 55.5646 8.29821C58.0521 8.29821 60.069 10.3147 60.069 12.8022V30.1331H67.6764C70.1639 30.1331 72.1804 32.1495 72.1804 34.637C72.1804 37.1245 70.1639 39.1414 67.6764 39.1414ZM143.96 8.53015H128.302C125.815 8.53015 123.799 10.547 123.799 13.0345C123.799 15.522 125.815 17.5385 128.302 17.5385H131.63V34.637C131.63 37.1245 133.646 39.141 136.133 39.141C138.621 39.141 140.637 37.1245 140.637 34.637V17.5385H143.96C146.448 17.5385 148.464 15.522 148.464 13.0345C148.464 10.547 146.448 8.53015 143.96 8.53015Z" fill="black"/>
<path d="M161.747 17.3271C158.057 17.3271 155.054 20.3289 155.054 24.019C155.054 27.709 158.057 30.7113 161.747 30.7113C165.437 30.7113 168.439 27.709 168.439 24.019C168.439 20.3289 165.437 17.3271 161.747 17.3271ZM161.747 39.4692C153.227 39.4692 146.297 32.5382 146.297 24.019C146.297 15.5002 153.227 8.56926 161.747 8.56926C170.266 8.56926 177.196 15.5002 177.196 24.019C177.196 32.5382 170.266 39.4692 161.747 39.4692ZM85.5678 17.3271C81.8778 17.3271 78.876 20.3289 78.876 24.019C78.876 27.709 81.8778 30.7113 85.5678 30.7113C89.2579 30.7113 92.2601 27.709 92.2601 24.019C92.2601 20.3289 89.2579 17.3271 85.5678 17.3271ZM85.5678 39.4692C77.0486 39.4692 70.1177 32.5382 70.1177 24.019C70.1177 15.5002 77.0486 8.56926 85.5678 8.56926C94.0875 8.56926 101.018 15.5002 101.018 24.019C101.018 32.5382 94.0875 39.4692 85.5678 39.4692Z" fill="black"/>
<path d="M20.2053 24.6442C23.9054 23.2925 26.3492 18.6406 25.5807 14.3476C24.8239 10.1197 21.2562 7.9982 17.6888 9.51548C14.2139 10.9933 11.9655 15.4178 12.5932 19.4848C13.2302 23.611 16.6035 25.9594 20.2053 24.6442Z" fill="white"/>
<path d="M20.7011 28.5885C13.6907 31.0419 7.53548 25.6283 6.13417 9.15874L4.93415 9.69371C2.21893 26.9376 5.88041 37.1225 11.8928 41.1302L33.0776 34.4824L30.3691 19.8957C28.1917 23.7169 24.3134 27.3241 20.7011 28.5885Z" fill="white"/>
<path d="M4.93415 9.69371L0 11.894L4.23713 43.5325L11.8928 41.1302C5.88041 37.1225 2.21893 26.9376 4.93415 9.69371Z" fill="#FF2D29"/>
<path d="M49.6853 37.8207L23.5054 45.3042L4.23713 43.5325L33.0776 34.4824L49.6853 37.8207Z" fill="#B30415"/>
<path d="M153.027 43.3784C153.027 42.9721 153.269 42.7649 153.604 42.7649C153.939 42.7649 154.182 42.9721 154.182 43.3784V46.3167C154.182 47.1012 153.975 48 152.648 48C152.327 48 151.95 47.9076 151.721 47.7576C151.464 47.5861 151.365 47.458 151.365 47.1655C151.365 46.8874 151.529 46.6163 151.893 46.6163C152.178 46.6163 152.32 46.8874 152.613 46.8874C152.912 46.8874 153.027 46.6878 153.027 46.1172V43.3784ZM156.251 45.347C156.251 46.1529 156.615 46.9302 157.506 46.9302C158.397 46.9302 158.761 46.1529 158.761 45.347C158.761 44.541 158.397 43.7637 157.506 43.7637C156.615 43.7637 156.251 44.541 156.251 45.347ZM160.002 45.347C160.002 46.9588 159.01 48 157.506 48C156.001 48 155.009 46.9588 155.009 45.347C155.009 43.7351 156.001 42.6939 157.506 42.6939C159.01 42.6939 160.002 43.7351 160.002 45.347ZM160.716 43.3784C160.716 42.9721 160.958 42.7649 161.294 42.7649C161.629 42.7649 161.871 42.9721 161.871 43.3784V44.7906L163.461 43.0574C163.69 42.8007 163.832 42.7649 164.003 42.7649C164.26 42.7649 164.581 43.0145 164.581 43.3213C164.581 43.4927 164.474 43.6566 164.353 43.7851L162.977 45.1688L164.481 46.8016C164.66 46.9945 164.803 47.1441 164.803 47.358C164.803 47.729 164.517 47.9286 164.196 47.9286C163.89 47.9286 163.669 47.6504 163.483 47.4437L161.871 45.6323V47.3151C161.871 47.7218 161.629 47.9286 161.294 47.9286C160.958 47.9286 160.716 47.7218 160.716 47.3151V43.3784ZM165.345 43.3855C165.345 43.0145 165.623 42.8078 165.923 42.8078H167.691C168.055 42.8078 168.269 43.0217 168.269 43.3431C168.269 43.678 168.055 43.8776 167.691 43.8776H166.501V44.7978H167.592C167.955 44.7978 168.169 45.0045 168.169 45.3327C168.169 45.6608 167.955 45.8676 167.592 45.8676H166.501V46.8163H167.734C168.098 46.8163 168.312 47.0159 168.312 47.3508C168.312 47.6718 168.098 47.8857 167.734 47.8857H165.923C165.623 47.8857 165.345 47.679 165.345 47.3084V43.3855ZM170.316 44.9974H171.079C171.458 44.9974 171.671 44.7478 171.671 44.4268C171.671 44.0847 171.408 43.8776 171.079 43.8776H170.316V44.9974ZM169.161 43.3855C169.161 43.0145 169.439 42.8078 169.739 42.8078H171.129C172.156 42.8078 172.827 43.4355 172.827 44.3839C172.827 45.1331 172.37 45.6747 171.643 45.8104L172.649 46.8945C172.805 47.0655 172.891 47.2012 172.891 47.3937C172.891 47.558 172.741 47.9286 172.299 47.9286C172 47.9286 171.893 47.8218 171.75 47.6433L170.331 45.8533H170.316V47.3151C170.316 47.7218 170.074 47.9286 169.739 47.9286C169.404 47.9286 169.161 47.7218 169.161 47.3151V43.3855ZM147.812 43.7982C147.812 43.5057 147.976 43.2986 148.24 43.2986C148.504 43.2986 148.668 43.5057 148.668 43.7982V44.889H149.759C150.059 44.889 150.258 45.0604 150.258 45.3171C150.258 45.5739 150.059 45.7449 149.759 45.7449H148.668V46.8365C148.668 47.1285 148.504 47.3357 148.24 47.3357C147.976 47.3357 147.812 47.1285 147.812 46.8365V45.7449H146.721C146.422 45.7449 146.222 45.531 146.222 45.3171C146.222 45.0604 146.422 44.889 146.721 44.889H147.812V43.7982Z" fill="black"/>
</svg>
