<svg width="60" height="60" viewBox="0 0 60 60" fill="none" xmlns="http://www.w3.org/2000/svg">
<g clip-path="url(#clip0_7068_9377)">
<path d="M0 0H60V60H0V0Z" fill="#005400"/>
<path fill-rule="evenodd" clip-rule="evenodd" d="M38.0946 24.2401C34.7956 24.2401 32.0727 26.9107 32.0727 30.2619C32.0727 33.6127 34.7956 36.2309 38.0946 36.2309C41.3935 36.2309 44.1164 33.5609 44.1164 30.2096C44.1164 26.8583 41.4458 24.2401 38.0946 24.2401ZM38.0946 44.0336C30.4495 44.0336 24.2705 37.8018 24.2705 30.2096C24.2705 22.5645 30.5018 16.3856 38.0946 16.3856C45.7396 16.3856 51.9186 22.6169 51.9186 30.2096C51.9709 37.8547 45.7396 44.0336 38.0946 44.0336Z" fill="white"/>
<path fill-rule="evenodd" clip-rule="evenodd" d="M67.837 16.3332H53.8035C51.5519 16.3332 49.7715 18.1659 49.7715 20.3652C49.7715 22.6168 51.5519 24.3972 53.8035 24.3972H56.7883V39.7397C56.7883 41.9913 58.5686 43.7717 60.8208 43.7717C63.0719 43.7717 64.8523 41.939 64.8523 39.7397V24.3972H67.837C70.0886 24.3972 71.869 22.5644 71.869 20.3652C71.869 18.1135 70.0886 16.3332 67.837 16.3332Z" fill="white"/>
<path fill-rule="evenodd" clip-rule="evenodd" d="M22.0712 43.7717H11.2843C9.03268 43.7717 7.19995 41.9389 7.19995 39.7397V20.1557C7.19995 17.904 9.03268 16.1237 11.232 16.1237C13.4312 16.1237 15.264 17.9564 15.264 20.1557V35.7077H22.0712C24.3229 35.7077 26.1032 37.5404 26.1032 39.7397C26.1032 41.9389 24.3229 43.7717 22.0712 43.7717Z" fill="white"/>
</g>
<defs>
<clipPath id="clip0_7068_9377">
<rect width="60" height="60" fill="white"/>
</clipPath>
</defs>
</svg>
