<svg width="319" height="48" viewBox="0 0 319 48" fill="none" xmlns="http://www.w3.org/2000/svg">
<path d="M22.9792 22.441C18.8746 22.4455 16.3413 18.8449 17.2112 14.4569C18.0685 10.1324 21.9504 6.50207 25.9871 6.28733C30.1312 6.06719 32.9435 9.51023 32.1568 14.0445C31.3579 18.6481 27.1962 22.436 22.9792 22.441ZM38.5104 0L14.4939 1.69406C9.87381 18.7891 14.0832 26.4954 22.0341 26.594C26.1306 26.6448 31.3529 24.4344 34.942 21.3848L38.5104 0Z" fill="#FF2D29"/>
<path d="M52.3009 14.4492L44.8704 6.66369C42.3793 24.0081 37.5852 33.336 32.3259 37.0631L47.8104 46.5103L52.3009 14.4492ZM44.0688 5.82364L38.5104 0L34.942 21.3848C38.635 18.1354 41.7055 13.227 44.0688 5.82364Z" fill="#C80011"/>
<path d="M22.0341 26.594C14.0832 26.4954 9.87381 18.7891 14.4939 1.69406L13.0914 1.79288C4.04651 18.1586 4.00018 29.7545 8.58109 35.9928L32.3259 37.0631L34.942 21.3848C31.3529 24.4344 26.1306 26.6448 22.0341 26.594Z" fill="white"/>
<path d="M13.0914 1.79288L7.32164 2.19987L0 35.6061L8.58109 35.9928C4.00018 29.7545 4.04651 18.1586 13.0914 1.79288Z" fill="#FF2D29"/>
<path d="M44.8704 6.66369L44.0688 5.82364C41.7055 13.227 38.635 18.1354 34.942 21.3848L32.3259 37.0631C37.5852 33.336 42.3793 24.0081 44.8704 6.66369Z" fill="#E8E4E2"/>
<path d="M22.9792 22.441C27.1962 22.436 31.3579 18.6481 32.1568 14.0445C32.9435 9.51023 30.1312 6.06719 25.9871 6.28733C21.9504 6.50207 18.0685 10.1324 17.2112 14.4569C16.3413 18.8449 18.8746 22.4455 22.9792 22.441Z" fill="white"/>
<path d="M62.4465 9.19242V34.3138H76.8856V40.7074H55.7888V9.19242H62.4465ZM83.6377 38.9057L75.1367 18.6014H81.9752L86.8773 31.5222L91.7816 18.6014H98.6197L86.3398 48H79.548L83.6413 38.9057H83.6377ZM145.455 18.6009L136.279 29.2717L146.175 40.7074H138.033L130.027 30.8033V40.7074H123.685V9.19242H130.027V27.7397L137.674 18.6009H145.455ZM204.103 40.7056H197.762V9.19197H204.103V40.7056ZM237.259 31.7023V24.6348H233.166V18.6027H237.259V12.7935H243.602V18.6009H249.044V24.633H243.602V31.6113C243.602 33.9973 245.221 35.0323 247.425 35.0323C247.964 35.0323 248.549 34.9873 249.044 34.8518V40.7033C248.189 40.9284 246.884 41.018 245.985 41.018C240.766 41.018 237.259 37.6416 237.259 31.6987V31.7023ZM257.898 33.2325C258.034 34.7181 259.608 35.7081 261.722 35.7081C263.612 35.7081 264.69 35.0773 264.69 34.0424C264.69 30.3963 252.275 33.6367 252.275 25.3987C252.275 21.302 255.603 18.1507 261.048 18.1507C265.815 18.1507 270.089 20.6263 270.629 25.5343H264.241C264.151 24.4083 262.937 23.4179 260.911 23.4179C259.472 23.4179 258.393 23.9131 258.393 24.9481C258.393 28.3691 270.853 24.7676 270.853 33.9978C270.853 38.0495 267.03 41.1558 262.037 41.1558C256.279 41.1558 252.275 38.23 251.824 33.2325H257.898ZM303.976 21.2124C305.189 19.3217 307.53 18.1507 310.003 18.1507C315.58 18.1507 319 21.9778 319 28.1904V40.7056H312.658V29.2699C312.658 26.2082 310.994 24.4529 308.385 24.4529C306.63 24.4529 304.875 25.4433 303.977 26.9749V40.7056H297.635V18.6014H303.977V21.2124H303.976ZM218.526 35.0895C215.534 35.0895 213.101 32.6535 213.101 29.6598C213.101 26.666 215.534 24.2296 218.526 24.2296C221.518 24.2296 223.952 26.666 223.952 29.6598C223.952 32.6535 221.518 35.0895 218.526 35.0895ZM224.056 18.6014V19.5684C222.414 18.6657 220.53 18.1507 218.526 18.1507C212.176 18.1507 207.028 23.3036 207.028 29.658C207.028 36.0119 212.176 41.1648 218.526 41.1648C220.53 41.1648 222.414 40.6502 224.056 39.7476V40.7038H230.397V18.6014H224.056ZM280.976 24.4101C283.026 23.191 285.446 23.4787 286.765 25.2605L278.569 30.1365C277.937 27.579 278.925 25.6292 280.976 24.4101ZM289.866 32.6175C289.488 33.472 288.74 34.2976 287.614 34.9679C285.062 36.4855 282.347 36.0583 280.496 33.9118L294.534 25.5613C294.242 24.8963 293.753 23.9829 293.455 23.4787C290.331 18.2151 283.724 16.6975 278.583 19.7574C273.014 23.0695 271.273 29.9186 274.537 35.415C277.87 41.027 284.837 42.8003 290.405 39.4883C292.385 38.3106 293.89 36.7984 294.849 35.1129L289.868 32.6175H289.866ZM114.659 32.1084C113.763 33.874 111.934 35.0841 109.819 35.0841C109.605 35.0841 109.393 35.0701 109.185 35.0467C108.112 34.9306 107.159 34.5106 106.396 33.8672C105.174 32.8714 104.392 31.3538 104.392 29.6544C104.392 28.0544 105.083 26.6174 106.183 25.6238C106.931 24.9157 107.894 24.4439 108.987 24.2886C109.259 24.2476 109.535 24.226 109.817 24.226C111.859 24.226 113.638 25.3555 114.563 27.0235H120.586C120.003 21.9363 115.324 18.1543 109.791 18.1543C103.269 18.1543 98.3202 23.1073 98.3202 29.6791C98.3202 36.2514 103.269 41.1594 109.791 41.1594C115.413 41.1594 120.137 37.3774 120.631 32.1102H114.656L114.659 32.1084ZM182.953 35.1683C186.057 35.1683 188.441 32.8269 188.441 29.6755C188.441 26.5247 186.057 24.1832 182.953 24.1832C180.75 24.1832 178.771 25.3537 177.825 26.9285V32.3316C178.771 33.9528 180.75 35.1683 182.953 35.1683ZM171.482 18.6014H177.824V21.2124C178.902 19.4108 181.558 18.1507 184.346 18.1507C190.104 18.1507 194.647 23.2824 194.647 29.6755C194.647 36.0691 190.104 41.1562 184.346 41.1562C181.557 41.1562 178.902 39.8962 177.824 38.0945V47.9982H171.482V18.6014Z" fill="#2073E5"/>
<path fill-rule="evenodd" clip-rule="evenodd" d="M150.813 27.9927C150.813 26.3112 152.189 24.9481 153.885 24.9481C155.583 24.9481 156.959 26.7934 156.959 26.7934C156.959 26.7934 158.335 24.9481 160.032 24.9481C161.729 24.9481 163.105 26.3112 163.105 27.9927C163.105 29.3505 162.567 32.5725 157.273 35.8296C157.178 35.8872 156.959 36.0214 156.959 36.0214C156.959 36.0214 156.739 35.8872 156.644 35.8296C151.35 32.5725 150.813 29.3505 150.813 27.9927ZM145.488 29.6737C145.488 23.1019 150.437 18.1489 156.959 18.1489V18.1507C163.436 18.1507 168.429 23.1037 168.429 29.6755C168.429 32.4104 167.563 34.8554 166.087 36.7804L156.959 48L147.795 36.7502C146.338 34.8288 145.488 32.396 145.488 29.6737Z" fill="#2073E5"/>
<path d="M47.8104 46.5103L18.7348 44.4506L0 35.6061L32.3259 37.0631L47.8104 46.5103Z" fill="#B30415"/>
</svg>
