<svg width="60" height="60" viewBox="0 0 60 60" fill="none" xmlns="http://www.w3.org/2000/svg">
<g clip-path="url(#clip0_7068_9397)">
<path d="M0 0H60V60H0V0Z" fill="#B91212"/>
<path fill-rule="evenodd" clip-rule="evenodd" d="M77.185 16.8328H39.4435V16.6665C39.4435 14.9366 38.0406 13.536 36.3078 13.536H31.466C30.1897 13.536 29.04 14.3078 28.5602 15.4888L23.3152 28.3833L18.0435 15.4822C17.5603 14.3045 16.414 13.5327 15.1411 13.5327H10.3359C8.60309 13.5327 7.2002 14.9333 7.2002 16.6632V43.5532C7.2002 45.2831 8.60309 46.6836 10.3359 46.6836H15.1777C16.454 46.6836 17.5503 45.9251 18.0401 44.8339C18.5433 45.9551 19.663 46.6836 20.9026 46.6836H25.7411C26.9807 46.6836 28.1003 45.9551 28.6035 44.8339C29.0934 45.9251 30.1897 46.6836 31.466 46.6836H42.9124C44.6452 46.6836 46.0481 45.2831 46.0481 43.5532V27.9275H46.7279V43.5532C46.7279 45.2831 48.1308 46.6836 49.8635 46.6836H54.7054C56.4382 46.6836 57.8411 45.2831 57.8411 43.5532V27.9275H63.8225V43.5532C63.8225 45.2831 65.2254 46.6836 66.9582 46.6836H71.8C73.5328 46.6836 74.9357 45.2831 74.9357 43.5532V27.9275H77.1784C78.9111 27.9275 80.314 26.5269 80.314 24.797V19.9633C80.3207 18.2334 78.9178 16.8328 77.185 16.8328Z" fill="#7C0C0C"/>
<path fill-rule="evenodd" clip-rule="evenodd" d="M85.9556 13.536H220.62V46.6869H85.9556V13.536Z" fill="black"/>
<path fill-rule="evenodd" clip-rule="evenodd" d="M217.488 16.8328H212.646C210.914 16.8328 209.511 18.2334 209.511 19.9633V21.5102L207.561 18.3299C206.991 17.4017 205.978 16.8328 204.885 16.8328H201.12C199.387 16.8328 197.984 18.2334 197.984 19.9633V28.32L195.045 19.0218C194.632 17.7178 193.422 16.8328 192.053 16.8328H188.517C187.147 16.8328 185.938 17.7178 185.525 19.0218L180.263 35.6422C180.036 35.6355 179.78 35.6289 179.53 35.6289H171.945V19.9633C171.945 18.2334 170.543 16.8328 168.81 16.8328H166.621C166.537 16.8328 166.454 16.8362 166.371 16.8428C166.288 16.8362 166.204 16.8328 166.121 16.8328H163.968C162.235 16.8328 160.832 18.2334 160.832 19.9633V35.6289H154.851V19.9633C154.851 18.2334 153.448 16.8328 151.715 16.8328H124.247C122.978 16.8328 121.831 17.598 121.348 18.7723L118.212 26.4538L115.086 18.7856C114.607 17.6046 113.457 16.8328 112.181 16.8328H107.826V16.6665C107.826 14.9366 106.423 13.536 104.69 13.536H89.0913C87.3588 13.536 85.9556 14.9366 85.9556 16.6665V43.5565C85.9556 45.2864 87.3588 46.6869 89.0913 46.6869H112.221C113.074 46.6869 113.847 46.3476 114.41 45.7954C114.984 46.3543 115.766 46.6869 116.599 46.6869H119.865C120.702 46.6869 121.481 46.3576 122.054 45.7987C122.621 46.3476 123.391 46.6869 124.244 46.6869H186.134C187.504 46.6869 188.717 45.7987 189.127 44.4946L189.474 43.3902H191.093L191.439 44.4946C191.85 45.7987 193.062 46.6869 194.432 46.6869H205.958C207.691 46.6869 209.094 45.2864 209.094 43.5565V42.0428L211.053 45.2065C211.626 46.1281 212.633 46.6869 213.719 46.6869H217.485C219.217 46.6869 220.62 45.2864 220.62 43.5565V19.9633C220.624 18.2334 219.221 16.8328 217.488 16.8328Z" fill="#7C0C0C"/>
<path fill-rule="evenodd" clip-rule="evenodd" d="M77.1851 18.3963H38.0739C38.0073 18.3963 37.944 18.4062 37.8773 18.4162V16.663C37.8773 15.7981 37.1742 15.0961 36.3078 15.0961H31.466C30.8262 15.0961 30.2531 15.482 30.0131 16.0742L23.3186 32.5349L16.5907 16.0709C16.3507 15.482 15.7776 15.0961 15.1378 15.0961H10.3359C9.46954 15.0961 8.76643 15.7981 8.76643 16.663V43.553C8.76643 44.4183 9.46954 45.1199 10.3359 45.1199H15.1778C16.0442 45.1199 16.7473 44.4183 16.7473 43.553V37.4754L19.4498 44.1422C19.6897 44.734 20.2628 45.1199 20.9026 45.1199H25.7411C26.3809 45.1199 26.9541 44.734 27.194 44.1422L29.8965 37.4754V43.553C29.8965 44.4183 30.5996 45.1199 31.466 45.1199H42.9124C43.7788 45.1199 44.4819 44.4183 44.4819 43.553V26.3571C44.4986 26.3571 44.5119 26.3605 44.5253 26.3605H48.2974V43.553C48.2974 44.4183 49.0005 45.1199 49.8669 45.1199H54.7088C55.5751 45.1199 56.2783 44.4183 56.2783 43.553V26.3605H65.3987V43.553C65.3987 44.4183 66.1019 45.1199 66.9683 45.1199H69.1576C69.2442 45.1199 69.3275 45.1136 69.4075 45.1003C69.4875 45.1136 69.5708 45.1199 69.6574 45.1199H71.8101C72.6765 45.1199 73.3796 44.4183 73.3796 43.553V26.3605H77.1917C78.0581 26.3605 78.7612 25.6585 78.7612 24.7936V22.6079C78.7612 22.5314 78.7546 22.4515 78.7446 22.3784C78.7546 22.3018 78.7612 22.2253 78.7612 22.1488V19.9631C78.7513 19.0982 78.0515 18.3963 77.1851 18.3963Z" fill="#B91212"/>
<path fill-rule="evenodd" clip-rule="evenodd" d="M145.307 26.234V28.7191C145.061 28.1769 144.518 27.7943 143.881 27.7943H137.38V26.3605H144.688C144.907 26.3605 145.117 26.3139 145.307 26.234ZM137.38 37.1924V35.7586H143.881C144.518 35.7586 145.064 35.3793 145.307 34.8337V37.1924H137.38ZM95.5028 37.1923V34.0719H104.553C105.42 34.0719 106.123 33.3699 106.123 32.505V30.3559C106.123 30.2694 106.116 30.1862 106.103 30.1064C106.116 30.0265 106.123 29.9434 106.123 29.8569V27.7078C106.123 26.8429 105.42 26.1409 104.553 26.1409H95.5028V23.0204H104.693C105.133 23.0204 105.53 22.8375 105.813 22.548V37.2156C105.723 37.199 105.633 37.189 105.54 37.189H95.5028V37.1923ZM217.488 18.3963H212.646C211.779 18.3963 211.077 19.0982 211.077 19.9631V27.0657L206.222 19.1448C205.938 18.679 205.432 18.3963 204.885 18.3963H201.12C200.253 18.3963 199.55 19.0982 199.55 19.9631V38.4867L193.549 19.4907C193.342 18.8387 192.739 18.3963 192.052 18.3963H188.517C187.834 18.3963 187.227 18.8387 187.021 19.4907L181.049 38.3932C180.883 37.7046 180.27 37.1923 179.53 37.1923H170.379V19.9631C170.379 19.0982 169.676 18.3963 168.81 18.3963H163.968C163.101 18.3963 162.399 19.0982 162.399 19.9631V37.1923H153.281V19.9631C153.281 19.0982 152.578 18.3963 151.712 18.3963H124.244C123.607 18.3963 123.037 18.7788 122.794 19.3643L118.209 30.6087L113.63 19.371C113.39 18.7822 112.817 18.3963 112.178 18.3963H107.376C106.933 18.3963 106.536 18.5792 106.249 18.8753C106.249 18.8553 106.256 18.8321 106.256 18.8121V16.663C106.256 15.7981 105.553 15.0961 104.687 15.0961H89.0881C88.2217 15.0961 87.5186 15.7981 87.5186 16.663V43.553C87.5186 44.4183 88.2217 45.1199 89.0881 45.1199H112.218C113.084 45.1199 113.787 44.4183 113.787 43.553V40.7985L115.147 44.1422C115.387 44.734 115.96 45.1199 116.599 45.1199H119.865C120.505 45.1199 121.081 44.7307 121.321 44.1352L122.678 40.7519V43.5563C122.678 44.4213 123.381 45.1232 124.247 45.1232H186.138C186.824 45.1232 187.427 44.6774 187.634 44.0254L188.327 41.8231H192.249L192.942 44.0254C193.149 44.6774 193.752 45.1232 194.438 45.1232H205.965C206.831 45.1232 207.534 44.4213 207.534 43.5563V36.487L211.013 42.1558L212.396 44.3814C212.682 44.8405 213.186 45.1199 213.729 45.1199H217.495C218.361 45.1199 219.064 44.4183 219.064 43.553V19.9631C219.058 19.0982 218.354 18.3963 217.488 18.3963Z" fill="#B91212"/>
<path fill-rule="evenodd" clip-rule="evenodd" d="M69.6539 22.6079H77.1849V24.7936H71.8066V43.5497H69.6539V22.6079ZM61.6232 22.6079H69.1542V43.553H66.9648V24.7969H61.6232V22.6079ZM61.6231 22.1488H77.185V19.9632H61.6231V22.1488Z" fill="white"/>
<path fill-rule="evenodd" clip-rule="evenodd" d="M61.7375 22.0343H77.0701V20.0779H61.7375V22.0343ZM61.5081 22.2633H77.2995V19.8488H61.5081V22.2633ZM69.7684 43.4353H71.6918V24.6792H77.0701V22.7224H69.7684V43.4353ZM71.9209 43.6642H69.539V22.4935H77.2993V24.908H71.9209V43.6642ZM67.0793 43.4386H69.0394V22.7224H61.7376V24.6825H67.0793V43.4386ZM69.2685 43.6675H66.8499V24.9114H61.5082V22.4935H69.2685V43.6675Z" fill="#B91212"/>
<path fill-rule="evenodd" clip-rule="evenodd" d="M105.539 40.9082H91.7469V30.3558H103.773V32.5049H93.9362V38.7558H105.539V40.9082ZM93.933 21.4568V27.7077H103.77V29.8568H91.7437V19.3111H104.693V21.4601H93.933V21.4568ZM105.536 41.4039V43.553H89.091V16.663H104.69V18.812H91.2404V41.4039H105.536Z" fill="white"/>
<path fill-rule="evenodd" clip-rule="evenodd" d="M91.8584 29.7423H103.655V27.8225H93.8184V21.4568L93.933 21.4568L93.9331 21.3457H104.578V19.4255H91.8584V29.7423ZM103.885 29.9712H91.6292V19.1966H104.808V21.5748H94.0478V27.5932H103.885V29.9712ZM91.8618 40.7937H105.425V38.8702H93.8219V32.3904H103.659V30.4702H91.8618V40.7937ZM105.654 41.0227H91.6324V30.2414H103.888V32.6193H94.051V38.6414H105.654V41.0227ZM89.2061 43.4385H105.422V41.5183H91.1261V18.6976H104.575V16.7774H89.2061V43.4385ZM105.651 43.6674H88.9767V16.5485H104.804V18.9265H91.3553V41.2894H105.651V43.6674Z" fill="#B91212"/>
<path fill-rule="evenodd" clip-rule="evenodd" d="M145.377 40.9082H133.621V32.0059H143.881V34.1919H135.813V38.7558H145.377V40.9082ZM135.81 29.3611H143.878V31.5467H133.617V22.6078H144.684V24.7938H135.81V29.3611ZM145.377 41.4039V43.553H130.968V19.9631H144.684V22.1488H133.118V41.4039H145.377Z" fill="white"/>
<path fill-rule="evenodd" clip-rule="evenodd" d="M133.732 31.4326H143.763V29.4758H135.695V24.6793H144.569V22.7225H133.732V31.4326ZM143.992 31.6611H133.503V22.4933H144.798V24.9082H135.924V29.2469H143.992V31.6611ZM133.735 40.794H145.262V38.8702H135.698V34.0773H143.766V32.1202H133.735V40.794ZM145.491 41.0226H133.506V31.8917H143.995V34.3062H135.928V38.6416H145.491V41.0226ZM131.083 43.4385H145.263V41.518H133.003V22.0343H144.569V20.0775H131.083V43.4385ZM145.492 43.6673H130.853V19.8489H144.798V22.2634H133.232V41.2897H145.492V43.6673Z" fill="#B91212"/>
<path fill-rule="evenodd" clip-rule="evenodd" d="M162.435 38.7591V40.9082H149.526V19.9631H151.715V38.7591H162.435ZM149.026 41.4039H162.435V43.553H146.873V19.9631H149.026V41.4039Z" fill="white"/>
<path fill-rule="evenodd" clip-rule="evenodd" d="M149.64 40.7939H162.32V38.8737H151.6V20.078H149.64V40.7939ZM162.549 41.0224H149.412V19.8488H151.829V38.6448H162.549V41.0224ZM146.988 43.4385H162.32V41.5183H148.911V20.0779H146.988V43.4385ZM162.549 43.6675H146.759V19.8488H149.141V41.2896H162.549V43.6675Z" fill="#B91212"/>
<path fill-rule="evenodd" clip-rule="evenodd" d="M179.53 38.7591V40.9082H166.62V19.9631H168.81V38.7591H179.53ZM166.121 41.4039H179.53V43.553H163.968V19.9631H166.121V41.4039Z" fill="white"/>
<path fill-rule="evenodd" clip-rule="evenodd" d="M166.735 40.7939H179.415V38.8737H168.695V20.078H166.735V40.7939ZM179.644 41.0224H166.506V19.8488H168.924V38.6448H179.644V41.0224ZM164.082 43.4385H179.415V41.5183H166.005V20.0779H164.082V43.4385ZM179.644 43.6675H163.853V19.8488H166.235V41.2896H179.644V43.6675Z" fill="#B91212"/>
<path fill-rule="evenodd" clip-rule="evenodd" d="M190.286 30.3958L188.673 35.4591H191.902L190.286 30.3958ZM190.286 23.1836L194.858 37.6049H185.714L190.286 23.1836ZM195.012 38.1072L196.741 43.5531H194.435L193.399 40.253H187.174L186.138 43.5531H183.832L185.561 38.1072H195.012ZM199.506 43.5531H197.241L190.286 21.5734L183.332 43.5531H181.066L188.52 19.9632H192.056L199.506 43.5531Z" fill="white"/>
<path fill-rule="evenodd" clip-rule="evenodd" d="M188.83 35.3447H191.746L190.286 30.7735L188.83 35.3447ZM192.059 35.5733H188.517L190.286 30.0186L192.059 35.5733ZM185.871 37.4905H194.702L190.286 23.5628L185.871 37.4905ZM195.015 37.7194H185.558L190.286 22.8043L195.015 37.7194ZM194.519 43.4387H196.584L194.928 38.2214H185.645L183.988 43.4387H186.053L187.089 40.1386H193.483L194.519 43.4387ZM196.897 43.6675H194.351L193.315 40.3674H187.258L186.222 43.6675H183.675L185.477 37.9928H195.096L196.897 43.6675ZM197.325 43.4386H199.35L191.972 20.0777H188.604L181.222 43.4386H183.248L190.286 21.1931L197.325 43.4386ZM199.663 43.6676H197.157L190.286 21.9536L183.416 43.6676H180.909L180.956 43.5185L188.436 19.8488H192.14L199.663 43.6676Z" fill="#B91212"/>
<path fill-rule="evenodd" clip-rule="evenodd" d="M217.487 19.9633V43.5531H213.722L212.339 41.3276L205.961 30.9315V43.5498H203.772V23.2235L215.298 42.0192V19.9633H217.487ZM214.799 40.2929L203.272 21.5368V43.5531H201.12V19.9633H204.885L212.646 32.6212V19.9633H214.799V40.2929Z" fill="white"/>
<path fill-rule="evenodd" clip-rule="evenodd" d="M201.234 43.4385H203.157V21.1311L214.684 39.8872V20.0775H212.76V33.0275L204.821 20.0775H201.234V43.4385ZM203.387 43.6672H201.005V19.8488H204.949L204.983 19.9034L212.531 32.215V19.8488H214.913V40.6984L203.387 21.9423V43.6672ZM213.786 43.4387H217.373V20.0777H215.413V42.4253L203.887 23.6296V43.4353H205.847V30.5256L212.437 41.268L213.786 43.4387ZM217.602 43.6672H213.658L212.242 41.3881L206.076 31.3377V43.6642H203.657V22.8173L215.184 41.6133V19.8488H217.602V43.6672Z" fill="#B91212"/>
<path fill-rule="evenodd" clip-rule="evenodd" d="M40.7261 43.5531H42.9154V19.9632H40.7261V43.5531ZM38.0736 43.5531H40.2262V19.9632H38.0736V43.5531Z" fill="white"/>
<path fill-rule="evenodd" clip-rule="evenodd" d="M38.1886 43.4388H40.1116V20.0778H38.1886V43.4388ZM37.959 43.6675H40.3409V19.8487H37.959V43.6675ZM40.8408 43.4386H42.8009V20.0776H40.8408V43.4386ZM40.6114 43.6675H43.0303V19.8487H40.6114V43.6675Z" fill="#B91212"/>
<path fill-rule="evenodd" clip-rule="evenodd" d="M52.5556 22.6079H60.0866V24.7936H54.7083V43.5497H52.5556V22.6079ZM44.5281 22.6079H52.0591V43.553H49.8697V24.7969H44.5281V22.6079ZM44.5248 22.1488H60.0866V19.9631H44.5248V22.1488Z" fill="white"/>
<path fill-rule="evenodd" clip-rule="evenodd" d="M44.6397 22.0343H59.9719V20.0778H44.6397V22.0343ZM44.4103 22.2633H60.2013V19.8487H44.4103V22.2633ZM52.6701 43.4353H54.5935V24.6792H59.9718V22.7224H52.6701V43.4353ZM54.8229 43.6641H52.441V22.4935H60.2012V24.908H54.8229V43.6641ZM49.9845 43.4386H51.9445V22.7224H44.6428V24.6825H49.9845V43.4386ZM52.1736 43.6675H49.7551V24.9113H44.4134V22.4935H52.1736V43.6675Z" fill="#B91212"/>
<path fill-rule="evenodd" clip-rule="evenodd" d="M25.7409 43.553L31.4658 29.4377V43.553H33.6584V18.3497L23.3983 43.553H25.7409Z" fill="white"/>
<path fill-rule="evenodd" clip-rule="evenodd" d="M31.5802 43.4388H33.5436V18.9357L23.5684 43.4388H25.6634L31.3593 29.395L31.5802 29.4379V43.4388ZM33.7731 43.6672H31.3512V30.0256L25.8182 43.6672H23.228L33.5522 18.3068L33.7731 18.3497V43.6672Z" fill="#B91212"/>
<path fill-rule="evenodd" clip-rule="evenodd" d="M12.4849 16.6629H10.3356V43.5529H12.4849V16.6629Z" fill="white"/>
<path fill-rule="evenodd" clip-rule="evenodd" d="M10.4501 43.4384H12.3699V16.7773H10.4501V43.4384ZM10.221 43.6675H12.5996V16.5486H10.221V43.6675Z" fill="#B91212"/>
<path fill-rule="evenodd" clip-rule="evenodd" d="M31.4657 16.6629L23.3215 36.6866L15.1374 16.6629H12.9781L12.9848 17.0455L23.3215 42.4418L33.6183 17.1387V16.6629H31.4657Z" fill="white"/>
<path fill-rule="evenodd" clip-rule="evenodd" d="M13.0989 17.0225L23.3213 42.138L33.5035 17.1166V16.7776H31.5428L23.3217 36.9905L15.0603 16.7776H13.0945L13.0989 17.0225ZM23.3214 42.7459L12.87 17.0476L12.8613 16.5486H15.2146L15.2436 16.6197L23.321 36.3829L31.3885 16.5486H33.7331L33.7245 17.1816L23.3214 42.7459Z" fill="#B91212"/>
<path fill-rule="evenodd" clip-rule="evenodd" d="M34.1115 16.6629L34.1182 43.5529H36.3075V16.6629H34.1115Z" fill="white"/>
<path fill-rule="evenodd" clip-rule="evenodd" d="M34.2334 43.4387H36.1931V16.7776H34.2267L34.2334 43.4387ZM36.4224 43.6672H34.0038L33.9972 16.5484H36.4224V43.6672Z" fill="#B91212"/>
<path fill-rule="evenodd" clip-rule="evenodd" d="M12.9845 43.553H15.1772V29.4377L20.902 43.553H23.2446L12.9845 18.3497V43.553Z" fill="white"/>
<path fill-rule="evenodd" clip-rule="evenodd" d="M20.9799 43.4388H23.0749L13.0997 18.9357V43.4388H15.0631V29.4379L15.284 29.395L20.9799 43.4388ZM23.4152 43.6672H20.825L15.2921 30.0256V43.6672H12.8702V18.3497L13.0911 18.3068L23.4152 43.6672Z" fill="#B91212"/>
<path fill-rule="evenodd" clip-rule="evenodd" d="M124.247 19.9633L123.44 21.9194L118.215 34.7672L112.184 19.9633H110.031V20.3459L118.215 40.5222L126.403 20.4323V19.9633H124.247Z" fill="white"/>
<path fill-rule="evenodd" clip-rule="evenodd" d="M110.146 20.3233L118.216 40.2175L126.288 20.4095V20.0775H124.323L123.546 21.9627L118.215 35.0711L112.107 20.0775H110.146V20.3233ZM118.215 40.8265L109.917 20.3458V19.8488H112.261L118.215 34.4628L123.335 21.8761L124.17 19.8488H126.517L126.509 20.4756L118.215 40.8265Z" fill="#B91212"/>
<path fill-rule="evenodd" clip-rule="evenodd" d="M110.031 21.6898V43.5531H112.221V32.7745L116.603 43.5531H119.869L121.328 39.9103L124.247 32.7745V43.5531H126.399V21.6898L118.216 41.7899L110.031 21.6898Z" fill="white"/>
<path fill-rule="evenodd" clip-rule="evenodd" d="M124.362 43.4389H126.285V22.2755L118.216 42.0942L110.146 22.2755V43.4389H112.106V32.7747L112.327 32.7314L116.68 43.4389H119.791L121.222 39.8679L124.141 32.7314L124.362 32.7747V43.4389ZM126.514 43.6672H124.133V33.3576L121.434 39.9532L119.946 43.6672H116.525L112.336 33.361V43.6672H109.917V21.6898L110.138 21.6469L118.216 41.4858L126.294 21.6469L126.514 21.6898V43.6672Z" fill="#B91212"/>
<path fill-rule="evenodd" clip-rule="evenodd" d="M109.528 19.9633H107.379V43.5531H109.531V20.8049L109.528 19.9633Z" fill="white"/>
<path fill-rule="evenodd" clip-rule="evenodd" d="M107.493 43.4385H109.416L109.414 20.0775H107.493V43.4385ZM109.646 43.6672H107.264V19.8488H109.642L109.646 20.8043V43.6672Z" fill="#B91212"/>
<path fill-rule="evenodd" clip-rule="evenodd" d="M126.896 19.9633L126.899 43.5531H129.089V19.9633H126.896Z" fill="white"/>
<path fill-rule="evenodd" clip-rule="evenodd" d="M127.014 43.4385H128.974V20.0775H127.01L127.014 43.4385ZM129.203 43.6672H126.785L126.782 19.8488H129.203V43.6672Z" fill="#B91212"/>
</g>
<defs>
<clipPath id="clip0_7068_9397">
<rect width="60" height="60" fill="white"/>
</clipPath>
</defs>
</svg>
