<svg width="183" height="49" viewBox="0 0 183 49" fill="none" xmlns="http://www.w3.org/2000/svg">
<path fill-rule="evenodd" clip-rule="evenodd" d="M80.0686 5.98094C81.3005 5.41825 82.5045 5.07624 83.6821 4.96224C84.208 4.91255 84.6576 5.34517 84.6445 5.87571C84.4321 15.4255 84.3808 21.8315 84.4936 23.3807C84.6108 24.9811 84.9491 26.1503 85.5101 26.9016C86.0711 27.6514 86.9866 27.9174 88.2609 27.7069C89.5337 27.4979 90.3921 26.9001 90.8329 25.8858C91.2738 24.8759 91.5272 23.5941 91.5946 22.0463C91.6591 20.5409 91.6342 14.4156 91.5272 4.48139C91.5214 3.98739 91.8158 3.53285 92.2699 3.33846C93.4504 2.83861 94.7555 2.56091 96.1866 2.53315C96.5776 2.52438 96.9028 2.83276 96.9043 3.223C96.938 16.8929 96.6802 25.0381 96.1207 26.8124C95.5523 28.6262 94.6354 30.1316 93.3728 31.3432C92.1117 32.5578 90.4228 33.2842 88.318 33.5853C86.2117 33.8878 84.3471 33.5633 82.7198 32.6323C81.0895 31.6999 80.0027 30.1579 79.4505 27.9685C78.9144 25.8317 78.809 18.4085 79.1327 7.39134C79.1517 6.7848 79.5149 6.23379 80.0686 5.98094Z" fill="black"/>
<path fill-rule="evenodd" clip-rule="evenodd" d="M63.3758 16.4144C63.2879 18.8274 63.2 21.239 63.1107 23.6447C67.625 21.7841 70.1575 20.2056 70.6233 18.6535C71.0935 17.1145 71.0422 15.8517 70.4739 14.8914C69.9056 13.9327 67.518 14.3784 63.3758 16.4144ZM78.3439 35.0126L74.354 36.423C73.9585 36.6013 73.4986 36.5238 73.1851 36.2315L72.0953 35.2801C71.5607 34.6896 70.5105 33.5467 69.9627 32.9664C68.851 31.787 67.7202 30.6236 66.5967 29.4514C66.0973 28.9296 65.6022 28.4093 65.11 27.8817C64.4699 28.1521 63.6116 28.6271 62.9759 28.9077C62.9188 30.6382 62.869 32.373 62.8177 34.105C62.7913 35.0068 62.765 35.9085 62.7591 36.8088C62.7562 37.2108 62.7372 38.1608 62.743 38.5612C62.7562 39.4601 62.7957 39.7992 61.9169 40.2493C60.9897 40.7243 60.7012 40.834 59.5543 41.3367C59.0123 41.575 58.507 41.8351 57.927 41.9506C57.8332 41.9681 57.7322 41.9827 57.6457 41.9462C57.3513 41.8249 57.3206 41.309 57.3147 41.04C57.2883 39.9965 57.3938 39.4469 57.4202 38.4092C57.4451 37.3277 57.4773 35.5168 57.4993 34.4338C57.5505 32.1684 57.5989 29.903 57.6457 27.6391C57.6926 25.4131 57.738 23.1901 57.7893 20.9656C57.8113 19.8987 57.8362 18.8303 57.8611 17.7648C57.8845 16.7666 57.8186 15.7143 57.9372 14.7248C58.0398 13.864 57.9358 13.538 59.6114 12.8599C65.009 10.1063 68.7968 9.04815 71.0979 8.579C73.2935 8.13615 74.6674 8.90931 75.5082 10.5024C76.3299 12.0575 76.3885 14.4895 76.0252 17.6318C75.6634 20.7888 73.7066 23.2632 70.1985 25.1734C71.467 26.4143 72.6695 27.718 73.856 29.0349C75.0453 30.3503 77.1677 32.582 78.4201 33.8331C78.4201 33.8331 79.0924 34.7495 78.3439 35.0126Z" fill="black"/>
<path fill-rule="evenodd" clip-rule="evenodd" d="M128.276 5.96808C128.204 8.38403 128.131 10.7985 128.061 13.2115C132.884 13.5608 135.496 13.0654 135.913 11.4767C136.329 9.89965 136.246 8.48195 135.663 7.24402C135.081 6.00316 132.622 5.53108 128.276 5.96808ZM127.769 18.2115C127.686 20.5237 127.602 22.8329 127.519 25.1407C133.016 25.5324 135.951 25.186 136.338 23.7975C136.728 22.4237 136.577 21.1024 135.891 19.8557C135.204 18.6105 132.503 18.001 127.769 18.2115ZM122.369 30.7151C122.306 30.6975 122.247 30.6741 122.199 30.6405C121.969 30.4797 121.912 30.2459 121.915 29.9931L121.922 29.5297C122.129 20.2694 122.335 10.9914 122.543 1.69889C122.57 0.798577 122.49 0.541344 124.315 0.329419C129.906 -0.161662 133.611 -0.0564304 136.315 0.335265C138.655 0.672884 140.101 2.23528 140.782 4.28291C141.463 6.32178 141.63 8.53018 141.284 10.8745C140.939 13.2247 139.767 14.8704 137.763 15.8292C140.334 17.5246 141.73 19.8353 141.955 22.6546C142.181 25.4725 141.847 28.1661 140.958 29.6014C140.069 31.0439 138.966 31.7002 137.646 31.5993C132.804 31.2763 129.382 30.7384 123.936 30.7589C123.627 30.7604 123.319 30.7574 123.01 30.7472C122.82 30.7414 122.569 30.7662 122.369 30.7151Z" fill="black"/>
<path fill-rule="evenodd" clip-rule="evenodd" d="M145.779 32.4001C145.591 32.3694 145.07 32.3124 144.869 32.2627C144.806 32.2481 144.749 32.2247 144.699 32.1896C144.47 32.0362 144.412 31.8096 144.415 31.5626L144.422 31.1125L144.418 30.8508C144.422 21.0278 144.46 12.1678 144.463 2.34329C144.539 1.91213 144.859 1.05128 145.477 0.970894C145.989 0.903662 146.681 1.0162 147.21 1.07466C152.641 1.68267 158.775 2.7686 160.72 3.12376C161.119 3.19537 161.426 3.50376 161.51 3.89692C161.892 5.66101 161.763 7.11525 161.365 8.56219C161.237 9.02842 160.776 9.32366 160.3 9.24619C157.483 8.79896 155.324 8.40434 150.149 7.60049C150.142 9.45227 150.13 11.7864 150.121 13.6367C155.796 14.6028 156.181 14.6685 158.655 15.0237C159.008 15.0749 159.319 15.3116 159.439 15.6463C160.115 17.5361 160.148 19.2359 159.535 20.7369C159.433 20.9824 159.113 21.1505 158.847 21.1184C156.24 20.7924 155.914 20.7442 150.067 19.8775C150.029 22.1137 149.99 24.3484 149.952 26.5831C155.314 27.4615 155.538 27.5872 160.622 28.4627C161.062 28.5357 161.426 28.8529 161.56 29.2782C162.254 31.4705 162.003 32.9189 161.284 34.7649C161.173 35.0528 160.824 35.2165 160.499 35.1449C155.73 34.1174 153.407 33.5752 145.91 32.4205L145.779 32.4001Z" fill="black"/>
<path fill-rule="evenodd" clip-rule="evenodd" d="M114.142 23.4753C113.756 24.9032 110.866 25.1838 105.323 25.254C105.407 22.8819 105.49 20.8971 105.572 18.5221C110.306 18.3028 113.009 18.0076 113.693 19.2879C114.38 20.5712 114.53 22.0634 114.142 23.4753ZM105.868 6.74051C110.205 5.83435 112.675 6.0302 113.259 7.16875C113.845 8.30437 113.927 9.66946 113.508 11.2392C113.091 12.8249 110.467 13.5718 105.651 13.756C105.723 11.4175 105.796 9.07899 105.868 6.74051ZM119.582 21.4686C119.355 18.7559 117.949 16.6484 115.367 15.2657C117.379 14.1345 118.56 12.4216 118.907 10.1079C119.256 7.79867 119.087 5.67212 118.402 3.76479C117.716 1.85162 116.219 0.483613 113.914 0.38715C111.342 0.28338 108.015 0.487997 101.918 1.53447C100.651 1.78585 100.387 2.00655 100.153 3.06471C99.9476 12.0372 99.7425 21.5241 99.536 30.4629L99.5301 30.84C99.5301 30.84 99.5243 31.5693 100.068 31.5679C100.626 31.5679 101.614 31.467 101.614 31.467C106.792 31.0563 109.187 30.8313 115.248 30.5711C116.571 30.5448 117.681 29.8023 118.576 28.3188C119.472 26.8427 119.809 24.1783 119.582 21.4686Z" fill="black"/>
<path fill-rule="evenodd" clip-rule="evenodd" d="M166.389 43.3304C168.141 43.8288 169.223 44.9352 168.759 46.7446C168.61 47.3307 168.106 47.6084 167.825 47.7546C167.555 47.8978 167.211 48.0396 166.925 47.9899L162.966 46.9668C156.287 45.2027 150.657 43.6111 143.771 42.6099C103.176 36.2799 73.7052 46.1717 71.1976 46.4114C70.9867 46.4465 70.7977 46.4742 70.6132 46.4962C70.6132 46.4962 67.5065 46.5137 67.5387 46.4991C71.7513 44.6473 76.0722 42.889 80.4943 41.6146C80.5646 41.5941 80.6349 41.5737 80.7052 41.5532C94.7974 37.5208 103.64 36.068 124.199 36.068C154.967 37.3907 165.502 43.0761 166.389 43.3304Z" fill="black"/>
<path fill-rule="evenodd" clip-rule="evenodd" d="M171.157 37.6212C169.856 37.1345 170.096 36.1143 170.096 36.1143C170.06 33.4952 170.441 19.2173 170.569 11.5837C168.727 11.2095 166.972 10.6746 165.129 10.3121C164.831 10.2536 164.577 10.0461 164.479 9.75818C163.647 7.30569 163.858 5.9143 164.325 4.43667C164.457 4.02013 164.882 3.76289 165.312 3.83451C170.84 4.7509 175.995 6.07361 181.375 7.32762C181.656 7.39339 181.886 7.60823 181.965 7.88593C182.567 10.0256 182.608 11.7561 182.078 13.5772C181.981 13.9119 181.634 14.118 181.296 14.0332C179.494 13.5801 177.685 13.187 175.864 12.7617C175.873 12.7631 175.862 13.0087 175.862 13.0335C175.862 13.1256 175.86 13.2177 175.86 13.3097C175.857 13.4939 175.856 13.6781 175.854 13.8622C175.85 14.2291 175.847 14.5974 175.842 14.9642C175.838 15.3311 175.835 15.6965 175.831 16.0633C175.826 16.4272 175.825 16.7926 175.82 17.158L175.807 18.2498C175.803 18.6123 175.8 18.9747 175.794 19.3372C175.791 19.6996 175.787 20.0621 175.782 20.4231C175.778 20.7856 175.774 21.148 175.769 21.509C175.765 21.8715 175.762 22.231 175.758 22.5921C175.753 22.9531 175.749 23.3141 175.743 23.6751L175.73 24.7551C175.725 25.1162 175.721 25.4757 175.717 25.8367C175.712 26.1977 175.706 26.5587 175.703 26.9197C175.699 27.2792 175.695 27.6402 175.69 28.0013L175.677 29.0843C175.673 29.4453 175.668 29.8077 175.664 30.1687L175.651 31.2576L175.639 32.345C175.636 32.7104 175.63 33.0743 175.627 33.4382L175.614 34.5344C175.611 34.8998 175.607 35.2666 175.602 35.6335C175.599 36.0018 175.595 36.3686 175.592 36.7369C175.588 37.1053 175.585 37.4736 175.582 37.8433C175.582 37.9193 175.582 37.9997 175.567 38.0772C175.566 38.0889 175.561 38.1035 175.558 38.1152C175.53 38.2102 175.47 38.2891 175.403 38.3578C175.309 38.4513 175.195 38.5215 175.068 38.5653C175.006 38.5843 174.942 38.599 174.876 38.6063C174.876 38.6063 174.501 38.5975 174.496 38.596C173.19 38.4601 171.287 37.6606 170.912 37.5291" fill="black"/>
<path d="M21.4077 26.6106C17.592 28.0041 14.0181 25.5159 13.3432 21.1442C12.6776 16.8352 15.0602 12.1474 18.7415 10.5817C22.5211 8.97457 26.3012 11.2219 27.103 15.7013C27.9172 20.2498 25.3285 25.1785 21.4077 26.6106ZM28.2623 0.5L6.49931 10.2037C7.98446 27.6533 14.506 33.389 21.9335 30.7896C25.7607 29.45 29.8698 25.6285 32.1763 21.5796L28.2623 0.5Z" fill="#FF2D29"/>
<path d="M45.9745 9.25904L36.431 4.53962C39.9805 21.4999 38.6765 31.7908 35.046 37.0342L52.642 40.5717L45.9745 9.25904ZM35.4013 4.03033L28.2623 0.5L32.1763 21.5796C34.5122 17.3102 35.7071 11.7098 35.4013 4.03033Z" fill="#C80011"/>
<path d="M36.431 4.53962L35.4013 4.03033C35.7071 11.7098 34.5122 17.3102 32.1763 21.5796L35.046 37.0342C38.6765 31.7908 39.9805 21.4999 36.431 4.53962Z" fill="#E8E4E2"/>
<path d="M21.4077 26.6106C25.3285 25.1785 27.9172 20.2498 27.103 15.7013C26.3012 11.2219 22.5211 8.97457 18.7415 10.5817C15.0602 12.1474 12.6776 16.8352 13.3432 21.1442C14.0181 25.5159 17.592 28.0041 21.4077 26.6106Z" fill="white"/>
<path d="M21.9335 30.7896C14.506 33.389 7.98446 27.6533 6.49931 10.2037L5.22837 10.7704C2.35157 29.0404 6.23048 39.8313 12.6011 44.0775L35.046 37.0342L32.1763 21.5796C29.8698 25.6285 25.7607 29.45 21.9335 30.7896Z" fill="white"/>
<path d="M5.22837 10.7704L0 13.102L4.4897 46.6232L12.6011 44.0775C6.23048 39.8313 2.35157 29.0404 5.22837 10.7704Z" fill="#FF2D29"/>
<path d="M52.642 40.5717L24.9045 48.5L4.4897 46.6232L35.046 37.0342L52.642 40.5717Z" fill="#B30415"/>
</svg>
