<svg width="60" height="60" viewBox="0 0 60 60" fill="none" xmlns="http://www.w3.org/2000/svg">
<g clip-path="url(#clip0_7068_9324)">
<path d="M0 0H60V60H0V0Z" fill="#ED0000"/>
<path fill-rule="evenodd" clip-rule="evenodd" d="M15.333 21.2778L14.0745 28.6051C18.5375 28.2743 21.092 27.4078 21.7378 26.0059C22.3832 24.6041 22.508 23.3331 22.1128 22.1913C21.7175 21.0504 19.4572 20.7455 15.333 21.2778ZM10.552 17.1769C10.627 16.7102 10.9916 16.3396 11.4187 16.2985C16.559 15.8043 21.5508 15.6925 23.552 16.0711C25.6492 16.4671 26.9167 17.5521 27.3546 19.3262C27.7924 21.1007 27.6323 23.4898 26.8741 26.4934C26.1155 29.4982 23.9752 31.4731 20.4529 32.4192L25.1739 39.9544C25.3982 40.3127 25.3913 40.8137 25.1364 41.1923C24.0282 42.836 22.5264 43.4208 20.6307 42.9469C20.2841 42.8601 19.9901 42.6314 19.8097 42.3032C18.7858 40.4393 15.1115 33.7499 15.1115 33.7499L13.2094 33.9633L11.8997 41.7831C11.8398 42.141 11.5862 42.4396 11.265 42.5403C9.53036 43.0833 8.12807 42.9694 7.05773 42.199C6.74903 41.9771 6.61427 41.5557 6.68229 41.136L10.552 17.1769Z" fill="white"/>
<path fill-rule="evenodd" clip-rule="evenodd" d="M32.092 16.0653C33.4091 15.8658 34.668 15.8768 35.8688 16.0983C36.3863 16.1936 36.7165 16.7294 36.6317 17.3231C35.356 26.2585 34.6856 31.4715 34.6211 32.9623C34.5535 34.5085 34.7528 35.6884 35.2187 36.5003C35.6845 37.3131 36.5542 37.7192 37.8273 37.7192C39.1009 37.7192 40.1058 37.28 40.6496 36.4016C41.1934 35.5233 41.5834 34.3705 41.8189 32.9441C42.0471 31.563 42.6508 26.3021 43.6307 17.1605C43.6892 16.6167 44.0772 16.1517 44.5632 16.0649C45.6805 15.865 46.8804 15.8603 48.1626 16.0513C48.684 16.1288 49.0323 16.6527 48.963 17.2478C47.5444 29.4704 46.6165 35.896 45.7352 37.9089C45.0097 39.567 43.8218 40.7914 42.4484 41.7727C41.075 42.7531 39.3351 43.2435 37.2289 43.2435C35.1226 43.2435 33.3212 42.6506 31.8251 41.4652C30.3289 40.2802 29.4364 38.562 29.1484 36.311C28.8672 34.1214 29.5247 27.7217 31.1198 17.1122C31.2012 16.5727 31.6077 16.1386 32.092 16.0653Z" fill="white"/>
<path fill-rule="evenodd" clip-rule="evenodd" d="M63.3561 25.6399C62.8015 27.0176 60.3117 27.6368 55.8856 27.4966L56.8591 21.1913C60.9218 20.7123 63.1576 20.9897 63.57 22.0227C63.9817 23.0565 63.9102 24.2627 63.3561 25.6399ZM62.4552 36.1753C61.9489 37.384 59.1676 37.9591 54.1112 37.9011L55.0838 31.858C59.4892 31.4844 61.9455 31.8084 62.4531 32.8299C62.9611 33.8519 62.9624 34.967 62.4552 36.1753ZM65.7149 29.8246C64.9886 29.2342 64.9886 29.2342 65.7989 28.6964C67.2283 27.7473 68.1759 26.4339 68.6461 24.764C69.214 22.7439 69.2872 20.8872 68.8644 19.1944C68.4416 17.5016 67.1926 16.4593 65.1165 16.068C63.1183 15.6915 58.1476 15.8287 53.034 16.3293C52.6887 16.3628 52.3946 16.6579 52.3288 17.0344L52.2478 17.4957L48.6721 41.9816C48.4917 43.0747 49.721 43.0196 50.468 43.015C54.6675 43.2017 58.88 42.9807 63.1247 42.292C64.3488 42.1061 65.46 41.5526 66.4456 40.2388C67.4311 38.9255 67.9641 37.0836 68.0459 34.7128C68.1156 32.6799 67.2968 31.1112 65.7149 29.8246Z" fill="white"/>
<path fill-rule="evenodd" clip-rule="evenodd" d="M84.3586 25.6399C83.804 27.0176 81.3142 27.6368 76.8886 27.4966L77.8616 21.1913C81.9242 20.7123 84.1601 20.9897 84.5725 22.0227C84.9841 23.0565 84.9131 24.2627 84.3586 25.6399ZM83.4577 36.1753C82.9513 37.384 80.17 37.9591 75.1137 37.9011L76.0863 31.858C80.4916 31.4844 82.9479 31.8084 83.4555 32.8299C83.9636 33.8519 83.9649 34.967 83.4577 36.1753ZM86.7176 29.8246C85.9913 29.2342 85.9913 29.2342 86.8016 28.6964C88.231 27.7473 89.1786 26.4339 89.6488 24.764C90.2167 22.7439 90.2899 20.8872 89.8671 19.1944C89.4443 17.5016 88.1952 16.4593 86.1191 16.068C84.121 15.6915 79.1503 15.8287 74.0371 16.3293C73.6914 16.3628 73.3973 16.6579 73.3315 17.0344L73.2505 17.4957L69.6748 41.9816C69.4944 43.0747 70.7236 43.0196 71.4706 43.015C75.6702 43.2017 79.8827 42.9807 84.1274 42.292C85.3515 42.1061 86.4632 41.5526 87.4482 40.2388C88.4338 38.9255 88.9668 37.0836 89.0486 34.7128C89.1183 32.6799 88.2994 31.1112 86.7176 29.8246Z" fill="white"/>
<path fill-rule="evenodd" clip-rule="evenodd" d="M110.202 15.9114C111.285 15.9114 110.692 21.0864 109.574 21.1838L99.443 21.5408C99.2566 21.5476 99.1214 21.5488 99.1214 21.5488L98.4571 26.1465L98.8648 26.1355L106.999 25.9521C107.944 25.9229 107.515 30.853 106.464 30.9068L98.0291 31.296C97.8466 31.3041 97.7101 31.3198 97.7101 31.3198L96.8443 36.8771C96.8443 36.8771 97.0311 36.8648 97.2485 36.8576L107.558 36.5205C108.614 36.4778 108.292 42.4447 106.78 42.476L91.6798 43.1316C91.22 43.0359 90.9613 42.6594 90.9036 42.0017L94.2683 17.4086C94.4134 16.9749 94.6665 16.6551 95.0286 16.4489C95.082 16.4184 95.1423 16.4031 95.2004 16.4014L110.202 15.9114Z" fill="white"/>
<path fill-rule="evenodd" clip-rule="evenodd" d="M131.215 16.4219C131.65 17.7217 131.507 19.5847 130.785 21.0713C130.617 21.4173 130.282 21.6362 129.936 21.6413L124.964 21.7154C124.734 21.7188 124.547 21.7281 124.547 21.7281L122.164 41.7435C122.12 42.1157 121.902 42.4727 121.582 42.6282C120.348 43.227 118.394 43.5252 117.164 42.5028C116.669 42.092 116.917 40.9765 117.063 39.7004L119.335 21.9636C119.335 21.9636 119.13 21.9573 118.876 21.9632L114.113 22.0788C113.752 22.0873 113.414 21.9085 113.237 21.5807C112.462 20.1505 112.631 18.2223 113.483 16.8653C113.626 16.6366 113.946 16.4473 114.19 16.4397C116.522 16.3707 128.079 16.0268 130.548 15.9535C130.847 15.9446 131.115 16.1229 131.215 16.4219Z" fill="white"/>
</g>
<defs>
<clipPath id="clip0_7068_9324">
<rect width="60" height="60" fill="white"/>
</clipPath>
</defs>
</svg>
