<svg width="60" height="60" viewBox="0 0 60 60" fill="none" xmlns="http://www.w3.org/2000/svg">
<g clip-path="url(#clip0_7068_9318)">
<path d="M0 0H60V60H0V0Z" fill="#B31472"/>
<path fill-rule="evenodd" clip-rule="evenodd" d="M19.1475 25.1179H21.838L19.1475 31.9219V25.1179ZM34.7215 13.2H10.3756C8.62122 13.2 7.2002 14.6179 7.2002 16.3651V43.6315C7.2002 45.3824 8.62122 46.7999 10.3756 46.7999H23.9258C25.229 46.7999 26.3974 46.007 26.879 44.7974L37.6747 17.531C38.0619 16.5566 37.9373 15.4545 37.3481 14.5876C36.7554 13.7174 35.7721 13.2 34.7215 13.2Z" fill="#66013D"/>
<path fill-rule="evenodd" clip-rule="evenodd" d="M132.264 27.9303C132.264 26.3914 131.961 24.9096 131.365 23.522C130.782 22.1679 129.973 20.9616 128.96 19.9301C127.933 18.8885 126.717 18.062 125.343 17.474C123.953 16.8792 122.454 16.5768 120.885 16.5768H96.664C94.913 16.5768 93.4886 17.9948 93.4886 19.7453V35.5877H87.4341V19.7453C87.4341 17.9948 86.0127 16.5768 84.2583 16.5768H79.3622C77.6115 16.5768 76.1871 17.9948 76.1871 19.7453V35.5877H70.136V19.7453C70.136 17.9948 68.715 16.5768 66.9606 16.5768H45.9652C44.2142 16.5768 42.7898 17.9948 42.7898 19.7453V43.6047C42.7898 45.3552 44.2108 46.7732 45.9652 46.7732H117.656C119.235 46.7732 120.545 45.624 120.788 44.1154C121.845 44.9151 123.017 45.5535 124.28 46.0138C125.65 46.5144 127.111 46.7698 128.62 46.7698H129.088C130.839 46.7698 132.264 45.3519 132.264 43.6013V41.4274C132.264 41.3434 132.26 41.2594 132.253 41.1754C132.26 41.0914 132.264 41.0074 132.264 40.9234V38.7495C132.264 37.0661 130.947 35.6885 129.283 35.5877C129.677 35.1576 130.038 34.6973 130.371 34.2C131.627 32.3252 132.264 30.2151 132.264 27.9303Z" fill="#66013D"/>
<path fill-rule="evenodd" clip-rule="evenodd" d="M17.558 40.2481V23.5086C17.6489 23.5254 17.7398 23.5355 17.8375 23.5355H24.1681L17.558 40.2481ZM34.7215 14.7827H17.8376C17.4874 14.7827 17.1675 14.9003 16.9049 15.0918C16.6422 14.9003 16.3223 14.7827 15.9721 14.7827H13.4399C13.3422 14.7827 13.2446 14.7927 13.1503 14.8095C13.056 14.7927 12.9617 14.7827 12.8607 14.7827H10.3756C9.50006 14.7827 8.78955 15.4916 8.78955 16.3652V43.6313C8.78955 44.5052 9.50006 45.2142 10.3756 45.2142H12.864C12.9617 45.2142 13.0593 45.2041 13.1536 45.1873C13.2479 45.2041 13.3422 45.2142 13.4432 45.2142H15.9755C16.3459 45.2142 16.6792 45.0831 16.9486 44.8715C17.2248 45.0899 17.5682 45.2142 17.9285 45.2142H20.5955C20.6999 45.2142 20.8042 45.2041 20.9053 45.1836C21.0063 45.2041 21.1107 45.2142 21.2151 45.2142H23.9258C24.5757 45.2142 25.1616 44.8177 25.4007 44.2129L36.1998 16.9465C36.3917 16.4593 36.3311 15.9083 36.0348 15.4748C35.7384 15.0414 35.2468 14.7827 34.7215 14.7827Z" fill="#B31472"/>
<path fill-rule="evenodd" clip-rule="evenodd" d="M60.4784 26.0856V28.5989C60.2292 28.0478 59.6769 27.6648 59.0338 27.6648H52.4574V26.2133H59.8521C60.0709 26.2166 60.2831 26.1696 60.4784 26.0856ZM52.4542 37.1702V35.7187H59.0306C59.6737 35.7187 60.226 35.3357 60.4752 34.785V37.1702H52.4542ZM111.17 26.0856V28.5989C110.921 28.0512 110.369 27.6648 109.726 27.6648H103.146V26.2133H110.54C110.766 26.2166 110.978 26.1696 111.17 26.0856ZM103.149 37.1702V35.7187H109.729C110.372 35.7187 110.924 35.3357 111.173 34.785V37.1669H103.149V37.1702ZM122.644 27.9306C122.644 28.1726 122.6 28.3843 122.512 28.5792C122.408 28.8077 122.28 28.996 122.118 29.1573C121.967 29.3085 121.788 29.4261 121.576 29.5135C121.367 29.6009 121.142 29.6412 120.886 29.6412H119.245V26.2132H120.886C121.142 26.2132 121.367 26.2569 121.573 26.341C121.785 26.4317 121.963 26.546 122.115 26.6972C122.277 26.8585 122.408 27.0501 122.509 27.2752C122.6 27.4769 122.644 27.692 122.644 27.9306ZM129.047 33.33C130.128 31.7135 130.674 29.8958 130.674 27.9302C130.674 26.6063 130.415 25.3329 129.903 24.1435C129.398 22.9708 128.701 21.9259 127.825 21.0388C126.943 20.1451 125.896 19.4361 124.714 18.9287C123.522 18.418 122.232 18.1593 120.882 18.1593H96.6606C95.7851 18.1593 95.0746 18.8683 95.0746 19.7419V37.1702H85.8481V19.7452C85.8481 18.8716 85.1376 18.1627 84.2621 18.1627H79.3626C78.4871 18.1627 77.7766 18.8716 77.7766 19.7452V37.1735H68.55V19.7452C68.55 18.8716 67.8395 18.1627 66.964 18.1627H45.9686C45.0931 18.1627 44.3826 18.8716 44.3826 19.7452V43.6049C44.3826 44.4782 45.0931 45.1875 45.9686 45.1875H117.659C118.535 45.1875 119.245 44.4782 119.245 43.6049V40.1975C119.895 41.1689 120.686 42.0224 121.596 42.738C122.565 43.4971 123.653 44.0985 124.828 44.5319C126.024 44.9687 127.3 45.1905 128.62 45.1905H129.088C129.964 45.1905 130.674 44.4815 130.674 43.6079V41.4344C130.674 41.3467 130.667 41.2627 130.654 41.1824C130.667 41.1014 130.674 41.0144 130.674 40.9304V38.7561C130.674 37.8825 129.964 37.1735 129.088 37.1735H128.62C127.92 37.1735 127.3 36.9719 126.731 36.5624C126.542 36.4246 126.371 36.2764 126.223 36.1118C127.347 35.3894 128.293 34.4587 129.047 33.33Z" fill="#B31472"/>
<path fill-rule="evenodd" clip-rule="evenodd" d="M184.107 26.0856V28.5989C183.858 28.0478 183.306 27.6648 182.663 27.6648H176.086V26.2133H183.481C183.703 26.2166 183.915 26.1696 184.107 26.0856ZM176.083 37.1702V35.7187H182.659C183.302 35.7187 183.855 35.3356 184.104 34.7849V37.1702H176.083ZM195.577 27.9306C195.577 28.1726 195.534 28.3843 195.446 28.5792C195.341 28.8078 195.213 28.996 195.048 29.1606C194.897 29.3119 194.718 29.4295 194.506 29.5169C194.297 29.6043 194.075 29.6446 193.816 29.6446H192.176V26.2166H193.816C194.072 26.2166 194.297 26.2603 194.506 26.3443C194.718 26.4317 194.893 26.5493 195.048 26.7039C195.21 26.8652 195.341 27.0568 195.442 27.2853C195.534 27.4803 195.577 27.692 195.577 27.9306ZM202.025 37.1702H201.557C200.856 37.1702 200.237 36.9689 199.668 36.5587C199.479 36.4209 199.308 36.27 199.159 36.1084C200.28 35.3894 201.227 34.4587 201.981 33.3263C203.062 31.7102 203.607 29.8958 203.607 27.9268C203.607 26.603 203.348 25.3295 202.837 24.1401C202.331 22.9675 201.634 21.9225 200.759 21.0355C199.877 20.1417 198.832 19.4294 197.647 18.9254C196.455 18.4147 195.166 18.1559 193.815 18.1559H169.594C169.527 18.1559 169.459 18.166 169.395 18.1761V16.402C169.395 15.5284 168.685 14.8195 167.809 14.8195H162.91C162.263 14.8195 161.684 15.2092 161.438 15.8073L154.666 32.4595L147.858 15.8107C147.615 15.2159 147.033 14.8262 146.389 14.8262H141.531C140.655 14.8262 139.945 15.5351 139.945 16.4087V43.6049C139.945 44.4782 140.655 45.1875 141.531 45.1875H143.709C143.797 45.1875 143.881 45.1804 143.961 45.167C144.043 45.1804 144.127 45.1875 144.214 45.1875H146.43C147.306 45.1875 148.016 44.4782 148.016 43.6049V37.4558L150.75 44.1959C150.993 44.7944 151.575 45.1838 152.222 45.1838H154.593C154.619 45.1838 154.643 45.1838 154.67 45.1804C154.697 45.1804 154.72 45.1838 154.747 45.1838H157.118C157.765 45.1838 158.347 44.7944 158.59 44.1959L161.324 37.4558V43.6049C161.324 44.4782 162.034 45.1875 162.91 45.1875H190.589C191.465 45.1875 192.175 44.4782 192.175 43.6049V40.1975C192.825 41.1689 193.616 42.0224 194.526 42.7343C195.495 43.494 196.583 44.0955 197.759 44.5289C198.954 44.9654 200.23 45.1875 201.55 45.1875H202.018C202.894 45.1875 203.604 44.4782 203.604 43.6049V38.7561C203.611 37.8795 202.9 37.1702 202.025 37.1702Z" fill="#B31472"/>
<path fill-rule="evenodd" clip-rule="evenodd" d="M13.4398 43.6315H15.9721V16.3654H13.4398V43.6315ZM10.3757 43.6311H12.8642V16.3651H10.3757V43.6311Z" fill="white"/>
<path fill-rule="evenodd" clip-rule="evenodd" d="M10.4915 43.516H12.7479V16.4811H10.4915V43.516ZM10.2598 43.7468H12.9799V16.2495H10.2598V43.7468ZM13.5559 43.516H15.8564V16.4811H13.5559V43.516ZM13.324 43.7467H16.0879V16.2495H13.324V43.7467Z" fill="#B31472"/>
<path fill-rule="evenodd" clip-rule="evenodd" d="M30.1892 19.426L20.5922 43.6348H17.9253L26.5019 21.9561H17.8377V19.4294H30.1892V19.426ZM34.7215 16.3651L23.9224 43.6315H21.2117L31.0309 18.8918H17.8376V16.3651H34.7215Z" fill="white"/>
<path fill-rule="evenodd" clip-rule="evenodd" d="M21.3821 43.5158H23.8436L34.5511 16.4809H17.9535V18.7761H31.2013L21.3821 43.5158ZM24.0012 43.7466H21.041L30.8602 19.0076H17.7215V16.2494H34.8919L24.0012 43.7466ZM18.0957 43.5195H20.5134L30.0174 19.5452H17.9536V21.8404H26.672L18.0957 43.5195ZM20.6709 43.7503H17.7548L17.8174 43.5927L26.3314 22.0716H17.7214V19.3137H30.189V19.4041L30.3049 19.4293V19.5452H30.2665L20.6709 43.7503Z" fill="#B31472"/>
<path fill-rule="evenodd" clip-rule="evenodd" d="M60.5492 40.9304H48.6524V31.9252H59.0339V34.1361H50.8681V38.7527H60.5492V40.9304ZM50.8681 24.6341V29.2507H59.0339V31.4616H48.6524V22.4232H59.8488V24.6341H50.8681ZM48.1472 41.4306H60.5491V43.6049H45.9685V19.7452H59.8487V21.9561H48.1472V41.4306Z" fill="white"/>
<path fill-rule="evenodd" clip-rule="evenodd" d="M48.7684 31.3461H58.9183V29.3664H50.7525V24.5186H59.7332V22.5389H48.7684V31.3461ZM59.15 31.577H48.5368V22.3077H59.9649V24.7498H50.9842V29.1352H59.15V31.577ZM48.7684 40.8149H60.4336V38.8684H50.7525V34.0206H58.9183V32.0406H48.7684V40.8149ZM60.6653 41.0457H48.5368V31.8097H59.15V34.2515H50.9842V38.6373H60.6653V41.0457ZM46.0845 43.4892H60.4335V41.5457H48.0315V21.84H59.7331V19.8606H46.0845V43.4892ZM60.6652 43.7202H45.8525V19.6297H59.9648V22.0717H48.2632V41.3151H60.6652V43.7202Z" fill="#B31472"/>
<path fill-rule="evenodd" clip-rule="evenodd" d="M77.8103 38.7561V40.9303H64.745V19.7452H66.9607V38.7561H77.8103ZM64.2398 41.4306H77.8102V43.6049H62.0645V19.7452H64.2431V41.4306H64.2398Z" fill="white"/>
<path fill-rule="evenodd" clip-rule="evenodd" d="M64.8607 40.8147H77.694V38.8717H66.8448V19.8611H64.8607V40.8147ZM77.9258 41.0456H64.6289V19.6296H67.0763V38.6405H77.9258V41.0456ZM62.1803 43.4892H77.694V41.5461H64.2398L64.2398 41.4306L64.127 41.4305V19.861H62.1803V43.4892ZM77.9261 43.7201H61.9487V19.6296H64.3591V41.315H77.9261V43.7201Z" fill="#B31472"/>
<path fill-rule="evenodd" clip-rule="evenodd" d="M95.1115 38.7561V40.9303H82.0462V19.7452H84.2619V38.7561H95.1115ZM81.541 41.4306H95.1114V43.6049H79.3623V19.7452H81.541V41.4306Z" fill="white"/>
<path fill-rule="evenodd" clip-rule="evenodd" d="M82.1625 40.8147H94.9958V38.8717H84.1465V19.8611H82.1625V40.8147ZM95.2278 41.0456H81.9308V19.6296H84.3782V38.6405H95.2278V41.0456ZM79.4786 43.4892H94.9957V41.5461H81.4256V19.861H79.4786V43.4892ZM95.2277 43.7201H79.2466V19.6296H81.6573V41.315H95.2277V43.7201Z" fill="#B31472"/>
<path fill-rule="evenodd" clip-rule="evenodd" d="M111.244 40.9304H99.3472V31.9252H109.729V34.1361H101.563V38.7527H111.244V40.9304ZM101.563 24.6341V29.2507H109.729V31.4616H99.3472V22.4232H110.544V24.6341H101.563ZM98.8394 41.4306H111.245V43.6049H96.6641V19.7452H110.544V21.9561H98.8394V41.4306Z" fill="white"/>
<path fill-rule="evenodd" clip-rule="evenodd" d="M99.4635 31.3461H109.614V29.3664H101.448V24.5186H110.429V22.5389H99.4635V31.3461ZM109.845 31.577H99.2321V22.3077H110.66V24.7498H101.679V29.1352H109.845V31.577ZM99.4635 40.8149H111.129V38.8684H101.448V34.0206H109.614V32.0406H99.4635V40.8149ZM111.361 41.0457H99.2321V31.8097H109.845V34.2515H101.679V38.6373H111.361V41.0457ZM96.7798 43.4894H111.129V41.546H98.7235V21.8403H110.429V19.8609H96.7798V43.4894ZM111.36 43.7202H96.5481V19.6297H110.66V22.0717H98.9551V41.3151H111.36V43.7202Z" fill="#B31472"/>
<path fill-rule="evenodd" clip-rule="evenodd" d="M120.885 31.2299C121.353 31.2299 121.784 31.1459 122.188 30.9779C122.589 30.8099 122.939 30.5781 123.239 30.2787C123.535 29.98 123.778 29.6339 123.959 29.2307C124.141 28.8309 124.232 28.3975 124.232 27.9304C124.232 27.4634 124.141 27.0333 123.959 26.6301C123.778 26.2303 123.539 25.8808 123.239 25.5815C122.939 25.2827 122.589 25.0509 122.188 24.8829C121.788 24.7149 121.353 24.6309 120.885 24.6309H117.659V31.2263H120.885V31.2299ZM121.741 36.8915C122.127 37.7953 122.66 38.5849 123.333 39.2569C124.007 39.9289 124.798 40.4598 125.704 40.8462C126.61 41.2326 127.583 41.4275 128.62 41.4275H129.088V43.6011H128.62C127.478 43.6011 126.398 43.4133 125.374 43.04C124.35 42.6673 123.417 42.1462 122.576 41.4876C121.734 40.8291 121.02 40.0398 120.437 39.1222C119.854 38.2053 119.444 37.2006 119.211 36.1153H117.656V43.6048H115.44V33.9045H121.155V34.0221C121.158 35.0301 121.35 35.9873 121.741 36.8915ZM125.977 30.064C125.69 30.7357 125.296 31.3237 124.791 31.8277C124.286 32.3317 123.704 32.7248 123.04 33.0107C122.38 33.296 121.66 33.4371 120.882 33.4371H115.44V22.4234H120.882C121.66 22.4234 122.38 22.5642 123.04 22.8501C123.7 23.1357 124.283 23.5288 124.791 24.0328C125.296 24.5368 125.69 25.1248 125.977 25.7968C126.263 26.4688 126.404 27.1811 126.404 27.9304C126.404 28.6797 126.263 29.392 125.977 30.064ZM125.805 37.8424C126.646 38.4502 127.586 38.7529 128.623 38.7529H129.091V40.9265H128.623C127.664 40.9265 126.765 40.7451 125.923 40.3822C125.081 40.0193 124.34 39.5288 123.707 38.9075C123.07 38.2859 122.572 37.5568 122.209 36.7168C121.845 35.8768 121.663 34.976 121.663 34.0221V33.8675C122.387 33.7633 123.074 33.5382 123.724 33.1888C124.37 32.8393 124.929 32.4059 125.397 31.8885C125.866 31.371 126.233 30.7696 126.505 30.0841C126.778 29.3987 126.912 28.6797 126.912 27.9304C126.912 27.1038 126.758 26.3277 126.445 25.6019C126.135 24.8761 125.707 24.2441 125.161 23.7001C124.616 23.1558 123.976 22.7291 123.239 22.42C122.498 22.1109 121.717 21.9529 120.885 21.9529H114.935V43.6011H112.756V19.7454H120.882C122.023 19.7454 123.091 19.9601 124.091 20.3838C125.087 20.8105 125.956 21.3985 126.697 22.1478C127.434 22.8971 128.02 23.7707 128.448 24.7653C128.876 25.7598 129.091 26.8149 129.091 27.9267C129.091 29.5835 128.637 31.0888 127.731 32.4462C126.825 33.8033 125.606 34.8049 124.077 35.4531C124.384 36.4413 124.96 37.2342 125.805 37.8424Z" fill="white"/>
<path fill-rule="evenodd" clip-rule="evenodd" d="M117.775 31.1107L121.001 31.1124C121.409 31.1 121.784 31.0204 122.144 30.8712C122.53 30.7092 122.871 30.4824 123.157 30.1972C123.448 29.9032 123.683 29.5621 123.854 29.1831C124.028 28.8004 124.117 28.3787 124.117 27.9302C124.117 27.4786 124.031 27.069 123.854 26.6772C123.678 26.2902 123.443 25.9488 123.157 25.6632C122.871 25.3783 122.531 25.1518 122.144 24.9895C121.759 24.8282 121.335 24.7466 120.885 24.7466H117.775V31.1107ZM120.885 31.3453L117.544 31.3416V24.5151H120.885C121.366 24.5151 121.82 24.6032 122.233 24.7762C122.648 24.9503 123.014 25.1935 123.321 25.4999C123.627 25.805 123.877 26.1693 124.065 26.5822C124.256 27.0046 124.348 27.4454 124.348 27.9302C124.348 28.4121 124.253 28.8657 124.065 29.2783C123.883 29.6825 123.633 30.0464 123.321 30.3602C123.014 30.6673 122.648 30.9106 122.234 31.0846C121.811 31.26 121.37 31.3453 120.885 31.3453ZM115.556 33.3217H120.882C121.644 33.3217 122.354 33.1813 122.994 32.9047C123.641 32.6262 124.218 32.2364 124.709 31.7462C125.199 31.2573 125.59 30.6757 125.87 30.0188C126.148 29.367 126.288 28.6641 126.288 27.9302C126.288 27.1964 126.148 26.4938 125.87 25.842C125.59 25.1848 125.199 24.6035 124.709 24.1143C124.215 23.6244 123.638 23.2346 122.994 22.9561C122.355 22.6792 121.644 22.5388 120.882 22.5388H115.556V33.3217ZM120.882 33.5528H115.325V22.3076H120.882C121.676 22.3076 122.418 22.4544 123.086 22.7437C123.757 23.034 124.358 23.4399 124.873 23.9506C125.385 24.461 125.792 25.0668 126.084 25.7513C126.373 26.432 126.52 27.1651 126.52 27.9302C126.52 28.6953 126.373 29.4284 126.084 30.1092C125.792 30.794 125.385 31.3994 124.873 31.9095C124.361 32.4202 123.76 32.8264 123.086 33.1171C122.418 33.406 121.676 33.5528 120.882 33.5528ZM112.872 43.4857H114.82V21.8372H120.886C121.72 21.8372 122.527 21.9975 123.284 22.3133C124.03 22.6261 124.69 23.0653 125.244 23.6183C125.799 24.1724 126.239 24.8242 126.551 25.5564C126.868 26.2905 127.029 27.0892 127.029 27.9302C127.029 28.6953 126.889 29.4341 126.613 30.1266C126.335 30.8262 125.955 31.4451 125.484 31.9659C125.01 32.4897 124.437 32.9353 123.779 33.2904C123.153 33.6274 122.48 33.8549 121.779 33.9668V34.0219C121.779 34.958 121.96 35.8497 122.315 36.6709C122.671 37.4934 123.167 38.2179 123.788 38.8247C124.405 39.4298 125.138 39.918 125.969 40.2762C126.792 40.631 127.686 40.8111 128.624 40.8111H128.976V38.8684H128.624C127.565 38.8684 126.594 38.5545 125.738 37.936C124.874 37.315 124.278 36.4911 123.967 35.4872L123.936 35.3877L124.032 35.3467C125.535 34.7093 126.747 33.7118 127.635 32.3822C128.525 31.0483 128.976 29.5494 128.976 27.9268C128.976 26.8375 128.763 25.7892 128.342 24.8108C127.923 23.8364 127.342 22.9675 126.615 22.2286C125.888 21.4938 125.024 20.9088 124.045 20.4902C123.06 20.0725 121.995 19.8612 120.882 19.8612H112.872V43.4857ZM115.051 43.7168H112.641V19.6296H120.882C122.026 19.6296 123.121 19.8477 124.136 20.2771C125.143 20.7082 126.032 21.31 126.78 22.0666C127.527 22.826 128.124 23.7188 128.555 24.7197C128.988 25.727 129.207 26.8059 129.207 27.9268C129.207 29.5957 128.743 31.138 127.828 32.5102C126.934 33.8495 125.72 34.8609 124.22 35.5177C124.524 36.4276 125.079 37.1779 125.873 37.7484C126.689 38.3381 127.615 38.6372 128.623 38.6372H129.207V41.0422H128.623C127.654 41.0422 126.73 40.8558 125.877 40.4882C125.02 40.1189 124.263 39.6149 123.626 38.9896C122.983 38.3623 122.47 37.613 122.103 36.7626C121.734 35.9119 121.547 34.9899 121.547 34.0219V33.7672L121.647 33.7527C122.356 33.6509 123.037 33.4271 123.669 33.0871C124.303 32.7441 124.855 32.315 125.311 31.811C125.764 31.3107 126.13 30.7153 126.397 30.0413C126.663 29.376 126.797 28.6657 126.797 27.9302C126.797 27.1208 126.643 26.3527 126.338 25.6474C126.037 24.9421 125.614 24.3145 125.08 23.7819C124.547 23.2497 123.913 22.8277 123.194 22.5266C122.466 22.2225 121.689 22.0683 120.885 22.0683H115.051V43.7168ZM115.556 43.4894H117.54V35.9999H119.305L119.325 36.091C119.553 37.1564 119.96 38.1554 120.535 39.0602C121.108 39.9627 121.819 40.7486 122.647 41.3968C123.484 42.0516 124.415 42.5677 125.414 42.9316C126.423 43.2992 127.501 43.4857 128.62 43.4857H128.972V41.5429H128.62C127.574 41.5429 126.577 41.3443 125.658 40.9526C124.743 40.5618 123.933 40.0188 123.251 39.3384C122.569 38.658 122.025 37.8499 121.634 36.937C121.242 36.0305 121.042 35.05 121.039 34.0222V34.0199H115.556V43.4894ZM117.772 43.7202H115.325V33.789H121.271V34.0219C121.274 35.0178 121.468 35.968 121.847 36.8453C122.227 37.731 122.754 38.5152 123.415 39.1751C124.076 39.8344 124.862 40.3609 125.75 40.7399C126.64 41.1192 127.605 41.3118 128.62 41.3118H129.204V43.7168H128.62C127.474 43.7168 126.369 43.5257 125.334 43.1487C124.312 42.7767 123.36 42.2482 122.504 41.5785C121.655 40.9143 120.926 40.1085 120.34 39.1842C119.766 38.282 119.356 37.2892 119.118 36.2308H117.772V43.7202Z" fill="#B31472"/>
<path fill-rule="evenodd" clip-rule="evenodd" d="M184.178 40.9304H172.281V31.9252H182.663V34.1361H174.497V38.7527H184.178V40.9304ZM174.497 24.6341V29.2507H182.663V31.4616H172.281V22.4232H183.478V24.6341H174.497ZM171.776 41.4306H184.178V43.6049H169.597V19.7452H183.477V21.9561H171.776V41.4306Z" fill="white"/>
<path fill-rule="evenodd" clip-rule="evenodd" d="M172.397 31.3461H182.547V29.3664H174.381V24.5186H183.362V22.5389H172.397V31.3461ZM182.778 31.577H172.166V22.3077H183.593V24.7498H174.613V29.1352H182.778V31.577ZM172.397 40.8149H184.062V38.8684H174.381V34.0206H182.547V32.0406H172.397V40.8149ZM184.294 41.0457H172.166V31.8097H182.778V34.2515H174.613V38.6373H184.294V41.0457ZM169.713 43.4896H184.063V41.5462H171.66V21.8405H183.362V19.8611H169.713V43.4896ZM184.294 43.7202H169.481V19.6297H183.593V22.0717H171.892V41.3151H184.294V43.7202Z" fill="#B31472"/>
<path fill-rule="evenodd" clip-rule="evenodd" d="M193.819 31.2299C194.287 31.2299 194.721 31.1459 195.122 30.9779C195.522 30.8099 195.873 30.5781 196.172 30.2787C196.472 29.98 196.711 29.6339 196.893 29.2307C197.075 28.8275 197.165 28.3975 197.165 27.9304C197.165 27.4634 197.075 27.0333 196.893 26.6301C196.711 26.2269 196.472 25.8808 196.172 25.5815C195.876 25.2827 195.525 25.0509 195.122 24.8829C194.721 24.7149 194.287 24.6309 193.819 24.6309H190.593V31.2263H193.819V31.2299ZM194.674 36.8915C195.064 37.7953 195.593 38.5849 196.27 39.2569C196.943 39.9289 197.735 40.4598 198.64 40.8462C199.546 41.2326 200.519 41.4275 201.556 41.4275H202.025V43.6011H201.556C200.415 43.6011 199.334 43.4133 198.311 43.04C197.287 42.6636 196.354 42.1462 195.512 41.4876C194.67 40.8291 193.957 40.0398 193.374 39.1222C192.792 38.2053 192.384 37.2006 192.148 36.1153H190.593V43.6048H188.377V33.9045H194.091V34.0221C194.091 35.0301 194.287 35.9873 194.674 36.8915ZM198.913 30.064C198.627 30.7357 198.233 31.3237 197.728 31.8277C197.223 32.3317 196.64 32.7248 195.977 33.0107C195.317 33.296 194.596 33.4371 193.819 33.4371H188.377V22.4234H193.819C194.596 22.4234 195.317 22.5642 195.977 22.8501C196.637 23.1357 197.223 23.5288 197.728 24.0328C198.233 24.5368 198.63 25.1248 198.913 25.7968C199.199 26.4688 199.341 27.1811 199.341 27.9304C199.341 28.6797 199.199 29.392 198.913 30.064ZM198.738 37.8424C199.58 38.4502 200.519 38.7529 201.556 38.7529H202.025V40.9265H201.556C200.597 40.9265 199.698 40.7451 198.856 40.3822C198.014 40.0193 197.273 39.5288 196.64 38.9075C196.007 38.2859 195.505 37.5568 195.145 36.7168C194.781 35.8768 194.599 34.976 194.599 34.0221V33.8675C195.324 33.7633 196.011 33.5382 196.66 33.1888C197.307 32.8393 197.866 32.4059 198.33 31.8885C198.799 31.371 199.166 30.7696 199.438 30.0841C199.711 29.3987 199.846 28.6797 199.846 27.9304C199.846 27.1038 199.691 26.3277 199.378 25.6019C199.068 24.8761 198.64 24.2441 198.095 23.7001C197.549 23.1558 196.91 22.7291 196.168 22.42C195.431 22.1109 194.647 21.9529 193.815 21.9529H187.865V43.6011H185.686V19.7454H193.811C194.953 19.7454 196.021 19.9601 197.021 20.3838C198.018 20.8105 198.886 21.3985 199.627 22.1478C200.364 22.8971 200.95 23.7707 201.378 24.7653C201.806 25.7598 202.021 26.8149 202.021 27.9267C202.021 29.5835 201.567 31.0888 200.661 32.4462C199.755 33.8033 198.536 34.8049 197.007 35.4531C197.317 36.4413 197.896 37.2342 198.738 37.8424Z" fill="white"/>
<path fill-rule="evenodd" clip-rule="evenodd" d="M190.708 31.1107L193.934 31.1124C194.341 31.0997 194.726 31.0187 195.077 30.8712C195.463 30.7092 195.805 30.4824 196.09 30.1972C196.384 29.9048 196.611 29.5732 196.788 29.1831C196.964 28.7917 197.05 28.3818 197.05 27.9302C197.05 27.4786 196.964 27.069 196.788 26.6772C196.611 26.2875 196.384 25.9558 196.09 25.6632C195.808 25.3779 195.467 25.1515 195.077 24.9895C194.692 24.8282 194.269 24.7466 193.819 24.7466H190.708V31.1107ZM193.819 31.3453L190.477 31.3416V24.5151H193.819C194.3 24.5151 194.754 24.6032 195.167 24.7762C195.585 24.9499 195.951 25.1935 196.255 25.5003C196.568 25.8124 196.811 26.1666 196.999 26.5825C197.189 27.0046 197.282 27.4454 197.282 27.9302C197.282 28.4154 197.189 28.8563 196.999 29.2779C196.811 29.6942 196.567 30.048 196.255 30.3605C195.947 30.6673 195.582 30.9106 195.167 31.0846C194.754 31.2576 194.3 31.3453 193.819 31.3453ZM188.493 33.3217H193.818C194.581 33.3217 195.291 33.1813 195.931 32.9047C196.578 32.6259 197.155 32.2361 197.646 31.7462C198.137 31.2566 198.527 30.6754 198.807 30.0188C199.084 29.367 199.225 28.6641 199.225 27.9302C199.225 27.1964 199.084 26.4938 198.807 25.842C198.532 25.1905 198.142 24.6096 197.646 24.1143C197.157 23.6268 196.58 23.237 195.931 22.9561C195.291 22.6792 194.581 22.5388 193.818 22.5388H188.493V33.3217ZM193.819 33.5528H188.261V22.3076H193.819C194.613 22.3076 195.355 22.4544 196.023 22.7437C196.7 23.0364 197.301 23.4426 197.81 23.951C198.328 24.4674 198.735 25.0732 199.021 25.7519C199.31 26.432 199.457 27.1651 199.457 27.9302C199.457 28.6953 199.31 29.4284 199.02 30.1092C198.729 30.7933 198.322 31.3988 197.81 31.9095C197.298 32.4202 196.697 32.8264 196.023 33.1167C195.355 33.406 194.613 33.5528 193.819 33.5528ZM185.802 43.4855H187.749V21.8371H193.815C194.653 21.8371 195.46 21.9973 196.214 22.3132C196.961 22.625 197.622 23.0641 198.177 23.6182C198.732 24.1723 199.172 24.8244 199.484 25.5562C199.801 26.2904 199.962 27.0891 199.962 27.9301C199.962 28.6951 199.822 29.434 199.546 30.1265C199.268 30.8261 198.888 31.445 198.417 31.9658C197.948 32.4883 197.375 32.9338 196.716 33.2903C196.089 33.6273 195.416 33.8548 194.715 33.9667V34.0218C194.715 34.9579 194.896 35.8496 195.251 36.6708C195.601 37.4859 196.096 38.2103 196.721 38.8249C197.338 39.4297 198.071 39.9179 198.902 40.2761C199.725 40.6309 200.619 40.811 201.557 40.811H201.909V38.8682H201.557C200.498 38.8682 199.527 38.5544 198.67 37.9355C197.807 37.3125 197.211 36.489 196.897 35.4874L196.865 35.3876L196.962 35.3466C198.465 34.7092 199.677 33.7116 200.565 32.3821C201.455 31.0482 201.906 29.5493 201.906 27.9267C201.906 26.8374 201.692 25.7891 201.272 24.8107C200.853 23.8363 200.271 22.9674 199.545 22.2285C198.818 21.4937 197.954 20.9087 196.975 20.49C195.99 20.0724 194.925 19.861 193.812 19.861H185.802V43.4855ZM187.981 43.7168H185.571V19.6296H193.812C194.957 19.6296 196.052 19.8477 197.067 20.2771C198.073 20.7082 198.962 21.31 199.71 22.0666C200.457 22.826 201.055 23.7188 201.485 24.7197C201.918 25.727 202.137 26.8059 202.137 27.9268C202.137 29.5957 201.674 31.138 200.758 32.5102C199.864 33.8492 198.651 34.8609 197.15 35.5174C197.457 36.4256 198.013 37.1762 198.806 37.7488C199.623 38.3385 200.548 38.6372 201.557 38.6372H202.141V41.0422H201.557C200.587 41.0422 199.663 40.8558 198.811 40.4882C197.954 40.1189 197.196 39.6149 196.559 38.9896C195.912 38.3542 195.4 37.6046 195.039 36.7623C194.671 35.9119 194.484 34.9899 194.484 34.0219V33.7672L194.584 33.7527C195.293 33.6509 195.974 33.4271 196.606 33.0871C197.242 32.743 197.793 32.314 198.245 31.8113C198.698 31.3107 199.063 30.7153 199.331 30.0413C199.596 29.376 199.73 28.6657 199.73 27.9302C199.73 27.1208 199.576 26.3527 199.272 25.6474C198.971 24.9425 198.548 24.3148 198.013 23.7819C197.479 23.249 196.844 22.8267 196.124 22.5266C195.399 22.2225 194.623 22.0683 193.816 22.0683H187.981V43.7168ZM188.493 43.4894H190.477V35.9999H192.242L192.261 36.0906C192.494 37.1631 192.902 38.1621 193.472 39.0602C194.045 39.963 194.756 40.7493 195.584 41.3968C196.412 42.0446 197.343 42.561 198.351 42.9316C199.359 43.2992 200.438 43.4857 201.557 43.4857H201.909V41.5429H201.557C200.51 41.5429 199.514 41.3443 198.595 40.9526C197.68 40.5621 196.87 40.0191 196.188 39.3384C195.511 38.6664 194.966 37.8583 194.567 36.9374C194.174 36.0204 193.975 35.0393 193.975 34.0219V34.0199H188.493V43.4894ZM190.709 43.7202H188.261V33.789H194.207V34.0219C194.207 35.0081 194.4 35.9583 194.781 36.8456C195.167 37.7397 195.696 38.5236 196.352 39.1748C197.013 39.8347 197.799 40.3609 198.686 40.7399C199.576 41.1192 200.542 41.3118 201.557 41.3118H202.141V43.7168H201.557C200.411 43.7168 199.306 43.5257 198.271 43.1487C197.24 42.7697 196.288 42.2415 195.441 41.5785C194.592 40.9149 193.864 40.1089 193.276 39.1842C192.708 38.2884 192.297 37.2952 192.056 36.2308H190.709V43.7202Z" fill="#B31472"/>
<path fill-rule="evenodd" clip-rule="evenodd" d="M162.913 16.4088L154.67 36.6595L146.389 16.4088H144.211V16.7952L154.67 42.4791L165.085 16.9061V16.4088H162.913Z" fill="white"/>
<path fill-rule="evenodd" clip-rule="evenodd" d="M144.327 16.7725L154.67 42.1718L164.97 16.8834V16.5245H162.991L154.671 36.9661L146.312 16.5245H144.327V16.7725ZM154.67 42.786L144.095 16.795V16.293H146.467L146.496 16.3653L154.67 36.3526L162.835 16.293H165.201L165.192 16.9496L154.67 42.786Z" fill="#B31472"/>
<path fill-rule="evenodd" clip-rule="evenodd" d="M143.706 16.4088H141.527V43.6047H143.706V16.4088Z" fill="white"/>
<path fill-rule="evenodd" clip-rule="evenodd" d="M141.643 43.4894H143.59V16.5247H141.643V43.4894ZM141.412 43.7202H143.822V16.2932H141.412V43.7202Z" fill="#B31472"/>
<path fill-rule="evenodd" clip-rule="evenodd" d="M165.59 16.4088L165.597 43.6047H167.813V16.4088H165.59Z" fill="white"/>
<path fill-rule="evenodd" clip-rule="evenodd" d="M165.713 43.4891H167.697V16.5244H165.706L165.713 43.4891ZM167.928 43.7201H165.481L165.475 16.2931H167.928V43.7201Z" fill="#B31472"/>
<path fill-rule="evenodd" clip-rule="evenodd" d="M144.211 43.6047H146.426V29.3281L152.222 43.6047H154.592L144.211 18.1158V43.6047Z" fill="white"/>
<path fill-rule="evenodd" clip-rule="evenodd" d="M152.3 43.4894H154.42L144.327 18.7074V43.4894H146.311V29.3283L146.534 29.2847L152.3 43.4894ZM154.765 43.7201H152.144L152.114 43.6482L146.542 29.9216V43.7201H144.095V18.1155L144.318 18.0722L154.765 43.7201Z" fill="#B31472"/>
<path fill-rule="evenodd" clip-rule="evenodd" d="M157.118 43.6047L162.913 29.3281V43.6047H165.129V18.1158L154.747 43.6047H157.118Z" fill="white"/>
<path fill-rule="evenodd" clip-rule="evenodd" d="M163.029 43.4894H165.013V18.7074L154.92 43.4894H157.04L162.806 29.2847L163.029 29.3283V43.4894ZM165.245 43.7201H162.798V29.9216L157.196 43.7201H154.575L154.64 43.5612L165.022 18.0722L165.245 18.1155V43.7201Z" fill="#B31472"/>
</g>
<defs>
<clipPath id="clip0_7068_9318">
<rect width="60" height="60" fill="white"/>
</clipPath>
</defs>
</svg>
