<svg width="60" height="60" viewBox="0 0 60 60" fill="none" xmlns="http://www.w3.org/2000/svg">
<g clip-path="url(#clip0_7068_9417)">
<path d="M0 0H60V60H0V0Z" fill="#DEADD0"/>
<path fill-rule="evenodd" clip-rule="evenodd" d="M18.1804 14.9015L15.4262 32.3637L13.0921 14.9015H7.20044V44.5834H11.4091V30.7062L13.7046 44.5834H16.843L19.0224 30.7062V44.5834H23.9201V14.9015H18.1804Z" fill="#911888"/>
<path fill-rule="evenodd" clip-rule="evenodd" d="M30.428 14.9015L26.6403 44.5054H30.8867L31.268 40.3811H34.2912L34.6745 44.5054H39.8006L35.8987 14.9015H30.428ZM32.8773 24.4613L33.7948 36.2569H31.6899L32.8773 24.4613Z" fill="#911888"/>
<path fill-rule="evenodd" clip-rule="evenodd" d="M39.2292 14.9015V18.9877H43.2085V44.5834H48.2969V18.9877H52.315V14.9015H39.2292Z" fill="#911888"/>
<path fill-rule="evenodd" clip-rule="evenodd" d="M61.0788 44.9681C57.291 44.9681 54.9191 43.0405 54.9191 38.6852V20.8378C54.9191 16.5595 57.291 14.3999 61.0023 14.3999C64.3681 14.3999 66.8175 15.5953 66.8175 20.9149C66.8175 22.3803 66.6636 23.8447 66.5107 24.9621L62.6465 24.654C62.8004 23.6137 62.9146 22.5343 62.9146 21.493C62.9146 18.7182 62.2652 18.3321 61.3459 18.3321C60.4275 18.3321 60.0075 18.7182 60.0075 20.2216V39.1093C60.0075 40.4587 60.3511 41.0749 61.4998 41.0749C62.3417 41.0749 62.9146 40.4968 62.9146 37.6829C62.9146 36.7576 62.8004 35.6403 62.6465 34.522L66.5504 34.2139C66.7033 35.2932 66.8562 36.5646 66.8562 38.3001C66.8562 43.7347 64.4069 44.9681 61.0788 44.9681Z" fill="#911888"/>
</g>
<defs>
<clipPath id="clip0_7068_9417">
<rect width="60" height="60" fill="white"/>
</clipPath>
</defs>
</svg>
