<svg width="60" height="60" viewBox="0 0 60 60" fill="none" xmlns="http://www.w3.org/2000/svg">
<g clip-path="url(#clip0_7068_9451)">
<path d="M0 0H60V60H0V0Z" fill="#00AB96"/>
<path fill-rule="evenodd" clip-rule="evenodd" d="M3.6001 20.58V14.4H21.1801V18.66L21.1201 18.81C18.0001 25.47 16.5001 33.33 16.4701 43.65V44.4H9.0001L9.0601 43.59C9.5701 34.68 12.3601 27.42 15.3001 20.19L3.6001 20.58ZM31.2601 20.55H37.6201L40.5901 44.4H36.3901L35.7601 39.09H32.2201L31.6201 44.4H27.9001L31.2601 20.55ZM24.6608 29.97H21.4501V33.1808H24.6608V29.97ZM24.6906 36.12H21.4799V39.3307H24.6906V36.12ZM34.0201 24.24H34.0801L35.3701 35.64H32.6401L34.0201 24.24ZM47.61 20.55L51.63 33.15H51.69V20.55H55.2V44.4H51.78L47.07 29.97H47.01V44.4H43.29V20.55H47.61Z" fill="white"/>
</g>
<defs>
<clipPath id="clip0_7068_9451">
<rect width="60" height="60" fill="white"/>
</clipPath>
</defs>
</svg>
