<svg width="60" height="60" viewBox="0 0 60 60" fill="none" xmlns="http://www.w3.org/2000/svg">
<g clip-path="url(#clip0_7068_9350)">
<path d="M0 0H60V60H0V0Z" fill="#E8C6AB"/>
<path fill-rule="evenodd" clip-rule="evenodd" d="M15.1928 15.8339L12.1679 24.3619V15.8339H7.19995V44.761H12.1679V34.8054L12.8776 32.9267L15.2304 44.761H20.3835L15.9767 26.352L19.936 15.8339H15.1928Z" fill="#DD6B10"/>
<path fill-rule="evenodd" clip-rule="evenodd" d="M27.9669 19.8161H27.2948V28.9445H27.9302C29.0498 28.9445 29.7971 28.0434 29.7971 24.1737C29.7971 20.4174 29.0498 19.8161 27.9669 19.8161ZM29.7595 44.7601C29.5358 44.2344 29.4239 43.6331 29.3863 43.0327C29.312 40.5159 29.312 39.5761 29.2744 37.7353C29.2002 33.4156 28.6023 32.9646 28.0045 32.9646H27.2948V44.7601H22.3269V15.8348H28.5271C32.524 15.8348 34.6522 18.1257 34.6522 23.4221C34.6522 27.4422 34.3166 29.5836 31.8143 30.8231C33.9801 32.213 34.2047 35.5939 34.2047 37.4347V39.614C34.2047 42.3189 34.3542 43.3703 34.6898 44.7601H29.7595Z" fill="#DD6B10"/>
<path fill-rule="evenodd" clip-rule="evenodd" d="M48.6601 15.8345L44.4771 33.5277V44.7607H39.5101V33.4908L35.3262 15.8345H40.5554L42.1985 26.7668L43.9911 15.8345H48.6601Z" fill="#DD6B10"/>
<path fill-rule="evenodd" clip-rule="evenodd" d="M62.3304 38.5244C62.3304 43.1448 59.94 45.136 56.3181 45.136C52.4707 45.136 50.9395 42.7695 50.9395 38.6C50.9395 37.0221 51.0889 35.5944 51.2374 34.5422L54.973 34.9931C54.8235 36.0823 54.7117 37.2093 54.7117 38.1869C54.7117 40.628 55.1225 41.2662 56.0183 41.2662C56.8398 41.2662 57.2892 40.628 57.2892 38.8619V38.0734C57.2892 35.932 56.6913 33.9787 54.2633 31.0109C51.8353 28.0809 50.8643 25.7144 50.8643 22.4082V21.9582C50.8643 18.2009 52.3213 15.3456 56.5795 15.3456C60.6506 15.3456 61.9196 17.9381 61.9196 21.8825C61.9196 23.3102 61.8077 24.3237 61.6583 25.4516L57.8861 25.0006C57.9989 24.024 58.0731 23.798 58.0731 22.2957C58.0731 19.7789 57.699 19.1776 56.915 19.1776C56.0935 19.1776 55.8322 19.7411 55.8322 21.4315V22.0328C55.8322 23.6855 56.4676 25.376 58.2226 27.6299C60.6873 30.8227 62.3304 34.2793 62.3304 37.9609V38.5244Z" fill="#DD6B10"/>
</g>
<defs>
<clipPath id="clip0_7068_9350">
<rect width="60" height="60" fill="white"/>
</clipPath>
</defs>
</svg>
