<svg width="206" height="47" viewBox="0 0 206 47" fill="none" xmlns="http://www.w3.org/2000/svg">
<path d="M23.0136 22.4746C18.9029 22.4791 16.3657 18.8731 17.237 14.4786C18.0956 10.1476 21.9833 6.51181 26.026 6.29675C30.1764 6.07628 32.9928 9.52447 32.2049 14.0656C31.4049 18.6761 27.2369 22.4696 23.0136 22.4746ZM38.5681 0L14.5156 1.6966C9.8886 18.8172 14.1043 26.5351 22.0671 26.6338C26.1697 26.6848 31.3999 24.471 34.9944 21.4169L38.5681 0Z" fill="#FF2D29"/>
<path d="M52.3792 14.4709L44.9376 6.67367C42.4428 24.0441 37.6415 33.3859 32.3743 37.1186L47.882 46.58L52.3792 14.4709ZM44.1348 5.83236L38.5681 0L34.9944 21.4169C38.6929 18.1626 41.7679 13.2468 44.1348 5.83236Z" fill="#C80011"/>
<path d="M22.0671 26.6338C14.1043 26.5351 9.8886 18.8172 14.5156 1.6966L13.111 1.79557C4.05257 18.1858 4.00617 29.7991 8.59395 36.0467L32.3743 37.1186L34.9944 21.4169C31.3999 24.471 26.1697 26.6848 22.0671 26.6338Z" fill="white"/>
<path d="M13.111 1.79557L7.33261 2.20317L0 35.6594L8.59395 36.0467C4.00617 29.7991 4.05257 18.1858 13.111 1.79557Z" fill="#FF2D29"/>
<path d="M44.9376 6.67367L44.1348 5.83236C41.7679 13.2468 38.6929 18.1626 34.9944 21.4169L32.3743 37.1186C37.6415 33.3859 42.4428 24.0441 44.9376 6.67367Z" fill="#E8E4E2"/>
<path d="M23.0136 22.4746C27.2369 22.4696 31.4049 18.6761 32.2049 14.0656C32.9928 9.52447 30.1764 6.07628 26.026 6.29675C21.9833 6.51181 18.0956 10.1476 17.237 14.4786C16.3657 18.8731 18.9029 22.4791 23.0136 22.4746Z" fill="white"/>
<path d="M47.882 46.58L18.7629 44.5172L0 35.6594L32.3743 37.1186L47.882 46.58Z" fill="#B30415"/>
<path fill-rule="evenodd" clip-rule="evenodd" d="M70.7815 34.1627C70.7815 39.5996 67.9723 41.9426 63.713 41.9426C59.1913 41.9426 57.3925 39.1581 57.3925 34.2508C57.3925 32.3945 57.5674 30.7154 57.7424 29.4778L62.1329 30.0074C61.9579 31.2901 61.8267 32.6158 61.8267 33.7653C61.8267 36.6378 62.309 37.3898 63.362 37.3898C64.3287 37.3898 64.8547 36.6379 64.8547 34.5602V33.632C64.8547 31.1129 64.1526 28.815 61.2985 25.3225C58.4455 21.8741 57.3039 19.0896 57.3039 15.1997V14.6701C57.3039 10.2494 59.0164 6.89019 64.0203 6.89019C68.8056 6.89019 70.2993 9.94005 70.2993 14.5809C70.2993 16.2611 70.167 17.4546 69.9909 18.7802L65.5578 18.2495C65.689 17.1012 65.7765 16.8358 65.7765 15.0675C65.7765 12.1058 65.3369 11.3989 64.4162 11.3989C63.4506 11.3989 63.1433 12.0617 63.1433 14.0502V14.7582C63.1433 16.7037 63.8891 18.6921 65.9526 21.3445C68.8493 25.1012 70.7815 29.1674 70.7815 33.4999V34.1627Z" fill="white"/>
<path fill-rule="evenodd" clip-rule="evenodd" d="M89.6587 41.5001H83.6006L80.835 27.5765L80.0007 29.7862V41.5001H74.1624V7.46504H80.0007V17.4987L83.5568 7.46504H89.1327L84.4786 19.8417L89.6587 41.5001Z" fill="white"/>
<path fill-rule="evenodd" clip-rule="evenodd" d="M98.5713 12.1503H97.7807V22.8908H98.5275C99.8441 22.8908 100.723 21.8305 100.723 17.2778C100.723 12.8582 99.8441 12.1503 98.5713 12.1503ZM100.678 41.5004C100.416 40.8817 100.283 40.1748 100.239 39.4668C100.151 36.5062 100.151 35.4007 100.108 33.2339C100.02 28.1515 99.3182 27.6208 98.615 27.6208H97.7807V41.5004H91.9424V7.46537H99.2307C103.927 7.46537 106.43 10.1607 106.43 16.3936C106.43 21.1226 106.035 23.6428 103.094 25.1017C105.64 26.7367 105.902 30.7147 105.902 32.8816V35.4448C105.902 38.6267 106.078 39.8643 106.474 41.5004H100.678Z" fill="white"/>
<path fill-rule="evenodd" clip-rule="evenodd" d="M117.143 31.9526L116.089 18.4265L114.728 31.9526H117.143ZM124.035 41.4116H118.152L117.713 36.6816H114.246L113.806 41.4116H108.933L113.28 7.4646H119.557L124.035 41.4116Z" fill="white"/>
<path fill-rule="evenodd" clip-rule="evenodd" d="M133.65 12.1503H133.036V24.571H133.694C135.011 24.571 135.889 23.2453 135.889 18.1619C135.889 13.4319 135.098 12.1503 133.65 12.1503ZM134.354 29.257H133.036V41.4124H127.198V7.46537H134.133C139.138 7.46537 141.597 10.1607 141.597 18.2059C141.597 26.6927 138.479 29.257 134.354 29.257Z" fill="white"/>
<path fill-rule="evenodd" clip-rule="evenodd" d="M157.797 34.1627C157.797 39.5996 154.987 41.9426 150.728 41.9426C146.206 41.9426 144.407 39.1581 144.407 34.2508C144.407 32.3945 144.582 30.7154 144.757 29.4778L149.148 30.0074C148.973 31.2901 148.842 32.6158 148.842 33.7653C148.842 36.6378 149.324 37.3898 150.377 37.3898C151.344 37.3898 151.87 36.6379 151.87 34.5602V33.632C151.87 31.1129 151.168 28.815 148.314 25.3225C145.461 21.8741 144.319 19.0896 144.319 15.1997V14.6701C144.319 10.2494 146.031 6.89019 151.035 6.89019C155.821 6.89019 157.314 9.94005 157.314 14.5809C157.314 16.2611 157.182 17.4546 157.006 18.7802L152.573 18.2495C152.704 17.1012 152.791 16.8358 152.791 15.0675C152.791 12.1058 152.352 11.3989 151.431 11.3989C150.466 11.3989 150.158 12.0617 150.158 14.0502V14.7582C150.158 16.7037 150.904 18.6921 152.968 21.3445C155.864 25.1012 157.797 29.1674 157.797 33.4999V34.1627Z" fill="white"/>
<path fill-rule="evenodd" clip-rule="evenodd" d="M167.631 12.1503H167.016V24.571H167.674C168.991 24.571 169.869 23.2453 169.869 18.1619C169.869 13.4319 169.079 12.1503 167.631 12.1503ZM168.334 29.257H167.016V41.4124H161.178V7.46537H168.113C173.118 7.46537 175.577 10.1607 175.577 18.2059C175.577 26.6927 172.46 29.257 168.334 29.257Z" fill="white"/>
<path fill-rule="evenodd" clip-rule="evenodd" d="M190.723 41.4119H178.87V7.46493H190.679V12.1498H184.708V21.5658H189.67V26.3388H184.708V36.727H190.723V41.4119Z" fill="white"/>
<path fill-rule="evenodd" clip-rule="evenodd" d="M206 41.5001H194.147V7.46504H199.986V36.682H206V41.5001Z" fill="white"/>
</svg>
