<svg width="60" height="60" viewBox="0 0 60 60" fill="none" xmlns="http://www.w3.org/2000/svg">
<g clip-path="url(#clip0_7068_9356)">
<rect width="60" height="60" fill="#377B8F"/>
<path fill-rule="evenodd" clip-rule="evenodd" d="M28.2626 28.4844C28.8602 27.1475 29.1609 25.7141 29.1609 24.195C29.1609 22.7259 28.8674 21.3211 28.2876 20.0164C27.7329 18.7689 26.9777 17.6537 26.04 16.6958C25.0737 15.7128 23.9249 14.9335 22.6257 14.3866C21.3194 13.8362 19.9236 13.5574 18.4706 13.5574C18.4706 13.5574 16.7348 13.5931 16.4878 13.6646C13.9826 13.9577 11.76 15.0015 9.87035 16.7637L9.49814 17.0961C8.92193 17.6072 8.57835 18.3293 8.53898 19.0978C8.50319 19.8663 8.77519 20.6169 9.3013 21.1817L11.0478 23.0583C11.1445 23.162 11.2482 23.2513 11.3556 23.3371C11.3878 23.3764 11.4165 23.4193 11.4487 23.4587L13.1487 25.2924C13.6712 25.8535 14.3655 26.1609 15.0741 26.2038C15.0741 26.261 15.0706 26.3218 15.0706 26.3826V31.9695C15.0706 33.5494 17.0318 35.1221 16.2874 34.4144C16.2266 34.3572 16.2266 34.2214 16.1621 34.1713L15.6539 33.8961C15.1278 33.4743 14.4943 33.2706 13.868 33.2706C13.095 33.2706 12.3291 33.5815 11.7672 34.1856L10.0672 36.0193C10.0278 36.0622 9.98845 36.1087 9.95266 36.1552C9.84172 36.2445 9.73793 36.341 9.6413 36.4447L7.9413 38.3213C7.42951 38.8861 7.16466 39.6331 7.20403 40.3945C7.24698 41.1558 7.59056 41.8707 8.15961 42.3747L8.54256 42.7143C9.95266 44.0118 11.5453 45.0163 13.2703 45.7061C15.0205 46.4067 16.86 46.7606 18.739 46.7606C20.3173 46.7606 21.8419 46.4496 23.2699 45.8348C24.6729 45.2307 25.9148 44.3979 26.9598 43.3541C28.0013 42.314 28.8352 41.0879 29.44 39.7046C30.0592 38.2891 30.3741 36.7521 30.3741 35.1436C30.3741 33.5315 30.052 31.9802 29.4186 30.5325C29.0965 29.8069 28.7135 29.1242 28.2626 28.4844Z" fill="#055A73"/>
<path fill-rule="evenodd" clip-rule="evenodd" d="M42.6214 19.4445H40.6208C40.5456 19.4445 40.4669 19.4516 40.3917 19.4552C40.3166 19.448 40.2414 19.4445 40.1627 19.4445H38.1978C36.6159 19.4445 35.3347 20.7241 35.3347 22.304V43.8509C35.3347 45.4309 36.6159 46.7105 38.1978 46.7105H40.1627C40.2378 46.7105 40.3166 46.7034 40.3917 46.6998C40.4669 46.7073 40.542 46.7105 40.6208 46.7105H42.6214C44.2033 46.7105 45.4846 45.4309 45.4846 43.8509V22.304C45.4846 20.7241 44.1997 19.4445 42.6214 19.4445Z" fill="#055A73"/>
<path fill-rule="evenodd" clip-rule="evenodd" d="M62.9789 27.4908C62.9789 27.6303 62.9607 27.7447 62.9181 27.8377C62.8644 27.9628 62.7924 28.07 62.6922 28.1666C62.6027 28.256 62.4989 28.3239 62.3704 28.3811C62.2555 28.4311 62.1484 28.4526 62.016 28.4526H61.1243V26.5327H62.016C62.1449 26.5327 62.2555 26.5541 62.3704 26.6042C62.4989 26.6578 62.6027 26.7257 62.6922 26.8187C62.7817 26.9081 62.8501 27.0118 62.9073 27.1405C62.9539 27.2513 62.9789 27.3586 62.9789 27.4908ZM98.9611 33.0954C98.9611 33.5991 98.8752 34.0498 98.6962 34.468C98.5173 34.8898 98.2739 35.2472 97.9586 35.5547C97.8874 35.6226 97.8158 35.6905 97.7407 35.7512V30.4146C97.8083 30.4718 97.8767 30.5325 97.9375 30.5969C98.2632 30.9221 98.5098 31.29 98.6927 31.7225C98.8752 32.141 98.9611 32.5914 98.9611 33.0954ZM108.037 27.7659C107.336 26.1288 106.352 24.6704 105.113 23.4372C103.875 22.2004 102.418 21.221 100.779 20.5169C99.1185 19.8055 97.3222 19.4445 95.4432 19.4445H90.4614C88.8795 19.4445 87.5982 20.7242 87.5982 22.3041V29.9356L84.9176 21.4427C84.5418 20.2524 83.4355 19.4445 82.1868 19.4445H78.9583C77.7092 19.4445 76.6033 20.2524 76.2279 21.4427L71.4035 36.6878H70.086C69.5567 36.6878 69.1305 36.5662 68.7336 36.2942C68.7801 36.2588 68.8266 36.2231 68.8764 36.1838C69.75 35.4975 70.5087 34.7 71.135 33.8064C71.7649 32.9095 72.2588 31.9155 72.6024 30.8542C72.9492 29.7783 73.1282 28.6452 73.1282 27.4871C73.1282 25.9787 72.8311 24.5274 72.2477 23.1691C71.6719 21.8287 70.8666 20.6455 69.8574 19.6518C68.8552 18.6689 67.6778 17.8825 66.35 17.3106C64.99 16.7244 63.5369 16.4312 62.0266 16.4312H53.8523C52.2704 16.4312 50.9891 17.7109 50.9891 19.2908V43.851C50.9891 45.4309 52.2704 46.7106 53.8523 46.7106H55.8171C55.8923 46.7106 55.9707 46.707 56.0462 46.6998C56.1214 46.707 56.1965 46.7106 56.2752 46.7106H58.2759C59.8574 46.7106 61.1387 45.4309 61.1387 43.851V43.0789C61.3574 43.3005 61.5793 43.515 61.8155 43.7187C61.8334 43.733 61.8512 43.7509 61.8688 43.7652C63.0033 44.7196 64.2814 45.4667 65.67 45.9885C67.0726 46.5175 68.565 46.7856 70.0971 46.7856H73.4077L74.1807 46.7928H74.2018C74.4237 46.7928 76.7823 46.7106 76.7823 46.7106C78.0349 46.7106 79.1408 45.8992 79.513 44.7085L79.8319 43.6969H81.31L81.6282 44.7085C82.0039 45.8992 83.1102 46.7106 84.3589 46.7106H95.4393C97.3183 46.7106 99.1152 46.3495 100.776 45.6382C102.415 44.9376 103.872 43.9546 105.11 42.7215C106.345 41.4883 107.329 40.0299 108.034 38.3928C108.746 36.7342 109.108 34.9506 109.108 33.099C109.108 31.2188 108.75 29.4244 108.037 27.7659Z" fill="#055A73"/>
<path fill-rule="evenodd" clip-rule="evenodd" d="M26.5839 28.6415C27.3463 27.2832 27.7328 25.7926 27.7328 24.1949C27.7328 22.9259 27.4823 21.7177 26.9848 20.5989C26.498 19.5087 25.8395 18.5329 25.0235 17.7C24.1932 16.8529 23.1983 16.1809 22.0745 15.7091C20.9471 15.2337 19.7374 14.9942 18.474 14.9942C18.474 14.9942 16.9387 15.0228 16.7884 15.0764C14.5336 15.3159 12.5366 16.2381 10.8401 17.8252L10.4536 18.1683C10.1673 18.4221 9.99194 18.7831 9.97404 19.1692C9.95615 19.5516 10.0921 19.9269 10.3534 20.2093L12.0999 22.0859C12.1751 22.1681 12.261 22.236 12.354 22.2968C12.397 22.3612 12.4471 22.4255 12.5008 22.4863L14.2008 24.32C14.4835 24.6238 14.8665 24.7775 15.253 24.7775C15.593 24.7775 15.933 24.6595 16.205 24.4165L16.6094 24.059C16.6309 24.0412 16.6524 24.0197 16.6703 24.0018C16.8027 23.8696 16.9924 23.7373 17.2357 23.6122C17.4004 23.5264 17.6223 23.4835 17.8943 23.4835H18.4776C18.7031 23.4835 18.8606 23.5479 19.0288 23.7087C19.1791 23.8553 19.2399 23.9911 19.2399 24.1984C19.2399 24.4165 19.1755 24.563 19.0109 24.7275C18.8463 24.8919 18.6959 24.9562 18.4812 24.9562H17.9336C17.1427 24.9562 16.502 25.596 16.502 26.386V31.9729C16.502 32.7629 17.1427 33.4027 17.9336 33.4027H18.7389C19.2256 33.4027 19.605 33.5635 19.9629 33.921C20.3244 34.282 20.4818 34.6573 20.4818 35.1434C20.4818 35.6296 20.3208 36.0085 19.9629 36.3659C19.6014 36.7269 19.2256 36.8842 18.7389 36.8842C17.4397 36.8842 16.3124 36.416 15.2959 35.4476C15.2673 35.4187 15.2351 35.3901 15.2029 35.3651L14.7555 35.0076C14.4907 34.7967 14.1757 34.6931 13.8608 34.6931C13.4743 34.6931 13.0913 34.8468 12.8086 35.1506L11.1086 36.9843C11.0549 37.0415 11.0084 37.1058 10.9654 37.1737C10.8688 37.2381 10.7757 37.3132 10.6934 37.4025L8.99341 39.2791C8.73573 39.5615 8.60331 39.9368 8.62478 40.3157C8.64625 40.6982 8.81804 41.052 9.10436 41.3058L9.49804 41.6561C10.7829 42.8393 12.2288 43.7543 13.7964 44.3799C15.3747 45.0126 17.0389 45.3307 18.7353 45.3307C20.1168 45.3307 21.4517 45.059 22.7008 44.5229C23.9355 43.9903 25.0271 43.2575 25.9433 42.3424C26.8559 41.4309 27.5896 40.3514 28.1229 39.1326C28.6633 37.8994 28.9353 36.5554 28.9353 35.1434C28.9353 33.728 28.6526 32.3697 28.0978 31.1079C27.7113 30.2143 27.2031 29.3886 26.5839 28.6415Z" fill="#377B8F"/>
<path fill-rule="evenodd" clip-rule="evenodd" d="M42.6212 20.8779H40.6206C40.5419 20.8779 40.4667 20.8886 40.3916 20.8994C40.3164 20.8886 40.2412 20.8779 40.1625 20.8779H38.1977C37.4067 20.8779 36.7661 21.5177 36.7661 22.3077V43.8546C36.7661 44.6445 37.4067 45.2844 38.1977 45.2844H40.1625C40.2412 45.2844 40.3164 45.2737 40.3916 45.2629C40.4667 45.2737 40.5419 45.2844 40.6206 45.2844H42.6212C43.4122 45.2844 44.0528 44.6445 44.0528 43.8546V22.3077C44.0528 21.5177 43.4122 20.8779 42.6212 20.8779Z" fill="#377B8F"/>
<path fill-rule="evenodd" clip-rule="evenodd" d="M64.4099 27.4907C64.4099 27.8302 64.3526 28.1305 64.2309 28.4093C64.1021 28.7024 63.9299 28.9526 63.7084 29.1778C63.4865 29.3994 63.2324 29.5674 62.9318 29.6961C62.6419 29.8212 62.3413 29.8784 62.0188 29.8784H59.6964V25.1029H62.0188C62.3413 25.1029 62.6419 25.1637 62.9318 25.2852C63.2324 25.4139 63.4865 25.5819 63.7084 25.8035C63.9299 26.0251 64.0985 26.2789 64.227 26.5792C64.349 26.8723 64.4099 27.169 64.4099 27.4907ZM100.393 33.0954C100.393 33.796 100.267 34.4251 100.016 35.0256C99.7623 35.6261 99.4187 36.1337 98.9646 36.5766C98.5064 37.0234 97.966 37.3883 97.3576 37.6564C97.0212 37.803 96.6772 37.9066 96.3126 37.971V28.2198C96.6812 28.2806 97.0316 28.3842 97.3719 28.5272C97.9768 28.7846 98.4954 29.1313 98.9538 29.5888C99.4119 30.0464 99.7591 30.5611 100.016 31.1688C100.271 31.7653 100.393 32.3984 100.393 33.0954ZM106.72 28.3306C106.09 26.8615 105.21 25.5533 104.1 24.4488C102.994 23.3442 101.684 22.4614 100.214 21.8322C98.7316 21.196 97.1246 20.8743 95.4389 20.8743H90.457C89.6661 20.8743 89.0254 21.5141 89.0254 22.3041V39.222L83.5464 21.8751C83.3564 21.2818 82.8052 20.8743 82.1825 20.8743H78.9546C78.3316 20.8743 77.7772 21.2782 77.5911 21.8716L72.4517 38.1175H70.0824C69.1662 38.1175 68.3824 37.853 67.6917 37.3058C67.3263 37.0166 66.9759 36.5197 66.7 35.9121C67.1509 35.6619 67.5804 35.3759 67.9848 35.0614C68.7475 34.4644 69.4096 33.7674 69.9572 32.9878C70.5044 32.2089 70.9339 31.3439 71.2345 30.4181C71.5351 29.4852 71.6894 28.4986 71.6894 27.4906C71.6894 26.1788 71.4317 24.917 70.9231 23.7374C70.4189 22.5686 69.7174 21.5356 68.8405 20.6741C67.9669 19.8162 66.9365 19.1264 65.7698 18.6259C64.5887 18.1184 63.3254 17.861 62.0119 17.861H53.8372C53.0466 17.861 52.4057 18.5008 52.4057 19.2908V43.851C52.4057 44.6409 53.0466 45.2808 53.8372 45.2808H55.8024C55.8808 45.2808 55.9563 45.2736 56.0315 45.2629C56.1066 45.2736 56.1818 45.2808 56.2602 45.2808H58.2612C59.0518 45.2808 59.6924 44.6409 59.6924 43.851V38.1962C59.8857 38.7431 60.1222 39.3007 60.4082 39.7936C61.0313 40.8659 61.8186 41.8278 62.7488 42.6499C62.7599 42.6571 62.7667 42.6642 62.7774 42.675C63.7871 43.5257 64.9248 44.1905 66.1599 44.6552C67.4014 45.1235 68.7224 45.3594 70.0824 45.3594H73.418C73.418 45.3594 73.7541 45.363 73.758 45.363C73.9227 45.363 74.409 45.363 74.8134 45.3483L76.7858 45.2843C77.4121 45.2843 77.9633 44.8804 78.1526 44.2835L78.7864 42.2711H82.3654L82.9985 44.2835C83.185 44.8804 83.7397 45.2843 84.366 45.2843H95.4464C97.1321 45.2843 98.7351 44.9623 100.221 44.3264C101.692 43.6969 102.998 42.8176 104.107 41.7099C105.213 40.6054 106.094 39.2971 106.727 37.8276C107.361 36.3482 107.686 34.754 107.686 33.0954C107.676 31.4154 107.353 29.8105 106.72 28.3306Z" fill="#377B8F"/>
<path fill-rule="evenodd" clip-rule="evenodd" d="M18.7388 38.3141C17.0675 38.3141 15.5929 37.7028 14.3081 36.4804L13.8607 36.1229L12.1607 37.9566L12.5652 38.357C13.4313 39.1612 14.3904 39.7725 15.4498 40.1907C16.5092 40.6089 17.6043 40.8162 18.7388 40.8162C19.5155 40.8162 20.2456 40.6661 20.9327 40.3694C21.6199 40.0727 22.2212 39.6688 22.7437 39.1612C23.2662 38.6536 23.6742 38.0531 23.9748 37.3525C24.2719 36.6519 24.4222 35.9156 24.4222 35.1399C24.4222 34.3643 24.2719 33.6351 23.9748 32.9488C23.6778 32.2625 23.2662 31.662 22.7437 31.1401C22.2212 30.6182 21.6163 30.2108 20.9327 29.9105C20.2456 29.6138 20.2313 29.4637 19.4546 29.4637H19.1862V28.8846C19.8412 28.8846 19.7588 28.8024 20.3064 28.5272C20.854 28.2484 21.3658 27.9553 21.7845 27.5227C22.2033 27.0902 22.5361 26.5934 22.7902 26.025C23.0443 25.4603 23.1696 24.849 23.1696 24.1913C23.1696 23.5336 23.0443 22.926 22.7902 22.3576C22.5361 21.7929 22.1997 21.2996 21.7845 20.8814C21.3658 20.4632 20.8755 20.1308 20.3064 19.877C19.7409 19.6232 19.1289 19.4981 18.4704 19.4981H17.8441C17.1283 19.5267 16.434 19.6768 15.7647 19.9449C15.0919 20.213 14.4763 20.599 13.9073 21.1066C13.9073 21.1066 13.6388 21.3604 13.5494 21.5105L15.2494 23.3442L15.6538 22.9868C15.8936 22.7473 16.1978 22.5328 16.57 22.3398C16.9422 22.1468 17.2679 22.0788 17.8906 22.0502H18.474C19.0717 22.0502 19.5835 22.2576 20.0165 22.6758C20.4496 23.094 20.6643 23.598 20.6643 24.1949C20.6643 24.7919 20.4496 25.303 20.0165 25.7355C19.5835 26.168 19.0681 26.3825 18.474 26.3825H17.9336V31.9694H18.7388C19.6049 31.9694 20.3494 32.2839 20.9757 32.9095C21.602 33.535 21.9169 34.2785 21.9169 35.1435C21.9169 36.0085 21.602 36.752 20.9757 37.3776C20.3494 37.9995 19.6049 38.3141 18.7388 38.3141Z" fill="white"/>
<path fill-rule="evenodd" clip-rule="evenodd" d="M12.3065 37.9537L12.639 38.2829C13.4907 39.0739 14.4503 39.6837 15.4885 40.0933C16.5275 40.504 17.6212 40.7117 18.7389 40.7117C19.4937 40.7117 20.2177 40.5645 20.8913 40.2735C21.5573 39.9861 22.1561 39.5865 22.6707 39.0864C23.1858 38.5863 23.5809 38.0058 23.8786 37.3113C24.17 36.6247 24.3178 35.894 24.3178 35.1402C24.3178 34.3863 24.17 33.6632 23.8786 32.9905C23.5909 32.3257 23.1843 31.728 22.6697 31.2144C22.164 30.7089 21.5652 30.3029 20.8906 30.0065C20.7059 29.9265 20.5688 29.8571 20.4529 29.7985C20.1419 29.6405 19.9998 29.5687 19.4547 29.5687H19.0818V28.7801H19.1863C19.6465 28.7801 19.7077 28.7444 19.9357 28.6114C20.0177 28.5635 20.1179 28.5053 20.2596 28.4341C20.8483 28.1342 21.3204 27.8519 21.7091 27.4504C22.1207 27.0254 22.4431 26.5454 22.6947 25.9828C22.9402 25.4362 23.0651 24.8339 23.0651 24.1916C23.0651 23.5439 22.9438 22.9577 22.6947 22.4004C22.4471 21.85 22.1157 21.3635 21.7102 20.9553C21.2993 20.5449 20.8262 20.2232 20.2639 19.9727C19.717 19.7271 19.1136 19.6027 18.4705 19.6027H17.8442C17.1499 19.6306 16.462 19.7786 15.8038 20.042C15.1399 20.3065 14.5426 20.6804 13.9771 21.1848C13.9191 21.2394 13.7703 21.3878 13.6833 21.5011L15.257 23.1983L15.5844 22.9087C15.8285 22.6649 16.1367 22.4469 16.5218 22.2471C16.904 22.0491 17.2354 21.9758 17.8857 21.9461L18.4741 21.9458C19.0957 21.9458 19.6394 22.1663 20.0893 22.6006C20.5402 23.0363 20.7693 23.5729 20.7693 24.1952C20.7693 24.8168 20.5409 25.3601 20.0907 25.8098C19.6405 26.2594 19.0965 26.4871 18.4741 26.4871H18.0385V31.8649H18.7389C19.6276 31.8649 20.4049 32.1916 21.0498 32.8357C21.6948 33.4795 22.0219 34.2562 22.0219 35.1438C22.0219 36.031 21.6948 36.8077 21.0498 37.4518C20.4038 38.0938 19.6261 38.4191 18.7389 38.4191C17.05 38.4191 15.535 37.7921 14.2362 36.5564L13.8715 36.2654L12.3065 37.9537ZM18.7386 40.921C17.5945 40.921 16.475 40.7079 15.4113 40.2879C14.3487 39.8683 13.367 39.2445 12.4937 38.4335L12.0152 37.9599L13.8498 35.9803L14.3734 36.3986C15.6389 37.6024 17.1052 38.2094 18.7386 38.2094C19.5686 38.2094 20.2962 37.9045 20.9018 37.3036C21.5059 36.6999 21.8122 35.9732 21.8122 35.1436C21.8122 34.3136 21.5059 33.5869 20.9014 32.9835C20.2973 32.3798 19.5697 32.0742 18.7386 32.0742H17.8289V26.2778H18.4738C19.0389 26.2778 19.5328 26.0705 19.9422 25.6616C20.3578 25.2469 20.5596 24.7669 20.5596 24.195C20.5596 23.6234 20.3581 23.1512 19.9437 22.7509C19.5282 22.3498 19.0472 22.1547 18.4738 22.1547H17.8904C17.2795 22.1829 16.9692 22.2505 16.6181 22.4327C16.257 22.6197 15.9574 22.8309 15.7277 23.0608L15.242 23.4904L13.4193 21.5245L13.4593 21.4573C13.5549 21.2961 13.8237 21.0416 13.8351 21.0305C14.4214 20.5075 15.0391 20.1211 15.7259 19.8477C16.4059 19.5753 17.1174 19.4223 17.8396 19.3934H18.4702C19.1431 19.3934 19.7755 19.5238 20.3492 19.7816C20.935 20.0429 21.4286 20.3785 21.8584 20.8074C22.2822 21.2342 22.6275 21.7411 22.8856 22.3148C23.1472 22.8999 23.2743 23.5137 23.2743 24.1914C23.2743 24.8634 23.1433 25.495 22.8856 26.068C22.624 26.6531 22.2882 27.1528 21.8595 27.5954C21.4504 28.0179 20.9619 28.3106 20.3538 28.6205C20.2168 28.6895 20.1201 28.7456 20.0414 28.7917C19.7984 28.9336 19.6964 28.9819 19.2909 28.9883V29.3594H19.4544C20.0496 29.3594 20.2264 29.4491 20.5471 29.6117C20.6602 29.6689 20.7937 29.7368 20.9741 29.8144C21.673 30.1214 22.2933 30.5425 22.8176 31.0658C23.3508 31.5988 23.7724 32.2179 24.0709 32.9074C24.3733 33.6062 24.5269 34.3572 24.5269 35.14C24.5269 35.9217 24.3733 36.6799 24.0713 37.3933C23.7664 38.1036 23.344 38.7234 22.8165 39.2363C22.2832 39.7543 21.6634 40.1675 20.9741 40.4652C20.2744 40.7676 19.5224 40.921 18.7386 40.921Z" fill="#377B8F"/>
<path fill-rule="evenodd" clip-rule="evenodd" d="M24.78 28.7953C25.7929 27.4263 26.3011 25.8893 26.3011 24.1914C26.3011 23.1191 26.0935 22.1147 25.6748 21.1746C25.256 20.2381 24.6977 19.4124 23.9963 18.6975C23.2948 17.9826 22.468 17.4249 21.5125 17.021C20.5569 16.6171 19.544 16.4169 18.4704 16.4169L17.2607 16.4634C15.1742 16.6135 13.3525 17.4178 11.8028 18.8762L11.3984 19.2336L13.1449 21.1102C13.2344 20.9923 13.5171 20.7385 13.5493 20.7063C14.8019 19.5446 16.2192 18.962 17.8011 18.962H18.4739C19.1897 18.962 19.8697 19.0978 20.5104 19.3659C21.151 19.634 21.7093 20.0057 22.1889 20.4847C22.6649 20.9601 23.0478 21.5213 23.3306 22.1611C23.6133 22.8009 23.7565 23.4801 23.7565 24.195C23.7565 25.3281 23.4415 26.3325 22.8152 27.2118C22.1889 28.0912 21.3693 28.7238 20.3529 29.1099C21.695 29.4673 22.8045 30.2037 23.6849 31.3225C24.5617 32.4374 25.0019 33.7102 25.0019 35.14C25.0019 36.005 24.8373 36.8161 24.508 37.5742C24.1788 38.3352 23.7314 38.9969 23.1659 39.5616C22.6005 40.1264 21.9348 40.5732 21.176 40.9021C20.4137 41.2309 19.6013 41.3953 18.7388 41.3953C17.547 41.3953 16.391 41.1701 15.2708 40.7233C14.1506 40.2765 13.1306 39.6224 12.2072 38.7574C12.1786 38.7288 12.1249 38.6823 12.0497 38.6215C11.9746 38.5608 11.8779 38.4714 11.7598 38.3535L10.0598 40.2336L10.4643 40.5911C11.6274 41.6634 12.9158 42.482 14.3331 43.0503C15.7504 43.6151 17.2177 43.901 18.7388 43.901C19.9306 43.901 21.0651 43.6687 22.1388 43.2076C23.2125 42.7465 24.143 42.1209 24.9339 41.331C25.7249 40.541 26.3512 39.6188 26.8129 38.5608C27.2746 37.5027 27.5072 36.3625 27.5072 35.1436C27.5072 33.9247 27.2674 32.7666 26.7914 31.6799C26.3154 30.5897 25.6426 29.6318 24.78 28.7953Z" fill="white"/>
<path fill-rule="evenodd" clip-rule="evenodd" d="M10.2086 40.2253L10.5339 40.513C11.6824 41.5718 12.9734 42.3921 14.3724 42.9533C15.776 43.5127 17.2455 43.7962 18.739 43.7962C19.9097 43.7962 21.0396 43.566 22.0975 43.1117C23.1522 42.6591 24.0817 42.0347 24.8601 41.2572C25.6389 40.4794 26.2638 39.5583 26.7172 38.5192C27.1721 37.4769 27.4026 36.3409 27.4026 35.1435C27.4026 33.9442 27.165 32.7929 26.6958 31.722C26.2319 30.6593 25.5627 29.6999 24.7073 28.8703L24.6418 28.8066L24.6958 28.7334C25.6919 27.3872 26.1965 25.8595 26.1965 24.1916C26.1965 23.1375 25.9889 22.1367 25.5795 21.217C25.1665 20.294 24.6089 19.4708 23.9217 18.7706C23.2346 18.0704 22.41 17.5138 21.4719 17.1174C20.5367 16.7221 19.5271 16.5216 18.4706 16.5216L17.2649 16.568C15.2138 16.7156 13.3993 17.5178 11.875 18.9522L11.5486 19.241L13.1426 20.9539C13.2196 20.8724 13.3252 20.7727 13.4315 20.6737L13.4755 20.6325C14.7464 19.4537 16.2009 18.8575 17.8014 18.8575H18.4742C19.1989 18.8575 19.8975 18.9958 20.5511 19.2696C21.2014 19.5416 21.7776 19.9255 22.2632 20.4106C22.7485 20.8956 23.1401 21.47 23.4268 22.1188C23.7152 22.7719 23.8612 23.4703 23.8612 24.1949C23.8612 25.3423 23.5384 26.3774 22.9006 27.2725C22.3234 28.0832 21.5736 28.6948 20.6695 29.093C21.9007 29.4811 22.9418 30.2085 23.7675 31.258C24.6561 32.3879 25.1067 33.6944 25.1067 35.1399C25.1067 36.0153 24.9378 36.8485 24.6046 37.6156C24.2721 38.3837 23.8133 39.0632 23.2403 39.6359C22.6698 40.2053 21.9894 40.6639 21.2178 40.9981C20.4458 41.3312 19.6119 41.4999 18.739 41.4999C17.5422 41.4999 16.3623 41.2715 15.2324 40.8204C14.105 40.3708 13.0632 39.7023 12.1359 38.8334C12.1062 38.8041 12.0554 38.7605 11.9841 38.7029C11.924 38.6543 11.8503 38.5878 11.7644 38.5049L10.2086 40.2253ZM18.7389 44.0056C17.2185 44.0056 15.7232 43.7168 14.2945 43.1473C12.8715 42.5769 11.5591 41.7426 10.3935 40.6677L9.91138 40.242L11.756 38.2017L11.834 38.2796C11.9489 38.3944 12.0437 38.4823 12.1157 38.5402C12.1948 38.6042 12.2513 38.6535 12.2814 38.6835C13.1872 39.5321 14.2068 40.1866 15.3095 40.6263C16.415 41.067 17.5689 41.2904 18.7389 41.2904C19.5831 41.2904 20.3891 41.1274 21.1346 40.8061C21.8815 40.4826 22.5404 40.039 23.0919 39.4878C23.6463 38.9341 24.0905 38.2764 24.4122 37.5326C24.734 36.7916 24.8972 35.9866 24.8972 35.1398C24.8972 33.7418 24.4616 32.4793 23.6026 31.387C22.7416 30.2928 21.6389 29.5608 20.3261 29.2108L20.0122 29.1272L20.3157 29.0121C21.306 28.6361 22.1185 28.0098 22.7301 27.1512C23.3417 26.2923 23.652 25.2979 23.652 24.1948C23.652 23.4996 23.5114 22.8294 23.2347 22.2035C22.9588 21.5783 22.5819 21.025 22.1149 20.5585C21.6485 20.0927 21.0949 19.7239 20.47 19.4622C19.8422 19.1995 19.1708 19.0665 18.474 19.0665H17.8012C16.2554 19.0665 14.8489 19.6438 13.6206 20.783L13.5741 20.8266C13.4903 20.9045 13.2942 21.0864 13.2284 21.1733L13.1532 21.2727L11.2488 19.2263L11.7334 18.7977C13.2913 17.3318 15.1492 16.5104 17.2532 16.3588L18.4665 16.3124C19.5552 16.3124 20.5928 16.5186 21.5533 16.9247C22.5172 17.3322 23.3643 17.9041 24.0711 18.6243C24.7758 19.3425 25.3474 20.186 25.7704 21.1318C26.192 22.0787 26.4057 23.1078 26.4057 24.1916C26.4057 25.8748 25.9053 27.4193 24.9179 28.7841C25.7618 29.6176 26.4243 30.5777 26.8874 31.6383C27.3681 32.7356 27.6118 33.9152 27.6118 35.1434C27.6118 36.3698 27.3756 37.5336 26.9089 38.6028C26.445 39.6658 25.8055 40.6084 25.0081 41.4051C24.2107 42.2015 23.2591 42.8403 22.1804 43.3035C21.096 43.7693 19.9382 44.0056 18.7389 44.0056Z" fill="#377B8F"/>
<path fill-rule="evenodd" clip-rule="evenodd" d="M38.2012 43.851H40.166V22.3041H38.2012V43.851Z" fill="white"/>
<path fill-rule="evenodd" clip-rule="evenodd" d="M38.306 43.7462H40.0614V22.4084H38.306V43.7462ZM38.0967 43.9557H40.2709V22.1993H38.0967V43.9557Z" fill="#377B8F"/>
<path fill-rule="evenodd" clip-rule="evenodd" d="M40.6209 43.851H42.6216V22.3041H40.6209V43.851Z" fill="white"/>
<path fill-rule="evenodd" clip-rule="evenodd" d="M40.7252 43.746H42.5164V22.4083H40.7252V43.746ZM40.516 43.9557H42.726V22.1993H40.516V43.9557Z" fill="#377B8F"/>
<path fill-rule="evenodd" clip-rule="evenodd" d="M62.0158 31.3083H58.2615V23.6733H62.0158C62.5312 23.6733 63.0218 23.773 63.4903 23.97C63.9592 24.1701 64.3671 24.4418 64.7179 24.7921C65.0686 25.1424 65.3442 25.5499 65.541 26.0181C65.7379 26.4864 65.8381 26.9757 65.8381 27.4908C65.8381 28.027 65.7379 28.5235 65.541 28.9814C65.3406 29.4353 65.0686 29.8392 64.7179 30.1895C64.3671 30.5398 63.9592 30.8147 63.4903 31.0117C63.0218 31.2083 62.5312 31.3083 62.0158 31.3083ZM66.139 31.5725C66.6647 31.0474 67.0799 30.4326 67.3841 29.732C67.6883 29.031 67.8422 28.2843 67.8422 27.4908C67.8422 26.6973 67.6883 25.9502 67.3841 25.2496C67.0799 24.549 66.6647 23.9342 66.139 23.4084C65.6125 22.8833 64.9934 22.4687 64.2812 22.1645C63.5689 21.861 62.8138 21.7105 62.0193 21.7105H56.2643V33.2704H62.0157C62.8102 33.2704 63.5654 33.1202 64.2776 32.8168C64.9934 32.5126 65.6125 32.0983 66.139 31.5725Z" fill="white"/>
<path fill-rule="evenodd" clip-rule="evenodd" d="M58.3659 31.2036H62.0154C62.5104 31.2036 62.9932 31.1067 63.4495 30.9151C63.9001 30.726 64.302 30.4569 64.6434 30.1155C64.9784 29.7813 65.2479 29.3856 65.4447 28.9392C65.6359 28.4952 65.7328 28.008 65.7328 27.4908C65.7328 26.9957 65.6355 26.5139 65.444 26.0585C65.2551 25.6088 64.9856 25.2074 64.6434 24.8661C64.3031 24.5254 63.9122 24.2638 63.4488 24.0661C62.9935 23.8749 62.5107 23.7776 62.0154 23.7776H58.3659V31.2036ZM62.0156 31.4131H58.1567V23.5685H62.0156C62.5388 23.5685 63.0488 23.6711 63.5309 23.8734C64.0126 24.0793 64.4371 24.3635 64.7917 24.7181C65.1532 25.0788 65.4377 25.5027 65.6371 25.9774C65.84 26.4589 65.9427 26.9679 65.9427 27.4908C65.9427 28.0366 65.8397 28.5517 65.6367 29.0225C65.4291 29.4936 65.1446 29.9107 64.7917 30.2635C64.4306 30.6238 64.0065 30.9084 63.5309 31.1078C63.0484 31.3105 62.5384 31.4131 62.0156 31.4131ZM56.3691 33.1656H62.0156C62.7962 33.1656 63.5435 33.0158 64.2364 32.7206C64.935 32.4239 65.5499 32.0128 66.0649 31.4985C66.5781 30.9859 66.99 30.3772 67.2882 29.6905C67.5866 29.0028 67.7377 28.2629 67.7377 27.4908C67.7377 26.7183 67.5866 25.9784 67.2882 25.291C66.99 24.604 66.5781 23.9953 66.0649 23.4824C65.5502 22.9687 64.9361 22.5576 64.24 22.2606C63.5467 21.965 62.7994 21.8152 62.0192 21.8152H56.3691V33.1656ZM62.0155 33.375H56.1596V21.6061H62.019C62.8279 21.6061 63.6027 21.7616 64.3225 22.0683C65.0429 22.3761 65.6792 22.8021 66.2129 23.3344C66.7447 23.8662 67.1713 24.4964 67.4802 25.2081C67.7897 25.9216 67.9472 26.6897 67.9472 27.4908C67.9472 28.2914 67.7897 29.0596 67.4802 29.7734C67.1717 30.4847 66.745 31.1149 66.2129 31.6464C65.6789 32.1794 65.0415 32.6058 64.3185 32.9129C63.5995 33.2196 62.8243 33.375 62.0155 33.375Z" fill="#377B8F"/>
<path fill-rule="evenodd" clip-rule="evenodd" d="M79.098 36.4588L80.5722 31.8338L82.0467 36.4588H79.098ZM76.3956 38.4212H84.7453L80.5722 25.2497L76.3956 38.4212Z" fill="white"/>
<path fill-rule="evenodd" clip-rule="evenodd" d="M79.2413 36.3551H81.9039L80.5726 32.1781L79.2413 36.3551ZM82.1899 36.5635H78.9545L80.5722 31.4892L82.1899 36.5635ZM76.5385 38.3166H84.6022L80.5723 25.5962L76.5385 38.3166ZM84.8883 38.5259H76.2527L80.5724 24.9029L84.8883 38.5259Z" fill="#377B8F"/>
<path fill-rule="evenodd" clip-rule="evenodd" d="M76.2562 38.8754L74.6778 43.851H76.7823L77.7307 40.8374H83.4105L84.3589 43.851H86.4637L84.885 38.8754H76.2562Z" fill="white"/>
<path fill-rule="evenodd" clip-rule="evenodd" d="M84.4358 43.7463H86.3208L84.8087 38.9801H76.3327L74.8209 43.7463H76.7052L77.654 40.7326H83.4877L84.4358 43.7463ZM86.6064 43.9558H84.2818L83.3338 40.9421H77.8075L76.8591 43.9558H74.5349L76.1798 38.7707H84.9618L86.6064 43.9558Z" fill="#377B8F"/>
<path fill-rule="evenodd" clip-rule="evenodd" d="M78.9583 22.3041L73.5004 39.5473H70.0825C68.8442 39.5473 67.7494 39.172 66.8042 38.4249C65.8561 37.6778 65.233 36.3517 64.9288 35.1578C65.7237 34.854 66.4499 34.4465 67.1048 33.9318C67.7598 33.4171 68.3217 32.8273 68.7869 32.1624C69.2561 31.4976 69.6172 30.7684 69.8749 29.9713C70.1326 29.1778 70.2614 28.3485 70.2614 27.4835C70.2614 26.3611 70.0471 25.2995 69.614 24.295C69.181 23.2906 68.5901 22.422 67.8421 21.6857C67.0944 20.9493 66.2172 20.3667 65.2115 19.9342C64.2059 19.5017 63.1433 19.2872 62.0191 19.2872H53.8448V43.8477H55.8097V21.2532H62.0191C62.8852 21.2532 63.6977 21.4176 64.4564 21.7429C65.2155 22.0681 65.8772 22.5149 66.4395 23.0726C67.001 23.6338 67.4448 24.2915 67.7705 25.0528C68.0998 25.8106 68.2608 26.622 68.2608 27.487C68.2608 28.2806 68.1216 29.0348 67.8389 29.7461C67.5561 30.4574 67.1728 31.0901 66.6825 31.637C66.1922 32.1875 65.6052 32.6414 64.9288 33.0024C64.2524 33.3635 63.5259 33.5922 62.7532 33.6852V33.8603C62.7532 34.8647 62.9461 36.1694 63.3326 37.0562C63.7191 37.9424 64.2456 38.7144 64.9109 39.3686C65.5766 40.0227 66.3532 40.5413 67.2447 40.927C68.132 41.3131 69.0804 41.5061 70.0861 41.5061H72.8816L72.7381 41.9601H70.0861C69.0088 41.9601 68.0067 41.7563 67.069 41.3456C66.1349 40.9378 65.3153 40.3801 64.6139 39.6795C63.9124 38.9789 63.3577 38.1604 62.95 37.2275C62.5417 36.2945 62.3341 34.9326 62.3341 33.8567V33.7173H56.2642V43.8438H58.2648V35.7226H60.5088C60.72 36.7735 61.0997 38.1286 61.6509 39.0755C62.202 40.0227 62.8852 40.8555 63.7012 41.5812C64.5892 42.3286 65.5766 42.9073 66.6646 43.3148C67.7526 43.7223 68.8907 43.9296 70.0861 43.9296H73.4217L74.2058 43.9371L80.5763 23.7803L86.925 43.8545H88.9937L82.1901 22.3076H78.9583V22.3041Z" fill="white"/>
<path fill-rule="evenodd" clip-rule="evenodd" d="M58.1602 35.6177H60.5946L60.6118 35.7017C60.7388 36.3354 61.1035 37.9271 61.7413 39.0223C62.2817 39.9517 62.9646 40.786 63.7709 41.5027C64.6449 42.2383 65.6316 42.8159 66.7013 43.217C67.779 43.6202 68.9181 43.8246 70.086 43.8246L74.1291 43.8314L80.5762 23.433L87.0015 43.7496H88.8507L82.1134 22.4122H79.0337L73.5769 39.6518H70.0827C68.8251 39.6518 67.6999 39.2665 66.7393 38.5066C65.5368 37.5593 65.0017 35.8668 64.8274 35.1834L64.8041 35.0933L64.8915 35.0597C65.6767 34.7602 66.3993 34.3527 67.0403 33.8497C67.687 33.3411 68.246 32.7531 68.7009 32.1022C69.1604 31.4509 69.5219 30.7231 69.7753 29.9389C70.0283 29.159 70.1568 28.3329 70.1568 27.4832C70.1568 26.3787 69.9417 25.3196 69.5176 24.3359C69.0932 23.3512 68.5044 22.4844 67.7689 21.7598C67.036 21.0381 66.1613 20.4562 65.1703 20.0301C64.185 19.6066 63.1249 19.3914 62.019 19.3914H53.9496V43.7424H55.705V21.1486H62.019C62.893 21.1486 63.7269 21.3159 64.4978 21.6469C65.2608 21.9736 65.9387 22.4282 66.5131 22.998C67.0839 23.5685 67.5392 24.2459 67.8667 25.0115C68.1977 25.7729 68.3659 26.6061 68.3659 27.4868C68.3659 28.2943 68.221 29.0675 67.9357 29.7845C67.6465 30.5126 67.2511 31.1592 66.7604 31.7068C66.2687 32.2591 65.6688 32.7259 64.9781 33.0941C64.3185 33.4469 63.6056 33.676 62.8579 33.7772V33.8601C62.8579 34.7112 63.0072 36.0477 63.4288 37.0139C63.8085 37.8857 64.3321 38.6527 64.9842 39.294C65.637 39.9349 66.4115 40.4521 67.2861 40.8307C68.1565 41.2096 69.0982 41.4012 70.086 41.4012H73.0239L72.8149 42.0646H70.086C69.0005 42.0646 67.9712 41.8548 67.027 41.4408C66.0868 41.0308 65.2504 40.4632 64.5397 39.7533C63.8335 39.0477 63.2663 38.212 62.8536 37.2691C62.4746 36.4019 62.2291 35.0622 62.2291 33.8565V33.8219H56.3689V43.7389H58.1602V35.6177ZM74.2822 44.0422L73.4207 44.0343H70.0859C68.8926 44.0343 67.7291 43.8252 66.6279 43.4127C65.5356 43.0035 64.5285 42.414 63.6337 41.6609C62.8084 40.9274 62.1116 40.0763 61.5601 39.1277C60.9517 38.0825 60.5916 36.6445 60.4231 35.8274H58.3695V43.9486H56.1595V33.6126H62.4387V33.8568C62.4387 35.036 62.6767 36.3424 63.0453 37.1857C63.4473 38.1043 63.9995 38.9186 64.6877 39.6056C65.3795 40.2969 66.1948 40.8498 67.111 41.2498C68.0287 41.6516 69.0297 41.8553 70.0859 41.8553H72.6613L72.7386 41.6108H70.0859C69.0691 41.6108 68.0992 41.4128 67.2027 41.0229C66.3043 40.6339 65.5084 40.1024 64.8373 39.4433C64.1659 38.7831 63.6273 37.9938 63.2365 37.0981C62.8023 36.1019 62.6481 34.7318 62.6481 33.8603V33.5922L62.7404 33.5815C63.4959 33.4907 64.2157 33.2648 64.8792 32.9102C65.5485 32.5535 66.1286 32.1017 66.6043 31.5677C67.0785 31.0383 67.4607 30.4128 67.7413 29.7075C68.0165 29.0151 68.1561 28.2681 68.1561 27.4871C68.1561 26.6353 67.9943 25.8303 67.6744 25.0943C67.3569 24.353 66.9167 23.6978 66.3652 23.1462C65.8097 22.5954 65.1537 22.1554 64.4154 21.839C63.6702 21.5198 62.8643 21.3576 62.0189 21.3576H55.9143V43.9521H53.7401V19.1828H62.0189C63.1534 19.1828 64.2414 19.4034 65.2525 19.838C66.2682 20.2748 67.164 20.8714 67.9156 21.611C68.6707 22.3548 69.2745 23.2438 69.7097 24.2536C70.1453 25.2637 70.3661 26.3504 70.3661 27.4835C70.3661 28.3549 70.234 29.2028 69.9745 30.0035C69.7144 30.8077 69.3439 31.5544 68.8726 32.2225C68.4055 32.8899 67.8326 33.4929 67.1694 34.014C66.5363 34.5112 65.8248 34.9173 65.0535 35.2215C65.2443 35.9328 65.7657 37.4734 66.8687 38.3427C67.7921 39.0726 68.8733 39.4426 70.0826 39.4426H73.4236L79.0629 21.6264V22.2033H82.2668L89.1366 43.9593H86.8482L86.825 43.886L80.5761 24.1274L74.2822 44.0422Z" fill="#377B8F"/>
<path fill-rule="evenodd" clip-rule="evenodd" d="M103.563 36.5126C103.109 37.5742 102.483 38.5035 101.688 39.2971C100.894 40.0906 99.9559 40.7233 98.8822 41.188C97.805 41.6562 96.6597 41.8886 95.4464 41.8886H92.4297V24.3022H95.4464C96.6636 24.3022 97.8085 24.5309 98.8822 24.9849C99.9598 25.4389 100.894 26.0644 101.688 26.8579C102.483 27.6514 103.109 28.588 103.563 29.6603C104.022 30.7362 104.247 31.88 104.247 33.0954C104.247 34.3107 104.018 35.4477 103.563 36.5126ZM105.404 28.8918C104.841 27.5836 104.072 26.4397 103.088 25.4568C102.107 24.4773 100.958 23.7053 99.6486 23.1441C98.3383 22.5829 96.9354 22.3041 95.4394 22.3041H90.4575V43.851H95.4394C96.9354 43.851 98.3383 43.5722 99.6486 43.011C100.958 42.4498 102.103 41.6813 103.088 40.6983C104.068 39.7189 104.841 38.5715 105.404 37.2632C105.965 35.955 106.244 34.5645 106.244 33.0954C106.244 31.6013 105.965 30.2001 105.404 28.8918Z" fill="white"/>
<path fill-rule="evenodd" clip-rule="evenodd" d="M92.5342 41.7838H95.4464C96.6421 41.7838 97.7838 41.5515 98.84 41.0918C99.8965 40.635 100.83 40.0059 101.614 39.2231C102.396 38.4417 103.02 37.5163 103.467 36.4715C103.915 35.4217 104.142 34.286 104.142 33.0954C104.142 31.8954 103.915 30.7534 103.467 29.7011C103.019 28.6441 102.396 27.7122 101.614 26.9319C100.83 26.1484 99.8968 25.5261 98.8414 25.0811C97.7827 24.6336 96.6403 24.4066 95.4464 24.4066H92.5342V41.7838ZM95.4464 41.9933H92.3245V24.1974H95.4464C96.6686 24.1974 97.8382 24.4301 98.923 24.8884C100.003 25.3438 100.958 25.9814 101.762 26.7839C102.563 27.5835 103.201 28.5376 103.66 29.6195C104.119 30.6976 104.352 31.8672 104.352 33.0954C104.352 34.3146 104.119 35.4777 103.66 36.5533C103.202 37.6224 102.563 38.5707 101.762 39.371C100.959 40.1728 100.004 40.8162 98.9237 41.2841C97.8407 41.7545 96.6708 41.9933 95.4464 41.9933ZM90.5619 43.746H95.4389C96.9167 43.746 98.3189 43.4665 99.607 42.9146C100.9 42.3609 102.046 41.5903 103.013 40.6241C103.98 39.6586 104.752 38.5137 105.307 37.2216C105.859 35.9355 106.139 34.5471 106.139 33.0952C106.139 31.6197 105.859 30.2192 105.307 28.9327C104.752 27.6409 103.98 26.496 103.013 25.5306C102.046 24.5647 100.9 23.7941 99.607 23.24C98.3186 22.6881 96.9163 22.4083 95.4389 22.4083H90.5619V43.746ZM95.439 43.9557H90.3523V22.1993H95.439C96.9451 22.1993 98.3749 22.4849 99.6894 23.0479C101.008 23.6127 102.176 24.398 103.161 25.3828C104.147 26.3675 104.934 27.5342 105.499 28.8507C106.063 30.1633 106.349 31.5913 106.349 33.0954C106.349 34.5756 106.063 35.9918 105.499 37.3043C104.934 38.6208 104.147 39.7875 103.161 40.7723C102.175 41.7574 101.007 42.5427 99.6894 43.1068C98.3752 43.6701 96.9451 43.9557 95.439 43.9557Z" fill="#377B8F"/>
<path fill-rule="evenodd" clip-rule="evenodd" d="M101.334 35.5834C101.005 36.3551 100.55 37.0235 99.9669 37.5994C99.3836 38.1709 98.7032 38.6288 97.9341 38.9648C97.161 39.304 96.3307 39.4724 95.4431 39.4724H94.8812V26.7187H95.4431C96.3307 26.7187 97.161 26.8831 97.9341 27.2084C98.7071 27.5372 99.3836 27.9912 99.9669 28.5738C100.55 29.1565 101.008 29.8353 101.334 30.6041C101.66 31.3758 101.824 32.2055 101.824 33.0916C101.824 33.982 101.663 34.8113 101.334 35.5834ZM101.37 27.1759C100.622 26.4292 99.7339 25.8322 98.7032 25.3886C97.6728 24.9458 96.588 24.7241 95.4431 24.7241H92.8842V41.4348H95.4431C96.588 41.4348 97.676 41.2132 98.7032 40.7699C99.7339 40.3267 100.622 39.7298 101.37 38.9827C102.117 38.2356 102.715 37.3524 103.159 36.3372C103.603 35.3224 103.825 34.2429 103.825 33.0955C103.825 31.9517 103.603 30.8651 103.159 29.8353C102.715 28.8098 102.117 27.9233 101.37 27.1759Z" fill="white"/>
<path fill-rule="evenodd" clip-rule="evenodd" d="M94.9859 39.3675H95.443C96.3141 39.3675 97.138 39.1999 97.8921 38.8689C98.6465 38.5397 99.3193 38.0872 99.8934 37.5246C100.465 36.9609 100.917 36.2935 101.238 35.5425C101.558 34.7922 101.719 33.968 101.719 33.0915C101.719 32.2261 101.557 31.4029 101.238 30.6448C100.919 29.8923 100.466 29.2203 99.8927 28.6477C99.3226 28.0783 98.6497 27.6265 97.8931 27.3044C97.134 26.9849 96.3094 26.823 95.443 26.823H94.9859V39.3675ZM95.443 39.577H94.7763V26.6139H95.443C96.3377 26.6139 97.1895 26.7815 97.9748 27.1118C98.7568 27.4446 99.4518 27.9114 100.041 28.4998C100.634 29.0917 101.101 29.7859 101.431 30.5633C101.762 31.3475 101.929 32.1979 101.929 33.0915C101.929 33.9962 101.761 34.848 101.431 35.624C101.099 36.4008 100.631 37.0903 100.041 37.6736C99.4482 38.2545 98.7535 38.7206 97.9758 39.0605C97.1956 39.4033 96.3431 39.577 95.443 39.577ZM92.9892 41.33H95.4433C96.5699 41.33 97.6529 41.1094 98.6622 40.6737C99.6722 40.2394 100.558 39.6453 101.296 38.9086C102.032 38.1734 102.627 37.2941 103.064 36.2954C103.499 35.2984 103.72 34.2218 103.72 33.0955C103.72 31.9713 103.499 30.8883 103.063 29.8767C102.628 28.8701 102.033 27.9865 101.296 27.2502C100.558 26.5131 99.6722 25.919 98.6622 25.4847C97.6493 25.0494 96.5664 24.8285 95.4433 24.8285H92.9892V41.33ZM95.443 41.5394H92.7792V24.6193H95.443C96.5947 24.6193 97.7056 24.846 98.7446 25.2928C99.7793 25.7378 100.687 26.3462 101.444 27.1022C102.199 27.8571 102.809 28.7629 103.255 29.7937C103.702 30.8318 103.93 31.9431 103.93 33.0955C103.93 34.2508 103.702 35.3553 103.255 36.3793C102.808 37.402 102.198 38.3028 101.444 39.0566C100.687 39.8123 99.7793 40.421 98.7446 40.8657C97.7092 41.3125 96.5983 41.5394 95.443 41.5394Z" fill="#377B8F"/>
</g>
<defs>
<clipPath id="clip0_7068_9356">
<rect width="60" height="60" fill="white"/>
</clipPath>
</defs>
</svg>
