<svg width="173" height="48" viewBox="0 0 173 48" fill="none" xmlns="http://www.w3.org/2000/svg">
<path d="M54.0209 14.912L46.346 6.87712C43.773 24.7771 38.8213 34.4037 33.3891 38.2502L49.3827 48L54.0209 14.912ZM45.5181 6.01063L39.777 0L36.0912 22.0698C39.9056 18.7167 43.0766 13.6506 45.5181 6.01063Z" fill="#C80011"/>
<path d="M23.735 23.1593C19.4954 23.1639 16.8787 19.448 17.7773 14.9199C18.6628 10.4565 22.6724 6.70986 26.8418 6.48871C31.1222 6.26105 34.0269 9.81437 33.2143 14.4939C32.3887 19.245 28.0906 23.1546 23.735 23.1593ZM39.777 0L14.9706 1.74832C10.1986 19.3909 14.5464 27.3435 22.7588 27.4453C26.99 27.4978 32.3841 25.217 36.0912 22.0698L39.777 0Z" fill="#FF2D29"/>
<path d="M22.7588 27.4453C14.5464 27.3435 10.1986 19.3909 14.9706 1.74832L13.5216 1.85079C4.17924 18.7407 4.13185 30.7076 8.86341 37.1461L33.3891 38.2502L36.0912 22.0698C32.3841 25.217 26.99 27.4978 22.7588 27.4453Z" fill="white"/>
<path d="M13.5216 1.85079L7.56242 2.27055L0 36.7472L8.86341 37.1461C4.13185 30.7076 4.17924 18.7407 13.5216 1.85079Z" fill="#FF2D29"/>
<path d="M46.346 6.87712L45.5181 6.01063C43.0766 13.6506 39.9056 18.7167 36.0912 22.0698L33.3891 38.2502C38.8213 34.4037 43.773 24.7771 46.346 6.87712Z" fill="#E8E4E2"/>
<path d="M23.735 23.1593C28.0906 23.1546 32.3887 19.245 33.2143 14.4939C34.0269 9.81437 31.1222 6.26105 26.8418 6.48871C22.6724 6.70986 18.6628 10.4565 17.7773 14.9199C16.8787 19.448 19.4954 23.1639 23.735 23.1593Z" fill="white"/>
<path d="M122.219 10.5624C122.219 9.44038 122.248 8.43079 123.115 7.51412H110.663C111.53 8.43079 111.481 9.44038 111.481 10.5624L111.48 40.0343C111.48 41.1577 111.49 42.1673 110.623 43.084H123.075C122.209 42.1673 122.219 41.1577 122.219 40.0343L122.219 10.5624ZM146.01 7.31991V18.7158C145.19 17.2161 142.51 14.6649 139.404 14.5051C137.827 14.4238 136.568 15.359 136.564 16.4053C136.557 18.2665 138.012 19.0578 141.763 21.6651C144.817 23.7898 148.273 26.4655 148.273 32.2154C148.273 40.0659 142.023 44.4049 134.41 43.9695C131.794 43.8195 130.808 43.2378 128.55 43.0766C127.107 42.973 126.195 43.1286 125.199 43.465V29.5444C127.494 31.9929 131.391 35.0937 135.105 35.0937C136.47 35.0937 138.209 33.9967 138.209 32.5462C138.209 30.2455 134.556 28.1459 131.388 26.1467C128.166 24.1959 125.199 22.067 125.199 17.066C125.199 9.81532 130.486 6.36979 137.689 6.72057C139.817 6.82371 143.097 7.59217 143.915 7.61679C144.795 7.64328 144.899 7.6679 146.01 7.31991ZM170.392 7.31991V18.7158C169.572 17.2161 166.891 14.6649 163.785 14.5051C162.208 14.4238 160.949 15.359 160.945 16.4053C160.937 18.2665 162.393 19.0578 166.143 21.6651C169.198 23.7898 172.655 26.4655 172.655 32.2154C172.655 40.0659 166.405 44.4049 158.791 43.9695C156.176 43.8195 155.19 43.2378 152.931 43.0766C151.489 42.973 150.576 43.1286 149.58 43.465V29.5444C151.875 31.9929 155.772 35.0937 159.486 35.0937C160.852 35.0937 162.59 33.9967 162.59 32.5462C162.59 30.2455 158.938 28.1459 155.77 26.1467C152.548 24.1959 149.58 22.067 149.58 17.066C149.58 9.81532 154.868 6.36979 162.071 6.72057C164.198 6.82371 167.479 7.59217 168.297 7.61679C169.177 7.64328 169.28 7.6679 170.392 7.31991ZM90.3662 23.1087V16.5233H95.9229C98.0387 16.5233 98.8741 18.0421 98.8741 19.79C98.8741 21.5457 97.9727 23.1087 95.8481 23.1087H90.3662ZM79.6974 7.52016C80.3409 8.20127 80.5253 8.84568 80.5541 9.68848V40.0334C80.5541 41.155 80.5653 42.165 79.6979 43.0831H91.8664C91.0162 42.1822 90.7156 40.8832 90.7156 39.7816L90.402 31.7722L90.3852 31.2802C90.3852 31.2802 90.7346 31.2746 90.9548 31.2746H92.5196C92.5196 31.2746 93.0363 31.2235 93.3099 32.149C93.3099 32.149 95.2218 37.7433 96.3982 41.4667C96.7662 42.7806 96.0479 43.0845 96.0479 43.0845H109.118C109.118 43.0845 107.769 42.5242 106.939 40.2847L102.886 30.554C102.886 30.554 109.655 27.417 108.4 18.1048C108.4 18.1048 107.122 7.51597 96.781 7.51737L79.6974 7.52016ZM49.9147 7.52062H77.8064V17.0251C76.7959 16.5405 76.2584 16.6279 74.9816 16.6279H69.2029V40.0353C69.2029 41.1587 69.076 42.2324 69.9286 43.0849H57.767C58.6047 42.2468 58.5178 41.1587 58.5178 40.0353V16.6279H52.424C51.1491 16.6279 50.9303 16.5405 49.9147 17.0251V7.52062Z" fill="black"/>
<path d="M49.3827 48L19.3509 45.8743L0 36.7472L33.3891 38.2502L49.3827 48Z" fill="#B30415"/>
</svg>
