<svg width="134" height="55" viewBox="0 0 134 55" fill="none" xmlns="http://www.w3.org/2000/svg">
<path d="M41.7692 11.5301L35.835 5.31742C33.8455 19.1577 30.0168 26.6011 25.8166 29.5753L38.183 37.1138L41.7692 11.5301ZM35.1948 4.64745L30.7557 0L27.9059 17.0645C30.8552 14.4719 33.307 10.5547 35.1948 4.64745Z" fill="#C80011"/>
<path d="M18.352 17.9069C15.0739 17.9105 13.0507 15.0373 13.7455 11.5362C14.4302 8.08498 17.5304 5.1881 20.7542 5.0171C24.0639 4.84108 26.3098 7.58852 25.6815 11.2068C25.0431 14.8803 21.7198 17.9033 18.352 17.9069ZM30.7557 0L11.5753 1.35181C7.88562 14.9931 11.2474 21.1422 17.5972 21.2208C20.8688 21.2614 25.0396 19.4979 27.9059 17.0645L30.7557 0Z" fill="#FF2D29"/>
<path d="M17.5972 21.2208C11.2474 21.1422 7.88562 14.9931 11.5753 1.35181L10.4549 1.43104C3.23141 14.4904 3.19477 23.7432 6.85323 28.7216L25.8166 29.5753L27.9059 17.0645C25.0396 19.4979 20.8688 21.2614 17.5972 21.2208Z" fill="white"/>
<path d="M10.4549 1.43104L5.8473 1.7556L0 28.4131L6.85323 28.7216C3.19477 23.7432 3.23141 14.4904 10.4549 1.43104Z" fill="#FF2D29"/>
<path d="M35.835 5.31742L35.1948 4.64745C33.307 10.5547 30.8552 14.4719 27.9059 17.0645L25.8166 29.5753C30.0168 26.6011 33.8455 19.1577 35.835 5.31742Z" fill="#E8E4E2"/>
<path d="M18.352 17.9069C21.7198 17.9033 25.0431 14.8803 25.6815 11.2068C26.3098 7.58852 24.0639 4.84108 20.7542 5.0171C17.5304 5.1881 14.4302 8.08498 13.7455 11.5362C13.0507 15.0373 15.0739 17.9105 18.352 17.9069Z" fill="white"/>
<path d="M23.6285 47.1344C23.7836 47.157 23.9518 47.171 24.1591 47.171C25.0514 47.171 26.2024 46.9526 26.2024 45.3882C26.2024 43.7314 24.805 43.6674 24.2349 43.6674C23.9518 43.6674 23.7836 43.6904 23.6285 43.7177V47.1344ZM21.8689 43.255C21.8689 43.0068 21.893 42.9285 22.074 42.8645C22.3611 42.7603 23.4582 42.6608 24.3394 42.6608C25.1419 42.6608 28.0004 42.6608 28.0004 45.3759C28.0004 47.3794 26.3457 48.197 24.3782 48.197C24.1052 48.197 23.9661 48.183 23.6285 48.1597V51.6267C23.6285 51.8691 23.5383 51.8964 23.3439 51.8964H22.1531C21.9077 51.8835 21.8689 51.8217 21.8689 51.6127V43.255ZM28.8162 42.2427C28.8162 42.0394 28.8805 41.997 29.1126 41.997H30.1371C30.3562 41.997 30.4206 42.0128 30.4206 42.2427V51.6267C30.4206 51.8577 30.3426 51.8964 30.1371 51.8964H29.1126C28.8945 51.8964 28.8162 51.8839 28.8162 51.6267V42.2427ZM35.4538 44.235C34.9247 44.235 34.5996 43.874 34.5996 43.4468C34.5996 42.9414 35.013 42.6278 35.466 42.6278C35.8942 42.6278 36.2826 42.9285 36.2962 43.4088C36.3095 43.8219 36.0369 44.235 35.4538 44.235ZM34.4131 45.9816C33.5333 45.9816 33.0566 47.0439 33.0566 48.3475C33.0566 49.8021 33.6749 50.9912 34.5313 50.9912C35.3579 50.9912 35.9402 49.8793 35.8756 48.3907C35.812 46.8485 35.1768 45.9816 34.4131 45.9816ZM33.0071 44.235C32.5038 44.235 32.17 43.8883 32.17 43.4343C32.17 42.9414 32.5832 42.6278 33.0344 42.6278C33.4744 42.6278 33.8505 42.9414 33.8638 43.4088C33.8771 43.809 33.6045 44.235 33.0071 44.235ZM34.4656 52.0664C32.5634 52.0664 31.3844 50.5367 31.3844 48.543C31.3844 46.5233 32.6026 45.0268 34.4911 45.0268C36.5991 45.0268 37.5191 46.9027 37.5564 48.4657C37.5963 50.3697 36.482 52.0664 34.4656 52.0664ZM40.2687 45.9073V49.9041C40.2687 50.2792 40.2795 51.1051 41.1499 51.1453C41.4696 51.1453 41.7153 51.1453 41.7153 51.4815C41.7153 51.8433 40.9907 52.0502 40.4745 52.0502C39.7762 52.0502 39.3224 51.7937 39.0652 51.4815C38.7046 51.0411 38.6902 50.5737 38.6902 50.1613V45.9073H38.0687C37.8359 45.9073 37.8359 45.8552 37.8359 45.4004C37.8359 45.247 37.8869 45.1924 38.0551 45.1924H38.6902V44.4692C38.6902 44.221 38.7279 44.1578 38.9233 44.0144L39.853 43.4231C39.9974 43.3322 40.0359 43.3182 40.088 43.3182C40.255 43.3182 40.2687 43.5273 40.2687 43.6814V45.1924H41.2508C41.392 45.1924 41.4976 45.1924 41.4976 45.3759C41.4976 45.8552 41.4976 45.9073 41.2756 45.9073H40.2687ZM45.2082 48.0393C45.8034 48.3274 46.7353 48.7901 46.7353 50.0338C46.7353 50.7595 46.3322 52.0664 44.406 52.0664C42.6217 52.0664 41.9984 51.0163 41.9984 50.4969C41.9984 50.1103 42.2836 49.8021 42.659 49.8021C43.0215 49.8021 43.2033 50.0568 43.384 50.3061C43.6954 50.7458 43.9268 51.0821 44.4444 51.0821C44.9118 51.0821 45.2606 50.7595 45.2606 50.2792C45.2606 49.8384 44.9747 49.5934 44.8464 49.4763C44.6647 49.3484 43.8754 48.9723 43.5528 48.8178C43.1638 48.6364 42.1281 48.1284 42.1281 46.9264C42.1281 46.0089 42.737 45.0268 44.3823 45.0268C45.9457 45.0268 46.5298 45.8929 46.5298 46.4087C46.5298 46.7712 46.2701 47.0439 45.9062 47.0439C45.5063 47.0439 45.3375 46.7622 45.1956 46.5118C45.0648 46.2676 44.8464 45.8771 44.3155 45.8771C43.786 45.8771 43.5395 46.32 43.5395 46.6581C43.5395 47.3022 44.1075 47.5479 44.5626 47.7429L45.2082 48.0393ZM47.6585 42.2427C47.6585 42.0394 47.7239 41.997 47.9563 41.997H48.9769C49.1971 41.997 49.2636 42.0128 49.2636 42.2427V51.6267C49.2636 51.8577 49.1835 51.8964 48.9769 51.8964H47.9563C47.7358 51.8964 47.6585 51.8839 47.6585 51.6267V42.2427ZM52.1307 51.6127C52.1307 51.8221 52.1034 51.8964 51.8458 51.8964H50.7192C50.5123 51.8964 50.5001 51.8332 50.5001 51.6267V45.4668C50.5001 45.2825 50.5245 45.1924 50.7455 45.1924H51.8458C52.0894 45.1924 52.117 45.2595 52.1307 45.4808V51.6127ZM51.3166 44.2619C50.7713 44.2619 50.4344 43.9372 50.4344 43.4864C50.4344 43.0326 50.7455 42.6691 51.3166 42.6691C51.8709 42.6691 52.1415 43.0326 52.1555 43.4468C52.1688 43.9264 51.8185 44.2619 51.3166 44.2619ZM55.5873 45.8688C55.0843 45.8688 54.5792 46.2324 54.5792 47.0439C54.5792 47.9646 55.1105 48.65 55.7572 48.65C56.4038 48.65 56.7149 48.1284 56.7149 47.4843C56.7149 47.3298 56.702 47.1887 56.6761 47.0295C56.5464 46.3448 56.1455 45.8688 55.5873 45.8688ZM54.7862 52.0391C54.4363 52.3746 54.216 52.6059 54.216 52.9946C54.216 53.6686 54.9665 53.994 55.8991 53.994C56.8176 53.994 57.8278 53.5256 57.8278 52.8517C57.8278 52.2708 57.2045 52.2075 56.9473 52.1659C56.6344 52.1303 55.1231 52.0753 54.7862 52.0502V52.0391ZM57.8149 46.177C57.9816 46.4716 58.1619 46.7622 58.1619 47.406C58.1619 48.9723 56.8446 49.6164 55.7187 49.6164C55.3925 49.6164 55.1231 49.5668 54.9665 49.5391C54.7222 49.8255 54.5925 49.9796 54.5925 50.1879C54.5925 50.5518 55.0175 50.6014 55.8606 50.642L57.0382 50.6919C57.6723 50.7458 59.2755 50.8726 59.2755 52.3638C59.2755 53.2694 58.3972 54.9999 55.3688 54.9999C54.1916 54.9999 52.8315 54.6392 52.8315 53.4868C52.8315 52.7378 53.5328 52.1795 54.049 51.8688C53.725 51.7671 53.1448 51.5724 53.1448 50.9114C53.1448 50.3194 53.8274 49.7116 54.3073 49.3214C54.0231 49.1537 53.7131 48.9838 53.4149 48.4136C53.2343 48.0393 53.157 47.6377 53.157 47.2925C53.157 46.0089 54.0616 45.0268 55.6286 45.0268C56.198 45.0268 56.5716 45.1572 56.7907 45.2333C57.0896 45.3368 57.2706 45.4004 57.5548 45.4004C57.7477 45.4004 58.732 45.2049 58.7859 45.2049C58.8617 45.1924 58.9005 45.247 58.9145 45.2825C58.9271 45.3235 59.0165 45.7003 59.0165 45.7506C59.0165 45.8412 58.9666 45.8688 58.8229 45.9073L57.8149 46.177ZM61.4755 45.9073V49.9041C61.4755 50.2792 61.4888 51.1051 62.3549 51.1453C62.6797 51.1453 62.925 51.1453 62.925 51.4815C62.925 51.8433 62.1994 52.0502 61.6835 52.0502C60.9837 52.0502 60.5322 51.7937 60.2721 51.4815C59.9103 51.0411 59.8977 50.5737 59.8977 50.1613V45.9073H59.2755C59.0431 45.9073 59.0431 45.8552 59.0431 45.4004C59.0431 45.247 59.0952 45.1924 59.2619 45.1924H59.8977V44.4692C59.8977 44.221 59.9347 44.1578 60.1294 44.0144L61.062 43.4231C61.2014 43.3322 61.2427 43.3182 61.2952 43.3182C61.4619 43.3182 61.4755 43.5273 61.4755 43.6814V45.1924H62.4577C62.6003 45.1924 62.7037 45.1924 62.7037 45.3759C62.7037 45.8552 62.7037 45.9073 62.485 45.9073H61.4755ZM70.2294 47.5238C70.2294 47.171 70.2294 46.8761 70.0591 46.6035C69.8906 46.3304 69.5795 46.1505 69.2163 46.1505C68.6617 46.1505 68.2482 46.5233 68.1049 46.6581V51.585C68.1049 51.7937 68.0679 51.8964 67.8344 51.8964H66.7595C66.553 51.8964 66.4887 51.858 66.4887 51.5976V42.2563C66.4887 42.0882 66.5393 41.9973 66.7595 41.9973H67.8344C68.0409 41.9973 68.1049 42.025 68.1049 42.2427V45.7632C68.365 45.5283 68.9347 45.0268 69.9549 45.0268C70.3339 45.0268 71.0301 45.0789 71.4946 45.7779C71.8431 46.2949 71.8575 46.8344 71.8575 47.1976V51.585C71.8575 51.8332 71.8161 51.8964 71.5852 51.8964H70.538C70.2657 51.8964 70.2294 51.8691 70.2294 51.6127V47.5238ZM76.6569 44.235C76.1255 44.235 75.799 43.874 75.799 43.4468C75.799 42.9414 76.2125 42.6278 76.6662 42.6278C77.0923 42.6278 77.4824 42.9285 77.4939 43.4088C77.5047 43.8219 77.2352 44.235 76.6569 44.235ZM76.1873 48.5042C75.1772 48.8178 74.3118 49.0854 74.3118 50.0568C74.3118 50.7052 74.6979 51.1726 75.3844 51.1726C76.1733 51.1726 76.1873 50.6014 76.1873 50.3194V48.5042ZM74.2065 44.235C73.7021 44.235 73.3677 43.8883 73.3677 43.4343C73.3677 42.9414 73.7822 42.6278 74.2342 42.6278C74.6742 42.6278 75.0511 42.9414 75.064 43.4088C75.0733 43.809 74.8025 44.235 74.2065 44.235ZM77.7145 50.5245C77.7008 51.0953 77.648 51.4054 77.1469 51.6762C76.4711 52.0502 75.4771 52.0664 75.2443 52.0664C74.8301 52.0664 72.7318 52.0664 72.7318 50.2425C72.7318 49.9544 72.7839 49.4098 73.3005 48.922C73.871 48.3644 74.7152 48.1428 76.1873 47.7555V47.0981C76.1873 46.6175 76.1733 45.9191 75.397 45.9191C74.7773 45.9191 74.5966 46.3937 74.4921 46.6257C74.3743 46.9523 74.259 47.2749 73.7711 47.2749C73.3817 47.2749 73.0674 47.0029 73.0674 46.5898C73.0674 45.8056 74.0793 45.0268 75.6449 45.0268C77.7281 45.0268 77.7145 46.3304 77.7145 47.2928V50.5245ZM84.162 51.6267C84.162 51.858 84.0809 51.8964 83.8768 51.8964H82.8422C82.5836 51.8964 82.5563 51.7937 82.5563 51.5976V47.2253C82.5563 46.7073 82.5433 45.9073 81.4441 45.9073C80.4069 45.9073 80.4069 46.6936 80.4069 46.9939V51.585C80.4069 51.8433 80.3416 51.8964 80.0976 51.8964H79.076C78.8723 51.8964 78.8037 51.8433 78.8037 51.6267V46.5118C78.8037 45.9971 78.831 45.7003 79.4122 45.4266C80.0976 45.1162 80.8506 45.0268 81.5992 45.0268C82.8921 45.0268 83.3459 45.3519 83.5664 45.5283C84.1487 46.0089 84.162 46.6175 84.162 47.0662V51.6267ZM89.1066 46.2184C88.937 46.0862 88.6784 45.8929 88.2649 45.8929C87.2583 45.8929 86.6724 47.0572 86.6724 48.4388C86.6724 50.0694 87.346 51.016 88.304 51.016C89.1066 51.016 89.1066 50.4494 89.1066 50.0471V46.2184ZM90.7109 50.5644C90.7109 50.8981 90.684 51.2358 90.2967 51.5236C89.8588 51.8433 88.9262 52.0664 88.0978 52.0664C86.1691 52.0664 85.0573 50.8331 85.0573 48.7273C85.0573 46.9174 86.0261 45.0099 87.9304 45.0099C88.5239 45.0099 88.8486 45.2053 89.1066 45.3619V42.2933C89.1066 42.0979 89.145 41.984 89.4044 41.984H90.4005C90.6481 41.984 90.7109 42.0394 90.7109 42.27V50.5644ZM95.3587 47.3022C95.3081 46.4716 94.8008 45.9974 94.2329 45.9974C93.3395 45.9974 92.94 46.8122 92.8717 47.7002L95.3587 47.3022ZM92.94 48.5045C93.1602 50.2932 94.101 50.642 94.7258 50.642C95.4083 50.642 95.9263 50.2285 96.2637 49.7884C96.4709 49.4885 96.5381 49.4098 96.7034 49.4098C96.8747 49.4098 97.0389 49.5528 97.0389 49.8154C97.0389 50.175 96.5101 52.0664 94.4775 52.0664C92.7719 52.0664 91.5781 50.8227 91.5781 48.5318C91.5781 45.9565 93.0941 45.0268 94.4775 45.0268C96.4961 45.0268 96.9789 46.8344 96.9789 47.457C96.9789 47.91 96.6793 47.9517 96.5252 47.9739L92.94 48.5045ZM99.5586 51.6267C99.5453 51.8329 99.5065 51.8964 99.2877 51.8964H98.2272C98.007 51.8964 97.9406 51.8433 97.9406 51.6267V46.2184C97.9406 45.8139 97.9923 45.6457 98.3171 45.4808C98.7557 45.2333 99.6879 45.0268 100.686 45.0268C101.485 45.0268 102.238 45.2333 102.238 45.9971C102.238 46.3854 101.965 46.6936 101.55 46.6936C101.202 46.6936 101.085 46.4996 100.891 46.2036C100.777 46.0452 100.631 45.8412 100.245 45.8412C99.5715 45.8412 99.5586 46.2949 99.5586 46.6175V51.6267ZM108.777 46.2184C108.61 46.0862 108.348 45.8929 107.933 45.8929C106.924 45.8929 106.342 47.0572 106.342 48.4388C106.342 50.0694 107.016 51.016 107.974 51.016C108.777 51.016 108.777 50.4494 108.777 50.0471V46.2184ZM110.381 50.5644C110.381 50.8981 110.357 51.2358 109.965 51.5236C109.525 51.8433 108.595 52.0664 107.767 52.0664C105.839 52.0664 104.724 50.8331 104.724 48.7273C104.724 46.9174 105.695 45.0099 107.598 45.0099C108.197 45.0099 108.518 45.2053 108.777 45.3619V42.2933C108.777 42.0979 108.815 41.984 109.071 41.984H110.07C110.315 41.984 110.381 42.0394 110.381 42.27V50.5644ZM115.055 47.3022C115.004 46.4716 114.5 45.9974 113.928 45.9974C113.038 45.9974 112.637 46.8122 112.572 47.7002L115.055 47.3022ZM112.637 48.5045C112.857 50.2932 113.8 50.642 114.423 50.642C115.107 50.642 115.625 50.2285 115.96 49.7884C116.167 49.4885 116.234 49.4098 116.401 49.4098C116.569 49.4098 116.737 49.5528 116.737 49.8154C116.737 50.175 116.206 52.0664 114.176 52.0664C112.467 52.0664 111.278 50.8227 111.278 48.5318C111.278 45.9565 112.79 45.0268 114.176 45.0268C116.195 45.0268 116.673 46.8344 116.673 47.457C116.673 47.91 116.374 47.9517 116.219 47.9739L112.637 48.5045ZM119.507 45.9073V49.9041C119.507 50.2792 119.519 51.1051 120.384 51.1453C120.71 51.1453 120.957 51.1453 120.957 51.4815C120.957 51.8433 120.23 52.0502 119.713 52.0502C119.015 52.0502 118.561 51.7937 118.302 51.4815C117.939 51.0411 117.93 50.5737 117.93 50.1613V45.9073H117.308C117.075 45.9073 117.075 45.8552 117.075 45.4004C117.075 45.247 117.127 45.1924 117.293 45.1924H117.93V44.4692C117.93 44.221 117.966 44.1578 118.162 44.0144L119.091 43.4231C119.236 43.3322 119.273 43.3182 119.323 43.3182C119.493 43.3182 119.507 43.5273 119.507 43.6814V45.1924H120.488C120.632 45.1924 120.733 45.1924 120.733 45.3759C120.733 45.8552 120.733 45.9073 120.516 45.9073H119.507ZM94.5005 8.1669C94.5005 7.29935 94.5231 6.51873 95.1935 5.80995H85.5656C86.2359 6.51873 86.1978 7.29935 86.1978 8.1669L86.1971 30.9547C86.1971 31.8234 86.2047 32.604 85.534 33.3128H95.1626C94.4923 32.604 94.5002 31.8234 94.5002 30.9547L94.5005 8.1669ZM112.896 5.65979V14.4712C112.262 13.3115 110.189 11.339 107.788 11.2154C106.569 11.1525 105.595 11.8757 105.592 12.6847C105.586 14.1238 106.711 14.7356 109.612 16.7516C111.973 18.3944 114.646 20.4632 114.646 24.9091C114.646 30.9792 109.813 34.3341 103.926 33.9975C101.904 33.8814 101.142 33.4317 99.3955 33.307C98.28 33.2269 97.5745 33.3473 96.8043 33.6073V22.8439C98.5789 24.7371 101.592 27.1346 104.464 27.1346C105.519 27.1346 106.864 26.2865 106.864 25.1649C106.864 23.386 104.039 21.7626 101.59 20.2168C99.0987 18.7084 96.8043 17.0623 96.8043 13.1955C96.8043 7.58925 100.892 4.92515 106.462 5.19637C108.107 5.27613 110.644 5.8703 111.276 5.88934C111.956 5.90982 112.037 5.92886 112.896 5.65979ZM131.748 5.65979V14.4712C131.114 13.3115 129.041 11.339 126.64 11.2154C125.42 11.1525 124.447 11.8757 124.443 12.6847C124.438 14.1238 125.563 14.7356 128.463 16.7516C130.825 18.3944 133.497 20.4632 133.497 24.9091C133.497 30.9792 128.665 34.3341 122.778 33.9975C120.756 33.8814 119.994 33.4317 118.247 33.307C117.132 33.2269 116.426 33.3473 115.656 33.6073V22.8439C117.43 24.7371 120.444 27.1346 123.315 27.1346C124.371 27.1346 125.716 26.2865 125.716 25.1649C125.716 23.386 122.891 21.7626 120.442 20.2168C117.951 18.7084 115.656 17.0623 115.656 13.1955C115.656 7.58925 119.744 4.92515 125.314 5.19637C126.959 5.27613 129.495 5.8703 130.128 5.88934C130.808 5.90982 130.888 5.92886 131.748 5.65979ZM69.8716 17.8677V12.7759H74.1681C75.804 12.7759 76.4499 13.9503 76.4499 15.3017C76.4499 16.6593 75.753 17.8677 74.1102 17.8677H69.8716ZM61.6224 5.81462C62.12 6.34126 62.2626 6.83952 62.2849 7.49118V30.954C62.2849 31.8212 62.2935 32.6022 61.6228 33.312H71.0316C70.3742 32.6155 70.1417 31.6111 70.1417 30.7593L69.8993 24.5664L69.8863 24.186C69.8863 24.186 70.1565 24.1817 70.3267 24.1817H71.5367C71.5367 24.1817 71.9361 24.1422 72.1477 24.8578C72.1477 24.8578 73.626 29.1833 74.5356 32.0623C74.8201 33.0782 74.2647 33.3131 74.2647 33.3131H84.3704C84.3704 33.3131 83.3272 32.8799 82.6859 31.1484L79.5516 23.6245C79.5516 23.6245 84.786 21.1989 83.8157 13.9988C83.8157 13.9988 82.8271 5.81139 74.8316 5.81247L61.6224 5.81462ZM38.5943 5.81498H60.1603V13.1639C59.379 12.7892 58.9634 12.8567 57.9762 12.8567H53.508V30.9555C53.508 31.8241 53.4099 32.6543 54.0691 33.3135H44.6657C45.3134 32.6654 45.2463 31.8241 45.2463 30.9555V12.8567H40.5345C39.5488 12.8567 39.3796 12.7892 38.5943 13.1639V5.81498Z" fill="white"/>
<path d="M38.183 37.1138L14.9622 35.4702L0 28.4131L25.8166 29.5753L38.183 37.1138Z" fill="#B30415"/>
</svg>
