<svg width="60" height="60" viewBox="0 0 60 60" fill="none" xmlns="http://www.w3.org/2000/svg">
<g clip-path="url(#clip0_7068_9437)">
<path d="M0 0H60V60H0V0Z" fill="#0000FF"/>
<path d="M18.5994 36.9456L14.0397 23.5638H7.2002L14.9319 43.5869H22.1679L29.8004 23.5638H23.2087L18.5994 36.9456Z" fill="white"/>
<path d="M54.8788 23.5639L48.8322 31.8407V14.2462C48.8322 14.1471 48.7331 14.0975 48.6835 14.0975H42.7361V43.6365H48.8322V34.2692L54.8788 43.6365H62.3626L54.9779 32.9806L62.3626 23.5143L54.8788 23.5639Z" fill="white"/>
<path d="M32.2788 23.5638V43.5869H38.5732V23.5638H32.2788Z" fill="white"/>
<path d="M35.401 13.8002C34.3602 13.8002 33.4185 14.1471 32.7246 14.7914C31.9812 15.4853 31.6343 16.3774 31.6343 17.4678C31.6343 18.5581 32.0308 19.4502 32.7246 20.1441C33.4185 20.7884 34.3602 21.1353 35.401 21.1353C36.4418 21.1353 37.3835 20.7884 38.0773 20.1441C38.7712 19.4998 39.1677 18.5581 39.1677 17.4678C39.1677 16.3774 38.7712 15.4853 38.0773 14.7914C37.3835 14.1967 36.4418 13.8002 35.401 13.8002Z" fill="white"/>
</g>
<defs>
<clipPath id="clip0_7068_9437">
<rect width="60" height="60" fill="white"/>
</clipPath>
</defs>
</svg>
