<svg width="247" height="48" viewBox="0 0 247 48" fill="none" xmlns="http://www.w3.org/2000/svg">
<path d="M13.6779 27.9991L8.18299 11.793H0L9.30797 36.0609H17.981L27.1665 11.793H19.2285L13.6816 27.9991H13.6779ZM103.728 16.281C103.275 15.1384 102.696 14.2168 101.957 13.4638C101.207 12.6958 100.301 12.1002 99.2652 11.6919C98.2293 11.2835 97.1006 11.0775 95.9199 11.0775C94.3049 11.0775 92.9348 11.3659 91.7356 11.9653C90.5549 12.5535 89.5785 13.4938 88.8359 14.7637L88.6243 15.1271V11.793H81.4549V36.0609H88.8137V22.9417C88.8137 22.2149 88.9362 21.5032 89.1738 20.8326C89.3669 20.2856 89.675 19.7874 90.0946 19.3454C90.4696 18.952 90.9002 18.656 91.3792 18.4687C91.8693 18.2777 92.3742 18.1877 92.9311 18.1877C94.1675 18.1877 95.1105 18.5811 95.816 19.3866C96.4917 20.1583 96.8184 21.2821 96.8184 22.818V36.0646H104.367V20.0496C104.367 18.5999 104.159 17.3711 103.728 16.2885M140.243 36.0571H147.791V0.307168H140.243V36.0571ZM57.2141 11.793L50.0076 21.8216V0.516977C50.0076 0.400845 49.9147 0.307168 49.7997 0.307168H42.6488V36.0571H50.0076V24.6986L57.2661 36.0571H66.277L57.3849 23.2339L66.277 11.7893H57.2178L57.2141 11.793ZM128.017 11.793V14.1643C128.017 14.1643 125.715 11.0775 120.758 11.0775C117.424 11.0775 114.335 12.31 112.056 14.5465C110.894 15.689 109.984 17.0489 109.357 18.5924C108.692 20.222 108.354 22.0164 108.354 23.9269C108.354 25.8375 108.699 27.6394 109.383 29.2615C110.036 30.8087 110.979 32.1685 112.189 33.3074C114.573 35.5439 117.87 36.7764 121.468 36.7764C125.065 36.7764 128.344 35.5289 130.746 33.2587C131.956 32.1161 132.899 30.7525 133.556 29.2091C134.24 27.5945 134.585 25.8188 134.585 23.9307C134.585 23.8857 134.585 13.0368 134.585 11.7968H128.013L128.017 11.793ZM125.381 27.9916C124.393 29.0817 123.005 29.6811 121.471 29.6811C119.938 29.6811 118.546 29.0817 117.562 27.9916C116.604 26.9351 116.077 25.4929 116.077 23.9232C116.077 22.3535 116.604 20.9113 117.562 19.8548C118.549 18.7647 119.938 18.1653 121.471 18.1653C123.005 18.1653 124.393 18.7647 125.381 19.8548C126.339 20.9113 126.866 22.3573 126.866 23.9232C126.866 25.4891 126.339 26.9351 125.381 27.9916ZM174.004 14.5952C171.605 12.325 168.308 11.0775 164.725 11.0775C161.128 11.0775 157.831 12.31 155.447 14.5465C154.237 15.6816 153.29 17.0452 152.637 18.5886C151.953 20.2107 151.604 22.0051 151.604 23.9232C151.604 25.8412 151.95 27.6357 152.633 29.2578C153.286 30.805 154.229 32.1648 155.44 33.3037C157.823 35.5402 161.12 36.7726 164.718 36.7726C168.301 36.7726 171.594 35.5252 173.996 33.255C175.207 32.1124 176.153 30.7488 176.807 29.2053C177.49 27.5907 177.839 25.8113 177.839 23.9269C177.839 22.0389 177.494 20.2631 176.81 18.6485C176.157 17.1051 175.214 15.7415 174.004 14.5989M168.635 27.9916C167.647 29.0817 166.259 29.6811 164.725 29.6811C163.188 29.6811 161.8 29.0817 160.816 27.9916C159.858 26.9351 159.334 25.4891 159.334 23.9232C159.334 22.3573 159.862 20.9113 160.82 19.8548C161.807 18.7647 163.196 18.1653 164.729 18.1653C166.262 18.1653 167.651 18.7647 168.639 19.8548C169.597 20.9113 170.124 22.3573 170.124 23.9232C170.124 25.4891 169.597 26.9351 168.639 27.9916M245.56 18.6448C244.907 17.1014 243.964 15.7378 242.753 14.5952C240.355 12.325 237.058 11.0775 233.475 11.0775C229.877 11.0775 226.58 12.31 224.197 14.5465C222.986 15.6816 222.04 17.0452 221.386 18.5886C220.703 20.2107 220.354 22.0051 220.354 23.9232C220.354 25.8412 220.699 27.6357 221.383 29.2578C222.036 30.805 222.979 32.1648 224.189 33.3037C226.573 35.5402 229.866 36.7726 233.468 36.7726C237.05 36.7726 240.347 35.5252 242.746 33.255C243.956 32.1124 244.903 30.7488 245.557 29.2053C246.24 27.5907 246.589 25.8113 246.589 23.9269C246.589 22.0389 246.243 20.2631 245.56 18.6485M237.381 27.9916C236.393 29.0817 235.005 29.6811 233.471 29.6811C231.934 29.6811 230.546 29.0817 229.562 27.9916C228.604 26.9351 228.08 25.4891 228.08 23.9232C228.08 22.3573 228.608 20.9113 229.565 19.8548C230.553 18.7647 231.942 18.1653 233.475 18.1653C235.008 18.1653 236.397 18.7647 237.385 19.8548C238.343 20.9113 238.87 22.3573 238.87 23.9232C238.87 25.4891 238.343 26.9351 237.385 27.9916M68.9948 36.0571H76.5429V11.7893H68.9948V36.0571ZM72.715 0C71.4749 0 70.3388 0.423298 69.5183 1.19501C68.6532 2.00419 68.1965 3.12056 68.1965 4.42423C68.1965 5.72791 68.6532 6.84053 69.5183 7.65345C70.3388 8.42517 71.4749 8.84851 72.715 8.84851C73.9551 8.84851 75.0875 8.41771 75.9117 7.6385C76.7619 6.83307 77.2335 5.6942 77.2335 4.42798C77.2335 3.16177 76.7656 2.0192 75.9117 1.21376C75.0838 0.434555 73.9514 0.00374985 72.715 0.00374985M30.1441 36.0571H37.6922V11.7893H30.1441V36.0571ZM33.8755 0C32.6354 0 31.4993 0.423298 30.6788 1.19501C29.8137 2.00419 29.357 3.12056 29.357 4.42423C29.357 5.72791 29.8137 6.84053 30.6788 7.65345C31.4993 8.42517 32.6354 8.84851 33.8755 8.84851C35.1156 8.84851 36.248 8.41771 37.0722 7.6385C37.9224 6.83307 38.394 5.6942 38.394 4.42798C38.394 3.16177 37.9262 2.0192 37.0722 1.21376C36.2443 0.434555 35.1119 0.00374985 33.8755 0.00374985M210.731 28.4373C210.24 27.8117 210.003 26.8715 210.003 25.5715V18.4275H217.369V11.7668H210.003V4.49543H202.455V11.7668H190.689V4.49543H183.141V11.7668H179.202V18.4275H183.141V28.0627C183.141 30.2168 183.869 32.3409 185.142 33.8956C186.675 35.7649 188.918 36.7502 191.636 36.7502C194.22 36.7502 196.143 36.0197 197.305 35.4015C198.404 34.8209 199.046 34.229 199.195 34.0866V27.9654C198.601 28.34 196.615 29.4601 194.004 29.4601C192.801 29.4601 191.955 29.1229 191.417 28.4336C190.926 27.808 190.689 26.8677 190.689 25.5678V18.4238H202.455V28.0553C202.455 30.2093 203.182 32.3371 204.456 33.8881C205.989 35.7574 208.232 36.7427 210.946 36.7427C213.53 36.7427 215.457 36.0084 216.615 35.394C217.714 34.8096 218.357 34.2215 218.505 34.0791V27.9579C217.911 28.3325 215.917 29.4526 213.315 29.4526C212.112 29.4526 211.265 29.1154 210.727 28.4261M133.181 37.106C133.085 37.0611 132.94 37.0536 132.832 37.1735C131.808 38.2674 127.976 41.83 121.702 41.83C115.427 41.83 111.595 38.2674 110.571 37.1735C110.504 37.1023 110.426 37.0761 110.352 37.0761C110.303 37.0761 110.259 37.0873 110.218 37.106C110.121 37.151 110.029 37.2522 110.043 37.4132C110.344 40.2903 111.688 42.9576 113.834 44.9206C115.999 46.9061 118.791 48 121.702 48C124.612 48 127.404 46.9061 129.569 44.9206C131.711 42.9538 133.055 40.2903 133.36 37.4132C133.375 37.2522 133.282 37.151 133.185 37.106" fill="#0000FF"/>
</svg>
