<svg width="153" height="48" viewBox="0 0 153 48" fill="none" xmlns="http://www.w3.org/2000/svg">
<path d="M11.626 1.52752L6.50228 1.87406L0 30.3295L7.62111 30.6583C3.55283 25.3454 3.59374 15.4676 11.626 1.52752Z" fill="#FF2D29"/>
<path d="M42.4612 39.6173L16.6382 37.864L0 30.3295L28.709 31.5703L42.4612 39.6173Z" fill="#B30415"/>
<path d="M46.4497 12.3075L39.8503 5.67616C37.6382 20.4497 33.3797 28.3955 28.709 31.5703L42.4612 39.6173L46.4497 12.3075Z" fill="#C80011"/>
<path d="M39.1385 4.96051L34.2019 0L31.0326 18.2154C34.3124 15.448 37.0389 11.2669 39.1385 4.96051Z" fill="#C80011"/>
<path d="M39.8503 5.67616L39.1385 4.96051C37.0389 11.2669 34.3124 15.448 31.0326 18.2154L28.709 31.5703C33.3797 28.3955 37.6382 20.4497 39.8503 5.67616Z" fill="#E8E4E2"/>
<path d="M34.2019 0L12.8726 1.44309C8.76959 16.0046 12.5075 22.5692 19.5692 22.6526C23.208 22.6958 27.8449 20.8129 31.0326 18.2154L34.2019 0ZM20.4078 19.1156C16.7619 19.1195 14.512 16.0527 15.2852 12.3144C16.0471 8.63008 19.4946 5.53774 23.0791 5.35515C26.7598 5.16764 29.2572 8.09997 28.5587 11.9629C27.8489 15.8848 24.154 19.1107 20.4078 19.1156Z" fill="#FF2D29"/>
<path d="M20.4078 19.1156C24.154 19.1107 27.8489 15.8848 28.5587 11.9629C29.2572 8.09997 26.7598 5.16764 23.0791 5.35515C19.4946 5.53774 16.0471 8.63008 15.2852 12.3144C14.512 16.0527 16.7619 19.1195 20.4078 19.1156Z" fill="white"/>
<path d="M19.5692 22.6526C12.5075 22.5692 8.76959 16.0046 12.8726 1.44309L11.626 1.52752C3.59374 15.4676 3.55283 25.3454 7.62111 30.6583L28.709 31.5703L31.0326 18.2154C27.8449 20.8129 23.208 22.6958 19.5692 22.6526Z" fill="white"/>
<path d="M148.719 13.8399C145.904 11.0205 142.105 9.46747 138.025 9.46747C133.944 9.46747 130.16 11.0225 127.352 13.8468C126.97 14.2297 126.615 14.6312 126.282 15.0484C125.936 14.6135 125.564 14.1973 125.166 13.8017C122.353 11.0068 118.518 9.46747 114.367 9.46747C110.216 9.46747 106.352 11.0019 103.525 13.7889C103.277 14.0333 103.039 14.2866 102.811 14.5458C100.395 11.3739 96.4573 9.46747 91.666 9.46747C88.4701 9.46747 85.5033 10.3834 83.1347 12.0729C83.2902 11.478 83.373 10.8556 83.373 10.2145C83.373 6.00503 79.8059 2.5799 75.4205 2.5799C71.0352 2.5799 67.4671 6.00503 67.4671 10.2145C67.4671 11.0421 67.6072 11.8392 67.8618 12.5863C65.4145 10.8772 62.463 9.95636 59.3285 9.95636H58.4244V3.22095H43.6874V24.1801C43.6874 28.1923 45.2204 31.913 48.0052 34.6578C50.8248 37.437 54.665 38.9674 58.8192 38.9674C62.2503 38.9674 65.4564 37.9357 68.052 36.0272V38.5168H100.094C100.786 40.4949 101.869 42.2659 103.32 43.7218C106.068 46.4803 109.949 48 114.25 48C118.552 48 122.491 46.4695 125.258 43.6904C127.259 41.6818 128.594 39.0744 129.157 36.1549C131.696 37.9808 134.774 38.9674 138.026 38.9674C142.099 38.9674 145.892 37.4271 148.707 34.6303C151.475 31.8786 153 28.1943 153 24.2548C153 20.3152 151.479 16.6044 148.719 13.8399Z" fill="white"/>
<path d="M125.166 13.8017C122.353 11.0068 118.518 9.46747 114.367 9.46747C110.216 9.46747 106.352 11.0019 103.525 13.7889C100.734 16.5406 99.1961 20.272 99.1961 24.294V33.0566C99.1961 37.2337 100.63 41.0211 103.32 43.7218C106.068 46.4803 109.949 48 114.25 48C118.552 48 122.491 46.4695 125.258 43.6904C127.967 40.9701 129.458 37.1562 129.458 32.9496V24.294C129.458 20.2789 127.934 16.5514 125.166 13.8017Z" fill="url(#paint0_linear_6943_132463)"/>
<path d="M68.052 38.5168L68.051 13.0899C67.6736 12.2025 67.4671 11.2306 67.4671 10.2145C67.4671 6.00503 71.0352 2.5799 75.4205 2.5799C79.8059 2.5799 83.373 6.00503 83.373 10.2145C83.373 11.2306 83.1644 12.2015 82.787 13.0889V38.5168H68.05H68.052Z" fill="url(#paint1_linear_6943_132463)"/>
<path d="M138.026 38.9674C133.992 38.9674 130.227 37.4507 127.424 34.697C124.628 31.9493 123.089 28.2414 123.089 24.2557C123.089 20.2701 124.603 16.6103 127.352 13.8468C130.16 11.0235 133.951 9.46747 138.025 9.46747C142.098 9.46747 145.904 11.0205 148.719 13.8399C151.479 16.6044 153 20.3024 153 24.2548C153 28.2071 151.475 31.8786 148.707 34.6303C145.892 37.4271 142.099 38.9674 138.026 38.9674Z" fill="url(#paint2_linear_6943_132463)"/>
<path d="M58.8171 38.9674C54.6629 38.9674 50.8227 37.437 48.0032 34.6578C45.2194 31.913 43.6854 28.1923 43.6854 24.1801V3.22095H58.4224V9.95734H59.3264C63.3569 9.95734 67.0856 11.479 69.8264 14.2424C72.4844 16.9225 73.9489 20.5047 73.9489 24.3323C73.9489 28.1599 72.4547 31.8511 69.7415 34.5743C66.9179 37.4085 63.0378 38.9694 58.8171 38.9694V38.9674Z" fill="#0C68AE"/>
<path d="M77.7881 38.5168V22.7125C77.7881 19.0174 79.1943 15.6453 81.7469 13.2156C84.2873 10.7987 87.8115 9.46747 91.666 9.46747C99.7668 9.46747 105.423 14.9139 105.423 22.7125V38.5168H77.7881Z" fill="url(#paint3_linear_6943_132463)"/>
<path d="M83.1347 12.0729C82.6459 12.4214 82.1816 12.8023 81.7469 13.2156C79.1943 15.6453 77.7881 19.0174 77.7881 22.7125V38.5168L82.787 38.5168V13.0889C82.9261 12.7611 83.0427 12.4224 83.1347 12.0729Z" fill="url(#paint4_linear_6943_132463)"/>
<path d="M69.7415 34.5743C72.4547 31.8511 73.9489 28.2139 73.9489 24.3323C73.9489 20.4507 72.4844 16.9225 69.8264 14.2424C69.2169 13.6289 68.5593 13.0752 67.8598 12.5873C67.9181 12.7571 67.9804 12.926 68.051 13.0899L68.05 36.0282C68.6472 35.5894 69.2138 35.1045 69.7415 34.5743Z" fill="url(#paint5_linear_6943_132463)"/>
<path d="M105.423 22.7125C105.423 19.5269 104.48 16.735 102.811 14.5458C100.473 17.2062 99.1961 20.6294 99.1961 24.294V33.0566C99.1961 34.9827 99.5029 36.8244 100.094 38.5168L105.423 38.5168V22.7125Z" fill="url(#paint6_linear_6943_132463)"/>
<path d="M129.458 24.294C129.458 20.8571 128.341 17.6313 126.282 15.0484C124.214 17.6401 123.089 20.8542 123.089 24.2557C123.089 28.2414 124.628 31.9493 127.424 34.697C127.968 35.2301 128.547 35.717 129.157 36.1549C129.356 35.1211 129.458 34.0501 129.458 32.9496V24.294Z" fill="url(#paint7_linear_6943_132463)"/>
<path d="M96.5033 34.4045V23.2868C96.5033 22.3728 96.2129 19.3895 92.4821 19.3895C90.045 19.3895 88.3422 20.9926 88.3422 23.2868V34.4045H83.6041V23.3997C83.6041 18.4264 87.2541 14.9542 92.4811 14.9542C97.7081 14.9542 101.239 18.2693 101.239 23.3997V34.4045H96.5013H96.5033Z" fill="#04203E" fill-opacity="0.7"/>
<path d="M59.6353 34.8561C53.8591 34.8561 49.5034 30.5621 49.5034 24.8673V8.70665H54.2405V24.8673C54.2405 27.9508 56.6602 30.4591 59.6342 30.4591C62.6082 30.4591 65.0279 28.0186 65.0279 25.0175C65.0279 22.0165 62.6583 19.8028 59.5166 19.8028H58.6524C57.3904 19.8028 56.3637 18.8171 56.3637 17.6057V15.443H60.1435C62.7923 15.443 65.2345 16.4355 67.0232 18.2379C68.7924 20.0217 69.7661 22.4288 69.7661 25.0175C69.7661 27.6062 68.7638 30.1164 66.9444 31.9424C65.0729 33.8204 62.4763 34.8551 59.6332 34.8551L59.6353 34.8561Z" fill="#04203E" fill-opacity="0.7"/>
<path d="M115.067 43.8886C110.285 43.8886 106.393 41.2891 105.496 37.5351H110.769C111.525 39.0548 113.511 39.3787 115.067 39.3787C118.596 39.3787 120.539 37.2995 120.539 33.5239V24.9812C120.539 21.8771 118.136 19.3522 115.184 19.3522C112.231 19.3522 109.79 21.8771 109.79 24.9812C109.79 28.0853 112.056 30.0085 115.302 30.0085H116.166C117.428 30.0085 118.454 30.9941 118.454 32.2055V34.4055H114.871C111.971 34.4055 109.485 33.4601 107.681 31.6705C105.961 29.9633 105.013 27.5876 105.013 24.9812C105.013 19.2648 109.385 14.9551 115.184 14.9551C120.983 14.9551 125.276 19.2658 125.276 24.9812V33.6368C125.276 39.7685 121.174 43.8886 115.067 43.8886Z" fill="#04203E" fill-opacity="0.7"/>
<path d="M138.843 34.8561C136.167 34.8561 133.673 33.8528 131.819 32.0317C129.941 30.1861 128.906 27.6691 128.906 24.9439C128.906 19.3423 133.27 14.9551 138.842 14.9551C144.413 14.9551 148.817 19.3423 148.817 24.9439C148.817 30.5454 144.436 34.8561 138.843 34.8561ZM138.843 19.0881C135.879 19.0881 133.644 21.6218 133.644 24.9812C133.644 28.3406 135.879 30.7231 138.843 30.7231C141.807 30.7231 144.041 28.2551 144.041 24.9812C144.041 21.7072 141.807 19.0881 138.843 19.0881Z" fill="#04203E" fill-opacity="0.7"/>
<path d="M73.8681 34.4045V15.4431H78.6052V34.4045H73.8681ZM76.2377 13.7379C74.6085 13.7379 73.2831 12.4656 73.2831 10.9027C73.2831 9.33986 74.6085 8.06758 76.2377 8.06758C77.8668 8.06758 79.1912 9.33986 79.1912 10.9027C79.1912 12.4656 77.8668 13.7379 76.2377 13.7379Z" fill="#04203E" fill-opacity="0.7"/>
<path d="M95.6852 33.7173V22.5996C95.6852 21.6856 95.3947 18.7023 91.6639 18.7023C89.2269 18.7023 87.5241 20.3054 87.5241 22.5996V33.7173H82.7859V22.7125C82.7859 17.7392 86.4359 14.267 91.6629 14.267C96.8899 14.267 100.421 17.5822 100.421 22.7125V33.7173H95.6831H95.6852Z" fill="white"/>
<path d="M58.8171 34.1689C53.0409 34.1689 48.6853 29.8749 48.6853 24.1801V8.01946H53.4224V24.1801C53.4224 27.2636 55.8421 29.7719 58.8161 29.7719C61.7901 29.7719 64.2098 27.3314 64.2098 24.3303C64.2098 21.3293 61.8402 19.1156 58.6985 19.1156H57.8343C56.5723 19.1156 55.5455 18.1299 55.5455 16.9185V14.7559H59.3254C61.9742 14.7559 64.4164 15.7484 66.205 17.5507C67.9743 19.3345 68.9479 21.7416 68.9479 24.3303C68.9479 26.9191 67.9457 29.4293 66.1263 31.2552C64.2548 33.1332 61.6581 34.1679 58.8151 34.1679L58.8171 34.1689Z" fill="white"/>
<path d="M114.249 43.2015C109.467 43.2015 105.575 40.6019 104.678 36.8479H109.951C110.706 38.3676 112.693 38.6916 114.249 38.6916C117.777 38.6916 119.721 36.6123 119.721 32.8367V24.294C119.721 21.1899 117.318 18.665 114.366 18.665C111.413 18.665 108.972 21.1899 108.972 24.294C108.972 27.3981 111.238 29.3213 114.484 29.3213H115.347C116.609 29.3213 117.636 30.3069 117.636 31.5183V33.7183H114.053C111.152 33.7183 108.667 32.7729 106.863 30.9833C105.143 29.2761 104.195 26.9004 104.195 24.294C104.195 18.5776 108.567 14.268 114.366 14.268C120.164 14.268 124.458 18.5786 124.458 24.294V32.9496C124.458 39.0813 120.356 43.2015 114.249 43.2015Z" fill="white"/>
<path d="M138.025 34.1689C135.349 34.1689 132.855 33.1656 131.001 31.3445C129.123 29.499 128.088 26.9819 128.088 24.2567C128.088 18.6552 132.452 14.268 138.024 14.268C143.595 14.268 147.999 18.6552 147.999 24.2567C147.999 29.8583 143.618 34.1689 138.025 34.1689ZM138.025 18.4009C135.061 18.4009 132.826 20.9346 132.826 24.294C132.826 27.6534 135.061 30.0359 138.025 30.0359C140.988 30.0359 143.223 27.568 143.223 24.294C143.223 21.0201 140.988 18.4009 138.025 18.4009Z" fill="white"/>
<path d="M73.0499 33.7173V14.7559H77.7871V33.7173H73.0499ZM75.4195 13.0507C73.7904 13.0507 72.465 11.7784 72.465 10.2155C72.465 8.65267 73.7904 7.38039 75.4195 7.38039C77.0487 7.38039 78.3731 8.65267 78.3731 10.2155C78.3731 11.7784 77.0487 13.0507 75.4195 13.0507Z" fill="white"/>
<defs>
<linearGradient id="paint0_linear_6943_132463" x1="76.5" y1="0.458587" x2="76.5" y2="35.6353" gradientUnits="userSpaceOnUse">
<stop stop-color="#D4007A"/>
<stop offset="0.52" stop-color="#C5007A"/>
<stop offset="1" stop-color="#B5007C"/>
</linearGradient>
<linearGradient id="paint1_linear_6943_132463" x1="76.4951" y1="10.9818" x2="76.4951" y2="47.8151" gradientUnits="userSpaceOnUse">
<stop stop-color="#97BF0D"/>
<stop offset="0.29" stop-color="#88BA12"/>
<stop offset="0.83" stop-color="#63AE21"/>
<stop offset="1" stop-color="#57AB27"/>
</linearGradient>
<linearGradient id="paint2_linear_6943_132463" x1="76.5" y1="0.407308" x2="76.5" y2="47.5464" gradientUnits="userSpaceOnUse">
<stop stop-color="#E2001A"/>
<stop offset="0.55" stop-color="#D3061C"/>
<stop offset="1" stop-color="#C50E1F"/>
</linearGradient>
<linearGradient id="paint3_linear_6943_132463" x1="76.5" y1="0.413639" x2="76.5" y2="47.5069" gradientUnits="userSpaceOnUse">
<stop stop-color="#FFD500"/>
<stop offset="0.33" stop-color="#FCC600"/>
<stop offset="0.95" stop-color="#F4A100"/>
<stop offset="1" stop-color="#F49E00"/>
</linearGradient>
<linearGradient id="paint4_linear_6943_132463" x1="76.4707" y1="-2.54639" x2="76.4707" y2="47.5652" gradientUnits="userSpaceOnUse">
<stop stop-color="#D2CA00"/>
<stop offset="0.38" stop-color="#C3C402"/>
<stop offset="1" stop-color="#A4B909"/>
</linearGradient>
<linearGradient id="paint5_linear_6943_132463" x1="76.5257" y1="-2.56906" x2="76.5257" y2="50.6374" gradientUnits="userSpaceOnUse">
<stop stop-color="#559A88"/>
<stop offset="0.23" stop-color="#469787"/>
<stop offset="0.66" stop-color="#219086"/>
<stop offset="1" stop-color="#008B85"/>
</linearGradient>
<linearGradient id="paint6_linear_6943_132463" x1="76.4874" y1="-7.99836" x2="76.4874" y2="47.1253" gradientUnits="userSpaceOnUse">
<stop stop-color="#E8837F"/>
<stop offset="0.82" stop-color="#D97F7F"/>
<stop offset="1" stop-color="#D67F7F"/>
</linearGradient>
<linearGradient id="paint7_linear_6943_132463" x1="126.274" y1="10.3125" x2="126.274" y2="37.6414" gradientUnits="userSpaceOnUse">
<stop stop-color="#D81953"/>
<stop offset="0.59" stop-color="#C90F51"/>
<stop offset="1" stop-color="#BD0651"/>
</linearGradient>
</defs>
</svg>
