<svg width="230" height="48" viewBox="0 0 230 48" fill="none" xmlns="http://www.w3.org/2000/svg">
<path d="M5.22814 10.2709L0 12.6019L4.4896 46.1231L12.6007 43.5775C6.23023 39.3313 2.35142 28.5405 5.22814 10.2709Z" fill="#FF2D29"/>
<path d="M52.6411 40.0717L24.904 48L4.4896 46.1231L35.0451 36.5342L52.6411 40.0717Z" fill="#B30415"/>
<path d="M45.9737 8.75904L36.4301 4.03962C39.9799 20.9999 38.6755 31.2908 35.0456 36.5342L52.6411 40.0717L45.9737 8.75904ZM35.4004 3.53033L28.2615 0L32.1755 21.0796C34.5114 16.8102 35.7062 11.2098 35.4004 3.53033Z" fill="#C80011"/>
<path d="M36.4301 4.03962L35.4004 3.53033C35.7062 11.2098 34.5114 16.8102 32.1755 21.0796L35.0451 36.5342C38.6755 31.2908 39.9794 20.9999 36.4301 4.03962Z" fill="#E8E4E2"/>
<path d="M21.4072 26.1106C17.5916 27.5041 14.0177 25.0159 13.3428 20.6442C12.6777 16.3352 15.0598 11.6474 18.7414 10.0817C22.521 8.47457 26.301 10.7219 27.1027 15.2013C27.9165 19.7498 25.3278 24.6785 21.4072 26.1106ZM28.2615 0L6.49956 9.70373C7.98422 27.1533 14.5056 32.889 21.9329 30.2896C25.7601 28.95 29.8691 25.1285 32.1755 21.0796L28.2615 0Z" fill="#FF2D29"/>
<path d="M21.4072 26.1106C25.3278 24.6785 27.9165 19.7498 27.1027 15.2013C26.301 10.7219 22.521 8.47412 18.7414 10.0817C15.0598 11.6474 12.6777 16.3352 13.3428 20.6442C14.0177 25.0159 17.5916 27.5041 21.4072 26.1106Z" fill="white"/>
<path d="M21.9329 30.2896C14.5056 32.889 7.98422 27.1533 6.49956 9.70373L5.22814 10.2705C2.35142 28.5405 6.23023 39.3313 12.6007 43.5775L35.0451 36.5342L32.1755 21.0796C29.8691 25.1281 25.7601 28.95 21.9329 30.2896Z" fill="white"/>
<path d="M145.64 33.1495L146.974 29.2171L157.422 29.2594C158.48 29.2594 159.084 30.0697 158.735 31.1301L158.089 33.1495H145.64ZM159.981 23.7338H148.544L149.762 19.8567H159.427C160.48 19.8567 160.992 20.6874 160.647 21.7398L159.981 23.7338ZM145.341 12.4349L136.359 40.1287H156.875C162.83 40.1287 166.89 35.1435 166.192 29.6049C165.86 26.9641 163.676 26.3461 163.676 26.3461C163.676 26.3461 167.015 25.7732 168.298 20.5213C169.175 16.9607 167.028 12.4349 160.285 12.4349H145.341ZM51.8719 33.1495L53.2056 29.2171L63.6539 29.2594C64.7121 29.2594 65.3153 30.0697 64.9672 31.1301L64.3208 33.1495H51.8719ZM66.2128 23.7338H54.7757L55.9942 19.8567H65.6585C66.7118 19.8567 67.2242 20.6874 66.8787 21.7398L66.2128 23.7338ZM51.5732 12.4349L42.5904 40.1287H63.1072C69.0619 40.1287 73.1219 35.1435 72.4234 29.6049C72.0922 26.9641 69.9077 26.3461 69.9077 26.3461C69.9077 26.3461 73.247 25.7732 74.53 20.5213C75.407 16.9607 73.2594 12.4349 66.5168 12.4349H51.5732ZM217.734 28.5859L211.681 12.4349H203.935L194.956 40.073H200.691C201.516 40.073 202.247 39.5455 202.499 38.7602L207.307 23.9693L212.88 38.8394C213.161 39.5802 213.868 40.0735 214.662 40.0735H221.011L230 12.4349H224.39C223.176 12.4349 222.788 12.8779 222.55 13.4317L217.734 28.5859ZM119.458 35.687L131.135 24.8129L126.175 40.0726H133.417L142.411 12.4349H136.048C135.624 12.4349 135.208 12.5979 134.893 12.889L123.351 23.6385L118.503 12.4349H111.606L102.627 40.073H108.636C109.371 40.073 110.017 39.6047 110.244 38.904L114.794 24.8971L119.458 35.687ZM191.177 40.1287C191.568 40.1287 191.994 39.809 192.12 39.4177L194.277 32.8726H175.028L176.27 28.9402H188.813C189.235 28.9402 189.688 28.6015 189.825 28.1807L191.415 23.346H178.032L179.327 19.5245H195.704C196.094 19.5245 196.517 19.2067 196.643 18.8167L198.645 12.4349H174.828L168.055 33.2706C167.451 35.1301 165.814 40.1287 172.138 40.1287H191.177ZM95.5712 30.0496C95.102 31.4831 93.5403 32.6513 92.0846 32.6513H84.8109C83.3502 32.6513 82.5587 31.4876 83.0324 30.0496L85.3829 22.8937L82.8013 19.8825L96.2839 20.1669C97.7441 20.1669 98.5361 21.0284 98.0624 22.4659L95.5712 30.0496ZM101.143 12.4349H89.0534C84.7784 12.4349 80.1877 15.8647 78.793 20.0917L74.7276 32.4723C73.3378 36.7043 75.6736 40.1291 79.9535 40.1291H92.0481C96.3236 40.1291 100.914 36.6994 102.304 32.4723L106.369 20.0917C107.759 15.8593 105.424 12.4349 101.143 12.4349Z" fill="black"/>
</svg>
