<svg width="324" height="48" viewBox="0 0 324 48" fill="none" xmlns="http://www.w3.org/2000/svg">
<path d="M177.639 0.000960922L162.109 47.9992H197.579C207.874 47.9992 214.892 39.3594 213.685 29.7595C213.112 25.1823 209.336 24.111 209.336 24.111C209.336 24.111 215.109 23.1183 217.327 14.0158C218.843 7.84403 215.131 0 203.474 0L177.639 0.000960922ZM202.949 19.5846H183.176L185.282 12.8648H201.99C203.812 12.8648 204.697 14.3047 204.1 16.1287L202.949 19.5846ZM178.155 35.9034L180.461 29.0875L198.525 29.1605C200.354 29.1605 201.397 30.565 200.795 32.4033L199.678 35.9034H178.155Z" fill="black"/>
<path d="M15.5304 0.000960922L0 47.9992H35.4704C45.7649 47.9992 52.7837 39.3594 51.5763 29.7595C51.0037 25.1823 47.2271 24.111 47.2271 24.111C47.2271 24.111 53.0001 23.1183 55.2188 14.0158C56.7346 7.84403 53.0222 0 41.365 0L15.5304 0.000960922ZM40.8393 19.5846H21.066L23.1726 12.8648H39.8808C41.7021 12.8648 42.5878 14.3047 41.9903 16.1287L40.8393 19.5846ZM16.0465 35.9034L18.3523 29.0875L36.4164 29.1605C38.2453 29.1605 39.2881 30.565 38.6868 32.4033L37.5693 35.9034H16.0465Z" fill="black"/>
<path d="M302.794 27.993L292.33 0.000768718H278.937L263.413 47.903H273.33C274.755 47.903 276.018 46.9882 276.454 45.6279L284.767 19.9924L294.402 45.7652C294.889 47.0487 296.11 47.904 297.484 47.904H308.459L324 0.000768718H314.302C312.202 0.000768718 311.532 0.768757 311.121 1.72874L302.794 27.993Z" fill="black"/>
<path d="M132.892 40.3011L153.078 21.4537L144.504 47.9013H157.024L172.573 0H161.572C160.839 0 160.12 0.282237 159.576 0.787189L139.62 19.4186L131.239 0H119.316L103.792 47.9023H114.18C115.451 47.9023 116.568 47.0901 116.961 45.8757L124.827 21.5997L132.892 40.3011Z" fill="black"/>
<path d="M256.88 47.9992C257.557 47.9992 258.293 47.4453 258.51 46.7676L262.241 35.4234H228.963L231.11 28.6075H252.796C253.524 28.6075 254.308 28.02 254.544 27.2914L257.294 18.9117H234.155L236.396 12.2878H264.707C265.382 12.2878 266.113 11.7368 266.331 11.0609L269.793 0H228.618L216.907 36.1117C215.864 39.3354 213.034 47.9983 223.966 47.9983L256.88 47.9992Z" fill="black"/>
<path d="M101.229 0.000768718H80.3263C72.935 0.000768718 64.9989 5.94499 62.5878 13.2716L55.5594 34.7292C53.156 42.0644 57.1949 48 64.5938 48H85.5028C92.8941 48 100.83 42.0558 103.234 34.7292L110.262 13.2716C112.666 5.93635 108.628 0.000768718 101.229 0.000768718ZM91.5947 30.5302C90.7837 33.0146 88.0834 35.0392 85.567 35.0392H72.9915C70.4665 35.0392 69.0981 33.0223 69.9168 30.5302L73.9807 18.1272L69.5175 12.9078L92.8261 13.4012C95.3502 13.4012 96.7195 14.894 95.9008 17.3861L91.5947 30.5302Z" fill="black"/>
</svg>
