<svg width="199" height="48" viewBox="0 0 199 48" fill="none" xmlns="http://www.w3.org/2000/svg">
<path d="M7.14639 6.28652L1.43852 7.71363L0 42.455L8.66407 41.3258C2.97404 35.8892 0.974113 24.271 7.14639 6.28652Z" fill="#FF2D29"/>
<path d="M49.8175 44.9247L20.3283 48L0 42.455L32.639 38.2015L49.8175 44.9247Z" fill="#B30415"/>
<path d="M48.6572 12.0302L39.8398 5.54825C40.4058 23.3542 37.2492 33.5408 32.639 38.2015L49.8175 44.9247L48.6572 12.0302ZM38.8886 4.84888L32.2931 0L32.4925 22.0415C35.6185 18.1359 37.828 12.6788 38.8886 4.84888Z" fill="#C80011"/>
<path d="M39.8398 5.54825L38.8886 4.84888C37.828 12.6788 35.6185 18.1359 32.4925 22.0415L32.639 38.2015C37.2492 33.5408 40.4058 23.3542 39.8398 5.54825Z" fill="#E8E4E2"/>
<path d="M20.6952 25.2129C16.5846 25.9429 13.4111 22.7853 13.5086 18.2385C13.6037 13.7567 16.8518 9.43596 20.8576 8.5082C24.9701 7.55527 28.3948 10.5056 28.4067 15.1842C28.419 19.9347 24.9193 24.4632 20.6952 25.2129ZM32.2931 0L8.53413 5.93958C6.92265 23.8723 12.4997 30.844 20.4815 29.5382C24.5944 28.8649 29.4352 25.7292 32.4925 22.0415L32.2931 0Z" fill="#FF2D29"/>
<path d="M20.6952 25.2129C24.9193 24.4632 28.419 19.9352 28.4067 15.1842C28.3948 10.5056 24.9701 7.55527 20.8576 8.50774C16.8518 9.43596 13.6037 13.7567 13.5086 18.2385C13.4111 22.7853 16.5846 25.9429 20.6952 25.2129Z" fill="white"/>
<path d="M20.4815 29.5382C12.4997 30.844 6.92311 23.8723 8.53413 5.93958L7.14639 6.28652C0.974113 24.271 2.9745 35.8892 8.66407 41.3258L32.639 38.2015L32.4925 22.0415C29.4352 25.7292 24.5944 28.8654 20.4815 29.5382Z" fill="white"/>
<path d="M104.378 40.2832H110.566V42.4545H116.117V40.2832H122.305V35.1079H104.378V40.2832ZM126.947 14.099H133.04V37.2793H126.947V42.4545H144.684V37.2793H138.59V14.099H144.684V8.92379H126.947V14.099ZM182.245 18.8165C182.599 15.9422 184.739 14.0853 187.695 14.0853C191.246 14.0853 192.851 16.6374 193.147 18.822C193.677 22.7729 193.677 28.9308 193.148 32.5499L193.148 32.5521C192.742 35.4759 190.653 37.2921 187.695 37.2921C184.381 37.2921 182.569 34.9134 182.245 32.5617C181.791 28.8361 181.791 22.5413 182.245 18.8165ZM198.668 18.6769C197.906 12.5268 193.599 8.55305 187.695 8.55305C184.683 8.55305 182.031 9.62133 180.024 11.6421C178.22 13.4587 177.047 15.9577 176.723 18.6765C176.259 22.3884 176.259 28.9418 176.723 32.7004C177.486 38.8506 181.793 42.8243 187.695 42.8243C190.717 42.8243 193.375 41.7624 195.384 39.7541C197.204 37.9324 198.371 35.4247 198.669 32.694C199.111 28.766 199.11 22.2163 198.668 18.6769ZM171.233 28.112V8.92379H165.888V16.7262L162.772 8.92379H157.223L164.857 28.112H171.233ZM156.013 8.92379H150.668V28.112H156.013V8.92379ZM63.8765 8.55351C60.8645 8.55351 58.2116 9.62133 56.2048 11.6425C54.4007 13.4591 53.228 15.9577 52.9041 18.6769C52.4401 22.3893 52.4401 28.9427 52.9041 32.7009C53.6668 38.851 57.9737 42.8248 63.8765 42.8248C67.158 42.8248 69.9586 41.6888 71.9759 39.5394C73.7814 37.6152 74.7889 34.9697 74.8127 32.1054C74.8489 31.3855 74.8429 30.8875 74.8429 30.8664L74.8383 29.9895H69.3926L69.3345 32.1375C69.3286 32.2327 69.3258 32.3265 69.3249 32.4098L69.3135 32.7288L69.3162 32.8483V32.8492C69.1895 35.767 66.5 37.2925 63.8765 37.2925C60.3264 37.2925 58.7213 34.7418 58.4257 32.5622C57.9714 28.8365 57.9714 22.5418 58.4257 18.8165C58.7799 15.9426 60.9184 14.0857 63.8701 14.0857C65.062 14.0986 68.9749 14.4835 69.3034 18.877L69.3748 20.5141H74.8987L74.9033 20.5187C74.9038 20.4807 74.9143 19.5667 74.8164 18.4225C74.3877 12.427 70.0936 8.55351 63.8765 8.55351ZM92.3737 30.4929H86.045L89.2094 17.2549L92.3737 30.4929ZM86.4691 8.92379L77.0977 42.4545H82.6775L84.6197 35.7679H93.7857L95.728 42.4545H101.308L91.9368 8.92379H86.4691ZM115.329 11.4645C115.014 11.3867 114.687 11.3125 114.347 11.2352C112.448 10.8031 110.485 10.3564 109.505 9.07255L109.392 8.92379H103.438L103.558 9.39568C104.447 12.9035 107.165 15.2501 111.415 16.1797L111.739 16.2534C116.256 17.28 118.744 17.8458 118.744 21.5962C118.744 24.2536 116.423 26.2574 113.344 26.2574C110.215 26.2574 107.944 24.297 107.944 21.5962V20.4977H102.367V21.5962C102.367 27.3119 107.189 31.7896 113.344 31.7896C116.155 31.7896 118.921 30.795 120.932 29.0603C123.117 27.1755 124.321 24.5245 124.321 21.5962C124.321 16.3262 121.296 12.9177 115.329 11.4645ZM155.501 40.9084C155.856 38.034 157.995 36.1771 160.952 36.1771C164.502 36.1771 166.108 38.7293 166.404 40.9139C166.467 41.3867 166.524 41.9034 166.574 42.4545H172.087C172.041 41.8311 171.987 41.2649 171.925 40.7688C171.162 34.6187 166.855 30.6449 160.952 30.6449C157.94 30.6449 155.288 31.7132 153.28 33.7339C151.476 35.5505 150.304 38.0496 149.98 40.7683C149.917 41.27 149.862 41.8361 149.814 42.4545H155.35C155.394 41.892 155.445 41.3734 155.501 40.9084Z" fill="white"/>
</svg>
