<svg width="436" height="48" viewBox="0 0 436 48" fill="none" xmlns="http://www.w3.org/2000/svg">
<path d="M91.7446 0L85.7245 19.3916H65.5913L70.6557 2.95386C71.1886 1.31518 70.303 0 68.6468 0H59.2549L43.6091 47.999H53.0144C54.6639 47.999 56.4188 46.6723 56.9527 45.0394L62.2549 28.9914H82.3709L76.1084 47.999H85.5098C87.1564 47.999 88.9171 46.6743 89.45 45.0452L104.116 0H91.7446Z" fill="white"/>
<path d="M358.21 0.000960918C350.585 0.000960918 342.351 6.23316 339.867 13.8852L333.299 34.1158C330.815 41.7678 335.002 48 342.627 48H370.076C371.864 48 374.005 46.3815 374.594 44.5719L377.628 35.2207L377.705 34.9731L379.807 28.497L382.854 19.3926H361.087L357.973 28.9924H368.234L365.978 35.4243H346.423C345.823 35.4243 345.766 35.3484 345.965 34.7388L351.778 17.4016L345.968 12.2878H379.796C381.739 12.2878 383.778 9.70637 384.216 8.33359L386.879 0L358.21 0.000960918Z" fill="white"/>
<path d="M271.477 47.999C272.156 47.999 272.892 47.4451 273.109 46.7674L276.846 35.4233H243.517L245.668 28.6074H267.385C268.116 28.6074 268.9 28.0199 269.137 27.2913L271.892 18.9116H248.718L250.961 12.2878H279.315C279.991 12.2878 280.723 11.7367 280.941 11.0609L284.409 0H243.172L231.441 36.1126C230.398 39.3362 227.113 47.999 238.064 47.999H271.477Z" fill="white"/>
<path d="M423.068 47.999C423.746 47.999 424.482 47.4451 424.7 46.7674L428.437 35.4233H395.108L397.258 28.6074H418.976C419.706 28.6074 420.49 28.0199 420.728 27.2913L423.483 18.9116H400.308L402.552 12.2878H430.906C431.582 12.2878 432.314 11.7367 432.531 11.0609L436 0H394.763L383.032 36.1126C381.988 39.3362 378.704 47.999 389.655 47.999H423.068Z" fill="white"/>
<path d="M94.2234 47.999H107.246L113.284 28.9914H132.742L126.703 47.999H139.044L150.267 13.5511C152.512 6.6421 149.154 0.924461 142.725 0H121.811C114.761 0.923501 107.701 6.63443 105.459 13.5357L94.2234 47.999ZM118.528 13.2477C118.681 12.7879 119.374 12.2878 120.129 12.2878H137.081C137.798 12.2878 138.143 12.7572 137.989 13.1892L135.817 19.3916H116.408L118.528 13.2477Z" fill="white"/>
<path d="M152.672 47.9894C148.813 47.9894 146.067 44.2263 147.269 40.539L160.43 0H172.954L161.423 35.5193H185.896L181.845 47.999L152.672 47.9894Z" fill="white"/>
<path d="M194.011 47.9894C190.152 47.9894 187.406 44.2263 188.608 40.539L201.769 0H214.293L202.762 35.5193H227.235L223.184 47.999L194.011 47.9894Z" fill="white"/>
<path d="M0.732812 34.0505C-1.77929 41.738 2.37944 47.999 9.96368 47.999H33.9557C35.9636 47.999 38.124 46.3623 38.7911 44.3646L41.815 35.4233H14.4492C13.9259 35.4233 13.6317 34.9769 13.8119 34.4441L20.753 13.3629C20.9428 12.8109 21.5044 12.3838 22.0277 12.3838H45.7782C47.7967 12.3838 49.5564 11.4651 50.2225 9.45101L53.2886 0H23.7491C16.7294 0.939821 9.61288 6.81202 7.32697 13.912L0.731856 34.0515L0.732812 34.0505Z" fill="white"/>
<path d="M317.707 27.993L307.232 0H293.786L278.217 47.999H288.163C289.593 47.999 290.86 47.0823 291.296 45.7191L299.635 20.031L309.298 45.8564C309.786 47.1418 311.009 47.999 312.388 47.999H323.396L338.983 0H329.226C327.777 0 326.492 0.933101 326.052 1.72797L317.707 27.993Z" fill="white"/>
</svg>
