<svg width="310" height="48" viewBox="0 0 310 48" fill="none" xmlns="http://www.w3.org/2000/svg">
<path d="M13.5062 1.85055L7.55341 2.27056L0 36.7471L8.85331 37.1462C4.12663 30.7076 4.17443 18.7406 13.5062 1.85055Z" fill="#FF2D29"/>
<path d="M49.3269 48L19.3286 45.8749L0 36.7471L33.3513 38.2501L49.3269 48Z" fill="#B30415"/>
<path d="M53.9594 14.9117L46.2932 6.87672C43.7236 24.7768 38.7769 34.4036 33.3513 38.2501L49.3269 48L53.9594 14.9117ZM45.4662 6.01022L39.7315 0L36.0504 22.0695C39.8606 18.7164 43.0279 13.6503 45.4662 6.01022Z" fill="#C80011"/>
<path d="M46.2932 6.87719L45.4662 6.01022C43.0279 13.6503 39.8606 18.7164 36.0504 22.0695L33.3513 38.2501C38.7769 34.4036 43.7236 24.7768 46.2932 6.87719Z" fill="#E8E4E2"/>
<path d="M23.7077 23.1595C19.4729 23.1642 16.8592 19.4482 17.7567 14.9201C18.6413 10.4566 22.6468 6.70993 26.811 6.48877C31.0866 6.26158 33.988 9.81447 33.1764 14.494C32.3522 19.2452 28.0589 23.1549 23.7077 23.1595ZM39.7315 0L14.9537 1.74834C10.1866 19.3911 14.53 27.3438 22.7326 27.4456C26.9595 27.4981 32.347 25.2168 36.0504 22.0695L39.7315 0Z" fill="#FF2D29"/>
<path d="M23.7077 23.1595C28.0589 23.1549 32.3522 19.2452 33.1764 14.494C33.988 9.81447 31.0866 6.26111 26.811 6.48877C22.6468 6.70993 18.6413 10.4566 17.7567 14.9201C16.8592 19.4482 19.4729 23.1642 23.7077 23.1595Z" fill="white"/>
<path d="M22.7326 27.4456C14.53 27.3438 10.1866 19.3911 14.9537 1.74834L13.5062 1.85055C4.17443 18.7406 4.12663 30.7076 8.85331 37.1462L33.3513 38.2501L36.0504 22.0695C32.347 25.2168 26.9595 27.4981 22.7326 27.4456Z" fill="white"/>
<path d="M102.617 10.8854L98.9908 22.562H86.8624L89.9133 12.6639C90.234 11.6776 89.7007 10.8854 88.703 10.8854H83.0453L73.6198 39.7875H79.2858C80.2794 39.7875 81.3366 38.9889 81.6582 38.0053L84.8525 28.3423H96.9706L93.1981 39.7875H98.8613C99.8535 39.7875 100.914 38.9898 101.235 38.009L110.07 10.8854H102.617ZM263.139 10.8859C258.545 10.8859 253.585 14.6385 252.088 19.2461L248.132 31.4278C246.636 36.0353 249.158 39.788 253.752 39.788H270.287C271.364 39.788 272.654 38.8132 273.008 37.7237L274.836 32.0931L274.882 31.9439L276.149 28.0445L277.984 22.5625H264.872L262.996 28.3427H269.177L267.819 32.2157H256.038C255.677 32.2157 255.642 32.1702 255.762 31.8032L259.264 21.3638L255.764 18.2843H276.142C277.313 18.2843 278.541 16.7302 278.805 15.9032L280.409 10.8854L263.139 10.8859ZM210.89 39.7875C211.298 39.7875 211.742 39.4539 211.873 39.046L214.124 32.2153H194.046L195.342 28.1109H208.425C208.865 28.1109 209.337 27.7573 209.48 27.3187L211.14 22.273H197.179L198.531 18.2843H215.612C216.019 18.2843 216.46 17.9526 216.591 17.5456L218.68 10.8854H193.838L186.772 32.6302C186.143 34.5713 184.164 39.7875 190.761 39.7875H210.89ZM302.209 39.7875C302.618 39.7875 303.061 39.4539 303.193 39.046L305.444 32.2153H285.366L286.662 28.1109H299.745C300.185 28.1109 300.657 27.7573 300.8 27.3187L302.46 22.273H288.499L289.85 18.2843H306.931C307.338 18.2843 307.779 17.9526 307.911 17.5456L310 10.8854H285.158L278.092 32.6302C277.463 34.5713 275.484 39.7875 282.081 39.7875H302.209ZM118.751 18.8623C118.844 18.5854 119.261 18.2843 119.716 18.2843H129.928C130.36 18.2843 130.568 18.5673 130.476 18.827L129.167 22.562H117.474L118.751 18.8623ZM104.111 39.7875H111.955L115.593 28.3423H127.314L123.677 39.7875H131.11L137.872 19.0449C139.224 14.8848 137.201 11.442 133.328 10.8854H120.729C116.483 11.4415 112.23 14.8801 110.879 19.0356L104.111 39.7875ZM139.32 39.7815C136.996 39.7815 135.341 37.5156 136.065 35.2957L143.994 10.8854H151.538L144.592 32.2729H159.335L156.895 39.7875L139.32 39.7815ZM164.223 39.7815C161.899 39.7815 160.245 37.5156 160.969 35.2957L168.896 10.8854H176.441L169.495 32.2729H184.238L181.798 39.7875L164.223 39.7815ZM47.7908 31.3887C46.2774 36.0177 48.7825 39.7875 53.3514 39.7875H67.8048C69.0142 39.7875 70.3155 38.8021 70.7174 37.5992L72.539 32.2153H56.0538C55.7387 32.2153 55.5614 31.9463 55.6695 31.6257L59.8514 18.9316C59.9656 18.5994 60.3039 18.342 60.619 18.342H74.9267C76.1426 18.342 77.2025 17.7891 77.604 16.5764L79.451 10.8854H61.6562C57.4275 11.4513 53.1403 14.987 51.7634 19.2624L47.7903 31.3892L47.7908 31.3887ZM238.739 27.7411L232.429 10.8854H224.329L214.95 39.7875H220.942C221.803 39.7875 222.566 39.2356 222.829 38.4146L227.852 22.9467L233.673 38.4973C233.967 39.2713 234.704 39.7875 235.535 39.7875H242.166L251.556 10.8854H245.678C244.805 10.8854 244.032 11.4471 243.767 11.9261L238.739 27.7411Z" fill="black"/>
</svg>
