<svg width="343" height="48" viewBox="0 0 343 48" fill="none" xmlns="http://www.w3.org/2000/svg">
<path d="M0 47.3946V0.608869H23.2691V11.8348H12.519V18.4355H22.1584V29.6614H12.519V36.1652H23.2691V47.3946H0Z" fill="white"/>
<path d="M44.8037 0.608869H57.3261V33.6778C57.3261 36.397 56.8941 38.6007 56.0337 40.2889C55.1939 42.0532 53.7918 43.6549 51.831 45.0837C49.188 46.9898 45.976 47.9412 42.1915 47.9412C37.9066 47.9412 34.3141 46.8895 31.4106 44.7862C27.7255 42.1051 25.8847 37.8188 25.8847 31.9204V0.608869H38.4071V31.1455C38.4071 33.1727 38.6504 34.6084 39.1406 35.4525C39.6308 36.2932 40.457 36.7152 41.6191 36.7152C42.7812 36.7152 43.6519 36.3243 44.1112 35.5425C44.5706 34.7191 44.8037 33.2662 44.8037 31.1766V0.608869Z" fill="white"/>
<path d="M92.9565 47.3946H79.4125L73.2285 30.7269C73.1668 30.4432 73.0639 30.0696 72.9131 29.6061C72.7622 29.1425 72.5771 28.5855 72.3577 27.9386L72.4469 31.0279V47.3911H59.9862V0.605405H72.8068C78.4527 0.605405 82.6725 1.72626 85.4766 3.96799C89.0383 6.83588 90.8208 10.918 90.8208 16.2076C90.8208 21.8638 88.4281 25.773 83.6461 27.9351L92.9565 47.3911V47.3946ZM72.5086 21.5905H73.3484C74.7882 21.5905 75.9914 21.0335 76.9512 19.923C77.9111 18.8126 78.391 17.3976 78.391 15.6817C78.391 12.1877 76.581 10.4406 72.9576 10.4406H72.5086V21.5939V21.5905Z" fill="white"/>
<path d="M128.23 24.1643C128.23 31.2285 126.575 36.9712 123.27 41.3959C119.983 45.7998 115.705 48 110.429 48C105.746 48 101.732 46.3083 98.3829 42.9284C94.17 38.6456 92.0686 32.2214 92.0686 23.6558C92.0686 15.0902 94.266 9.17794 98.6606 4.83286C101.924 1.6121 105.798 0 110.275 0C115.756 0 120.116 2.18291 123.363 6.54529C126.609 10.9077 128.23 16.7818 128.23 24.1643ZM114.896 24.275C114.896 15.7717 113.377 11.52 110.336 11.52C108.818 11.52 107.604 12.6374 106.699 14.8688C105.818 16.941 105.376 19.9853 105.376 24.0017C105.376 28.0182 105.791 31.0279 106.624 33.2108C107.457 35.3937 108.612 36.4835 110.089 36.4835C111.567 36.4835 112.78 35.4076 113.6 33.2558C114.46 31.104 114.892 28.1116 114.892 24.275" fill="white"/>
<path d="M142.984 47.3946H130.459V0.608869H142.594C148.641 0.608869 153.124 1.8508 156.045 4.33469C159.487 7.26485 161.211 11.3367 161.211 16.5501C161.211 22.227 159.377 26.4614 155.716 29.2497C153.213 31.1282 149.621 32.0692 144.935 32.0692H142.981V47.3911L142.984 47.3946ZM142.984 22.2409L143.557 22.272C145.075 22.272 146.289 21.8015 147.19 20.864C148.092 19.923 148.541 18.6361 148.541 16.9998C148.541 15.3635 148.102 14.0696 147.221 13.0595C146.34 12.0285 145.219 11.5131 143.859 11.5131H142.988V22.2409H142.984Z" fill="white"/>
<path d="M192.745 47.3946H179.801L178.872 41.4685H170.436L169.414 47.3946H156.47L167.611 0.608869H182.924L192.745 47.3946ZM177.401 31.6368L176.592 26.1812C176.568 26.1604 176.531 25.8871 176.472 25.3648C176.431 24.9219 176.222 23.1645 175.842 20.0925C175.804 19.7501 175.752 19.2796 175.691 18.6845C175.629 18.0895 175.55 17.3353 175.451 16.4255L175.06 12.0009C175.019 12.4264 174.964 12.9003 174.895 13.4262C174.827 13.952 174.751 14.5263 174.669 15.1524C174.529 16.4048 174.429 17.2731 174.367 17.7574C174.306 18.2417 174.268 18.5358 174.248 18.6361L173.377 24.3027L172.115 31.6368H177.401Z" fill="white"/>
<path d="M207.434 47.3946H194.911V11.8348H188.007V0.608869H214.612V11.8348H207.434V47.3946Z" fill="white"/>
<path d="M229.387 0.608869H216.868V47.3946H229.387V0.608869Z" fill="white"/>
<path d="M244.579 47.3946H232.057V0.608869H244.188C250.235 0.608869 254.719 1.8508 257.64 4.33469C261.085 7.26485 262.806 11.3367 262.806 16.5501C262.806 22.227 260.972 26.4614 257.311 29.2497C254.808 31.1282 251.216 32.0692 246.53 32.0692H244.579V47.3946ZM244.579 22.2409L245.148 22.272C246.67 22.272 247.88 21.8015 248.782 20.864C249.684 19.923 250.133 18.6361 250.133 16.9998C250.133 15.3635 249.69 14.0696 248.813 13.0595C247.932 12.0285 246.811 11.5131 245.45 11.5131H244.579V22.2409Z" fill="white"/>
<path d="M264.314 45.9139V31.2182C266.823 34.6811 269.542 36.4108 272.462 36.4108C273.563 36.4108 274.461 36.1271 275.157 35.5598C275.853 34.9924 276.199 34.2867 276.199 33.4288C276.199 32.1972 275.441 30.9968 273.933 29.8205L271.852 28.2396C270.464 27.2294 269.278 26.2192 268.297 25.216C267.317 24.2128 266.522 23.1784 265.908 22.1163C265.295 21.0543 264.845 19.9542 264.561 18.8229C264.273 17.6917 264.132 16.4982 264.132 15.2458C264.132 13.101 264.643 10.8558 265.665 8.51026C266.176 7.41707 266.769 6.42076 267.444 5.51438C268.116 4.61146 268.894 3.81233 269.771 3.11351C272.181 1.12778 275.092 0.134925 278.499 0.134925C281.543 0.134925 284.604 0.927135 287.69 2.50811V16.8406C286.647 15.2112 285.465 13.9312 284.138 12.9937C282.808 12.0562 281.502 11.5857 280.217 11.5857C279.236 11.5857 278.431 11.8625 277.796 12.4195C277.142 12.9557 276.816 13.6026 276.816 14.3568C276.816 15.5883 277.683 16.8095 279.418 18.0203L281.44 19.4802C284.135 21.3656 286.065 23.3029 287.23 25.2886C288.413 27.2744 289.006 29.5957 289.006 32.256C289.006 36.781 287.587 40.5137 284.748 43.4543C281.91 46.3913 278.317 47.8616 273.967 47.8616C270.964 47.8616 267.749 47.2147 264.318 45.9139" fill="white"/>
<path d="M291.142 47.3946V0.608869H314.411V11.8348H303.661V18.4355H313.3V29.6614H303.661V36.1652H314.411V47.3946H291.142Z" fill="white"/>
<path d="M335.825 47.3946H323.303V11.8348H316.399V0.608869H343V11.8348H335.825V47.3946Z" fill="white"/>
</svg>
