<svg width="285" height="48" viewBox="0 0 285 48" fill="none" xmlns="http://www.w3.org/2000/svg">
<path d="M13.5513 1.85055L7.57866 2.27056L0 36.7471L8.88243 37.1462C4.14042 30.7081 4.18838 18.7406 13.5513 1.85055Z" fill="#FF2D29"/>
<path d="M49.4918 48L19.3932 45.8749L0 36.7471L33.4623 38.2501L49.4918 48Z" fill="#B30415"/>
<path d="M54.1397 14.9117L46.4479 6.87719C43.8697 24.7768 38.9065 34.4041 33.4623 38.2501L49.4918 48L54.1397 14.9117ZM45.6182 6.01022L39.8643 0L36.1704 22.0695C39.9933 18.7164 43.1717 13.6508 45.6182 6.01022Z" fill="#C80011"/>
<path d="M46.4479 6.87719L45.6182 6.01022C43.1717 13.6508 39.9933 18.7164 36.1704 22.0695L33.4623 38.2501C38.9065 34.4041 43.8697 24.7768 46.4479 6.87719Z" fill="#E8E4E2"/>
<path d="M23.7869 23.1595C19.538 23.1646 16.9155 19.4487 17.8161 14.9201C18.7036 10.4566 22.722 6.70993 26.9006 6.48877C31.1905 6.26158 34.1016 9.81447 33.2872 14.494C32.4603 19.2452 28.1527 23.1549 23.7869 23.1595ZM39.8643 0L15.0032 1.74834C10.2207 19.3911 14.5785 27.3438 22.8086 27.446C27.0491 27.4981 32.4551 25.2168 36.1704 22.0695L39.8643 0Z" fill="#FF2D29"/>
<path d="M23.7869 23.1595C28.1527 23.1549 32.4603 19.2452 33.2872 14.494C34.1016 9.81447 31.1905 6.26158 26.9006 6.48877C22.722 6.70993 18.7036 10.4566 17.8161 14.9201C16.9155 19.4487 19.538 23.1646 23.7869 23.1595Z" fill="white"/>
<path d="M22.8086 27.446C14.5785 27.3438 10.2207 19.3911 15.0032 1.74834L13.5513 1.85055C4.18838 18.7406 4.14042 30.7081 8.88243 37.1462L33.4623 38.2501L36.1704 22.0695C32.4551 25.2168 27.0491 27.4981 22.8086 27.446ZM52.8793 40.7632V9.46136H68.6256V16.9723H61.3519V21.388H67.8741V28.9003H61.3519V33.2509H68.6256V40.7632H52.8793ZM83.1962 9.4609H91.6689V31.5867C91.6689 33.407 91.3765 34.8817 90.7949 36.0102C90.2254 37.1922 89.2774 38.2627 87.9494 39.2179C86.1623 40.4937 83.9873 41.1312 81.4287 41.1312C78.5287 41.1312 76.0976 40.4278 74.1336 39.0191C71.6401 37.2252 70.3945 34.3571 70.3945 30.4112V9.4609H78.8672V29.8922C78.8672 31.2503 79.0334 32.2106 79.3654 32.7737C79.697 33.3382 80.2562 33.6189 81.0422 33.6189C81.8547 33.6189 82.4153 33.3578 82.7287 32.8332C83.0393 32.2836 83.1962 31.3097 83.1962 29.9131V9.4609ZM101.944 23.4978H102.513C103.488 23.4978 104.301 23.1256 104.951 22.3836C105.602 21.6402 105.926 20.6929 105.926 19.5444C105.926 17.206 104.7 16.0375 102.249 16.0375H101.944V23.4978ZM115.782 40.7637H106.618L102.431 29.6121C102.391 29.4225 102.319 29.1735 102.218 28.8622C102.116 28.5509 101.99 28.1797 101.843 27.7466L101.904 29.8146V40.7637H93.4709V9.46043H102.147C105.967 9.46043 108.824 10.2103 110.722 11.7115C113.132 13.6313 114.339 16.3604 114.339 19.9021C114.339 23.6859 112.719 26.3012 109.482 27.7466L115.782 40.7637ZM130.626 25.2949C130.626 19.6062 129.598 16.7613 127.541 16.7613C126.514 16.7613 125.693 17.5089 125.081 19.0003C124.483 20.3863 124.185 22.424 124.185 25.1123C124.185 27.7596 124.466 29.8142 125.029 31.273C125.592 32.7342 126.374 33.4628 127.374 33.4628C128.402 33.4628 129.194 32.7435 129.751 31.3037C130.334 29.8648 130.626 27.8614 130.626 25.2949ZM139.651 25.2224C139.651 29.9494 138.529 33.7917 136.293 36.7513C134.069 39.6955 131.173 41.1683 127.604 41.1683C124.436 41.1683 121.718 40.037 119.454 37.7744C116.604 34.9096 115.18 30.6119 115.18 24.8804C115.18 19.3924 116.667 15.1942 119.641 12.2885C121.85 10.1332 124.469 9.05436 127.499 9.05436C131.207 9.05436 134.159 10.5146 136.355 13.4333C138.55 16.352 139.651 20.2817 139.651 25.2224ZM149.635 23.9354L150.022 23.9549C151.051 23.9549 151.87 23.6423 152.479 23.0132C153.09 22.3836 153.394 21.5227 153.394 20.4271C153.394 19.3469 153.097 18.4674 152.501 17.7919C151.904 17.1028 151.145 16.7586 150.225 16.7586H149.635V23.9354ZM149.635 40.7641H141.16V9.4609H149.371C153.462 9.4609 156.496 10.293 158.474 11.9559C160.803 13.9151 161.969 16.6405 161.969 20.1289C161.969 23.9271 160.729 26.7598 158.251 28.6252C156.557 29.8825 154.126 30.512 150.956 30.512H149.635V40.7641ZM172.924 30.2212L172.376 26.5726C172.361 26.5591 172.336 26.3765 172.295 26.0239C172.267 25.727 172.125 24.5506 171.868 22.497C171.841 22.2679 171.808 21.9539 171.767 21.5552C171.725 21.1561 171.672 20.6515 171.603 20.0434L171.341 17.0847C171.311 17.3686 171.276 17.685 171.228 18.0362C171.181 18.3884 171.129 18.7727 171.076 19.1927C170.982 20.0299 170.913 20.6116 170.873 20.9364C170.832 21.2597 170.804 21.4572 170.791 21.5232L170.203 25.3153L169.347 30.2212H172.924ZM183.307 40.7632H174.55L173.92 36.7977H168.211L167.52 40.7632H158.762L166.302 9.46136H176.662L183.307 40.7632ZM193.246 40.7632H184.774V16.9723H180.1V9.46136H198.104V16.9723H193.246V40.7632ZM208.103 40.7623H199.63V9.46043H208.103V40.7623ZM218.381 23.9354L218.768 23.9549C219.797 23.9549 220.616 23.6423 221.225 23.0132C221.836 22.3836 222.14 21.5227 222.14 20.4271C222.14 19.3469 221.842 18.4674 221.247 17.7919C220.65 17.1028 219.892 16.7586 218.972 16.7586H218.381V23.9354ZM218.381 40.7641H209.909V9.4609H218.117C222.209 9.4609 225.242 10.293 227.22 11.9559C229.55 13.9151 230.716 16.6405 230.716 20.1289C230.716 23.9271 229.475 26.7598 226.997 28.6252C225.303 29.8825 222.872 30.512 219.702 30.512H218.381V40.7641ZM231.737 39.7727V29.9405C233.436 32.2566 235.275 33.4144 237.25 33.4144C237.997 33.4144 238.603 33.2253 239.074 32.8462C239.543 32.4671 239.779 31.9927 239.779 31.4203C239.779 30.5966 239.267 29.7923 238.245 29.0081L236.835 27.9506C235.896 27.2737 235.094 26.5995 234.43 25.9277C233.767 25.2558 233.229 24.564 232.814 23.8541C232.4 23.1428 232.096 22.4073 231.902 21.6495C231.708 20.8931 231.612 20.0954 231.612 19.2582C231.612 17.8221 231.959 16.3195 232.648 14.751C232.993 14.0197 233.394 13.3516 233.851 12.7462C234.307 12.1422 234.831 11.6083 235.426 11.1419C237.057 9.81307 239.026 9.14775 241.332 9.14775C243.391 9.14775 245.464 9.67787 247.55 10.7376V20.3245C246.845 19.2354 246.043 18.3782 245.146 17.7505C244.248 17.1237 243.364 16.8097 242.494 16.8097C241.831 16.8097 241.284 16.995 240.857 17.3677C240.413 17.7263 240.193 18.157 240.193 18.6621C240.193 19.4858 240.78 20.3035 241.955 21.1129L243.321 22.0895C245.146 23.3505 246.451 24.6463 247.239 25.9741C248.04 27.3029 248.441 28.8557 248.441 30.6361C248.441 33.6649 247.481 36.1612 245.56 38.127C243.64 40.0932 241.209 41.0764 238.266 41.0764C236.235 41.0764 234.057 40.6419 231.737 39.7727ZM249.889 40.7632V9.46136H265.635V16.9723H258.362V21.388H264.884V28.9003H258.362V33.2509H265.635V40.7632H249.889ZM280.126 40.7632H271.654V16.9723H266.98V9.46136H284.982V16.9723H280.126V40.7632Z" fill="white"/>
</svg>
