<svg width="274" height="48" viewBox="0 0 274 48" fill="none" xmlns="http://www.w3.org/2000/svg">
<path d="M13.5216 1.85055L7.56203 2.27056L0 36.7471L8.86294 37.1462C4.13133 30.7076 4.17918 18.7406 13.5216 1.85055Z" fill="#FF2D29"/>
<path d="M49.3832 48L19.3506 45.8749L0 36.7471L33.3894 38.2501L49.3832 48Z" fill="#B30415"/>
<path d="M54.0209 14.9117L46.346 6.87719C43.7734 24.7768 38.8211 34.4036 33.3894 38.2501L49.3832 48L54.0209 14.9117ZM45.518 6.01022L39.7768 0L36.0915 22.0695C39.9055 18.7164 43.077 13.6503 45.518 6.01022Z" fill="#C80011"/>
<path d="M46.346 6.87719L45.518 6.01022C43.077 13.6503 39.9055 18.7164 36.0915 22.0695L33.3894 38.2501C38.8211 34.4036 43.7734 24.7768 46.346 6.87719Z" fill="#E8E4E2"/>
<path d="M23.7347 23.1595C19.4951 23.1642 16.8784 19.4487 17.777 14.9201C18.6625 10.4566 22.6721 6.70993 26.8416 6.48877C31.122 6.26158 34.0268 9.81446 33.2142 14.494C32.389 19.2452 28.0909 23.1549 23.7347 23.1595ZM39.7768 0L14.9707 1.74834C10.1982 19.391 14.5465 27.3438 22.7586 27.4456C26.9898 27.4981 32.3839 25.2168 36.0915 22.0695L39.7768 0Z" fill="#FF2D29"/>
<path d="M23.7347 23.1595C28.0909 23.1549 32.389 19.2452 33.2142 14.494C34.0268 9.81446 31.122 6.26158 26.8416 6.48877C22.6721 6.70993 18.6625 10.4566 17.777 14.9201C16.8784 19.4487 19.4951 23.1642 23.7347 23.1595Z" fill="white"/>
<path d="M22.7586 27.4456C14.5465 27.3438 10.1982 19.391 14.9707 1.74834L13.5216 1.85055C4.17918 18.7406 4.13133 30.7076 8.86294 37.1462L33.3894 38.2501L36.0915 22.0695C32.3839 25.2168 26.9898 27.4981 22.7586 27.4456Z" fill="white"/>
<path fill-rule="evenodd" clip-rule="evenodd" d="M273.516 46.2326H52.2977V5.01967H273.516V46.2326Z" fill="#008733"/>
<path d="M58.6471 39.538V11.3612H72.7903V18.1222H66.2574V22.0969H72.1152V28.8594H66.2574V32.7756H72.7903V39.538H58.6471ZM85.8775 11.3607H93.4874V31.2772C93.4874 32.9164 93.2249 34.2433 92.7027 35.2594C92.1911 36.3234 91.3395 37.287 90.1468 38.147C88.5416 39.2955 86.5884 39.8688 84.2899 39.8688C81.6853 39.8688 79.5016 39.2356 77.738 37.9681C75.4981 36.3531 74.3793 33.7713 74.3793 30.2198V11.3607H81.9896V29.7519C81.9896 30.9748 82.1383 31.8389 82.4366 32.3463C82.7349 32.8541 83.2371 33.1069 83.9429 33.1069C84.6728 33.1069 85.1759 32.8718 85.4575 32.3997C85.7367 31.9049 85.8775 31.0282 85.8775 29.7709V11.3607ZM102.716 23.9963H103.228C104.103 23.9963 104.833 23.6608 105.417 22.9932C106.002 22.3241 106.293 21.4716 106.293 20.4374C106.293 18.3327 105.192 17.2808 102.991 17.2808H102.716V23.9963ZM115.145 39.5385H106.914L103.154 29.5001C103.118 29.3296 103.054 29.1052 102.963 28.825C102.871 28.5448 102.758 28.2108 102.625 27.821L102.68 29.6827V39.5385H95.1061V11.3607H102.899C106.33 11.3607 108.896 12.0353 110.6 13.3869C112.765 15.1148 113.849 17.5716 113.849 20.7593C113.849 24.1654 112.394 26.5196 109.487 27.821L115.145 39.5385ZM128.478 25.6141C128.478 20.4931 127.555 17.9326 125.708 17.9326C124.785 17.9326 124.047 18.6054 123.498 19.9481C122.961 21.1956 122.692 23.0299 122.692 25.4496C122.692 27.8321 122.946 29.6822 123.451 30.9952C123.957 32.3105 124.659 32.9665 125.557 32.9665C126.48 32.9665 127.192 32.3189 127.692 31.0226C128.216 29.7273 128.478 27.9241 128.478 25.6141ZM136.584 25.5486C136.584 29.8039 135.577 33.2625 133.568 35.9266C131.57 38.5767 128.969 39.9027 125.764 39.9027C122.918 39.9027 120.477 38.8843 118.444 36.8475C115.884 34.2689 114.604 30.4 114.604 25.241C114.604 20.3012 115.94 16.5216 118.611 13.9063C120.596 11.9661 122.948 10.995 125.67 10.995C129 10.995 131.652 12.3094 133.624 14.9368C135.596 17.5637 136.584 21.1013 136.584 25.5486ZM145.552 24.3898L145.899 24.4079C146.823 24.4079 147.559 24.1264 148.106 23.56C148.655 22.9932 148.928 22.2182 148.928 21.2318C148.928 20.2599 148.661 19.4682 148.125 18.86C147.59 18.2397 146.908 17.9298 146.081 17.9298H145.552V24.3898ZM145.552 39.5385H137.939V11.3607H145.314C148.989 11.3607 151.714 12.1096 153.491 13.6066C155.583 15.3703 156.63 17.8234 156.63 20.9638C156.63 24.3828 155.516 26.9326 153.29 28.6117C151.769 29.7435 149.585 30.3104 146.738 30.3104H145.552V39.5385ZM166.47 30.0483L165.978 26.764C165.964 26.7519 165.942 26.5874 165.905 26.2701C165.88 26.0029 165.752 24.9441 165.52 23.0954C165.497 22.8891 165.467 22.6066 165.43 22.2475C165.393 21.8883 165.345 21.4339 165.283 20.8866L165.047 18.2235C165.021 18.479 164.989 18.7638 164.946 19.0798C164.904 19.3971 164.857 19.7428 164.81 20.121C164.725 20.8746 164.663 21.3982 164.627 21.6904C164.59 21.9817 164.565 22.1592 164.554 22.2187L164.025 25.6322L163.257 30.0483H166.47ZM175.795 39.538H167.93L167.364 35.9684H162.236L161.616 39.538H153.749L160.521 11.3612H169.827L175.795 39.538ZM184.723 39.538H177.112V18.1222H172.915V11.3612H189.086V18.1222H184.723V39.538ZM198.066 39.5371H190.456V11.3607H198.066V39.5371ZM207.298 24.3898L207.645 24.4079C208.57 24.4079 209.305 24.1264 209.853 23.56C210.401 22.9932 210.675 22.2182 210.675 21.2318C210.675 20.2599 210.407 19.4682 209.872 18.86C209.337 18.2397 208.656 17.9298 207.829 17.9298H207.298V24.3898ZM207.298 39.5385H199.688V11.3607H207.061C210.736 11.3607 213.46 12.1096 215.238 13.6066C217.329 15.3703 218.377 17.8234 218.377 20.9638C218.377 24.3828 217.263 26.9326 215.037 28.6117C213.516 29.7435 211.332 30.3104 208.485 30.3104H207.298V39.5385ZM219.295 38.6464V29.796C220.82 31.8803 222.472 32.9229 224.246 32.9229C224.916 32.9229 225.461 32.7524 225.884 32.4113C226.306 32.0703 226.517 31.6433 226.517 31.1281C226.517 30.3861 226.058 29.6622 225.139 28.956L223.873 28.0045C223.03 27.3949 222.309 26.7881 221.713 26.1837C221.118 25.5787 220.634 24.9562 220.261 24.3169C219.89 23.6766 219.617 23.0146 219.442 22.3325C219.268 21.6514 219.182 20.9336 219.182 20.18C219.182 18.8869 219.493 17.5349 220.112 16.1225C220.423 15.4641 220.783 14.8634 221.193 14.3184C221.602 13.7744 222.073 13.2939 222.607 12.8739C224.072 11.6776 225.841 11.0791 227.912 11.0791C229.762 11.0791 231.624 11.5563 233.497 12.5101V21.1398C232.864 20.1595 232.143 19.3878 231.337 18.8228C230.531 18.2588 229.737 17.9758 228.956 17.9758C228.361 17.9758 227.869 18.1426 227.485 18.4781C227.087 18.801 226.889 19.1889 226.889 19.6433C226.889 20.3849 227.416 21.1208 228.472 21.8493L229.699 22.7284C231.337 23.8639 232.51 25.03 233.218 26.225C233.937 27.4214 234.297 28.819 234.297 30.4219C234.297 33.1482 233.435 35.3951 231.709 37.1652C229.985 38.935 227.801 39.8196 225.158 39.8196C223.334 39.8196 221.378 39.4284 219.295 38.6464ZM235.598 39.538V11.3612H249.741V18.1222H243.208V22.0969H249.066V28.8594H243.208V32.7756H249.741V39.538H235.598ZM262.757 39.538H255.147V18.1222H250.949V11.3612H267.118V18.1222H262.757V39.538Z" fill="white"/>
</svg>
