<svg width="142" height="49" viewBox="0 0 142 49" fill="none" xmlns="http://www.w3.org/2000/svg">
<path d="M0 3.09169V48.9995H34.7385C46.5724 48.9995 69.2426 49.1258 83.9464 45.4549C98.6502 41.7839 129.522 31.7428 142 40.9202C137.94 23.5669 136.519 10.0389 137.841 0C137.841 0 119.856 0.431875 109.898 5.50641C99.9389 10.5809 81.6617 6.5861 80.5487 6.37016C79.4356 6.15422 70.2484 3.09115 44.9315 3.09115L0 3.09169Z" fill="white"/>
<path d="M46.3913 9.09205H40.4911V14.2503H46.3913V9.09205Z" fill="#00A88B"/>
<path d="M37.231 9.09205H31.3308V14.2503H37.231V9.09205Z" fill="#00A88B"/>
<path d="M33.8861 16.5171L29.223 42.9878H36.497L36.9973 38.7414H41.1355L41.6984 42.9878H48.8406L44.638 16.5171H33.8861ZM37.7448 33.0061L39.1361 21.5781L40.3077 33.0061H37.7448Z" fill="#00A88B"/>
<path d="M129.369 31.8643C131.264 31.915 132.645 32.0624 134.306 32.3318C132.276 27.1612 130.075 20.0255 130.075 20.0255L128.159 19.2157L129.747 17.9201L128.486 7.68252L125.746 5.58145C120.536 6.46625 117.107 7.72355 114.297 9.25563C112.829 10.0557 111.185 10.7067 109.37 11.2077C110.52 12.208 115.146 16.4442 117.827 24.5008C119.457 29.3983 120.691 30.7349 121.358 31.989C123.106 31.833 124.941 31.8524 126.529 31.8373C125.84 30.7069 122.7 21.549 122.7 21.549L125.399 21.5738L129.369 31.8643ZM121.838 18.3471C119.925 13.7072 119.29 12.899 119.29 12.899L123.058 11.7853L124.416 18.3471H121.838Z" fill="#00A88B"/>
<path d="M104.347 11.7848L104.268 11.7897C101.935 12.2334 99.3619 12.4569 96.5559 12.4569C96.26 12.4569 95.9619 12.4542 95.6614 12.4493C95.9244 12.7927 96.6479 13.9399 97.5172 17.0213C98.4445 20.31 97.3485 32.9488 96.9888 36.5955C99.4884 35.9045 102.092 35.2739 104.746 34.6483C104.846 33.7608 104.912 32.267 104.951 31.3687L108.537 30.6928C108.769 31.6959 108.948 33.1275 109.066 33.6981C111.313 33.2414 113.574 32.7907 115.82 32.4846C116.114 32.4446 116.405 32.4068 116.695 32.3707C115.97 30.6442 113.969 25.5476 110.94 20.2609C107.075 13.5128 104.347 11.7848 104.347 11.7848ZM104.919 26.2877C104.674 21.3919 103.921 17.5071 103.921 17.5071C105.197 19.2622 106.364 22.5801 107.277 25.7754L104.919 26.2877Z" fill="#00A88B"/>
<path d="M69.9731 19.3426L70.0469 11.2207L65.8384 9.09367H56.5446L52.9213 11.2207V23.7056L62.688 27.5504L62.5128 36.7256L59.9692 36.7796L60.0741 28.6765L52.9213 28.9621V40.8608L56.5446 42.9878L65.8384 42.124L69.4616 39.6731L69.9883 24.6066L60.2053 20.4612L60.3154 14.2141L63.0183 14.2886L62.8432 19.626L69.9731 19.3426Z" fill="#00A88B"/>
<path d="M91.8665 12.3797C91.5554 12.3646 91.5537 12.363 91.2367 12.343C88.7441 12.1827 84.7928 11.7632 80.1251 10.6781C80.0706 10.6652 80.0285 10.6554 80.0003 10.6495C79.8334 10.6128 79.6729 10.5696 79.4696 10.5156C77.9477 10.1107 76.4316 9.76308 74.4363 9.47318L74.3385 16.0172L79.643 16.218L79.4421 40.7458L86.1361 39.1274L86.6411 16.6509L92.9455 16.8809C92.9198 15.6064 92.539 13.7466 91.8665 12.3797Z" fill="#00A88B"/>
<path d="M17.6656 21.5878H14.9879V9.09367H7.64597V42.9878H14.9879V28.1469H17.6656V42.9878H25.0076V9.09367H17.6656V21.5878Z" fill="#00A88B"/>
</svg>
