<svg width="195" height="48" viewBox="0 0 195 48" fill="none" xmlns="http://www.w3.org/2000/svg">
<path d="M58.5207 3.02859V47.9995H91.7117C103.018 47.9995 124.679 48.1232 138.728 44.5272C152.776 40.9312 182.273 31.095 194.195 40.0851C190.316 23.0859 188.959 9.83406 190.221 0C190.221 0 173.038 0.423061 163.523 5.39403C154.008 10.365 136.545 6.45169 135.481 6.24016C134.418 6.02863 125.64 3.02806 101.451 3.02806L58.5207 3.02859Z" fill="white"/>
<path d="M102.846 8.9065H97.2081V13.9594H102.846V8.9065Z" fill="#00A88B"/>
<path d="M94.0933 8.9065H88.4558V13.9594H94.0933V8.9065Z" fill="#00A88B"/>
<path d="M90.8973 16.18L86.442 42.1105H93.3919L93.8699 37.9507H97.8238L98.3616 42.1105H105.186L101.17 16.18H90.8973ZM94.5841 32.3325L95.9135 21.1377L97.0329 32.3325H94.5841Z" fill="#00A88B"/>
<path d="M182.127 31.214C183.938 31.2637 185.257 31.4081 186.844 31.672C184.905 26.6069 182.802 19.6168 182.802 19.6168L180.971 18.8236L182.488 17.5544L181.283 7.52574L178.665 5.46754C173.687 6.33429 170.411 7.56593 167.726 9.06674C166.324 9.85046 164.753 10.4882 163.019 10.979C164.118 11.9589 168.537 16.1086 171.099 24.0008C172.656 28.7983 173.836 30.1077 174.473 31.3362C176.143 31.1833 177.896 31.2024 179.414 31.1876C178.755 30.0802 175.755 21.1092 175.755 21.1092L178.334 21.1335L182.127 31.214ZM174.931 17.9727C173.104 13.4274 172.497 12.6358 172.497 12.6358L176.097 11.5448L177.394 17.9727H174.931Z" fill="#00A88B"/>
<path d="M158.219 11.5443L158.144 11.549C155.915 11.9837 153.456 12.2027 150.775 12.2027C150.493 12.2027 150.208 12.2 149.921 12.1953C150.172 12.5316 150.863 13.6554 151.694 16.6739C152.58 19.8955 151.533 32.2764 151.189 35.8486C153.577 35.1717 156.065 34.5541 158.601 33.9412C158.696 33.0718 158.759 31.6085 158.797 30.7285L162.223 30.0664C162.444 31.049 162.616 32.4515 162.728 33.0104C164.875 32.563 167.036 32.1215 169.182 31.8216C169.463 31.7825 169.741 31.7455 170.017 31.71C169.325 30.0189 167.413 25.0262 164.519 19.8474C160.826 13.2371 158.219 11.5443 158.219 11.5443ZM158.767 25.7512C158.532 20.9553 157.813 17.1499 157.813 17.1499C159.032 18.8691 160.147 22.1192 161.019 25.2494L158.767 25.7512Z" fill="#00A88B"/>
<path d="M125.377 18.9479L125.447 10.9917L121.426 8.90809H112.546L109.085 10.9917V23.2218L118.416 26.9881L118.249 35.9761L115.819 36.029L115.919 28.0913L109.085 28.371V40.0269L112.546 42.1105L121.426 41.2644L124.888 38.8635L125.391 24.1045L116.044 20.0436L116.149 13.924L118.732 13.997L118.565 19.2255L125.377 18.9479Z" fill="#00A88B"/>
<path d="M146.295 12.1271C145.998 12.1123 145.996 12.1107 145.693 12.0911C143.312 11.934 139.536 11.5231 135.077 10.4602C135.025 10.4475 134.984 10.438 134.957 10.4322C134.798 10.3962 134.645 10.3539 134.45 10.301C132.996 9.9044 131.548 9.56383 129.641 9.27985L129.548 15.6903L134.616 15.887L134.424 39.9143L140.82 38.3288L141.302 16.3111L147.326 16.5364C147.301 15.2879 146.938 13.466 146.295 12.1271Z" fill="#00A88B"/>
<path d="M75.3994 21.1473H72.841V8.90809H65.8261V42.1105H72.841V27.5725H75.3994V42.1105H82.4143V8.90809H75.3994V21.1473Z" fill="#00A88B"/>
<path d="M9.98978 5.26857L4.35698 6.17249L0 39.7087L8.46241 39.3409C3.43291 33.5972 2.49361 22.174 9.98978 5.26857Z" fill="#FF2D29"/>
<path d="M47.8921 46.2765L19.1546 46.7843L0 39.7087L31.8792 38.3236L47.8921 46.2765Z" fill="#B30415"/>
<path d="M49.5818 14.312L41.6214 7.29316C40.647 24.5906 36.7286 34.1947 31.8792 38.3236L47.8921 46.2765L49.5818 14.312ZM40.7626 6.53578L34.8082 1.28542L33.1184 22.6558C36.4702 19.134 39.0693 14.0324 40.7626 6.53578Z" fill="#C80011"/>
<path d="M41.6214 7.29316L40.7626 6.53578C39.0693 14.0324 36.4702 19.134 33.1184 22.6558L31.8792 38.3236C36.7286 34.1947 40.647 24.5906 41.6214 7.29316Z" fill="#E8E4E2"/>
<path d="M21.4562 24.7395C17.4242 25.1017 14.6298 21.777 15.112 17.3803C15.5873 13.0467 19.0924 9.1327 23.0397 8.56941C27.0919 7.99138 30.1469 11.1365 29.7589 15.6701C29.365 20.2734 25.5984 24.3667 21.4562 24.7395ZM34.8082 1.28542L11.3598 5.04849C8.27189 22.2862 13.0615 29.5077 20.88 28.9115C24.9087 28.6042 29.851 25.9721 33.1184 22.6558L34.8082 1.28542Z" fill="#FF2D29"/>
<path d="M21.4562 24.7395C25.5984 24.3667 29.365 20.2734 29.7589 15.6701C30.1469 11.1365 27.0919 7.99138 23.0397 8.56941C19.0924 9.1327 15.5873 13.0467 15.112 17.3803C14.6298 21.777 17.4242 25.1017 21.4562 24.7395Z" fill="white"/>
<path d="M20.88 28.9115C13.0615 29.5077 8.27189 22.2862 11.3598 5.04849L9.98978 5.26857C2.49361 22.174 3.43291 33.5972 8.46241 39.3409L31.8792 38.3236L33.1184 22.6558C29.851 25.9721 24.9087 28.6042 20.88 28.9115Z" fill="white"/>
</svg>
