<svg width="141" height="48" viewBox="0 0 141 48" fill="none" xmlns="http://www.w3.org/2000/svg">
<path d="M7.14639 6.28652L1.43852 7.71363L0 42.455L8.66407 41.3258C2.97404 35.8892 0.974113 24.271 7.14639 6.28652Z" fill="#FF2D29"/>
<path d="M49.8175 44.9247L20.3283 48L0 42.455L32.639 38.2015L49.8175 44.9247Z" fill="#B30415"/>
<path d="M48.6572 12.0302L39.8398 5.54825C40.4058 23.3542 37.2492 33.5408 32.639 38.2015L49.8175 44.9247L48.6572 12.0302ZM38.8886 4.84888L32.2931 0L32.4925 22.0415C35.6185 18.1359 37.828 12.6788 38.8886 4.84888Z" fill="#C80011"/>
<path d="M39.8398 5.54825L38.8886 4.84888C37.828 12.6788 35.6185 18.1359 32.4925 22.0415L32.639 38.2015C37.2492 33.5408 40.4058 23.3542 39.8398 5.54825Z" fill="#E8E4E2"/>
<path d="M20.6952 25.2129C16.5846 25.9429 13.4111 22.7853 13.5086 18.2385C13.6037 13.7567 16.8518 9.43596 20.8576 8.5082C24.9701 7.55527 28.3948 10.5056 28.4067 15.1842C28.419 19.9347 24.9193 24.4632 20.6952 25.2129ZM32.2931 0L8.53413 5.93958C6.92265 23.8723 12.4997 30.844 20.4815 29.5382C24.5944 28.8649 29.4352 25.7292 32.4925 22.0415L32.2931 0Z" fill="#FF2D29"/>
<path d="M20.6952 25.2129C24.9193 24.4632 28.419 19.9347 28.4067 15.1842C28.3948 10.5056 24.9701 7.55527 20.8576 8.5082C16.8518 9.43596 13.6037 13.7567 13.5086 18.2385C13.4111 22.7853 16.5846 25.9429 20.6952 25.2129Z" fill="white"/>
<path d="M20.4815 29.5382C12.4997 30.844 6.92265 23.8723 8.53413 5.93958L7.14639 6.28652C0.974113 24.271 2.97404 35.8892 8.66407 41.3258L32.639 38.2015L32.4925 22.0415C29.4352 25.7292 24.5944 28.8649 20.4815 29.5382Z" fill="white"/>
<path d="M76.1059 14.3954H82.4954V37.2718H76.1059V42.8336H94.6784V37.2718H88.289V14.3954H94.6784V8.83362H76.1059V14.3954ZM140.994 13.5016V8.83362H122.786V42.8336H140.994V38.1657H128.579V27.7041H140.232V23.003H128.579V13.5016H140.994ZM59.0231 8.83362H53.2627V42.8336H71.14V37.2056H59.0231V8.83362ZM105.438 42.8336V40.9135H117.82V36.2455H99.6444V42.8336H105.438ZM117.687 8.83362L111.629 31.6106H105.835L99.7768 8.83362H105.736L108.749 21.1491L111.761 8.83362H117.687Z" fill="white"/>
</svg>
