<svg width="247" height="48" viewBox="0 0 247 48" fill="none" xmlns="http://www.w3.org/2000/svg">
<path d="M13.5568 1.85055L7.58171 2.27056L0 36.7471L8.88648 37.1462C4.14209 30.7081 4.19006 18.7406 13.5568 1.85055Z" fill="#FF2D29"/>
<path d="M49.5117 48L19.401 45.8749L0 36.7471L33.4763 38.2501L49.5117 48Z" fill="#B30415"/>
<path d="M54.1615 14.9122L46.4666 6.87719C43.8874 24.7768 38.9222 34.4041 33.4763 38.2501L49.5117 48L54.1615 14.9122ZM45.6365 6.01022L39.8804 0L36.1855 22.0695C40.0099 18.7164 43.1891 13.6508 45.6365 6.01022Z" fill="#C80011"/>
<path d="M46.4666 6.87719L45.6365 6.01022C43.1891 13.6503 40.0099 18.7164 36.1855 22.0695L33.4763 38.2501C38.9222 34.4041 43.8874 24.7773 46.4666 6.87719Z" fill="#E8E4E2"/>
<path d="M23.7965 23.1595C19.5459 23.1646 16.9224 19.4487 17.8233 14.9201C18.7111 10.4566 22.7316 6.70993 26.9114 6.48877C31.2031 6.26158 34.1154 9.81447 33.3007 14.494C32.4734 19.2452 28.164 23.1549 23.7965 23.1595ZM39.8804 0L15.0097 1.74834C10.2248 19.3911 14.5844 27.3438 22.8178 27.446C27.0605 27.4985 32.4682 25.2168 36.1855 22.0695L39.8804 0Z" fill="#FF2D29"/>
<path d="M23.7965 23.1595C28.164 23.1549 32.4733 19.2452 33.3006 14.4945C34.1154 9.81494 31.2031 6.26158 26.9114 6.48877C22.7316 6.70993 18.7111 10.4566 17.8233 14.9201C16.9224 19.4487 19.5459 23.1646 23.7965 23.1595Z" fill="white"/>
<path d="M22.8178 27.446C14.5844 27.3438 10.2248 19.3911 15.0097 1.74834L13.5568 1.85055C4.19006 18.7406 4.14209 30.7081 8.88601 37.1462L33.4763 38.2501L36.1855 22.0695C32.4682 25.2168 27.0605 27.4981 22.8178 27.446Z" fill="white"/>
<path d="M55.9601 40.0026H62.0353V21.3001L70.8421 35.4048L79.138 21.2746V40.0026H85.1624V10.6731H78.1476L70.837 23.8156L63.0056 10.6731H55.9601V40.0026ZM91.2782 10.6731C93.1671 13.0714 96.1181 14.6246 99.4468 14.6246C102.775 14.6246 105.726 13.0765 107.61 10.6731H91.2782ZM99.4468 28.49C97.6651 28.49 96.2257 27.0488 96.2257 25.2768C96.2257 23.5047 97.6707 22.064 99.4468 22.064C101.223 22.064 102.668 23.5098 102.668 25.2768C102.668 27.0437 101.223 28.49 99.4468 28.49ZM99.4468 17.1247C94.9437 17.1247 91.2782 20.7807 91.2782 25.2716C91.2782 29.7631 94.9437 33.4191 99.4468 33.4191C103.949 33.4191 107.615 29.7631 107.615 25.2716C107.615 20.7807 103.949 17.1247 99.4468 17.1247ZM107.61 40.0026C105.721 37.6043 102.77 36.0516 99.4422 36.0516C96.1134 36.0516 93.1624 37.5992 91.2782 40.0026H107.61ZM113.751 40.0026H119.827V21.3001L128.633 35.4048L136.93 21.2746V40.0026H142.953V10.6731H135.939L128.628 23.8156L120.797 10.6731H113.751V40.0026ZM156.452 18.5455C156.452 17.8885 157.922 16.0045 160.423 16.0045C162.925 16.0045 164.395 17.8987 164.395 18.5455V23.4541L156.533 23.4336L156.452 18.5455ZM170.368 35.98V18.9576C170.368 16.2642 169.567 14.2631 167.979 13.0152C166.626 11.9461 164.201 10.6731 160.357 10.6731C157.345 10.6731 154.915 11.4369 152.919 13.0152C151.331 14.2682 150.53 16.2642 150.509 18.9576V35.9294H147.548V40.0031H158.422V35.98H156.431V28.5458H164.447V35.98H162.558V40.0031H173.176V35.98H170.368ZM202.276 40.0026V10.6731H196.201V19.9658L186.915 10.6731H177.771V40.0026H183.846V16.6052L196.201 28.9175V40.0026H202.276ZM235.81 24.6179L235.799 24.4423C235.714 22.9551 235.412 21.5036 234.898 20.1219L234.767 19.7702L220.262 25.1857L222.202 30.335L229.331 27.6421L229.27 27.8331C228.429 30.5659 226.278 32.6906 223.527 33.5199C219.361 34.7757 214.792 32.5953 213.124 28.5616C212.232 26.3862 212.252 24.0051 213.184 21.8502C214.116 19.6949 215.839 18.0525 218.036 17.2185C220.595 16.254 223.381 16.5504 225.684 18.0321L225.759 18.0822L231.824 15.8219L230.903 14.7668C227.905 12.0943 224.227 10.6224 220.55 10.6224C218.625 10.6224 216.761 11.0192 215.023 11.803C208.328 14.8072 204.837 22.3827 206.903 29.4257C208.081 33.4242 210.771 36.6495 214.489 38.5029C216.555 39.5329 218.822 40.0602 221.089 40.0602C222.847 40.0602 224.61 39.749 226.283 39.1157C232.283 36.8354 236.097 31.0282 235.81 24.6179ZM247 31.9644H238.934V40.0096H247V31.9644Z" fill="white"/>
</svg>
