<svg width="323" height="48" viewBox="0 0 323 48" fill="none" xmlns="http://www.w3.org/2000/svg">
<path d="M13.5012 1.85055L7.5506 2.27056L0 36.7471L8.85001 37.1462C4.12509 30.7076 4.17287 18.7406 13.5012 1.85055Z" fill="#FF2D29"/>
<path d="M49.3085 48L19.3214 45.8749L0 36.7471L33.3389 38.2501L49.3085 48Z" fill="#B30415"/>
<path d="M53.9393 14.9117L46.2759 6.87719C43.7073 24.7768 38.7624 34.4036 33.3389 38.2501L49.3085 48L53.9393 14.9117ZM45.4492 6.01022L39.7167 0L36.037 22.0695C39.8457 18.7164 43.0119 13.6508 45.4492 6.01022Z" fill="#C80011"/>
<path d="M46.2759 6.87719L45.4492 6.01022C43.0119 13.6503 39.8452 18.7164 36.037 22.0695L33.3389 38.2501C38.7624 34.4041 43.7073 24.7768 46.2759 6.87719Z" fill="#E8E4E2"/>
<path d="M23.6988 23.1595C19.4657 23.1646 16.8529 19.4487 17.7501 14.9201C18.6343 10.4566 22.6379 6.70993 26.801 6.48877C31.075 6.26158 33.9754 9.81446 33.164 14.494C32.3401 19.2452 28.0485 23.1549 23.6988 23.1595ZM39.7167 0L14.9481 1.74834C10.1828 19.391 14.5246 27.3438 22.7242 27.446C26.949 27.4981 32.335 25.2168 36.037 22.0695L39.7167 0Z" fill="#FF2D29"/>
<path d="M23.6988 23.1595C28.0485 23.1549 32.3401 19.2452 33.164 14.494C33.9754 9.81493 31.075 6.26158 26.801 6.48877C22.6379 6.70993 18.6343 10.4566 17.7501 14.9201C16.8529 19.4487 19.4657 23.1646 23.6988 23.1595Z" fill="white"/>
<path d="M14.9481 1.74834C10.1828 19.391 14.5245 27.3438 22.7241 27.4456C26.949 27.4981 32.335 25.2168 36.037 22.0695L33.3389 38.2501L8.84952 37.1462C4.12506 30.7076 4.17287 18.7406 13.5012 1.85055L14.9481 1.74834Z" fill="white"/>
<path d="M215.422 22.799H225.873C226.337 22.799 226.834 22.483 226.96 22.1081L227.975 18.9645C228.092 18.5901 227.805 18.2741 227.339 18.2741H216.89L215.422 22.799ZM202.37 39.7875L211.726 10.8854H229.944C234.641 10.8854 237.256 14.5944 235.781 19.1583L234.766 22.2953C233.292 26.8592 228.267 30.5682 223.577 30.5682H213.003L210.016 39.788L202.37 39.7875ZM254.174 39.788H236.615C234.289 39.788 232.64 37.5193 233.363 35.3031L241.286 10.8854H248.82L241.89 32.2385H256.625L254.174 39.788ZM197.582 18.295C198.048 18.295 198.344 18.6105 198.22 18.9854L197.201 22.1225C197.083 22.497 196.584 22.8134 196.117 22.8134H185.212L186.678 18.2955L197.582 18.295ZM182.799 30.5092H190.235L192.266 39.788H200.245L197.846 28.8454C201.367 27.9046 204.959 24.9984 205.795 19.9607C206.734 14.2789 203.26 10.8854 198.55 10.8854H181.505L172.126 39.7875H179.791L182.799 30.5092ZM58.1311 23.0187H68.5803C69.0456 23.0187 69.5433 22.7028 69.6677 22.3279L70.6832 19.1843C70.8015 18.8098 70.5129 18.4939 70.0476 18.4939H59.598L58.1311 23.0187ZM45.1468 39.7875L54.5015 10.8854H72.7206C77.4177 10.8854 80.0319 14.5944 78.5585 19.1583L77.543 22.2953C76.0687 26.8592 71.0441 30.5682 66.353 30.5682H55.7791L52.792 39.788L45.1468 39.7875ZM139.862 13.0161L134.954 28.1806L132.115 18.2755H126.734L117.731 28.2735L123.295 11.0824H115.967L106.674 39.788H114.414C115.266 39.788 116.072 39.433 116.655 38.8146L126.257 28.549L129.58 39.7875H138.525L147.884 10.8854H142.786C141.455 10.8854 140.275 11.7468 139.862 13.0161ZM271.408 18.8572C271.494 18.6007 271.881 18.3183 272.308 18.3183H282.554C282.979 18.3183 283.19 18.6007 283.097 18.8572L281.798 22.5741H270.102L271.408 18.8572ZM256.74 39.788H264.596L268.226 28.3562H279.922L276.293 39.788H283.735L290.49 19.0421C291.841 14.8848 289.82 11.4383 285.948 10.8854H273.352C269.106 11.4448 264.852 14.8848 263.5 19.0421L256.74 39.788ZM313.528 10.8854L305.351 19.2568L301.125 10.8854H292.41L300.009 27.5761L294.682 39.788H301.921C302.591 39.788 303.195 39.3805 303.438 38.7556L307.537 28.385L323 10.8854H313.528ZM168.168 39.788C168.574 39.788 169.016 39.4558 169.147 39.0483L171.386 32.2334H151.372L152.658 28.1481H165.699C166.14 28.1481 166.614 27.7922 166.757 27.3508L168.422 22.2744H154.495L155.839 18.2978H172.87C173.276 18.2978 173.718 17.9647 173.849 17.5582L175.935 10.8854H151.17L144.112 32.6701C143.484 34.6145 141.616 39.7824 148.205 39.7824L168.168 39.788ZM99.0373 29.2933C98.5484 30.7889 96.92 32.008 95.4026 32.008H87.8195C86.2974 32.008 85.4717 30.7936 85.9653 29.2933L88.4152 21.8247L85.7245 18.682L99.7796 18.6635C101.302 18.6635 102.139 19.8185 101.645 21.3192L99.0373 29.2933ZM104.847 10.8854H92.2438C87.787 10.8854 83.0014 14.4648 81.5475 18.8763L77.3096 31.7971C75.8609 36.2142 78.2959 39.788 82.7578 39.788H95.3664C99.8241 39.788 104.609 36.2091 106.058 31.7971L110.296 18.8763C111.744 14.4597 109.309 10.8854 104.847 10.8854Z" fill="black"/>
</svg>
