<svg width="248" height="48" viewBox="0 0 248 48" fill="none" xmlns="http://www.w3.org/2000/svg">
<path d="M5.22959 10.2709L0 12.6019L4.49084 46.1231L12.6042 43.578C6.23196 39.3313 2.35207 28.5405 5.22959 10.2709Z" fill="#FF2D29"/>
<path d="M52.6557 40.0717L24.9109 48L4.49084 46.1231L35.0548 36.5342L52.6557 40.0717Z" fill="#B30415"/>
<path d="M45.986 8.75904L36.4401 4.03962C39.9905 20.9999 38.6862 31.2908 35.0548 36.5342L52.6557 40.0717L45.986 8.75904ZM35.4102 3.53033L28.2693 0L32.1844 21.0796C34.5209 16.8102 35.7161 11.2098 35.4102 3.53033Z" fill="#C80011"/>
<path d="M36.4401 4.03962L35.4102 3.53033C35.7161 11.2098 34.5209 16.8102 32.1844 21.0796L35.0548 36.5342C38.6862 31.2908 39.9905 20.9999 36.4401 4.03962Z" fill="#E8E4E2"/>
<path d="M21.4131 26.1106C17.5964 27.5045 14.0216 25.0159 13.3465 20.6442C12.6808 16.3352 15.064 11.6474 18.7462 10.0817C22.5272 8.47457 26.3078 10.7219 27.1102 15.2018C27.9242 19.7498 25.3348 24.6785 21.4131 26.1106ZM28.2693 0L6.50091 9.70373C7.98643 27.1537 14.5096 32.8895 21.939 30.29C25.7672 28.9505 29.8773 25.1285 32.1844 21.0796L28.2693 0Z" fill="#FF2D29"/>
<path d="M21.4131 26.1106C25.3348 24.6785 27.9242 19.7498 27.1102 15.2018C26.3078 10.7219 22.5272 8.47457 18.7462 10.0817C15.064 11.6474 12.6808 16.3352 13.3465 20.6442C14.0216 25.0159 17.5964 27.5045 21.4131 26.1106Z" fill="white"/>
<path d="M21.939 30.29C14.5096 32.8895 7.98643 27.1537 6.50091 9.70373L5.22959 10.2709C2.35207 28.5405 6.23196 39.3313 12.6042 43.578L35.0548 36.5342L32.1844 21.0796C29.8773 25.1285 25.7672 28.9505 21.939 30.29ZM47.3931 39.3612V29.8849C49.0278 32.1175 50.7952 33.2332 52.6958 33.2332C53.4131 33.2332 53.9983 33.0506 54.4507 32.6856C54.9022 32.321 55.128 31.8624 55.128 31.3117C55.128 30.518 54.6368 29.742 53.6532 28.9861L52.2972 27.9679C51.3937 27.3149 50.6229 26.6644 49.9852 26.0176C49.3467 25.3707 48.8283 24.7043 48.4289 24.0191C48.0308 23.3331 47.7391 22.6262 47.5526 21.8956C47.3664 21.1655 47.2734 20.3967 47.2734 19.5895C47.2734 18.2055 47.606 16.7577 48.2704 15.2463C48.6021 14.5416 48.9878 13.8978 49.4268 13.3151C49.8654 12.7314 50.3704 12.2164 50.9422 11.7681C52.5096 10.4864 54.4035 9.84574 56.6233 9.84574C58.604 9.84574 60.5971 10.3568 62.6041 11.3776V20.6188C61.9259 19.5682 61.1551 18.7415 60.2912 18.1369C59.4269 17.5328 58.5773 17.23 57.7401 17.23C57.1024 17.23 56.5774 17.4095 56.1651 17.7678C55.7394 18.1133 55.5274 18.5295 55.5274 19.0152C55.5274 19.8099 56.0912 20.597 57.2222 21.3774L58.5372 22.3176C60.2912 23.5343 61.547 24.7826 62.3053 26.0621C63.0752 27.3429 63.4609 28.8401 63.4609 30.5554C63.4609 33.474 62.5369 35.8816 60.6898 37.7754C58.8422 39.6701 56.504 40.617 53.6727 40.617C51.7192 40.617 49.6263 40.1986 47.3931 39.3612ZM76.7009 40.3156H68.5511V17.3868H64.0553V10.1476H81.3717V17.3868H76.7009V40.3156ZM90.9198 23.6763H91.4666C92.4048 23.6763 93.1868 23.318 93.8124 22.6017C94.4376 21.8849 94.7507 20.9736 94.7507 19.866C94.7507 17.6125 93.5706 16.4861 91.2132 16.4861H90.9198V23.6763ZM104.23 40.3156H95.4159L91.3887 29.5688C91.3504 29.3868 91.2813 29.1455 91.1843 28.8463C91.0859 28.5467 90.9652 28.1883 90.8222 27.7712L90.8806 29.7643V40.3156H82.7703V10.1476H91.1157C94.789 10.1476 97.5387 10.8715 99.3631 12.317C101.682 14.1658 102.843 16.7973 102.843 20.2101C102.843 23.8575 101.285 26.3782 98.1705 27.7712L104.23 40.3156ZM116.669 40.3156H108.519V27.537L101.034 10.1476H109.535L111.001 14.6226C111.288 15.4947 111.545 16.3357 111.772 17.1428C112.001 17.9508 112.206 18.7263 112.389 19.4676C112.688 18.3608 112.949 17.4063 113.17 16.6063C113.392 15.8046 113.588 15.1568 113.756 14.6618L115.242 10.1476H123.687L116.669 27.537V40.3156ZM146.371 40.3156H137.577L132.163 26.4036L132.377 40.3156H124.229V10.1476H132.377L132.163 23.0825L136.97 10.1476H145.57L139.061 24.7038L146.371 40.3156ZM158.81 40.3156H150.66V17.3868H146.164V10.1476H163.481V17.3868H158.81V40.3156ZM173.1 40.3156H164.95V10.1471H173.1V40.3156ZM182.985 24.0975L183.357 24.1171C184.347 24.1171 185.136 23.8144 185.722 23.208C186.308 22.6026 186.602 21.7718 186.602 20.7167C186.602 19.675 186.315 18.8283 185.742 18.177C185.169 17.5127 184.437 17.1802 183.553 17.1802H182.985V24.0975ZM182.985 40.3156H174.836V10.148H182.731C186.667 10.148 189.585 10.9489 191.487 12.552C193.728 14.441 194.849 17.0667 194.849 20.4287C194.849 24.0895 193.658 26.8198 191.273 28.6179C189.644 29.8297 187.305 30.4352 184.256 30.4352H182.985V40.3156ZM195.834 39.3612V29.8849C197.468 32.1175 199.235 33.2332 201.135 33.2332C201.853 33.2332 202.438 33.0506 202.89 32.6856C203.342 32.321 203.567 31.8624 203.567 31.3117C203.567 30.518 203.076 29.742 202.093 28.9861L200.738 27.9679C199.832 27.3149 199.062 26.6644 198.425 26.0176C197.786 25.3707 197.267 24.7043 196.869 24.0191C196.47 23.3331 196.179 22.6262 195.991 21.8956C195.806 21.1655 195.714 20.3967 195.714 19.5895C195.714 18.2055 196.045 16.7577 196.71 15.2463C197.042 14.5416 197.427 13.8978 197.866 13.3151C198.305 12.7314 198.81 12.2164 199.382 11.7681C200.949 10.4864 202.843 9.84574 205.064 9.84574C207.043 9.84574 209.037 10.3568 211.044 11.3776V20.6188C210.366 19.5682 209.595 18.7415 208.731 18.1369C207.867 17.5328 207.016 17.23 206.179 17.23C205.541 17.23 205.016 17.4095 204.604 17.7678C204.179 18.1133 203.966 18.5295 203.966 19.0152C203.966 19.8099 204.531 20.597 205.661 21.3774L206.977 22.3176C208.731 23.5343 209.986 24.7826 210.745 26.0621C211.515 27.3429 211.9 28.8401 211.9 30.5554C211.9 33.474 210.977 35.8816 209.13 37.7754C207.282 39.6701 204.943 40.617 202.112 40.617C200.159 40.617 198.066 40.1986 195.834 39.3612ZM213.293 40.3156V10.1476H228.44V17.3868H221.443V21.6432H227.716V28.8819H221.443V33.076H228.44V40.3156H213.293ZM242.379 40.3156H234.228V17.3868H229.734V10.1476H247.05V17.3868H242.379V40.3156Z" fill="white"/>
</svg>
