<svg width="240" height="48" viewBox="0 0 240 48" fill="none" xmlns="http://www.w3.org/2000/svg">
<path d="M5.22827 10.2705L0 12.6019L4.4897 46.1231L12.601 43.5775C6.23038 39.3313 2.35147 28.54 5.22827 10.2705Z" fill="#FF2D29"/>
<path d="M52.6424 40.0712L24.9046 48L4.4897 46.1231L35.046 36.5338L52.6424 40.0712Z" fill="#B30415"/>
<path d="M45.9748 8.7586L36.4309 4.03918C39.9809 20.9994 38.676 31.2904 35.046 36.5338L52.6424 40.0712L45.9748 8.7586ZM35.4012 3.53033L28.2622 0L32.1763 21.0791C34.5122 16.8102 35.7071 11.2093 35.4012 3.53033Z" fill="#C80011"/>
<path d="M36.4309 4.03918L35.4012 3.53033C35.7071 11.2093 34.5122 16.8102 32.1763 21.0791L35.046 36.5338C38.676 31.2904 39.9809 20.9994 36.4309 4.03918Z" fill="#E8E4E2"/>
<path d="M21.4077 26.1102C17.592 27.5041 14.018 25.0159 13.3431 20.6437C12.678 16.3348 15.0602 11.6474 18.7419 10.0817C22.5215 8.47412 26.3016 10.7214 27.1034 15.2013C27.9172 19.7498 25.3284 24.6785 21.4077 26.1102ZM28.2622 0L6.49972 9.70373C7.98442 27.1533 14.506 32.889 21.9334 30.2896C25.7607 28.95 29.8698 25.1277 32.1763 21.0791L28.2622 0Z" fill="#FF2D29"/>
<path d="M21.4077 26.1102C25.3284 24.6785 27.9172 19.7498 27.1034 15.2013C26.3016 10.7214 22.5215 8.47412 18.7419 10.0817C15.0602 11.6474 12.678 16.3348 13.3431 20.6437C14.018 25.0159 17.592 27.5041 21.4077 26.1102Z" fill="white"/>
<path d="M21.9334 30.2896C14.506 32.889 7.98442 27.1533 6.49972 9.70373L5.22827 10.2705C2.35147 28.54 6.23038 39.3313 12.601 43.5775L35.046 36.5338L32.1763 21.0791C29.8698 25.1277 25.7607 28.95 21.9334 30.2896Z" fill="white"/>
<path fill-rule="evenodd" clip-rule="evenodd" d="M239.029 44.9291H48.0116V5.43929H239.029V44.9291Z" fill="#004077"/>
<path d="M54.2593 37.6601V29.1797C55.7218 31.1777 57.3031 32.1758 59.0037 32.1758C59.6452 32.1758 60.1692 32.0129 60.5738 31.6861C60.9776 31.3598 61.1802 30.9494 61.1802 30.4565C61.1802 29.746 60.7403 29.0515 59.8602 28.3753L58.6471 27.464C57.8386 26.8795 57.149 26.2976 56.5787 25.7184C56.0071 25.1397 55.5432 24.5431 55.1862 23.9301C54.8296 23.3157 54.5687 22.6831 54.4018 22.0292C54.2353 21.3761 54.152 20.6878 54.152 19.9657C54.152 18.7272 54.4494 17.4313 55.0437 16.0788C55.3407 15.448 55.6857 14.8719 56.0788 14.3501C56.4714 13.8279 56.9229 13.3667 57.4348 12.9656C58.8367 11.8188 60.5315 11.2454 62.518 11.2454C64.2898 11.2454 66.0732 11.7026 67.8691 12.6161V20.8868C67.2619 19.9466 66.5727 19.2067 65.7994 18.6653C65.0261 18.1249 64.2658 17.8542 63.517 17.8542C62.9462 17.8542 62.4766 18.0145 62.1075 18.335C61.7269 18.6444 61.5372 19.017 61.5372 19.4515C61.5372 20.1629 62.0416 20.8672 63.0535 21.5657L64.2302 22.4071C65.7994 23.496 66.9231 24.613 67.6015 25.7585C68.2907 26.9044 68.6357 28.2444 68.6357 29.7794C68.6357 32.3913 67.809 34.5465 66.156 36.2413C64.5031 37.9366 62.4107 38.7846 59.878 38.7846C58.1298 38.7846 56.2573 38.4102 54.2593 37.6601ZM80.4817 38.5144H73.19V17.9944H69.1673V11.5152H84.6611V17.9944H80.4817V38.5144ZM93.2042 23.6229H93.6935C94.5327 23.6229 95.232 23.3024 95.7921 22.6613C96.3517 22.0198 96.6317 21.2042 96.6317 20.2132C96.6317 18.1961 95.5757 17.1882 93.4664 17.1882H93.2042V23.6229ZM105.113 38.5149H97.2265L93.6231 28.8966C93.5893 28.7337 93.5274 28.5178 93.4406 28.2498C93.3525 27.9817 93.2447 27.6612 93.1165 27.2881L93.169 29.0716V38.5149H85.9121V11.5156H93.3792C96.666 11.5156 99.1256 12.1629 100.759 13.4567C102.834 15.1119 103.872 17.4669 103.872 20.5213C103.872 23.7854 102.478 26.0412 99.6915 27.2881L105.113 38.5149ZM116.243 38.5144H108.95V27.0785L102.253 11.5152H109.86L111.171 15.5205C111.428 16.3009 111.658 17.0533 111.862 17.7759C112.066 18.4993 112.249 19.1929 112.413 19.8567C112.681 18.8661 112.914 18.0118 113.113 17.2959C113.311 16.5783 113.486 15.9987 113.637 15.5553L114.966 11.5152H122.521L116.243 27.0785V38.5144ZM142.818 38.5144H134.949L130.106 26.0639L130.297 38.5144H123.007V11.5152H130.297L130.106 23.0918L134.407 11.5152H142.101L136.277 24.5427L142.818 38.5144ZM153.947 38.5144H146.656V17.9944H142.633V11.5152H158.127V17.9944H153.947V38.5144ZM166.733 38.5144H159.441V11.5152H166.733V38.5144ZM175.578 24L175.91 24.0178C176.796 24.0178 177.502 23.7467 178.026 23.204C178.551 22.6622 178.814 21.9188 178.814 20.9745C178.814 20.0418 178.557 19.2846 178.044 18.7014C177.531 18.1071 176.877 17.8097 176.085 17.8097H175.578V24ZM175.578 38.5144H168.286V11.5161H175.35C178.872 11.5161 181.483 12.2328 183.185 13.6672C185.19 15.358 186.193 17.7077 186.193 20.7168C186.193 23.9929 185.127 26.4365 182.993 28.0459C181.536 29.1303 179.443 29.6721 176.715 29.6721H175.578V38.5144ZM187.074 37.6601V29.1797C188.536 31.1777 190.117 32.1758 191.817 32.1758C192.46 32.1758 192.983 32.0129 193.388 31.6861C193.792 31.3598 193.994 30.9494 193.994 30.4565C193.994 29.746 193.554 29.0515 192.674 28.3753L191.462 27.464C190.652 26.8795 189.963 26.2976 189.392 25.7184C188.821 25.1397 188.357 24.5431 188 23.9301C187.643 23.3157 187.382 22.6831 187.215 22.0292C187.049 21.3761 186.967 20.6878 186.967 19.9657C186.967 18.7272 187.263 17.4313 187.858 16.0788C188.155 15.448 188.499 14.8719 188.893 14.3501C189.285 13.8279 189.737 13.3667 190.249 12.9656C191.651 11.8188 193.345 11.2454 195.332 11.2454C197.104 11.2454 198.887 11.7026 200.683 12.6161V20.8868C200.077 19.9466 199.387 19.2067 198.613 18.6653C197.841 18.1249 197.08 17.8542 196.331 17.8542C195.759 17.8542 195.29 18.0145 194.921 18.335C194.541 18.6444 194.351 19.017 194.351 19.4515C194.351 20.1629 194.856 20.8672 195.867 21.5657L197.044 22.4071C198.613 23.496 199.737 24.613 200.415 25.7585C201.104 26.9044 201.449 28.2444 201.449 29.7794C201.449 32.3913 200.623 34.5465 198.97 36.2413C197.317 37.9366 195.224 38.7846 192.692 38.7846C190.944 38.7846 189.071 38.4102 187.074 37.6601ZM202.696 38.5144V11.5152H216.248V17.9944H209.987V21.8035H215.6V28.2818H209.987V32.0356H216.248V38.5144H202.696ZM228.719 38.5144H221.427V17.9944H217.406V11.5152H232.899V17.9944H228.719V38.5144Z" fill="white"/>
</svg>
