<svg width="96" height="117" viewBox="0 0 96 117" fill="none" xmlns="http://www.w3.org/2000/svg">
<path d="M0.899013 48.0595C0.899013 74.0788 21.9925 95.1604 47.9999 95.1604C74.0192 95.1604 95.1008 74.0669 95.1008 48.0595C95.1008 22.0402 74.0073 0.958626 47.9999 0.958626C21.9806 0.958626 0.899013 22.0522 0.899013 48.0595Z" fill="#004077"/>
<path d="M57.4801 66.6842L54.6157 62.3696H41.4083L38.5199 66.6842H57.4801Z" fill="#9E784F"/>
<path d="M57.4801 66.6842H38.5199L36.3747 81.7733H59.6256L57.4801 66.6842Z" fill="#E7CB95"/>
<path d="M51.5117 48.4311L48.0241 47.9997H47.9762L44.4886 48.4311L43.4099 64.4071C43.4099 64.4071 44.4886 65.5936 48.0001 65.5456C51.5117 65.5936 52.5904 64.4071 52.5904 64.4071L51.5117 48.4311Z" fill="#E7CB95"/>
<path d="M44.5364 47.6641C44.5364 47.6641 47.0053 48.6829 51.4278 47.1368L51.6196 49.9413C51.6196 49.9413 50.3012 50.9121 48.06 50.948C46.8735 50.96 45.8668 50.8402 44.3806 49.9892L44.5364 47.6282" fill="#C19F7E"/>
<path d="M15.2572 26.3429C14.2625 27.5174 13.016 28.9795 12.6445 30.9331C12.4647 31.8679 11.9494 34.9361 12.4048 37.7885C12.6805 37.2731 13.088 36.7338 13.5314 36.1346C14.4782 34.8402 15.5569 33.366 15.8804 31.6522C16.1441 30.202 15.9763 28.4282 15.8445 26.99C15.7966 26.5226 15.7606 26.1151 15.7486 25.7796C15.5808 25.9593 15.425 26.1511 15.2572 26.3429Z" fill="#E7CB95"/>
<path d="M16.4797 70.2198C15.7725 69.249 15.1134 68.3261 14.622 67.8228C13.6272 66.804 11.3261 66.6363 9.81602 66.5164C9.7561 66.5164 9.70816 66.5044 9.64823 66.5044C10.3793 67.3434 11.0864 68.5419 11.7216 69.6325C12.3568 70.7231 12.9681 71.7419 13.4714 72.2093C14.6819 73.3359 16.24 74.4624 19.3201 73.7074C18.4692 72.9643 17.4624 71.5741 16.4797 70.2198Z" fill="#E7CB95"/>
<path d="M18.3374 75.7209C17.4385 75.6969 16.5876 75.661 15.8086 75.4213C18.1936 79.3283 20.4108 80.1673 21.9089 80.4549C23.0595 80.6707 24.9531 80.383 25.9838 79.9755C25.0969 79.5561 24.258 78.7291 23.443 77.9141C22.628 77.0991 21.849 76.3321 21.1419 76.0924C20.243 75.7808 19.2722 75.7449 18.3374 75.7209Z" fill="#E7CB95"/>
<path d="M18.9847 61.8902C18.6611 60.7876 18.3735 59.7929 18.2536 58.6303C18.1817 58.7741 18.0978 58.9299 18.0139 59.0857C17.3907 60.2243 16.6117 61.6505 16.6237 64.491C16.6357 68.1104 18.9967 71.2744 20.327 72.401C20.3151 72.0535 20.3031 71.6819 20.2911 71.2984C20.2431 69.4048 20.1832 67.0437 19.7518 64.9104C19.5121 63.7119 19.2244 62.7531 18.9847 61.8902Z" fill="#E7CB95"/>
<path d="M13.7111 55.1547C12.92 58.5944 13.6871 60.7636 14.4901 63.0528C14.4901 63.0648 14.5021 63.0887 14.5021 63.1007C14.6579 62.4655 14.9335 61.7704 15.2212 61.0153C15.7245 59.685 16.2998 58.1869 16.4436 56.5689C16.5155 55.73 16.6234 54.879 16.7313 53.9802C16.8871 52.6378 17.0549 51.2716 17.1627 49.7255C17.0189 49.8813 16.8511 50.0491 16.6713 50.2289C15.6646 51.2716 14.2743 52.6978 13.7111 55.1547Z" fill="#E7CB95"/>
<path d="M13.9509 45.2312C12.1771 47.9518 12.1172 50.7083 12.3089 52.8296C12.9322 51.3195 14.0827 50.0611 15.1973 48.8386C15.3052 48.7188 15.425 48.587 15.5329 48.4671C16.8033 47.0649 18.8048 44.3203 18.649 41.1922C18.3254 41.5038 17.858 41.8155 17.3067 42.199C16.216 42.9301 14.8617 43.8409 13.9509 45.2312Z" fill="#E7CB95"/>
<path d="M13.2796 42.8221C13.5672 42.4986 13.9627 42.151 14.4541 41.7675C15.377 41.0364 16.3957 40.4012 16.9949 40.0776C18.1575 39.4424 20.1829 37.8724 21.1177 34.3368C20.8301 34.4686 20.5305 34.5405 20.1829 34.6244C19.5477 34.7802 18.7447 34.972 17.5342 35.6192C14.0826 37.4649 13.4953 40.7248 13.2796 42.8221Z" fill="#E7CB95"/>
<path d="M22.4484 73.0839C22.9158 75.6008 25.0012 77.4584 26.2237 78.3933C25.9959 77.3146 25.8042 75.3611 25.6004 72.197C25.4566 70.0637 24.378 66.8038 22.4005 65.6413C22.4724 66.2525 22.4364 67.1993 22.3765 68.5416C22.3046 70.1236 22.2327 71.9214 22.4484 73.0839Z" fill="#E7CB95"/>
<path d="M81.6179 26.3429C82.6127 27.5174 83.8591 28.9795 84.2307 30.9331C84.4104 31.8679 84.9258 34.9361 84.4703 37.7885C84.1947 37.2731 83.7872 36.7338 83.3438 36.1346C82.397 34.8402 81.3183 33.366 80.9947 31.6522C80.731 30.202 80.8988 28.4282 81.0307 26.99C81.0786 26.5226 81.1146 26.1151 81.1265 25.7796C81.2943 25.9593 81.4501 26.1511 81.6179 26.3429Z" fill="#E7CB95"/>
<path d="M89.2404 39.2267C89.0366 41.8035 87.2988 44.5001 86.1483 46.2739C85.9086 46.6334 85.7168 46.957 85.549 47.2207C84.8659 43.0979 86.0404 39.5982 86.6876 37.6687C86.7955 37.3571 86.8794 37.0934 86.9393 36.8777C87.3707 35.4395 87.7902 33.402 87.6704 31.2927C88.9887 33.8215 89.4681 36.3144 89.2404 39.2267Z" fill="#E7CB95"/>
<path d="M90.7624 42.7143C91.3257 46.2139 90.8703 49.9772 89.9954 51.5472C89.492 52.4461 88.6411 53.2611 87.8141 54.0521C87.2388 54.6034 86.6875 55.1307 86.28 55.67C86.2081 52.1704 86.9272 49.1023 88.3055 47.1487C89.3842 45.6027 90.295 43.9368 90.7624 42.7143Z" fill="#E7CB95"/>
<path d="M80.3955 70.2198C81.1026 69.249 81.7618 68.3261 82.2532 67.8228C83.248 66.804 85.5491 66.6363 87.0592 66.5164C87.1191 66.5164 87.167 66.5044 87.227 66.5044C86.4959 67.3434 85.7888 68.5419 85.1536 69.6325C84.5184 70.7231 83.9071 71.7419 83.4038 72.2093C82.1933 73.3359 80.6352 74.4624 77.5551 73.7074C78.406 72.9643 79.4128 71.5741 80.3955 70.2198Z" fill="#E7CB95"/>
<path d="M78.5377 75.7209C79.4366 75.6969 80.2875 75.661 81.0665 75.4213C78.6815 79.3283 76.4643 80.1673 74.9662 80.4549C73.8156 80.6707 71.922 80.383 70.8913 79.9755C71.7782 79.5561 72.6171 78.7291 73.4321 77.9141C74.2471 77.0991 75.0261 76.3321 75.7332 76.0924C76.6321 75.7808 77.6029 75.7449 78.5377 75.7209Z" fill="#E7CB95"/>
<path d="M77.8906 61.8902C78.2142 60.7876 78.5019 59.7929 78.6217 58.6303C78.6936 58.7741 78.7775 58.9299 78.8614 59.0857C79.4846 60.2243 80.2637 61.6505 80.2517 64.491C80.2397 68.1104 77.8787 71.2744 76.5483 72.401C76.5603 72.0535 76.5723 71.6819 76.5843 71.2984C76.6322 69.4048 76.6921 67.0437 77.1236 64.9104C77.3633 63.7119 77.639 62.7531 77.8906 61.8902Z" fill="#E7CB95"/>
<path d="M83.1638 55.1547C83.9548 58.5944 83.1878 60.7636 82.3848 63.0528C82.3848 63.0648 82.3728 63.0887 82.3728 63.1007C82.217 62.4655 81.9414 61.7704 81.6537 61.0153C81.1504 59.685 80.5751 58.1869 80.4313 56.5689C80.3593 55.73 80.2515 54.879 80.1436 53.9802C79.9878 52.6378 79.82 51.2716 79.7122 49.7255C79.856 49.8813 80.0238 50.0491 80.2035 50.2289C81.2103 51.2716 82.6005 52.6978 83.1638 55.1547Z" fill="#E7CB95"/>
<path d="M82.9242 45.2312C84.698 47.9518 84.7579 50.7083 84.5661 52.8296C83.9429 51.3195 82.7924 50.0611 81.6778 48.8386C81.5699 48.7188 81.45 48.587 81.3422 48.4671C80.0718 47.0649 78.0703 44.3203 78.2261 41.1922C78.5497 41.5038 79.0171 41.8155 79.5684 42.199C80.659 42.9301 82.0133 43.8409 82.9242 45.2312Z" fill="#E7CB95"/>
<path d="M83.5952 42.8221C83.3076 42.4986 82.9121 42.151 82.4207 41.7675C81.4978 41.0364 80.4791 40.4012 79.8799 40.0776C78.7173 39.4424 76.6919 37.8724 75.757 34.3368C76.0447 34.4686 76.3443 34.5405 76.6919 34.6244C77.3271 34.7802 78.1301 34.972 79.3406 35.6192C82.7922 37.4649 83.3795 40.7248 83.5952 42.8221Z" fill="#E7CB95"/>
<path d="M87.3348 57.4798C87.5625 57.3 87.7902 57.1322 87.994 56.9644C89.1086 56.1135 90.0074 55.4184 90.5827 54.8072C90.4029 57.1083 90.1033 60.1764 87.994 62.6453C86.6277 64.2393 84.3266 64.9105 83.152 65.2101C83.3318 64.8026 83.5116 64.3592 83.7034 63.9037C84.6741 61.5427 85.8846 58.6064 87.3348 57.4798Z" fill="#E7CB95"/>
<path d="M74.4272 73.0839C73.9598 75.6008 71.8745 77.4584 70.652 78.3933C70.8797 77.3146 71.0715 75.3611 71.2752 72.197C71.419 70.0637 72.4977 66.8038 74.4752 65.6413C74.4033 66.2525 74.4392 67.1993 74.4992 68.5416C74.5591 70.1236 74.643 71.9214 74.4272 73.0839Z" fill="#E7CB95"/>
<path d="M40.2816 68.7577L39.0592 76.9434L41.4442 72.7487L42.1992 68.7577H40.2816Z" fill="white"/>
<path d="M88.7249 105.3H7.28712V116.086H88.7249V105.3Z" fill="#004077"/>
<path d="M87.3586 92.9792H8.62944V112.563H87.3586V92.9792Z" fill="#E60000"/>
<path d="M23.8983 98.4681H21.5252V107.756L20.926 108.799H19.7275L19.1283 107.756V98.4681H16.7552L15.7245 97.8688V96.6463L16.7552 96.0591H23.9103L24.941 96.6463V97.8688L23.8983 98.4681Z" fill="white"/>
<path d="M28.5007 108.799H27.3022L26.703 107.756V97.1018L27.3022 96.0591H28.5007L29.1 97.1018V107.756L28.5007 108.799Z" fill="white"/>
<path d="M33.2107 108.799H32.0122L31.4129 107.756V97.1018L32.0122 96.0591H37.7769L39.8983 99.2471V101.189L37.7769 104.377H33.8099V107.756L33.2107 108.799ZM36.4466 98.4681H33.8099V101.968H36.4466L37.6331 100.218L36.4466 98.4681Z" fill="white"/>
<path d="M46.9096 103.634H42.8587L41.2287 101.189V99.2471L43.35 96.0591H47.9523L49.8099 98.8516L49.0429 100.014H47.6646L46.6219 98.4561H44.6804L43.6377 100.014L44.4407 101.213H48.4556L50.0856 103.658V105.623L47.9643 108.811H43.0025L41.1448 106.019L41.8999 104.856H43.2781L44.3208 106.414H46.6219L47.6646 104.856L46.9096 103.634Z" fill="white"/>
<path d="M56.4135 103.957H52.7941L51.7634 103.37V102.112L52.7941 101.548H56.4255L57.4562 102.112V103.37L56.4135 103.957Z" fill="white"/>
<path d="M64.8992 103.634H60.8483L59.2184 101.189V99.2471L61.3397 96.0591H65.9419L67.7996 98.8516L67.0325 100.014H65.6543L64.6116 98.4561H62.67L61.6273 100.014L62.4303 101.213H66.4453L68.0752 103.658V105.623L65.9539 108.811H60.9921L59.1345 106.019L59.8895 104.856H61.2678L62.3105 106.414H64.6116L65.6543 104.856L64.8992 103.634Z" fill="white"/>
<path d="M78.4779 96.0591H79.6764L80.2757 97.1018V107.756L79.6764 108.799H78.4779L77.8787 107.756V102.076L75.6615 105.935H74.463L72.2458 102.076V107.756L71.6465 108.799H70.448L69.8488 107.756V97.1018L70.448 96.0591H71.6465L75.0622 102.004L78.4779 96.0591Z" fill="white"/>
<path d="M7.28712 91.1215V113.905H88.7249V91.1215H7.28712ZM86.8433 93.0152V112.011H9.15677V93.0152H86.8433Z" fill="#E7CB95"/>
<path d="M7.8742 39.5862C8.07795 42.163 9.81577 44.8596 10.9663 46.6334C11.206 46.9929 11.3978 47.3165 11.5656 47.5802C12.2487 43.4574 11.0742 39.9578 10.427 38.0282C10.3191 37.7166 10.2352 37.4529 10.1753 37.2372C9.74386 35.799 9.32438 33.7616 9.44423 31.6522C8.12589 34.181 7.64649 36.6739 7.8742 39.5862Z" fill="#E7CB95"/>
<path d="M9.76803 57.8393C9.54031 57.6595 9.3126 57.4917 9.10885 57.3239C7.99425 56.473 7.09538 55.7779 6.5201 55.1666C6.69988 57.4677 6.9995 60.5359 9.10885 63.0048C10.4751 64.5988 12.7763 65.2699 13.9508 65.5696C13.771 65.1621 13.5912 64.7186 13.3995 64.2632C12.4407 61.9022 11.2302 58.9659 9.76803 57.8393Z" fill="#E7CB95"/>
<path d="M6.59198 43.0738C6.02869 46.5734 6.48411 50.3367 7.35902 51.9067C7.86238 52.8056 8.71332 53.6206 9.54028 54.4116C10.1156 54.9629 10.6669 55.4902 11.0744 56.0296C11.1463 52.53 10.4272 49.4618 9.0489 47.5083C7.97025 45.9622 7.05939 44.2963 6.59198 43.0738Z" fill="#E7CB95"/>
<path d="M65.8855 19.2716L65.8016 19.9308C65.7297 20.542 65.5139 20.9615 65.1304 21.2251C64.4353 21.7045 63.2967 21.5967 62.8533 21.4888C63.033 19.1278 63.1289 16.6229 63.1289 13.9503H32.7471C32.7471 16.6109 32.831 19.1278 32.9868 21.4768C32.7231 21.5368 31.4886 21.7405 30.7096 21.2132C30.3261 20.9495 30.0984 20.518 30.0265 19.9188L29.9426 19.2596L23.7344 19.2716L23.7943 20.0746C23.8063 20.2064 24.058 23.3944 25.3284 27.3974C27.4617 34.1449 30.7456 37.7644 33.1306 39.5981C34.6407 40.7726 36.3066 41.6475 38.1043 42.2348C40.6691 46.5014 44.0609 48.6587 48.0758 48.6587C51.5155 48.6587 54.7514 46.5494 57.3402 42.3666C59.2937 41.7793 61.0795 40.8685 62.7095 39.6101C67.036 36.2663 69.3371 31.1247 70.5117 27.4094C71.7701 23.4064 72.0338 20.2184 72.0457 20.0866L72.1057 19.2836L65.8855 19.2716ZM34.0534 38.4475C27.4857 33.3779 25.7598 23.6341 25.3763 20.7817L28.6602 20.7697C28.8639 21.4888 29.2594 22.0641 29.8467 22.4596C30.9733 23.2266 32.4474 23.0948 33.0826 22.9989C33.6819 30.2858 35.0362 36.0386 37.0137 40.2333C35.983 39.7539 34.9882 39.1546 34.0534 38.4475ZM61.7866 38.4475C60.7439 39.2505 59.6293 39.8977 58.4308 40.4011C60.5162 36.1944 62.0503 30.3936 62.7334 22.9989C63.3566 23.1068 64.8548 23.2386 65.9813 22.4716C66.5686 22.0761 66.9641 21.5008 67.1679 20.7817L70.4517 20.7937C70.0802 23.6341 68.3544 33.3659 61.7866 38.4475Z" fill="#E7CB95"/>
<path d="M48.0121 15.5445C56.3985 15.5445 63.1971 14.7664 63.1971 13.8067C63.1971 12.8469 56.3985 12.0689 48.0121 12.0689C39.6257 12.0689 32.8272 12.8469 32.8272 13.8067C32.8272 14.7664 39.6257 15.5445 48.0121 15.5445Z" fill="#9E784F"/>
<path d="M35.6436 18.0493C35.6436 18.0493 35.6436 18.0493 35.6555 18.0493C35.8713 18.0733 37.2136 18.4208 39.3709 18.5407C39.3709 18.5407 36.3746 23.4545 36.9739 32.2035C36.9739 32.2035 35.296 26.2111 35.6436 18.0493Z" fill="white"/>
<path d="M64.1579 50.9062V57.9095L63.7624 58.5958H62.9713L62.5758 57.9095V51.8019H62.1105L61.4357 51.4064V50.6037L62.1105 50.2198H63.7624L64.1579 50.9062Z" fill="white"/>
<path d="M55.4945 55.9899H56.3902L57.0766 57.0136H58.5889L59.2172 56.0713L58.5889 55.1406H57.8793L57.1929 54.7335V53.9657L57.8793 53.5585H58.4726L59.0659 52.6744L58.4726 51.8019H57.1929L56.5066 52.8256H55.5992L55.0989 52.0578L56.3204 50.2197H59.3451L60.7411 52.3137V53.3142L60.0315 54.3845L60.8575 55.6292V56.5017L59.4615 58.5958H56.2041L54.9826 56.7577L55.4945 55.9899Z" fill="white"/>
<path d="M38.3307 57.0137L39.017 55.9899V52.8257L38.3307 51.8019H37.1673L36.481 52.8257V55.9899L37.1673 57.0137H38.3307ZM40.5992 56.5018L39.2032 58.5958H36.2948L34.8988 56.5018V52.3138L36.2948 50.2198H39.2032L40.5992 52.3138V56.5018Z" fill="white"/>
<path d="M33.9649 53.3607L30.661 57.0136H33.2902L33.9649 57.4091V58.2119L33.2902 58.5958H28.9509L28.5554 57.9094V57.0601L32.3828 52.8256L31.6964 51.8019H30.5912L29.9049 52.8256H28.9975L28.4972 52.0578L29.7187 50.2197H32.5689L33.9649 52.3137V53.3607Z" fill="white"/>
</svg>
