<svg width="96" height="117" viewBox="0 0 96 117" fill="none" xmlns="http://www.w3.org/2000/svg">
<path d="M0.898529 48.0598C0.898529 74.0792 21.9922 95.1609 47.9997 95.1609C74.0191 95.1609 95.1008 74.0672 95.1008 48.0598C95.1008 22.0403 74.0071 0.95863 47.9997 0.95863C21.9802 0.95863 0.898529 22.0523 0.898529 48.0598Z" fill="#004077"/>
<path d="M57.4799 66.6846L54.6155 62.37H41.408L38.5196 66.6846H57.4799Z" fill="#9E784F"/>
<path d="M57.4799 66.6846H38.5196L36.3744 81.7737H59.6254L57.4799 66.6846Z" fill="#E7CB95"/>
<path d="M51.5115 48.4314L48.0239 47.9999H47.9759L44.4883 48.4314L43.4096 64.4074C43.4096 64.4074 44.4883 65.5939 47.9999 65.546C51.5115 65.5939 52.5902 64.4074 52.5902 64.4074L51.5115 48.4314Z" fill="#E7CB95"/>
<path d="M44.5362 47.6644C44.5362 47.6644 47.0051 48.6831 51.4276 47.137L51.6193 49.9415C51.6193 49.9415 50.301 50.9123 48.0598 50.9483C46.8733 50.9603 45.8665 50.8404 44.3804 49.9895L44.5362 47.6284" fill="#C19F7E"/>
<path d="M15.2568 26.343C14.2621 27.5175 13.0156 28.9797 12.6441 30.9332C12.4643 31.8681 11.949 34.9362 12.4044 37.7887C12.68 37.2733 13.0875 36.734 13.531 36.1348C14.4778 34.8404 15.5564 33.3662 15.88 31.6523C16.1437 30.2022 15.9759 28.4284 15.8441 26.9902C15.7961 26.5228 15.7602 26.1153 15.7482 25.7797C15.5804 25.9595 15.4246 26.1512 15.2568 26.343Z" fill="#E7CB95"/>
<path d="M16.4792 70.2201C15.7721 69.2493 15.1129 68.3265 14.6215 67.8231C13.6268 66.8044 11.3256 66.6366 9.81553 66.5167C9.7556 66.5167 9.70766 66.5048 9.64774 66.5048C10.3788 67.3437 11.0859 68.5422 11.7211 69.6329C12.3563 70.7235 12.9676 71.7422 13.471 72.2096C14.6814 73.3362 16.2395 74.4628 19.3196 73.7078C18.4687 72.9647 17.462 71.5744 16.4792 70.2201Z" fill="#E7CB95"/>
<path d="M18.337 75.7213C17.4381 75.6973 16.5872 75.6613 15.8081 75.4216C18.1931 79.3288 20.4104 80.1677 21.9085 80.4553C23.0591 80.6711 24.9527 80.3834 25.9834 79.9759C25.0965 79.5565 24.2576 78.7295 23.4426 77.9145C22.6276 77.0995 21.8486 76.3325 21.1415 76.0928C20.2426 75.7812 19.2718 75.7452 18.337 75.7213Z" fill="#E7CB95"/>
<path d="M18.9843 61.8905C18.6607 60.7879 18.373 59.7932 18.2532 58.6306C18.1813 58.7744 18.0974 58.9302 18.0135 59.086C17.3903 60.2246 16.6112 61.6508 16.6232 64.4913C16.6352 68.1108 18.9963 71.2748 20.3266 72.4014C20.3146 72.0538 20.3026 71.6823 20.2906 71.2988C20.2427 69.4051 20.1828 67.0441 19.7513 64.9108C19.5116 63.7122 19.224 62.7534 18.9843 61.8905Z" fill="#E7CB95"/>
<path d="M13.7107 55.155C12.9197 58.5947 13.6867 60.764 14.4897 63.0531C14.4897 63.0651 14.5017 63.0891 14.5017 63.101C14.6575 62.4658 14.9332 61.7707 15.2208 61.0156C15.7242 59.6853 16.2995 58.1872 16.4433 56.5692C16.5152 55.7303 16.6231 54.8793 16.7309 53.9804C16.8867 52.6381 17.0545 51.2718 17.1624 49.7258C17.0186 49.8816 16.8508 50.0494 16.671 50.2291C15.6643 51.2718 14.274 52.698 13.7107 55.155Z" fill="#E7CB95"/>
<path d="M13.9505 45.2314C12.1767 47.952 12.1168 50.7086 12.3085 52.8299C12.9317 51.3198 14.0823 50.0614 15.1969 48.8389C15.3048 48.719 15.4246 48.5872 15.5325 48.4674C16.8029 47.0651 18.8044 44.3205 18.6486 41.1924C18.325 41.5041 17.8576 41.8157 17.3063 42.1992C16.2156 42.9303 14.8613 43.8411 13.9505 45.2314Z" fill="#E7CB95"/>
<path d="M13.2792 42.8224C13.5669 42.4988 13.9624 42.1512 14.4538 41.7677C15.3766 41.0366 16.3953 40.4014 16.9946 40.0778C18.1571 39.4426 20.1826 37.8726 21.1174 34.337C20.8298 34.4688 20.5302 34.5407 20.1826 34.6246C19.5474 34.7804 18.7444 34.9722 17.5339 35.6194C14.0822 37.4651 13.4949 40.725 13.2792 42.8224Z" fill="#E7CB95"/>
<path d="M22.448 73.0843C22.9154 75.6012 25.0008 77.4588 26.2233 78.3937C25.9956 77.315 25.8038 75.3615 25.6001 72.1974C25.4563 70.0641 24.3776 66.8041 22.4001 65.6416C22.472 66.2528 22.436 67.1996 22.3761 68.542C22.3042 70.124 22.2323 71.9218 22.448 73.0843Z" fill="#E7CB95"/>
<path d="M81.6179 26.343C82.6126 27.5175 83.8591 28.9797 84.2306 30.9332C84.4104 31.8681 84.9257 34.9362 84.4703 37.7887C84.1946 37.2733 83.7871 36.734 83.3437 36.1348C82.3969 34.8404 81.3182 33.3662 80.9946 31.6523C80.731 30.2022 80.8988 28.4284 81.0306 26.9902C81.0785 26.5228 81.1145 26.1153 81.1265 25.7797C81.2943 25.9595 81.4501 26.1512 81.6179 26.343Z" fill="#E7CB95"/>
<path d="M89.2404 39.2269C89.0366 41.8037 87.2988 44.5003 86.1482 46.2741C85.9085 46.6337 85.7168 46.9573 85.549 47.2209C84.8658 43.0981 86.0404 39.5984 86.6876 37.6689C86.7954 37.3573 86.8793 37.0936 86.9392 36.8778C87.3707 35.4396 87.7902 33.4022 87.6703 31.2928C88.9887 33.8217 89.4681 36.3146 89.2404 39.2269Z" fill="#E7CB95"/>
<path d="M90.7624 42.7145C91.3257 46.2141 90.8703 49.9774 89.9954 51.5475C89.492 52.4464 88.641 53.2613 87.8141 54.0523C87.2388 54.6037 86.6875 55.131 86.28 55.6703C86.2081 52.1707 86.9272 49.1025 88.3055 47.149C89.3841 45.6029 90.295 43.937 90.7624 42.7145Z" fill="#E7CB95"/>
<path d="M80.3955 70.2201C81.1026 69.2493 81.7617 68.3265 82.2531 67.8231C83.2479 66.8044 85.549 66.6366 87.0591 66.5167C87.119 66.5167 87.167 66.5048 87.2269 66.5048C86.4958 67.3437 85.7887 68.5422 85.1535 69.6329C84.5183 70.7235 83.9071 71.7422 83.4037 72.2096C82.1932 73.3362 80.6351 74.4628 77.555 73.7078C78.4059 72.9647 79.4127 71.5744 80.3955 70.2201Z" fill="#E7CB95"/>
<path d="M78.5376 75.7213C79.4365 75.6973 80.2874 75.6613 81.0665 75.4216C78.6814 79.3288 76.4642 80.1677 74.9661 80.4553C73.8155 80.6711 71.9219 80.3834 70.8912 79.9759C71.7781 79.5565 72.617 78.7295 73.432 77.9145C74.247 77.0995 75.026 76.3325 75.7331 76.0928C76.632 75.7812 77.6028 75.7452 78.5376 75.7213Z" fill="#E7CB95"/>
<path d="M77.8905 61.8905C78.2141 60.7879 78.5018 59.7932 78.6216 58.6306C78.6935 58.7744 78.7774 58.9302 78.8613 59.086C79.4846 60.2246 80.2636 61.6508 80.2516 64.4913C80.2396 68.1108 77.8786 71.2748 76.5482 72.4014C76.5602 72.0538 76.5722 71.6823 76.5842 71.2988C76.6321 69.4051 76.692 67.0441 77.1235 64.9108C77.3632 63.7122 77.6389 62.7534 77.8905 61.8905Z" fill="#E7CB95"/>
<path d="M83.1638 55.155C83.9548 58.5947 83.1877 60.764 82.3847 63.0531C82.3847 63.0651 82.3727 63.0891 82.3727 63.101C82.2169 62.4658 81.9413 61.7707 81.6536 61.0156C81.1503 59.6853 80.575 58.1872 80.4312 56.5692C80.3593 55.7303 80.2514 54.8793 80.1435 53.9804C79.9877 52.6381 79.8199 51.2718 79.7121 49.7258C79.8559 49.8816 80.0237 50.0494 80.2035 50.2291C81.2102 51.2718 82.6005 52.698 83.1638 55.155Z" fill="#E7CB95"/>
<path d="M82.9241 45.2314C84.6979 47.952 84.7578 50.7086 84.5661 52.8299C83.9428 51.3198 82.7923 50.0614 81.6777 48.8389C81.5698 48.719 81.45 48.5872 81.3421 48.4674C80.0717 47.0651 78.0702 44.3205 78.226 41.1924C78.5496 41.5041 79.017 41.8157 79.5683 42.1992C80.659 42.9303 82.0133 43.8411 82.9241 45.2314Z" fill="#E7CB95"/>
<path d="M83.5951 42.8224C83.3075 42.4988 82.912 42.1512 82.4206 41.7677C81.4978 41.0366 80.479 40.4014 79.8798 40.0778C78.7172 39.4426 76.6918 37.8726 75.7569 34.337C76.0446 34.4688 76.3442 34.5407 76.6918 34.6246C77.327 34.7804 78.13 34.9722 79.3405 35.6194C82.7922 37.4651 83.3794 40.725 83.5951 42.8224Z" fill="#E7CB95"/>
<path d="M87.3348 57.4801C87.5625 57.3003 87.7902 57.1325 87.9939 56.9647C89.1085 56.1138 90.0074 55.4187 90.5827 54.8074C90.4029 57.1086 90.1033 60.1767 87.9939 62.6456C86.6276 64.2396 84.3265 64.9108 83.152 65.2104C83.3318 64.8029 83.5115 64.3595 83.7033 63.9041C84.6741 61.543 85.8846 58.6067 87.3348 57.4801Z" fill="#E7CB95"/>
<path d="M74.4267 73.0843C73.9592 75.6012 71.8738 77.4588 70.6514 78.3937C70.8791 77.315 71.0708 75.3615 71.2746 72.1974C71.4184 70.0641 72.4971 66.8041 74.4746 65.6416C74.4027 66.2528 74.4386 67.1996 74.4986 68.542C74.5585 70.124 74.6424 71.9218 74.4267 73.0843Z" fill="#E7CB95"/>
<path d="M40.2813 68.758L39.0589 76.9438L41.4439 72.749L42.1989 68.758H40.2813Z" fill="white"/>
<path d="M88.7249 105.3H7.28666V116.087H88.7249V105.3Z" fill="#004077"/>
<path d="M87.3586 92.9797H8.62906V112.563H87.3586V92.9797Z" fill="#E60000"/>
<path d="M23.8984 98.4686H21.5254V107.757L20.9261 108.8H19.7276L19.1284 107.757V98.4686H16.7553L15.7246 97.8693V96.6468L16.7553 96.0596H23.9104L24.9411 96.6468V97.8693L23.8984 98.4686Z" fill="white"/>
<path d="M28.4999 108.8H27.3014L26.7021 107.757V97.1023L27.3014 96.0596H28.4999L29.0992 97.1023V107.757L28.4999 108.8Z" fill="white"/>
<path d="M33.2104 108.8H32.0118L31.4126 107.757V97.1023L32.0118 96.0596H37.7766L39.898 99.2476V101.189L37.7766 104.377H33.8096V107.757L33.2104 108.8ZM36.4463 98.4686H33.8096V101.968H36.4463L37.6328 100.218L36.4463 98.4686Z" fill="white"/>
<path d="M46.9093 103.634H42.8584L41.2284 101.189V99.2476L43.3498 96.0596H47.952L49.8097 98.8521L49.0427 100.015H47.6644L46.6217 98.4566H44.6801L43.6374 100.015L44.4404 101.213H48.4554L50.0854 103.658V105.624L47.964 108.812H43.0022L41.1445 106.019L41.8996 104.857H43.2779L44.3206 106.415H46.6217L47.6644 104.857L46.9093 103.634Z" fill="white"/>
<path d="M56.4133 103.958H52.7939L51.7632 103.371V102.112L52.7939 101.549H56.4253L57.456 102.112V103.371L56.4133 103.958Z" fill="white"/>
<path d="M64.8986 103.634H60.8476L59.2177 101.189V99.2476L61.339 96.0596H65.9413L67.799 98.8521L67.0319 100.015H65.6536L64.6109 98.4566H62.6694L61.6267 100.015L62.4297 101.213H66.4446L68.0746 103.658V105.624L65.9533 108.812H60.9915L59.1338 106.019L59.8888 104.857H61.2671L62.3098 106.415H64.6109L65.6536 104.857L64.8986 103.634Z" fill="white"/>
<path d="M78.4778 96.0596H79.6763L80.2756 97.1023V107.757L79.6763 108.8H78.4778L77.8786 107.757V102.076L75.6614 105.935H74.4629L72.2456 102.076V107.757L71.6464 108.8H70.4479L69.8486 107.757V97.1023L70.4479 96.0596H71.6464L75.0621 102.004L78.4778 96.0596Z" fill="white"/>
<path d="M7.28666 91.122V113.906H88.7249V91.122H7.28666ZM86.8432 93.0156V112.012H9.15633V93.0156H86.8432Z" fill="#E7CB95"/>
<path d="M7.87376 39.5864C8.0775 42.1632 9.81533 44.8599 10.9659 46.6336C11.2056 46.9932 11.3973 47.3168 11.5651 47.5805C12.2483 43.4576 11.0738 39.958 10.4266 38.0284C10.3187 37.7168 10.2348 37.4531 10.1749 37.2374C9.74342 35.7992 9.32394 33.7617 9.44379 31.6524C8.12544 34.1812 7.64604 36.6741 7.87376 39.5864Z" fill="#E7CB95"/>
<path d="M9.76765 57.8396C9.53993 57.6598 9.31222 57.492 9.10847 57.3242C7.99386 56.4733 7.09499 55.7781 6.51971 55.1669C6.69948 57.468 6.99911 60.5362 9.10847 63.0051C10.4748 64.5991 12.7759 65.2703 13.9504 65.5699C13.7706 65.1624 13.5909 64.719 13.3991 64.2635C12.4403 61.9025 11.2298 58.9662 9.76765 57.8396Z" fill="#E7CB95"/>
<path d="M6.59152 43.0741C6.02823 46.5737 6.48366 50.337 7.35856 51.907C7.86194 52.8059 8.71287 53.6209 9.53984 54.4119C10.1151 54.9632 10.6664 55.4905 11.0739 56.0299C11.1458 52.5302 10.4267 49.4621 9.04845 47.5085C7.9698 45.9624 7.05894 44.2965 6.59152 43.0741Z" fill="#E7CB95"/>
<path d="M65.8853 19.2717L65.8014 19.9309C65.7295 20.5421 65.5138 20.9616 65.1303 21.2253C64.4351 21.7047 63.2966 21.5968 62.8531 21.4889C63.0329 19.1279 63.1288 16.623 63.1288 13.9503H32.7467C32.7467 16.611 32.8306 19.1279 32.9864 21.4769C32.7228 21.5369 31.4883 21.7406 30.7093 21.2133C30.3258 20.9496 30.0981 20.5181 30.0261 19.9189L29.9422 19.2597L23.734 19.2717L23.7939 20.0747C23.8059 20.2065 24.0576 23.3945 25.328 27.3975C27.4613 34.1451 30.7452 37.7646 33.1303 39.5983C34.6404 40.7728 36.3063 41.6477 38.104 42.235C40.6688 46.5016 44.0606 48.659 48.0756 48.659C51.5153 48.659 54.7512 46.5496 57.34 42.3668C59.2936 41.7796 61.0793 40.8687 62.7093 39.6103C67.0359 36.2664 69.337 31.1249 70.5115 27.4095C71.77 23.4065 72.0336 20.2185 72.0456 20.0867L72.1055 19.2837L65.8853 19.2717ZM34.0531 38.4477C27.4853 33.3781 25.7595 23.6342 25.376 20.7818L28.6599 20.7698C28.8636 21.4889 29.2591 22.0642 29.8464 22.4597C30.973 23.2267 32.4471 23.0949 33.0823 22.999C33.6816 30.2859 35.0359 36.0387 37.0134 40.2335C35.9827 39.7541 34.9879 39.1548 34.0531 38.4477ZM61.7864 38.4477C60.7437 39.2507 59.6291 39.8979 58.4306 40.4013C60.516 36.1945 62.0501 30.3938 62.7333 22.999C63.3565 23.1069 64.8546 23.2387 65.9812 22.4717C66.5685 22.0762 66.964 21.5009 67.1677 20.7818L70.4516 20.7938C70.0801 23.6342 68.3542 33.3661 61.7864 38.4477Z" fill="#E7CB95"/>
<path d="M48.0119 15.5446C56.3983 15.5446 63.1969 14.7665 63.1969 13.8067C63.1969 12.847 56.3983 12.0689 48.0119 12.0689C39.6254 12.0689 32.8268 12.847 32.8268 13.8067C32.8268 14.7665 39.6254 15.5446 48.0119 15.5446Z" fill="#9E784F"/>
<path d="M35.6433 18.0494C35.6433 18.0494 35.6433 18.0494 35.6552 18.0494C35.871 18.0734 37.2133 18.4209 39.3706 18.5408C39.3706 18.5408 36.3743 23.4546 36.9736 32.2037C36.9736 32.2037 35.2957 26.2112 35.6433 18.0494Z" fill="white"/>
<path d="M61.2677 52.3141L62.6637 50.2201H65.8047L67.2007 52.3141V56.5022L65.8047 58.5962H62.6637L61.4422 56.7581L61.9424 55.9903H62.8498L63.5362 57.0141H64.9322L65.6186 55.9903V55.4319H62.6637L61.2677 53.3379V52.3141ZM63.5362 51.8023L62.8498 52.826L63.5362 53.8498H64.9322L65.6186 52.826L64.9322 51.8023H63.5362Z" fill="white"/>
<path d="M60.4499 53.3611L57.146 57.014H59.7752L60.4499 57.4095V58.2122L59.7752 58.5961H55.4359L55.0403 57.9098V57.0605L58.8677 52.8259L58.1814 51.8022H57.0762L56.3898 52.8259H55.4824L54.9822 52.0581L56.2037 50.22H59.0539L60.4499 52.3141V53.3611Z" fill="white"/>
<path d="M38.3302 57.0141L39.0165 55.9903V52.826L38.3302 51.8023H37.1668L36.4804 52.826V55.9903L37.1668 57.0141H38.3302ZM40.5987 56.5022L39.2027 58.5962H36.2943L34.8983 56.5022V52.3141L36.2943 50.2201H39.2027L40.5987 52.3141V56.5022Z" fill="white"/>
<path d="M33.9644 53.3611L30.6605 57.014H33.2897L33.9644 57.4095V58.2122L33.2897 58.5961H28.9504L28.5548 57.9098V57.0605L32.3822 52.8259L31.6959 51.8022H30.5907L29.9043 52.8259H28.9969L28.4967 52.0581L29.7182 50.22H32.5684L33.9644 52.3141V53.3611Z" fill="white"/>
</svg>
