<svg width="233" height="48" viewBox="0 0 233 48" fill="none" xmlns="http://www.w3.org/2000/svg">
<path d="M5.21971 10.2709L0 12.6019L4.48229 46.1231L12.581 43.5775C6.22071 39.3313 2.34738 28.5405 5.21971 10.2709Z" fill="#FF2D29"/>
<path d="M52.5602 40.0717L24.8655 48L4.48229 46.1231L34.9916 36.5342L52.5602 40.0717Z" fill="#B30415"/>
<path d="M45.903 8.75904L36.3739 4.03962C39.9183 20.9999 38.6164 31.2908 34.9916 36.5342L52.5602 40.0717L45.903 8.75904ZM35.3463 3.53033L28.2183 0L32.1263 21.0796C34.4582 16.8102 35.6516 11.2098 35.3463 3.53033Z" fill="#C80011"/>
<path d="M36.3739 4.03962L35.3463 3.53033C35.6516 11.2098 34.4582 16.8102 32.1263 21.0796L34.9916 36.5342C38.6164 31.2908 39.9183 20.9999 36.3739 4.03962Z" fill="#E8E4E2"/>
<path d="M21.3744 26.1106C17.5642 27.5041 13.9958 25.0159 13.322 20.6442C12.6579 16.3352 15.0368 11.6474 18.7124 10.0817C22.4861 8.47457 26.2603 10.7219 27.0609 15.2013C27.8739 19.7498 25.2887 24.6785 21.3744 26.1106ZM28.2183 0L6.48919 9.70373C7.97202 27.1533 14.483 32.889 21.899 30.2896C25.7203 28.95 29.823 25.1285 32.1263 21.0796L28.2183 0Z" fill="#FF2D29"/>
<path d="M21.3744 26.1106C25.2887 24.6785 27.8739 19.7498 27.0609 15.2013C26.2603 10.7219 22.4861 8.47457 18.7124 10.0817C15.0368 11.6474 12.6579 16.3352 13.322 20.6442C13.9958 25.0159 17.5642 27.5041 21.3744 26.1106Z" fill="white"/>
<path d="M21.899 30.2896C14.483 32.889 7.97202 27.1533 6.48919 9.70373L5.21971 10.2709C2.34738 28.5405 6.22071 39.3313 12.581 43.5775L34.9916 36.5342L32.1263 21.0796C29.823 25.1285 25.7203 28.95 21.899 30.2896ZM82.1605 25.4077C82.1605 19.943 81.1791 17.2109 79.2153 17.2109C78.2338 17.2109 77.4511 17.9281 76.8683 19.3629C76.2967 20.6932 76.0123 22.6498 76.0123 25.2318C76.0123 27.7747 76.2803 29.7478 76.8181 31.1493C77.3551 32.5516 78.1014 33.2514 79.057 33.2514C80.0376 33.2514 80.7937 32.5609 81.3244 31.1791C81.8818 29.7972 82.1605 27.8731 82.1605 25.4077ZM90.7762 25.3369C90.7762 29.8662 89.708 33.5484 87.5722 36.3833C85.4493 39.2062 82.6841 40.617 79.2757 40.617C76.251 40.617 73.6573 39.533 71.4957 37.3649C68.7759 34.619 67.4166 30.5006 67.4166 25.0106C67.4166 19.7507 68.8354 15.7284 71.6744 12.9447C73.7836 10.8799 76.2838 9.84575 79.1762 9.84575C82.7175 9.84575 85.5364 11.2454 87.6318 14.0421C89.7276 16.8392 90.7762 20.6032 90.7762 25.3369ZM63.2041 40.2275H55.1161V17.4322H50.6551V10.2348H67.8402V17.4322H63.2041V40.2275ZM145.429 40.2275H137.342V17.4322H132.88V10.2348H150.065V17.4322H145.429V40.2275ZM159.611 40.2275H151.524V10.2348H159.611V40.2275ZM169.422 24.1037L169.791 24.1229C170.773 24.1229 171.555 23.8224 172.137 23.2205C172.72 22.6177 173.01 21.7923 173.01 20.743C173.01 19.7075 172.726 18.8657 172.157 18.2179C171.588 17.5573 170.863 17.2265 169.984 17.2265H169.422V24.1037ZM169.422 40.2275H161.334V10.2348H169.17C173.075 10.2348 175.972 11.0317 177.859 12.6246C180.083 14.5033 181.196 17.1139 181.196 20.4559C181.196 24.0962 180.012 26.8105 177.646 28.5979C176.029 29.803 173.708 30.4053 170.683 30.4053H169.422V40.2275ZM182.172 39.2788V29.8587C183.794 32.077 185.547 33.1869 187.434 33.1869C188.146 33.1869 188.727 33.0057 189.175 32.6429C189.624 32.2796 189.848 31.8242 189.848 31.2766C189.848 30.4873 189.36 29.7158 188.384 28.9647L187.039 27.9515C186.142 27.3024 185.377 26.6564 184.744 26.0131C184.11 25.3698 183.596 24.707 183.201 24.0254C182.804 23.3442 182.515 22.6404 182.329 21.9143C182.145 21.1882 182.053 20.4243 182.053 19.6211C182.053 18.246 182.383 16.8076 183.043 15.3037C183.372 14.603 183.754 13.9633 184.19 13.3836C184.625 12.804 185.126 12.2916 185.693 11.8455C187.249 10.5727 189.129 9.93523 191.333 9.93523C193.297 9.93523 195.275 10.4427 197.267 11.4573V20.6451C196.594 19.6007 195.829 18.7784 194.972 18.1783C194.114 17.5769 193.271 17.2759 192.439 17.2759C191.806 17.2759 191.286 17.4549 190.877 17.8106C190.454 18.1543 190.244 18.5674 190.244 19.0513C190.244 19.8411 190.804 20.6237 191.926 21.3992L193.231 22.335C194.972 23.5441 196.218 24.7849 196.971 26.0577C197.735 27.3313 198.117 28.8191 198.117 30.5242C198.117 33.4264 197.201 35.8193 195.368 37.7024C193.534 39.5869 191.213 40.528 188.404 40.528C186.464 40.528 184.388 40.1117 182.172 39.2788ZM199.499 40.2275V10.2348H214.531V17.4322H207.587V21.6637H213.813V28.861H207.587V33.0302H214.531V40.2275H199.499ZM228.364 40.2275H220.277V17.4322H215.815V10.2348H233V17.4322H228.364V40.2275ZM99.9266 24.1046L100.295 24.1229C101.277 24.1229 102.06 23.8228 102.642 23.2205C103.224 22.6177 103.515 21.7923 103.515 20.743C103.515 19.7071 103.231 18.8657 102.662 18.2179C102.093 17.5577 101.368 17.2265 100.489 17.2265H99.9266V24.1046ZM99.9266 40.2284H91.8358V10.2348H99.6745C103.58 10.2348 106.476 11.0317 108.364 12.6255C110.588 14.5033 111.7 17.1139 111.7 20.4559C111.7 24.0971 110.517 26.8105 108.151 28.5988C106.535 29.8035 104.213 30.4053 101.188 30.4053H99.9266V40.2284ZM120.717 24.1046L121.085 24.1229C122.068 24.1229 122.85 23.8228 123.432 23.2205C124.014 22.6177 124.306 21.7923 124.306 20.743C124.306 19.7071 124.021 18.8657 123.452 18.2179C122.883 17.5577 122.159 17.2265 121.28 17.2265H120.717V24.1046ZM120.717 40.2284H112.626V10.2348H120.464C124.37 10.2348 127.267 11.0317 129.154 12.6255C131.378 14.5033 132.49 17.1139 132.49 20.4559C132.49 24.0971 131.307 26.8105 128.941 28.5988C127.325 29.8035 125.003 30.4053 121.978 30.4053H120.717V40.2284Z" fill="white"/>
</svg>
