<svg width="225" height="48" viewBox="0 0 225 48" fill="none" xmlns="http://www.w3.org/2000/svg">
<path d="M5.24047 10.2709L0 12.6019L4.50018 46.1231L12.6304 43.5775C6.24492 39.3313 2.35696 28.5405 5.24047 10.2709Z" fill="#FF2D29"/>
<path d="M52.7648 40.0717L24.9627 48L4.50018 46.1231L35.1277 36.5342L52.7648 40.0717Z" fill="#B30415"/>
<path d="M46.0816 8.75904L36.5159 4.03962C40.0737 20.9999 38.7667 31.2908 35.1277 36.5342L52.7648 40.0717L46.0816 8.75904ZM35.4838 3.53033L28.3281 0L32.2514 21.0796C34.5922 16.8102 35.7904 11.2098 35.4838 3.53033Z" fill="#C80011"/>
<path d="M36.5159 4.03962L35.4838 3.53033C35.7904 11.2098 34.5922 16.8102 32.2514 21.0796L35.1277 36.5342C38.7667 31.2908 40.0737 20.9999 36.5159 4.03962Z" fill="#E8E4E2"/>
<path d="M21.4576 26.1106C17.633 27.5041 14.0507 25.0159 13.3738 20.6442C12.7071 16.3352 15.0953 11.6474 18.7852 10.0817C22.5736 8.47457 26.3625 10.7219 27.1662 15.2013C27.9823 19.7498 25.3871 24.6785 21.4576 26.1106ZM28.3281 0L6.51444 9.70373C8.00304 27.1533 14.5393 32.889 21.9846 30.2896C25.8204 28.95 29.9395 25.1285 32.2514 21.0796L28.3281 0Z" fill="#FF2D29"/>
<path d="M21.4576 26.1106C25.3871 24.6785 27.9823 19.7498 27.1662 15.2013C26.3625 10.7219 22.5736 8.47457 18.7852 10.0817C15.0953 11.6474 12.7071 16.3352 13.3738 20.6442C14.0507 25.0159 17.633 27.5041 21.4576 26.1106Z" fill="white"/>
<path d="M21.9846 30.2896C14.5393 32.889 8.00304 27.1533 6.51444 9.70373L5.24047 10.2709C2.35696 28.5405 6.24492 39.3313 12.6304 43.5775L35.1277 36.5342L32.2514 21.0796C29.9395 25.1285 25.8204 28.95 21.9846 30.2896Z" fill="white"/>
<path fill-rule="evenodd" clip-rule="evenodd" d="M225 44.9291H48.1352V5.43929H225V44.9291Z" fill="#D34600"/>
<path d="M82.5454 25.1735C82.5454 20.2542 81.6583 17.795 79.8836 17.795C78.9965 17.795 78.2893 18.4405 77.7627 19.7324C77.2464 20.9296 76.989 22.6907 76.989 25.015C76.989 27.3046 77.2313 29.0805 77.7172 30.3421C78.2027 31.6042 78.877 32.2342 79.7404 32.2342C80.627 32.2342 81.3098 31.6127 81.7895 30.3688C82.2937 29.125 82.5454 27.3932 82.5454 25.1735ZM90.3311 25.1098C90.3311 29.1869 89.3659 32.5017 87.436 35.0535C85.5177 37.5947 83.0184 38.8648 79.9381 38.8648C77.2049 38.8648 74.8614 37.8889 72.9074 35.9372C70.45 33.4656 69.2215 29.758 69.2215 24.816C69.2215 20.081 70.5035 16.4603 73.0693 13.9548C74.9752 12.0957 77.2344 11.1653 79.8484 11.1653C83.0487 11.1653 85.5962 12.4247 87.4895 14.9422C89.3833 17.4602 90.3311 20.8485 90.3311 25.1098ZM65.4148 38.514H58.1061V17.994H54.0744V11.5152H69.6044V17.994H65.4148V38.514ZM139.72 38.514H132.411V17.994H128.379V11.5152H143.909V17.994H139.72V38.514ZM152.536 38.514H145.227V11.5152H152.536V38.514ZM161.402 24L161.735 24.0169C162.623 24.0169 163.329 23.7462 163.856 23.2045C164.382 22.6622 164.645 21.9188 164.645 20.9745C164.645 20.0423 164.387 19.2846 163.873 18.7014C163.359 18.1066 162.704 17.8092 161.91 17.8092H161.402V24ZM161.402 38.514H154.093V11.5152H161.173C164.703 11.5152 167.321 12.2324 169.026 13.6663C171.036 15.358 172.042 17.7077 172.042 20.7163C172.042 23.9929 170.972 26.4365 168.834 28.0454C167.373 29.1299 165.275 29.6726 162.541 29.6726H161.402V38.514ZM172.924 37.6601V29.1802C174.39 31.1769 175.974 32.1763 177.678 32.1763C178.323 32.1763 178.847 32.0129 179.252 31.6866C179.657 31.3594 179.86 30.9494 179.86 30.4565C179.86 29.746 179.419 29.0515 178.537 28.3757L177.321 27.4636C176.511 26.879 175.82 26.2976 175.247 25.7184C174.675 25.1397 174.21 24.5427 173.853 23.9292C173.495 23.3158 173.233 22.6827 173.066 22.0292C172.899 21.3752 172.816 20.6878 172.816 19.9648C172.816 18.7268 173.114 17.4322 173.71 16.0784C174.008 15.4475 174.353 14.8719 174.747 14.3501C175.14 13.8279 175.593 13.3667 176.105 12.9652C177.512 11.8193 179.211 11.2454 181.201 11.2454C182.977 11.2454 184.764 11.7026 186.564 12.6157V20.8864C185.957 19.9461 185.265 19.2062 184.49 18.6658C183.716 18.1244 182.953 17.8538 182.202 17.8538C181.63 17.8538 181.159 18.0145 180.79 18.335C180.408 18.644 180.218 19.0161 180.218 19.4515C180.218 20.1629 180.724 20.8672 181.738 21.5653L182.917 22.4076C184.49 23.496 185.617 24.6126 186.297 25.7585C186.987 26.9048 187.333 28.2444 187.333 29.7794C187.333 32.3918 186.505 34.5456 184.848 36.2408C183.191 37.937 181.094 38.7842 178.555 38.7842C176.802 38.7842 174.926 38.4094 172.924 37.6601ZM188.582 38.514V11.5152H202.165V17.994H195.891V21.8035H201.517V28.2822H195.891V32.0352H202.165V38.514H188.582ZM214.666 38.514H207.358V17.994H203.326V11.5152H218.856V17.994H214.666V38.514ZM98.6001 24.0004L98.933 24.0174C99.8205 24.0174 100.528 23.7471 101.054 23.2045C101.58 22.6622 101.843 21.9192 101.843 20.9745C101.843 20.0423 101.586 19.2846 101.072 18.7014C100.558 18.1071 99.9031 17.8092 99.1083 17.8092H98.6001V24.0004ZM98.6001 38.5149H91.2887V11.5152H98.3721C101.901 11.5152 104.518 12.2324 106.225 13.6672C108.234 15.358 109.24 17.7077 109.24 20.7163C109.24 23.9938 108.17 26.4365 106.032 28.0459C104.571 29.1303 102.473 29.6726 99.7402 29.6726H98.6001V38.5149ZM117.388 24.0004L117.721 24.0174C118.609 24.0174 119.316 23.7471 119.842 23.2045C120.367 22.6622 120.631 21.9192 120.631 20.9745C120.631 20.0423 120.374 19.2846 119.86 18.7014C119.345 18.1071 118.691 17.8092 117.896 17.8092H117.388V24.0004ZM117.388 38.5149H110.077V11.5152H117.16C120.689 11.5152 123.307 12.2324 125.013 13.6672C127.022 15.358 128.027 17.7077 128.027 20.7163C128.027 23.9938 126.958 26.4365 124.82 28.0459C123.359 29.1303 121.261 29.6726 118.528 29.6726H117.388V38.5149Z" fill="white"/>
</svg>
