<svg width="258" height="48" viewBox="0 0 258 48" fill="none" xmlns="http://www.w3.org/2000/svg">
<path d="M119.788 47.3392H107.091V11.6106H100.059V0.283186H127.056V11.6106H119.788V47.3392ZM129.369 0.283186H142.065V47.3864H129.369V0.283186ZM157.451 47.3392H144.755V0.283186H157.074C163.209 0.283186 167.74 1.55752 170.761 4.0118C174.206 6.93805 175.953 11.0442 175.953 16.3304C175.953 22.0885 174.112 26.2891 170.383 29.1209C167.835 31.056 164.201 31.9528 159.434 31.9528H157.404L157.451 47.3392ZM157.451 22.0885H158.018C159.575 22.0885 160.755 21.6165 161.652 20.6254C162.549 19.7286 163.021 18.3599 163.021 16.708C163.021 15.056 162.549 13.7817 161.652 12.7906C160.755 11.7994 159.622 11.233 158.254 11.233H157.357V22.0885H157.451ZM177.557 45.9233V31.1032C180.106 34.5487 182.844 36.295 185.864 36.295C186.95 36.295 187.894 36.0118 188.602 35.4926C189.31 34.9263 189.687 34.2183 189.687 33.3215C189.687 32.0472 188.979 30.8673 187.422 29.6873L185.345 28.1298C183.976 27.1386 182.702 26.1003 181.711 25.1091C180.72 24.118 179.87 23.0796 179.257 21.9941C178.643 20.9086 178.171 19.823 177.888 18.6903C177.605 17.6047 177.416 16.3304 177.416 15.1504C177.416 12.9793 177.982 10.7611 178.973 8.40118C179.54 7.31563 180.059 6.32448 180.814 5.38053C181.475 4.48378 182.277 3.63422 183.174 3.02065C185.628 0.99115 188.555 0 192.047 0C195.162 0 198.23 0.802359 201.345 2.35988V16.7552C200.26 15.1032 199.08 13.8289 197.711 12.9322C196.342 12.0354 195.068 11.469 193.699 11.469C192.708 11.469 191.858 11.7522 191.245 12.2714C190.584 12.8378 190.254 13.4513 190.254 14.2065C190.254 15.4808 191.15 16.6608 192.897 17.8407L194.973 19.3038C197.711 21.2389 199.646 23.1268 200.826 25.1563C202.006 27.1858 202.667 29.5457 202.667 32.1888C202.667 36.767 201.203 40.4956 198.372 43.5162C195.445 46.4425 191.811 48 187.422 48C184.307 47.9056 181.003 47.1976 177.557 45.9233ZM204.743 47.3392V0.283186H228.389V11.6106H217.487V18.2655H227.257V29.5457H217.487V36.1534H228.389V47.3392H204.743ZM250.195 47.3392H237.404V11.6106H230.372V0.283186H257.369V11.6106H250.195V47.3392ZM23.882 47.528H10.8555L0 0.235988H13.4041L15.6696 13.7345C16.5664 18.9263 17.2271 24.6844 17.7463 31.056C18.0295 28.2242 18.2183 25.5811 18.5487 23.1268C18.9262 20.6726 19.2566 18.3127 19.7286 15.9056L22.7493 0.283186H36.6254L23.882 47.528ZM83.1622 47.528H70.2773L69.7109 26.0059L69.2389 17.4159C69.0501 19.0678 68.9557 20.6254 68.6725 22.1829C68.4837 23.646 68.2006 25.1091 67.9646 26.5723L63.764 47.6696H53.2861L49.8407 26.5723C49.6519 25.3923 49.3687 23.174 49.0383 20.295C49.0383 19.823 48.8495 18.9263 48.7551 17.5575L48.472 26.3363L47.3864 47.6224H33.7935L39.2684 0.330383H55.1268L57.7699 16.1888C57.9587 17.4631 58.2419 18.9263 58.4307 20.4838C58.6194 22.0413 58.8082 23.6932 58.9026 25.4867C59.1858 22.4661 59.5634 19.823 59.9882 17.4631L63.1976 0.377581H78.6312L83.1622 47.528ZM85.0029 19.9646H100.342V29.1681H85.0029V19.9646Z" fill="#FED400"/>
</svg>
