<svg width="221" height="48" viewBox="0 0 221 48" fill="none" xmlns="http://www.w3.org/2000/svg">
<path d="M13.5513 1.85055L7.57866 2.27056L0 36.7471L8.88243 37.1462C4.14042 30.7081 4.18838 18.7406 13.5513 1.85055Z" fill="#FF2D29"/>
<path d="M49.4918 48L19.3932 45.8749L0 36.7471L33.4623 38.2501L49.4918 48Z" fill="#B30415"/>
<path d="M54.1397 14.9117L46.4479 6.87719C43.8697 24.7768 38.9065 34.4041 33.4623 38.2501L49.4918 48L54.1397 14.9117ZM45.6182 6.01022L39.8643 0L36.1704 22.0695C39.9933 18.7164 43.1717 13.6508 45.6182 6.01022Z" fill="#C80011"/>
<path d="M46.4479 6.87719L45.6182 6.01022C43.1717 13.6508 39.9933 18.7164 36.1704 22.0695L33.4623 38.2501C38.9065 34.4041 43.8697 24.7768 46.4479 6.87719Z" fill="#E8E4E2"/>
<path d="M23.7869 23.1595C19.538 23.1646 16.9155 19.4487 17.8161 14.9201C18.7036 10.4566 22.722 6.70993 26.9006 6.48877C31.1905 6.26158 34.1016 9.81447 33.2872 14.494C32.4603 19.2452 28.1527 23.1549 23.7869 23.1595ZM39.8643 0L15.0032 1.74834C10.2207 19.391 14.5785 27.3438 22.8086 27.446C27.0491 27.4981 32.4551 25.2168 36.1704 22.0695L39.8643 0Z" fill="#FF2D29"/>
<path d="M23.7869 23.1595C28.1527 23.1549 32.4603 19.2452 33.2872 14.494C34.1016 9.81447 31.1905 6.26158 26.9006 6.48877C22.722 6.70993 18.7036 10.4566 17.8161 14.9201C16.9155 19.4487 19.538 23.1646 23.7869 23.1595Z" fill="white"/>
<path d="M22.8086 27.446C14.5785 27.3438 10.2207 19.391 15.0032 1.74834L13.5513 1.85055C4.18838 18.7406 4.14042 30.7081 8.88243 37.1462L33.4623 38.2501L36.1704 22.0695C32.4551 25.2168 27.0491 27.4981 22.8086 27.446Z" fill="white"/>
<path d="M129.589 40.5595H121.153V16.7404H116.481V9.18879H134.418V16.7404H129.589V40.5595ZM135.955 9.18879H144.39V40.591H135.955V9.18879ZM154.613 40.5595H146.178V9.18879H154.362C158.439 9.18879 161.449 10.0383 163.456 11.6745C165.746 13.6254 166.906 16.3628 166.906 19.8869C166.906 23.7257 165.683 26.5261 163.206 28.414C161.512 29.704 159.098 30.3019 155.93 30.3019H154.582L154.613 40.5595ZM154.99 23.7257C156.024 23.7257 156.808 23.411 157.404 22.7502C158 22.1524 158.314 21.2399 158.314 20.1386C158.314 19.0374 158 18.1878 157.404 17.527C156.808 16.8663 156.056 16.4887 155.146 16.4887H154.551V23.7257H154.99ZM167.972 39.6155V29.7355C169.666 32.0324 171.484 33.1967 173.491 33.1967C174.213 33.1967 174.84 33.0079 175.31 32.6618C175.78 32.2842 176.031 31.8122 176.031 31.2144C176.031 30.3648 175.561 29.5782 174.526 28.7915L173.146 27.7532C172.237 27.0924 171.39 26.4002 170.732 25.7394C170.073 25.0787 169.509 24.3864 169.101 23.6627C168.693 22.939 168.38 22.2153 168.192 21.4602C168.003 20.7365 167.878 19.8869 167.878 19.1003C167.878 17.6529 168.254 16.174 168.913 14.6008C169.289 13.8771 169.634 13.2163 170.136 12.587C170.575 11.9892 171.108 11.4228 171.704 11.0138C173.335 9.66077 175.279 9 177.599 9C179.669 9 181.707 9.53491 183.777 10.5733V20.1701C183.056 19.0688 182.272 18.2193 181.362 17.6214C180.453 17.0236 179.606 16.646 178.697 16.646C178.038 16.646 177.474 16.8348 177.066 17.1809C176.627 17.5585 176.408 17.9676 176.408 18.471C176.408 19.3206 177.003 20.1072 178.164 20.8938L179.544 21.8692C181.362 23.1593 182.648 24.4179 183.432 25.7709C184.216 27.1239 184.655 28.6971 184.655 30.4592C184.655 33.5113 183.683 35.997 181.801 38.0108C179.857 39.9617 177.443 41 174.526 41C172.456 40.9371 170.261 40.4651 167.972 39.6155ZM186.035 40.5595V9.18879H201.746V16.7404H194.502V21.177H200.993V28.6971H194.502V33.1023H201.746V40.5595H186.035ZM216.233 40.5595H207.735V16.7404H203.063V9.18879H221V16.7404H216.233V40.5595ZM65.8676 40.6853H57.2125L50 9.15733H58.9059L60.4112 18.1563C61.007 21.6175 61.446 25.4562 61.7909 29.704C61.9791 27.8161 62.1045 26.0541 62.324 24.4179C62.5749 22.7817 62.7944 21.2085 63.108 19.6037L65.115 9.18879H74.3345L65.8676 40.6853ZM105.254 40.6853H96.6934L96.3171 26.3373L96.0035 20.6106C95.8781 21.7119 95.8153 22.7502 95.6272 23.7886C95.5017 24.764 95.3136 25.7394 95.1568 26.7148L92.3659 40.7797H85.4042L83.115 26.7148C82.9895 25.9282 82.8014 24.4494 82.5819 22.53C82.5819 22.2153 82.4565 21.6175 82.3937 20.705L82.2056 26.5575L81.4843 40.7483H72.453L76.0906 9.22025H86.6272L88.3833 19.7925C88.5087 20.6421 88.6969 21.6175 88.8223 22.6559C88.9477 23.6942 89.0732 24.7955 89.1359 25.9911C89.324 23.9774 89.5749 22.2153 89.8571 20.6421L91.9895 9.25172H102.244L105.254 40.6853ZM106.477 22.3097H116.669V28.4454H106.477V22.3097Z" fill="#FED400"/>
</svg>
