<svg width="48" height="48" viewBox="0 0 48 48" fill="none" xmlns="http://www.w3.org/2000/svg">
<g clip-path="url(#clip0_6840_60926)">
<path d="M0 0H48V48H0V0Z" fill="#C91485"/>
<path d="M63.6356 26.7638C63.6356 24.0611 64.4994 21.5255 66.0597 19.4636C65.809 19.1293 65.5025 18.7949 65.2238 18.4605C63.0784 16.2315 60.1527 15.0334 57.0042 15.0334C53.8277 15.0334 50.9021 16.2593 48.7566 18.4605C48.5616 18.6556 48.3944 18.8506 48.2272 19.0735C49.5089 20.8011 50.2055 23.0301 50.2055 25.5378V38.0764H46.1653C46.6947 39.6367 47.5028 41.0577 48.6173 42.2001C50.707 44.4013 53.6606 45.5995 56.9484 45.5995C60.2363 45.5995 63.2177 44.3735 65.3353 42.1723C66.8678 40.5841 67.8709 38.5222 68.2888 36.2095C67.8151 35.8751 67.3972 35.4851 66.9792 35.0671C64.8059 32.8659 63.6356 29.9124 63.6356 26.7638Z" fill="#C4097B"/>
<path d="M32.1779 18.0147C32.5123 17.6804 32.8745 17.3739 33.2367 17.1231C33.3482 16.6494 33.4317 16.1479 33.4317 15.6463C33.4317 12.3027 30.729 9.6 27.3854 9.6C24.0418 9.6 21.3391 12.3027 21.3391 15.6463C21.3391 16.3151 21.4505 16.9281 21.6455 17.5411C22.175 17.9311 22.6765 18.3491 23.1502 18.8506C25.1842 20.9683 26.2987 23.8103 26.2987 26.8474C26.2987 29.9124 25.1563 32.8102 23.0944 34.9557C22.7044 35.3736 22.2585 35.7637 21.8127 36.0981V38.0764H29.2244V25.5378C29.1408 22.6122 30.2275 19.9373 32.1779 18.0147Z" fill="#58AB32"/>
<path d="M83.14 18.4884C80.9945 16.2593 78.0967 15.0334 75.0039 15.0334C71.9111 15.0334 69.0133 16.2593 66.8678 18.5163C66.5892 18.8228 66.3105 19.1293 66.0597 19.4636C67.6201 21.4977 68.4839 24.0611 68.4839 26.7917V33.6461C68.4839 34.5098 68.4003 35.3736 68.261 36.1816C70.1835 37.6305 72.524 38.4107 75.0039 38.4107C78.0967 38.4107 80.9945 37.1847 83.14 34.9835C85.2576 32.8102 86.4 29.8845 86.4 26.7638C86.4 23.6153 85.2297 20.6896 83.14 18.4884Z" fill="#D40D1D"/>
<path d="M68.4839 26.7917C68.4839 24.0611 67.6201 21.5255 66.0597 19.4636C64.4994 21.5255 63.6356 24.0611 63.6356 26.7638C63.6356 29.9124 64.8059 32.8659 66.9235 35.0393C67.3415 35.4572 67.7873 35.8473 68.2331 36.1816C68.3724 35.3736 68.456 34.5098 68.456 33.6461L68.4839 26.7917Z" fill="url(#paint0_linear_6840_60926)"/>
<path d="M68.4839 26.7917C68.4839 24.0611 67.6201 21.5255 66.0597 19.4636C64.4994 21.5255 63.6356 24.0611 63.6356 26.7638C63.6356 29.9124 64.8059 32.8659 66.9235 35.0393C67.3415 35.4572 67.7873 35.8473 68.2331 36.1816C68.3724 35.3736 68.456 34.5098 68.456 33.6461L68.4839 26.7917Z" fill="url(#paint1_linear_6840_60926)"/>
<path d="M21.5898 17.5132C19.723 16.1479 17.4939 15.4234 15.0977 15.4234H14.4011V10.0737H3.2V26.6802C3.2 29.8567 4.37026 32.8102 6.48788 34.9835C8.63336 37.1847 11.559 38.4107 14.7076 38.4107C17.3267 38.4107 19.7508 37.6027 21.7291 36.0702V17.9033C21.7013 17.764 21.6455 17.6525 21.5898 17.5132Z" fill="#0D68AD"/>
<path d="M26.243 26.8196C26.243 23.7825 25.1285 20.9404 23.0944 18.8228C22.6208 18.3491 22.1192 17.9033 21.5898 17.5132C21.6455 17.6525 21.6734 17.7918 21.7291 17.9033V36.0981C22.175 35.7637 22.6208 35.3736 23.0109 34.9557C25.1006 32.7823 26.243 29.8845 26.243 26.8196Z" fill="#0D68AD"/>
<path d="M45.4409 26.7917C45.4409 23.8939 46.4161 21.1633 48.1993 19.0735C46.3603 16.5658 43.3511 15.0334 39.7289 15.0334C37.3048 15.0334 35.0478 15.7578 33.2367 17.0952C33.181 17.3739 33.0695 17.6525 32.9859 17.9033V38.0764H46.1653C45.7195 36.7389 45.4687 35.2622 45.4687 33.7575L45.4409 26.7917Z" fill="#FBBF02"/>
<path d="M50.1776 25.5378C50.1776 23.0023 49.4532 20.8011 48.1993 19.0735C46.4161 21.1912 45.4409 23.8939 45.4409 26.7917L45.4409 33.7297C45.4409 35.2622 45.6638 36.7111 46.1374 38.0485H50.1776V25.5378Z" fill="url(#paint2_linear_6840_60926)"/>
<path d="M50.1776 25.5378C50.1776 23.0023 49.4532 20.8011 48.1993 19.0735C46.4161 21.1912 45.4409 23.8939 45.4409 26.7917L45.4409 33.7297C45.4409 35.2622 45.6638 36.7111 46.1374 38.0485H50.1776V25.5378Z" fill="url(#paint3_linear_6840_60926)"/>
<path d="M33.2088 17.0952C32.8466 17.3739 32.4844 17.6804 32.15 17.9869C30.1996 19.9094 29.1408 22.5843 29.1408 25.51V38.0485H32.9581V17.9033C33.0695 17.6525 33.1531 17.3739 33.2088 17.0952Z" fill="url(#paint4_linear_6840_60926)"/>
<path d="M33.2088 17.0952C32.8466 17.3739 32.4844 17.6804 32.15 17.9869C30.1996 19.9094 29.1408 22.5843 29.1408 25.51V38.0485H32.9581V17.9033C33.0695 17.6525 33.1531 17.3739 33.2088 17.0952Z" fill="url(#paint5_linear_6840_60926)"/>
<path d="M33.2088 17.0952C32.8466 17.3739 32.4844 17.6804 32.15 18.0147C30.1996 19.9373 29.1408 22.6122 29.1408 25.5378V38.0764H32.9581V17.9033C33.0695 17.6525 33.1531 17.3739 33.2088 17.0952Z" fill="#BCC20E"/>
<path d="M23.0387 34.9278C25.1006 32.7823 26.243 29.8845 26.243 26.8196C26.243 23.7825 25.1285 20.9404 23.0944 18.8228C22.6208 18.3491 22.1192 17.9033 21.5898 17.5132C21.6455 17.6525 21.6734 17.7918 21.7291 17.9033V36.0981C22.2028 35.7358 22.6208 35.3457 23.0387 34.9278Z" fill="#038B84"/>
<path d="M50.1776 25.5378C50.1776 23.0023 49.4532 20.8011 48.1993 19.0735C46.4161 21.1912 45.4409 23.8939 45.4409 26.7917L45.4409 33.7297C45.4409 35.2622 45.6638 36.7111 46.1374 38.0485H50.2055L50.2055 25.5378L50.1776 25.5378Z" fill="#DF817F"/>
<path d="M68.4839 26.7917C68.4839 24.0611 67.6201 21.4977 66.0597 19.4636C64.4994 21.5255 63.6356 24.0611 63.6356 26.7638C63.6356 29.9124 64.8059 32.8659 66.9235 35.0393C67.3415 35.4572 67.7873 35.8473 68.2331 36.1816C68.3724 35.3736 68.456 34.5098 68.456 33.6461L68.4839 26.7917Z" fill="#D71B53"/>
<path d="M75.0039 34.6213C72.9699 34.6213 71.0751 33.8133 69.6541 32.3922C68.2331 30.9155 67.425 28.9372 67.425 26.7638C67.425 22.3336 70.7408 18.8506 74.976 18.8506C79.2391 18.8506 82.5549 22.3336 82.5549 26.7638C82.5827 31.1662 79.267 34.6213 75.0039 34.6213ZM75.0039 22.1106C72.747 22.1106 71.0473 24.1168 71.0473 26.7917C71.0473 29.383 72.747 31.3334 75.0039 31.3334C77.2608 31.3334 78.9605 29.383 78.9605 26.7917C78.9605 24.1168 77.2608 22.1106 75.0039 22.1106ZM56.8927 41.7822C53.2426 41.7822 50.2891 39.7203 49.6204 36.7389H53.6327C54.2178 37.937 55.7224 38.1878 56.8927 38.1878C59.5676 38.1878 61.0443 36.5439 61.0443 33.5346V26.7917C61.0443 24.3397 59.2054 22.3336 56.9763 22.3336C54.7194 22.3336 52.8804 24.3397 52.8804 26.7917C52.8804 29.1322 54.6079 30.7762 57.0877 30.7762H57.7565C58.7038 30.7762 59.5119 31.5563 59.5119 32.5315V34.2869H56.7812C54.58 34.2869 52.6853 33.5346 51.32 32.1136C50.0104 30.7483 49.286 28.8814 49.286 26.8196C49.286 22.2778 52.6017 18.8785 57.032 18.8785C61.4066 18.8785 64.7223 22.3057 64.7223 26.8196V33.6739C64.6666 38.5222 61.5459 41.7822 56.8927 41.7822ZM42.766 34.2591V25.4543C42.766 24.7298 42.5431 22.3614 39.701 22.3614C37.8342 22.3614 36.5524 23.6431 36.5524 25.4543V34.2591H32.9581V25.5378C32.9581 21.5812 35.7444 18.8506 39.701 18.8506C43.7412 18.8506 46.3603 21.4698 46.3603 25.5378V34.2591H42.766ZM25.5464 34.2591V19.2129H29.1408V34.2591H25.5464ZM27.3575 17.8754C26.1315 17.8754 25.1006 16.8723 25.1006 15.6185C25.1006 14.3646 26.1037 13.3616 27.3575 13.3616C28.5835 13.3616 29.6145 14.3646 29.6145 15.6185C29.6145 16.8723 28.5835 17.8754 27.3575 17.8754ZM14.7076 34.6213C10.3052 34.6213 6.98942 31.222 6.98942 26.7081V13.891H10.5838V26.7081C10.5838 29.1601 12.4228 31.1384 14.6797 31.1384C16.9366 31.1384 18.7756 29.2158 18.7756 26.8196C18.7756 24.4512 16.9645 22.6958 14.5683 22.6958H13.8995C12.9522 22.6958 12.1441 21.9156 12.1441 20.9404V19.2129H15.0141C17.0202 19.2129 18.8871 19.993 20.2524 21.4419C21.5898 22.863 22.3421 24.7577 22.3421 26.8196C22.3421 28.9093 21.5898 30.8597 20.1967 32.3086C18.8592 33.7854 16.8809 34.6213 14.7076 34.6213Z" fill="white"/>
</g>
<defs>
<linearGradient id="paint0_linear_6840_60926" x1="43.2" y1="-11.884" x2="43.2" y2="52.3992" gradientUnits="userSpaceOnUse">
<stop stop-color="#D3037A"/>
<stop offset="0.51" stop-color="#C5097B"/>
<stop offset="1" stop-color="#B3107D"/>
</linearGradient>
<linearGradient id="paint1_linear_6840_60926" x1="43.2" y1="-12.1552" x2="43.2" y2="53.7984" gradientUnits="userSpaceOnUse">
<stop stop-color="#E0071B"/>
<stop offset="0.587" stop-color="#D20F1E"/>
<stop offset="1" stop-color="#C51620"/>
</linearGradient>
<linearGradient id="paint2_linear_6840_60926" x1="43.2" y1="-9.4837" x2="43.2" y2="47.1535" gradientUnits="userSpaceOnUse">
<stop stop-color="#D3037A"/>
<stop offset="0.51" stop-color="#C5097B"/>
<stop offset="1" stop-color="#B3107D"/>
</linearGradient>
<linearGradient id="paint3_linear_6840_60926" x1="43.2" y1="-9.72264" x2="43.2" y2="47.4404" gradientUnits="userSpaceOnUse">
<stop stop-color="#FFD400"/>
<stop offset="0.332" stop-color="#FCC601"/>
<stop offset="0.96" stop-color="#F5A104"/>
<stop offset="1" stop-color="#F49E04"/>
</linearGradient>
<linearGradient id="paint4_linear_6840_60926" x1="43.2" y1="-2.3017" x2="43.2" y2="47.7836" gradientUnits="userSpaceOnUse">
<stop stop-color="#97BF1E"/>
<stop offset="0.292" stop-color="#89BA23"/>
<stop offset="0.845" stop-color="#64AF2E"/>
<stop offset="1" stop-color="#58AB32"/>
</linearGradient>
<linearGradient id="paint5_linear_6840_60926" x1="43.2" y1="-4.27277" x2="43.2" y2="47.4932" gradientUnits="userSpaceOnUse">
<stop stop-color="#FFD400"/>
<stop offset="0.332" stop-color="#FCC601"/>
<stop offset="0.96" stop-color="#F5A104"/>
<stop offset="1" stop-color="#F49E04"/>
</linearGradient>
<clipPath id="clip0_6840_60926">
<rect width="48" height="48" fill="white"/>
</clipPath>
</defs>
</svg>
