<svg width="48" height="48" viewBox="0 0 48 48" fill="none" xmlns="http://www.w3.org/2000/svg">
<g clip-path="url(#clip0_6836_60503)">
<path d="M0 0H48V48H0V0Z" fill="#A00813"/>
<path d="M51.5454 12L48.5306 21.6958H38.4479L40.9842 13.4769C41.2511 12.6576 40.8076 12 39.9781 12H35.2747L27.4394 35.9995H32.1495C32.9756 35.9995 33.8544 35.3362 34.1218 34.5197L36.7771 26.4957H46.8511L43.7149 35.9995H48.4231C49.2477 35.9995 50.1295 35.3371 50.3963 34.5226L57.7411 12H51.5454Z" fill="white"/>
<path d="M184.991 12.0005C181.172 12.0005 177.049 15.1166 175.805 18.9426L172.515 29.0579C171.271 32.8839 173.368 36 177.187 36H190.933C191.829 36 192.901 35.1907 193.196 34.286L194.715 29.6104L194.754 29.4865L195.806 26.2485L197.332 21.6963H186.432L184.872 26.4962H190.01L188.881 29.7121H179.088C178.787 29.7121 178.759 29.6742 178.858 29.3694L181.769 20.7008L178.86 18.1439H195.801C196.774 18.1439 197.795 16.8532 198.014 16.1668L199.348 12L184.991 12.0005Z" fill="white"/>
<path d="M141.555 35.9995C141.895 35.9995 142.263 35.7226 142.372 35.3837L144.244 29.7116H127.552L128.629 26.3037H139.506C139.871 26.3037 140.264 26.01 140.383 25.6456L141.762 21.4558H130.157L131.28 18.1439H145.48C145.818 18.1439 146.185 17.8684 146.294 17.5304L148.031 12H127.38L121.505 30.0563C120.982 31.6681 119.337 35.9995 124.822 35.9995H141.555Z" fill="white"/>
<path d="M217.471 35.9995C217.811 35.9995 218.179 35.7226 218.288 35.3837L220.16 29.7116H203.469L204.546 26.3037H215.422C215.788 26.3037 216.18 26.01 216.299 25.6456L217.679 21.4558H206.073L207.197 18.1439H221.396C221.735 18.1439 222.101 17.8684 222.21 17.5304L223.947 12H203.296L197.421 30.0563C196.898 31.6681 195.254 35.9995 200.738 35.9995H217.471Z" fill="white"/>
<path d="M52.7867 35.9995H59.3083L62.3322 26.4957H72.0765L69.0526 35.9995H75.2325L80.8531 18.7755C81.9773 15.3211 80.2959 12.4622 77.0761 12H66.6022C63.0719 12.4618 59.5363 15.3172 58.4136 18.7679L52.7867 35.9995ZM64.9583 18.6239C65.0351 18.394 65.3821 18.1439 65.7599 18.1439H74.2494C74.6085 18.1439 74.7813 18.3786 74.7045 18.5946L73.6168 21.6958H63.8965L64.9583 18.6239Z" fill="white"/>
<path d="M82.0574 35.9947C80.125 35.9947 78.7498 34.1132 79.3517 32.2695L85.9425 12H92.2145L86.4398 29.7596H98.6958L96.6674 35.9995L82.0574 35.9947Z" fill="white"/>
<path d="M102.76 35.9947C100.827 35.9947 99.4523 34.1132 100.054 32.2695L106.645 12H112.917L107.142 29.7596H119.398L117.37 35.9995L102.76 35.9947Z" fill="white"/>
<path d="M5.96699 29.0253C4.70894 32.869 6.79161 35.9995 10.5898 35.9995H22.6049C23.6105 35.9995 24.6924 35.1812 25.0264 34.1823L26.5408 29.7117H12.8361C12.5741 29.7117 12.4267 29.4885 12.5169 29.2221L15.993 18.6815C16.0881 18.4055 16.3693 18.1919 16.6314 18.1919H28.5256C29.5364 18.1919 30.4177 17.7325 30.7513 16.7255L32.2868 12H17.4935C13.978 12.4699 10.4141 15.406 9.26932 18.956L5.96699 29.0253Z" fill="white"/>
<path d="M164.707 25.9965L159.461 12H152.727L144.93 35.9995H149.911C150.627 35.9995 151.262 35.5411 151.48 34.8595L155.656 22.0155L160.495 34.9282C160.739 35.5709 161.352 35.9995 162.043 35.9995H167.555L175.361 12H170.475C169.749 12 169.106 12.4666 168.886 12.864L164.707 25.9965Z" fill="white"/>
</g>
<defs>
<clipPath id="clip0_6836_60503">
<rect width="48" height="48" fill="white"/>
</clipPath>
</defs>
</svg>
