<svg width="48" height="48" viewBox="0 0 48 48" fill="none" xmlns="http://www.w3.org/2000/svg">
<g clip-path="url(#clip0_6838_60658)">
<path d="M0 0H48V48H0V0Z" fill="#008733"/>
<path d="M5.6 35.6972V12.3041H17.3766V17.9184H11.9341V21.2169H16.8136V26.8312H11.9341V30.0828H17.3766V35.6972H5.6ZM28.2853 12.3041H34.6194V28.843C34.6194 30.1998 34.4082 31.2993 33.9625 32.1414C33.5402 33.0304 32.8364 33.8257 31.8277 34.5275C30.4905 35.4866 28.8718 35.9545 26.9481 35.9545C24.7898 35.9545 22.96 35.4399 21.4821 34.3638C19.6053 33.0304 18.6904 30.8782 18.6904 27.9307V12.3041H25.0244V27.5798C25.0244 28.5857 25.1417 29.3109 25.3998 29.732C25.6578 30.153 26.0566 30.3636 26.6431 30.3636C27.2531 30.3636 27.6754 30.1764 27.9099 29.7787C28.1445 29.3577 28.2618 28.6325 28.2618 27.6032C28.2853 27.5798 28.2853 12.3041 28.2853 12.3041ZM52.6597 35.6972H45.8095L42.6659 27.3692C42.6425 27.2289 42.5721 27.0417 42.5017 26.8078C42.4314 26.5739 42.3375 26.2932 42.2202 25.9657L42.2671 27.5096V35.6972H35.9565V12.3041H42.4548C45.3169 12.3041 47.4517 12.8655 48.8592 13.9884C50.6656 15.4154 51.5571 17.474 51.5571 20.1174C51.5571 22.948 50.3372 24.8896 47.9209 25.9891L52.6597 35.6972ZM42.2906 22.7842H42.7129C43.4401 22.7842 44.0501 22.5035 44.5427 21.9421C45.0354 21.3806 45.2699 20.6788 45.2699 19.8133C45.2699 18.0588 44.355 17.1933 42.5252 17.1933H42.2906V22.7842ZM70.4889 24.0708C70.4889 27.6032 69.6443 30.4805 67.9787 32.6795C66.3131 34.8784 64.1548 35.9779 61.4804 35.9779C59.111 35.9779 57.07 35.1357 55.381 33.4514C53.2462 31.2993 52.1905 28.0944 52.1905 23.8135C52.1905 19.7197 53.2931 16.5616 55.5217 14.4095C57.1639 12.7954 59.1345 12 61.4101 12C64.1783 12 66.3835 13.0995 68.0256 15.275C69.6678 17.4506 70.4889 20.3981 70.4889 24.0708ZM63.756 24.141C63.756 19.8835 62.9818 17.7547 61.457 17.7547C60.6828 17.7547 60.0729 18.3161 59.6271 19.439C59.1814 20.4683 58.9468 21.9888 58.9468 24.0006C58.9468 25.9891 59.1579 27.5096 59.5802 28.6091C60.0025 29.7086 60.589 30.2466 61.3397 30.2466C62.1138 30.2466 62.7003 29.7086 63.1226 28.6325C63.5214 27.5564 63.756 26.0592 63.756 24.141ZM77.9724 35.6972H71.6384V12.3041H77.7848C80.8345 12.3041 83.1101 12.9357 84.588 14.1756C86.324 15.6493 87.192 17.6845 87.192 20.2811C87.192 23.1117 86.2536 25.2405 84.4003 26.6441C83.1335 27.5798 81.3271 28.0476 78.9343 28.0476H77.9724V35.6972ZM77.9724 23.1117L78.2539 23.1351C79.0281 23.1351 79.638 22.9012 80.0838 22.4333C80.5295 21.9655 80.7641 21.3104 80.7641 20.4917C80.7641 19.6729 80.5295 19.0179 80.0838 18.5267C79.638 18.012 79.075 17.7547 78.3712 17.7547H77.9724V23.1117ZM103.144 35.6972H96.5992L96.1301 32.7263H91.8604L91.3443 35.6972H84.7991L90.4294 12.3041H98.171L103.144 35.6972ZM95.3793 27.8137L94.9571 25.0767L94.8867 24.6557C94.8632 24.4451 94.7694 23.5562 94.5583 22.0122C94.5348 21.8485 94.5114 21.6146 94.4879 21.3104C94.441 20.9362 94.4175 20.5619 94.3706 20.1876L94.1829 17.9652C94.1595 18.1992 94.136 18.4331 94.0891 18.667C94.0422 18.9477 94.0187 19.2519 93.9718 19.5326C93.9249 19.977 93.878 20.3981 93.831 20.8426C93.8076 21.0765 93.7841 21.2403 93.7606 21.2871L93.3149 24.1176L92.6815 27.7903L95.3793 27.8137ZM110.581 35.6972H104.247V17.9184H100.752V12.3041H114.217V17.9184H110.581V35.6972ZM121.701 35.6972H115.367V12.3041H121.701V35.6972ZM129.396 35.6972H123.062V12.3041H129.208C132.258 12.3041 134.533 12.9357 136.011 14.1756C137.747 15.6493 138.615 17.6845 138.615 20.2811C138.615 23.1117 137.677 25.2405 135.847 26.6441C134.58 27.5798 132.75 28.0476 130.381 28.0476H129.396V35.6972ZM129.396 23.1117L129.677 23.1351C130.451 23.1351 131.061 22.9012 131.507 22.4333C131.953 21.9655 132.187 21.3104 132.187 20.4917C132.187 19.6729 131.953 19.0179 131.53 18.5267C131.085 18.012 130.522 17.7547 129.818 17.7547H129.372V23.1117H129.396ZM139.389 34.9486V27.6032C140.656 29.3343 142.04 30.1998 143.518 30.1998C144.081 30.1998 144.527 30.0595 144.879 29.7787C145.231 29.498 145.395 29.1471 145.395 28.7027C145.395 28.0944 145.02 27.4862 144.245 26.9014L143.19 26.106C142.486 25.5914 141.899 25.1001 141.383 24.5855C140.891 24.0942 140.492 23.5796 140.163 23.0415C139.858 22.5035 139.624 21.9655 139.483 21.404C139.342 20.8426 139.272 20.2344 139.272 19.6027C139.272 18.5267 139.53 17.4038 140.046 16.2341C140.304 15.6961 140.609 15.1815 140.938 14.737C141.266 14.2925 141.665 13.8714 142.111 13.5439C143.33 12.5614 144.808 12.0468 146.521 12.0468C148.069 12.0468 149.618 12.4445 151.166 13.2398V20.3981C150.65 19.5794 150.04 18.9477 149.36 18.4799C148.679 18.012 148.022 17.7781 147.366 17.7781C146.873 17.7781 146.451 17.9184 146.146 18.1992C145.817 18.4799 145.653 18.784 145.653 19.1583C145.653 19.7665 146.099 20.3747 146.967 20.9829L147.999 21.7081C149.36 22.6438 150.345 23.6264 150.931 24.6089C151.518 25.5914 151.823 26.761 151.823 28.0944C151.823 30.3636 151.096 32.235 149.665 33.6854C148.234 35.1591 146.404 35.8843 144.198 35.8843C142.744 35.9311 141.125 35.6036 139.389 34.9486ZM152.949 35.6972V12.3041H164.726V17.9184H159.283V21.2169H164.162V26.8312H159.283V30.0828H164.726V35.6972H152.949ZM175.564 35.6972H169.23V17.9184H165.734V12.3041H179.2V17.9184H175.564V35.6972Z" fill="white"/>
</g>
<defs>
<clipPath id="clip0_6838_60658">
<rect width="48" height="48" fill="white"/>
</clipPath>
</defs>
</svg>
