<svg width="48" height="48" viewBox="0 0 48 48" fill="none" xmlns="http://www.w3.org/2000/svg">
<g clip-path="url(#clip0_15343_89234)">
<path d="M0 0H48V48H0V0Z" fill="#00A88B"/>
<path d="M35.8836 10.0039H31.396V14.261H35.8836V10.0039Z" fill="white"/>
<path d="M28.9166 10.0039H24.429V14.261H28.9166V10.0039Z" fill="white"/>
<path d="M26.3725 16.1319L22.826 37.9787H28.3583L28.7388 34.4741H31.8861L32.3143 37.9787H37.7464L34.55 16.1319H26.3725ZM29.3073 29.7406L30.3655 20.3089L31.2566 29.7406H29.3073Z" fill="white"/>
<path d="M98.9932 28.7983C100.435 28.8402 101.485 28.9618 102.748 29.1841C101.204 24.9167 99.5305 19.0275 99.5305 19.0275L98.0731 18.3592L99.2805 17.2899L98.3217 8.84055L96.2379 7.10649C92.2752 7.83673 89.667 8.87441 87.5302 10.1389C86.4137 10.7992 85.1634 11.3365 83.7831 11.75C84.6578 12.5755 88.1758 16.0717 90.215 22.721C91.4545 26.763 92.3933 27.8662 92.9008 28.9012C94.2298 28.7724 95.6253 28.7885 96.8336 28.776C96.3092 27.843 93.9211 20.2848 93.9211 20.2848L95.9741 20.3053L98.9932 28.7983ZM93.2652 17.6423C91.8105 13.8128 91.3276 13.1458 91.3276 13.1458L94.1937 12.2267L95.2261 17.6423H93.2652Z" fill="white"/>
<path d="M79.9622 12.2262L79.9025 12.2302C78.1283 12.5965 76.171 12.7809 74.0369 12.7809C73.8119 12.7809 73.5851 12.7787 73.3565 12.7747C73.5566 13.0581 74.1068 14.0049 74.768 16.548C75.4733 19.2623 74.6397 29.6934 74.3661 32.703C76.2673 32.1327 78.2473 31.6123 80.266 31.0959C80.3418 30.3635 80.3921 29.1306 80.422 28.3893L83.1496 27.8314C83.3256 28.6593 83.4619 29.8408 83.5515 30.3118C85.2606 29.9349 86.9804 29.5628 88.6886 29.3102C88.9123 29.2772 89.1337 29.246 89.3538 29.2162C88.8027 27.7913 87.2807 23.585 84.9772 19.2217C82.0371 13.6524 79.9622 12.2262 79.9622 12.2262ZM80.3979 24.1958C80.2112 20.1551 79.6387 16.949 79.6387 16.949C80.6091 18.3975 81.4966 21.1358 82.1912 23.773L80.3979 24.1958Z" fill="white"/>
<path d="M53.8189 18.4639L53.8751 11.7606L50.6743 10.0052H43.6057L40.85 11.7606V22.0648L48.2782 25.2379L48.1449 32.8104L46.2104 32.855L46.2901 26.1673L40.85 26.403V36.2233L43.6057 37.9787L50.6743 37.2658L53.43 35.2431L53.8305 22.8084L46.3899 19.387L46.4737 14.2312L48.5294 14.2927L48.3962 18.6978L53.8189 18.4639Z" fill="white"/>
<path d="M70.4703 12.7172C70.2337 12.7048 70.2324 12.7034 69.9913 12.6869C68.0955 12.5546 65.0903 12.2084 61.5402 11.3129C61.4988 11.3022 61.4667 11.2942 61.4453 11.2893C61.3184 11.259 61.1963 11.2233 61.0417 11.1788C59.8841 10.8446 58.7311 10.5577 57.2136 10.3184L57.1391 15.7193L61.1735 15.8851L61.0207 36.1284L66.112 34.7926L66.496 16.2424L71.291 16.4322C71.2714 15.3803 70.9818 13.8453 70.4703 12.7172Z" fill="white"/>
<path d="M14.0358 20.3169H11.9993V10.0052H6.41524V37.9787H11.9993V25.7303H14.0358V37.9787H19.6199V10.0052H14.0358V20.3169Z" fill="white"/>
</g>
<defs>
<clipPath id="clip0_15343_89234">
<rect width="48" height="48" fill="white"/>
</clipPath>
</defs>
</svg>
