<svg width="48" height="48" viewBox="0 0 48 48" fill="none" xmlns="http://www.w3.org/2000/svg">
<g clip-path="url(#clip0_20708_1149)">
<rect width="48" height="48" fill="#B5C6E2"/>
<path d="M29.9606 35.7708H23.6951L23.4589 25.3088L23.2574 21.1416C23.1852 21.9412 23.1022 22.7019 23.0093 23.429C22.9164 24.1574 22.8034 24.8633 22.6689 25.5465L20.6399 35.7708H15.4899L13.8267 25.5318C13.7277 24.9372 13.5939 23.9173 13.4254 22.4717C13.4057 22.2552 13.3615 21.8135 13.292 21.1416L13.1436 25.3684L12.594 35.7708H6L8.67333 12.8352H16.3806L17.6728 20.5627C17.7817 21.1971 17.8784 21.8829 17.9628 22.6209C18.0468 23.3626 18.1234 24.1703 18.1929 25.0421C18.3188 23.586 18.493 22.2858 18.7156 21.1426L20.2546 12.8352H27.7331L29.9606 35.7708ZM38.3094 28.0436L38.9332 24.4479L39.3637 21.6762C39.3736 21.6272 39.3934 21.4842 39.4233 21.2465C39.4529 21.0084 39.5026 20.5824 39.572 19.9681C39.6112 19.6609 39.6483 19.379 39.6833 19.1212C39.718 18.8634 39.7449 18.6308 39.765 18.4227L39.958 20.5926C40.0073 21.0387 40.0468 21.4075 40.0768 21.6987C40.106 21.9888 40.1312 22.217 40.1509 22.3839C40.3391 23.8884 40.443 24.7499 40.463 24.9675C40.4923 25.2253 40.512 25.3592 40.5223 25.369L40.9232 28.0436H38.3094ZM38.9526 12.5031C38.7297 12.2804 38.6181 12.0036 38.6181 11.6743C38.6181 11.3797 38.7273 11.1188 38.9455 10.8914C39.164 10.6642 39.4335 10.5505 39.7541 10.5505C39.9148 10.5505 40.0642 10.5818 40.202 10.6441C40.3402 10.7068 40.461 10.7892 40.5631 10.8914C40.6655 10.9939 40.7476 11.1147 40.8102 11.253C40.8728 11.3909 40.9038 11.5401 40.9038 11.7008C40.9038 12.0219 40.7925 12.2917 40.5696 12.5103C40.3534 12.7218 40.0945 12.8287 39.7943 12.8352H39.7412C39.4322 12.8287 39.1691 12.7197 38.9526 12.5031ZM43.6557 12.8352H42.0439C42.3264 12.4449 42.4686 11.9984 42.4686 11.4962C42.4686 10.8236 42.2049 10.2334 41.6777 9.72535C41.1505 9.24178 40.511 9 39.7599 9C39.036 9 38.4108 9.24178 37.883 9.72535C37.3558 10.2089 37.092 10.7865 37.092 11.459C37.092 11.9767 37.2384 12.4354 37.5293 12.8352H36.0819L30.5722 35.7708H36.9729L37.478 32.8643H41.6511L42.1109 35.7708H48.512L43.6557 12.8352ZM60.0694 35.7708H49.2277V12.8352H55.4204V30.265H60.0694V35.7708Z" fill="white"/>
<path d="M67.2763 35.7705H61.086V18.3386H57.6707V12.8352H70.8247V18.3386H67.2763V35.7705ZM78.1313 35.7705H71.941V12.8352H78.1313V35.7705ZM85.6408 23.4406L85.9233 23.4552C86.6751 23.4552 87.2741 23.2253 87.7193 22.7646C88.1651 22.3042 88.3877 21.6725 88.3877 20.8705C88.3877 20.0784 88.1699 19.4348 87.7346 18.9393C87.299 18.4343 86.7442 18.1816 86.0717 18.1816H85.6408V23.4406ZM85.6408 35.7705H79.4501V12.8352H85.4479C88.437 12.8352 90.6543 13.4444 92.099 14.6625C93.8014 16.0992 94.6529 18.0951 94.6529 20.6512C94.6529 23.4348 93.7473 25.51 91.936 26.8773C90.6986 27.7981 88.922 28.2589 86.6064 28.2589H85.6408V35.7705ZM95.4003 35.0448V27.8407C96.6418 29.5376 97.9841 30.3862 99.4278 30.3862C99.973 30.3862 100.417 30.2476 100.761 29.9697C101.104 29.6922 101.275 29.3442 101.275 28.925C101.275 28.3215 100.902 27.732 100.155 27.1572L99.1253 26.3828C98.4381 25.8863 97.8531 25.3922 97.3688 24.9001C96.8838 24.4084 96.49 23.9017 96.1871 23.3806C95.8842 22.8596 95.6624 22.3216 95.5204 21.7665C95.3795 21.2111 95.3091 20.627 95.3091 20.013C95.3091 18.9611 95.5616 17.8605 96.0663 16.7112C96.3185 16.1752 96.6112 15.6861 96.9444 15.2428C97.2779 14.7994 97.6611 14.4078 98.0954 14.0669C99.2866 13.0929 100.725 12.6056 102.412 12.6056C103.915 12.6056 105.43 12.9938 106.954 13.7696V20.7953C106.44 19.997 105.853 19.3684 105.197 18.9087C104.541 18.4493 103.895 18.2191 103.259 18.2191C102.775 18.2191 102.376 18.3556 102.063 18.6281C101.74 18.8906 101.578 19.207 101.578 19.5768C101.578 20.1806 102.008 20.7789 102.866 21.3725L103.865 22.0876C105.198 23.0122 106.151 23.9613 106.727 24.9345C107.312 25.9081 107.605 27.0462 107.605 28.3501C107.605 30.5694 106.904 32.3991 105.5 33.8393C104.097 35.2798 102.32 36 100.17 36C98.6859 36 97.0962 35.6813 95.4003 35.0448ZM108.663 35.7705V12.8352H120.169V18.3386H114.854V21.5744H119.619V27.0779H114.854V30.2667H120.169V35.7705H108.663ZM130.757 35.7705H124.566V18.3386H121.152V12.8352H134.305V18.3386H130.757V35.7705Z" fill="white"/>
</g>
<defs>
<clipPath id="clip0_20708_1149">
<rect width="48" height="48" fill="white"/>
</clipPath>
</defs>
</svg>
