<svg width="48" height="48" viewBox="0 0 48 48" fill="none" xmlns="http://www.w3.org/2000/svg">
<g clip-path="url(#clip0_6836_60315)">
<path d="M0 0H48V48H0V0Z" fill="#A00813"/>
<path d="M10.4283 35.8421C6.74132 35.8421 4.7505 32.9057 5.94785 29.2617L9.37825 18.5809C10.5799 14.9412 15.1366 12 18.8188 12H28.6398C32.3263 12 34.3176 14.9364 33.1202 18.5804L29.6893 29.3089C28.492 32.9481 24.5056 35.8421 20.8234 35.8421H10.4283ZM14.6249 29.4524H20.8186C22.0727 29.4524 23.4642 28.493 23.868 27.258L25.9676 20.6795C26.3762 19.4397 25.7015 18.4374 24.4426 18.4374H18.2489C16.9948 18.4374 15.6034 19.4445 15.1995 20.6795L13.1 27.258C12.6913 28.4978 13.3661 29.4524 14.6249 29.4524Z" fill="white"/>
<path d="M30.2824 35.8421C30.2824 35.8421 37.0078 15.8376 37.3163 14.9164C37.4775 14.3918 37.3869 12 37.3869 12L54.2003 12.0095C58.6264 12.0095 59.9425 16.1891 59.2539 18.3024L54.8651 32.0283C54.1765 34.1417 51.84 35.8421 49.7023 35.8421H30.2824ZM38.651 29.7385H47.2389C48.441 29.7385 49.7195 28.7834 50.0995 27.6094L51.7723 22.13C52.4522 19.7492 53.1556 18.3897 50.0995 18.3897H42.367L38.651 29.7385Z" fill="white"/>
<path d="M56.2999 35.8421C56.2999 35.8421 63.0253 15.8376 63.3338 14.9164C63.4949 14.3918 63.4043 12 63.4043 12L80.2178 12.0095C84.6438 12.0095 85.9599 16.1891 85.2713 18.3024L80.8825 32.0283C80.1939 34.1417 77.8574 35.8421 75.7197 35.8421H56.2999ZM64.6684 29.7385H73.2564C74.4585 29.7385 75.7369 28.7834 76.1169 27.6094L77.7897 22.13C78.4697 19.7492 79.173 18.3897 76.1169 18.3897H68.3845L64.6684 29.7385Z" fill="white"/>
<path d="M84.3258 30.6951C84.497 30.2001 84.9538 29.8339 85.4722 29.8339H100.963L101.975 26.0668H90.418C88.7647 26.0668 87.6151 25.7154 86.9923 24.7131C86.5837 24.0431 86.2327 22.8887 86.9165 20.9317L88.2369 17.055C89.1443 14.2664 92.0945 12.0005 94.9117 12.0005H112.268L110.458 17.5304C110.291 18.053 109.812 18.3902 109.265 18.3902H93.8627L92.8127 21.3466H104.161C108.011 21.3466 108.662 23.9034 108.073 26.0187L106.547 30.9807C105.245 34.6261 102.17 35.8426 98.4389 35.8426L82.5129 35.8521L84.3258 30.6951Z" fill="white"/>
<path d="M109.604 30.0241C109.082 31.6163 107.741 35.8421 113.193 35.8421H128.229C128.566 35.8421 128.932 35.5665 129.041 35.2336L130.78 30.0246H115.426L116.642 26.2099H127.439C127.772 26.2099 128.095 25.8818 128.205 25.5442L129.54 21.5368H118.192L119.337 18.3897H141.654L135.933 35.8421H143.66L148.52 20.9651L144.704 18.3897H156.433C156.851 18.3897 157.265 18.2185 157.389 17.8194L159.2 12H115.522L109.604 30.0241Z" fill="white"/>
</g>
<defs>
<clipPath id="clip0_6836_60315">
<rect width="48" height="48" fill="white"/>
</clipPath>
</defs>
</svg>
