<svg width="48" height="48" viewBox="0 0 48 48" fill="none" xmlns="http://www.w3.org/2000/svg">
<g clip-path="url(#clip0_6840_60882)">
<path d="M0 0H48V48H0V0Z" fill="#23585F"/>
<path d="M13.3017 26.4942H10.9866V32.7626H12.6902V35.0122H6.4V32.7626H8.10359V15.3991H6.4V13.1495H13.3017C16.4686 13.1495 18.0193 14.4162 18.0193 17.4303V22.2134C18.0193 25.0309 16.7526 26.4942 13.3017 26.4942ZM15.1363 17.5613C15.1363 16.2727 14.6558 15.3991 12.9523 15.3991H10.9866V24.2446H12.9523C14.5903 24.2446 15.1363 23.4583 15.1363 22.0824V17.5613ZM29.3548 35.3616C25.8384 35.3616 24.1566 34.1167 24.1566 30.775V17.3866C24.1566 14.1978 25.7073 12.8 29.3548 12.8C32.8275 12.8 34.5529 14.0668 34.5529 17.3866V30.775C34.5529 34.0075 33.0022 35.3616 29.3548 35.3616ZM31.6699 17.2555C31.6699 15.683 31.0583 15.0496 29.3548 15.0496C27.8259 15.0496 27.0396 15.4646 27.0396 17.2555V30.8842C27.0396 32.5005 27.673 33.112 29.3548 33.112C30.9491 33.112 31.6699 32.566 31.6699 30.8842V17.2555ZM60.1286 35.0122V32.7626H61.8321V15.3991H60.1286V13.1495H71.4421V19.3959H68.5591V15.3991H64.7151V22.4973H69.1707V24.747H64.7151V32.7626H68.581V28.6783H71.464V35.0122H60.1286ZM88.478 35.0122C86.9491 35.0122 86.01 34.4443 86.01 32.2602V27.2587C86.01 25.97 85.5076 25.0964 83.8259 25.0964H82.0568V32.7626H83.6949V35.0122H77.4484V32.7626H79.152V15.3991H77.4484V13.1495H84.1317C87.386 13.1495 88.8493 14.4817 88.8493 17.4303V20.7938C88.8493 22.5629 88.1941 23.6112 86.4031 23.9825C88.0193 24.3538 88.8711 25.3367 88.8711 27.0839V31.8671C88.8711 32.566 89.024 32.7626 89.7011 32.7626H90.4V35.0122H88.478ZM85.9663 17.5613C85.9663 16.2727 85.464 15.3991 83.7822 15.3991H82.0349V22.8468H83.7822C85.4203 22.8468 85.9663 22.0605 85.9663 20.6846V17.5613ZM53.1832 32.7626L48.7931 21.3835L52.2877 15.4209H54.1442V13.1495H48.0069V15.3991H49.3173L45.1676 22.7158V15.3991H46.7183V13.1495H40.581V15.3991H42.2846V32.7626H40.581V35.0122H46.7183V32.7626H45.1676V27.5863L46.9803 24.4849L50.1036 32.7626H48.4V35.0122H54.5373V32.7626H53.1832Z" fill="white"/>
</g>
<defs>
<clipPath id="clip0_6840_60882">
<rect width="48" height="48" fill="white"/>
</clipPath>
</defs>
</svg>
