<svg width="48" height="48" viewBox="0 0 48 48" fill="none" xmlns="http://www.w3.org/2000/svg">
<g clip-path="url(#clip0_6836_60456)">
<path d="M0 0H48V48H0V0Z" fill="#A00813"/>
<path d="M138.221 12.7792H152.45C156.183 12.7792 158.261 15.722 157.089 19.3435L156.283 21.8326C155.111 25.4536 151.118 28.3968 147.391 28.3968H138.988L136.614 35.7123H130.538L138.221 12.7792ZM140.91 22.2321H149.215C149.584 22.2321 149.979 21.9816 150.079 21.684L150.885 19.1898C150.979 18.8926 150.751 18.6417 150.381 18.6417H142.077L140.91 22.2321Z" fill="white"/>
<path d="M171.705 35.712H157.751C155.903 35.712 154.592 33.9118 155.168 32.1533L161.463 12.7794H167.451L161.944 29.722H173.653L171.705 35.712Z" fill="white"/>
<path d="M121.002 28.3497L122.512 35.712H128.853L126.947 27.0292C129.746 26.283 132.599 23.9769 133.264 19.9798C134.009 15.4717 131.249 12.7789 127.506 12.7789H113.961L106.508 35.7111H112.599L114.989 28.3492L121.002 28.3497ZM126.737 18.6584C127.107 18.6584 127.342 18.9088 127.244 19.2065L126.434 21.6956C126.34 21.9928 125.944 22.2437 125.572 22.2437H116.907L118.066 18.6588L126.737 18.6584Z" fill="white"/>
<path d="M13.0342 12.7795H27.5126C31.2453 12.7795 33.3226 15.7222 32.1516 19.3437L31.3448 21.8328C30.1734 25.4539 26.1802 28.3971 22.4526 28.3971H14.0497L11.6756 35.7126H5.60009L13.0342 12.7795ZM15.9183 22.4066H24.2221C24.5918 22.4066 24.9872 22.1562 25.0862 21.8585L25.893 19.3644C25.9871 19.0672 25.7577 18.8163 25.388 18.8163H17.0843L15.9183 22.4066Z" fill="white"/>
<path d="M76.9683 26.5022L74.7116 18.6428H70.4354L63.2811 26.5756L67.7027 12.9358H61.8798L54.4943 35.712H60.6451C61.3221 35.712 61.9629 35.4304 62.4261 34.9396L70.0561 26.7944L72.6967 35.7115H79.8056L87.2434 12.7794H83.1915C82.1343 12.7794 81.1963 13.4628 80.8683 14.47L76.9683 26.5022Z" fill="white"/>
<path d="M173.745 35.712H179.987L182.872 26.6417H192.167L189.283 35.712H195.197L200.565 19.2509C201.639 15.9523 200.033 13.2178 196.956 12.7794H186.947C183.572 13.2229 180.535 15.0813 179.461 18.3795L173.745 35.712ZM185.401 19.1046C185.469 18.901 185.777 18.6767 186.116 18.6767H194.258C194.596 18.6767 194.764 18.901 194.69 19.1046L193.657 22.0533H184.362L185.401 19.1046Z" fill="white"/>
<path d="M218.873 12.7794L212.374 19.4216L209.017 12.7794H202.09L208.129 26.0225L203.896 35.712H209.649C210.181 35.712 210.661 35.3886 210.854 34.8928L214.112 26.6641L226.4 12.7794H218.873Z" fill="white"/>
<path d="M103.362 35.712C103.685 35.712 104.036 35.4482 104.14 35.1249L105.92 29.7178H90.0156L91.0375 26.4761H101.401C101.752 26.4761 102.128 26.194 102.242 25.8436L103.565 21.8157H92.4979L93.5657 18.6607H107.1C107.423 18.6607 107.773 18.3965 107.878 18.0736L109.535 12.7794H89.8541L84.2455 30.0641C83.7465 31.607 82.2622 35.7074 87.4984 35.7074L103.362 35.712Z" fill="white"/>
<path d="M53.0426 12.7794H43.0271C39.4853 12.7794 35.682 15.6193 34.527 19.1198L31.1595 29.372C30.0082 32.8766 31.9433 35.7124 35.4889 35.7124H45.5085C49.0508 35.7124 52.8537 32.8725 54.0049 29.372L57.3725 19.1198C58.5237 15.6152 56.5886 12.7794 53.0426 12.7794ZM48.4261 27.3847C48.0376 28.5717 46.7433 29.539 45.5374 29.539H39.5114C38.3019 29.539 37.6455 28.5753 38.0377 27.3847L39.9847 21.4589L37.8464 18.9652L49.016 18.9505C50.2255 18.9505 50.8961 19.8444 50.5039 21.0351L48.4261 27.3847Z" fill="white"/>
</g>
<defs>
<clipPath id="clip0_6836_60456">
<rect width="48" height="48" fill="white"/>
</clipPath>
</defs>
</svg>
